<?xml version="1.0" encoding="UTF-8" standalone="no"?>
<!-- Created with Inkscape (http://www.inkscape.org/) -->

<svg
   xmlns:dc="http://purl.org/dc/elements/1.1/"
   xmlns:cc="http://creativecommons.org/ns#"
   xmlns:rdf="http://www.w3.org/1999/02/22-rdf-syntax-ns#"
   xmlns:svg="http://www.w3.org/2000/svg"
   xmlns="http://www.w3.org/2000/svg"
   xmlns:sodipodi="http://sodipodi.sourceforge.net/DTD/sodipodi-0.dtd"
   xmlns:inkscape="http://www.inkscape.org/namespaces/inkscape"
   width="7.5066481mm"
   height="7.5067186mm"
   viewBox="0 0 26.598359 26.598609"
   id="svg2"
   version="1.1"
   inkscape:version="0.91 r13725"
   sodipodi:docname="logoonly.svg"
   inkscape:export-filename="/home/priyadi/Documents/rekalogika/kreatif/logoonly-500.png"
   inkscape:export-xdpi="1691.83"
   inkscape:export-ydpi="1691.83">
  <defs
     id="defs4">
    <inkscape:perspective
       sodipodi:type="inkscape:persp3d"
       inkscape:vp_x="0 : 526.18107 : 1"
       inkscape:vp_y="0 : 999.99995 : 0"
       inkscape:vp_z="744.09445 : 526.18107 : 1"
       inkscape:persp3d-origin="372.04723 : 350.78738 : 1"
       id="perspective4918" />
    <clipPath
       id="clipPath5332"
       clipPathUnits="userSpaceOnUse">
      <path
         inkscape:connector-curvature="0"
         id="path5334"
         d="m 0,485.035 648.988,0 L 648.988,0 0,0 0,485.035 Z" />
    </clipPath>
    <clipPath
       id="clipPath5630"
       clipPathUnits="userSpaceOnUse">
      <path
         inkscape:connector-curvature="0"
         id="path5632"
         d="m 0,485.035 648.988,0 L 648.988,0 0,0 0,485.035 Z" />
    </clipPath>
    <inkscape:perspective
       inkscape:persp3d-origin="299.99999 : 399.99998 : 1"
       inkscape:vp_z="699.99997 : 599.99997 : 1"
       inkscape:vp_y="0 : 999.99995 : 0"
       inkscape:vp_x="-49.999997 : 599.99997 : 1"
       id="perspective9"
       sodipodi:type="inkscape:persp3d" />
  </defs>
  <sodipodi:namedview
     id="base"
     pagecolor="#ffffff"
     bordercolor="#666666"
     borderopacity="1.0"
     inkscape:pageopacity="0.0"
     inkscape:pageshadow="2"
     inkscape:zoom="11.2"
     inkscape:cx="3.1727594"
     inkscape:cy="27.042996"
     inkscape:document-units="px"
     inkscape:current-layer="layer1"
     showgrid="false"
     showguides="true"
     inkscape:guide-bbox="true"
     inkscape:snap-bbox="true"
     inkscape:snap-bbox-edge-midpoints="false"
     inkscape:bbox-nodes="true"
     inkscape:bbox-paths="true"
     inkscape:snap-global="false"
     inkscape:window-width="1920"
     inkscape:window-height="1139"
     inkscape:window-x="1920"
     inkscape:window-y="-1"
     inkscape:window-maximized="1"
     fit-margin-top="0"
     fit-margin-left="0"
     fit-margin-right="0"
     fit-margin-bottom="0" />
  <metadata
     id="metadata7">
    <rdf:RDF>
      <cc:Work
         rdf:about="">
        <dc:format>image/svg+xml</dc:format>
        <dc:type
           rdf:resource="http://purl.org/dc/dcmitype/StillImage" />
        <dc:title />
      </cc:Work>
    </rdf:RDF>
  </metadata>
  <g
     inkscape:label="Layer 1"
     inkscape:groupmode="layer"
     id="layer1"
     transform="translate(261.59015,-220.95918)">
    <path
       id="path8522"
       d="m -261.00193,237.11825 c 0.41178,0.46376 1.35294,0.66986 2.94116,0.66986 1.58821,0 2.52938,-0.2061 2.94115,-0.66986 0.41176,-0.46374 0.58822,-1.44276 0.58822,-2.88551 0,-1.44276 -0.17646,-2.37023 -0.58822,-2.83398 -0.41177,-0.46375 -1.35294,-0.66985 -2.94115,-0.66985 -1.58822,0 -2.52938,0.2061 -2.94116,0.66985 -0.41175,0.46375 -0.58822,1.39124 -0.58822,2.83398 0,1.44277 0.17647,2.42177 0.58822,2.88551 z"
       style="font-style:normal;font-variant:normal;font-weight:500;font-stretch:normal;font-size:medium;line-height:125%;font-family:'Sentico Sans DT';-inkscape-font-specification:'Sentico Sans DT, Medium';text-align:start;letter-spacing:0px;word-spacing:0px;writing-mode:lr-tb;text-anchor:start;fill:#ffe4df;fill-opacity:1;stroke:none;stroke-width:1px;stroke-linecap:butt;stroke-linejoin:miter;stroke-opacity:1"
       inkscape:connector-curvature="0" />
    <path
       inkscape:connector-curvature="0"
       style="font-style:normal;font-variant:normal;font-weight:500;font-stretch:normal;font-size:medium;line-height:125%;font-family:'Sentico Sans DT';-inkscape-font-specification:'Sentico Sans DT, Medium';text-align:start;letter-spacing:0px;word-spacing:0px;writing-mode:lr-tb;text-anchor:start;fill:#ff6c52;fill-opacity:1;stroke:none;stroke-width:1px;stroke-linecap:butt;stroke-linejoin:miter;stroke-opacity:1"
       d="m -251.23211,237.11825 c 0.41176,0.46376 1.35293,0.66986 2.94114,0.66986 1.58822,0 2.5294,-0.2061 2.94115,-0.66986 0.41176,-0.46374 0.58823,-1.44276 0.58823,-2.88551 0,-1.44276 -0.17647,-2.37023 -0.58823,-2.83398 -0.41175,-0.46375 -1.35293,-0.66985 -2.94115,-0.66985 -1.58821,0 -2.52938,0.2061 -2.94114,0.66985 -0.41177,0.46375 -0.58823,1.39124 -0.58823,2.83398 0,1.44277 0.17646,2.42177 0.58823,2.88551 z"
       id="path8524" />
    <path
       id="path8526"
       d="m -241.46232,237.11825 c 0.41177,0.46376 1.35294,0.66986 2.94116,0.66986 1.58821,0 2.52938,-0.2061 2.94115,-0.66986 0.41176,-0.46374 0.58822,-1.44276 0.58822,-2.88551 0,-1.44276 -0.17646,-2.37023 -0.58822,-2.83398 -0.41177,-0.46375 -1.35294,-0.66985 -2.94115,-0.66985 -1.58822,0 -2.52939,0.2061 -2.94116,0.66985 -0.41175,0.46375 -0.58822,1.39124 -0.58822,2.83398 0,1.44277 0.17647,2.42177 0.58822,2.88551 z"
       style="font-style:normal;font-variant:normal;font-weight:500;font-stretch:normal;font-size:medium;line-height:125%;font-family:'Sentico Sans DT';-inkscape-font-specification:'Sentico Sans DT, Medium';text-align:start;letter-spacing:0px;word-spacing:0px;writing-mode:lr-tb;text-anchor:start;fill:#ff6c52;fill-opacity:1;stroke:none;stroke-width:1px;stroke-linecap:butt;stroke-linejoin:miter;stroke-opacity:1"
       inkscape:connector-curvature="0" />
    <path
       inkscape:connector-curvature="0"
       style="font-style:normal;font-variant:normal;font-weight:500;font-stretch:normal;font-size:medium;line-height:125%;font-family:'Sentico Sans DT';-inkscape-font-specification:'Sentico Sans DT, Medium';text-align:start;letter-spacing:0px;word-spacing:0px;writing-mode:lr-tb;text-anchor:start;fill:#ff6c52;fill-opacity:1;stroke:none;stroke-width:1px;stroke-linecap:butt;stroke-linejoin:miter;stroke-opacity:1"
       d="m -261.00193,246.88793 c 0.41178,0.46375 1.35294,0.66986 2.94116,0.66986 1.58821,0 2.52938,-0.20611 2.94115,-0.66986 0.41176,-0.46376 0.58822,-1.44276 0.58822,-2.88551 0,-1.44276 -0.17646,-2.37026 -0.58822,-2.83399 -0.41177,-0.46376 -1.35294,-0.66986 -2.94115,-0.66986 -1.58822,0 -2.52938,0.2061 -2.94116,0.66986 -0.41175,0.46374 -0.58822,1.39123 -0.58822,2.83399 0,1.44275 0.17647,2.42177 0.58822,2.88551 z"
       id="path8528" />
    <path
       id="path8530"
       d="m -251.23211,246.88793 c 0.41176,0.46375 1.35293,0.66986 2.94114,0.66986 1.58822,0 2.5294,-0.20611 2.94115,-0.66986 0.41176,-0.46376 0.58823,-1.44276 0.58823,-2.88551 0,-1.44276 -0.17647,-2.37026 -0.58823,-2.83399 -0.41175,-0.46376 -1.35293,-0.66986 -2.94115,-0.66986 -1.58821,0 -2.52938,0.2061 -2.94114,0.66986 -0.41177,0.46374 -0.58823,1.39123 -0.58823,2.83399 0,1.44275 0.17646,2.42177 0.58823,2.88551 z"
       style="font-style:normal;font-variant:normal;font-weight:500;font-stretch:normal;font-size:medium;line-height:125%;font-family:'Sentico Sans DT';-inkscape-font-specification:'Sentico Sans DT, Medium';text-align:start;letter-spacing:0px;word-spacing:0px;writing-mode:lr-tb;text-anchor:start;fill:#ff6c52;fill-opacity:1;stroke:none;stroke-width:1px;stroke-linecap:butt;stroke-linejoin:miter;stroke-opacity:1"
       inkscape:connector-curvature="0" />
    <path
       inkscape:connector-curvature="0"
       style="font-style:normal;font-variant:normal;font-weight:500;font-stretch:normal;font-size:medium;line-height:125%;font-family:'Sentico Sans DT';-inkscape-font-specification:'Sentico Sans DT, Medium';text-align:start;letter-spacing:0px;word-spacing:0px;writing-mode:lr-tb;text-anchor:start;fill:#ff6c52;fill-opacity:1;stroke:none;stroke-width:1px;stroke-linecap:butt;stroke-linejoin:miter;stroke-opacity:1"
       d="m -241.46232,246.88793 c 0.41177,0.46375 1.35294,0.66986 2.94116,0.66986 1.58821,0 2.52938,-0.20611 2.94115,-0.66986 0.41176,-0.46376 0.58822,-1.44276 0.58822,-2.88551 0,-1.44276 -0.17646,-2.37026 -0.58822,-2.83399 -0.41177,-0.46376 -1.35294,-0.66986 -2.94115,-0.66986 -1.58822,0 -2.52939,0.2061 -2.94116,0.66986 -0.41175,0.46374 -0.58822,1.39123 -0.58822,2.83399 0,1.44275 0.17647,2.42177 0.58822,2.88551 z"
       id="path8532" />
    <path
       inkscape:connector-curvature="0"
       style="font-style:normal;font-variant:normal;font-weight:500;font-stretch:normal;font-size:medium;line-height:125%;font-family:'Sentico Sans DT';-inkscape-font-specification:'Sentico Sans DT, Medium';text-align:start;letter-spacing:0px;word-spacing:0px;writing-mode:lr-tb;text-anchor:start;fill:#ffe4df;fill-opacity:1;stroke:none;stroke-width:1px;stroke-linecap:butt;stroke-linejoin:miter;stroke-opacity:1"
       d="m -261.00193,227.34853 c 0.41178,0.46377 1.35294,0.66986 2.94116,0.66986 1.58821,0 2.52938,-0.20609 2.94115,-0.66986 0.41176,-0.46373 0.58822,-1.44276 0.58822,-2.88551 0,-1.44277 -0.17646,-2.37024 -0.58822,-2.83398 -0.41177,-0.46376 -1.35294,-0.66986 -2.94115,-0.66986 -1.58822,0 -2.52938,0.2061 -2.94116,0.66986 -0.41175,0.46374 -0.58822,1.39123 -0.58822,2.83398 0,1.44276 0.17647,2.42178 0.58822,2.88551 z"
       id="path8534" />
    <path
       id="path8536"
       d="m -251.23211,227.34853 c 0.41176,0.46377 1.35293,0.66986 2.94114,0.66986 1.58822,0 2.5294,-0.20609 2.94115,-0.66986 0.41176,-0.46373 0.58823,-1.44276 0.58823,-2.88551 0,-1.44277 -0.17647,-2.37024 -0.58823,-2.83398 -0.41175,-0.46376 -1.35293,-0.66986 -2.94115,-0.66986 -1.58821,0 -2.52938,0.2061 -2.94114,0.66986 -0.41177,0.46374 -0.58823,1.39123 -0.58823,2.83398 0,1.44276 0.17646,2.42178 0.58823,2.88551 z"
       style="font-style:normal;font-variant:normal;font-weight:500;font-stretch:normal;font-size:medium;line-height:125%;font-family:'Sentico Sans DT';-inkscape-font-specification:'Sentico Sans DT, Medium';text-align:start;letter-spacing:0px;word-spacing:0px;writing-mode:lr-tb;text-anchor:start;fill:#ff6c52;fill-opacity:1;stroke:none;stroke-width:1px;stroke-linecap:butt;stroke-linejoin:miter;stroke-opacity:1"
       inkscape:connector-curvature="0" />
    <path
       inkscape:connector-curvature="0"
       style="font-style:normal;font-variant:normal;font-weight:500;font-stretch:normal;font-size:medium;line-height:125%;font-family:'Sentico Sans DT';-inkscape-font-specification:'Sentico Sans DT, Medium';text-align:start;letter-spacing:0px;word-spacing:0px;writing-mode:lr-tb;text-anchor:start;fill:#ffe4df;fill-opacity:1;stroke:none;stroke-width:1px;stroke-linecap:butt;stroke-linejoin:miter;stroke-opacity:1"
       d="m -241.46232,227.34853 c 0.41177,0.46377 1.35294,0.66986 2.94116,0.66986 1.58821,0 2.52938,-0.20609 2.94115,-0.66986 0.41176,-0.46373 0.58822,-1.44276 0.58822,-2.88551 0,-1.44277 -0.17646,-2.37024 -0.58822,-2.83398 -0.41177,-0.46376 -1.35294,-0.66986 -2.94115,-0.66986 -1.58822,0 -2.52939,0.2061 -2.94116,0.66986 -0.41175,0.46374 -0.58822,1.39123 -0.58822,2.83398 0,1.44276 0.17647,2.42178 0.58822,2.88551 z"
       id="path8538" />
  </g>
</svg>
