<svg xmlns="http://www.w3.org/2000/svg" xmlns:xlink="http://www.w3.org/1999/xlink" contentStyleType="text/css" height="651px" preserveAspectRatio="none" style="width:983px;height:651px;" version="1.1" viewBox="0 0 983 651" width="983px" zoomAndPan="magnify"><defs/><g><!--class PageableInterface--><g id="elem_PageableInterface"><rect codeLine="2" fill="#313139" height="48" id="PageableInterface" rx="2.5" ry="2.5" style="stroke:#E7E7E7;stroke-width:0.5;" width="159.1689" x="552.5" y="7"/><ellipse cx="567.5" cy="23" fill="#352866" rx="11" ry="11" style="stroke:#E7E7E7;stroke-width:1.0;"/><path d="M563.4219,18.7656 L563.4219,16.6094 L570.8125,16.6094 L570.8125,18.7656 L568.3438,18.7656 L568.3438,26.8438 L570.8125,26.8438 L570.8125,29 L563.4219,29 L563.4219,26.8438 L565.8906,26.8438 L565.8906,18.7656 L563.4219,18.7656 Z " fill="#FFFFFF"/><text fill="#FFFFFF" font-family="sans-serif" font-size="14" font-style="italic" lengthAdjust="spacing" textLength="127.1689" x="581.5" y="27.8467">PageableInterface</text><line style="stroke:#E7E7E7;stroke-width:0.5;" x1="553.5" x2="710.6689" y1="39" y2="39"/><line style="stroke:#E7E7E7;stroke-width:0.5;" x1="553.5" x2="710.6689" y1="47" y2="47"/></g><!--class KeysetPageable--><g id="elem_KeysetPageable"><rect codeLine="5" fill="#313139" height="48" id="KeysetPageable" rx="2.5" ry="2.5" style="stroke:#E7E7E7;stroke-width:0.5;" width="143.9658" x="274" y="115"/><ellipse cx="289" cy="131" fill="#2E5233" rx="11" ry="11" style="stroke:#E7E7E7;stroke-width:1.0;"/><path d="M291.9688,136.6406 Q291.3906,136.9375 290.75,137.0781 Q290.1094,137.2344 289.4063,137.2344 Q286.9063,137.2344 285.5781,135.5938 Q284.2656,133.9375 284.2656,130.8125 Q284.2656,127.6875 285.5781,126.0313 Q286.9063,124.375 289.4063,124.375 Q290.1094,124.375 290.75,124.5313 Q291.4063,124.6875 291.9688,124.9844 L291.9688,127.7031 Q291.3438,127.125 290.75,126.8594 Q290.1563,126.5781 289.5313,126.5781 Q288.1875,126.5781 287.5,127.6563 Q286.8125,128.7188 286.8125,130.8125 Q286.8125,132.9063 287.5,133.9844 Q288.1875,135.0469 289.5313,135.0469 Q290.1563,135.0469 290.75,134.7813 Q291.3438,134.5 291.9688,133.9219 L291.9688,136.6406 Z " fill="#FFFFFF"/><text fill="#FFFFFF" font-family="sans-serif" font-size="14" lengthAdjust="spacing" textLength="111.9658" x="303" y="135.8467">KeysetPageable</text><line style="stroke:#E7E7E7;stroke-width:0.5;" x1="275" x2="416.9658" y1="147" y2="147"/><line style="stroke:#E7E7E7;stroke-width:0.5;" x1="275" x2="416.9658" y1="155" y2="155"/></g><!--class OffsetPageable--><g id="elem_OffsetPageable"><rect codeLine="10" fill="#313139" height="48" id="OffsetPageable" rx="2.5" ry="2.5" style="stroke:#E7E7E7;stroke-width:0.5;" width="138.7637" x="562.5" y="115"/><ellipse cx="577.5" cy="131" fill="#2E5233" rx="11" ry="11" style="stroke:#E7E7E7;stroke-width:1.0;"/><path d="M580.4688,136.6406 Q579.8906,136.9375 579.25,137.0781 Q578.6094,137.2344 577.9063,137.2344 Q575.4063,137.2344 574.0781,135.5938 Q572.7656,133.9375 572.7656,130.8125 Q572.7656,127.6875 574.0781,126.0313 Q575.4063,124.375 577.9063,124.375 Q578.6094,124.375 579.25,124.5313 Q579.9063,124.6875 580.4688,124.9844 L580.4688,127.7031 Q579.8438,127.125 579.25,126.8594 Q578.6563,126.5781 578.0313,126.5781 Q576.6875,126.5781 576,127.6563 Q575.3125,128.7188 575.3125,130.8125 Q575.3125,132.9063 576,133.9844 Q576.6875,135.0469 578.0313,135.0469 Q578.6563,135.0469 579.25,134.7813 Q579.8438,134.5 580.4688,133.9219 L580.4688,136.6406 Z " fill="#FFFFFF"/><text fill="#FFFFFF" font-family="sans-serif" font-size="14" lengthAdjust="spacing" textLength="106.7637" x="591.5" y="135.8467">OffsetPageable</text><line style="stroke:#E7E7E7;stroke-width:0.5;" x1="563.5" x2="700.2637" y1="147" y2="147"/><line style="stroke:#E7E7E7;stroke-width:0.5;" x1="563.5" x2="700.2637" y1="155" y2="155"/></g><!--class KeysetPaginationAdapterInterface--><g id="elem_KeysetPaginationAdapterInterface"><rect codeLine="15" fill="#313139" height="96.8906" id="KeysetPaginationAdapterInterface" rx="2.5" ry="2.5" style="stroke:#E7E7E7;stroke-width:0.5;" width="323.1855" x="75.5" y="223"/><ellipse cx="113.5291" cy="239" fill="#352866" rx="11" ry="11" style="stroke:#E7E7E7;stroke-width:1.0;"/><path d="M109.451,234.7656 L109.451,232.6094 L116.8416,232.6094 L116.8416,234.7656 L114.3729,234.7656 L114.3729,242.8438 L116.8416,242.8438 L116.8416,245 L109.451,245 L109.451,242.8438 L111.9197,242.8438 L111.9197,234.7656 L109.451,234.7656 Z " fill="#FFFFFF"/><text fill="#FFFFFF" font-family="sans-serif" font-size="14" font-style="italic" lengthAdjust="spacing" textLength="240.0098" x="132.6467" y="243.8467">KeysetPaginationAdapterInterface</text><line style="stroke:#E7E7E7;stroke-width:0.5;" x1="76.5" x2="397.6855" y1="255" y2="255"/><line style="stroke:#E7E7E7;stroke-width:0.5;" x1="76.5" x2="397.6855" y1="263" y2="263"/><text fill="#FFFFFF" font-family="sans-serif" font-size="14" lengthAdjust="spacing" textLength="294.6768" x="81.5" y="279.9951">getKeysetItems(offset, limit, values, type)</text><text fill="#FFFFFF" font-family="sans-serif" font-size="14" lengthAdjust="spacing" textLength="311.1855" x="81.5" y="296.292">countKeysetItems(offset, limit, values, type)</text><text fill="#FFFFFF" font-family="sans-serif" font-size="14" lengthAdjust="spacing" textLength="89.585" x="81.5" y="312.5889">countItems()</text></g><!--class OffsetPaginationAdapterInterface--><g id="elem_OffsetPaginationAdapterInterface"><rect codeLine="23" fill="#313139" height="96.8906" id="OffsetPaginationAdapterInterface" rx="2.5" ry="2.5" style="stroke:#E7E7E7;stroke-width:0.5;" width="266.8076" x="498.5" y="223"/><ellipse cx="513.5" cy="239" fill="#352866" rx="11" ry="11" style="stroke:#E7E7E7;stroke-width:1.0;"/><path d="M509.4219,234.7656 L509.4219,232.6094 L516.8125,232.6094 L516.8125,234.7656 L514.3438,234.7656 L514.3438,242.8438 L516.8125,242.8438 L516.8125,245 L509.4219,245 L509.4219,242.8438 L511.8906,242.8438 L511.8906,234.7656 L509.4219,234.7656 Z " fill="#FFFFFF"/><text fill="#FFFFFF" font-family="sans-serif" font-size="14" font-style="italic" lengthAdjust="spacing" textLength="234.8076" x="527.5" y="243.8467">OffsetPaginationAdapterInterface</text><line style="stroke:#E7E7E7;stroke-width:0.5;" x1="499.5" x2="764.3076" y1="255" y2="255"/><line style="stroke:#E7E7E7;stroke-width:0.5;" x1="499.5" x2="764.3076" y1="263" y2="263"/><text fill="#FFFFFF" font-family="sans-serif" font-size="14" lengthAdjust="spacing" textLength="194.8652" x="504.5" y="279.9951">getOffsetItems(offset, limit)</text><text fill="#FFFFFF" font-family="sans-serif" font-size="14" lengthAdjust="spacing" textLength="216.5762" x="504.5" y="296.292">countKeysetItems(offset, limit)</text><text fill="#FFFFFF" font-family="sans-serif" font-size="14" lengthAdjust="spacing" textLength="89.585" x="504.5" y="312.5889">countItems()</text></g><!--class CollectionAdapter--><g id="elem_CollectionAdapter"><rect codeLine="31" fill="#313139" height="48" id="CollectionAdapter" rx="2.5" ry="2.5" style="stroke:#E7E7E7;stroke-width:0.5;" width="157.0361" x="685.5" y="488"/><ellipse cx="700.5" cy="504" fill="#2E5233" rx="11" ry="11" style="stroke:#E7E7E7;stroke-width:1.0;"/><path d="M703.4688,509.6406 Q702.8906,509.9375 702.25,510.0781 Q701.6094,510.2344 700.9063,510.2344 Q698.4063,510.2344 697.0781,508.5938 Q695.7656,506.9375 695.7656,503.8125 Q695.7656,500.6875 697.0781,499.0313 Q698.4063,497.375 700.9063,497.375 Q701.6094,497.375 702.25,497.5313 Q702.9063,497.6875 703.4688,497.9844 L703.4688,500.7031 Q702.8438,500.125 702.25,499.8594 Q701.6563,499.5781 701.0313,499.5781 Q699.6875,499.5781 699,500.6563 Q698.3125,501.7188 698.3125,503.8125 Q698.3125,505.9063 699,506.9844 Q699.6875,508.0469 701.0313,508.0469 Q701.6563,508.0469 702.25,507.7813 Q702.8438,507.5 703.4688,506.9219 L703.4688,509.6406 Z " fill="#FFFFFF"/><text fill="#FFFFFF" font-family="sans-serif" font-size="14" lengthAdjust="spacing" textLength="125.0361" x="714.5" y="508.8467">CollectionAdapter</text><line style="stroke:#E7E7E7;stroke-width:0.5;" x1="686.5" x2="841.5361" y1="520" y2="520"/><line style="stroke:#E7E7E7;stroke-width:0.5;" x1="686.5" x2="841.5361" y1="528" y2="528"/></g><!--class SelectableAdapter--><g id="elem_SelectableAdapter"><rect codeLine="36" fill="#313139" height="48" id="SelectableAdapter" rx="2.5" ry="2.5" style="stroke:#E7E7E7;stroke-width:0.5;" width="160.9463" x="384.5" y="596"/><ellipse cx="399.5" cy="612" fill="#2E5233" rx="11" ry="11" style="stroke:#E7E7E7;stroke-width:1.0;"/><path d="M402.4688,617.6406 Q401.8906,617.9375 401.25,618.0781 Q400.6094,618.2344 399.9063,618.2344 Q397.4063,618.2344 396.0781,616.5938 Q394.7656,614.9375 394.7656,611.8125 Q394.7656,608.6875 396.0781,607.0313 Q397.4063,605.375 399.9063,605.375 Q400.6094,605.375 401.25,605.5313 Q401.9063,605.6875 402.4688,605.9844 L402.4688,608.7031 Q401.8438,608.125 401.25,607.8594 Q400.6563,607.5781 400.0313,607.5781 Q398.6875,607.5781 398,608.6563 Q397.3125,609.7188 397.3125,611.8125 Q397.3125,613.9063 398,614.9844 Q398.6875,616.0469 400.0313,616.0469 Q400.6563,616.0469 401.25,615.7813 Q401.8438,615.5 402.4688,614.9219 L402.4688,617.6406 Z " fill="#FFFFFF"/><text fill="#FFFFFF" font-family="sans-serif" font-size="14" lengthAdjust="spacing" textLength="128.9463" x="413.5" y="616.8467">SelectableAdapter</text><line style="stroke:#E7E7E7;stroke-width:0.5;" x1="385.5" x2="544.4463" y1="628" y2="628"/><line style="stroke:#E7E7E7;stroke-width:0.5;" x1="385.5" x2="544.4463" y1="636" y2="636"/></g><!--class DBAL\QueryBuilderAdapter--><g id="elem_DBAL\QueryBuilderAdapter"><rect codeLine="42" fill="#313139" height="48" id="DBAL\QueryBuilderAdapter" rx="2.5" ry="2.5" style="stroke:#E7E7E7;stroke-width:0.5;" width="222.3262" x="288" y="488"/><ellipse cx="303" cy="504" fill="#2E5233" rx="11" ry="11" style="stroke:#E7E7E7;stroke-width:1.0;"/><path d="M305.9688,509.6406 Q305.3906,509.9375 304.75,510.0781 Q304.1094,510.2344 303.4063,510.2344 Q300.9063,510.2344 299.5781,508.5938 Q298.2656,506.9375 298.2656,503.8125 Q298.2656,500.6875 299.5781,499.0313 Q300.9063,497.375 303.4063,497.375 Q304.1094,497.375 304.75,497.5313 Q305.4063,497.6875 305.9688,497.9844 L305.9688,500.7031 Q305.3438,500.125 304.75,499.8594 Q304.1563,499.5781 303.5313,499.5781 Q302.1875,499.5781 301.5,500.6563 Q300.8125,501.7188 300.8125,503.8125 Q300.8125,505.9063 301.5,506.9844 Q302.1875,508.0469 303.5313,508.0469 Q304.1563,508.0469 304.75,507.7813 Q305.3438,507.5 305.9688,506.9219 L305.9688,509.6406 Z " fill="#FFFFFF"/><text fill="#FFFFFF" font-family="sans-serif" font-size="14" lengthAdjust="spacing" textLength="190.3262" x="317" y="508.8467">DBAL\QueryBuilderAdapter</text><line style="stroke:#E7E7E7;stroke-width:0.5;" x1="289" x2="509.3262" y1="520" y2="520"/><line style="stroke:#E7E7E7;stroke-width:0.5;" x1="289" x2="509.3262" y1="528" y2="528"/></g><!--class ORM\QueryBuilderAdapter--><g id="elem_ORM\QueryBuilderAdapter"><rect codeLine="48" fill="#313139" height="48" id="ORM\QueryBuilderAdapter" rx="2.5" ry="2.5" style="stroke:#E7E7E7;stroke-width:0.5;" width="217.3906" x="290.5" y="380"/><ellipse cx="305.5" cy="396" fill="#2E5233" rx="11" ry="11" style="stroke:#E7E7E7;stroke-width:1.0;"/><path d="M308.4688,401.6406 Q307.8906,401.9375 307.25,402.0781 Q306.6094,402.2344 305.9063,402.2344 Q303.4063,402.2344 302.0781,400.5938 Q300.7656,398.9375 300.7656,395.8125 Q300.7656,392.6875 302.0781,391.0313 Q303.4063,389.375 305.9063,389.375 Q306.6094,389.375 307.25,389.5313 Q307.9063,389.6875 308.4688,389.9844 L308.4688,392.7031 Q307.8438,392.125 307.25,391.8594 Q306.6563,391.5781 306.0313,391.5781 Q304.6875,391.5781 304,392.6563 Q303.3125,393.7188 303.3125,395.8125 Q303.3125,397.9063 304,398.9844 Q304.6875,400.0469 306.0313,400.0469 Q306.6563,400.0469 307.25,399.7813 Q307.8438,399.5 308.4688,398.9219 L308.4688,401.6406 Z " fill="#FFFFFF"/><text fill="#FFFFFF" font-family="sans-serif" font-size="14" lengthAdjust="spacing" textLength="185.3906" x="319.5" y="400.8467">ORM\QueryBuilderAdapter</text><line style="stroke:#E7E7E7;stroke-width:0.5;" x1="291.5" x2="506.8906" y1="412" y2="412"/><line style="stroke:#E7E7E7;stroke-width:0.5;" x1="291.5" x2="506.8906" y1="420" y2="420"/></g><!--class NativeQueryAdapter--><g id="elem_NativeQueryAdapter"><rect codeLine="54" fill="#313139" height="48" id="NativeQueryAdapter" rx="2.5" ry="2.5" style="stroke:#E7E7E7;stroke-width:0.5;" width="175.6641" x="7" y="596"/><ellipse cx="22" cy="612" fill="#2E5233" rx="11" ry="11" style="stroke:#E7E7E7;stroke-width:1.0;"/><path d="M24.9688,617.6406 Q24.3906,617.9375 23.75,618.0781 Q23.1094,618.2344 22.4063,618.2344 Q19.9063,618.2344 18.5781,616.5938 Q17.2656,614.9375 17.2656,611.8125 Q17.2656,608.6875 18.5781,607.0313 Q19.9063,605.375 22.4063,605.375 Q23.1094,605.375 23.75,605.5313 Q24.4063,605.6875 24.9688,605.9844 L24.9688,608.7031 Q24.3438,608.125 23.75,607.8594 Q23.1563,607.5781 22.5313,607.5781 Q21.1875,607.5781 20.5,608.6563 Q19.8125,609.7188 19.8125,611.8125 Q19.8125,613.9063 20.5,614.9844 Q21.1875,616.0469 22.5313,616.0469 Q23.1563,616.0469 23.75,615.7813 Q24.3438,615.5 24.9688,614.9219 L24.9688,617.6406 Z " fill="#FFFFFF"/><text fill="#FFFFFF" font-family="sans-serif" font-size="14" lengthAdjust="spacing" textLength="143.6641" x="36" y="616.8467">NativeQueryAdapter</text><line style="stroke:#E7E7E7;stroke-width:0.5;" x1="8" x2="181.6641" y1="628" y2="628"/><line style="stroke:#E7E7E7;stroke-width:0.5;" x1="8" x2="181.6641" y1="636" y2="636"/></g><!--class PagerfantaAdapterAdapter--><g id="elem_PagerfantaAdapterAdapter"><rect codeLine="59" fill="#313139" height="48" id="PagerfantaAdapterAdapter" rx="2.5" ry="2.5" style="stroke:#E7E7E7;stroke-width:0.5;" width="220.3027" x="756" y="380"/><ellipse cx="771" cy="396" fill="#2E5233" rx="11" ry="11" style="stroke:#E7E7E7;stroke-width:1.0;"/><path d="M773.9688,401.6406 Q773.3906,401.9375 772.75,402.0781 Q772.1094,402.2344 771.4063,402.2344 Q768.9063,402.2344 767.5781,400.5938 Q766.2656,398.9375 766.2656,395.8125 Q766.2656,392.6875 767.5781,391.0313 Q768.9063,389.375 771.4063,389.375 Q772.1094,389.375 772.75,389.5313 Q773.4063,389.6875 773.9688,389.9844 L773.9688,392.7031 Q773.3438,392.125 772.75,391.8594 Q772.1563,391.5781 771.5313,391.5781 Q770.1875,391.5781 769.5,392.6563 Q768.8125,393.7188 768.8125,395.8125 Q768.8125,397.9063 769.5,398.9844 Q770.1875,400.0469 771.5313,400.0469 Q772.1563,400.0469 772.75,399.7813 Q773.3438,399.5 773.9688,398.9219 L773.9688,401.6406 Z " fill="#FFFFFF"/><text fill="#FFFFFF" font-family="sans-serif" font-size="14" lengthAdjust="spacing" textLength="188.3027" x="785" y="400.8467">PagerfantaAdapterAdapter</text><line style="stroke:#E7E7E7;stroke-width:0.5;" x1="757" x2="975.3027" y1="412" y2="412"/><line style="stroke:#E7E7E7;stroke-width:0.5;" x1="757" x2="975.3027" y1="420" y2="420"/></g><!--class PagerfantaPageable--><g id="elem_PagerfantaPageable"><rect codeLine="64" fill="#313139" height="48" id="PagerfantaPageable" rx="2.5" ry="2.5" style="stroke:#E7E7E7;stroke-width:0.5;" width="173.2168" x="747.5" y="115"/><ellipse cx="762.5" cy="131" fill="#2E5233" rx="11" ry="11" style="stroke:#E7E7E7;stroke-width:1.0;"/><path d="M765.4688,136.6406 Q764.8906,136.9375 764.25,137.0781 Q763.6094,137.2344 762.9063,137.2344 Q760.4063,137.2344 759.0781,135.5938 Q757.7656,133.9375 757.7656,130.8125 Q757.7656,127.6875 759.0781,126.0313 Q760.4063,124.375 762.9063,124.375 Q763.6094,124.375 764.25,124.5313 Q764.9063,124.6875 765.4688,124.9844 L765.4688,127.7031 Q764.8438,127.125 764.25,126.8594 Q763.6563,126.5781 763.0313,126.5781 Q761.6875,126.5781 761,127.6563 Q760.3125,128.7188 760.3125,130.8125 Q760.3125,132.9063 761,133.9844 Q761.6875,135.0469 763.0313,135.0469 Q763.6563,135.0469 764.25,134.7813 Q764.8438,134.5 765.4688,133.9219 L765.4688,136.6406 Z " fill="#FFFFFF"/><text fill="#FFFFFF" font-family="sans-serif" font-size="14" lengthAdjust="spacing" textLength="141.2168" x="776.5" y="135.8467">PagerfantaPageable</text><line style="stroke:#E7E7E7;stroke-width:0.5;" x1="748.5" x2="919.7168" y1="147" y2="147"/><line style="stroke:#E7E7E7;stroke-width:0.5;" x1="748.5" x2="919.7168" y1="155" y2="155"/></g><!--reverse link PageableInterface to KeysetPageable--><g id="link_PageableInterface_KeysetPageable"><path codeLine="8" d="M553.062,61.2556 C505.252,78.9756 456.33,97.11 408.43,114.86 " fill="none" id="PageableInterface-backto-KeysetPageable" style="stroke:#E7E7E7;stroke-width:1.0;"/><polygon fill="none" points="569.94,55,550.9768,55.6296,555.1472,66.8816,569.94,55" style="stroke:#E7E7E7;stroke-width:1.0;"/></g><!--reverse link PageableInterface to OffsetPageable--><g id="link_PageableInterface_OffsetPageable"><path codeLine="13" d="M632,73 C632,90.66 632,96.94 632,114.68 " fill="none" id="PageableInterface-backto-OffsetPageable" style="stroke:#E7E7E7;stroke-width:1.0;"/><polygon fill="none" points="632,55,626,73,638,73,632,55" style="stroke:#E7E7E7;stroke-width:1.0;"/></g><!--reverse link KeysetPageable to KeysetPaginationAdapterInterface--><g id="link_KeysetPageable_KeysetPaginationAdapterInterface"><path codeLine="21" d="M319.069,172.2413 C305.259,188.7813 293.84,202.44 276.81,222.84 " fill="none" id="KeysetPageable-backto-KeysetPaginationAdapterInterface" style="stroke:#E7E7E7;stroke-width:1.0;"/><polygon fill="#E7E7E7" points="326.76,163.03,319.8441,165.072,319.069,172.2413,325.985,170.1993,326.76,163.03" style="stroke:#E7E7E7;stroke-width:1.0;"/></g><!--reverse link OffsetPageable to OffsetPaginationAdapterInterface--><g id="link_OffsetPageable_OffsetPaginationAdapterInterface"><path codeLine="29" d="M632,175.03 C632,191.57 632,202.44 632,222.84 " fill="none" id="OffsetPageable-backto-OffsetPaginationAdapterInterface" style="stroke:#E7E7E7;stroke-width:1.0;"/><polygon fill="#E7E7E7" points="632,163.03,628,169.03,632,175.03,636,169.03,632,163.03" style="stroke:#E7E7E7;stroke-width:1.0;"/></g><!--reverse link OffsetPaginationAdapterInterface to CollectionAdapter--><g id="link_OffsetPaginationAdapterInterface_CollectionAdapter"><path codeLine="34" d="M667.1068,335.9385 C695.2468,386.7785 729.91,449.41 751.25,487.97 " fill="none" id="OffsetPaginationAdapterInterface-backto-CollectionAdapter" style="stroke:#E7E7E7;stroke-width:1.0;"/><polygon fill="none" points="658.39,320.19,661.8573,338.8442,672.3564,333.0329,658.39,320.19" style="stroke:#E7E7E7;stroke-width:1.0;"/></g><!--reverse link KeysetPaginationAdapterInterface to SelectableAdapter--><g id="link_KeysetPaginationAdapterInterface_SelectableAdapter"><path codeLine="39" d="M226.6224,337.9366 C219.5124,396.0066 219.43,476.01 271,536 C299.9,569.61 344.82,589.99 384.16,602.14 " fill="none" id="KeysetPaginationAdapterInterface-backto-SelectableAdapter" style="stroke:#E7E7E7;stroke-width:1.0;"/><polygon fill="none" points="228.81,320.07,220.6669,337.2074,232.578,338.6658,228.81,320.07" style="stroke:#E7E7E7;stroke-width:1.0;"/></g><!--reverse link OffsetPaginationAdapterInterface to SelectableAdapter--><g id="link_OffsetPaginationAdapterInterface_SelectableAdapter"><path codeLine="40" d="M612.0284,337.6018 C594.6584,391.8218 568.27,464.7 528,536 C515.81,557.58 498.63,579.83 485.28,595.86 " fill="none" id="OffsetPaginationAdapterInterface-backto-SelectableAdapter" style="stroke:#E7E7E7;stroke-width:1.0;"/><polygon fill="none" points="617.52,320.46,606.3145,335.7713,617.7424,339.4324,617.52,320.46" style="stroke:#E7E7E7;stroke-width:1.0;"/></g><!--reverse link KeysetPaginationAdapterInterface to DBAL\QueryBuilderAdapter--><g id="link_KeysetPaginationAdapterInterface_DBAL\QueryBuilderAdapter"><path codeLine="45" d="M240.691,337.9966 C244.051,370.8566 250.92,396.27 273,428 C291.18,454.12 320.48,474.15 346.26,487.98 " fill="none" id="KeysetPaginationAdapterInterface-backto-DBAL\QueryBuilderAdapter" style="stroke:#E7E7E7;stroke-width:1.0;"/><polygon fill="none" points="238.86,320.09,234.7221,338.607,246.6599,337.3863,238.86,320.09" style="stroke:#E7E7E7;stroke-width:1.0;"/></g><!--reverse link OffsetPaginationAdapterInterface to DBAL\QueryBuilderAdapter--><g id="link_OffsetPaginationAdapterInterface_DBAL\QueryBuilderAdapter"><path codeLine="46" d="M596.5626,335.7369 C577.0726,368.4769 557.53,396.12 525,428 C500.59,451.93 468.32,473.03 442.55,487.97 " fill="none" id="OffsetPaginationAdapterInterface-backto-DBAL\QueryBuilderAdapter" style="stroke:#E7E7E7;stroke-width:1.0;"/><polygon fill="none" points="605.77,320.27,591.407,332.6678,601.7183,338.806,605.77,320.27" style="stroke:#E7E7E7;stroke-width:1.0;"/></g><!--reverse link KeysetPaginationAdapterInterface to ORM\QueryBuilderAdapter--><g id="link_KeysetPaginationAdapterInterface_ORM\QueryBuilderAdapter"><path codeLine="51" d="M310.4169,331.6428 C335.5269,351.8728 349.6,363.2 370.03,379.66 " fill="none" id="KeysetPaginationAdapterInterface-backto-ORM\QueryBuilderAdapter" style="stroke:#E7E7E7;stroke-width:1.0;"/><polygon fill="none" points="296.4,320.35,306.6526,336.3151,314.1811,326.9705,296.4,320.35" style="stroke:#E7E7E7;stroke-width:1.0;"/></g><!--reverse link OffsetPaginationAdapterInterface to ORM\QueryBuilderAdapter--><g id="link_OffsetPaginationAdapterInterface_ORM\QueryBuilderAdapter"><path codeLine="52" d="M531.1842,328.9635 C494.7842,349.3435 469.67,363.42 440.16,379.95 " fill="none" id="OffsetPaginationAdapterInterface-backto-ORM\QueryBuilderAdapter" style="stroke:#E7E7E7;stroke-width:1.0;"/><polygon fill="none" points="546.89,320.17,528.253,323.7283,534.1153,334.1988,546.89,320.17" style="stroke:#E7E7E7;stroke-width:1.0;"/></g><!--reverse link KeysetPaginationAdapterInterface to NativeQueryAdapter--><g id="link_KeysetPaginationAdapterInterface_NativeQueryAdapter"><path codeLine="57" d="M171.3919,333.1879 C155.0119,350.5079 150.83,358.15 140,380 C103.82,453.01 96.61,551.78 95.26,595.97 " fill="none" id="KeysetPaginationAdapterInterface-backto-NativeQueryAdapter" style="stroke:#E7E7E7;stroke-width:1.0;"/><polygon fill="none" points="183.76,320.11,167.0326,329.0652,175.7512,337.3106,183.76,320.11" style="stroke:#E7E7E7;stroke-width:1.0;"/></g><!--reverse link OffsetPaginationAdapterInterface to PagerfantaAdapterAdapter--><g id="link_OffsetPaginationAdapterInterface_PagerfantaAdapterAdapter"><path codeLine="62" d="M733.1922,328.9342 C769.7522,349.3142 795.02,363.42 824.67,379.95 " fill="none" id="OffsetPaginationAdapterInterface-backto-PagerfantaAdapterAdapter" style="stroke:#E7E7E7;stroke-width:1.0;"/><polygon fill="none" points="717.47,320.17,730.2708,334.1749,736.1136,323.6935,717.47,320.17" style="stroke:#E7E7E7;stroke-width:1.0;"/></g><!--reverse link PageableInterface to PagerfantaPageable--><g id="link_PageableInterface_PagerfantaPageable"><path codeLine="67" d="M691.769,63.3636 C725.539,81.0836 756.07,97.11 789.91,114.86 " fill="none" id="PageableInterface-backto-PagerfantaPageable" style="stroke:#E7E7E7;stroke-width:1.0;"/><polygon fill="none" points="675.83,55,688.9811,68.6766,694.5568,58.0506,675.83,55" style="stroke:#E7E7E7;stroke-width:1.0;"/></g><!--reverse link PagerfantaPageable to PagerfantaAdapterAdapter--><g id="link_PagerfantaPageable_PagerfantaAdapterAdapter"><path codeLine="68" d="M838.2888,175.2522 C844.3588,225.1622 857.1,329.85 863.17,379.71 " fill="none" id="PagerfantaPageable-backto-PagerfantaAdapterAdapter" style="stroke:#E7E7E7;stroke-width:1.0;"/><polygon fill="#E7E7E7" points="836.84,163.34,833.5936,169.779,838.2888,175.2522,841.5351,168.8132,836.84,163.34" style="stroke:#E7E7E7;stroke-width:1.0;"/></g><!--SRC=[fLJBReCm4Bpp5JusAFn1BqbxYVfkhxqui20BOoFRH49j_xq60t8mRXpA1SaxCvxTMP0bOJKMkA8yBI53HvoMXU0Do-uuvG8fWPdK060gYWXJ87AS0dh51U0ZXSDqyXNzH55AiPJe0Le9QeIOYaku_KwI6NGKUCdpK85pg6rnaYOCAyBPBiErhjcEaNuAK0PvK5396zxhRH4b5T6l4wODo2rIRGsR7f_gsQnW6EocwsGsdjWUWyUhtTVKySM-37B1PKWdozvdoSHs0bxl9bIzJnHI2s5olTXE5tFYiaVP3-ZEEpTdiXVJxsKJbnveQ8avEBhVxnu_tneGxRuXD0EnmfXN97HUNlxuYRq__TEZJoBCePSz-7lMr1FqW5MvklnHkLjU3MKA3uNhrz6huTuHz1DpuT62GfpyTVCl]--></g></svg>