<svg xmlns="http://www.w3.org/2000/svg" xmlns:xlink="http://www.w3.org/1999/xlink" contentStyleType="text/css" height="446px" preserveAspectRatio="none" style="width:630px;height:446px;" version="1.1" viewBox="0 0 630 446" width="630px" zoomAndPan="magnify"><defs/><g><!--class PageableInterface--><g id="elem_PageableInterface"><rect codeLine="2" fill="#F1F1F1" height="162.0781" id="PageableInterface" rx="2.5" ry="2.5" style="stroke:#181818;stroke-width:0.5;" width="161.3926" x="89" y="15"/><ellipse cx="105.0006" cy="31" fill="#B4A7E5" rx="11" ry="11" style="stroke:#181818;stroke-width:1.0;"/><path d="M100.9225,26.7656 L100.9225,24.6094 L108.3131,24.6094 L108.3131,26.7656 L105.8444,26.7656 L105.8444,34.8438 L108.3131,34.8438 L108.3131,37 L100.9225,37 L100.9225,34.8438 L103.3913,34.8438 L103.3913,26.7656 L100.9225,26.7656 Z " fill="#000000"/><text fill="#000000" font-family="sans-serif" font-size="14" font-style="italic" lengthAdjust="spacing" textLength="127.1689" x="119.223" y="35.8467">PageableInterface</text><line style="stroke:#181818;stroke-width:0.5;" x1="90" x2="249.3926" y1="47" y2="47"/><line style="stroke:#181818;stroke-width:0.5;" x1="90" x2="249.3926" y1="55" y2="55"/><text fill="#000000" font-family="sans-serif" font-size="14" lengthAdjust="spacing" textLength="149.3926" x="95" y="71.9951">getPageByIdentifier()</text><text fill="#000000" font-family="sans-serif" font-size="14" lengthAdjust="spacing" textLength="98.916" x="95" y="88.292">getFirstPage()</text><text fill="#000000" font-family="sans-serif" font-size="14" lengthAdjust="spacing" textLength="97.5967" x="95" y="104.5889">getLastPage()</text><text fill="#000000" font-family="sans-serif" font-size="14" lengthAdjust="spacing" textLength="130.4092" x="95" y="120.8857">getItemsPerPage()</text><text fill="#000000" font-family="sans-serif" font-size="14" lengthAdjust="spacing" textLength="137.1221" x="95" y="137.1826">withItemsPerPage()</text><text fill="#000000" font-family="sans-serif" font-size="14" lengthAdjust="spacing" textLength="110.8037" x="95" y="153.4795">getTotalPages()</text><text fill="#000000" font-family="sans-serif" font-size="14" lengthAdjust="spacing" textLength="108.1514" x="95" y="169.7764">getTotalItems()</text></g><!--class PageInterface--><g id="elem_PageInterface"><rect codeLine="12" fill="#F1F1F1" height="178.375" id="PageInterface" rx="2.5" ry="2.5" style="stroke:#181818;stroke-width:0.5;" width="147.4473" x="285" y="7"/><ellipse cx="308.2112" cy="23" fill="#B4A7E5" rx="11" ry="11" style="stroke:#181818;stroke-width:1.0;"/><path d="M304.1331,18.7656 L304.1331,16.6094 L311.5237,16.6094 L311.5237,18.7656 L309.0549,18.7656 L309.0549,26.8438 L311.5237,26.8438 L311.5237,29 L304.1331,29 L304.1331,26.8438 L306.6018,26.8438 L306.6018,18.7656 L304.1331,18.7656 Z " fill="#000000"/><text fill="#000000" font-family="sans-serif" font-size="14" font-style="italic" lengthAdjust="spacing" textLength="97.2002" x="324.0359" y="27.8467">PageInterface</text><line style="stroke:#181818;stroke-width:0.5;" x1="286" x2="431.4473" y1="39" y2="39"/><line style="stroke:#181818;stroke-width:0.5;" x1="286" x2="431.4473" y1="47" y2="47"/><text fill="#000000" font-family="sans-serif" font-size="14" lengthAdjust="spacing" textLength="131.5029" x="291" y="63.9951">getPageIdentifier()</text><text fill="#000000" font-family="sans-serif" font-size="14" lengthAdjust="spacing" textLength="124.6738" x="291" y="80.292">getPageNumber()</text><text fill="#000000" font-family="sans-serif" font-size="14" lengthAdjust="spacing" textLength="98.4033" x="291" y="96.5889">getPageable()</text><text fill="#000000" font-family="sans-serif" font-size="14" lengthAdjust="spacing" textLength="130.4092" x="291" y="112.8857">getItemsPerPage()</text><text fill="#000000" font-family="sans-serif" font-size="14" lengthAdjust="spacing" textLength="101.2949" x="291" y="129.1826">getNextPage()</text><text fill="#000000" font-family="sans-serif" font-size="14" lengthAdjust="spacing" textLength="128.1533" x="291" y="145.4795">getPreviousPage()</text><text fill="#000000" font-family="sans-serif" font-size="14" lengthAdjust="spacing" textLength="108.5889" x="291" y="161.7764">getNextPages()</text><text fill="#000000" font-family="sans-serif" font-size="14" lengthAdjust="spacing" textLength="135.4473" x="291" y="178.0732">getPreviousPages()</text></g><!--class NullPageInterface--><g id="elem_NullPageInterface"><rect codeLine="23" fill="#F1F1F1" height="48" id="NullPageInterface" rx="2.5" ry="2.5" style="stroke:#181818;stroke-width:0.5;" width="156.3252" x="467.5" y="72"/><ellipse cx="482.5" cy="88" fill="#B4A7E5" rx="11" ry="11" style="stroke:#181818;stroke-width:1.0;"/><path d="M478.4219,83.7656 L478.4219,81.6094 L485.8125,81.6094 L485.8125,83.7656 L483.3438,83.7656 L483.3438,91.8438 L485.8125,91.8438 L485.8125,94 L478.4219,94 L478.4219,91.8438 L480.8906,91.8438 L480.8906,83.7656 L478.4219,83.7656 Z " fill="#000000"/><text fill="#000000" font-family="sans-serif" font-size="14" font-style="italic" lengthAdjust="spacing" textLength="124.3252" x="496.5" y="92.8467">NullPageInterface</text><line style="stroke:#181818;stroke-width:0.5;" x1="468.5" x2="622.8252" y1="104" y2="104"/><line style="stroke:#181818;stroke-width:0.5;" x1="468.5" x2="622.8252" y1="112" y2="112"/></g><!--class PagerInterface--><g id="elem_PagerInterface"><rect codeLine="28" fill="#F1F1F1" height="194.6719" id="PagerInterface" rx="2.5" ry="2.5" style="stroke:#181818;stroke-width:0.5;" width="233.04" x="7" y="245"/><ellipse cx="67.792" cy="261" fill="#B4A7E5" rx="11" ry="11" style="stroke:#181818;stroke-width:1.0;"/><path d="M63.7139,256.7656 L63.7139,254.6094 L71.1045,254.6094 L71.1045,256.7656 L68.6357,256.7656 L68.6357,264.8438 L71.1045,264.8438 L71.1045,267 L63.7139,267 L63.7139,264.8438 L66.1826,264.8438 L66.1826,256.7656 L63.7139,256.7656 Z " fill="#000000"/><text fill="#000000" font-family="sans-serif" font-size="14" font-style="italic" lengthAdjust="spacing" textLength="102.9561" x="88.292" y="265.8467">PagerInterface</text><line style="stroke:#181818;stroke-width:0.5;" x1="8" x2="239.04" y1="277" y2="277"/><line style="stroke:#181818;stroke-width:0.5;" x1="8" x2="239.04" y1="285" y2="285"/><text fill="#000000" font-family="sans-serif" font-size="14" lengthAdjust="spacing" textLength="100.1533" x="13" y="301.9951">getProximity()</text><text fill="#000000" font-family="sans-serif" font-size="14" lengthAdjust="spacing" textLength="106.8662" x="13" y="318.292">withProximity()</text><text fill="#000000" font-family="sans-serif" font-size="14" lengthAdjust="spacing" textLength="121.5703" x="13" y="334.5889">getCurrentPage()</text><text fill="#000000" font-family="sans-serif" font-size="14" lengthAdjust="spacing" textLength="128.1533" x="13" y="350.8857">getPreviousPage()</text><text fill="#000000" font-family="sans-serif" font-size="14" lengthAdjust="spacing" textLength="101.2949" x="13" y="367.1826">getNextPage()</text><text fill="#000000" font-family="sans-serif" font-size="14" lengthAdjust="spacing" textLength="146.1045" x="13" y="383.4795">hasGapToFirstPage()</text><text fill="#000000" font-family="sans-serif" font-size="14" lengthAdjust="spacing" textLength="144.7852" x="13" y="399.7764">hasGapToLastPage()</text><text fill="#000000" font-family="sans-serif" font-size="14" lengthAdjust="spacing" textLength="221.04" x="13" y="416.0732">getPreviousNeighboringPages()</text><text fill="#000000" font-family="sans-serif" font-size="14" lengthAdjust="spacing" textLength="194.1816" x="13" y="432.3701">getNextNeighboringPages()</text></g><!--class PagerItemInterface--><g id="elem_PagerItemInterface"><rect codeLine="40" fill="#F1F1F1" height="80.5938" id="PagerItemInterface" rx="2.5" ry="2.5" style="stroke:#181818;stroke-width:0.5;" width="166.8252" x="275" y="302"/><ellipse cx="290" cy="318" fill="#B4A7E5" rx="11" ry="11" style="stroke:#181818;stroke-width:1.0;"/><path d="M285.9219,313.7656 L285.9219,311.6094 L293.3125,311.6094 L293.3125,313.7656 L290.8438,313.7656 L290.8438,321.8438 L293.3125,321.8438 L293.3125,324 L285.9219,324 L285.9219,321.8438 L288.3906,321.8438 L288.3906,313.7656 L285.9219,313.7656 Z " fill="#000000"/><text fill="#000000" font-family="sans-serif" font-size="14" font-style="italic" lengthAdjust="spacing" textLength="134.8252" x="304" y="322.8467">PagerItemInterface</text><line style="stroke:#181818;stroke-width:0.5;" x1="276" x2="440.8252" y1="334" y2="334"/><line style="stroke:#181818;stroke-width:0.5;" x1="276" x2="440.8252" y1="342" y2="342"/><text fill="#000000" font-family="sans-serif" font-size="14" lengthAdjust="spacing" textLength="53.8057" x="281" y="358.9951">getUrl()</text><text fill="#000000" font-family="sans-serif" font-size="14" lengthAdjust="spacing" textLength="82.9268" x="281" y="375.292">isDisabled()</text></g><!--reverse link PageableInterface to PageInterface--><g id="link_PageableInterface_PageInterface"><path codeLine="25" d="M262.34,96 C273.89,96 273.44,96 284.99,96 " fill="none" id="PageableInterface-backto-PageInterface" style="stroke:#181818;stroke-width:1.0;"/><polygon fill="#181818" points="250.34,96,256.34,100,262.34,96,256.34,92,250.34,96" style="stroke:#181818;stroke-width:1.0;"/></g><!--reverse link PageInterface to NullPageInterface--><g id="link_PageInterface_NullPageInterface"><path codeLine="26" d="M450.28,96 C461.92,96 455.57,96 467.22,96 " fill="none" id="PageInterface-backto-NullPageInterface" style="stroke:#181818;stroke-width:1.0;"/><polygon fill="none" points="432.28,96,450.28,102,450.28,90,432.28,96" style="stroke:#181818;stroke-width:1.0;"/></g><!--reverse link PageInterface to PagerItemInterface--><g id="link_PageInterface_PagerItemInterface"><path codeLine="45" d="M358.5,203.27 C358.5,243.21 358.5,270.41 358.5,301.88 " fill="none" id="PageInterface-backto-PagerItemInterface" style="stroke:#181818;stroke-width:1.0;"/><polygon fill="none" points="358.5,185.27,352.5,203.27,364.5,203.27,358.5,185.27" style="stroke:#181818;stroke-width:1.0;"/></g><!--reverse link PagerInterface to PagerItemInterface--><g id="link_PagerInterface_PagerItemInterface"><path codeLine="46" d="M252.08,342.5 C263.65,342.5 263.21,342.5 274.77,342.5 " fill="none" id="PagerInterface-backto-PagerItemInterface" style="stroke:#181818;stroke-width:1.0;"/><polygon fill="#181818" points="240.08,342.5,246.08,346.5,252.08,342.5,246.08,338.5,240.08,342.5" style="stroke:#181818;stroke-width:1.0;"/></g><!--SRC=[bPB1JiCm38RlUOeUOLBVW1ERG9LGrSDu0BVrMgjfCZafR69xTvAnmfe497hy_CVr_zjc8BK7Xb7gPi0sgw4PEjQJQjTQQiuiWp9EWCeAGSeYxw31h88EePPOV9CFaRclG-jBZyUYTIzeHyXtztFbYTXSoZ_e1K9IM1nDXNn3tyds2Up4Msr1UcG2Tf4xTWw7_cNWrBYUbzDOXypx_dDUHqiy1BugnZVIaqdhJ5eOMIWdAHSsX8XNiSgNLiNI-CCfJ_LPviIfe5WVQ2HxlDbBo9niFR4_b__Olv8Up3Fijpeyb9d7rpAtBP6wljPCgWlYzBz8LC-nORV8XEbNbjTcP3PaVDBjr_ierJpHI0HXhfAYJm00]--></g></svg>