<svg xmlns="http://www.w3.org/2000/svg" xmlns:xlink="http://www.w3.org/1999/xlink" contentStyleType="text/css" height="697px" preserveAspectRatio="none" style="width:391px;height:697px;" version="1.1" viewBox="0 0 391 697" width="391px" zoomAndPan="magnify"><defs/><g><rect fill="#313139" height="36.2969" rx="12.5" ry="12.5" style="stroke:#E7E7E7;stroke-width:1.5;" width="63.8867" x="10" y="329.6328"/><text fill="#FFFFFF" font-family="sans-serif" font-size="14" lengthAdjust="spacing" textLength="43.8867" x="20" y="352.6279">Result</text><rect fill="#313139" height="36.2969" rx="12.5" ry="12.5" style="stroke:#E7E7E7;stroke-width:1.5;" width="55.6289" x="123.8867" y="160.7422"/><text fill="#FFFFFF" font-family="sans-serif" font-size="14" lengthAdjust="spacing" textLength="35.6289" x="133.8867" y="183.7373">2023</text><rect fill="#313139" height="36.2969" rx="12.5" ry="12.5" style="stroke:#E7E7E7;stroke-width:1.5;" width="37.7803" x="229.5156" y="48.1484"/><text fill="#FFFFFF" font-family="sans-serif" font-size="14" lengthAdjust="spacing" textLength="17.7803" x="239.5156" y="71.1436">FR</text><rect fill="#313139" height="36.2969" rx="12.5" ry="12.5" style="stroke:#E7E7E7;stroke-width:1.5;" width="54.8428" x="317.2959" y="20"/><text fill="#FFFFFF" font-family="sans-serif" font-size="14" lengthAdjust="spacing" textLength="34.8428" x="327.2959" y="42.9951">price</text><path d="M267.2959,66.2969 L277.2959,66.2969 C292.2959,66.2969 292.2959,38.1484 307.2959,38.1484 L317.2959,38.1484 " fill="none" style="stroke:#E7E7E7;stroke-width:1.0;"/><rect fill="#313139" height="36.2969" rx="12.5" ry="12.5" style="stroke:#E7E7E7;stroke-width:1.5;" width="59.498" x="317.2959" y="76.2969"/><text fill="#FFFFFF" font-family="sans-serif" font-size="14" lengthAdjust="spacing" textLength="39.498" x="327.2959" y="99.292">count</text><path d="M267.2959,66.2969 L277.2959,66.2969 C292.2959,66.2969 292.2959,94.4453 307.2959,94.4453 L317.2959,94.4453 " fill="none" style="stroke:#E7E7E7;stroke-width:1.0;"/><path d="M179.5156,178.8906 L189.5156,178.8906 C204.5156,178.8906 204.5156,66.2969 219.5156,66.2969 L229.5156,66.2969 " fill="none" style="stroke:#E7E7E7;stroke-width:1.0;"/><rect fill="#313139" height="36.2969" rx="12.5" ry="12.5" style="stroke:#E7E7E7;stroke-width:1.5;" width="39.626" x="229.5156" y="160.7422"/><text fill="#FFFFFF" font-family="sans-serif" font-size="14" lengthAdjust="spacing" textLength="19.626" x="239.5156" y="183.7373">DE</text><rect fill="#313139" height="36.2969" rx="12.5" ry="12.5" style="stroke:#E7E7E7;stroke-width:1.5;" width="54.8428" x="319.1416" y="132.5938"/><text fill="#FFFFFF" font-family="sans-serif" font-size="14" lengthAdjust="spacing" textLength="34.8428" x="329.1416" y="155.5889">price</text><path d="M269.1416,178.8906 L279.1416,178.8906 C294.1416,178.8906 294.1416,150.7422 309.1416,150.7422 L319.1416,150.7422 " fill="none" style="stroke:#E7E7E7;stroke-width:1.0;"/><rect fill="#313139" height="36.2969" rx="12.5" ry="12.5" style="stroke:#E7E7E7;stroke-width:1.5;" width="59.498" x="319.1416" y="188.8906"/><text fill="#FFFFFF" font-family="sans-serif" font-size="14" lengthAdjust="spacing" textLength="39.498" x="329.1416" y="211.8857">count</text><path d="M269.1416,178.8906 L279.1416,178.8906 C294.1416,178.8906 294.1416,207.0391 309.1416,207.0391 L319.1416,207.0391 " fill="none" style="stroke:#E7E7E7;stroke-width:1.0;"/><path d="M179.5156,178.8906 L189.5156,178.8906 C204.5156,178.8906 204.5156,178.8906 219.5156,178.8906 L229.5156,178.8906 " fill="none" style="stroke:#E7E7E7;stroke-width:1.0;"/><rect fill="#313139" height="36.2969" rx="12.5" ry="12.5" style="stroke:#E7E7E7;stroke-width:1.5;" width="40.248" x="229.5156" y="273.3359"/><text fill="#FFFFFF" font-family="sans-serif" font-size="14" lengthAdjust="spacing" textLength="20.248" x="239.5156" y="296.3311">CN</text><rect fill="#313139" height="36.2969" rx="12.5" ry="12.5" style="stroke:#E7E7E7;stroke-width:1.5;" width="54.8428" x="319.7637" y="245.1875"/><text fill="#FFFFFF" font-family="sans-serif" font-size="14" lengthAdjust="spacing" textLength="34.8428" x="329.7637" y="268.1826">price</text><path d="M269.7637,291.4844 L279.7637,291.4844 C294.7637,291.4844 294.7637,263.3359 309.7637,263.3359 L319.7637,263.3359 " fill="none" style="stroke:#E7E7E7;stroke-width:1.0;"/><rect fill="#313139" height="36.2969" rx="12.5" ry="12.5" style="stroke:#E7E7E7;stroke-width:1.5;" width="59.498" x="319.7637" y="301.4844"/><text fill="#FFFFFF" font-family="sans-serif" font-size="14" lengthAdjust="spacing" textLength="39.498" x="329.7637" y="324.4795">count</text><path d="M269.7637,291.4844 L279.7637,291.4844 C294.7637,291.4844 294.7637,319.6328 309.7637,319.6328 L319.7637,319.6328 " fill="none" style="stroke:#E7E7E7;stroke-width:1.0;"/><path d="M179.5156,178.8906 L189.5156,178.8906 C204.5156,178.8906 204.5156,291.4844 219.5156,291.4844 L229.5156,291.4844 " fill="none" style="stroke:#E7E7E7;stroke-width:1.0;"/><path d="M73.8867,347.7813 L83.8867,347.7813 C98.8867,347.7813 98.8867,178.8906 113.8867,178.8906 L123.8867,178.8906 " fill="none" style="stroke:#E7E7E7;stroke-width:1.0;"/><rect fill="#313139" height="36.2969" rx="12.5" ry="12.5" style="stroke:#E7E7E7;stroke-width:1.5;" width="55.6289" x="123.8867" y="498.5234"/><text fill="#FFFFFF" font-family="sans-serif" font-size="14" lengthAdjust="spacing" textLength="35.6289" x="133.8867" y="521.5186">2024</text><rect fill="#313139" height="36.2969" rx="12.5" ry="12.5" style="stroke:#E7E7E7;stroke-width:1.5;" width="37.7803" x="229.5156" y="385.9297"/><text fill="#FFFFFF" font-family="sans-serif" font-size="14" lengthAdjust="spacing" textLength="17.7803" x="239.5156" y="408.9248">FR</text><rect fill="#313139" height="36.2969" rx="12.5" ry="12.5" style="stroke:#E7E7E7;stroke-width:1.5;" width="54.8428" x="317.2959" y="357.7813"/><text fill="#FFFFFF" font-family="sans-serif" font-size="14" lengthAdjust="spacing" textLength="34.8428" x="327.2959" y="380.7764">price</text><path d="M267.2959,404.0781 L277.2959,404.0781 C292.2959,404.0781 292.2959,375.9297 307.2959,375.9297 L317.2959,375.9297 " fill="none" style="stroke:#E7E7E7;stroke-width:1.0;"/><rect fill="#313139" height="36.2969" rx="12.5" ry="12.5" style="stroke:#E7E7E7;stroke-width:1.5;" width="59.498" x="317.2959" y="414.0781"/><text fill="#FFFFFF" font-family="sans-serif" font-size="14" lengthAdjust="spacing" textLength="39.498" x="327.2959" y="437.0732">count</text><path d="M267.2959,404.0781 L277.2959,404.0781 C292.2959,404.0781 292.2959,432.2266 307.2959,432.2266 L317.2959,432.2266 " fill="none" style="stroke:#E7E7E7;stroke-width:1.0;"/><path d="M179.5156,516.6719 L189.5156,516.6719 C204.5156,516.6719 204.5156,404.0781 219.5156,404.0781 L229.5156,404.0781 " fill="none" style="stroke:#E7E7E7;stroke-width:1.0;"/><rect fill="#313139" height="36.2969" rx="12.5" ry="12.5" style="stroke:#E7E7E7;stroke-width:1.5;" width="39.626" x="229.5156" y="498.5234"/><text fill="#FFFFFF" font-family="sans-serif" font-size="14" lengthAdjust="spacing" textLength="19.626" x="239.5156" y="521.5186">DE</text><rect fill="#313139" height="36.2969" rx="12.5" ry="12.5" style="stroke:#E7E7E7;stroke-width:1.5;" width="54.8428" x="319.1416" y="470.375"/><text fill="#FFFFFF" font-family="sans-serif" font-size="14" lengthAdjust="spacing" textLength="34.8428" x="329.1416" y="493.3701">price</text><path d="M269.1416,516.6719 L279.1416,516.6719 C294.1416,516.6719 294.1416,488.5234 309.1416,488.5234 L319.1416,488.5234 " fill="none" style="stroke:#E7E7E7;stroke-width:1.0;"/><rect fill="#313139" height="36.2969" rx="12.5" ry="12.5" style="stroke:#E7E7E7;stroke-width:1.5;" width="59.498" x="319.1416" y="526.6719"/><text fill="#FFFFFF" font-family="sans-serif" font-size="14" lengthAdjust="spacing" textLength="39.498" x="329.1416" y="549.667">count</text><path d="M269.1416,516.6719 L279.1416,516.6719 C294.1416,516.6719 294.1416,544.8203 309.1416,544.8203 L319.1416,544.8203 " fill="none" style="stroke:#E7E7E7;stroke-width:1.0;"/><path d="M179.5156,516.6719 L189.5156,516.6719 C204.5156,516.6719 204.5156,516.6719 219.5156,516.6719 L229.5156,516.6719 " fill="none" style="stroke:#E7E7E7;stroke-width:1.0;"/><rect fill="#313139" height="36.2969" rx="12.5" ry="12.5" style="stroke:#E7E7E7;stroke-width:1.5;" width="40.248" x="229.5156" y="611.1172"/><text fill="#FFFFFF" font-family="sans-serif" font-size="14" lengthAdjust="spacing" textLength="20.248" x="239.5156" y="634.1123">CN</text><rect fill="#313139" height="36.2969" rx="12.5" ry="12.5" style="stroke:#E7E7E7;stroke-width:1.5;" width="54.8428" x="319.7637" y="582.9688"/><text fill="#FFFFFF" font-family="sans-serif" font-size="14" lengthAdjust="spacing" textLength="34.8428" x="329.7637" y="605.9639">price</text><path d="M269.7637,629.2656 L279.7637,629.2656 C294.7637,629.2656 294.7637,601.1172 309.7637,601.1172 L319.7637,601.1172 " fill="none" style="stroke:#E7E7E7;stroke-width:1.0;"/><rect fill="#313139" height="36.2969" rx="12.5" ry="12.5" style="stroke:#E7E7E7;stroke-width:1.5;" width="59.498" x="319.7637" y="639.2656"/><text fill="#FFFFFF" font-family="sans-serif" font-size="14" lengthAdjust="spacing" textLength="39.498" x="329.7637" y="662.2607">count</text><path d="M269.7637,629.2656 L279.7637,629.2656 C294.7637,629.2656 294.7637,657.4141 309.7637,657.4141 L319.7637,657.4141 " fill="none" style="stroke:#E7E7E7;stroke-width:1.0;"/><path d="M179.5156,516.6719 L189.5156,516.6719 C204.5156,516.6719 204.5156,629.2656 219.5156,629.2656 L229.5156,629.2656 " fill="none" style="stroke:#E7E7E7;stroke-width:1.0;"/><path d="M73.8867,347.7813 L83.8867,347.7813 C98.8867,347.7813 98.8867,516.6719 113.8867,516.6719 L123.8867,516.6719 " fill="none" style="stroke:#E7E7E7;stroke-width:1.0;"/><!--SRC=[jP1FRy8m3CNl-HG-GYKG_uHOJsW59dMm8HZSGskwYDIf70TfttufsxGJk-raAyzvp_xDlMYMsb1PwqRvYw56iwwjAovOmaaNbufTe39prZ48Q_9n04cKnRE0E61JlGkKXh4GuqYf17ReWnML930QZCQn9h3QjIM1Xas1NsqHVUKcBfP_YDdBNR6rd_oN_HmZasykQciroM6pXYkoZrV2iDzczwUTlHR8WuN150OFwN2IZcTmUCjkgtLLvscx1ky25nWHUM5p2YsbhihrLSCk1faQKtXjaFB5yyy3BEbgs57TWiwFcz-1wQJtQ0Jso74JE6xK0iywmeu_2bSQgjAOlkhDr5fJ5NGLlP5Krbx47obGiFOJ]--></g></svg>