<svg xmlns="http://www.w3.org/2000/svg" xmlns:xlink="http://www.w3.org/1999/xlink" contentStyleType="text/css" height="242px" preserveAspectRatio="none" style="width:948px;height:242px;" version="1.1" viewBox="0 0 948 242" width="948px" zoomAndPan="magnify"><defs/><g><rect fill="#F1F1F1" height="36.2969" rx="12.5" ry="12.5" style="stroke:#181818;stroke-width:1.5;" width="63.8867" x="441.0791" y="10"/><text fill="#000000" font-family="sans-serif" font-size="14" lengthAdjust="spacing" textLength="43.8867" x="451.0791" y="32.9951">Result</text><rect fill="#F1F1F1" height="36.2969" rx="12.5" ry="12.5" style="stroke:#181818;stroke-width:1.5;" width="55.6289" x="213.6968" y="71.2969"/><text fill="#000000" font-family="sans-serif" font-size="14" lengthAdjust="spacing" textLength="35.6289" x="223.6968" y="94.292">2023</text><rect fill="#F1F1F1" height="36.2969" rx="12.5" ry="12.5" style="stroke:#181818;stroke-width:1.5;" width="37.7803" x="68.2803" y="132.5938"/><text fill="#000000" font-family="sans-serif" font-size="14" lengthAdjust="spacing" textLength="17.7803" x="78.2803" y="155.5889">FR</text><rect fill="#F1F1F1" height="36.2969" rx="12.5" ry="12.5" style="stroke:#181818;stroke-width:1.5;" width="54.8428" x="20" y="193.8906"/><text fill="#000000" font-family="sans-serif" font-size="14" lengthAdjust="spacing" textLength="34.8428" x="30" y="216.8857">price</text><path d="M87.1704,168.8906 L87.1704,171.8906 C87.1704,178.8906 47.4214,183.8906 47.4214,190.8906 L47.4214,193.8906 " fill="none" style="stroke:#181818;stroke-width:1.0;"/><rect fill="#F1F1F1" height="36.2969" rx="12.5" ry="12.5" style="stroke:#181818;stroke-width:1.5;" width="59.498" x="94.8428" y="193.8906"/><text fill="#000000" font-family="sans-serif" font-size="14" lengthAdjust="spacing" textLength="39.498" x="104.8428" y="216.8857">count</text><path d="M87.1704,168.8906 L87.1704,171.8906 C87.1704,178.8906 124.5918,183.8906 124.5918,190.8906 L124.5918,193.8906 " fill="none" style="stroke:#181818;stroke-width:1.0;"/><path d="M241.5112,107.5938 L241.5112,110.5938 C241.5112,117.5938 87.1704,122.5938 87.1704,129.5938 L87.1704,132.5938 " fill="none" style="stroke:#181818;stroke-width:1.0;"/><rect fill="#F1F1F1" height="36.2969" rx="12.5" ry="12.5" style="stroke:#181818;stroke-width:1.5;" width="39.626" x="221.6982" y="132.5938"/><text fill="#000000" font-family="sans-serif" font-size="14" lengthAdjust="spacing" textLength="19.626" x="231.6982" y="155.5889">DE</text><rect fill="#F1F1F1" height="36.2969" rx="12.5" ry="12.5" style="stroke:#181818;stroke-width:1.5;" width="54.8428" x="174.3408" y="193.8906"/><text fill="#000000" font-family="sans-serif" font-size="14" lengthAdjust="spacing" textLength="34.8428" x="184.3408" y="216.8857">price</text><path d="M241.5112,168.8906 L241.5112,171.8906 C241.5112,178.8906 201.7622,183.8906 201.7622,190.8906 L201.7622,193.8906 " fill="none" style="stroke:#181818;stroke-width:1.0;"/><rect fill="#F1F1F1" height="36.2969" rx="12.5" ry="12.5" style="stroke:#181818;stroke-width:1.5;" width="59.498" x="249.1836" y="193.8906"/><text fill="#000000" font-family="sans-serif" font-size="14" lengthAdjust="spacing" textLength="39.498" x="259.1836" y="216.8857">count</text><path d="M241.5112,168.8906 L241.5112,171.8906 C241.5112,178.8906 278.9326,183.8906 278.9326,190.8906 L278.9326,193.8906 " fill="none" style="stroke:#181818;stroke-width:1.0;"/><path d="M241.5112,107.5938 L241.5112,110.5938 C241.5112,117.5938 241.5112,122.5938 241.5112,129.5938 L241.5112,132.5938 " fill="none" style="stroke:#181818;stroke-width:1.0;"/><rect fill="#F1F1F1" height="36.2969" rx="12.5" ry="12.5" style="stroke:#181818;stroke-width:1.5;" width="40.248" x="375.728" y="132.5938"/><text fill="#000000" font-family="sans-serif" font-size="14" lengthAdjust="spacing" textLength="20.248" x="385.728" y="155.5889">CN</text><rect fill="#F1F1F1" height="36.2969" rx="12.5" ry="12.5" style="stroke:#181818;stroke-width:1.5;" width="54.8428" x="328.6816" y="193.8906"/><text fill="#000000" font-family="sans-serif" font-size="14" lengthAdjust="spacing" textLength="34.8428" x="338.6816" y="216.8857">price</text><path d="M395.8521,168.8906 L395.8521,171.8906 C395.8521,178.8906 356.103,183.8906 356.103,190.8906 L356.103,193.8906 " fill="none" style="stroke:#181818;stroke-width:1.0;"/><rect fill="#F1F1F1" height="36.2969" rx="12.5" ry="12.5" style="stroke:#181818;stroke-width:1.5;" width="59.498" x="403.5244" y="193.8906"/><text fill="#000000" font-family="sans-serif" font-size="14" lengthAdjust="spacing" textLength="39.498" x="413.5244" y="216.8857">count</text><path d="M395.8521,168.8906 L395.8521,171.8906 C395.8521,178.8906 433.2734,183.8906 433.2734,190.8906 L433.2734,193.8906 " fill="none" style="stroke:#181818;stroke-width:1.0;"/><path d="M241.5112,107.5938 L241.5112,110.5938 C241.5112,117.5938 395.8521,122.5938 395.8521,129.5938 L395.8521,132.5938 " fill="none" style="stroke:#181818;stroke-width:1.0;"/><path d="M473.0225,46.2969 L473.0225,49.2969 C473.0225,56.2969 241.5112,61.2969 241.5112,68.2969 L241.5112,71.2969 " fill="none" style="stroke:#181818;stroke-width:1.0;"/><rect fill="#F1F1F1" height="36.2969" rx="12.5" ry="12.5" style="stroke:#181818;stroke-width:1.5;" width="55.6289" x="676.7192" y="71.2969"/><text fill="#000000" font-family="sans-serif" font-size="14" lengthAdjust="spacing" textLength="35.6289" x="686.7192" y="94.292">2024</text><rect fill="#F1F1F1" height="36.2969" rx="12.5" ry="12.5" style="stroke:#181818;stroke-width:1.5;" width="37.7803" x="531.3027" y="132.5938"/><text fill="#000000" font-family="sans-serif" font-size="14" lengthAdjust="spacing" textLength="17.7803" x="541.3027" y="155.5889">FR</text><rect fill="#F1F1F1" height="36.2969" rx="12.5" ry="12.5" style="stroke:#181818;stroke-width:1.5;" width="54.8428" x="483.0225" y="193.8906"/><text fill="#000000" font-family="sans-serif" font-size="14" lengthAdjust="spacing" textLength="34.8428" x="493.0225" y="216.8857">price</text><path d="M550.1929,168.8906 L550.1929,171.8906 C550.1929,178.8906 510.4438,183.8906 510.4438,190.8906 L510.4438,193.8906 " fill="none" style="stroke:#181818;stroke-width:1.0;"/><rect fill="#F1F1F1" height="36.2969" rx="12.5" ry="12.5" style="stroke:#181818;stroke-width:1.5;" width="59.498" x="557.8652" y="193.8906"/><text fill="#000000" font-family="sans-serif" font-size="14" lengthAdjust="spacing" textLength="39.498" x="567.8652" y="216.8857">count</text><path d="M550.1929,168.8906 L550.1929,171.8906 C550.1929,178.8906 587.6143,183.8906 587.6143,190.8906 L587.6143,193.8906 " fill="none" style="stroke:#181818;stroke-width:1.0;"/><path d="M704.5337,107.5938 L704.5337,110.5938 C704.5337,117.5938 550.1929,122.5938 550.1929,129.5938 L550.1929,132.5938 " fill="none" style="stroke:#181818;stroke-width:1.0;"/><rect fill="#F1F1F1" height="36.2969" rx="12.5" ry="12.5" style="stroke:#181818;stroke-width:1.5;" width="39.626" x="684.7207" y="132.5938"/><text fill="#000000" font-family="sans-serif" font-size="14" lengthAdjust="spacing" textLength="19.626" x="694.7207" y="155.5889">DE</text><rect fill="#F1F1F1" height="36.2969" rx="12.5" ry="12.5" style="stroke:#181818;stroke-width:1.5;" width="54.8428" x="637.3633" y="193.8906"/><text fill="#000000" font-family="sans-serif" font-size="14" lengthAdjust="spacing" textLength="34.8428" x="647.3633" y="216.8857">price</text><path d="M704.5337,168.8906 L704.5337,171.8906 C704.5337,178.8906 664.7847,183.8906 664.7847,190.8906 L664.7847,193.8906 " fill="none" style="stroke:#181818;stroke-width:1.0;"/><rect fill="#F1F1F1" height="36.2969" rx="12.5" ry="12.5" style="stroke:#181818;stroke-width:1.5;" width="59.498" x="712.2061" y="193.8906"/><text fill="#000000" font-family="sans-serif" font-size="14" lengthAdjust="spacing" textLength="39.498" x="722.2061" y="216.8857">count</text><path d="M704.5337,168.8906 L704.5337,171.8906 C704.5337,178.8906 741.9551,183.8906 741.9551,190.8906 L741.9551,193.8906 " fill="none" style="stroke:#181818;stroke-width:1.0;"/><path d="M704.5337,107.5938 L704.5337,110.5938 C704.5337,117.5938 704.5337,122.5938 704.5337,129.5938 L704.5337,132.5938 " fill="none" style="stroke:#181818;stroke-width:1.0;"/><rect fill="#F1F1F1" height="36.2969" rx="12.5" ry="12.5" style="stroke:#181818;stroke-width:1.5;" width="40.248" x="838.7505" y="132.5938"/><text fill="#000000" font-family="sans-serif" font-size="14" lengthAdjust="spacing" textLength="20.248" x="848.7505" y="155.5889">CN</text><rect fill="#F1F1F1" height="36.2969" rx="12.5" ry="12.5" style="stroke:#181818;stroke-width:1.5;" width="54.8428" x="791.7041" y="193.8906"/><text fill="#000000" font-family="sans-serif" font-size="14" lengthAdjust="spacing" textLength="34.8428" x="801.7041" y="216.8857">price</text><path d="M858.8745,168.8906 L858.8745,171.8906 C858.8745,178.8906 819.1255,183.8906 819.1255,190.8906 L819.1255,193.8906 " fill="none" style="stroke:#181818;stroke-width:1.0;"/><rect fill="#F1F1F1" height="36.2969" rx="12.5" ry="12.5" style="stroke:#181818;stroke-width:1.5;" width="59.498" x="866.5469" y="193.8906"/><text fill="#000000" font-family="sans-serif" font-size="14" lengthAdjust="spacing" textLength="39.498" x="876.5469" y="216.8857">count</text><path d="M858.8745,168.8906 L858.8745,171.8906 C858.8745,178.8906 896.2959,183.8906 896.2959,190.8906 L896.2959,193.8906 " fill="none" style="stroke:#181818;stroke-width:1.0;"/><path d="M704.5337,107.5938 L704.5337,110.5938 C704.5337,117.5938 858.8745,122.5938 858.8745,129.5938 L858.8745,132.5938 " fill="none" style="stroke:#181818;stroke-width:1.0;"/><path d="M473.0225,46.2969 L473.0225,49.2969 C473.0225,56.2969 704.5337,61.2969 704.5337,68.2969 L704.5337,71.2969 " fill="none" style="stroke:#181818;stroke-width:1.0;"/><!--SRC=[jP1FRy8m3CNl-HG-ZaeW_Wcndj0AJEfWGp2uXzIh8bAdSXoaVVkbRDDEssqdMtdEU_Pl4KIpD9QgHhSgN2orcdNZlBbW1MTjBZNxI5NXdMSGrXJI098eyIs8XxCNyGrKbj68zQHK1diCqOdACXWFnvDKCrZlkv91ozRWPskIhzp4vUeFiNZ-LUpif_zbly34v8kBsZbDSjnku8eSqfKm6dJPWzdTGGkKqS5m1iFxV3JD9tCulXQtrNhgxd6tWU0Z6qo8Wh0znuvIJvNwgc6VWco3ERoqIENowVi1LdIrxAdfG9UdxS_0RDf_i087vBG9dBPgYMywmKu_ZAyirNbAN_VdQgEfZhfEtaYgw2xYznmeElS1]--></g></svg>