<?xml version="1.0" encoding="us-ascii" standalone="no"?><svg xmlns="http://www.w3.org/2000/svg" xmlns:xlink="http://www.w3.org/1999/xlink" contentStyleType="text/css" height="1026px" preserveAspectRatio="none" style="width:714px;height:1026px;" version="1.1" viewBox="0 0 714 1026" width="714px" zoomAndPan="magnify"><defs/><g><!--cluster php--><g id="cluster_php"><rect fill="none" height="164" rx="2.5" ry="2.5" style="stroke:#FFFFFF;stroke-width:1.5;" width="582" x="13" y="7"/><text fill="#FFFFFF" font-family="sans-serif" font-size="14" font-weight="bold" lengthAdjust="spacing" textLength="30" x="289" y="21.9951">php</text></g><!--cluster doctrine/collections--><g id="cluster_doctrine/collections"><rect fill="none" height="610" rx="2.5" ry="2.5" style="stroke:#FFFFFF;stroke-width:1.5;" width="695" x="7" y="241"/><text fill="#FFFFFF" font-family="sans-serif" font-size="14" font-weight="bold" lengthAdjust="spacing" textLength="156" x="276.5" y="255.9951">doctrine/collections</text></g><!--cluster doctrine/orm--><g id="cluster_doctrine/orm"><rect fill="none" height="99" rx="2.5" ry="2.5" style="stroke:#FFFFFF;stroke-width:1.5;" width="415" x="293" y="921"/><text fill="#FFFFFF" font-family="sans-serif" font-size="14" font-weight="bold" lengthAdjust="spacing" textLength="102" x="449.5" y="935.9951">doctrine/orm</text></g><!--class ArrayAccess--><g id="elem_ArrayAccess"><rect codeLine="5" fill="#313139" height="113.1875" id="ArrayAccess" rx="2.5" ry="2.5" style="stroke:#E7E7E7;stroke-width:0.5;" width="199" x="29.5" y="42"/><ellipse cx="76.75" cy="58" fill="#352866" rx="11" ry="11" style="stroke:#E7E7E7;stroke-width:1.0;"/><path d="M72.6719,53.7656 L72.6719,51.6094 L80.0625,51.6094 L80.0625,53.7656 L77.5938,53.7656 L77.5938,61.8438 L80.0625,61.8438 L80.0625,64 L72.6719,64 L72.6719,61.8438 L75.1406,61.8438 L75.1406,53.7656 L72.6719,53.7656 Z " fill="#FFFFFF"/><text fill="#FFFFFF" font-family="sans-serif" font-size="14" font-style="italic" lengthAdjust="spacing" textLength="96" x="97.25" y="62.8467">ArrayAccess *</text><line style="stroke:#E7E7E7;stroke-width:0.5;" x1="30.5" x2="227.5" y1="74" y2="74"/><line style="stroke:#E7E7E7;stroke-width:0.5;" x1="30.5" x2="227.5" y1="82" y2="82"/><ellipse cx="40.5" cy="95.6484" fill="#84BE84" rx="3" ry="3" style="stroke:#038048;stroke-width:1.0;"/><text fill="#FFFFFF" font-family="sans-serif" font-size="14" lengthAdjust="spacing" textLength="137" x="49.5" y="98.9951">offsetExists($offset)</text><ellipse cx="40.5" cy="111.9453" fill="#84BE84" rx="3" ry="3" style="stroke:#038048;stroke-width:1.0;"/><text fill="#FFFFFF" font-family="sans-serif" font-size="14" lengthAdjust="spacing" textLength="122" x="49.5" y="115.292">offsetGet($offset)</text><ellipse cx="40.5" cy="128.2422" fill="#84BE84" rx="3" ry="3" style="stroke:#038048;stroke-width:1.0;"/><text fill="#FFFFFF" font-family="sans-serif" font-size="14" lengthAdjust="spacing" textLength="173" x="49.5" y="131.5889">offsetSet($offset, $value)</text><ellipse cx="40.5" cy="144.5391" fill="#84BE84" rx="3" ry="3" style="stroke:#038048;stroke-width:1.0;"/><text fill="#FFFFFF" font-family="sans-serif" font-size="14" lengthAdjust="spacing" textLength="138" x="49.5" y="147.8857">offsetUnset($offset)</text></g><!--class Countable--><g id="elem_Countable"><rect codeLine="12" fill="#313139" height="64.2969" id="Countable" rx="2.5" ry="2.5" style="stroke:#E7E7E7;stroke-width:0.5;" width="114" x="264" y="66.5"/><ellipse cx="279" cy="82.5" fill="#352866" rx="11" ry="11" style="stroke:#E7E7E7;stroke-width:1.0;"/><path d="M274.9219,78.2656 L274.9219,76.1094 L282.3125,76.1094 L282.3125,78.2656 L279.8438,78.2656 L279.8438,86.3438 L282.3125,86.3438 L282.3125,88.5 L274.9219,88.5 L274.9219,86.3438 L277.3906,86.3438 L277.3906,78.2656 L274.9219,78.2656 Z " fill="#FFFFFF"/><text fill="#FFFFFF" font-family="sans-serif" font-size="14" font-style="italic" lengthAdjust="spacing" textLength="82" x="293" y="87.3467">Countable *</text><line style="stroke:#E7E7E7;stroke-width:0.5;" x1="265" x2="377" y1="98.5" y2="98.5"/><line style="stroke:#E7E7E7;stroke-width:0.5;" x1="265" x2="377" y1="106.5" y2="106.5"/><ellipse cx="275" cy="120.1484" fill="#84BE84" rx="3" ry="3" style="stroke:#038048;stroke-width:1.0;"/><text fill="#FFFFFF" font-family="sans-serif" font-size="14" lengthAdjust="spacing" textLength="50" x="284" y="123.4951">count()</text></g><!--class IteratorAggregate--><g id="elem_IteratorAggregate"><rect codeLine="16" fill="#313139" height="64.2969" id="IteratorAggregate" rx="2.5" ry="2.5" style="stroke:#E7E7E7;stroke-width:0.5;" width="166" x="413" y="66.5"/><ellipse cx="428" cy="82.5" fill="#352866" rx="11" ry="11" style="stroke:#E7E7E7;stroke-width:1.0;"/><path d="M423.9219,78.2656 L423.9219,76.1094 L431.3125,76.1094 L431.3125,78.2656 L428.8438,78.2656 L428.8438,86.3438 L431.3125,86.3438 L431.3125,88.5 L423.9219,88.5 L423.9219,86.3438 L426.3906,86.3438 L426.3906,78.2656 L423.9219,78.2656 Z " fill="#FFFFFF"/><text fill="#FFFFFF" font-family="sans-serif" font-size="14" font-style="italic" lengthAdjust="spacing" textLength="134" x="442" y="87.3467">IteratorAggregate *</text><line style="stroke:#E7E7E7;stroke-width:0.5;" x1="414" x2="578" y1="98.5" y2="98.5"/><line style="stroke:#E7E7E7;stroke-width:0.5;" x1="414" x2="578" y1="106.5" y2="106.5"/><ellipse cx="424" cy="120.1484" fill="#84BE84" rx="3" ry="3" style="stroke:#038048;stroke-width:1.0;"/><text fill="#FFFFFF" font-family="sans-serif" font-size="14" lengthAdjust="spacing" textLength="82" x="433" y="123.4951">getIterator()</text></g><!--class ReadableCollection--><g id="elem_ReadableCollection"><rect codeLine="22" fill="#313139" height="390.2344" id="ReadableCollection" rx="2.5" ry="2.5" style="stroke:#E7E7E7;stroke-width:0.5;" width="233" x="269.5" y="276"/><ellipse cx="310.15" cy="292" fill="#352866" rx="11" ry="11" style="stroke:#E7E7E7;stroke-width:1.0;"/><path d="M306.0719,287.7656 L306.0719,285.6094 L313.4625,285.6094 L313.4625,287.7656 L310.9938,287.7656 L310.9938,295.8438 L313.4625,295.8438 L313.4625,298 L306.0719,298 L306.0719,295.8438 L308.5406,295.8438 L308.5406,287.7656 L306.0719,287.7656 Z " fill="#FFFFFF"/><text fill="#FFFFFF" font-family="sans-serif" font-size="14" font-style="italic" lengthAdjust="spacing" textLength="144" x="329.85" y="296.8467">ReadableCollection *</text><line style="stroke:#E7E7E7;stroke-width:0.5;" x1="270.5" x2="501.5" y1="308" y2="308"/><line style="stroke:#E7E7E7;stroke-width:0.5;" x1="270.5" x2="501.5" y1="316" y2="316"/><ellipse cx="280.5" cy="329.6484" fill="#84BE84" rx="3" ry="3" style="stroke:#038048;stroke-width:1.0;"/><text fill="#FFFFFF" font-family="sans-serif" font-size="14" lengthAdjust="spacing" textLength="135" x="289.5" y="332.9951">contains($element)</text><ellipse cx="280.5" cy="345.9453" fill="#84BE84" rx="3" ry="3" style="stroke:#038048;stroke-width:1.0;"/><text fill="#FFFFFF" font-family="sans-serif" font-size="14" lengthAdjust="spacing" textLength="64" x="289.5" y="349.292">isEmpty()</text><ellipse cx="280.5" cy="362.2422" fill="#84BE84" rx="3" ry="3" style="stroke:#038048;stroke-width:1.0;"/><text fill="#FFFFFF" font-family="sans-serif" font-size="14" lengthAdjust="spacing" textLength="127" x="289.5" y="365.5889">containsKey($key)</text><ellipse cx="280.5" cy="378.5391" fill="#84BE84" rx="3" ry="3" style="stroke:#038048;stroke-width:1.0;"/><text fill="#FFFFFF" font-family="sans-serif" font-size="14" lengthAdjust="spacing" textLength="66" x="289.5" y="381.8857">get($key)</text><ellipse cx="280.5" cy="394.8359" fill="#84BE84" rx="3" ry="3" style="stroke:#038048;stroke-width:1.0;"/><text fill="#FFFFFF" font-family="sans-serif" font-size="14" lengthAdjust="spacing" textLength="66" x="289.5" y="398.1826">getKeys()</text><ellipse cx="280.5" cy="411.1328" fill="#84BE84" rx="3" ry="3" style="stroke:#038048;stroke-width:1.0;"/><text fill="#FFFFFF" font-family="sans-serif" font-size="14" lengthAdjust="spacing" textLength="79" x="289.5" y="414.4795">getValues()</text><ellipse cx="280.5" cy="427.4297" fill="#84BE84" rx="3" ry="3" style="stroke:#038048;stroke-width:1.0;"/><text fill="#FFFFFF" font-family="sans-serif" font-size="14" lengthAdjust="spacing" textLength="58" x="289.5" y="430.7764">toArray()</text><ellipse cx="280.5" cy="443.7266" fill="#84BE84" rx="3" ry="3" style="stroke:#038048;stroke-width:1.0;"/><text fill="#FFFFFF" font-family="sans-serif" font-size="14" lengthAdjust="spacing" textLength="35" x="289.5" y="447.0732">first()</text><ellipse cx="280.5" cy="460.0234" fill="#84BE84" rx="3" ry="3" style="stroke:#038048;stroke-width:1.0;"/><text fill="#FFFFFF" font-family="sans-serif" font-size="14" lengthAdjust="spacing" textLength="34" x="289.5" y="463.3701">last()</text><ellipse cx="280.5" cy="476.3203" fill="#84BE84" rx="3" ry="3" style="stroke:#038048;stroke-width:1.0;"/><text fill="#FFFFFF" font-family="sans-serif" font-size="14" lengthAdjust="spacing" textLength="34" x="289.5" y="479.667">key()</text><ellipse cx="280.5" cy="492.6172" fill="#84BE84" rx="3" ry="3" style="stroke:#038048;stroke-width:1.0;"/><text fill="#FFFFFF" font-family="sans-serif" font-size="14" lengthAdjust="spacing" textLength="60" x="289.5" y="495.9639">current()</text><ellipse cx="280.5" cy="508.9141" fill="#84BE84" rx="3" ry="3" style="stroke:#038048;stroke-width:1.0;"/><text fill="#FFFFFF" font-family="sans-serif" font-size="14" lengthAdjust="spacing" textLength="40" x="289.5" y="512.2607">next()</text><ellipse cx="280.5" cy="525.2109" fill="#84BE84" rx="3" ry="3" style="stroke:#038048;stroke-width:1.0;"/><text fill="#FFFFFF" font-family="sans-serif" font-size="14" lengthAdjust="spacing" textLength="150" x="289.5" y="528.5576">slice($offset, $length)</text><ellipse cx="280.5" cy="541.5078" fill="#84BE84" rx="3" ry="3" style="stroke:#038048;stroke-width:1.0;"/><text fill="#FFFFFF" font-family="sans-serif" font-size="14" lengthAdjust="spacing" textLength="103" x="289.5" y="544.8545">exists(Closure)</text><ellipse cx="280.5" cy="557.8047" fill="#84BE84" rx="3" ry="3" style="stroke:#038048;stroke-width:1.0;"/><text fill="#FFFFFF" font-family="sans-serif" font-size="14" lengthAdjust="spacing" textLength="92" x="289.5" y="561.1514">filter(Closure)</text><ellipse cx="280.5" cy="574.1016" fill="#84BE84" rx="3" ry="3" style="stroke:#038048;stroke-width:1.0;"/><text fill="#FFFFFF" font-family="sans-serif" font-size="14" lengthAdjust="spacing" textLength="93" x="289.5" y="577.4482">map(Closure)</text><ellipse cx="280.5" cy="590.3984" fill="#84BE84" rx="3" ry="3" style="stroke:#038048;stroke-width:1.0;"/><text fill="#FFFFFF" font-family="sans-serif" font-size="14" lengthAdjust="spacing" textLength="119" x="289.5" y="593.7451">partition(Closure)</text><ellipse cx="280.5" cy="606.6953" fill="#84BE84" rx="3" ry="3" style="stroke:#038048;stroke-width:1.0;"/><text fill="#FFFFFF" font-family="sans-serif" font-size="14" lengthAdjust="spacing" textLength="96" x="289.5" y="610.042">forAll(Closure)</text><ellipse cx="280.5" cy="622.9922" fill="#84BE84" rx="3" ry="3" style="stroke:#038048;stroke-width:1.0;"/><text fill="#FFFFFF" font-family="sans-serif" font-size="14" lengthAdjust="spacing" textLength="128" x="289.5" y="626.3389">indexOf($element)</text><ellipse cx="280.5" cy="639.2891" fill="#84BE84" rx="3" ry="3" style="stroke:#038048;stroke-width:1.0;"/><text fill="#FFFFFF" font-family="sans-serif" font-size="14" lengthAdjust="spacing" textLength="117" x="289.5" y="642.6357">findFirst(Closure)</text><ellipse cx="280.5" cy="655.5859" fill="#84BE84" rx="3" ry="3" style="stroke:#038048;stroke-width:1.0;"/><text fill="#FFFFFF" font-family="sans-serif" font-size="14" lengthAdjust="spacing" textLength="207" x="289.5" y="658.9326">reduce(Closure, $initial = null)</text></g><!--class Collection--><g id="elem_Collection"><rect codeLine="49" fill="#313139" height="178.375" id="Collection" rx="2.5" ry="2.5" style="stroke:#E7E7E7;stroke-width:0.5;" width="211" x="23.5" y="382"/><ellipse cx="85.25" cy="398" fill="#352866" rx="11" ry="11" style="stroke:#E7E7E7;stroke-width:1.0;"/><path d="M81.1719,393.7656 L81.1719,391.6094 L88.5625,391.6094 L88.5625,393.7656 L86.0938,393.7656 L86.0938,401.8438 L88.5625,401.8438 L88.5625,404 L81.1719,404 L81.1719,401.8438 L83.6406,401.8438 L83.6406,393.7656 L81.1719,393.7656 Z " fill="#FFFFFF"/><text fill="#FFFFFF" font-family="sans-serif" font-size="14" font-style="italic" lengthAdjust="spacing" textLength="79" x="105.75" y="402.8467">Collection *</text><line style="stroke:#E7E7E7;stroke-width:0.5;" x1="24.5" x2="233.5" y1="414" y2="414"/><line style="stroke:#E7E7E7;stroke-width:0.5;" x1="24.5" x2="233.5" y1="422" y2="422"/><ellipse cx="34.5" cy="435.6484" fill="#84BE84" rx="3" ry="3" style="stroke:#038048;stroke-width:1.0;"/><text fill="#FFFFFF" font-family="sans-serif" font-size="14" lengthAdjust="spacing" textLength="102" x="43.5" y="438.9951">add($element)</text><ellipse cx="34.5" cy="451.9453" fill="#84BE84" rx="3" ry="3" style="stroke:#038048;stroke-width:1.0;"/><text fill="#FFFFFF" font-family="sans-serif" font-size="14" lengthAdjust="spacing" textLength="43" x="43.5" y="455.292">clear()</text><ellipse cx="34.5" cy="468.2422" fill="#84BE84" rx="3" ry="3" style="stroke:#038048;stroke-width:1.0;"/><text fill="#FFFFFF" font-family="sans-serif" font-size="14" lengthAdjust="spacing" textLength="95" x="43.5" y="471.5889">remove($key)</text><ellipse cx="34.5" cy="484.5391" fill="#84BE84" rx="3" ry="3" style="stroke:#038048;stroke-width:1.0;"/><text fill="#FFFFFF" font-family="sans-serif" font-size="14" lengthAdjust="spacing" textLength="185" x="43.5" y="487.8857">removeElement($element)</text><ellipse cx="34.5" cy="500.8359" fill="#84BE84" rx="3" ry="3" style="stroke:#038048;stroke-width:1.0;"/><text fill="#FFFFFF" font-family="sans-serif" font-size="14" lengthAdjust="spacing" textLength="118" x="43.5" y="504.1826">set($key, $value)</text><ellipse cx="34.5" cy="517.1328" fill="#84BE84" rx="3" ry="3" style="stroke:#038048;stroke-width:1.0;"/><text fill="#FFFFFF" font-family="sans-serif" font-size="14" lengthAdjust="spacing" textLength="93" x="43.5" y="520.4795">map(Closure)</text><ellipse cx="34.5" cy="533.4297" fill="#84BE84" rx="3" ry="3" style="stroke:#038048;stroke-width:1.0;"/><text fill="#FFFFFF" font-family="sans-serif" font-size="14" lengthAdjust="spacing" textLength="92" x="43.5" y="536.7764">filter(Closure)</text><ellipse cx="34.5" cy="549.7266" fill="#84BE84" rx="3" ry="3" style="stroke:#038048;stroke-width:1.0;"/><text fill="#FFFFFF" font-family="sans-serif" font-size="14" lengthAdjust="spacing" textLength="119" x="43.5" y="553.0732">partition(Closure)</text></g><!--class Selectable--><g id="elem_Selectable"><rect codeLine="64" fill="#313139" height="64.2969" id="Selectable" rx="2.5" ry="2.5" style="stroke:#E7E7E7;stroke-width:0.5;" width="148" x="538" y="439"/><ellipse cx="567.85" cy="455" fill="#352866" rx="11" ry="11" style="stroke:#E7E7E7;stroke-width:1.0;"/><path d="M563.7719,450.7656 L563.7719,448.6094 L571.1625,448.6094 L571.1625,450.7656 L568.6938,450.7656 L568.6938,458.8438 L571.1625,458.8438 L571.1625,461 L563.7719,461 L563.7719,458.8438 L566.2406,458.8438 L566.2406,450.7656 L563.7719,450.7656 Z " fill="#FFFFFF"/><text fill="#FFFFFF" font-family="sans-serif" font-size="14" font-style="italic" lengthAdjust="spacing" textLength="83" x="585.15" y="459.8467">Selectable *</text><line style="stroke:#E7E7E7;stroke-width:0.5;" x1="539" x2="685" y1="471" y2="471"/><line style="stroke:#E7E7E7;stroke-width:0.5;" x1="539" x2="685" y1="479" y2="479"/><ellipse cx="549" cy="492.6484" fill="#84BE84" rx="3" ry="3" style="stroke:#038048;stroke-width:1.0;"/><text fill="#FFFFFF" font-family="sans-serif" font-size="14" lengthAdjust="spacing" textLength="122" x="558" y="495.9951">matching(Criteria)</text></g><!--class ArrayCollection--><g id="elem_ArrayCollection"><rect codeLine="68" fill="#313139" height="48" id="ArrayCollection" rx="2.5" ry="2.5" style="stroke:#E7E7E7;stroke-width:0.5;" width="134" x="354" y="787"/><ellipse cx="369" cy="803" fill="#2E5233" rx="11" ry="11" style="stroke:#E7E7E7;stroke-width:1.0;"/><path d="M371.9688,808.6406 Q371.3906,808.9375 370.75,809.0781 Q370.1094,809.2344 369.4063,809.2344 Q366.9063,809.2344 365.5781,807.5938 Q364.2656,805.9375 364.2656,802.8125 Q364.2656,799.6875 365.5781,798.0313 Q366.9063,796.375 369.4063,796.375 Q370.1094,796.375 370.75,796.5313 Q371.4063,796.6875 371.9688,796.9844 L371.9688,799.7031 Q371.3438,799.125 370.75,798.8594 Q370.1563,798.5781 369.5313,798.5781 Q368.1875,798.5781 367.5,799.6563 Q366.8125,800.7188 366.8125,802.8125 Q366.8125,804.9063 367.5,805.9844 Q368.1875,807.0469 369.5313,807.0469 Q370.1563,807.0469 370.75,806.7813 Q371.3438,806.5 371.9688,805.9219 L371.9688,808.6406 Z " fill="#FFFFFF"/><text fill="#FFFFFF" font-family="sans-serif" font-size="14" lengthAdjust="spacing" textLength="102" x="383" y="807.8467">ArrayCollection</text><line style="stroke:#E7E7E7;stroke-width:0.5;" x1="355" x2="487" y1="819" y2="819"/><line style="stroke:#E7E7E7;stroke-width:0.5;" x1="355" x2="487" y1="827" y2="827"/></g><!--class AbstractLazyCollection--><g id="elem_AbstractLazyCollection"><rect codeLine="71" fill="#313139" height="48" id="AbstractLazyCollection" rx="2.5" ry="2.5" style="stroke:#E7E7E7;stroke-width:0.5;" width="188" x="131" y="787"/><ellipse cx="146" cy="803" fill="#2A5D60" rx="11" ry="11" style="stroke:#E7E7E7;stroke-width:1.0;"/><path d="M146.1094,798.3438 L144.9531,803.4219 L147.2813,803.4219 L146.1094,798.3438 Z M144.625,796.1094 L147.6094,796.1094 L150.9688,808.5 L148.5156,808.5 L147.75,805.4375 L144.4688,805.4375 L143.7188,808.5 L141.2813,808.5 L144.625,796.1094 Z " fill="#FFFFFF"/><text fill="#FFFFFF" font-family="sans-serif" font-size="14" font-style="italic" lengthAdjust="spacing" textLength="156" x="160" y="807.8467">AbstractLazyCollection</text><line style="stroke:#E7E7E7;stroke-width:0.5;" x1="132" x2="318" y1="819" y2="819"/><line style="stroke:#E7E7E7;stroke-width:0.5;" x1="132" x2="318" y1="827" y2="827"/></g><!--class LazyCriteriaCollection--><g id="elem_LazyCriteriaCollection"><rect codeLine="81" fill="#313139" height="48" id="LazyCriteriaCollection" rx="2.5" ry="2.5" style="stroke:#E7E7E7;stroke-width:0.5;" width="178" x="309" y="956"/><ellipse cx="324" cy="972" fill="#2E5233" rx="11" ry="11" style="stroke:#E7E7E7;stroke-width:1.0;"/><path d="M326.9688,977.6406 Q326.3906,977.9375 325.75,978.0781 Q325.1094,978.2344 324.4063,978.2344 Q321.9063,978.2344 320.5781,976.5938 Q319.2656,974.9375 319.2656,971.8125 Q319.2656,968.6875 320.5781,967.0313 Q321.9063,965.375 324.4063,965.375 Q325.1094,965.375 325.75,965.5313 Q326.4063,965.6875 326.9688,965.9844 L326.9688,968.7031 Q326.3438,968.125 325.75,967.8594 Q325.1563,967.5781 324.5313,967.5781 Q323.1875,967.5781 322.5,968.6563 Q321.8125,969.7188 321.8125,971.8125 Q321.8125,973.9063 322.5,974.9844 Q323.1875,976.0469 324.5313,976.0469 Q325.1563,976.0469 325.75,975.7813 Q326.3438,975.5 326.9688,974.9219 L326.9688,977.6406 Z " fill="#FFFFFF"/><text fill="#FFFFFF" font-family="sans-serif" font-size="14" lengthAdjust="spacing" textLength="146" x="338" y="976.8467">LazyCriteriaCollection</text><line style="stroke:#E7E7E7;stroke-width:0.5;" x1="310" x2="486" y1="988" y2="988"/><line style="stroke:#E7E7E7;stroke-width:0.5;" x1="310" x2="486" y1="996" y2="996"/></g><!--class PersistentCollection--><g id="elem_PersistentCollection"><rect codeLine="84" fill="#313139" height="48" id="PersistentCollection" rx="2.5" ry="2.5" style="stroke:#E7E7E7;stroke-width:0.5;" width="170" x="522" y="956"/><ellipse cx="537" cy="972" fill="#2E5233" rx="11" ry="11" style="stroke:#E7E7E7;stroke-width:1.0;"/><path d="M539.9688,977.6406 Q539.3906,977.9375 538.75,978.0781 Q538.1094,978.2344 537.4063,978.2344 Q534.9063,978.2344 533.5781,976.5938 Q532.2656,974.9375 532.2656,971.8125 Q532.2656,968.6875 533.5781,967.0313 Q534.9063,965.375 537.4063,965.375 Q538.1094,965.375 538.75,965.5313 Q539.4063,965.6875 539.9688,965.9844 L539.9688,968.7031 Q539.3438,968.125 538.75,967.8594 Q538.1563,967.5781 537.5313,967.5781 Q536.1875,967.5781 535.5,968.6563 Q534.8125,969.7188 534.8125,971.8125 Q534.8125,973.9063 535.5,974.9844 Q536.1875,976.0469 537.5313,976.0469 Q538.1563,976.0469 538.75,975.7813 Q539.3438,975.5 539.9688,974.9219 L539.9688,977.6406 Z " fill="#FFFFFF"/><text fill="#FFFFFF" font-family="sans-serif" font-size="14" lengthAdjust="spacing" textLength="138" x="551" y="976.8467">PersistentCollection</text><line style="stroke:#E7E7E7;stroke-width:0.5;" x1="523" x2="691" y1="988" y2="988"/><line style="stroke:#E7E7E7;stroke-width:0.5;" x1="523" x2="691" y1="996" y2="996"/></g><!--reverse link Countable to ReadableCollection--><g id="link_Countable_ReadableCollection"><path codeLine="46" d="M329.5974,148.4998 C335.4074,181.6498 342,219.18 351.89,275.58 " fill="none" id="Countable-backto-ReadableCollection" style="stroke:#E7E7E7;stroke-width:1.0;"/><polygon fill="none" points="326.49,130.77,323.6875,149.5355,335.5073,147.464,326.49,130.77" style="stroke:#E7E7E7;stroke-width:1.0;"/></g><!--reverse link IteratorAggregate to ReadableCollection--><g id="link_IteratorAggregate_ReadableCollection"><path codeLine="47" d="M481.5979,148.0258 C471.7579,181.1758 460.47,219.18 443.72,275.58 " fill="none" id="IteratorAggregate-backto-ReadableCollection" style="stroke:#E7E7E7;stroke-width:1.0;"/><polygon fill="none" points="486.72,130.77,475.846,146.3185,487.3499,149.7332,486.72,130.77" style="stroke:#E7E7E7;stroke-width:1.0;"/></g><!--reverse link ArrayAccess to Collection--><g id="link_ArrayAccess_Collection"><path codeLine="60" d="M129,173.37 C129,233.41 129,311.66 129,381.91 " fill="none" id="ArrayAccess-backto-Collection" style="stroke:#E7E7E7;stroke-width:1.0;"/><polygon fill="none" points="129,155.37,123,173.37,135,173.37,129,155.37" style="stroke:#E7E7E7;stroke-width:1.0;"/></g><!--reverse link ReadableCollection to Collection--><g id="link_ReadableCollection_Collection"><path codeLine="62" d="M251.24,471 C239.72,471 246.19,471 234.66,471 " fill="none" id="ReadableCollection-backto-Collection" style="stroke:#E7E7E7;stroke-width:1.0;"/><polygon fill="none" points="269.24,471,251.24,465,251.24,477,269.24,471" style="stroke:#E7E7E7;stroke-width:1.0;"/></g><!--reverse link Collection to ArrayCollection--><g id="link_Collection_ArrayCollection"><path codeLine="74" d="M186.6498,575.8175 C207.4798,610.3875 224.15,633.93 252,666 C293.83,714.17 352.21,760.24 388.25,786.79 " fill="none" id="Collection-backto-ArrayCollection" style="stroke:#E7E7E7;stroke-width:1.0;stroke-dasharray:7.0,7.0;"/><polygon fill="none" points="177.36,560.4,181.5106,578.9141,191.7889,572.7209,177.36,560.4" style="stroke:#E7E7E7;stroke-width:1.0;"/></g><!--reverse link Selectable to ArrayCollection--><g id="link_Selectable_ArrayCollection"><path codeLine="75" d="M592.0679,519.5711 C575.4779,558.5311 552,610.44 520,666 C494.41,710.43 459.46,758.95 438.66,786.8 " fill="none" id="Selectable-backto-ArrayCollection" style="stroke:#E7E7E7;stroke-width:1.0;stroke-dasharray:7.0,7.0;"/><polygon fill="none" points="599.12,503.01,586.5476,517.2204,597.5883,521.9217,599.12,503.01" style="stroke:#E7E7E7;stroke-width:1.0;"/></g><!--reverse link Collection to AbstractLazyCollection--><g id="link_Collection_AbstractLazyCollection"><path codeLine="77" d="M159.0176,577.6752 C180.6276,653.7652 205.41,741.02 218.43,786.87 " fill="none" id="Collection-backto-AbstractLazyCollection" style="stroke:#E7E7E7;stroke-width:1.0;stroke-dasharray:7.0,7.0;"/><polygon fill="none" points="154.1,560.36,153.2459,579.3144,164.7894,576.036,154.1,560.36" style="stroke:#E7E7E7;stroke-width:1.0;"/></g><!--reverse link AbstractLazyCollection to PersistentCollection--><g id="link_AbstractLazyCollection_PersistentCollection"><path codeLine="88" d="M293.897,842.0981 C312.587,850.0381 317.32,851.72 337,859 C410.56,886.2 434.13,879.41 505,913 C530.16,924.93 556.49,942.1 576.1,955.94 " fill="none" id="AbstractLazyCollection-backto-PersistentCollection" style="stroke:#E7E7E7;stroke-width:1.0;"/><polygon fill="none" points="277.33,835.06,291.551,847.6204,296.243,836.5758,277.33,835.06" style="stroke:#E7E7E7;stroke-width:1.0;"/></g><!--reverse link Selectable to PersistentCollection--><g id="link_Selectable_PersistentCollection"><path codeLine="89" d="M611.5133,521.3291 C610.5933,615.0291 608.04,873.66 607.23,955.77 " fill="none" id="Selectable-backto-PersistentCollection" style="stroke:#E7E7E7;stroke-width:1.0;stroke-dasharray:7.0,7.0;"/><polygon fill="none" points="611.69,503.33,605.5136,521.2702,617.513,521.388,611.69,503.33" style="stroke:#E7E7E7;stroke-width:1.0;"/></g><!--reverse link AbstractLazyCollection to LazyCriteriaCollection--><g id="link_AbstractLazyCollection_LazyCriteriaCollection"><path codeLine="91" d="M262.0012,847.7207 C295.0612,879.6307 341.2,924.17 374.15,955.98 " fill="none" id="AbstractLazyCollection-backto-LazyCriteriaCollection" style="stroke:#E7E7E7;stroke-width:1.0;"/><polygon fill="none" points="249.05,835.22,257.8343,852.0377,266.1681,843.4036,249.05,835.22" style="stroke:#E7E7E7;stroke-width:1.0;"/></g><!--reverse link Selectable to LazyCriteriaCollection--><g id="link_Selectable_LazyCriteriaCollection"><path codeLine="92" d="M606.114,521.0304 C597.264,589.2404 572.39,737.5 506,859 C485.03,897.37 449.52,933.54 424.97,955.94 " fill="none" id="Selectable-backto-LazyCriteriaCollection" style="stroke:#E7E7E7;stroke-width:1.0;stroke-dasharray:7.0,7.0;"/><polygon fill="none" points="608.43,503.18,600.1639,520.2584,612.0641,521.8024,608.43,503.18" style="stroke:#E7E7E7;stroke-width:1.0;"/></g><!--SRC=[XLJBhjCm4DtdAwogYnHe-G5OL5L122GG5UnTPv9QTUp8TgvQBlrt9e-sTZ8MMMLcZkTnvjZkB7N3BQ-L4MSes96BSsLDgukTKSOoRxbs203jiypTmQn16A_WuAyAc0NXkQuKPDdePysfOQyPmqzg3xRa0jZMMdxT2W7ECUxO8hJVB4PuzxqrPUd0xo_IUPSl1sir3Ny6dumTdh5tRFd2LGipp2_jfXbksQJb7HBX-H5dx1f-Md6xelFdYHHVy8TxOxTLPQ7YVaWrzyOfA_1to2FnxKdleZ32MwdXlJ1A8VtIQBUOCVuJUD7rktk0-kA4UpeGpYarSWyAQbnzG9vq-xhnrtmrXt-5QxuymtKLpK6u4EZosFMxsr7azAONIEWgfNK-T2WUsrWfQgordN13buPBP3ib1GHQKQ0hVme0CAXmfunhBKJDAEIP2DIy8RnuRxpikAPIeH2K8W9I5t3vNb9xA37sgUTZVin2qU9KOm2daXfBSyK-Cjqg5IdrAUeFVzThGZ8zQgxN57fsWoBf9IN7YuAQKYZWDez6gyqBJ3KrUFV3SIgF6tL8l0RqkfBRJUnnP3Dyqpg6rcnA3N7v4CZI31wW2pmUeS2C6Qov5oUfgtnd9PwLF6fCu5LnGtj1vTSGmeyENtlXsNRy-SR_9C5H-vlDPfgw1mMzqg14Ah8-_VuPMzzP64Ri3uqCf9eVa3_0EhpRA1GADwoJPcBOB7MU7fj4_hy0FGfT8e6zPVy0]--></g></svg>