<svg xmlns="http://www.w3.org/2000/svg" xmlns:xlink="http://www.w3.org/1999/xlink" contentStyleType="text/css" height="1026px" preserveAspectRatio="none" style="width:731px;height:1026px;" version="1.1" viewBox="0 0 731 1026" width="731px" zoomAndPan="magnify"><defs/><g><!--cluster php--><g id="cluster_php"><rect fill="none" height="164" rx="2.5" ry="2.5" style="stroke:#FFFFFF;stroke-width:1.5;" width="590" x="13" y="7"/><text fill="#FFFFFF" font-family="sans-serif" font-size="14" font-weight="bold" lengthAdjust="spacing" textLength="30.0098" x="292.9951" y="21.9951">php</text></g><!--cluster doctrine/collections--><g id="cluster_doctrine/collections"><rect fill="none" height="610" rx="2.5" ry="2.5" style="stroke:#FFFFFF;stroke-width:1.5;" width="714" x="7" y="241"/><text fill="#FFFFFF" font-family="sans-serif" font-size="14" font-weight="bold" lengthAdjust="spacing" textLength="155.627" x="286.1865" y="255.9951">doctrine/collections</text></g><!--cluster doctrine/orm--><g id="cluster_doctrine/orm"><rect fill="none" height="99" rx="2.5" ry="2.5" style="stroke:#FFFFFF;stroke-width:1.5;" width="423" x="302" y="921"/><text fill="#FFFFFF" font-family="sans-serif" font-size="14" font-weight="bold" lengthAdjust="spacing" textLength="102.0195" x="462.4902" y="935.9951">doctrine/orm</text></g><!--class ArrayAccess--><g id="elem_ArrayAccess"><rect codeLine="5" fill="#313139" height="113.1875" id="ArrayAccess" rx="2.5" ry="2.5" style="stroke:#E7E7E7;stroke-width:0.5;" width="204.5068" x="28.5" y="42"/><ellipse cx="77.7153" cy="58" fill="#352866" rx="11" ry="11" style="stroke:#E7E7E7;stroke-width:1.0;"/><path d="M73.6372,53.7656 L73.6372,51.6094 L81.0278,51.6094 L81.0278,53.7656 L78.5591,53.7656 L78.5591,61.8438 L81.0278,61.8438 L81.0278,64 L73.6372,64 L73.6372,61.8438 L76.106,61.8438 L76.106,53.7656 L73.6372,53.7656 Z " fill="#FFFFFF"/><text fill="#FFFFFF" font-family="sans-serif" font-size="14" font-style="italic" lengthAdjust="spacing" textLength="97.5762" x="98.2153" y="62.8467">ArrayAccess *</text><line style="stroke:#E7E7E7;stroke-width:0.5;" x1="29.5" x2="232.0068" y1="74" y2="74"/><line style="stroke:#E7E7E7;stroke-width:0.5;" x1="29.5" x2="232.0068" y1="82" y2="82"/><ellipse cx="39.5" cy="95.6484" fill="#84BE84" rx="3" ry="3" style="stroke:#038048;stroke-width:1.0;"/><text fill="#FFFFFF" font-family="sans-serif" font-size="14" lengthAdjust="spacing" textLength="140.5674" x="48.5" y="98.9951">offsetExists($offset)</text><ellipse cx="39.5" cy="111.9453" fill="#84BE84" rx="3" ry="3" style="stroke:#038048;stroke-width:1.0;"/><text fill="#FFFFFF" font-family="sans-serif" font-size="14" lengthAdjust="spacing" textLength="124.4209" x="48.5" y="115.292">offsetGet($offset)</text><ellipse cx="39.5" cy="128.2422" fill="#84BE84" rx="3" ry="3" style="stroke:#038048;stroke-width:1.0;"/><text fill="#FFFFFF" font-family="sans-serif" font-size="14" lengthAdjust="spacing" textLength="178.5068" x="48.5" y="131.5889">offsetSet($offset, $value)</text><ellipse cx="39.5" cy="144.5391" fill="#84BE84" rx="3" ry="3" style="stroke:#038048;stroke-width:1.0;"/><text fill="#FFFFFF" font-family="sans-serif" font-size="14" lengthAdjust="spacing" textLength="139.9863" x="48.5" y="147.8857">offsetUnset($offset)</text></g><!--class Countable--><g id="elem_Countable"><rect codeLine="12" fill="#313139" height="64.2969" id="Countable" rx="2.5" ry="2.5" style="stroke:#E7E7E7;stroke-width:0.5;" width="114.9951" x="268.5" y="66.5"/><ellipse cx="283.5" cy="82.5" fill="#352866" rx="11" ry="11" style="stroke:#E7E7E7;stroke-width:1.0;"/><path d="M279.4219,78.2656 L279.4219,76.1094 L286.8125,76.1094 L286.8125,78.2656 L284.3438,78.2656 L284.3438,86.3438 L286.8125,86.3438 L286.8125,88.5 L279.4219,88.5 L279.4219,86.3438 L281.8906,86.3438 L281.8906,78.2656 L279.4219,78.2656 Z " fill="#FFFFFF"/><text fill="#FFFFFF" font-family="sans-serif" font-size="14" font-style="italic" lengthAdjust="spacing" textLength="82.9951" x="297.5" y="87.3467">Countable *</text><line style="stroke:#E7E7E7;stroke-width:0.5;" x1="269.5" x2="382.4951" y1="98.5" y2="98.5"/><line style="stroke:#E7E7E7;stroke-width:0.5;" x1="269.5" x2="382.4951" y1="106.5" y2="106.5"/><ellipse cx="279.5" cy="120.1484" fill="#84BE84" rx="3" ry="3" style="stroke:#038048;stroke-width:1.0;"/><text fill="#FFFFFF" font-family="sans-serif" font-size="14" lengthAdjust="spacing" textLength="50.4219" x="288.5" y="123.4951">count()</text></g><!--class IteratorAggregate--><g id="elem_IteratorAggregate"><rect codeLine="16" fill="#313139" height="64.2969" id="IteratorAggregate" rx="2.5" ry="2.5" style="stroke:#E7E7E7;stroke-width:0.5;" width="169.1152" x="418.5" y="66.5"/><ellipse cx="433.5" cy="82.5" fill="#352866" rx="11" ry="11" style="stroke:#E7E7E7;stroke-width:1.0;"/><path d="M429.4219,78.2656 L429.4219,76.1094 L436.8125,76.1094 L436.8125,78.2656 L434.3438,78.2656 L434.3438,86.3438 L436.8125,86.3438 L436.8125,88.5 L429.4219,88.5 L429.4219,86.3438 L431.8906,86.3438 L431.8906,78.2656 L429.4219,78.2656 Z " fill="#FFFFFF"/><text fill="#FFFFFF" font-family="sans-serif" font-size="14" font-style="italic" lengthAdjust="spacing" textLength="137.1152" x="447.5" y="87.3467">IteratorAggregate *</text><line style="stroke:#E7E7E7;stroke-width:0.5;" x1="419.5" x2="586.6152" y1="98.5" y2="98.5"/><line style="stroke:#E7E7E7;stroke-width:0.5;" x1="419.5" x2="586.6152" y1="106.5" y2="106.5"/><ellipse cx="429.5" cy="120.1484" fill="#84BE84" rx="3" ry="3" style="stroke:#038048;stroke-width:1.0;"/><text fill="#FFFFFF" font-family="sans-serif" font-size="14" lengthAdjust="spacing" textLength="86.29" x="438.5" y="123.4951">getIterator()</text></g><!--class ReadableCollection--><g id="elem_ReadableCollection"><rect codeLine="22" fill="#313139" height="390.2344" id="ReadableCollection" rx="2.5" ry="2.5" style="stroke:#E7E7E7;stroke-width:0.5;" width="240.5938" x="273.5" y="276"/><ellipse cx="316.4541" cy="292" fill="#352866" rx="11" ry="11" style="stroke:#E7E7E7;stroke-width:1.0;"/><path d="M312.3759,287.7656 L312.3759,285.6094 L319.7666,285.6094 L319.7666,287.7656 L317.2978,287.7656 L317.2978,295.8438 L319.7666,295.8438 L319.7666,298 L312.3759,298 L312.3759,295.8438 L314.8447,295.8438 L314.8447,287.7656 L312.3759,287.7656 Z " fill="#FFFFFF"/><text fill="#FFFFFF" font-family="sans-serif" font-size="14" font-style="italic" lengthAdjust="spacing" textLength="146.4736" x="336.6661" y="296.8467">ReadableCollection *</text><line style="stroke:#E7E7E7;stroke-width:0.5;" x1="274.5" x2="513.0938" y1="308" y2="308"/><line style="stroke:#E7E7E7;stroke-width:0.5;" x1="274.5" x2="513.0938" y1="316" y2="316"/><ellipse cx="284.5" cy="329.6484" fill="#84BE84" rx="3" ry="3" style="stroke:#038048;stroke-width:1.0;"/><text fill="#FFFFFF" font-family="sans-serif" font-size="14" lengthAdjust="spacing" textLength="136.8213" x="293.5" y="332.9951">contains($element)</text><ellipse cx="284.5" cy="345.9453" fill="#84BE84" rx="3" ry="3" style="stroke:#038048;stroke-width:1.0;"/><text fill="#FFFFFF" font-family="sans-serif" font-size="14" lengthAdjust="spacing" textLength="67.252" x="293.5" y="349.292">isEmpty()</text><ellipse cx="284.5" cy="362.2422" fill="#84BE84" rx="3" ry="3" style="stroke:#038048;stroke-width:1.0;"/><text fill="#FFFFFF" font-family="sans-serif" font-size="14" lengthAdjust="spacing" textLength="130.1768" x="293.5" y="365.5889">containsKey($key)</text><ellipse cx="284.5" cy="378.5391" fill="#84BE84" rx="3" ry="3" style="stroke:#038048;stroke-width:1.0;"/><text fill="#FFFFFF" font-family="sans-serif" font-size="14" lengthAdjust="spacing" textLength="67.8262" x="293.5" y="381.8857">get($key)</text><ellipse cx="284.5" cy="394.8359" fill="#84BE84" rx="3" ry="3" style="stroke:#038048;stroke-width:1.0;"/><text fill="#FFFFFF" font-family="sans-serif" font-size="14" lengthAdjust="spacing" textLength="67.2861" x="293.5" y="398.1826">getKeys()</text><ellipse cx="284.5" cy="411.1328" fill="#84BE84" rx="3" ry="3" style="stroke:#038048;stroke-width:1.0;"/><text fill="#FFFFFF" font-family="sans-serif" font-size="14" lengthAdjust="spacing" textLength="80.7393" x="293.5" y="414.4795">getValues()</text><ellipse cx="284.5" cy="427.4297" fill="#84BE84" rx="3" ry="3" style="stroke:#038048;stroke-width:1.0;"/><text fill="#FFFFFF" font-family="sans-serif" font-size="14" lengthAdjust="spacing" textLength="62.9316" x="293.5" y="430.7764">toArray()</text><ellipse cx="284.5" cy="443.7266" fill="#84BE84" rx="3" ry="3" style="stroke:#038048;stroke-width:1.0;"/><text fill="#FFFFFF" font-family="sans-serif" font-size="14" lengthAdjust="spacing" textLength="38.2813" x="293.5" y="447.0732">first()</text><ellipse cx="284.5" cy="460.0234" fill="#84BE84" rx="3" ry="3" style="stroke:#038048;stroke-width:1.0;"/><text fill="#FFFFFF" font-family="sans-serif" font-size="14" lengthAdjust="spacing" textLength="36.1758" x="293.5" y="463.3701">last()</text><ellipse cx="284.5" cy="476.3203" fill="#84BE84" rx="3" ry="3" style="stroke:#038048;stroke-width:1.0;"/><text fill="#FFFFFF" font-family="sans-serif" font-size="14" lengthAdjust="spacing" textLength="35.9297" x="293.5" y="479.667">key()</text><ellipse cx="284.5" cy="492.6172" fill="#84BE84" rx="3" ry="3" style="stroke:#038048;stroke-width:1.0;"/><text fill="#FFFFFF" font-family="sans-serif" font-size="14" lengthAdjust="spacing" textLength="61.9814" x="293.5" y="495.9639">current()</text><ellipse cx="284.5" cy="508.9141" fill="#84BE84" rx="3" ry="3" style="stroke:#038048;stroke-width:1.0;"/><text fill="#FFFFFF" font-family="sans-serif" font-size="14" lengthAdjust="spacing" textLength="42.1846" x="293.5" y="512.2607">next()</text><ellipse cx="284.5" cy="525.2109" fill="#84BE84" rx="3" ry="3" style="stroke:#038048;stroke-width:1.0;"/><text fill="#FFFFFF" font-family="sans-serif" font-size="14" lengthAdjust="spacing" textLength="153.4668" x="293.5" y="528.5576">slice($offset, $length)</text><ellipse cx="284.5" cy="541.5078" fill="#84BE84" rx="3" ry="3" style="stroke:#038048;stroke-width:1.0;"/><text fill="#FFFFFF" font-family="sans-serif" font-size="14" lengthAdjust="spacing" textLength="104.5557" x="293.5" y="544.8545">exists(Closure)</text><ellipse cx="284.5" cy="557.8047" fill="#84BE84" rx="3" ry="3" style="stroke:#038048;stroke-width:1.0;"/><text fill="#FFFFFF" font-family="sans-serif" font-size="14" lengthAdjust="spacing" textLength="96.2568" x="293.5" y="561.1514">filter(Closure)</text><ellipse cx="284.5" cy="574.1016" fill="#84BE84" rx="3" ry="3" style="stroke:#038048;stroke-width:1.0;"/><text fill="#FFFFFF" font-family="sans-serif" font-size="14" lengthAdjust="spacing" textLength="94.7939" x="293.5" y="577.4482">map(Closure)</text><ellipse cx="284.5" cy="590.3984" fill="#84BE84" rx="3" ry="3" style="stroke:#038048;stroke-width:1.0;"/><text fill="#FFFFFF" font-family="sans-serif" font-size="14" lengthAdjust="spacing" textLength="123.1084" x="293.5" y="593.7451">partition(Closure)</text><ellipse cx="284.5" cy="606.6953" fill="#84BE84" rx="3" ry="3" style="stroke:#038048;stroke-width:1.0;"/><text fill="#FFFFFF" font-family="sans-serif" font-size="14" lengthAdjust="spacing" textLength="100.2969" x="293.5" y="610.042">forAll(Closure)</text><ellipse cx="284.5" cy="622.9922" fill="#84BE84" rx="3" ry="3" style="stroke:#038048;stroke-width:1.0;"/><text fill="#FFFFFF" font-family="sans-serif" font-size="14" lengthAdjust="spacing" textLength="132.0566" x="293.5" y="626.3389">indexOf($element)</text><ellipse cx="284.5" cy="639.2891" fill="#84BE84" rx="3" ry="3" style="stroke:#038048;stroke-width:1.0;"/><text fill="#FFFFFF" font-family="sans-serif" font-size="14" lengthAdjust="spacing" textLength="120.75" x="293.5" y="642.6357">findFirst(Closure)</text><ellipse cx="284.5" cy="655.5859" fill="#84BE84" rx="3" ry="3" style="stroke:#038048;stroke-width:1.0;"/><text fill="#FFFFFF" font-family="sans-serif" font-size="14" lengthAdjust="spacing" textLength="214.5938" x="293.5" y="658.9326">reduce(Closure, $initial = null)</text></g><!--class Collection--><g id="elem_Collection"><rect codeLine="49" fill="#313139" height="178.375" id="Collection" rx="2.5" ry="2.5" style="stroke:#E7E7E7;stroke-width:0.5;" width="214.9932" x="23.5" y="382"/><ellipse cx="86.3975" cy="398" fill="#352866" rx="11" ry="11" style="stroke:#E7E7E7;stroke-width:1.0;"/><path d="M82.3193,393.7656 L82.3193,391.6094 L89.71,391.6094 L89.71,393.7656 L87.2412,393.7656 L87.2412,401.8438 L89.71,401.8438 L89.71,404 L82.3193,404 L82.3193,401.8438 L84.7881,401.8438 L84.7881,393.7656 L82.3193,393.7656 Z " fill="#FFFFFF"/><text fill="#FFFFFF" font-family="sans-serif" font-size="14" font-style="italic" lengthAdjust="spacing" textLength="80.6982" x="106.8975" y="402.8467">Collection *</text><line style="stroke:#E7E7E7;stroke-width:0.5;" x1="24.5" x2="237.4932" y1="414" y2="414"/><line style="stroke:#E7E7E7;stroke-width:0.5;" x1="24.5" x2="237.4932" y1="422" y2="422"/><ellipse cx="34.5" cy="435.6484" fill="#84BE84" rx="3" ry="3" style="stroke:#038048;stroke-width:1.0;"/><text fill="#FFFFFF" font-family="sans-serif" font-size="14" lengthAdjust="spacing" textLength="103.9131" x="43.5" y="438.9951">add($element)</text><ellipse cx="34.5" cy="451.9453" fill="#84BE84" rx="3" ry="3" style="stroke:#038048;stroke-width:1.0;"/><text fill="#FFFFFF" font-family="sans-serif" font-size="14" lengthAdjust="spacing" textLength="45.459" x="43.5" y="455.292">clear()</text><ellipse cx="34.5" cy="468.2422" fill="#84BE84" rx="3" ry="3" style="stroke:#038048;stroke-width:1.0;"/><text fill="#FFFFFF" font-family="sans-serif" font-size="14" lengthAdjust="spacing" textLength="98.3076" x="43.5" y="471.5889">remove($key)</text><ellipse cx="34.5" cy="484.5391" fill="#84BE84" rx="3" ry="3" style="stroke:#038048;stroke-width:1.0;"/><text fill="#FFFFFF" font-family="sans-serif" font-size="14" lengthAdjust="spacing" textLength="188.9932" x="43.5" y="487.8857">removeElement($element)</text><ellipse cx="34.5" cy="500.8359" fill="#84BE84" rx="3" ry="3" style="stroke:#038048;stroke-width:1.0;"/><text fill="#FFFFFF" font-family="sans-serif" font-size="14" lengthAdjust="spacing" textLength="122.2813" x="43.5" y="504.1826">set($key, $value)</text><ellipse cx="34.5" cy="517.1328" fill="#84BE84" rx="3" ry="3" style="stroke:#038048;stroke-width:1.0;"/><text fill="#FFFFFF" font-family="sans-serif" font-size="14" lengthAdjust="spacing" textLength="94.7939" x="43.5" y="520.4795">map(Closure)</text><ellipse cx="34.5" cy="533.4297" fill="#84BE84" rx="3" ry="3" style="stroke:#038048;stroke-width:1.0;"/><text fill="#FFFFFF" font-family="sans-serif" font-size="14" lengthAdjust="spacing" textLength="96.2568" x="43.5" y="536.7764">filter(Closure)</text><ellipse cx="34.5" cy="549.7266" fill="#84BE84" rx="3" ry="3" style="stroke:#038048;stroke-width:1.0;"/><text fill="#FFFFFF" font-family="sans-serif" font-size="14" lengthAdjust="spacing" textLength="123.1084" x="43.5" y="553.0732">partition(Closure)</text></g><!--class Selectable--><g id="elem_Selectable"><rect codeLine="64" fill="#313139" height="64.2969" id="Selectable" rx="2.5" ry="2.5" style="stroke:#E7E7E7;stroke-width:0.5;" width="154.5977" x="549.5" y="439"/><ellipse cx="581.5952" cy="455" fill="#352866" rx="11" ry="11" style="stroke:#E7E7E7;stroke-width:1.0;"/><path d="M577.517,450.7656 L577.517,448.6094 L584.9077,448.6094 L584.9077,450.7656 L582.4389,450.7656 L582.4389,458.8438 L584.9077,458.8438 L584.9077,461 L577.517,461 L577.517,458.8438 L579.9858,458.8438 L579.9858,450.7656 L577.517,450.7656 Z " fill="#FFFFFF"/><text fill="#FFFFFF" font-family="sans-serif" font-size="14" font-style="italic" lengthAdjust="spacing" textLength="84.6084" x="599.3941" y="459.8467">Selectable *</text><line style="stroke:#E7E7E7;stroke-width:0.5;" x1="550.5" x2="703.0977" y1="471" y2="471"/><line style="stroke:#E7E7E7;stroke-width:0.5;" x1="550.5" x2="703.0977" y1="479" y2="479"/><ellipse cx="560.5" cy="492.6484" fill="#84BE84" rx="3" ry="3" style="stroke:#038048;stroke-width:1.0;"/><text fill="#FFFFFF" font-family="sans-serif" font-size="14" lengthAdjust="spacing" textLength="128.5977" x="569.5" y="495.9951">matching(Criteria)</text></g><!--class ArrayCollection--><g id="elem_ArrayCollection"><rect codeLine="68" fill="#313139" height="48" id="ArrayCollection" rx="2.5" ry="2.5" style="stroke:#E7E7E7;stroke-width:0.5;" width="139.2012" x="363.5" y="787"/><ellipse cx="378.5" cy="803" fill="#2E5233" rx="11" ry="11" style="stroke:#E7E7E7;stroke-width:1.0;"/><path d="M381.4688,808.6406 Q380.8906,808.9375 380.25,809.0781 Q379.6094,809.2344 378.9063,809.2344 Q376.4063,809.2344 375.0781,807.5938 Q373.7656,805.9375 373.7656,802.8125 Q373.7656,799.6875 375.0781,798.0313 Q376.4063,796.375 378.9063,796.375 Q379.6094,796.375 380.25,796.5313 Q380.9063,796.6875 381.4688,796.9844 L381.4688,799.7031 Q380.8438,799.125 380.25,798.8594 Q379.6563,798.5781 379.0313,798.5781 Q377.6875,798.5781 377,799.6563 Q376.3125,800.7188 376.3125,802.8125 Q376.3125,804.9063 377,805.9844 Q377.6875,807.0469 379.0313,807.0469 Q379.6563,807.0469 380.25,806.7813 Q380.8438,806.5 381.4688,805.9219 L381.4688,808.6406 Z " fill="#FFFFFF"/><text fill="#FFFFFF" font-family="sans-serif" font-size="14" lengthAdjust="spacing" textLength="107.2012" x="392.5" y="807.8467">ArrayCollection</text><line style="stroke:#E7E7E7;stroke-width:0.5;" x1="364.5" x2="501.7012" y1="819" y2="819"/><line style="stroke:#E7E7E7;stroke-width:0.5;" x1="364.5" x2="501.7012" y1="827" y2="827"/></g><!--class AbstractLazyCollection--><g id="elem_AbstractLazyCollection"><rect codeLine="71" fill="#313139" height="48" id="AbstractLazyCollection" rx="2.5" ry="2.5" style="stroke:#E7E7E7;stroke-width:0.5;" width="192.0293" x="136" y="787"/><ellipse cx="151" cy="803" fill="#2A5D60" rx="11" ry="11" style="stroke:#E7E7E7;stroke-width:1.0;"/><path d="M151.1094,798.3438 L149.9531,803.4219 L152.2813,803.4219 L151.1094,798.3438 Z M149.625,796.1094 L152.6094,796.1094 L155.9688,808.5 L153.5156,808.5 L152.75,805.4375 L149.4688,805.4375 L148.7188,808.5 L146.2813,808.5 L149.625,796.1094 Z " fill="#FFFFFF"/><text fill="#FFFFFF" font-family="sans-serif" font-size="14" font-style="italic" lengthAdjust="spacing" textLength="160.0293" x="165" y="807.8467">AbstractLazyCollection</text><line style="stroke:#E7E7E7;stroke-width:0.5;" x1="137" x2="327.0293" y1="819" y2="819"/><line style="stroke:#E7E7E7;stroke-width:0.5;" x1="137" x2="327.0293" y1="827" y2="827"/></g><!--class LazyCriteriaCollection--><g id="elem_LazyCriteriaCollection"><rect codeLine="81" fill="#313139" height="48" id="LazyCriteriaCollection" rx="2.5" ry="2.5" style="stroke:#E7E7E7;stroke-width:0.5;" width="185.0088" x="317.5" y="956"/><ellipse cx="332.5" cy="972" fill="#2E5233" rx="11" ry="11" style="stroke:#E7E7E7;stroke-width:1.0;"/><path d="M335.4688,977.6406 Q334.8906,977.9375 334.25,978.0781 Q333.6094,978.2344 332.9063,978.2344 Q330.4063,978.2344 329.0781,976.5938 Q327.7656,974.9375 327.7656,971.8125 Q327.7656,968.6875 329.0781,967.0313 Q330.4063,965.375 332.9063,965.375 Q333.6094,965.375 334.25,965.5313 Q334.9063,965.6875 335.4688,965.9844 L335.4688,968.7031 Q334.8438,968.125 334.25,967.8594 Q333.6563,967.5781 333.0313,967.5781 Q331.6875,967.5781 331,968.6563 Q330.3125,969.7188 330.3125,971.8125 Q330.3125,973.9063 331,974.9844 Q331.6875,976.0469 333.0313,976.0469 Q333.6563,976.0469 334.25,975.7813 Q334.8438,975.5 335.4688,974.9219 L335.4688,977.6406 Z " fill="#FFFFFF"/><text fill="#FFFFFF" font-family="sans-serif" font-size="14" lengthAdjust="spacing" textLength="153.0088" x="346.5" y="976.8467">LazyCriteriaCollection</text><line style="stroke:#E7E7E7;stroke-width:0.5;" x1="318.5" x2="501.5088" y1="988" y2="988"/><line style="stroke:#E7E7E7;stroke-width:0.5;" x1="318.5" x2="501.5088" y1="996" y2="996"/></g><!--class PersistentCollection--><g id="elem_PersistentCollection"><rect codeLine="84" fill="#313139" height="48" id="PersistentCollection" rx="2.5" ry="2.5" style="stroke:#E7E7E7;stroke-width:0.5;" width="171.002" x="537.5" y="956"/><ellipse cx="552.5" cy="972" fill="#2E5233" rx="11" ry="11" style="stroke:#E7E7E7;stroke-width:1.0;"/><path d="M555.4688,977.6406 Q554.8906,977.9375 554.25,978.0781 Q553.6094,978.2344 552.9063,978.2344 Q550.4063,978.2344 549.0781,976.5938 Q547.7656,974.9375 547.7656,971.8125 Q547.7656,968.6875 549.0781,967.0313 Q550.4063,965.375 552.9063,965.375 Q553.6094,965.375 554.25,965.5313 Q554.9063,965.6875 555.4688,965.9844 L555.4688,968.7031 Q554.8438,968.125 554.25,967.8594 Q553.6563,967.5781 553.0313,967.5781 Q551.6875,967.5781 551,968.6563 Q550.3125,969.7188 550.3125,971.8125 Q550.3125,973.9063 551,974.9844 Q551.6875,976.0469 553.0313,976.0469 Q553.6563,976.0469 554.25,975.7813 Q554.8438,975.5 555.4688,974.9219 L555.4688,977.6406 Z " fill="#FFFFFF"/><text fill="#FFFFFF" font-family="sans-serif" font-size="14" lengthAdjust="spacing" textLength="139.002" x="566.5" y="976.8467">PersistentCollection</text><line style="stroke:#E7E7E7;stroke-width:0.5;" x1="538.5" x2="707.502" y1="988" y2="988"/><line style="stroke:#E7E7E7;stroke-width:0.5;" x1="538.5" x2="707.502" y1="996" y2="996"/></g><!--reverse link Countable to ReadableCollection--><g id="link_Countable_ReadableCollection"><path codeLine="46" d="M334.9872,148.4747 C341.0672,181.6247 347.97,219.18 358.32,275.58 " fill="none" id="Countable-backto-ReadableCollection" style="stroke:#E7E7E7;stroke-width:1.0;"/><polygon fill="none" points="331.74,130.77,329.0856,149.5571,340.8888,147.3923,331.74,130.77" style="stroke:#E7E7E7;stroke-width:1.0;"/></g><!--reverse link IteratorAggregate to ReadableCollection--><g id="link_IteratorAggregate_ReadableCollection"><path codeLine="47" d="M488.721,148.0386 C478.971,181.1886 467.79,219.18 451.2,275.58 " fill="none" id="IteratorAggregate-backto-ReadableCollection" style="stroke:#E7E7E7;stroke-width:1.0;"/><polygon fill="none" points="493.8,130.77,482.9648,146.3456,494.4772,149.7316,493.8,130.77" style="stroke:#E7E7E7;stroke-width:1.0;"/></g><!--reverse link ArrayAccess to Collection--><g id="link_ArrayAccess_Collection"><path codeLine="60" d="M131,173.37 C131,233.41 131,311.66 131,381.91 " fill="none" id="ArrayAccess-backto-Collection" style="stroke:#E7E7E7;stroke-width:1.0;"/><polygon fill="none" points="131,155.37,125,173.37,137,173.37,131,155.37" style="stroke:#E7E7E7;stroke-width:1.0;"/></g><!--reverse link ReadableCollection to Collection--><g id="link_ReadableCollection_Collection"><path codeLine="62" d="M255.21,471 C243.68,471 250.15,471 238.61,471 " fill="none" id="ReadableCollection-backto-Collection" style="stroke:#E7E7E7;stroke-width:1.0;"/><polygon fill="none" points="273.21,471,255.21,465,255.21,477,273.21,471" style="stroke:#E7E7E7;stroke-width:1.0;"/></g><!--reverse link Collection to ArrayCollection--><g id="link_Collection_ArrayCollection"><path codeLine="74" d="M189.0584,575.5538 C210.2584,610.2838 227.41,634.06 256,666 C299.59,714.7 360.52,760.44 398.33,786.81 " fill="none" id="Collection-backto-ArrayCollection" style="stroke:#E7E7E7;stroke-width:1.0;stroke-dasharray:7.0,7.0;"/><polygon fill="none" points="179.68,560.19,183.9371,578.6799,194.1797,572.4276,179.68,560.19" style="stroke:#E7E7E7;stroke-width:1.0;"/></g><!--reverse link Selectable to ArrayCollection--><g id="link_Selectable_ArrayCollection"><path codeLine="75" d="M606.0744,519.7563 C588.7444,558.7163 564.45,610.47 532,666 C506.13,710.27 471.27,758.84 450.57,786.75 " fill="none" id="Selectable-backto-ArrayCollection" style="stroke:#E7E7E7;stroke-width:1.0;stroke-dasharray:7.0,7.0;"/><polygon fill="none" points="613.39,503.31,600.5923,517.3178,611.5565,522.1949,613.39,503.31" style="stroke:#E7E7E7;stroke-width:1.0;"/></g><!--reverse link Collection to AbstractLazyCollection--><g id="link_Collection_AbstractLazyCollection"><path codeLine="77" d="M162.5542,577.6063 C185.2942,653.6963 211.39,741.02 225.09,786.87 " fill="none" id="Collection-backto-AbstractLazyCollection" style="stroke:#E7E7E7;stroke-width:1.0;stroke-dasharray:7.0,7.0;"/><polygon fill="none" points="157.4,560.36,156.8054,579.3243,168.3029,575.8882,157.4,560.36" style="stroke:#E7E7E7;stroke-width:1.0;"/></g><!--reverse link AbstractLazyCollection to PersistentCollection--><g id="link_AbstractLazyCollection_PersistentCollection"><path codeLine="88" d="M301.5774,841.9422 C320.6674,849.9222 325.86,851.74 346,859 C422.17,886.46 446.58,878.85 520,913 C545.42,924.82 572.01,942 591.8,955.87 " fill="none" id="AbstractLazyCollection-backto-PersistentCollection" style="stroke:#E7E7E7;stroke-width:1.0;"/><polygon fill="none" points="284.97,835,299.2633,847.478,303.8915,836.4064,284.97,835" style="stroke:#E7E7E7;stroke-width:1.0;"/></g><!--reverse link Selectable to PersistentCollection--><g id="link_Selectable_PersistentCollection"><path codeLine="89" d="M626.6078,521.3294 C625.8678,615.0294 623.83,873.66 623.18,955.77 " fill="none" id="Selectable-backto-PersistentCollection" style="stroke:#E7E7E7;stroke-width:1.0;stroke-dasharray:7.0,7.0;"/><polygon fill="none" points="626.75,503.33,620.608,521.2821,632.6077,521.3768,626.75,503.33" style="stroke:#E7E7E7;stroke-width:1.0;"/></g><!--reverse link AbstractLazyCollection to LazyCriteriaCollection--><g id="link_AbstractLazyCollection_LazyCriteriaCollection"><path codeLine="91" d="M269.8767,847.5362 C303.8867,879.4462 351.56,924.17 385.46,955.98 " fill="none" id="AbstractLazyCollection-backto-LazyCriteriaCollection" style="stroke:#E7E7E7;stroke-width:1.0;"/><polygon fill="none" points="256.75,835.22,265.7713,851.9118,273.9821,843.1606,256.75,835.22" style="stroke:#E7E7E7;stroke-width:1.0;"/></g><!--reverse link Selectable to LazyCriteriaCollection--><g id="link_Selectable_LazyCriteriaCollection"><path codeLine="92" d="M621.087,521.0695 C612.197,589.3795 587.13,737.81 520,859 C498.77,897.32 462.93,933.23 437.94,955.6 " fill="none" id="Selectable-backto-LazyCriteriaCollection" style="stroke:#E7E7E7;stroke-width:1.0;stroke-dasharray:7.0,7.0;"/><polygon fill="none" points="623.41,503.22,615.1372,520.2952,627.0369,521.8438,623.41,503.22" style="stroke:#E7E7E7;stroke-width:1.0;"/></g><!--SRC=[XLJBhjCm4DtdAwogYnHe-G5OL5L122GG5UnTPv9QTUp8TgvQBlrt9e-sTZ8MMMLcZkTnvjZkB7N3BQ-L4MSes96BSsLDgukTKSOoRxbs203jiypTmQn16A_WuAyAc0NXkQuKPDdePysfOQyPmqzg3xRa0jZMMdxT2W7ECUxO8hJVB4PuzxqrPUd0xo_IUPSl1sir3Ny6dumTdh5tRFd2LGipp2_jfXbksQJb7HBX-H5dx1f-Md6xelFdYHHVy8TxOxTLPQ7YVaWrzyOfA_1to2FnxKdleZ32MwdXlJ1A8VtIQBUOCVuJUD7rktk0-kA4UpeGpYarSWyAQbnzG9vq-xhnrtmrXt-5QxuymtKLpK6u4EZosFMxsr7azAONIEWgfNK-T2WUsrWfQgordN13buPBP3ib1GHQKQ0hVme0CAXmfunhBKJDAEIP2DIy8RnuRxpikAPIeH2K8W9I5t3vNb9xA37sgUTZVin2qU9KOm2daXfBSyK-Cjqg5IdrAUeFVzThGZ8zQgxN57fsWoBf9IN7YuAQKYZWDez6gyqBJ3KrUFV3SIgF6tL8l0RqkfBRJUnnP3Dyqpg6rcnA3N7v4CZI31wW2pmUeS2C6Qov5oUfgtnd9PwLF6fCu5LnGtj1vTSGmeyENtlXsNRy-SR_9C5H-vlDPfgw1mMzqg14Ah8-_VuPMzzP64Ri3uqCf9eVa3_0EhpRA1GADwoJPcBOB7MU7fj4_hy0FGfT8e6zPVy0]--></g></svg>