<svg xmlns="http://www.w3.org/2000/svg" xmlns:xlink="http://www.w3.org/1999/xlink" contentStyleType="text/css" height="472px" preserveAspectRatio="none" style="width:490px;height:472px;" version="1.1" viewBox="0 0 490 472" width="490px" zoomAndPan="magnify"><defs/><g><!--cluster rekalogika/rekapager-contracts--><g id="cluster_rekalogika/rekapager-contracts"><rect fill="none" height="242" rx="2.5" ry="2.5" style="stroke:#FFFFFF;stroke-width:1.5;" width="298" x="19" y="7"/><text fill="#FFFFFF" font-family="sans-serif" font-size="18" lengthAdjust="spacing" textLength="282.8057" x="26.5972" y="25.708">rekalogika/rekapager-contracts</text></g><!--cluster rekalogika/collections-contracts--><g id="cluster_rekalogika/collections-contracts"><rect fill="none" height="193" rx="2.5" ry="2.5" style="stroke:#FFFFFF;stroke-width:1.5;" width="477" x="7" y="273"/><text fill="#FFFFFF" font-family="sans-serif" font-size="18" lengthAdjust="spacing" textLength="286.2598" x="102.3701" y="291.708">rekalogika/collections-contracts</text></g><!--class PageableInterface--><g id="elem_PageableInterface"><rect codeLine="15" fill="#313139" height="186.6719" id="PageableInterface" rx="2.5" ry="2.5" style="stroke:#E7E7E7;stroke-width:0.5;" width="190.4453" x="47" y="46"/><ellipse cx="76.0744" cy="62" fill="#352866" rx="11" ry="11" style="stroke:#E7E7E7;stroke-width:1.0;"/><path d="M71.9962,57.7656 L71.9962,55.6094 L79.3869,55.6094 L79.3869,57.7656 L76.9181,57.7656 L76.9181,65.8438 L79.3869,65.8438 L79.3869,68 L71.9962,68 L71.9962,65.8438 L74.465,65.8438 L74.465,57.7656 L71.9962,57.7656 Z " fill="#FFFFFF"/><text fill="#FFFFFF" font-family="sans-serif" font-size="14" font-style="italic" lengthAdjust="spacing" textLength="127.1689" x="93.202" y="66.8467">PageableInterface</text><line style="stroke:#E7E7E7;stroke-width:0.5;" x1="48" x2="236.4453" y1="78" y2="78"/><ellipse cx="58" cy="91.6484" fill="#84BE84" rx="3" ry="3" style="stroke:#038048;stroke-width:1.0;"/><text fill="#FFFFFF" font-family="sans-serif" font-size="14" lengthAdjust="spacing" textLength="149.3926" x="67" y="94.9951">getPageByIdentifier()</text><ellipse cx="58" cy="107.9453" fill="#84BE84" rx="3" ry="3" style="stroke:#038048;stroke-width:1.0;"/><text fill="#FFFFFF" font-family="sans-serif" font-size="14" lengthAdjust="spacing" textLength="164.4453" x="67" y="111.292">getPageIdentiferClass()</text><ellipse cx="58" cy="124.2422" fill="#84BE84" rx="3" ry="3" style="stroke:#038048;stroke-width:1.0;"/><text fill="#FFFFFF" font-family="sans-serif" font-size="14" lengthAdjust="spacing" textLength="98.916" x="67" y="127.5889">getFirstPage()</text><ellipse cx="58" cy="140.5391" fill="#84BE84" rx="3" ry="3" style="stroke:#038048;stroke-width:1.0;"/><text fill="#FFFFFF" font-family="sans-serif" font-size="14" lengthAdjust="spacing" textLength="97.5967" x="67" y="143.8857">getLastPage()</text><ellipse cx="58" cy="156.8359" fill="#84BE84" rx="3" ry="3" style="stroke:#038048;stroke-width:1.0;"/><text fill="#FFFFFF" font-family="sans-serif" font-size="14" lengthAdjust="spacing" textLength="117.2432" x="67" y="160.1826">getPages($start)</text><ellipse cx="58" cy="173.1328" fill="#84BE84" rx="3" ry="3" style="stroke:#038048;stroke-width:1.0;"/><text fill="#FFFFFF" font-family="sans-serif" font-size="14" lengthAdjust="spacing" textLength="130.4092" x="67" y="176.4795">getItemsPerPage()</text><ellipse cx="58" cy="189.4297" fill="#84BE84" rx="3" ry="3" style="stroke:#038048;stroke-width:1.0;"/><text fill="#FFFFFF" font-family="sans-serif" font-size="14" lengthAdjust="spacing" textLength="137.1221" x="67" y="192.7764">withItemsPerPage()</text><ellipse cx="58" cy="205.7266" fill="#84BE84" rx="3" ry="3" style="stroke:#038048;stroke-width:1.0;"/><text fill="#FFFFFF" font-family="sans-serif" font-size="14" lengthAdjust="spacing" textLength="110.8037" x="67" y="209.0732">getTotalPages()</text><ellipse cx="58" cy="222.0234" fill="#84BE84" rx="3" ry="3" style="stroke:#038048;stroke-width:1.0;"/><text fill="#FFFFFF" font-family="sans-serif" font-size="14" lengthAdjust="spacing" textLength="108.1514" x="67" y="225.3701">getTotalItems()</text></g><!--class MinimalReadableRecollection--><g id="elem_MinimalReadableRecollection"><rect codeLine="29" fill="#313139" height="137.7813" id="MinimalReadableRecollection" rx="2.5" ry="2.5" style="stroke:#E7E7E7;stroke-width:0.5;" width="238.124" x="23" y="312"/><ellipse cx="38" cy="328" fill="#352866" rx="11" ry="11" style="stroke:#E7E7E7;stroke-width:1.0;"/><path d="M33.9219,323.7656 L33.9219,321.6094 L41.3125,321.6094 L41.3125,323.7656 L38.8438,323.7656 L38.8438,331.8438 L41.3125,331.8438 L41.3125,334 L33.9219,334 L33.9219,331.8438 L36.3906,331.8438 L36.3906,323.7656 L33.9219,323.7656 Z " fill="#FFFFFF"/><text fill="#FFFFFF" font-family="sans-serif" font-size="14" font-style="italic" lengthAdjust="spacing" textLength="206.124" x="52" y="332.8467">MinimalReadableRecollection</text><line style="stroke:#E7E7E7;stroke-width:0.5;" x1="24" x2="260.124" y1="344" y2="344"/><ellipse cx="34" cy="357.6484" fill="#84BE84" rx="3" ry="3" style="stroke:#038048;stroke-width:1.0;"/><text fill="#FFFFFF" font-family="sans-serif" font-size="14" lengthAdjust="spacing" textLength="136.8213" x="43" y="360.9951">contains($element)</text><ellipse cx="34" cy="373.9453" fill="#84BE84" rx="3" ry="3" style="stroke:#038048;stroke-width:1.0;"/><text fill="#FFFFFF" font-family="sans-serif" font-size="14" lengthAdjust="spacing" textLength="130.1768" x="43" y="377.292">containsKey($key)</text><ellipse cx="34" cy="390.2422" fill="#84BE84" rx="3" ry="3" style="stroke:#038048;stroke-width:1.0;"/><text fill="#FFFFFF" font-family="sans-serif" font-size="14" lengthAdjust="spacing" textLength="67.8262" x="43" y="393.5889">get($key)</text><ellipse cx="34" cy="406.5391" fill="#84BE84" rx="3" ry="3" style="stroke:#038048;stroke-width:1.0;"/><text fill="#FFFFFF" font-family="sans-serif" font-size="14" lengthAdjust="spacing" textLength="80.4385" x="43" y="409.8857">fetch($key)</text><ellipse cx="34" cy="422.8359" fill="#84BE84" rx="3" ry="3" style="stroke:#038048;stroke-width:1.0;"/><text fill="#FFFFFF" font-family="sans-serif" font-size="14" lengthAdjust="spacing" textLength="71.415" x="43" y="426.1826">find($key)</text><ellipse cx="34" cy="439.1328" fill="#84BE84" rx="3" ry="3" style="stroke:#038048;stroke-width:1.0;"/><text fill="#FFFFFF" font-family="sans-serif" font-size="14" lengthAdjust="spacing" textLength="102.334" x="43" y="442.4795">refreshCount()</text></g><!--class MinimalRecollection--><g id="elem_MinimalRecollection"><rect codeLine="40" fill="#313139" height="56.2969" id="MinimalRecollection" rx="2.5" ry="2.5" style="stroke:#E7E7E7;stroke-width:0.5;" width="172.3486" x="296" y="353"/><ellipse cx="311" cy="369" fill="#352866" rx="11" ry="11" style="stroke:#E7E7E7;stroke-width:1.0;"/><path d="M306.9219,364.7656 L306.9219,362.6094 L314.3125,362.6094 L314.3125,364.7656 L311.8438,364.7656 L311.8438,372.8438 L314.3125,372.8438 L314.3125,375 L306.9219,375 L306.9219,372.8438 L309.3906,372.8438 L309.3906,364.7656 L306.9219,364.7656 Z " fill="#FFFFFF"/><text fill="#FFFFFF" font-family="sans-serif" font-size="14" font-style="italic" lengthAdjust="spacing" textLength="140.3486" x="325" y="373.8467">MinimalRecollection</text><line style="stroke:#E7E7E7;stroke-width:0.5;" x1="297" x2="467.3486" y1="385" y2="385"/><ellipse cx="307" cy="398.6484" fill="#84BE84" rx="3" ry="3" style="stroke:#038048;stroke-width:1.0;"/><text fill="#FFFFFF" font-family="sans-serif" font-size="14" lengthAdjust="spacing" textLength="103.9131" x="316" y="401.9951">add($element)</text></g><!--reverse link PageableInterface to MinimalReadableRecollection--><g id="link_PageableInterface_MinimalReadableRecollection"><path codeLine="38" d="M142,251.1 C142,277.29 142,287.32 142,311.79 " fill="none" id="PageableInterface-backto-MinimalReadableRecollection" style="stroke:#E7E7E7;stroke-width:1.0;"/><polygon fill="none" points="142,233.1,136,251.1,148,251.1,142,233.1" style="stroke:#E7E7E7;stroke-width:1.0;"/></g><!--reverse link MinimalReadableRecollection to MinimalRecollection--><g id="link_MinimalReadableRecollection_MinimalRecollection"><path codeLine="44" d="M279.06,381 C290.56,381 284.05,381 295.55,381 " fill="none" id="MinimalReadableRecollection-backto-MinimalRecollection" style="stroke:#E7E7E7;stroke-width:1.0;"/><polygon fill="none" points="261.06,381,279.06,387,279.06,375,261.06,381" style="stroke:#E7E7E7;stroke-width:1.0;"/></g><!--SRC=[VLBRIiD047tVhrZ4XugKufiFHT12iQWWwWzCivDao6Qtp8v8lFoxapHMJTFkIpRddBcTsLHHs013xMDMeRDhoAg2usjmY-WZMs48IGKOn9Zq8xORbK61pz9uj8oPG2Wycf8SMgmtqjWQfOmk_OL0X6dzAfYCcQSszCe8YMRuC5RFRMHwZq70NtigGgqrhSTSEdAfn3Ezexsu_FtloeV8DNZpPUQpFgdfsxCdZ1NuM505i_QwKP2dcOOoP99E-i8K13c73EsZ2c3jSRL3jehsd1SeBN_Jh9osHZaXJyxsw9v4NdX8QI1O4gTEDS3lOHHkeJGvJG8i_vcLO9qUaOT1RoJb8Kx3NgAwkyqwGdI1FV6bXexwc4NlTU4KGphcv0C5qhKy8RZMq2VyZVlhQPi1AEYGwB7T-Da-TuVDvBJ2vd_7GoX7oSeza88ROemvOoeN-iXbDsptsT_-_7CwFJQAEJJr-BJWt63Gll8njxI7iRowdsy0]--></g></svg>