<?xml version="1.0" encoding="us-ascii" standalone="no"?><svg xmlns="http://www.w3.org/2000/svg" xmlns:xlink="http://www.w3.org/1999/xlink" contentStyleType="text/css" height="533px" preserveAspectRatio="none" style="width:833px;height:533px;" version="1.1" viewBox="0 0 833 533" width="833px" zoomAndPan="magnify"><defs/><g><!--cluster doctrine/collections--><g id="cluster_doctrine/collections"><path d="M294.5,6 L451.5,6 A3.75,3.75 0 0 1 454,8.5 L461,28.2969 L461.5,28.2969 A2.5,2.5 0 0 1 464,30.7969 L464,102.5 A2.5,2.5 0 0 1 461.5,105 L294.5,105 A2.5,2.5 0 0 1 292,102.5 L292,8.5 A2.5,2.5 0 0 1 294.5,6 " fill="none" style="stroke:#FFFFFF;stroke-width:1.5;"/><line style="stroke:#FFFFFF;stroke-width:1.5;" x1="292" x2="461" y1="28.2969" y2="28.2969"/><text fill="#FFFFFF" font-family="sans-serif" font-size="14" font-weight="bold" lengthAdjust="spacing" textLength="156" x="296" y="20.9951">doctrine/collections</text></g><!--cluster rekalogika/doctrine-collections-decorator--><g id="cluster_rekalogika/doctrine-collections-decorator"><path d="M485.5,138 L813.5,138 A3.75,3.75 0 0 1 816,140.5 L823,160.2969 L823.5,160.2969 A2.5,2.5 0 0 1 826,162.7969 L826,234.5 A2.5,2.5 0 0 1 823.5,237 L485.5,237 A2.5,2.5 0 0 1 483,234.5 L483,140.5 A2.5,2.5 0 0 1 485.5,138 " fill="none" style="stroke:#FFFFFF;stroke-width:1.5;"/><line style="stroke:#FFFFFF;stroke-width:1.5;" x1="483" x2="823" y1="160.2969" y2="160.2969"/><text fill="#FFFFFF" font-family="sans-serif" font-size="14" font-weight="bold" lengthAdjust="spacing" textLength="327" x="487" y="152.9951">rekalogika/doctrine-collections-decorator</text></g><!--cluster app--><g id="cluster_app"><path d="M8.5,270 L38.5,270 A3.75,3.75 0 0 1 41,272.5 L48,292.2969 L726.5,292.2969 A2.5,2.5 0 0 1 729,294.7969 L729,523.5 A2.5,2.5 0 0 1 726.5,526 L8.5,526 A2.5,2.5 0 0 1 6,523.5 L6,272.5 A2.5,2.5 0 0 1 8.5,270 " fill="none" style="stroke:#FFFFFF;stroke-width:1.5;"/><line style="stroke:#FFFFFF;stroke-width:1.5;" x1="6" x2="48" y1="292.2969" y2="292.2969"/><text fill="#FFFFFF" font-family="sans-serif" font-size="14" font-weight="bold" lengthAdjust="spacing" textLength="29" x="10" y="284.9951">app</text></g><!--class Collection--><g id="elem_Collection"><rect codeLine="3" fill="#313139" height="48" id="Collection" rx="2.5" ry="2.5" style="stroke:#E7E7E7;stroke-width:0.5;" width="111" x="322.5" y="41"/><ellipse cx="337.5" cy="57" fill="#352866" rx="11" ry="11" style="stroke:#E7E7E7;stroke-width:1.0;"/><path d="M333.4219,52.7656 L333.4219,50.6094 L340.8125,50.6094 L340.8125,52.7656 L338.3438,52.7656 L338.3438,60.8438 L340.8125,60.8438 L340.8125,63 L333.4219,63 L333.4219,60.8438 L335.8906,60.8438 L335.8906,52.7656 L333.4219,52.7656 Z " fill="#FFFFFF"/><text fill="#FFFFFF" font-family="sans-serif" font-size="14" font-style="italic" lengthAdjust="spacing" textLength="68" x="351.5" y="61.8467">Collection</text><rect fill="none" height="15.9688" style="stroke:#E7E7E7;stroke-width:1.0;stroke-dasharray:2.0,2.0;" width="9" x="427.5" y="38"/><text fill="#000000" font-family="sans-serif" font-size="12" font-style="italic" lengthAdjust="spacing" textLength="7" x="428.5" y="50.1387">T</text><line style="stroke:#E7E7E7;stroke-width:0.5;" x1="323.5" x2="432.5" y1="73" y2="73"/><line style="stroke:#E7E7E7;stroke-width:0.5;" x1="323.5" x2="432.5" y1="81" y2="81"/></g><!--class CollectionDecorator--><g id="elem_CollectionDecorator"><rect codeLine="8" fill="#313139" height="48" id="CollectionDecorator" rx="2.5" ry="2.5" style="stroke:#E7E7E7;stroke-width:0.5;" width="169" x="500.5" y="173"/><ellipse cx="515.5" cy="189" fill="#2A5D60" rx="11" ry="11" style="stroke:#E7E7E7;stroke-width:1.0;"/><path d="M515.6094,184.3438 L514.4531,189.4219 L516.7813,189.4219 L515.6094,184.3438 Z M514.125,182.1094 L517.1094,182.1094 L520.4688,194.5 L518.0156,194.5 L517.25,191.4375 L513.9688,191.4375 L513.2188,194.5 L510.7813,194.5 L514.125,182.1094 Z " fill="#FFFFFF"/><text fill="#FFFFFF" font-family="sans-serif" font-size="14" font-style="italic" lengthAdjust="spacing" textLength="137" x="529.5" y="193.8467">CollectionDecorator</text><line style="stroke:#E7E7E7;stroke-width:0.5;" x1="501.5" x2="668.5" y1="205" y2="205"/><line style="stroke:#E7E7E7;stroke-width:0.5;" x1="501.5" x2="668.5" y1="213" y2="213"/></g><!--class BusinessContractInterface--><g id="elem_BusinessContractInterface"><rect codeLine="15" fill="#313139" height="48" id="BusinessContractInterface" rx="2.5" ry="2.5" style="stroke:#E7E7E7;stroke-width:0.5;" width="213" x="21.5" y="317"/><ellipse cx="36.5" cy="333" fill="#352866" rx="11" ry="11" style="stroke:#E7E7E7;stroke-width:1.0;"/><path d="M32.4219,328.7656 L32.4219,326.6094 L39.8125,326.6094 L39.8125,328.7656 L37.3438,328.7656 L37.3438,336.8438 L39.8125,336.8438 L39.8125,339 L32.4219,339 L32.4219,336.8438 L34.8906,336.8438 L34.8906,328.7656 L32.4219,328.7656 Z " fill="#FFFFFF"/><text fill="#FFFFFF" font-family="sans-serif" font-size="14" font-style="italic" lengthAdjust="spacing" textLength="181" x="50.5" y="337.8467">BusinessContractInterface</text><line style="stroke:#E7E7E7;stroke-width:0.5;" x1="22.5" x2="233.5" y1="349" y2="349"/><line style="stroke:#E7E7E7;stroke-width:0.5;" x1="22.5" x2="233.5" y1="357" y2="357"/></g><!--class BusinessContract--><g id="elem_BusinessContract"><rect codeLine="18" fill="#313139" height="56.2656" id="BusinessContract" rx="2.5" ry="2.5" style="stroke:#E7E7E7;stroke-width:0.5;" width="155" x="22.5" y="446"/><ellipse cx="37.5" cy="466.1328" fill="#2E5233" rx="11" ry="11" style="stroke:#E7E7E7;stroke-width:1.0;"/><path d="M40.4688,471.7734 Q39.8906,472.0703 39.25,472.2109 Q38.6094,472.3672 37.9063,472.3672 Q35.4063,472.3672 34.0781,470.7266 Q32.7656,469.0703 32.7656,465.9453 Q32.7656,462.8203 34.0781,461.1641 Q35.4063,459.5078 37.9063,459.5078 Q38.6094,459.5078 39.25,459.6641 Q39.9063,459.8203 40.4688,460.1172 L40.4688,462.8359 Q39.8438,462.2578 39.25,461.9922 Q38.6563,461.7109 38.0313,461.7109 Q36.6875,461.7109 36,462.7891 Q35.3125,463.8516 35.3125,465.9453 Q35.3125,468.0391 36,469.1172 Q36.6875,470.1797 38.0313,470.1797 Q38.6563,470.1797 39.25,469.9141 Q39.8438,469.6328 40.4688,469.0547 L40.4688,471.7734 Z " fill="#FFFFFF"/><text fill="#000000" font-family="sans-serif" font-size="12" font-style="italic" lengthAdjust="spacing" textLength="50" x="88" y="462.1387">&#171;Entity&#187;</text><text fill="#FFFFFF" font-family="sans-serif" font-size="14" lengthAdjust="spacing" textLength="123" x="51.5" y="477.9639">BusinessContract</text><line style="stroke:#E7E7E7;stroke-width:0.5;" x1="23.5" x2="176.5" y1="486.2656" y2="486.2656"/><line style="stroke:#E7E7E7;stroke-width:0.5;" x1="23.5" x2="176.5" y1="494.2656" y2="494.2656"/></g><!--class BusinessContractDecorator--><g id="elem_BusinessContractDecorator"><rect codeLine="21" fill="#313139" height="64.2969" id="BusinessContractDecorator" rx="2.5" ry="2.5" style="stroke:#E7E7E7;stroke-width:0.5;" width="278" x="221" y="442"/><ellipse cx="260.3" cy="458" fill="#2E5233" rx="11" ry="11" style="stroke:#E7E7E7;stroke-width:1.0;"/><path d="M263.2688,463.6406 Q262.6906,463.9375 262.05,464.0781 Q261.4094,464.2344 260.7063,464.2344 Q258.2063,464.2344 256.8781,462.5938 Q255.5656,460.9375 255.5656,457.8125 Q255.5656,454.6875 256.8781,453.0313 Q258.2063,451.375 260.7063,451.375 Q261.4094,451.375 262.05,451.5313 Q262.7063,451.6875 263.2688,451.9844 L263.2688,454.7031 Q262.6438,454.125 262.05,453.8594 Q261.4563,453.5781 260.8313,453.5781 Q259.4875,453.5781 258.8,454.6563 Q258.1125,455.7188 258.1125,457.8125 Q258.1125,459.9063 258.8,460.9844 Q259.4875,462.0469 260.8313,462.0469 Q261.4563,462.0469 262.05,461.7813 Q262.6438,461.5 263.2688,460.9219 L263.2688,463.6406 Z " fill="#FFFFFF"/><text fill="#FFFFFF" font-family="sans-serif" font-size="14" lengthAdjust="spacing" textLength="192" x="279.7" y="462.8467">BusinessContractDecorator</text><line style="stroke:#E7E7E7;stroke-width:0.5;" x1="222" x2="498" y1="474" y2="474"/><rect fill="none" height="6" style="stroke:#C82930;stroke-width:1.0;" width="6" x="229" y="484.6484"/><text fill="#FFFFFF" font-family="sans-serif" font-size="14" lengthAdjust="spacing" textLength="252" x="241" y="490.9951">wrapped: BusinessContractInterface</text><line style="stroke:#E7E7E7;stroke-width:0.5;" x1="222" x2="498" y1="498.2969" y2="498.2969"/></g><!--class CollectionOfBusinessContracts--><g id="elem_CollectionOfBusinessContracts"><rect codeLine="27" fill="#313139" height="48" id="CollectionOfBusinessContracts" rx="2.5" ry="2.5" style="stroke:#E7E7E7;stroke-width:0.5;" width="100" x="270" y="317"/><ellipse cx="285" cy="333" fill="#352866" rx="11" ry="11" style="stroke:#E7E7E7;stroke-width:1.0;"/><path d="M280.9219,328.7656 L280.9219,326.6094 L288.3125,326.6094 L288.3125,328.7656 L285.8438,328.7656 L285.8438,336.8438 L288.3125,336.8438 L288.3125,339 L280.9219,339 L280.9219,336.8438 L283.3906,336.8438 L283.3906,328.7656 L280.9219,328.7656 Z " fill="#FFFFFF"/><text fill="#FFFFFF" font-family="sans-serif" font-size="14" font-style="italic" lengthAdjust="spacing" textLength="68" x="299" y="337.8467">Collection</text><line style="stroke:#E7E7E7;stroke-width:0.5;" x1="271" x2="369" y1="349" y2="349"/><line style="stroke:#E7E7E7;stroke-width:0.5;" x1="271" x2="369" y1="357" y2="357"/></g><!--class BusinessContractCollectionDecorator--><g id="elem_BusinessContractCollectionDecorator"><rect codeLine="30" fill="#313139" height="64.2969" id="BusinessContractCollectionDecorator" rx="2.5" ry="2.5" style="stroke:#E7E7E7;stroke-width:0.5;" width="292" x="413" y="309"/><ellipse cx="428" cy="325" fill="#2E5233" rx="11" ry="11" style="stroke:#E7E7E7;stroke-width:1.0;"/><path d="M430.9688,330.6406 Q430.3906,330.9375 429.75,331.0781 Q429.1094,331.2344 428.4063,331.2344 Q425.9063,331.2344 424.5781,329.5938 Q423.2656,327.9375 423.2656,324.8125 Q423.2656,321.6875 424.5781,320.0313 Q425.9063,318.375 428.4063,318.375 Q429.1094,318.375 429.75,318.5313 Q430.4063,318.6875 430.9688,318.9844 L430.9688,321.7031 Q430.3438,321.125 429.75,320.8594 Q429.1563,320.5781 428.5313,320.5781 Q427.1875,320.5781 426.5,321.6563 Q425.8125,322.7188 425.8125,324.8125 Q425.8125,326.9063 426.5,327.9844 Q427.1875,329.0469 428.5313,329.0469 Q429.1563,329.0469 429.75,328.7813 Q430.3438,328.5 430.9688,327.9219 L430.9688,330.6406 Z " fill="#FFFFFF"/><text fill="#FFFFFF" font-family="sans-serif" font-size="14" lengthAdjust="spacing" textLength="260" x="442" y="329.8467">BusinessContractCollectionDecorator</text><line style="stroke:#E7E7E7;stroke-width:0.5;" x1="414" x2="704" y1="341" y2="341"/><rect fill="none" height="6" style="stroke:#C82930;stroke-width:1.0;" width="6" x="421" y="351.6484"/><text fill="#FFFFFF" font-family="sans-serif" font-size="14" lengthAdjust="spacing" textLength="137" x="433" y="357.9951">wrapped: Collection</text><line style="stroke:#E7E7E7;stroke-width:0.5;" x1="414" x2="704" y1="365.2969" y2="365.2969"/></g><!--reverse link Collection to CollectionDecorator--><g id="link_Collection_CollectionDecorator"><path codeLine="12" d="M430.2539,98.812 C467.9339,122.472 510.75,149.37 548.31,172.96 " fill="none" id="Collection-backto-CollectionDecorator" style="stroke:#E7E7E7;stroke-width:1.0;stroke-dasharray:7.0,7.0;"/><polygon fill="none" points="415.01,89.24,427.0633,103.8933,433.4446,93.7306,415.01,89.24" style="stroke:#E7E7E7;stroke-width:1.0;"/></g><!--reverse link BusinessContractInterface to BusinessContract--><g id="link_BusinessContractInterface_BusinessContract"><path d="M119.2922,382.7212 C114.4822,405.1912 110.96,421.74 105.86,445.58 " fill="none" id="BusinessContractInterface-backto-BusinessContract" style="stroke:#E7E7E7;stroke-width:1.0;stroke-dasharray:7.0,7.0;"/><polygon fill="none" points="123.06,365.12,113.4251,381.4653,125.1593,383.9772,123.06,365.12" style="stroke:#E7E7E7;stroke-width:1.0;"/></g><!--reverse link BusinessContractInterface to BusinessContractDecorator--><g id="link_BusinessContractInterface_BusinessContractDecorator"><path d="M184.6158,373.967 C220.2658,394.087 256.8,414.73 297.64,437.79 " fill="none" id="BusinessContractInterface-backto-BusinessContractDecorator" style="stroke:#E7E7E7;stroke-width:1.0;stroke-dasharray:7.0,7.0;"/><polygon fill="none" points="168.94,365.12,181.6668,379.1923,187.5648,368.7418,168.94,365.12" style="stroke:#E7E7E7;stroke-width:1.0;"/></g><!--reverse link BusinessContractDecorator to BusinessContractInterface--><g id="link_BusinessContractDecorator_BusinessContractInterface"><path codeLine="25" d="M208,486 C186.66,486 212.31,457.49 221,438 C229.06,419.91 263.28,423.93 253,407 C241.7,388.39 223.15,374.87 203.76,365.14 " fill="none" id="BusinessContractDecorator-backto-BusinessContractInterface" style="stroke:#E7E7E7;stroke-width:1.0;"/><polygon fill="none" points="220,486,214,482,208,486,214,490,220,486" style="stroke:#E7E7E7;stroke-width:1.0;"/></g><!--link CollectionOfBusinessContracts to BusinessContractCollectionDecorator--><g id="link_CollectionOfBusinessContracts_BusinessContractCollectionDecorator"><path codeLine="34" d="M370.43,349.91 C383.87,351.68 386.45,353 400,353 " fill="none" id="CollectionOfBusinessContracts-to-BusinessContractCollectionDecorator" style="stroke:#E7E7E7;stroke-width:1.0;"/><polygon fill="none" points="412,353,406,349,400,353,406,357,412,353" style="stroke:#E7E7E7;stroke-width:1.0;"/></g><!--link BusinessContractInterface to CollectionOfBusinessContracts--><g id="link_BusinessContractInterface_CollectionOfBusinessContracts"><path codeLine="35" d="M234.5,341 C246.3,341 246.1,341 257.9,341 " fill="none" id="BusinessContractInterface-to-CollectionOfBusinessContracts" style="stroke:#E7E7E7;stroke-width:1.0;"/><polygon fill="none" points="269.9,341,263.9,337,257.9,341,263.9,345,269.9,341" style="stroke:#E7E7E7;stroke-width:1.0;"/><text fill="#FFFFFF" font-family="sans-serif" font-size="13" lengthAdjust="spacing" textLength="11" x="242.375" y="337.5442">M</text></g><!--reverse link CollectionDecorator to BusinessContractCollectionDecorator--><g id="link_CollectionDecorator_BusinessContractCollectionDecorator"><path codeLine="38" d="M577.5243,238.8368 C573.3743,261.5468 570.21,278.79 565.42,304.92 " fill="none" id="CollectionDecorator-backto-BusinessContractCollectionDecorator" style="stroke:#E7E7E7;stroke-width:1.0;"/><polygon fill="none" points="580.76,221.13,571.622,237.7582,583.4265,239.9154,580.76,221.13" style="stroke:#E7E7E7;stroke-width:1.0;"/></g><!--reverse link Collection to CollectionOfBusinessContracts--><g id="link_Collection_CollectionOfBusinessContracts"><path codeLine="39" d="M332.8,101.1936 C320.61,112.0536 321.5,114.13 315,130 C289.01,193.44 303.89,276.96 313.63,316.85 " fill="none" id="Collection-backto-CollectionOfBusinessContracts" style="stroke:#E7E7E7;stroke-width:1.0;"/><polygon fill="none" points="346.24,89.22,328.8088,96.7136,336.7912,105.6736,346.24,89.22" style="stroke:#E7E7E7;stroke-width:1.0;"/><text fill="#FFFFFF" font-family="sans-serif" font-size="13" lengthAdjust="spacing" textLength="43" x="316" y="194.0669">&#171;bind&#187;</text><text fill="#FFFFFF" font-family="sans-serif" font-size="13" lengthAdjust="spacing" textLength="168" x="316" y="209.1997">BusinessContractInterface</text></g><!--SRC=[fP8zRuCm48PtViN9kvCT8ORI3XsgBXsx7BQ3B8mFsOwggib_hnC5S190gUh5mxttlFVbMsrxTDWP4gsIKADe6qTxAoiov20uj3uAb0rPriSWDWgO916Sjceho1WbWYRh6Vna49-sGRaT2WNL62m-oalqc1qJZbCj6cfqYzi1oHCabqgGmq1kW6FjOqKY9EpdGPCwJ64e3flDd3mf0_l-llgdlO_bU5-HFLk-Zf71v_m9WzxVYQ4eNcpGuRiiGNUzKLqSeFyVSshq3yJJu_3bOejAvilor7xHECyl823ELrYBT_2-kqtoW1xOf62FJ69v-JVjJi8KkbuFfqVynb7CJcpQ0djZ9-AgvVN1JYqLXvafprtorRN7dFK6ytYSjRQoB3_DyWv_0G00]--></g></svg>