<svg xmlns="http://www.w3.org/2000/svg" xmlns:xlink="http://www.w3.org/1999/xlink" contentStyleType="text/css" height="625px" preserveAspectRatio="none" style="width:1379px;height:625px;" version="1.1" viewBox="0 0 1379 625" width="1379px" zoomAndPan="magnify"><defs/><g><!--entity file--><g id="elem_file"><rect fill="#313139" height="36.2969" rx="2.5" ry="2.5" style="stroke:#E7E7E7;stroke-width:0.5;" width="39" x="134.41" y="391"/><text fill="#FFFFFF" font-family="sans-serif" font-size="14" lengthAdjust="spacing" textLength="19" x="144.41" y="413.9951">file</text></g><!--entity file-contracts--><g id="elem_file-contracts"><rect fill="#313139" height="36.2969" rx="2.5" ry="2.5" style="stroke:#E7E7E7;stroke-width:0.5;" width="109" x="618.41" y="487"/><text fill="#FFFFFF" font-family="sans-serif" font-size="14" lengthAdjust="spacing" textLength="89" x="628.41" y="509.9951">file-contracts</text></g><!--entity file-metadata-contracts--><g id="elem_file-metadata-contracts"><rect fill="#313139" height="36.2969" rx="2.5" ry="2.5" style="stroke:#E7E7E7;stroke-width:0.5;" width="179" x="62.41" y="583"/><text fill="#FFFFFF" font-family="sans-serif" font-size="14" lengthAdjust="spacing" textLength="159" x="72.41" y="605.9951">file-metadata-contracts</text></g><!--entity file-metadata--><g id="elem_file-metadata"><rect fill="#313139" height="36.2969" rx="2.5" ry="2.5" style="stroke:#E7E7E7;stroke-width:0.5;" width="109" x="205.41" y="487"/><text fill="#FFFFFF" font-family="sans-serif" font-size="14" lengthAdjust="spacing" textLength="89" x="215.41" y="509.9951">file-metadata</text></g><!--entity file-association--><g id="elem_file-association"><rect fill="#313139" height="36.2969" rx="2.5" ry="2.5" style="stroke:#E7E7E7;stroke-width:0.5;" width="122" x="804.91" y="199"/><text fill="#FFFFFF" font-family="sans-serif" font-size="14" lengthAdjust="spacing" textLength="102" x="814.91" y="221.9951">file-association</text></g><!--entity file-association-contracts--><g id="elem_file-association-contracts"><rect fill="#313139" height="36.2969" rx="2.5" ry="2.5" style="stroke:#E7E7E7;stroke-width:0.5;" width="192" x="769.91" y="295"/><text fill="#FFFFFF" font-family="sans-serif" font-size="14" lengthAdjust="spacing" textLength="172" x="779.91" y="317.9951">file-association-contracts</text></g><!--entity file-bundle--><g id="elem_file-bundle"><rect fill="#313139" height="36.2969" rx="2.5" ry="2.5" style="stroke:#E7E7E7;stroke-width:0.5;" width="92" x="769.91" y="103"/><text fill="#FFFFFF" font-family="sans-serif" font-size="14" lengthAdjust="spacing" textLength="72" x="779.91" y="125.9951">file-bundle</text></g><!--entity file-image--><g id="elem_file-image"><rect fill="#313139" height="36.2969" rx="2.5" ry="2.5" style="stroke:#E7E7E7;stroke-width:0.5;" width="86" x="1141.91" y="199"/><text fill="#FFFFFF" font-family="sans-serif" font-size="14" lengthAdjust="spacing" textLength="66" x="1151.91" y="221.9951">file-image</text></g><!--entity file-server--><g id="elem_file-server"><rect fill="#313139" height="36.2969" rx="2.5" ry="2.5" style="stroke:#E7E7E7;stroke-width:0.5;" width="87" x="673.41" y="199"/><text fill="#FFFFFF" font-family="sans-serif" font-size="14" lengthAdjust="spacing" textLength="67" x="683.41" y="221.9951">file-server</text></g><!--entity file-symfony-bridge--><g id="elem_file-symfony-bridge"><rect fill="#313139" height="36.2969" rx="2.5" ry="2.5" style="stroke:#E7E7E7;stroke-width:0.5;" width="150" x="73.91" y="295"/><text fill="#FFFFFF" font-family="sans-serif" font-size="14" lengthAdjust="spacing" textLength="130" x="83.91" y="317.9951">file-symfony-bridge</text></g><!--entity file-derivation--><g id="elem_file-derivation"><rect fill="#313139" height="36.2969" rx="2.5" ry="2.5" style="stroke:#E7E7E7;stroke-width:0.5;" width="111" x="1137.41" y="391"/><text fill="#FFFFFF" font-family="sans-serif" font-size="14" lengthAdjust="spacing" textLength="91" x="1147.41" y="413.9951">file-derivation</text></g><!--entity file-oneup-uploader-bridge--><g id="elem_file-oneup-uploader-bridge"><rect fill="#313139" height="36.2969" rx="2.5" ry="2.5" style="stroke:#E7E7E7;stroke-width:0.5;" width="204" x="258.91" y="295"/><text fill="#FFFFFF" font-family="sans-serif" font-size="14" lengthAdjust="spacing" textLength="184" x="268.91" y="317.9951">file-oneup-uploader-bridge</text></g><!--entity file-association-entity--><g id="elem_file-association-entity"><rect fill="#313139" height="36.2969" rx="2.5" ry="2.5" style="stroke:#E7E7E7;stroke-width:0.5;" width="165" x="498.41" y="295"/><text fill="#FFFFFF" font-family="sans-serif" font-size="14" lengthAdjust="spacing" textLength="145" x="508.41" y="317.9951">file-association-entity</text></g><!--entity file-null--><g id="elem_file-null"><rect fill="#313139" height="36.2969" rx="2.5" ry="2.5" style="stroke:#E7E7E7;stroke-width:0.5;" width="68" x="595.91" y="391"/><text fill="#FFFFFF" font-family="sans-serif" font-size="14" lengthAdjust="spacing" textLength="48" x="605.91" y="413.9951">file-null</text></g><!--entity file-zip--><g id="elem_file-zip"><rect fill="#313139" height="36.2969" rx="2.5" ry="2.5" style="stroke:#E7E7E7;stroke-width:0.5;" width="64" x="283.91" y="391"/><text fill="#FFFFFF" font-family="sans-serif" font-size="14" lengthAdjust="spacing" textLength="44" x="293.91" y="413.9951">file-zip</text></g><!--entity file-filepond--><g id="elem_file-filepond"><rect fill="#313139" height="36.2969" rx="2.5" ry="2.5" style="stroke:#E7E7E7;stroke-width:0.5;" width="99" x="716.41" y="7"/><text fill="#FFFFFF" font-family="sans-serif" font-size="14" lengthAdjust="spacing" textLength="79" x="726.41" y="29.9951">file-filepond</text></g><!--link file to file-contracts--><g id="link_file_file-contracts"><path d="M173.62,413.57 C246.76,426.82 498.3161,472.3806 612.1561,493.0006 " fill="none" id="file-to-file-contracts" style="stroke:#E7E7E7;stroke-width:1.0;"/><polygon fill="#E7E7E7" points="618.06,494.07,609.917,488.53,613.1401,493.1788,608.4912,496.4019,618.06,494.07" style="stroke:#E7E7E7;stroke-width:1.0;"/></g><!--link file to file-metadata-contracts--><g id="link_file_file-metadata-contracts"><path d="M153.73,427.2 C153.35,463.37 152.5333,540.9603 152.1533,576.9803 " fill="none" id="file-to-file-metadata-contracts" style="stroke:#E7E7E7;stroke-width:1.0;"/><polygon fill="#E7E7E7" points="152.09,582.98,156.1847,574.0227,152.1427,577.9803,148.1852,573.9383,152.09,582.98" style="stroke:#E7E7E7;stroke-width:1.0;"/></g><!--link file to file-metadata--><g id="link_file_file-metadata"><path d="M173.35,427.24 C192.48,444.2 217.0209,465.9691 236.1009,482.8891 " fill="none" id="file-to-file-metadata" style="stroke:#E7E7E7;stroke-width:1.0;"/><polygon fill="#E7E7E7" points="240.59,486.87,236.5103,477.9059,236.8491,483.5526,231.2024,483.8914,240.59,486.87" style="stroke:#E7E7E7;stroke-width:1.0;"/></g><!--link file-association to file-association-contracts--><g id="link_file-association_file-association-contracts"><path d="M865.91,235.24 C865.91,252.2 865.91,271.95 865.91,288.87 " fill="none" id="file-association-to-file-association-contracts" style="stroke:#E7E7E7;stroke-width:1.0;"/><polygon fill="#E7E7E7" points="865.91,294.87,869.91,285.87,865.91,289.87,861.91,285.87,865.91,294.87" style="stroke:#E7E7E7;stroke-width:1.0;"/></g><!--link file-association to file-contracts--><g id="link_file-association_file-contracts"><path d="M906.55,235.09 C948.05,255.19 1003.32,290.94 979.91,331 C925.43,424.23 805.9214,469.5353 733.3614,489.6753 " fill="none" id="file-association-to-file-contracts" style="stroke:#E7E7E7;stroke-width:1.0;"/><polygon fill="#E7E7E7" points="727.58,491.28,737.3219,492.7272,732.3979,489.9427,735.1823,485.0186,727.58,491.28" style="stroke:#E7E7E7;stroke-width:1.0;"/></g><!--link file-bundle to file--><g id="link_file-bundle_file"><path d="M769.75,125.08 C618.92,136.2 145.15,179.9 56.91,295 C26.39,334.81 92.5206,376.3753 128.9206,395.5353 " fill="none" id="file-bundle-to-file" style="stroke:#E7E7E7;stroke-width:1.0;"/><polygon fill="#E7E7E7" points="134.23,398.33,128.1291,390.5983,129.8055,396.0011,124.4028,397.6775,134.23,398.33" style="stroke:#E7E7E7;stroke-width:1.0;"/></g><!--link file-bundle to file-contracts--><g id="link_file-bundle_file-contracts"><path d="M854,139.01 C918.33,170.47 1038.63,242.7 1007.91,331 C990.03,382.4 976.97,396.49 931.91,427 C869.36,469.34 788.978,487.9531 733.528,496.6231 " fill="none" id="file-bundle-to-file-contracts" style="stroke:#E7E7E7;stroke-width:1.0;"/><polygon fill="#E7E7E7" points="727.6,497.55,737.1099,500.1117,732.54,496.7776,735.874,492.2077,727.6,497.55" style="stroke:#E7E7E7;stroke-width:1.0;"/></g><!--link file-bundle to file-image--><g id="link_file-bundle_file-image"><path d="M862.27,133.81 C934.28,152.15 1066.1557,185.7488 1136.0657,203.5588 " fill="none" id="file-bundle-to-file-image" style="stroke:#E7E7E7;stroke-width:1.0;stroke-dasharray:7.0,7.0;"/><polygon fill="#E7E7E7" points="1141.88,205.04,1134.146,198.942,1137.0348,203.8056,1132.1711,206.6944,1141.88,205.04" style="stroke:#E7E7E7;stroke-width:1.0;"/></g><!--link file-bundle to file-association--><g id="link_file-bundle_file-association"><path d="M825.08,139.24 C834.1,156.2 844.9699,176.6541 853.9799,193.5741 " fill="none" id="file-bundle-to-file-association" style="stroke:#E7E7E7;stroke-width:1.0;stroke-dasharray:7.0,7.0;"/><polygon fill="#E7E7E7" points="856.8,198.87,856.1004,189.046,854.4499,194.4567,849.0392,192.8062,856.8,198.87" style="stroke:#E7E7E7;stroke-width:1.0;"/></g><!--link file-bundle to file-server--><g id="link_file-bundle_file-server"><path d="M797.75,139.24 C779.89,156.2 757.1211,177.8187 739.3011,194.7387 " fill="none" id="file-bundle-to-file-server" style="stroke:#E7E7E7;stroke-width:1.0;stroke-dasharray:7.0,7.0;"/><polygon fill="#E7E7E7" points="734.95,198.87,744.2309,195.5737,738.5759,195.4272,738.7224,189.7723,734.95,198.87" style="stroke:#E7E7E7;stroke-width:1.0;"/></g><!--link file-bundle to file-symfony-bridge--><g id="link_file-bundle_file-symfony-bridge"><path d="M769.8,135.13 C652,168.69 345.7804,255.916 214.3704,293.356 " fill="none" id="file-bundle-to-file-symfony-bridge" style="stroke:#E7E7E7;stroke-width:1.0;stroke-dasharray:7.0,7.0;"/><polygon fill="#E7E7E7" points="208.6,295,218.3516,296.3809,213.4086,293.63,216.1595,288.687,208.6,295" style="stroke:#E7E7E7;stroke-width:1.0;"/></g><!--link file-derivation to file-contracts--><g id="link_file-derivation_file-contracts"><path d="M1137.14,421.64 C1128.05,423.48 1118.72,425.32 1109.91,427 C972.56,453.16 816.2166,479.9332 733.4166,493.8832 " fill="none" id="file-derivation-to-file-contracts" style="stroke:#E7E7E7;stroke-width:1.0;"/><polygon fill="#E7E7E7" points="727.5,494.88,737.0395,497.3292,732.4305,494.0493,735.7104,489.4404,727.5,494.88" style="stroke:#E7E7E7;stroke-width:1.0;"/></g><!--link file-image to file-contracts--><g id="link_file-image_file-contracts"><path d="M1202.21,235.23 C1238.94,273.86 1317.28,368.53 1265.91,427 C1230.6,467.19 873.6893,492.2221 733.6293,500.5921 " fill="none" id="file-image-to-file-contracts" style="stroke:#E7E7E7;stroke-width:1.0;"/><polygon fill="#E7E7E7" points="727.64,500.95,736.8626,504.406,732.6311,500.6517,736.3854,496.4202,727.64,500.95" style="stroke:#E7E7E7;stroke-width:1.0;"/></g><!--link file-image to file-derivation--><g id="link_file-image_file-derivation"><path d="M1185.63,235.2 C1187.16,271.37 1190.417,348.9653 1191.937,384.9853 " fill="none" id="file-image-to-file-derivation" style="stroke:#E7E7E7;stroke-width:1.0;"/><polygon fill="#E7E7E7" points="1192.19,390.98,1195.807,381.8194,1191.9792,385.9844,1187.8141,382.1566,1192.19,390.98" style="stroke:#E7E7E7;stroke-width:1.0;"/></g><!--link file-oneup-uploader-bridge to file-contracts--><g id="link_file-oneup-uploader-bridge_file-contracts"><path d="M388.87,331.03 C448.1,367.1 580.4951,447.7299 639.7751,483.8199 " fill="none" id="file-oneup-uploader-bridge-to-file-contracts" style="stroke:#E7E7E7;stroke-width:1.0;"/><polygon fill="#E7E7E7" points="644.9,486.94,639.2927,478.8432,640.6292,484.3399,635.1325,485.6765,644.9,486.94" style="stroke:#E7E7E7;stroke-width:1.0;"/></g><!--link file-oneup-uploader-bridge to file--><g id="link_file-oneup-uploader-bridge_file"><path d="M323.42,331.02 C279.38,351.02 213.4333,380.9696 179.0733,396.5696 " fill="none" id="file-oneup-uploader-bridge-to-file" style="stroke:#E7E7E7;stroke-width:1.0;"/><polygon fill="#E7E7E7" points="173.61,399.05,183.4585,398.9716,178.1627,396.983,180.1513,391.6872,173.61,399.05" style="stroke:#E7E7E7;stroke-width:1.0;"/></g><!--link file-server to file-contracts--><g id="link_file-server_file-contracts"><path d="M714.29,235.03 C706.48,285.78 684.3422,429.6597 676.4822,480.7597 " fill="none" id="file-server-to-file-contracts" style="stroke:#E7E7E7;stroke-width:1.0;"/><polygon fill="#E7E7E7" points="675.57,486.69,680.8918,478.4027,676.3301,481.7481,672.9847,477.1865,675.57,486.69" style="stroke:#E7E7E7;stroke-width:1.0;"/></g><!--link file-server to file-symfony-bridge--><g id="link_file-server_file-symfony-bridge"><path d="M673.31,224.77 C589.6,237.83 400.59,267.64 241.91,295 C236.09,296 235.9666,296.0056 229.9166,297.0856 " fill="none" id="file-server-to-file-symfony-bridge" style="stroke:#E7E7E7;stroke-width:1.0;"/><polygon fill="#E7E7E7" points="224.01,298.14,233.5729,300.4961,228.9322,297.2613,232.167,292.6206,224.01,298.14" style="stroke:#E7E7E7;stroke-width:1.0;"/></g><!--link file-symfony-bridge to file--><g id="link_file-symfony-bridge_file"><path d="M149.83,331.24 C150.73,348.2 151.7813,367.9585 152.6813,384.8785 " fill="none" id="file-symfony-bridge-to-file" style="stroke:#E7E7E7;stroke-width:1.0;"/><polygon fill="#E7E7E7" points="153,390.87,156.5163,381.6702,152.7344,385.8771,148.5276,382.0952,153,390.87" style="stroke:#E7E7E7;stroke-width:1.0;"/></g><!--link file-symfony-bridge to file-contracts--><g id="link_file-symfony-bridge_file-contracts"><path d="M197.66,331.12 C241.68,346.61 308.2,370.14 365.91,391 C458.85,424.59 561.6458,462.63 621.5758,484.9 " fill="none" id="file-symfony-bridge-to-file-contracts" style="stroke:#E7E7E7;stroke-width:1.0;"/><polygon fill="#E7E7E7" points="627.2,486.99,620.157,480.1056,622.5131,485.2484,617.3703,487.6045,627.2,486.99" style="stroke:#E7E7E7;stroke-width:1.0;"/></g><!--link file-symfony-bridge to file-metadata-contracts--><g id="link_file-symfony-bridge_file-metadata-contracts"><path d="M139.49,331.11 C131.69,346.32 121.21,369.42 116.91,391 C102.76,461.89 128.7814,541.4956 142.6514,577.2756 " fill="none" id="file-symfony-bridge-to-file-metadata-contracts" style="stroke:#E7E7E7;stroke-width:1.0;"/><polygon fill="#E7E7E7" points="144.82,582.87,145.2966,573.0327,143.0128,578.208,137.8375,575.9242,144.82,582.87" style="stroke:#E7E7E7;stroke-width:1.0;"/></g><!--link file-association-entity to file-contracts--><g id="link_file-association-entity_file-contracts"><path d="M576.11,331.06 C570.62,354.08 564.13,395.79 578.91,427 C591.37,453.31 612.5814,470.5159 634.2214,483.6559 " fill="none" id="file-association-entity-to-file-contracts" style="stroke:#E7E7E7;stroke-width:1.0;"/><polygon fill="#E7E7E7" points="639.35,486.77,633.7332,478.6798,635.0762,484.1749,629.5811,485.5179,639.35,486.77" style="stroke:#E7E7E7;stroke-width:1.0;"/></g><!--link file-association-entity to file-metadata--><g id="link_file-association-entity_file-metadata"><path d="M498.1,329.08 C410.21,345.89 281.89,373.07 266.91,391 C244.35,418 248.6117,456.6321 254.0017,480.9521 " fill="none" id="file-association-entity-to-file-metadata" style="stroke:#E7E7E7;stroke-width:1.0;"/><polygon fill="#E7E7E7" points="255.3,486.81,257.2578,477.1577,254.2181,481.9285,249.4474,478.8887,255.3,486.81" style="stroke:#E7E7E7;stroke-width:1.0;"/></g><!--link file-association-entity to file-null--><g id="link_file-association-entity_file-null"><path d="M589.9,331.24 C598.74,348.2 609.3865,368.6295 618.2065,385.5495 " fill="none" id="file-association-entity-to-file-null" style="stroke:#E7E7E7;stroke-width:1.0;"/><polygon fill="#E7E7E7" points="620.98,390.87,620.3668,381.0402,618.6688,386.4362,613.2728,384.7382,620.98,390.87" style="stroke:#E7E7E7;stroke-width:1.0;"/></g><!--link file-metadata to file-metadata-contracts--><g id="link_file-metadata_file-metadata-contracts"><path d="M240.35,523.02 C220.9,539.95 195.7346,561.8495 176.2146,578.8495 " fill="none" id="file-metadata-to-file-metadata-contracts" style="stroke:#E7E7E7;stroke-width:1.0;"/><polygon fill="#E7E7E7" points="171.69,582.79,181.104,579.8957,175.4605,579.5062,175.8499,573.8628,171.69,582.79" style="stroke:#E7E7E7;stroke-width:1.0;"/></g><!--link file-null to file-contracts--><g id="link_file-null_file-contracts"><path d="M637.8,427.24 C645.55,444.2 654.8341,464.4938 662.5741,481.4138 " fill="none" id="file-null-to-file-contracts" style="stroke:#E7E7E7;stroke-width:1.0;"/><polygon fill="#E7E7E7" points="665.07,486.87,664.9636,477.0217,662.9901,482.3232,657.6886,480.3496,665.07,486.87" style="stroke:#E7E7E7;stroke-width:1.0;"/></g><!--link file-zip to file-contracts--><g id="link_file-zip_file-contracts"><path d="M348.01,419.43 C356.73,421.94 366.17,424.61 374.91,427 C459.57,450.13 552.451,473.8172 612.321,488.8672 " fill="none" id="file-zip-to-file-contracts" style="stroke:#E7E7E7;stroke-width:1.0;"/><polygon fill="#E7E7E7" points="618.14,490.33,610.3867,484.2566,613.2909,489.111,608.4364,492.0152,618.14,490.33" style="stroke:#E7E7E7;stroke-width:1.0;"/></g><!--link file-zip to file-metadata--><g id="link_file-zip_file-metadata"><path d="M305.64,427.24 C295.53,444.2 283.2731,464.7967 273.1831,481.7167 " fill="none" id="file-zip-to-file-metadata" style="stroke:#E7E7E7;stroke-width:1.0;"/><polygon fill="#E7E7E7" points="270.11,486.87,278.1551,481.1888,272.6709,482.5756,271.2841,477.0914,270.11,486.87" style="stroke:#E7E7E7;stroke-width:1.0;"/></g><!--link file-filepond to file--><g id="link_file-filepond_file"><path d="M716.19,31.78 C606.78,46.17 339.44,90.56 144.91,199 C79.67,235.37 6,264.97 40.91,331 C60.66,368.36 101.9726,388.8293 128.7326,399.1593 " fill="none" id="file-filepond-to-file" style="stroke:#E7E7E7;stroke-width:1.0;"/><polygon fill="#E7E7E7" points="134.33,401.32,127.3744,394.3473,129.6655,399.5194,124.4934,401.8105,134.33,401.32" style="stroke:#E7E7E7;stroke-width:1.0;"/></g><!--link file-filepond to file-bundle--><g id="link_file-filepond_file-bundle"><path d="M775.08,43.24 C784.1,60.2 794.9699,80.6541 803.9799,97.5741 " fill="none" id="file-filepond-to-file-bundle" style="stroke:#E7E7E7;stroke-width:1.0;"/><polygon fill="#E7E7E7" points="806.8,102.87,806.1004,93.046,804.4499,98.4567,799.0392,96.8062,806.8,102.87" style="stroke:#E7E7E7;stroke-width:1.0;"/></g><!--link file-filepond to file-contracts--><g id="link_file-filepond_file-contracts"><path d="M815.58,30.75 C960.55,45.97 1372.91,99.5 1372.91,216 C1372.91,216 1372.91,216 1372.91,314 C1372.91,373.79 1350.58,395.25 1299.91,427 C1205,486.47 868.4085,499.9237 733.7785,502.9837 " fill="none" id="file-filepond-to-file-contracts" style="stroke:#E7E7E7;stroke-width:1.0;"/><polygon fill="#E7E7E7" points="727.78,503.12,736.8686,506.9145,732.7787,503.0064,736.6868,498.9165,727.78,503.12" style="stroke:#E7E7E7;stroke-width:1.0;"/></g><!--link file-filepond to file-image--><g id="link_file-filepond_file-image"><path d="M803.46,43.03 C883,79.1 1062.2254,160.3724 1141.8254,196.4624 " fill="none" id="file-filepond-to-file-image" style="stroke:#E7E7E7;stroke-width:1.0;"/><polygon fill="#E7E7E7" points="1147.29,198.94,1140.7449,191.5806,1142.7362,196.8753,1137.4414,198.8667,1147.29,198.94" style="stroke:#E7E7E7;stroke-width:1.0;"/></g><!--link file-filepond to file-server--><g id="link_file-filepond_file-server"><path d="M761.47,43.2 C752.14,79.37 732.0884,157.1501 722.7984,193.1701 " fill="none" id="file-filepond-to-file-server" style="stroke:#E7E7E7;stroke-width:1.0;"/><polygon fill="#E7E7E7" points="721.3,198.98,727.4209,191.2641,722.5487,194.1384,719.6744,189.2662,721.3,198.98" style="stroke:#E7E7E7;stroke-width:1.0;"/></g><!--link file-filepond to file-symfony-bridge--><g id="link_file-filepond_file-symfony-bridge"><path d="M729.16,43.03 C619.55,93.84 301.1638,241.427 191.2938,292.347 " fill="none" id="file-filepond-to-file-symfony-bridge" style="stroke:#E7E7E7;stroke-width:1.0;"/><polygon fill="#E7E7E7" points="185.85,294.87,195.6976,294.7148,190.3865,292.7675,192.3337,287.4564,185.85,294.87" style="stroke:#E7E7E7;stroke-width:1.0;"/></g><!--SRC=[bPHDSiCW38NtFWKN84V8faVeifE538g7CI0FuCoufozDJMERdoGRZuVtINh2alsex0GEZ2OnecGzY75mD5lvGPeS2mwiZm3Qq7K-mKoGcSZ6my-mQ6GEHG0xQEowhwlIU66SdzdzbGkoCOa8_f9h1WD82F0Ij4eSl2UX82YoMsnpdAMhnMHS7nlVLQyAzTZJAI7Am81rUMkg2dbqDtGDVJ5NiWlldPAFOXATkZrlzy_WMyGcyuh4EPWdFa-Q88h9I2lfiuZ4hRstKkL8-K8EfuLQDQ1GiufMvtatdN5jL5YQ9TfuOoCAj9srJkH_v4kcxv4jczzgUaS_-lvznD-8B7oEWfI6lq5a1ahGRYjBm7xbYiHXndu0]--></g></svg>