<svg xmlns="http://www.w3.org/2000/svg" xmlns:xlink="http://www.w3.org/1999/xlink" contentStyleType="text/css" height="1061px" preserveAspectRatio="none" style="width:853px;height:1061px;" version="1.1" viewBox="0 0 853 1061" width="853px" zoomAndPan="magnify"><defs/><g><!--class FileRepository--><g id="elem_FileRepository"><rect codeLine="1" fill="#313139" height="227.2656" id="FileRepository" rx="2.5" ry="2.5" style="stroke:#E7E7E7;stroke-width:0.5;" width="368.4668" x="7" y="7"/><ellipse cx="137.2246" cy="23" fill="#352866" rx="11" ry="11" style="stroke:#E7E7E7;stroke-width:1.0;"/><path d="M133.1465,18.7656 L133.1465,16.6094 L140.5371,16.6094 L140.5371,18.7656 L138.0684,18.7656 L138.0684,26.8438 L140.5371,26.8438 L140.5371,29 L133.1465,29 L133.1465,26.8438 L135.6152,26.8438 L135.6152,18.7656 L133.1465,18.7656 Z " fill="#FFFFFF"/><text fill="#FFFFFF" font-family="sans-serif" font-size="14" font-style="italic" lengthAdjust="spacing" textLength="99.5176" x="157.7246" y="27.8467">FileRepository</text><line style="stroke:#E7E7E7;stroke-width:0.5;" x1="8" x2="374.4668" y1="39" y2="39"/><line style="stroke:#E7E7E7;stroke-width:0.5;" x1="8" x2="374.4668" y1="47" y2="47"/><ellipse cx="18" cy="60.6484" fill="#84BE84" rx="3" ry="3" style="stroke:#038048;stroke-width:1.0;"/><text fill="#FFFFFF" font-family="sans-serif" font-size="14" lengthAdjust="spacing" textLength="141.5996" x="27" y="63.9951">get(FilePointer): File</text><ellipse cx="18" cy="76.9453" fill="#84BE84" rx="3" ry="3" style="stroke:#038048;stroke-width:1.0;"/><text fill="#FFFFFF" font-family="sans-serif" font-size="14" lengthAdjust="spacing" textLength="170.5225" x="27" y="80.292">tryGet(FilePointer): ?File</text><ellipse cx="18" cy="93.2422" fill="#84BE84" rx="3" ry="3" style="stroke:#038048;stroke-width:1.0;"/><text fill="#FFFFFF" font-family="sans-serif" font-size="14" lengthAdjust="spacing" textLength="213.0352" x="27" y="96.5889">getReference(FilePointer): File</text><ellipse cx="18" cy="109.5391" fill="#84BE84" rx="3" ry="3" style="stroke:#038048;stroke-width:1.0;"/><text fill="#FFFFFF" font-family="sans-serif" font-size="14" lengthAdjust="spacing" textLength="84.2529" x="27" y="112.8857">clear(): void</text><ellipse cx="18" cy="125.8359" fill="#84BE84" rx="3" ry="3" style="stroke:#038048;stroke-width:1.0;"/><text fill="#FFFFFF" font-family="sans-serif" font-size="14" lengthAdjust="spacing" textLength="256.6279" x="27" y="129.1826">createFromString(FilePointer, string)</text><ellipse cx="18" cy="142.1328" fill="#84BE84" rx="3" ry="3" style="stroke:#038048;stroke-width:1.0;"/><text fill="#FFFFFF" font-family="sans-serif" font-size="14" lengthAdjust="spacing" textLength="342.4668" x="27" y="145.4795">createFromStream(FilePointer, resource|Stream)</text><ellipse cx="18" cy="158.4297" fill="#84BE84" rx="3" ry="3" style="stroke:#038048;stroke-width:1.0;"/><text fill="#FFFFFF" font-family="sans-serif" font-size="14" lengthAdjust="spacing" textLength="275.8232" x="27" y="161.7764">createFromLocalFile(FilePointer, string)</text><ellipse cx="18" cy="174.7266" fill="#84BE84" rx="3" ry="3" style="stroke:#038048;stroke-width:1.0;"/><text fill="#FFFFFF" font-family="sans-serif" font-size="14" lengthAdjust="spacing" textLength="167.8975" x="27" y="178.0732">delete(FilePointer): void</text><ellipse cx="18" cy="191.0234" fill="#84BE84" rx="3" ry="3" style="stroke:#038048;stroke-width:1.0;"/><text fill="#FFFFFF" font-family="sans-serif" font-size="14" lengthAdjust="spacing" textLength="293.3438" x="27" y="194.3701">copy(File|FilePointer, File|FilePointer): File</text><ellipse cx="18" cy="207.3203" fill="#84BE84" rx="3" ry="3" style="stroke:#038048;stroke-width:1.0;"/><text fill="#FFFFFF" font-family="sans-serif" font-size="14" lengthAdjust="spacing" textLength="299.0107" x="27" y="210.667">move(File|FilePointer, File|FilePointer): File</text><ellipse cx="18" cy="223.6172" fill="#84BE84" rx="3" ry="3" style="stroke:#038048;stroke-width:1.0;"/><text fill="#FFFFFF" font-family="sans-serif" font-size="14" lengthAdjust="spacing" textLength="156.748" x="27" y="226.9639">createTemporaryFile()</text></g><!--class DirectoryInterface--><g id="elem_DirectoryInterface"><rect codeLine="15" fill="#313139" height="64.2969" id="DirectoryInterface" rx="2.5" ry="2.5" style="stroke:#E7E7E7;stroke-width:0.5;" width="159.5107" x="523.5" y="88.5"/><ellipse cx="538.5" cy="104.5" fill="#352866" rx="11" ry="11" style="stroke:#E7E7E7;stroke-width:1.0;"/><path d="M534.4219,100.2656 L534.4219,98.1094 L541.8125,98.1094 L541.8125,100.2656 L539.3438,100.2656 L539.3438,108.3438 L541.8125,108.3438 L541.8125,110.5 L534.4219,110.5 L534.4219,108.3438 L536.8906,108.3438 L536.8906,100.2656 L534.4219,100.2656 Z " fill="#FFFFFF"/><text fill="#FFFFFF" font-family="sans-serif" font-size="14" font-style="italic" lengthAdjust="spacing" textLength="127.5107" x="552.5" y="109.3467">DirectoryInterface</text><line style="stroke:#E7E7E7;stroke-width:0.5;" x1="524.5" x2="682.0107" y1="120.5" y2="120.5"/><ellipse cx="534.5" cy="134.1484" fill="none" rx="3" ry="3" style="stroke:#038048;stroke-width:1.0;"/><text fill="#FFFFFF" font-family="sans-serif" font-size="14" lengthAdjust="spacing" textLength="114.6182" x="543.5" y="137.4951">name: FileName</text><line style="stroke:#E7E7E7;stroke-width:0.5;" x1="524.5" x2="682.0107" y1="144.7969" y2="144.7969"/></g><!--class FilePointer--><g id="elem_FilePointer"><rect codeLine="19" fill="#313139" height="113.1875" id="FilePointer" rx="2.5" ry="2.5" style="stroke:#E7E7E7;stroke-width:0.5;" width="305.1934" x="244.5" y="294"/><ellipse cx="355.8096" cy="310" fill="#352866" rx="11" ry="11" style="stroke:#E7E7E7;stroke-width:1.0;"/><path d="M351.7314,305.7656 L351.7314,303.6094 L359.1221,303.6094 L359.1221,305.7656 L356.6533,305.7656 L356.6533,313.8438 L359.1221,313.8438 L359.1221,316 L351.7314,316 L351.7314,313.8438 L354.2002,313.8438 L354.2002,305.7656 L351.7314,305.7656 Z " fill="#FFFFFF"/><text fill="#FFFFFF" font-family="sans-serif" font-size="14" font-style="italic" lengthAdjust="spacing" textLength="74.0742" x="376.3096" y="314.8467">FilePointer</text><line style="stroke:#E7E7E7;stroke-width:0.5;" x1="245.5" x2="548.6934" y1="326" y2="326"/><text fill="#FFFFFF" font-family="sans-serif" font-size="14" lengthAdjust="spacing" textLength="184.3584" x="250.5" y="342.9951">filesystemIdentifier: string</text><text fill="#FFFFFF" font-family="sans-serif" font-size="14" lengthAdjust="spacing" textLength="74.3613" x="250.5" y="359.292">key: string</text><line style="stroke:#E7E7E7;stroke-width:0.5;" x1="245.5" x2="548.6934" y1="366.5938" y2="366.5938"/><ellipse cx="255.5" cy="380.2422" fill="#84BE84" rx="3" ry="3" style="stroke:#038048;stroke-width:1.0;"/><text fill="#FFFFFF" font-family="sans-serif" font-size="14" lengthAdjust="spacing" textLength="220.6094" x="264.5" y="383.5889">isEqualTo(File|FilePointer): bool</text><ellipse cx="255.5" cy="396.5391" fill="#84BE84" rx="3" ry="3" style="stroke:#038048;stroke-width:1.0;"/><text fill="#FFFFFF" font-family="sans-serif" font-size="14" lengthAdjust="spacing" textLength="279.1934" x="264.5" y="399.8857">isSameFilesystem(File|FilePointer): bool</text></g><!--class File--><g id="elem_File"><rect codeLine="35" fill="#313139" height="357.6406" id="File" rx="2.5" ry="2.5" style="stroke:#E7E7E7;stroke-width:0.5;" width="356.6133" x="219" y="471"/><ellipse cx="380.834" cy="487" fill="#352866" rx="11" ry="11" style="stroke:#E7E7E7;stroke-width:1.0;"/><path d="M376.7559,482.7656 L376.7559,480.6094 L384.1465,480.6094 L384.1465,482.7656 L381.6777,482.7656 L381.6777,490.8438 L384.1465,490.8438 L384.1465,493 L376.7559,493 L376.7559,490.8438 L379.2246,490.8438 L379.2246,482.7656 L376.7559,482.7656 Z " fill="#FFFFFF"/><text fill="#FFFFFF" font-family="sans-serif" font-size="14" font-style="italic" lengthAdjust="spacing" textLength="24.4453" x="401.334" y="491.8467">File</text><line style="stroke:#E7E7E7;stroke-width:0.5;" x1="220" x2="574.6133" y1="503" y2="503"/><ellipse cx="230" cy="516.6484" fill="none" rx="3" ry="3" style="stroke:#038048;stroke-width:1.0;"/><text fill="#FFFFFF" font-family="sans-serif" font-size="14" lengthAdjust="spacing" textLength="191.7891" x="239" y="519.9951">filesystemIdentifier: ?string</text><ellipse cx="230" cy="532.9453" fill="none" rx="3" ry="3" style="stroke:#038048;stroke-width:1.0;"/><text fill="#FFFFFF" font-family="sans-serif" font-size="14" lengthAdjust="spacing" textLength="74.3613" x="239" y="536.292">key: string</text><ellipse cx="230" cy="549.2422" fill="none" rx="3" ry="3" style="stroke:#038048;stroke-width:1.0;"/><text fill="#FFFFFF" font-family="sans-serif" font-size="14" lengthAdjust="spacing" textLength="133.3145" x="239" y="552.5889">pointer: FilePointer</text><ellipse cx="230" cy="565.5391" fill="none" rx="3" ry="3" style="stroke:#038048;stroke-width:1.0;"/><text fill="#FFFFFF" font-family="sans-serif" font-size="14" lengthAdjust="spacing" textLength="114.6182" x="239" y="568.8857">name: FileName</text><ellipse cx="230" cy="581.8359" fill="none" rx="3" ry="3" style="stroke:#038048;stroke-width:1.0;"/><text fill="#FFFFFF" font-family="sans-serif" font-size="14" lengthAdjust="spacing" textLength="102.9561" x="239" y="585.1826">content: string</text><ellipse cx="230" cy="598.1328" fill="none" rx="3" ry="3" style="stroke:#038048;stroke-width:1.0;"/><text fill="#FFFFFF" font-family="sans-serif" font-size="14" lengthAdjust="spacing" textLength="181.5625" x="239" y="601.4795">contentAsStream: Stream</text><ellipse cx="230" cy="614.4297" fill="none" rx="3" ry="3" style="stroke:#038048;stroke-width:1.0;"/><text fill="#FFFFFF" font-family="sans-serif" font-size="14" lengthAdjust="spacing" textLength="99.2236" x="239" y="617.7764">type: FileType</text><ellipse cx="230" cy="630.7266" fill="none" rx="3" ry="3" style="stroke:#038048;stroke-width:1.0;"/><text fill="#FFFFFF" font-family="sans-serif" font-size="14" lengthAdjust="spacing" textLength="54.5645" x="239" y="634.0732">size: int</text><ellipse cx="230" cy="647.0234" fill="none" rx="3" ry="3" style="stroke:#038048;stroke-width:1.0;"/><text fill="#FFFFFF" font-family="sans-serif" font-size="14" lengthAdjust="spacing" textLength="162.3125" x="239" y="650.3701">lastModified: DateTime</text><line style="stroke:#E7E7E7;stroke-width:0.5;" x1="220" x2="574.6133" y1="657.6719" y2="657.6719"/><ellipse cx="230" cy="671.3203" fill="#84BE84" rx="3" ry="3" style="stroke:#038048;stroke-width:1.0;"/><text fill="#FFFFFF" font-family="sans-serif" font-size="14" lengthAdjust="spacing" textLength="220.6094" x="239" y="674.667">isEqualTo(File|FilePointer): bool</text><ellipse cx="230" cy="687.6172" fill="#84BE84" rx="3" ry="3" style="stroke:#038048;stroke-width:1.0;"/><text fill="#FFFFFF" font-family="sans-serif" font-size="14" lengthAdjust="spacing" textLength="279.1934" x="239" y="690.9639">isSameFilesystem(File|FilePointer): bool</text><ellipse cx="230" cy="703.9141" fill="#84BE84" rx="3" ry="3" style="stroke:#038048;stroke-width:1.0;"/><text fill="#FFFFFF" font-family="sans-serif" font-size="14" lengthAdjust="spacing" textLength="152.6055" x="239" y="707.2607">setName(string): void</text><ellipse cx="230" cy="720.2109" fill="#84BE84" rx="3" ry="3" style="stroke:#038048;stroke-width:1.0;"/><text fill="#FFFFFF" font-family="sans-serif" font-size="14" lengthAdjust="spacing" textLength="166.9814" x="239" y="723.5576">setContent(string): void</text><ellipse cx="230" cy="736.5078" fill="#84BE84" rx="3" ry="3" style="stroke:#038048;stroke-width:1.0;"/><text fill="#FFFFFF" font-family="sans-serif" font-size="14" lengthAdjust="spacing" textLength="330.6133" x="239" y="739.8545">setContentFromStream(resource|Stream): void</text><ellipse cx="230" cy="752.8047" fill="#84BE84" rx="3" ry="3" style="stroke:#038048;stroke-width:1.0;"/><text fill="#FFFFFF" font-family="sans-serif" font-size="14" lengthAdjust="spacing" textLength="243.749" x="239" y="756.1514">saveToLocalFile(string): SplFileInfo</text><ellipse cx="230" cy="769.1016" fill="#84BE84" rx="3" ry="3" style="stroke:#038048;stroke-width:1.0;"/><text fill="#FFFFFF" font-family="sans-serif" font-size="14" lengthAdjust="spacing" textLength="275.0508" x="239" y="772.4482">createLocalTemporaryFile(): SplFileInfo</text><ellipse cx="230" cy="785.3984" fill="#84BE84" rx="3" ry="3" style="stroke:#038048;stroke-width:1.0;"/><text fill="#FFFFFF" font-family="sans-serif" font-size="14" lengthAdjust="spacing" textLength="145.6396" x="239" y="788.7451">setType(string): void</text><ellipse cx="230" cy="801.6953" fill="#84BE84" rx="3" ry="3" style="stroke:#038048;stroke-width:1.0;"/><text fill="#FFFFFF" font-family="sans-serif" font-size="14" lengthAdjust="spacing" textLength="230.0635" x="239" y="805.042">getDerivation(string): FilePointer</text><ellipse cx="230" cy="817.9922" fill="#84BE84" rx="3" ry="3" style="stroke:#038048;stroke-width:1.0;"/><text fill="#FFFFFF" font-family="sans-serif" font-size="14" lengthAdjust="spacing" textLength="126.5811" x="239" y="821.3389">get(string): mixed</text></g><!--class FileName--><g id="elem_FileName"><rect codeLine="60" fill="#313139" height="162.0781" id="FileName" rx="2.5" ry="2.5" style="stroke:#E7E7E7;stroke-width:0.5;" width="206.0313" x="563" y="892"/><ellipse cx="628.8916" cy="908" fill="#352866" rx="11" ry="11" style="stroke:#E7E7E7;stroke-width:1.0;"/><path d="M624.8135,903.7656 L624.8135,901.6094 L632.2041,901.6094 L632.2041,903.7656 L629.7354,903.7656 L629.7354,911.8438 L632.2041,911.8438 L632.2041,914 L624.8135,914 L624.8135,911.8438 L627.2822,911.8438 L627.2822,903.7656 L624.8135,903.7656 Z " fill="#FFFFFF"/><text fill="#FFFFFF" font-family="sans-serif" font-size="14" font-style="italic" lengthAdjust="spacing" textLength="65.748" x="649.3916" y="912.8467">FileName</text><line style="stroke:#E7E7E7;stroke-width:0.5;" x1="564" x2="768.0313" y1="924" y2="924"/><ellipse cx="574" cy="937.6484" fill="none" rx="3" ry="3" style="stroke:#038048;stroke-width:1.0;"/><text fill="#FFFFFF" font-family="sans-serif" font-size="14" lengthAdjust="spacing" textLength="162.6338" x="583" y="940.9951">full: string|Translatable</text><ellipse cx="574" cy="953.9453" fill="none" rx="3" ry="3" style="stroke:#038048;stroke-width:1.0;"/><text fill="#FFFFFF" font-family="sans-serif" font-size="14" lengthAdjust="spacing" textLength="174.4258" x="583" y="957.292">base: string|Translatable</text><ellipse cx="574" cy="970.2422" fill="none" rx="3" ry="3" style="stroke:#038048;stroke-width:1.0;"/><text fill="#FFFFFF" font-family="sans-serif" font-size="14" lengthAdjust="spacing" textLength="117.8516" x="583" y="973.5889">extension: string</text><line style="stroke:#E7E7E7;stroke-width:0.5;" x1="564" x2="768.0313" y1="980.8906" y2="980.8906"/><ellipse cx="574" cy="994.5391" fill="#84BE84" rx="3" ry="3" style="stroke:#038048;stroke-width:1.0;"/><text fill="#FFFFFF" font-family="sans-serif" font-size="14" lengthAdjust="spacing" textLength="136.0078" x="583" y="997.8857">setFull(string): void</text><ellipse cx="574" cy="1010.8359" fill="#84BE84" rx="3" ry="3" style="stroke:#038048;stroke-width:1.0;"/><text fill="#FFFFFF" font-family="sans-serif" font-size="14" lengthAdjust="spacing" textLength="145.3936" x="583" y="1014.1826">setBase(string): void</text><ellipse cx="574" cy="1027.1328" fill="#84BE84" rx="3" ry="3" style="stroke:#038048;stroke-width:1.0;"/><text fill="#FFFFFF" font-family="sans-serif" font-size="14" lengthAdjust="spacing" textLength="180.0313" x="583" y="1030.4795">setExtension(string): void</text><ellipse cx="574" cy="1043.4297" fill="#84BE84" rx="3" ry="3" style="stroke:#038048;stroke-width:1.0;"/><text fill="#FFFFFF" font-family="sans-serif" font-size="14" lengthAdjust="spacing" textLength="143.4727" x="583" y="1046.7764">hasExtension(): bool</text></g><!--class FileType--><g id="elem_FileType"><rect codeLine="70" fill="#313139" height="145.7813" id="FileType" rx="2.5" ry="2.5" style="stroke:#E7E7E7;stroke-width:0.5;" width="244.8936" x="274.5" y="900"/><ellipse cx="363.3057" cy="916" fill="#352866" rx="11" ry="11" style="stroke:#E7E7E7;stroke-width:1.0;"/><path d="M359.2275,911.7656 L359.2275,909.6094 L366.6182,909.6094 L366.6182,911.7656 L364.1494,911.7656 L364.1494,919.8438 L366.6182,919.8438 L366.6182,922 L359.2275,922 L359.2275,919.8438 L361.6963,919.8438 L361.6963,911.7656 L359.2275,911.7656 Z " fill="#FFFFFF"/><text fill="#FFFFFF" font-family="sans-serif" font-size="14" font-style="italic" lengthAdjust="spacing" textLength="58.7822" x="383.8057" y="920.8467">FileType</text><line style="stroke:#E7E7E7;stroke-width:0.5;" x1="275.5" x2="518.3936" y1="932" y2="932"/><ellipse cx="285.5" cy="945.6484" fill="none" rx="3" ry="3" style="stroke:#038048;stroke-width:1.0;"/><text fill="#FFFFFF" font-family="sans-serif" font-size="14" lengthAdjust="spacing" textLength="89.0586" x="294.5" y="948.9951">name: string</text><ellipse cx="285.5" cy="961.9453" fill="none" rx="3" ry="3" style="stroke:#038048;stroke-width:1.0;"/><text fill="#FFFFFF" font-family="sans-serif" font-size="14" lengthAdjust="spacing" textLength="80.6299" x="294.5" y="965.292">type: string</text><ellipse cx="285.5" cy="978.2422" fill="none" rx="3" ry="3" style="stroke:#038048;stroke-width:1.0;"/><text fill="#FFFFFF" font-family="sans-serif" font-size="14" lengthAdjust="spacing" textLength="108.7461" x="294.5" y="981.5889">subType: string</text><ellipse cx="285.5" cy="994.5391" fill="none" rx="3" ry="3" style="stroke:#038048;stroke-width:1.0;"/><text fill="#FFFFFF" font-family="sans-serif" font-size="14" lengthAdjust="spacing" textLength="183.1211" x="294.5" y="997.8857">commonExtensions: array</text><ellipse cx="285.5" cy="1010.8359" fill="none" rx="3" ry="3" style="stroke:#038048;stroke-width:1.0;"/><text fill="#FFFFFF" font-family="sans-serif" font-size="14" lengthAdjust="spacing" textLength="125.2822" x="294.5" y="1014.1826">extension: ?string</text><ellipse cx="285.5" cy="1027.1328" fill="none" rx="3" ry="3" style="stroke:#038048;stroke-width:1.0;"/><text fill="#FFFFFF" font-family="sans-serif" font-size="14" lengthAdjust="spacing" textLength="218.8936" x="294.5" y="1030.4795">description: string|Translatable</text><line style="stroke:#E7E7E7;stroke-width:0.5;" x1="275.5" x2="518.3936" y1="1037.7813" y2="1037.7813"/></g><!--reverse link DirectoryInterface to FilePointer--><g id="link_DirectoryInterface_FilePointer"><path codeLine="26" d="M563.2163,165.535 C530.1563,202.135 485.91,251.1 447.22,293.91 " fill="none" id="DirectoryInterface-backto-FilePointer" style="stroke:#E7E7E7;stroke-width:1.0;"/><polygon fill="none" points="571.26,156.63,564.2698,158.4013,563.2163,165.535,570.2065,163.7637,571.26,156.63" style="stroke:#E7E7E7;stroke-width:1.0;"/></g><!--reverse link DirectoryInterface to File--><g id="link_DirectoryInterface_File"><path codeLine="27" d="M604.0052,168.6598 C604.3052,223.8898 600.1,321.51 567,407 C559.18,427.2 549.31,447.31 538.28,466.81 " fill="none" id="DirectoryInterface-backto-File" style="stroke:#E7E7E7;stroke-width:1.0;"/><polygon fill="none" points="603.94,156.66,599.9726,162.6816,604.0052,168.6598,607.9725,162.6382,603.94,156.66" style="stroke:#E7E7E7;stroke-width:1.0;"/></g><!--reverse link DirectoryInterface to DirectoryInterface--><g id="link_DirectoryInterface_DirectoryInterface"><path codeLine="28" d="M657.9833,79.748 C696.1533,63.328 725.5,80.07 725.5,120.5 C725.5,160.93 685.13,172.93 646.96,156.51 " fill="none" id="DirectoryInterface-backto-DirectoryInterface" style="stroke:#E7E7E7;stroke-width:1.0;"/><polygon fill="none" points="646.96,84.49,654.0523,85.7934,657.9833,79.748,650.891,78.4446,646.96,84.49" style="stroke:#E7E7E7;stroke-width:1.0;"/></g><!--reverse link DirectoryInterface to FileName--><g id="link_DirectoryInterface_FileName"><path codeLine="29" d="M696,132.5 C846.97,132.5 729.86,682.05 684.23,891.89 " fill="none" id="DirectoryInterface-backto-FileName" style="stroke:#E7E7E7;stroke-width:1.0;"/><polygon fill="#E7E7E7" points="684,132.5,690,136.5,696,132.5,690,128.5,684,132.5" style="stroke:#E7E7E7;stroke-width:1.0;"/></g><!--reverse link FileRepository to File--><g id="link_FileRepository_File"><path codeLine="31" d="M193.4868,246.0187 C197.3868,299.8687 205.85,352.37 227,407 C234.82,427.2 244.69,447.31 255.72,466.81 " fill="none" id="FileRepository-backto-File" style="stroke:#E7E7E7;stroke-width:1.0;"/><polygon fill="none" points="192.62,234.05,189.0639,240.3233,193.4868,246.0187,197.043,239.7454,192.62,234.05" style="stroke:#E7E7E7;stroke-width:1.0;"/></g><!--link FilePointer to File--><g id="link_FilePointer_File"><path codeLine="32" d="M518.57,407.1 C541.14,423.14 561.75,442.97 575,467 C592.27,498.33 623.78,547.5 588,547.5 " fill="none" id="FilePointer-to-File" style="stroke:#E7E7E7;stroke-width:1.0;"/><polygon fill="#E7E7E7" points="576,547.5,582,551.5,588,547.5,582,543.5,576,547.5" style="stroke:#E7E7E7;stroke-width:1.0;"/></g><!--link FilePointer to File--><g id="link_FilePointer_File"><path codeLine="33" d="M397,407.02 C397,424.64 397,445.2 397,466.74 " fill="none" id="FilePointer-File" style="stroke:#E7E7E7;stroke-width:1.0;"/></g><!--reverse link File to FileName--><g id="link_File_FileName"><path codeLine="57" d="M588,563.5 C604.63,563.5 631.57,772.81 652.36,891.78 " fill="none" id="File-backto-FileName" style="stroke:#E7E7E7;stroke-width:1.0;"/><polygon fill="#E7E7E7" points="576,563.5,582,567.5,588,563.5,582,559.5,576,563.5" style="stroke:#E7E7E7;stroke-width:1.0;"/></g><!--reverse link File to FileType--><g id="link_File_FileType"><path codeLine="58" d="M588,612.5 C685.56,612.5 617.82,744.34 575,832 C562.23,858.14 541.97,880.87 519.61,899.97 " fill="none" id="File-backto-FileType" style="stroke:#E7E7E7;stroke-width:1.0;"/><polygon fill="#E7E7E7" points="576,612.5,582,616.5,588,612.5,582,608.5,576,612.5" style="stroke:#E7E7E7;stroke-width:1.0;"/></g><!--SRC=[jLNRZjem47tdA_88k-K7yh9gbwL2QgjgoG-OP60jR4zg6xHfsN-lRoHsOf3wK5x0PyxSpdYCEbBH4aaum_e8JR4ZzV4WyIIQPsGe2os9K8O0Gi-eq23tf8PYJHcyGekAQfHTyMTMcC_Z0VJSMdwYOovAn_CsBRkl4_FJO3U-hx07awU6cq5g1aJE3NH6sWH80j6mbiYtMb9nY7q_5SfXYmmL24-f4XIUP0qNRvpuVCEQCEjn9qC33FIu_AXMR3jdl2GXnaZICiSp_AkFBxe2tg8aidD5BsOVisY0AogXjhFRz50OeY0SVB0VvbVg5IKCzBr1LASqy4rZhWZTKv1b4CKHZj0bvqUgNdwT2AjmdkbXXyYkjAr9l-x3tsIR0ZFDu78PLtkFSiisXJFCihHw5GyXbfDiDjeE4onaYlLRBXySM9Pjg36rUe-H-DSXvML_YdMU21_Ib8ak_sKakNlaC0NQ7kPXQUBTCAPdD464lc-DrdUyiUcgENQgG00_A-zG5luxf21dg73OyhwARUk0ZTXZl5wEETgn35btRP2XCh_wRkmXsoZzRUX6JNzaHEdlsDZvDcMnibjD-V1Yha3ICz4KnH1hCbtxAlTMJj-XiJlZhzxqydhSLjtZhl3HHRJS_ZAU6BiAVQdi_mKZckpOqEtQC7BTxeY2-vvV32Fd2UzcaieqdaxOUBnSBJctDw86U_I2fCtPXjFdCCxX9vfaFUsg2LWZvoZwRAeiY9IacvIVB6q3gfQqrL5ZgIuVVm40]--></g></svg>