<?xml version="1.0" encoding="us-ascii" standalone="no"?><svg xmlns="http://www.w3.org/2000/svg" xmlns:xlink="http://www.w3.org/1999/xlink" contentStyleType="text/css" height="1061px" preserveAspectRatio="none" style="width:698px;height:1061px;" version="1.1" viewBox="0 0 698 1061" width="698px" zoomAndPan="magnify"><defs/><g><!--class FileRepository--><g id="elem_FileRepository"><rect codeLine="1" fill="#313139" height="227.2656" id="FileRepository" rx="2.5" ry="2.5" style="stroke:#E7E7E7;stroke-width:0.5;" width="360" x="7" y="7"/><ellipse cx="134.25" cy="23" fill="#352866" rx="11" ry="11" style="stroke:#E7E7E7;stroke-width:1.0;"/><path d="M130.1719,18.7656 L130.1719,16.6094 L137.5625,16.6094 L137.5625,18.7656 L135.0938,18.7656 L135.0938,26.8438 L137.5625,26.8438 L137.5625,29 L130.1719,29 L130.1719,26.8438 L132.6406,26.8438 L132.6406,18.7656 L130.1719,18.7656 Z " fill="#FFFFFF"/><text fill="#FFFFFF" font-family="sans-serif" font-size="14" font-style="italic" lengthAdjust="spacing" textLength="97" x="154.75" y="27.8467">FileRepository</text><line style="stroke:#E7E7E7;stroke-width:0.5;" x1="8" x2="366" y1="39" y2="39"/><line style="stroke:#E7E7E7;stroke-width:0.5;" x1="8" x2="366" y1="47" y2="47"/><ellipse cx="18" cy="60.6484" fill="#84BE84" rx="3" ry="3" style="stroke:#038048;stroke-width:1.0;"/><text fill="#FFFFFF" font-family="sans-serif" font-size="14" lengthAdjust="spacing" textLength="137" x="27" y="63.9951">get(FilePointer): File</text><ellipse cx="18" cy="76.9453" fill="#84BE84" rx="3" ry="3" style="stroke:#038048;stroke-width:1.0;"/><text fill="#FFFFFF" font-family="sans-serif" font-size="14" lengthAdjust="spacing" textLength="163" x="27" y="80.292">tryGet(FilePointer): ?File</text><ellipse cx="18" cy="93.2422" fill="#84BE84" rx="3" ry="3" style="stroke:#038048;stroke-width:1.0;"/><text fill="#FFFFFF" font-family="sans-serif" font-size="14" lengthAdjust="spacing" textLength="209" x="27" y="96.5889">getReference(FilePointer): File</text><ellipse cx="18" cy="109.5391" fill="#84BE84" rx="3" ry="3" style="stroke:#038048;stroke-width:1.0;"/><text fill="#FFFFFF" font-family="sans-serif" font-size="14" lengthAdjust="spacing" textLength="80" x="27" y="112.8857">clear(): void</text><ellipse cx="18" cy="125.8359" fill="#84BE84" rx="3" ry="3" style="stroke:#038048;stroke-width:1.0;"/><text fill="#FFFFFF" font-family="sans-serif" font-size="14" lengthAdjust="spacing" textLength="248" x="27" y="129.1826">createFromString(FilePointer, string)</text><ellipse cx="18" cy="142.1328" fill="#84BE84" rx="3" ry="3" style="stroke:#038048;stroke-width:1.0;"/><text fill="#FFFFFF" font-family="sans-serif" font-size="14" lengthAdjust="spacing" textLength="334" x="27" y="145.4795">createFromStream(FilePointer, resource|Stream)</text><ellipse cx="18" cy="158.4297" fill="#84BE84" rx="3" ry="3" style="stroke:#038048;stroke-width:1.0;"/><text fill="#FFFFFF" font-family="sans-serif" font-size="14" lengthAdjust="spacing" textLength="266" x="27" y="161.7764">createFromLocalFile(FilePointer, string)</text><ellipse cx="18" cy="174.7266" fill="#84BE84" rx="3" ry="3" style="stroke:#038048;stroke-width:1.0;"/><text fill="#FFFFFF" font-family="sans-serif" font-size="14" lengthAdjust="spacing" textLength="163" x="27" y="178.0732">delete(FilePointer): void</text><ellipse cx="18" cy="191.0234" fill="#84BE84" rx="3" ry="3" style="stroke:#038048;stroke-width:1.0;"/><text fill="#FFFFFF" font-family="sans-serif" font-size="14" lengthAdjust="spacing" textLength="283" x="27" y="194.3701">copy(File|FilePointer, File|FilePointer): File</text><ellipse cx="18" cy="207.3203" fill="#84BE84" rx="3" ry="3" style="stroke:#038048;stroke-width:1.0;"/><text fill="#FFFFFF" font-family="sans-serif" font-size="14" lengthAdjust="spacing" textLength="288" x="27" y="210.667">move(File|FilePointer, File|FilePointer): File</text><ellipse cx="18" cy="223.6172" fill="#84BE84" rx="3" ry="3" style="stroke:#038048;stroke-width:1.0;"/><text fill="#FFFFFF" font-family="sans-serif" font-size="14" lengthAdjust="spacing" textLength="151" x="27" y="226.9639">createTemporaryFile()</text></g><!--class FilePointer--><g id="elem_FilePointer"><rect codeLine="15" fill="#313139" height="113.1875" id="FilePointer" rx="2.5" ry="2.5" style="stroke:#E7E7E7;stroke-width:0.5;" width="298" x="240" y="294"/><ellipse cx="349.25" cy="310" fill="#352866" rx="11" ry="11" style="stroke:#E7E7E7;stroke-width:1.0;"/><path d="M345.1719,305.7656 L345.1719,303.6094 L352.5625,303.6094 L352.5625,305.7656 L350.0938,305.7656 L350.0938,313.8438 L352.5625,313.8438 L352.5625,316 L345.1719,316 L345.1719,313.8438 L347.6406,313.8438 L347.6406,305.7656 L345.1719,305.7656 Z " fill="#FFFFFF"/><text fill="#FFFFFF" font-family="sans-serif" font-size="14" font-style="italic" lengthAdjust="spacing" textLength="71" x="369.75" y="314.8467">FilePointer</text><line style="stroke:#E7E7E7;stroke-width:0.5;" x1="241" x2="537" y1="326" y2="326"/><text fill="#FFFFFF" font-family="sans-serif" font-size="14" lengthAdjust="spacing" textLength="176" x="246" y="342.9951">filesystemIdentifier: string</text><text fill="#FFFFFF" font-family="sans-serif" font-size="14" lengthAdjust="spacing" textLength="72" x="246" y="359.292">key: string</text><line style="stroke:#E7E7E7;stroke-width:0.5;" x1="241" x2="537" y1="366.5938" y2="366.5938"/><ellipse cx="251" cy="380.2422" fill="#84BE84" rx="3" ry="3" style="stroke:#038048;stroke-width:1.0;"/><text fill="#FFFFFF" font-family="sans-serif" font-size="14" lengthAdjust="spacing" textLength="216" x="260" y="383.5889">isEqualTo(File|FilePointer): bool</text><ellipse cx="251" cy="396.5391" fill="#84BE84" rx="3" ry="3" style="stroke:#038048;stroke-width:1.0;"/><text fill="#FFFFFF" font-family="sans-serif" font-size="14" lengthAdjust="spacing" textLength="272" x="260" y="399.8857">isSameFilesystem(File|FilePointer): bool</text></g><!--class File--><g id="elem_File"><rect codeLine="26" fill="#313139" height="357.6406" id="File" rx="2.5" ry="2.5" style="stroke:#E7E7E7;stroke-width:0.5;" width="351" x="212.5" y="471"/><ellipse cx="372.25" cy="487" fill="#352866" rx="11" ry="11" style="stroke:#E7E7E7;stroke-width:1.0;"/><path d="M368.1719,482.7656 L368.1719,480.6094 L375.5625,480.6094 L375.5625,482.7656 L373.0938,482.7656 L373.0938,490.8438 L375.5625,490.8438 L375.5625,493 L368.1719,493 L368.1719,490.8438 L370.6406,490.8438 L370.6406,482.7656 L368.1719,482.7656 Z " fill="#FFFFFF"/><text fill="#FFFFFF" font-family="sans-serif" font-size="14" font-style="italic" lengthAdjust="spacing" textLength="23" x="392.75" y="491.8467">File</text><line style="stroke:#E7E7E7;stroke-width:0.5;" x1="213.5" x2="562.5" y1="503" y2="503"/><ellipse cx="223.5" cy="516.6484" fill="none" rx="3" ry="3" style="stroke:#038048;stroke-width:1.0;"/><text fill="#FFFFFF" font-family="sans-serif" font-size="14" lengthAdjust="spacing" textLength="183" x="232.5" y="519.9951">filesystemIdentifier: ?string</text><ellipse cx="223.5" cy="532.9453" fill="none" rx="3" ry="3" style="stroke:#038048;stroke-width:1.0;"/><text fill="#FFFFFF" font-family="sans-serif" font-size="14" lengthAdjust="spacing" textLength="72" x="232.5" y="536.292">key: string</text><ellipse cx="223.5" cy="549.2422" fill="none" rx="3" ry="3" style="stroke:#038048;stroke-width:1.0;"/><text fill="#FFFFFF" font-family="sans-serif" font-size="14" lengthAdjust="spacing" textLength="130" x="232.5" y="552.5889">pointer: FilePointer</text><ellipse cx="223.5" cy="565.5391" fill="none" rx="3" ry="3" style="stroke:#038048;stroke-width:1.0;"/><text fill="#FFFFFF" font-family="sans-serif" font-size="14" lengthAdjust="spacing" textLength="111" x="232.5" y="568.8857">name: FileName</text><ellipse cx="223.5" cy="581.8359" fill="none" rx="3" ry="3" style="stroke:#038048;stroke-width:1.0;"/><text fill="#FFFFFF" font-family="sans-serif" font-size="14" lengthAdjust="spacing" textLength="102" x="232.5" y="585.1826">content: string</text><ellipse cx="223.5" cy="598.1328" fill="none" rx="3" ry="3" style="stroke:#038048;stroke-width:1.0;"/><text fill="#FFFFFF" font-family="sans-serif" font-size="14" lengthAdjust="spacing" textLength="178" x="232.5" y="601.4795">contentAsStream: Stream</text><ellipse cx="223.5" cy="614.4297" fill="none" rx="3" ry="3" style="stroke:#038048;stroke-width:1.0;"/><text fill="#FFFFFF" font-family="sans-serif" font-size="14" lengthAdjust="spacing" textLength="96" x="232.5" y="617.7764">type: FileType</text><ellipse cx="223.5" cy="630.7266" fill="none" rx="3" ry="3" style="stroke:#038048;stroke-width:1.0;"/><text fill="#FFFFFF" font-family="sans-serif" font-size="14" lengthAdjust="spacing" textLength="54" x="232.5" y="634.0732">size: int</text><ellipse cx="223.5" cy="647.0234" fill="none" rx="3" ry="3" style="stroke:#038048;stroke-width:1.0;"/><text fill="#FFFFFF" font-family="sans-serif" font-size="14" lengthAdjust="spacing" textLength="158" x="232.5" y="650.3701">lastModified: DateTime</text><line style="stroke:#E7E7E7;stroke-width:0.5;" x1="213.5" x2="562.5" y1="657.6719" y2="657.6719"/><ellipse cx="223.5" cy="671.3203" fill="#84BE84" rx="3" ry="3" style="stroke:#038048;stroke-width:1.0;"/><text fill="#FFFFFF" font-family="sans-serif" font-size="14" lengthAdjust="spacing" textLength="216" x="232.5" y="674.667">isEqualTo(File|FilePointer): bool</text><ellipse cx="223.5" cy="687.6172" fill="#84BE84" rx="3" ry="3" style="stroke:#038048;stroke-width:1.0;"/><text fill="#FFFFFF" font-family="sans-serif" font-size="14" lengthAdjust="spacing" textLength="272" x="232.5" y="690.9639">isSameFilesystem(File|FilePointer): bool</text><ellipse cx="223.5" cy="703.9141" fill="#84BE84" rx="3" ry="3" style="stroke:#038048;stroke-width:1.0;"/><text fill="#FFFFFF" font-family="sans-serif" font-size="14" lengthAdjust="spacing" textLength="148" x="232.5" y="707.2607">setName(string): void</text><ellipse cx="223.5" cy="720.2109" fill="#84BE84" rx="3" ry="3" style="stroke:#038048;stroke-width:1.0;"/><text fill="#FFFFFF" font-family="sans-serif" font-size="14" lengthAdjust="spacing" textLength="164" x="232.5" y="723.5576">setContent(string): void</text><ellipse cx="223.5" cy="736.5078" fill="#84BE84" rx="3" ry="3" style="stroke:#038048;stroke-width:1.0;"/><text fill="#FFFFFF" font-family="sans-serif" font-size="14" lengthAdjust="spacing" textLength="325" x="232.5" y="739.8545">setContentFromStream(resource|Stream): void</text><ellipse cx="223.5" cy="752.8047" fill="#84BE84" rx="3" ry="3" style="stroke:#038048;stroke-width:1.0;"/><text fill="#FFFFFF" font-family="sans-serif" font-size="14" lengthAdjust="spacing" textLength="235" x="232.5" y="756.1514">saveToLocalFile(string): SplFileInfo</text><ellipse cx="223.5" cy="769.1016" fill="#84BE84" rx="3" ry="3" style="stroke:#038048;stroke-width:1.0;"/><text fill="#FFFFFF" font-family="sans-serif" font-size="14" lengthAdjust="spacing" textLength="264" x="232.5" y="772.4482">createLocalTemporaryFile(): SplFileInfo</text><ellipse cx="223.5" cy="785.3984" fill="#84BE84" rx="3" ry="3" style="stroke:#038048;stroke-width:1.0;"/><text fill="#FFFFFF" font-family="sans-serif" font-size="14" lengthAdjust="spacing" textLength="142" x="232.5" y="788.7451">setType(string): void</text><ellipse cx="223.5" cy="801.6953" fill="#84BE84" rx="3" ry="3" style="stroke:#038048;stroke-width:1.0;"/><text fill="#FFFFFF" font-family="sans-serif" font-size="14" lengthAdjust="spacing" textLength="222" x="232.5" y="805.042">getDerivation(string): FilePointer</text><ellipse cx="223.5" cy="817.9922" fill="#84BE84" rx="3" ry="3" style="stroke:#038048;stroke-width:1.0;"/><text fill="#FFFFFF" font-family="sans-serif" font-size="14" lengthAdjust="spacing" textLength="122" x="232.5" y="821.3389">get(string): mixed</text></g><!--class FileName--><g id="elem_FileName"><rect codeLine="51" fill="#313139" height="162.0781" id="FileName" rx="2.5" ry="2.5" style="stroke:#E7E7E7;stroke-width:0.5;" width="202" x="160" y="892"/><ellipse cx="224.75" cy="908" fill="#352866" rx="11" ry="11" style="stroke:#E7E7E7;stroke-width:1.0;"/><path d="M220.6719,903.7656 L220.6719,901.6094 L228.0625,901.6094 L228.0625,903.7656 L225.5938,903.7656 L225.5938,911.8438 L228.0625,911.8438 L228.0625,914 L220.6719,914 L220.6719,911.8438 L223.1406,911.8438 L223.1406,903.7656 L220.6719,903.7656 Z " fill="#FFFFFF"/><text fill="#FFFFFF" font-family="sans-serif" font-size="14" font-style="italic" lengthAdjust="spacing" textLength="64" x="245.25" y="912.8467">FileName</text><line style="stroke:#E7E7E7;stroke-width:0.5;" x1="161" x2="361" y1="924" y2="924"/><ellipse cx="171" cy="937.6484" fill="none" rx="3" ry="3" style="stroke:#038048;stroke-width:1.0;"/><text fill="#FFFFFF" font-family="sans-serif" font-size="14" lengthAdjust="spacing" textLength="156" x="180" y="940.9951">full: string|Translatable</text><ellipse cx="171" cy="953.9453" fill="none" rx="3" ry="3" style="stroke:#038048;stroke-width:1.0;"/><text fill="#FFFFFF" font-family="sans-serif" font-size="14" lengthAdjust="spacing" textLength="171" x="180" y="957.292">base: string|Translatable</text><ellipse cx="171" cy="970.2422" fill="none" rx="3" ry="3" style="stroke:#038048;stroke-width:1.0;"/><text fill="#FFFFFF" font-family="sans-serif" font-size="14" lengthAdjust="spacing" textLength="116" x="180" y="973.5889">extension: string</text><line style="stroke:#E7E7E7;stroke-width:0.5;" x1="161" x2="361" y1="980.8906" y2="980.8906"/><ellipse cx="171" cy="994.5391" fill="#84BE84" rx="3" ry="3" style="stroke:#038048;stroke-width:1.0;"/><text fill="#FFFFFF" font-family="sans-serif" font-size="14" lengthAdjust="spacing" textLength="131" x="180" y="997.8857">setFull(string): void</text><ellipse cx="171" cy="1010.8359" fill="#84BE84" rx="3" ry="3" style="stroke:#038048;stroke-width:1.0;"/><text fill="#FFFFFF" font-family="sans-serif" font-size="14" lengthAdjust="spacing" textLength="143" x="180" y="1014.1826">setBase(string): void</text><ellipse cx="171" cy="1027.1328" fill="#84BE84" rx="3" ry="3" style="stroke:#038048;stroke-width:1.0;"/><text fill="#FFFFFF" font-family="sans-serif" font-size="14" lengthAdjust="spacing" textLength="176" x="180" y="1030.4795">setExtension(string): void</text><ellipse cx="171" cy="1043.4297" fill="#84BE84" rx="3" ry="3" style="stroke:#038048;stroke-width:1.0;"/><text fill="#FFFFFF" font-family="sans-serif" font-size="14" lengthAdjust="spacing" textLength="142" x="180" y="1046.7764">hasExtension(): bool</text></g><!--class FileType--><g id="elem_FileType"><rect codeLine="61" fill="#313139" height="145.7813" id="FileType" rx="2.5" ry="2.5" style="stroke:#E7E7E7;stroke-width:0.5;" width="240" x="397" y="900"/><ellipse cx="483.75" cy="916" fill="#352866" rx="11" ry="11" style="stroke:#E7E7E7;stroke-width:1.0;"/><path d="M479.6719,911.7656 L479.6719,909.6094 L487.0625,909.6094 L487.0625,911.7656 L484.5938,911.7656 L484.5938,919.8438 L487.0625,919.8438 L487.0625,922 L479.6719,922 L479.6719,919.8438 L482.1406,919.8438 L482.1406,911.7656 L479.6719,911.7656 Z " fill="#FFFFFF"/><text fill="#FFFFFF" font-family="sans-serif" font-size="14" font-style="italic" lengthAdjust="spacing" textLength="58" x="504.25" y="920.8467">FileType</text><line style="stroke:#E7E7E7;stroke-width:0.5;" x1="398" x2="636" y1="932" y2="932"/><ellipse cx="408" cy="945.6484" fill="none" rx="3" ry="3" style="stroke:#038048;stroke-width:1.0;"/><text fill="#FFFFFF" font-family="sans-serif" font-size="14" lengthAdjust="spacing" textLength="87" x="417" y="948.9951">name: string</text><ellipse cx="408" cy="961.9453" fill="none" rx="3" ry="3" style="stroke:#038048;stroke-width:1.0;"/><text fill="#FFFFFF" font-family="sans-serif" font-size="14" lengthAdjust="spacing" textLength="78" x="417" y="965.292">type: string</text><ellipse cx="408" cy="978.2422" fill="none" rx="3" ry="3" style="stroke:#038048;stroke-width:1.0;"/><text fill="#FFFFFF" font-family="sans-serif" font-size="14" lengthAdjust="spacing" textLength="108" x="417" y="981.5889">subType: string</text><ellipse cx="408" cy="994.5391" fill="none" rx="3" ry="3" style="stroke:#038048;stroke-width:1.0;"/><text fill="#FFFFFF" font-family="sans-serif" font-size="14" lengthAdjust="spacing" textLength="179" x="417" y="997.8857">commonExtensions: array</text><ellipse cx="408" cy="1010.8359" fill="none" rx="3" ry="3" style="stroke:#038048;stroke-width:1.0;"/><text fill="#FFFFFF" font-family="sans-serif" font-size="14" lengthAdjust="spacing" textLength="123" x="417" y="1014.1826">extension: ?string</text><ellipse cx="408" cy="1027.1328" fill="none" rx="3" ry="3" style="stroke:#038048;stroke-width:1.0;"/><text fill="#FFFFFF" font-family="sans-serif" font-size="14" lengthAdjust="spacing" textLength="214" x="417" y="1030.4795">description: string|Translatable</text><line style="stroke:#E7E7E7;stroke-width:0.5;" x1="398" x2="636" y1="1037.7813" y2="1037.7813"/></g><!--reverse link FileRepository to File--><g id="link_FileRepository_File"><path codeLine="22" d="M189.8785,246.2371 C193.8685,299.9771 202.28,352.35 223,407 C230.65,427.18 240.31,447.31 251.1,466.86 " fill="none" id="FileRepository-backto-File" style="stroke:#E7E7E7;stroke-width:1.0;"/><polygon fill="none" points="188.99,234.27,185.4452,240.5497,189.8785,246.2371,193.4233,239.9574,188.99,234.27" style="stroke:#E7E7E7;stroke-width:1.0;"/></g><!--link FilePointer to File--><g id="link_FilePointer_File"><path codeLine="23" d="M508.11,407.13 C530.47,423.2 550.91,443.04 564,467 C581.15,498.4 612.78,547.5 577,547.5 " fill="none" id="FilePointer-to-File" style="stroke:#E7E7E7;stroke-width:1.0;"/><polygon fill="#E7E7E7" points="565,547.5,571,551.5,577,547.5,571,543.5,565,547.5" style="stroke:#E7E7E7;stroke-width:1.0;"/></g><!--link FilePointer to File--><g id="link_FilePointer_File"><path codeLine="24" d="M388.81,407.02 C388.75,424.64 388.68,445.2 388.61,466.74 " fill="none" id="FilePointer-File" style="stroke:#E7E7E7;stroke-width:1.0;"/></g><!--reverse link File to FileName--><g id="link_File_FileName"><path codeLine="48" d="M200,563.5 C69.11,563.5 162.71,772.81 219.67,891.78 " fill="none" id="File-backto-FileName" style="stroke:#E7E7E7;stroke-width:1.0;"/><polygon fill="#E7E7E7" points="212,563.5,206,559.5,200,563.5,206,567.5,212,563.5" style="stroke:#E7E7E7;stroke-width:1.0;"/></g><!--reverse link File to FileType--><g id="link_File_FileType"><path codeLine="49" d="M577,612.5 C691.76,612.5 606.79,794.7 555.23,899.68 " fill="none" id="File-backto-FileType" style="stroke:#E7E7E7;stroke-width:1.0;"/><polygon fill="#E7E7E7" points="565,612.5,571,616.5,577,612.5,571,608.5,565,612.5" style="stroke:#E7E7E7;stroke-width:1.0;"/></g><!--SRC=[jLJBRjim4BpxAtIqa_e7T0dQ90u2f4KHwmVMqjeXJ79LaZQYrldtyg47AIa6UgWl5cTdkJlS8VMHoHeK24xb4Qji1-NneEWagtlYf3AZG6fBG6aMJ1fKUoWnsp2EhrYJPePKa_rPPFPtUq2pT96Vv9chtFD2pAZcQHA-6-8sznNtQEkK-Eac9KTGImkTYLKjf10CRXI9hL5C7kBSBvdss6g6YY1Iga9D9rNY9GGdEIzK0dSPLofKoD6CsuzwfRhnmKkonHX990iwux_cXAOB53KfK8rlUhNuM8m6sAQsqzjRH3VQe7YkxB3Pdg7AMtcUSCGcMTyo_VZh1BoWvKmtEoBUqROWSDDl_odRDZZo5QtNww0hxdUzll5WdjS16KL3naXivz5vcNUnhedGjamUdzh_EGBFbfORQlsmNm7JQDnYsTejTfKDtPFTH9hhqSZuOw-d9lNiz0HQyAiE2NaM_jiISCQ2XllHTx6jFV0iznGRqpD7xfmXcwPkZw6mNxqQjvWLodvRkZtDiEIWpNUgt7ohF7jmzu69uQrvGCNEO1Z9OQ_9TDrxraS5UyUgysYUko5bDwtP_9m2xhhkST_uo8YEsvlnn7btq9V2lRGS3Epue7PZ6NDgTw3nUkOtovZBn7SxIMs5fnEs6OzTP2xj3VGGZsviAiu9xiG56ySrmaIJggTTCG5B4e9aNqtd6IW5pQJzvD9Mg4l5QXC9Iy_buoy0]--></g></svg>