<?xml version="1.0" encoding="us-ascii" standalone="no"?><svg xmlns="http://www.w3.org/2000/svg" xmlns:xlink="http://www.w3.org/1999/xlink" contentStyleType="text/css" height="433px" preserveAspectRatio="none" style="width:1084px;height:433px;" version="1.1" viewBox="0 0 1084 433" width="1084px" zoomAndPan="magnify"><defs/><g><!--entity file--><g id="elem_file"><rect fill="#313139" height="36.2969" rx="2.5" ry="2.5" style="stroke:#E7E7E7;stroke-width:0.5;" width="39" x="193.53" y="295"/><text fill="#FFFFFF" font-family="sans-serif" font-size="14" lengthAdjust="spacing" textLength="19" x="203.53" y="317.9951">file</text></g><!--entity file-contracts--><g id="elem_file-contracts"><rect fill="#313139" height="36.2969" rx="2.5" ry="2.5" style="stroke:#E7E7E7;stroke-width:0.5;" width="109" x="487.53" y="391"/><text fill="#FFFFFF" font-family="sans-serif" font-size="14" lengthAdjust="spacing" textLength="89" x="497.53" y="413.9951">file-contracts</text></g><!--entity file-metadata-contracts--><g id="elem_file-metadata-contracts"><rect fill="#313139" height="36.2969" rx="2.5" ry="2.5" style="stroke:#E7E7E7;stroke-width:0.5;" width="179" x="87.53" y="391"/><text fill="#FFFFFF" font-family="sans-serif" font-size="14" lengthAdjust="spacing" textLength="159" x="97.53" y="413.9951">file-metadata-contracts</text></g><!--entity file-association--><g id="elem_file-association"><rect fill="#313139" height="36.2969" rx="2.5" ry="2.5" style="stroke:#E7E7E7;stroke-width:0.5;" width="122" x="551.03" y="103"/><text fill="#FFFFFF" font-family="sans-serif" font-size="14" lengthAdjust="spacing" textLength="102" x="561.03" y="125.9951">file-association</text></g><!--entity file-association-contracts--><g id="elem_file-association-contracts"><rect fill="#313139" height="36.2969" rx="2.5" ry="2.5" style="stroke:#E7E7E7;stroke-width:0.5;" width="192" x="631.03" y="199"/><text fill="#FFFFFF" font-family="sans-serif" font-size="14" lengthAdjust="spacing" textLength="172" x="641.03" y="221.9951">file-association-contracts</text></g><!--entity file-bundle--><g id="elem_file-bundle"><rect fill="#313139" height="36.2969" rx="2.5" ry="2.5" style="stroke:#E7E7E7;stroke-width:0.5;" width="92" x="496.03" y="7"/><text fill="#FFFFFF" font-family="sans-serif" font-size="14" lengthAdjust="spacing" textLength="72" x="506.03" y="29.9951">file-bundle</text></g><!--entity file-image--><g id="elem_file-image"><rect fill="#313139" height="36.2969" rx="2.5" ry="2.5" style="stroke:#E7E7E7;stroke-width:0.5;" width="86" x="935.03" y="199"/><text fill="#FFFFFF" font-family="sans-serif" font-size="14" lengthAdjust="spacing" textLength="66" x="945.03" y="221.9951">file-image</text></g><!--entity file-server--><g id="elem_file-server"><rect fill="#313139" height="36.2969" rx="2.5" ry="2.5" style="stroke:#E7E7E7;stroke-width:0.5;" width="87" x="428.53" y="103"/><text fill="#FFFFFF" font-family="sans-serif" font-size="14" lengthAdjust="spacing" textLength="67" x="438.53" y="125.9951">file-server</text></g><!--entity file-symfony-bridge--><g id="elem_file-symfony-bridge"><rect fill="#313139" height="36.2969" rx="2.5" ry="2.5" style="stroke:#E7E7E7;stroke-width:0.5;" width="150" x="65.03" y="199"/><text fill="#FFFFFF" font-family="sans-serif" font-size="14" lengthAdjust="spacing" textLength="130" x="75.03" y="221.9951">file-symfony-bridge</text></g><!--entity file-derivation--><g id="elem_file-derivation"><rect fill="#313139" height="36.2969" rx="2.5" ry="2.5" style="stroke:#E7E7E7;stroke-width:0.5;" width="111" x="922.53" y="295"/><text fill="#FFFFFF" font-family="sans-serif" font-size="14" lengthAdjust="spacing" textLength="91" x="932.53" y="317.9951">file-derivation</text></g><!--entity file-oneup-uploader-bridge--><g id="elem_file-oneup-uploader-bridge"><rect fill="#313139" height="36.2969" rx="2.5" ry="2.5" style="stroke:#E7E7E7;stroke-width:0.5;" width="204" x="250.03" y="199"/><text fill="#FFFFFF" font-family="sans-serif" font-size="14" lengthAdjust="spacing" textLength="184" x="260.03" y="221.9951">file-oneup-uploader-bridge</text></g><!--link file to file-contracts--><g id="link_file_file-contracts"><path d="M232.63,319.6 C281.95,333.69 406.8208,369.372 481.6308,390.742 " fill="none" id="file-to-file-contracts" style="stroke:#E7E7E7;stroke-width:1.0;"/><polygon fill="#E7E7E7" points="487.4,392.39,479.8448,386.0718,482.5923,391.0166,477.6475,393.7641,487.4,392.39" style="stroke:#E7E7E7;stroke-width:1.0;"/></g><!--link file to file-metadata-contracts--><g id="link_file_file-metadata-contracts"><path d="M206.43,331.24 C199.94,348.2 192.2259,368.3469 185.7459,385.2669 " fill="none" id="file-to-file-metadata-contracts" style="stroke:#E7E7E7;stroke-width:1.0;"/><polygon fill="#E7E7E7" points="183.6,390.87,190.5543,383.8959,185.3882,386.2007,183.0834,381.0347,183.6,390.87" style="stroke:#E7E7E7;stroke-width:1.0;"/></g><!--link file-association to file-association-contracts--><g id="link_file-association_file-association-contracts"><path d="M632.86,139.02 C653.57,155.95 680.5352,177.9919 701.3252,194.9919 " fill="none" id="file-association-to-file-association-contracts" style="stroke:#E7E7E7;stroke-width:1.0;"/><polygon fill="#E7E7E7" points="705.97,198.79,701.5348,189.9963,702.0993,195.6249,696.4707,196.1894,705.97,198.79" style="stroke:#E7E7E7;stroke-width:1.0;"/></g><!--link file-association to file-contracts--><g id="link_file-association_file-contracts"><path d="M607.86,139.03 C595.44,189.78 560.2068,333.7621 547.6968,384.8621 " fill="none" id="file-association-to-file-contracts" style="stroke:#E7E7E7;stroke-width:1.0;"/><polygon fill="#E7E7E7" points="546.27,390.69,552.2954,382.8993,547.459,385.8334,544.5249,380.997,546.27,390.69" style="stroke:#E7E7E7;stroke-width:1.0;"/></g><!--link file-bundle to file--><g id="link_file-bundle_file"><path d="M495.74,25.67 C393.62,27.78 149.92,49.06 47.03,199 C6,258.79 135.3793,294.6897 187.5393,306.5497 " fill="none" id="file-bundle-to-file" style="stroke:#E7E7E7;stroke-width:1.0;"/><polygon fill="#E7E7E7" points="193.39,307.88,185.5009,301.9841,188.5144,306.7714,183.7271,309.785,193.39,307.88" style="stroke:#E7E7E7;stroke-width:1.0;"/></g><!--link file-bundle to file-contracts--><g id="link_file-bundle_file-contracts"><path d="M588.25,36.69 C658.2,55.69 788.35,102.72 841.03,199 C899.94,306.64 704.2464,369.6372 602.7464,394.5972 " fill="none" id="file-bundle-to-file-contracts" style="stroke:#E7E7E7;stroke-width:1.0;"/><polygon fill="#E7E7E7" points="596.92,396.03,606.6148,397.7651,601.7753,394.836,604.7044,389.9965,596.92,396.03" style="stroke:#E7E7E7;stroke-width:1.0;"/></g><!--link file-bundle to file-image--><g id="link_file-bundle_file-image"><path d="M588.33,25.21 C661.26,26.16 804.62,37.11 902.03,103 C937.48,126.98 958.4615,168.0103 969.0815,193.2303 " fill="none" id="file-bundle-to-file-image" style="stroke:#E7E7E7;stroke-width:1.0;stroke-dasharray:7.0,7.0;"/><polygon fill="#E7E7E7" points="971.41,198.76,971.6037,188.913,969.4696,194.1519,964.2307,192.0178,971.41,198.76" style="stroke:#E7E7E7;stroke-width:1.0;"/></g><!--link file-bundle to file-association--><g id="link_file-bundle_file-association"><path d="M554.87,43.24 C567.5,60.2 583.0846,81.1391 595.6946,98.0591 " fill="none" id="file-bundle-to-file-association" style="stroke:#E7E7E7;stroke-width:1.0;stroke-dasharray:7.0,7.0;"/><polygon fill="#E7E7E7" points="599.28,102.87,597.1091,93.2634,596.2921,98.8609,590.6946,98.0439,599.28,102.87" style="stroke:#E7E7E7;stroke-width:1.0;"/></g><!--link file-bundle to file-server--><g id="link_file-bundle_file-server"><path d="M529.19,43.24 C516.56,60.2 500.9736,81.1377 488.3736,98.0577 " fill="none" id="file-bundle-to-file-server" style="stroke:#E7E7E7;stroke-width:1.0;stroke-dasharray:7.0,7.0;"/><polygon fill="#E7E7E7" points="484.79,102.87,493.3736,98.0407,487.7763,98.8598,486.9572,93.2625,484.79,102.87" style="stroke:#E7E7E7;stroke-width:1.0;"/></g><!--link file-bundle to file-symfony-bridge--><g id="link_file-bundle_file-symfony-bridge"><path d="M506.01,43.03 C429.69,79.1 257.9248,160.2864 181.5548,196.3764 " fill="none" id="file-bundle-to-file-symfony-bridge" style="stroke:#E7E7E7;stroke-width:1.0;stroke-dasharray:7.0,7.0;"/><polygon fill="#E7E7E7" points="176.13,198.94,185.9762,198.7112,180.6506,196.8037,182.5581,191.4781,176.13,198.94" style="stroke:#E7E7E7;stroke-width:1.0;"/></g><!--link file-derivation to file-contracts--><g id="link_file-derivation_file-contracts"><path d="M922.37,326 C838.35,344.12 685.9652,376.9651 602.5452,394.9551 " fill="none" id="file-derivation-to-file-contracts" style="stroke:#E7E7E7;stroke-width:1.0;"/><polygon fill="#E7E7E7" points="596.68,396.22,606.321,398.2328,601.5676,395.166,604.6345,390.4126,596.68,396.22" style="stroke:#E7E7E7;stroke-width:1.0;"/></g><!--link file-image to file-contracts--><g id="link_file-image_file-contracts"><path d="M1002.82,235.08 C1033.28,258.11 1077.84,299.84 1051.03,331 C992.9,398.59 722.2599,407.5658 602.9699,408.2458 " fill="none" id="file-image-to-file-contracts" style="stroke:#E7E7E7;stroke-width:1.0;"/><polygon fill="#E7E7E7" points="596.97,408.28,605.9927,412.2286,601.9699,408.2515,605.9471,404.2288,596.97,408.28" style="stroke:#E7E7E7;stroke-width:1.0;"/></g><!--link file-image to file-derivation--><g id="link_file-image_file-derivation"><path d="M978.03,235.24 C978.03,252.2 978.03,271.95 978.03,288.87 " fill="none" id="file-image-to-file-derivation" style="stroke:#E7E7E7;stroke-width:1.0;"/><polygon fill="#E7E7E7" points="978.03,294.87,982.03,285.87,978.03,289.87,974.03,285.87,978.03,294.87" style="stroke:#E7E7E7;stroke-width:1.0;"/></g><!--link file-oneup-uploader-bridge to file-contracts--><g id="link_file-oneup-uploader-bridge_file-contracts"><path d="M369.23,235.2 C405.4,271.37 484.7474,350.7174 520.7674,386.7374 " fill="none" id="file-oneup-uploader-bridge-to-file-contracts" style="stroke:#E7E7E7;stroke-width:1.0;"/><polygon fill="#E7E7E7" points="525.01,390.98,521.4745,381.7876,521.4745,387.4445,515.8176,387.4445,525.01,390.98" style="stroke:#E7E7E7;stroke-width:1.0;"/></g><!--link file-oneup-uploader-bridge to file--><g id="link_file-oneup-uploader-bridge_file"><path d="M326.86,235.02 C299.79,253.33 262.3015,278.6907 237.6015,295.3807 " fill="none" id="file-oneup-uploader-bridge-to-file" style="stroke:#E7E7E7;stroke-width:1.0;"/><polygon fill="#E7E7E7" points="232.63,298.74,242.3267,297.0154,236.7729,295.9406,237.8477,290.3868,232.63,298.74" style="stroke:#E7E7E7;stroke-width:1.0;"/></g><!--link file-server to file-contracts--><g id="link_file-server_file-contracts"><path d="M476.2,139.03 C488.62,189.78 523.8632,333.7621 536.3732,384.8621 " fill="none" id="file-server-to-file-contracts" style="stroke:#E7E7E7;stroke-width:1.0;"/><polygon fill="#E7E7E7" points="537.8,390.69,539.5451,380.997,536.611,385.8334,531.7746,382.8993,537.8,390.69" style="stroke:#E7E7E7;stroke-width:1.0;"/></g><!--link file-server to file-symfony-bridge--><g id="link_file-server_file-symfony-bridge"><path d="M428.29,134.39 C369.83,150.94 271.753,178.7052 205.963,197.3352 " fill="none" id="file-server-to-file-symfony-bridge" style="stroke:#E7E7E7;stroke-width:1.0;"/><polygon fill="#E7E7E7" points="200.19,198.97,209.9393,200.3665,205.0008,197.6077,207.7597,192.6692,200.19,198.97" style="stroke:#E7E7E7;stroke-width:1.0;"/></g><!--link file-symfony-bridge to file--><g id="link_file-symfony-bridge_file"><path d="M153.42,235.24 C166.59,252.2 182.9098,273.2112 196.0498,290.1312 " fill="none" id="file-symfony-bridge-to-file" style="stroke:#E7E7E7;stroke-width:1.0;"/><polygon fill="#E7E7E7" points="199.73,294.87,197.369,285.3083,196.6632,290.921,191.0506,290.2152,199.73,294.87" style="stroke:#E7E7E7;stroke-width:1.0;"/></g><!--link file-symfony-bridge to file-contracts--><g id="link_file-symfony-bridge_file-contracts"><path d="M176.06,235.03 C252.38,271.1 424.1452,352.2864 500.5152,388.3764 " fill="none" id="file-symfony-bridge-to-file-contracts" style="stroke:#E7E7E7;stroke-width:1.0;"/><polygon fill="#E7E7E7" points="505.94,390.94,499.5119,383.4781,501.4194,388.8037,496.0938,390.7112,505.94,390.94" style="stroke:#E7E7E7;stroke-width:1.0;"/></g><!--link file-symfony-bridge to file-metadata-contracts--><g id="link_file-symfony-bridge_file-metadata-contracts"><path d="M143.38,235.2 C150.43,271.37 165.5638,349.0705 172.5738,385.0905 " fill="none" id="file-symfony-bridge-to-file-metadata-contracts" style="stroke:#E7E7E7;stroke-width:1.0;"/><polygon fill="#E7E7E7" points="173.72,390.98,175.9271,381.3816,172.7648,386.0721,168.0744,382.9099,173.72,390.98" style="stroke:#E7E7E7;stroke-width:1.0;"/></g><!--SRC=[bP913i8W44NtFGKNe4Tmun5S6XTJ61jIc6a6QjBRIzJ6QakhEpB__Pa_GEmSzI0GF9iEhMh0TAtmGFR8daKb0OePG4fL5ITO6GuzKowUqkXH2Pe4r7giglFLURmehG_gSTI6AJSnALwMMi045X8i80qnid6G7DFSC2l_x5bmJTxk8qTHA7lhUa9SW1RByZnK4OeeDvGDVGnNfb4tuknxc4Lnj_rrdm7_8cQTNqX-xA7NG-yPiZW5sMgwvvYur-vRhPR8-eLyLLTcbO2LcKLqxTFU0G00]--></g></svg>