<?xml version="1.0" encoding="us-ascii" standalone="no"?><svg xmlns="http://www.w3.org/2000/svg" xmlns:xlink="http://www.w3.org/1999/xlink" contentStyleType="text/css" height="1574px" preserveAspectRatio="none" style="width:1259px;height:1574px;" version="1.1" viewBox="0 0 1259 1574" width="1259px" zoomAndPan="magnify"><defs/><g><!--class Mapper--><g id="elem_Mapper"><rect codeLine="2" fill="#313139" height="48" id="Mapper" rx="2.5" ry="2.5" style="stroke:#E7E7E7;stroke-width:0.5;" width="84" x="466" y="7"/><ellipse cx="481" cy="23" fill="#2E5233" rx="11" ry="11" style="stroke:#E7E7E7;stroke-width:1.0;"/><path d="M483.9688,28.6406 Q483.3906,28.9375 482.75,29.0781 Q482.1094,29.2344 481.4063,29.2344 Q478.9063,29.2344 477.5781,27.5938 Q476.2656,25.9375 476.2656,22.8125 Q476.2656,19.6875 477.5781,18.0313 Q478.9063,16.375 481.4063,16.375 Q482.1094,16.375 482.75,16.5313 Q483.4063,16.6875 483.9688,16.9844 L483.9688,19.7031 Q483.3438,19.125 482.75,18.8594 Q482.1563,18.5781 481.5313,18.5781 Q480.1875,18.5781 479.5,19.6563 Q478.8125,20.7188 478.8125,22.8125 Q478.8125,24.9063 479.5,25.9844 Q480.1875,27.0469 481.5313,27.0469 Q482.1563,27.0469 482.75,26.7813 Q483.3438,26.5 483.9688,25.9219 L483.9688,28.6406 Z " fill="#FFFFFF"/><text fill="#FFFFFF" font-family="sans-serif" font-size="14" lengthAdjust="spacing" textLength="52" x="495" y="27.8467">Mapper</text><line style="stroke:#E7E7E7;stroke-width:0.5;" x1="467" x2="549" y1="39" y2="39"/><line style="stroke:#E7E7E7;stroke-width:0.5;" x1="467" x2="549" y1="47" y2="47"/></g><!--class MainTransformer--><g id="elem_MainTransformer"><rect codeLine="5" fill="#313139" height="48" id="MainTransformer" rx="2.5" ry="2.5" style="stroke:#E7E7E7;stroke-width:0.5;" width="148" x="434" y="115"/><ellipse cx="449" cy="131" fill="#2E5233" rx="11" ry="11" style="stroke:#E7E7E7;stroke-width:1.0;"/><path d="M451.9688,136.6406 Q451.3906,136.9375 450.75,137.0781 Q450.1094,137.2344 449.4063,137.2344 Q446.9063,137.2344 445.5781,135.5938 Q444.2656,133.9375 444.2656,130.8125 Q444.2656,127.6875 445.5781,126.0313 Q446.9063,124.375 449.4063,124.375 Q450.1094,124.375 450.75,124.5313 Q451.4063,124.6875 451.9688,124.9844 L451.9688,127.7031 Q451.3438,127.125 450.75,126.8594 Q450.1563,126.5781 449.5313,126.5781 Q448.1875,126.5781 447.5,127.6563 Q446.8125,128.7188 446.8125,130.8125 Q446.8125,132.9063 447.5,133.9844 Q448.1875,135.0469 449.5313,135.0469 Q450.1563,135.0469 450.75,134.7813 Q451.3438,134.5 451.9688,133.9219 L451.9688,136.6406 Z " fill="#FFFFFF"/><text fill="#FFFFFF" font-family="sans-serif" font-size="14" lengthAdjust="spacing" textLength="116" x="463" y="135.8467">MainTransformer</text><line style="stroke:#E7E7E7;stroke-width:0.5;" x1="435" x2="581" y1="147" y2="147"/><line style="stroke:#E7E7E7;stroke-width:0.5;" x1="435" x2="581" y1="155" y2="155"/></g><!--class ObjectCacheFactory--><g id="elem_ObjectCacheFactory"><rect fill="#313139" height="48" id="ObjectCacheFactory" rx="2.5" ry="2.5" style="stroke:#E7E7E7;stroke-width:0.5;" width="171" x="215.5" y="223"/><ellipse cx="230.5" cy="239" fill="#2E5233" rx="11" ry="11" style="stroke:#E7E7E7;stroke-width:1.0;"/><path d="M233.4688,244.6406 Q232.8906,244.9375 232.25,245.0781 Q231.6094,245.2344 230.9063,245.2344 Q228.4063,245.2344 227.0781,243.5938 Q225.7656,241.9375 225.7656,238.8125 Q225.7656,235.6875 227.0781,234.0313 Q228.4063,232.375 230.9063,232.375 Q231.6094,232.375 232.25,232.5313 Q232.9063,232.6875 233.4688,232.9844 L233.4688,235.7031 Q232.8438,235.125 232.25,234.8594 Q231.6563,234.5781 231.0313,234.5781 Q229.6875,234.5781 229,235.6563 Q228.3125,236.7188 228.3125,238.8125 Q228.3125,240.9063 229,241.9844 Q229.6875,243.0469 231.0313,243.0469 Q231.6563,243.0469 232.25,242.7813 Q232.8438,242.5 233.4688,241.9219 L233.4688,244.6406 Z " fill="#FFFFFF"/><text fill="#FFFFFF" font-family="sans-serif" font-size="14" lengthAdjust="spacing" textLength="139" x="244.5" y="243.8467">ObjectCacheFactory</text><line style="stroke:#E7E7E7;stroke-width:0.5;" x1="216.5" x2="385.5" y1="255" y2="255"/><line style="stroke:#E7E7E7;stroke-width:0.5;" x1="216.5" x2="385.5" y1="263" y2="263"/></g><!--class TransformerRegistry--><g id="elem_TransformerRegistry"><rect fill="#313139" height="48" id="TransformerRegistry" rx="2.5" ry="2.5" style="stroke:#E7E7E7;stroke-width:0.5;" width="172" x="422" y="223"/><ellipse cx="437" cy="239" fill="#2E5233" rx="11" ry="11" style="stroke:#E7E7E7;stroke-width:1.0;"/><path d="M439.9688,244.6406 Q439.3906,244.9375 438.75,245.0781 Q438.1094,245.2344 437.4063,245.2344 Q434.9063,245.2344 433.5781,243.5938 Q432.2656,241.9375 432.2656,238.8125 Q432.2656,235.6875 433.5781,234.0313 Q434.9063,232.375 437.4063,232.375 Q438.1094,232.375 438.75,232.5313 Q439.4063,232.6875 439.9688,232.9844 L439.9688,235.7031 Q439.3438,235.125 438.75,234.8594 Q438.1563,234.5781 437.5313,234.5781 Q436.1875,234.5781 435.5,235.6563 Q434.8125,236.7188 434.8125,238.8125 Q434.8125,240.9063 435.5,241.9844 Q436.1875,243.0469 437.5313,243.0469 Q438.1563,243.0469 438.75,242.7813 Q439.3438,242.5 439.9688,241.9219 L439.9688,244.6406 Z " fill="#FFFFFF"/><text fill="#FFFFFF" font-family="sans-serif" font-size="14" lengthAdjust="spacing" textLength="140" x="451" y="243.8467">TransformerRegistry</text><line style="stroke:#E7E7E7;stroke-width:0.5;" x1="423" x2="593" y1="255" y2="255"/><line style="stroke:#E7E7E7;stroke-width:0.5;" x1="423" x2="593" y1="263" y2="263"/></g><!--class Transformer--><g id="elem_Transformer"><rect codeLine="15" fill="#313139" height="48" id="Transformer" rx="2.5" ry="2.5" style="stroke:#E7E7E7;stroke-width:0.5;" width="115" x="326.5" y="439"/><ellipse cx="341.5" cy="455" fill="#352866" rx="11" ry="11" style="stroke:#E7E7E7;stroke-width:1.0;"/><path d="M337.4219,450.7656 L337.4219,448.6094 L344.8125,448.6094 L344.8125,450.7656 L342.3438,450.7656 L342.3438,458.8438 L344.8125,458.8438 L344.8125,461 L337.4219,461 L337.4219,458.8438 L339.8906,458.8438 L339.8906,450.7656 L337.4219,450.7656 Z " fill="#FFFFFF"/><text fill="#FFFFFF" font-family="sans-serif" font-size="14" font-style="italic" lengthAdjust="spacing" textLength="83" x="355.5" y="459.8467">Transformer</text><line style="stroke:#E7E7E7;stroke-width:0.5;" x1="327.5" x2="440.5" y1="471" y2="471"/><line style="stroke:#E7E7E7;stroke-width:0.5;" x1="327.5" x2="440.5" y1="479" y2="479"/></g><!--class MappingFactory--><g id="elem_MappingFactory"><rect fill="#313139" height="48" id="MappingFactory" rx="2.5" ry="2.5" style="stroke:#E7E7E7;stroke-width:0.5;" width="141" x="437.5" y="331"/><ellipse cx="452.5" cy="347" fill="#2E5233" rx="11" ry="11" style="stroke:#E7E7E7;stroke-width:1.0;"/><path d="M455.4688,352.6406 Q454.8906,352.9375 454.25,353.0781 Q453.6094,353.2344 452.9063,353.2344 Q450.4063,353.2344 449.0781,351.5938 Q447.7656,349.9375 447.7656,346.8125 Q447.7656,343.6875 449.0781,342.0313 Q450.4063,340.375 452.9063,340.375 Q453.6094,340.375 454.25,340.5313 Q454.9063,340.6875 455.4688,340.9844 L455.4688,343.7031 Q454.8438,343.125 454.25,342.8594 Q453.6563,342.5781 453.0313,342.5781 Q451.6875,342.5781 451,343.6563 Q450.3125,344.7188 450.3125,346.8125 Q450.3125,348.9063 451,349.9844 Q451.6875,351.0469 453.0313,351.0469 Q453.6563,351.0469 454.25,350.7813 Q454.8438,350.5 455.4688,349.9219 L455.4688,352.6406 Z " fill="#FFFFFF"/><text fill="#FFFFFF" font-family="sans-serif" font-size="14" lengthAdjust="spacing" textLength="109" x="466.5" y="351.8467">MappingFactory</text><line style="stroke:#E7E7E7;stroke-width:0.5;" x1="438.5" x2="577.5" y1="363" y2="363"/><line style="stroke:#E7E7E7;stroke-width:0.5;" x1="438.5" x2="577.5" y1="371" y2="371"/></g><!--class Transformer&MainTransformerAware--><g id="elem_Transformer&amp;MainTransformerAware"><rect codeLine="17" fill="#313139" height="48" id="Transformer&amp;MainTransformerAware" rx="2.5" ry="2.5" style="stroke:#E7E7E7;stroke-width:0.5;" width="284" x="555" y="547"/><ellipse cx="570" cy="563" fill="#352866" rx="11" ry="11" style="stroke:#E7E7E7;stroke-width:1.0;"/><path d="M565.9219,558.7656 L565.9219,556.6094 L573.3125,556.6094 L573.3125,558.7656 L570.8438,558.7656 L570.8438,566.8438 L573.3125,566.8438 L573.3125,569 L565.9219,569 L565.9219,566.8438 L568.3906,566.8438 L568.3906,558.7656 L565.9219,558.7656 Z " fill="#FFFFFF"/><text fill="#FFFFFF" font-family="sans-serif" font-size="14" font-style="italic" lengthAdjust="spacing" textLength="252" x="584" y="567.8467">Transformer&amp;MainTransformerAware</text><line style="stroke:#E7E7E7;stroke-width:0.5;" x1="556" x2="838" y1="579" y2="579"/><line style="stroke:#E7E7E7;stroke-width:0.5;" x1="556" x2="838" y1="587" y2="587"/></g><!--class ArrayToObjectTransformer--><g id="elem_ArrayToObjectTransformer"><rect codeLine="21" fill="#313139" height="48" id="ArrayToObjectTransformer" rx="2.5" ry="2.5" style="stroke:#E7E7E7;stroke-width:0.5;" width="213" x="231.5" y="547"/><ellipse cx="246.5" cy="563" fill="#2E5233" rx="11" ry="11" style="stroke:#E7E7E7;stroke-width:1.0;"/><path d="M249.4688,568.6406 Q248.8906,568.9375 248.25,569.0781 Q247.6094,569.2344 246.9063,569.2344 Q244.4063,569.2344 243.0781,567.5938 Q241.7656,565.9375 241.7656,562.8125 Q241.7656,559.6875 243.0781,558.0313 Q244.4063,556.375 246.9063,556.375 Q247.6094,556.375 248.25,556.5313 Q248.9063,556.6875 249.4688,556.9844 L249.4688,559.7031 Q248.8438,559.125 248.25,558.8594 Q247.6563,558.5781 247.0313,558.5781 Q245.6875,558.5781 245,559.6563 Q244.3125,560.7188 244.3125,562.8125 Q244.3125,564.9063 245,565.9844 Q245.6875,567.0469 247.0313,567.0469 Q247.6563,567.0469 248.25,566.7813 Q248.8438,566.5 249.4688,565.9219 L249.4688,568.6406 Z " fill="#FFFFFF"/><text fill="#FFFFFF" font-family="sans-serif" font-size="14" lengthAdjust="spacing" textLength="181" x="260.5" y="567.8467">ArrayToObjectTransformer</text><line style="stroke:#E7E7E7;stroke-width:0.5;" x1="232.5" x2="443.5" y1="579" y2="579"/><line style="stroke:#E7E7E7;stroke-width:0.5;" x1="232.5" x2="443.5" y1="587" y2="587"/></g><!--class SymfonySerializer--><g id="elem_SymfonySerializer"><rect fill="#313139" height="48" id="SymfonySerializer" rx="2.5" ry="2.5" style="stroke:#E7E7E7;stroke-width:0.5;" width="152" x="59" y="763"/><ellipse cx="74" cy="779" fill="#2E5233" rx="11" ry="11" style="stroke:#E7E7E7;stroke-width:1.0;"/><path d="M76.9688,784.6406 Q76.3906,784.9375 75.75,785.0781 Q75.1094,785.2344 74.4063,785.2344 Q71.9063,785.2344 70.5781,783.5938 Q69.2656,781.9375 69.2656,778.8125 Q69.2656,775.6875 70.5781,774.0313 Q71.9063,772.375 74.4063,772.375 Q75.1094,772.375 75.75,772.5313 Q76.4063,772.6875 76.9688,772.9844 L76.9688,775.7031 Q76.3438,775.125 75.75,774.8594 Q75.1563,774.5781 74.5313,774.5781 Q73.1875,774.5781 72.5,775.6563 Q71.8125,776.7188 71.8125,778.8125 Q71.8125,780.9063 72.5,781.9844 Q73.1875,783.0469 74.5313,783.0469 Q75.1563,783.0469 75.75,782.7813 Q76.3438,782.5 76.9688,781.9219 L76.9688,784.6406 Z " fill="#FFFFFF"/><text fill="#FFFFFF" font-family="sans-serif" font-size="14" lengthAdjust="spacing" textLength="120" x="88" y="783.8467">SymfonySerializer</text><line style="stroke:#E7E7E7;stroke-width:0.5;" x1="60" x2="210" y1="795" y2="795"/><line style="stroke:#E7E7E7;stroke-width:0.5;" x1="60" x2="210" y1="803" y2="803"/></g><!--class ObjectToArrayTransformer--><g id="elem_ObjectToArrayTransformer"><rect codeLine="25" fill="#313139" height="48" id="ObjectToArrayTransformer" rx="2.5" ry="2.5" style="stroke:#E7E7E7;stroke-width:0.5;" width="213" x="60.5" y="655"/><ellipse cx="75.5" cy="671" fill="#2E5233" rx="11" ry="11" style="stroke:#E7E7E7;stroke-width:1.0;"/><path d="M78.4688,676.6406 Q77.8906,676.9375 77.25,677.0781 Q76.6094,677.2344 75.9063,677.2344 Q73.4063,677.2344 72.0781,675.5938 Q70.7656,673.9375 70.7656,670.8125 Q70.7656,667.6875 72.0781,666.0313 Q73.4063,664.375 75.9063,664.375 Q76.6094,664.375 77.25,664.5313 Q77.9063,664.6875 78.4688,664.9844 L78.4688,667.7031 Q77.8438,667.125 77.25,666.8594 Q76.6563,666.5781 76.0313,666.5781 Q74.6875,666.5781 74,667.6563 Q73.3125,668.7188 73.3125,670.8125 Q73.3125,672.9063 74,673.9844 Q74.6875,675.0469 76.0313,675.0469 Q76.6563,675.0469 77.25,674.7813 Q77.8438,674.5 78.4688,673.9219 L78.4688,676.6406 Z " fill="#FFFFFF"/><text fill="#FFFFFF" font-family="sans-serif" font-size="14" lengthAdjust="spacing" textLength="181" x="89.5" y="675.8467">ObjectToArrayTransformer</text><line style="stroke:#E7E7E7;stroke-width:0.5;" x1="61.5" x2="272.5" y1="687" y2="687"/><line style="stroke:#E7E7E7;stroke-width:0.5;" x1="61.5" x2="272.5" y1="695" y2="695"/></g><!--class ClassMethodTransformer--><g id="elem_ClassMethodTransformer"><rect codeLine="29" fill="#313139" height="48" id="ClassMethodTransformer" rx="2.5" ry="2.5" style="stroke:#E7E7E7;stroke-width:0.5;" width="206" x="152" y="1087"/><ellipse cx="167" cy="1103" fill="#2E5233" rx="11" ry="11" style="stroke:#E7E7E7;stroke-width:1.0;"/><path d="M169.9688,1108.6406 Q169.3906,1108.9375 168.75,1109.0781 Q168.1094,1109.2344 167.4063,1109.2344 Q164.9063,1109.2344 163.5781,1107.5938 Q162.2656,1105.9375 162.2656,1102.8125 Q162.2656,1099.6875 163.5781,1098.0313 Q164.9063,1096.375 167.4063,1096.375 Q168.1094,1096.375 168.75,1096.5313 Q169.4063,1096.6875 169.9688,1096.9844 L169.9688,1099.7031 Q169.3438,1099.125 168.75,1098.8594 Q168.1563,1098.5781 167.5313,1098.5781 Q166.1875,1098.5781 165.5,1099.6563 Q164.8125,1100.7188 164.8125,1102.8125 Q164.8125,1104.9063 165.5,1105.9844 Q166.1875,1107.0469 167.5313,1107.0469 Q168.1563,1107.0469 168.75,1106.7813 Q169.3438,1106.5 169.9688,1105.9219 L169.9688,1108.6406 Z " fill="#FFFFFF"/><text fill="#FFFFFF" font-family="sans-serif" font-size="14" lengthAdjust="spacing" textLength="174" x="181" y="1107.8467">ClassMethodTransformer</text><line style="stroke:#E7E7E7;stroke-width:0.5;" x1="153" x2="357" y1="1119" y2="1119"/><line style="stroke:#E7E7E7;stroke-width:0.5;" x1="153" x2="357" y1="1127" y2="1127"/></g><!--class SubMapperFactory--><g id="elem_SubMapperFactory"><rect fill="#313139" height="48" id="SubMapperFactory" rx="2.5" ry="2.5" style="stroke:#E7E7E7;stroke-width:0.5;" width="161" x="285.5" y="1195"/><ellipse cx="300.5" cy="1211" fill="#2E5233" rx="11" ry="11" style="stroke:#E7E7E7;stroke-width:1.0;"/><path d="M303.4688,1216.6406 Q302.8906,1216.9375 302.25,1217.0781 Q301.6094,1217.2344 300.9063,1217.2344 Q298.4063,1217.2344 297.0781,1215.5938 Q295.7656,1213.9375 295.7656,1210.8125 Q295.7656,1207.6875 297.0781,1206.0313 Q298.4063,1204.375 300.9063,1204.375 Q301.6094,1204.375 302.25,1204.5313 Q302.9063,1204.6875 303.4688,1204.9844 L303.4688,1207.7031 Q302.8438,1207.125 302.25,1206.8594 Q301.6563,1206.5781 301.0313,1206.5781 Q299.6875,1206.5781 299,1207.6563 Q298.3125,1208.7188 298.3125,1210.8125 Q298.3125,1212.9063 299,1213.9844 Q299.6875,1215.0469 301.0313,1215.0469 Q301.6563,1215.0469 302.25,1214.7813 Q302.8438,1214.5 303.4688,1213.9219 L303.4688,1216.6406 Z " fill="#FFFFFF"/><text fill="#FFFFFF" font-family="sans-serif" font-size="14" lengthAdjust="spacing" textLength="129" x="314.5" y="1215.8467">SubMapperFactory</text><line style="stroke:#E7E7E7;stroke-width:0.5;" x1="286.5" x2="445.5" y1="1227" y2="1227"/><line style="stroke:#E7E7E7;stroke-width:0.5;" x1="286.5" x2="445.5" y1="1235" y2="1235"/></g><!--class ObjectMapperTransformer--><g id="elem_ObjectMapperTransformer"><rect codeLine="33" fill="#313139" height="48" id="ObjectMapperTransformer" rx="2.5" ry="2.5" style="stroke:#E7E7E7;stroke-width:0.5;" width="213" x="418.5" y="655"/><ellipse cx="433.5" cy="671" fill="#2E5233" rx="11" ry="11" style="stroke:#E7E7E7;stroke-width:1.0;"/><path d="M436.4688,676.6406 Q435.8906,676.9375 435.25,677.0781 Q434.6094,677.2344 433.9063,677.2344 Q431.4063,677.2344 430.0781,675.5938 Q428.7656,673.9375 428.7656,670.8125 Q428.7656,667.6875 430.0781,666.0313 Q431.4063,664.375 433.9063,664.375 Q434.6094,664.375 435.25,664.5313 Q435.9063,664.6875 436.4688,664.9844 L436.4688,667.7031 Q435.8438,667.125 435.25,666.8594 Q434.6563,666.5781 434.0313,666.5781 Q432.6875,666.5781 432,667.6563 Q431.3125,668.7188 431.3125,670.8125 Q431.3125,672.9063 432,673.9844 Q432.6875,675.0469 434.0313,675.0469 Q434.6563,675.0469 435.25,674.7813 Q435.8438,674.5 436.4688,673.9219 L436.4688,676.6406 Z " fill="#FFFFFF"/><text fill="#FFFFFF" font-family="sans-serif" font-size="14" lengthAdjust="spacing" textLength="181" x="447.5" y="675.8467">ObjectMapperTransformer</text><line style="stroke:#E7E7E7;stroke-width:0.5;" x1="419.5" x2="630.5" y1="687" y2="687"/><line style="stroke:#E7E7E7;stroke-width:0.5;" x1="419.5" x2="630.5" y1="695" y2="695"/></g><!--class ObjectMapperTableFactory--><g id="elem_ObjectMapperTableFactory"><rect fill="#313139" height="48" id="ObjectMapperTableFactory" rx="2.5" ry="2.5" style="stroke:#E7E7E7;stroke-width:0.5;" width="217" x="345.5" y="979"/><ellipse cx="360.5" cy="995" fill="#2E5233" rx="11" ry="11" style="stroke:#E7E7E7;stroke-width:1.0;"/><path d="M363.4688,1000.6406 Q362.8906,1000.9375 362.25,1001.0781 Q361.6094,1001.2344 360.9063,1001.2344 Q358.4063,1001.2344 357.0781,999.5938 Q355.7656,997.9375 355.7656,994.8125 Q355.7656,991.6875 357.0781,990.0313 Q358.4063,988.375 360.9063,988.375 Q361.6094,988.375 362.25,988.5313 Q362.9063,988.6875 363.4688,988.9844 L363.4688,991.7031 Q362.8438,991.125 362.25,990.8594 Q361.6563,990.5781 361.0313,990.5781 Q359.6875,990.5781 359,991.6563 Q358.3125,992.7188 358.3125,994.8125 Q358.3125,996.9063 359,997.9844 Q359.6875,999.0469 361.0313,999.0469 Q361.6563,999.0469 362.25,998.7813 Q362.8438,998.5 363.4688,997.9219 L363.4688,1000.6406 Z " fill="#FFFFFF"/><text fill="#FFFFFF" font-family="sans-serif" font-size="14" lengthAdjust="spacing" textLength="185" x="374.5" y="999.8467">ObjectMapperTableFactory</text><line style="stroke:#E7E7E7;stroke-width:0.5;" x1="346.5" x2="561.5" y1="1011" y2="1011"/><line style="stroke:#E7E7E7;stroke-width:0.5;" x1="346.5" x2="561.5" y1="1019" y2="1019"/></g><!--class ObjectMapperResolver--><g id="elem_ObjectMapperResolver"><rect fill="#313139" height="48" id="ObjectMapperResolver" rx="2.5" ry="2.5" style="stroke:#E7E7E7;stroke-width:0.5;" width="189" x="317.5" y="763"/><ellipse cx="332.5" cy="779" fill="#2E5233" rx="11" ry="11" style="stroke:#E7E7E7;stroke-width:1.0;"/><path d="M335.4688,784.6406 Q334.8906,784.9375 334.25,785.0781 Q333.6094,785.2344 332.9063,785.2344 Q330.4063,785.2344 329.0781,783.5938 Q327.7656,781.9375 327.7656,778.8125 Q327.7656,775.6875 329.0781,774.0313 Q330.4063,772.375 332.9063,772.375 Q333.6094,772.375 334.25,772.5313 Q334.9063,772.6875 335.4688,772.9844 L335.4688,775.7031 Q334.8438,775.125 334.25,774.8594 Q333.6563,774.5781 333.0313,774.5781 Q331.6875,774.5781 331,775.6563 Q330.3125,776.7188 330.3125,778.8125 Q330.3125,780.9063 331,781.9844 Q331.6875,783.0469 333.0313,783.0469 Q333.6563,783.0469 334.25,782.7813 Q334.8438,782.5 335.4688,781.9219 L335.4688,784.6406 Z " fill="#FFFFFF"/><text fill="#FFFFFF" font-family="sans-serif" font-size="14" lengthAdjust="spacing" textLength="157" x="346.5" y="783.8467">ObjectMapperResolver</text><line style="stroke:#E7E7E7;stroke-width:0.5;" x1="318.5" x2="505.5" y1="795" y2="795"/><line style="stroke:#E7E7E7;stroke-width:0.5;" x1="318.5" x2="505.5" y1="803" y2="803"/></g><!--class ObjectMapper--><g id="elem_ObjectMapper"><rect fill="#313139" height="48" id="ObjectMapper" rx="2.5" ry="2.5" style="stroke:#E7E7E7;stroke-width:0.5;" width="129" x="228.5" y="871"/><ellipse cx="243.5" cy="887" fill="#2E5233" rx="11" ry="11" style="stroke:#E7E7E7;stroke-width:1.0;"/><path d="M246.4688,892.6406 Q245.8906,892.9375 245.25,893.0781 Q244.6094,893.2344 243.9063,893.2344 Q241.4063,893.2344 240.0781,891.5938 Q238.7656,889.9375 238.7656,886.8125 Q238.7656,883.6875 240.0781,882.0313 Q241.4063,880.375 243.9063,880.375 Q244.6094,880.375 245.25,880.5313 Q245.9063,880.6875 246.4688,880.9844 L246.4688,883.7031 Q245.8438,883.125 245.25,882.8594 Q244.6563,882.5781 244.0313,882.5781 Q242.6875,882.5781 242,883.6563 Q241.3125,884.7188 241.3125,886.8125 Q241.3125,888.9063 242,889.9844 Q242.6875,891.0469 244.0313,891.0469 Q244.6563,891.0469 245.25,890.7813 Q245.8438,890.5 246.4688,889.9219 L246.4688,892.6406 Z " fill="#FFFFFF"/><text fill="#FFFFFF" font-family="sans-serif" font-size="14" lengthAdjust="spacing" textLength="97" x="257.5" y="891.8467">ObjectMapper</text><line style="stroke:#E7E7E7;stroke-width:0.5;" x1="229.5" x2="356.5" y1="903" y2="903"/><line style="stroke:#E7E7E7;stroke-width:0.5;" x1="229.5" x2="356.5" y1="911" y2="911"/></g><!--class ObjectToObjectTransformer--><g id="elem_ObjectToObjectTransformer"><rect codeLine="42" fill="#313139" height="48" id="ObjectToObjectTransformer" rx="2.5" ry="2.5" style="stroke:#E7E7E7;stroke-width:0.5;" width="224" x="684" y="979"/><ellipse cx="699" cy="995" fill="#2E5233" rx="11" ry="11" style="stroke:#E7E7E7;stroke-width:1.0;"/><path d="M701.9688,1000.6406 Q701.3906,1000.9375 700.75,1001.0781 Q700.1094,1001.2344 699.4063,1001.2344 Q696.9063,1001.2344 695.5781,999.5938 Q694.2656,997.9375 694.2656,994.8125 Q694.2656,991.6875 695.5781,990.0313 Q696.9063,988.375 699.4063,988.375 Q700.1094,988.375 700.75,988.5313 Q701.4063,988.6875 701.9688,988.9844 L701.9688,991.7031 Q701.3438,991.125 700.75,990.8594 Q700.1563,990.5781 699.5313,990.5781 Q698.1875,990.5781 697.5,991.6563 Q696.8125,992.7188 696.8125,994.8125 Q696.8125,996.9063 697.5,997.9844 Q698.1875,999.0469 699.5313,999.0469 Q700.1563,999.0469 700.75,998.7813 Q701.3438,998.5 701.9688,997.9219 L701.9688,1000.6406 Z " fill="#FFFFFF"/><text fill="#FFFFFF" font-family="sans-serif" font-size="14" lengthAdjust="spacing" textLength="192" x="713" y="999.8467">ObjectToObjectTransformer</text><line style="stroke:#E7E7E7;stroke-width:0.5;" x1="685" x2="907" y1="1011" y2="1011"/><line style="stroke:#E7E7E7;stroke-width:0.5;" x1="685" x2="907" y1="1019" y2="1019"/></g><!--class ProxyRegistry--><g id="elem_ProxyRegistry"><rect fill="#313139" height="48" id="ProxyRegistry" rx="2.5" ry="2.5" style="stroke:#E7E7E7;stroke-width:0.5;" width="125" x="1017.5" y="1087"/><ellipse cx="1032.5" cy="1103" fill="#2E5233" rx="11" ry="11" style="stroke:#E7E7E7;stroke-width:1.0;"/><path d="M1035.4688,1108.6406 Q1034.8906,1108.9375 1034.25,1109.0781 Q1033.6094,1109.2344 1032.9063,1109.2344 Q1030.4063,1109.2344 1029.0781,1107.5938 Q1027.7656,1105.9375 1027.7656,1102.8125 Q1027.7656,1099.6875 1029.0781,1098.0313 Q1030.4063,1096.375 1032.9063,1096.375 Q1033.6094,1096.375 1034.25,1096.5313 Q1034.9063,1096.6875 1035.4688,1096.9844 L1035.4688,1099.7031 Q1034.8438,1099.125 1034.25,1098.8594 Q1033.6563,1098.5781 1033.0313,1098.5781 Q1031.6875,1098.5781 1031,1099.6563 Q1030.3125,1100.7188 1030.3125,1102.8125 Q1030.3125,1104.9063 1031,1105.9844 Q1031.6875,1107.0469 1033.0313,1107.0469 Q1033.6563,1107.0469 1034.25,1106.7813 Q1034.8438,1106.5 1035.4688,1105.9219 L1035.4688,1108.6406 Z " fill="#FFFFFF"/><text fill="#FFFFFF" font-family="sans-serif" font-size="14" lengthAdjust="spacing" textLength="93" x="1046.5" y="1107.8467">ProxyRegistry</text><line style="stroke:#E7E7E7;stroke-width:0.5;" x1="1018.5" x2="1141.5" y1="1119" y2="1119"/><line style="stroke:#E7E7E7;stroke-width:0.5;" x1="1018.5" x2="1141.5" y1="1127" y2="1127"/></g><!--class ObjectToObjectMetadataFactory--><g id="elem_ObjectToObjectMetadataFactory"><rect fill="#313139" height="48" id="ObjectToObjectMetadataFactory" rx="2.5" ry="2.5" style="stroke:#E7E7E7;stroke-width:0.5;" width="254" x="559" y="1195"/><ellipse cx="574" cy="1211" fill="#2E5233" rx="11" ry="11" style="stroke:#E7E7E7;stroke-width:1.0;"/><path d="M576.9688,1216.6406 Q576.3906,1216.9375 575.75,1217.0781 Q575.1094,1217.2344 574.4063,1217.2344 Q571.9063,1217.2344 570.5781,1215.5938 Q569.2656,1213.9375 569.2656,1210.8125 Q569.2656,1207.6875 570.5781,1206.0313 Q571.9063,1204.375 574.4063,1204.375 Q575.1094,1204.375 575.75,1204.5313 Q576.4063,1204.6875 576.9688,1204.9844 L576.9688,1207.7031 Q576.3438,1207.125 575.75,1206.8594 Q575.1563,1206.5781 574.5313,1206.5781 Q573.1875,1206.5781 572.5,1207.6563 Q571.8125,1208.7188 571.8125,1210.8125 Q571.8125,1212.9063 572.5,1213.9844 Q573.1875,1215.0469 574.5313,1215.0469 Q575.1563,1215.0469 575.75,1214.7813 Q576.3438,1214.5 576.9688,1213.9219 L576.9688,1216.6406 Z " fill="#FFFFFF"/><text fill="#FFFFFF" font-family="sans-serif" font-size="14" lengthAdjust="spacing" textLength="222" x="588" y="1215.8467">ObjectToObjectMetadataFactory</text><line style="stroke:#E7E7E7;stroke-width:0.5;" x1="560" x2="812" y1="1227" y2="1227"/><line style="stroke:#E7E7E7;stroke-width:0.5;" x1="560" x2="812" y1="1235" y2="1235"/></g><!--class PropertyMapper--><g id="elem_PropertyMapper"><rect fill="#313139" height="48" id="PropertyMapper" rx="2.5" ry="2.5" style="stroke:#E7E7E7;stroke-width:0.5;" width="142" x="696" y="1519"/><ellipse cx="711" cy="1535" fill="#2E5233" rx="11" ry="11" style="stroke:#E7E7E7;stroke-width:1.0;"/><path d="M713.9688,1540.6406 Q713.3906,1540.9375 712.75,1541.0781 Q712.1094,1541.2344 711.4063,1541.2344 Q708.9063,1541.2344 707.5781,1539.5938 Q706.2656,1537.9375 706.2656,1534.8125 Q706.2656,1531.6875 707.5781,1530.0313 Q708.9063,1528.375 711.4063,1528.375 Q712.1094,1528.375 712.75,1528.5313 Q713.4063,1528.6875 713.9688,1528.9844 L713.9688,1531.7031 Q713.3438,1531.125 712.75,1530.8594 Q712.1563,1530.5781 711.5313,1530.5781 Q710.1875,1530.5781 709.5,1531.6563 Q708.8125,1532.7188 708.8125,1534.8125 Q708.8125,1536.9063 709.5,1537.9844 Q710.1875,1539.0469 711.5313,1539.0469 Q712.1563,1539.0469 712.75,1538.7813 Q713.3438,1538.5 713.9688,1537.9219 L713.9688,1540.6406 Z " fill="#FFFFFF"/><text fill="#FFFFFF" font-family="sans-serif" font-size="14" lengthAdjust="spacing" textLength="110" x="725" y="1539.8467">PropertyMapper</text><line style="stroke:#E7E7E7;stroke-width:0.5;" x1="697" x2="837" y1="1551" y2="1551"/><line style="stroke:#E7E7E7;stroke-width:0.5;" x1="697" x2="837" y1="1559" y2="1559"/></g><!--class EagerPropertiesResolver--><g id="elem_EagerPropertiesResolver"><rect fill="#313139" height="48" id="EagerPropertiesResolver" rx="2.5" ry="2.5" style="stroke:#E7E7E7;stroke-width:0.5;" width="203" x="707.5" y="1411"/><ellipse cx="722.5" cy="1427" fill="#2E5233" rx="11" ry="11" style="stroke:#E7E7E7;stroke-width:1.0;"/><path d="M725.4688,1432.6406 Q724.8906,1432.9375 724.25,1433.0781 Q723.6094,1433.2344 722.9063,1433.2344 Q720.4063,1433.2344 719.0781,1431.5938 Q717.7656,1429.9375 717.7656,1426.8125 Q717.7656,1423.6875 719.0781,1422.0313 Q720.4063,1420.375 722.9063,1420.375 Q723.6094,1420.375 724.25,1420.5313 Q724.9063,1420.6875 725.4688,1420.9844 L725.4688,1423.7031 Q724.8438,1423.125 724.25,1422.8594 Q723.6563,1422.5781 723.0313,1422.5781 Q721.6875,1422.5781 721,1423.6563 Q720.3125,1424.7188 720.3125,1426.8125 Q720.3125,1428.9063 721,1429.9844 Q721.6875,1431.0469 723.0313,1431.0469 Q723.6563,1431.0469 724.25,1430.7813 Q724.8438,1430.5 725.4688,1429.9219 L725.4688,1432.6406 Z " fill="#FFFFFF"/><text fill="#FFFFFF" font-family="sans-serif" font-size="14" lengthAdjust="spacing" textLength="171" x="736.5" y="1431.8467">EagerPropertiesResolver</text><line style="stroke:#E7E7E7;stroke-width:0.5;" x1="708.5" x2="909.5" y1="1443" y2="1443"/><line style="stroke:#E7E7E7;stroke-width:0.5;" x1="708.5" x2="909.5" y1="1451" y2="1451"/></g><!--class SymfonyPropertyInfo--><g id="elem_SymfonyPropertyInfo"><rect fill="#313139" height="48" id="SymfonyPropertyInfo" rx="2.5" ry="2.5" style="stroke:#E7E7E7;stroke-width:0.5;" width="173" x="261.5" y="1411"/><ellipse cx="276.5" cy="1427" fill="#2E5233" rx="11" ry="11" style="stroke:#E7E7E7;stroke-width:1.0;"/><path d="M279.4688,1432.6406 Q278.8906,1432.9375 278.25,1433.0781 Q277.6094,1433.2344 276.9063,1433.2344 Q274.4063,1433.2344 273.0781,1431.5938 Q271.7656,1429.9375 271.7656,1426.8125 Q271.7656,1423.6875 273.0781,1422.0313 Q274.4063,1420.375 276.9063,1420.375 Q277.6094,1420.375 278.25,1420.5313 Q278.9063,1420.6875 279.4688,1420.9844 L279.4688,1423.7031 Q278.8438,1423.125 278.25,1422.8594 Q277.6563,1422.5781 277.0313,1422.5781 Q275.6875,1422.5781 275,1423.6563 Q274.3125,1424.7188 274.3125,1426.8125 Q274.3125,1428.9063 275,1429.9844 Q275.6875,1431.0469 277.0313,1431.0469 Q277.6563,1431.0469 278.25,1430.7813 Q278.8438,1430.5 279.4688,1429.9219 L279.4688,1432.6406 Z " fill="#FFFFFF"/><text fill="#FFFFFF" font-family="sans-serif" font-size="14" lengthAdjust="spacing" textLength="141" x="290.5" y="1431.8467">SymfonyPropertyInfo</text><line style="stroke:#E7E7E7;stroke-width:0.5;" x1="262.5" x2="433.5" y1="1443" y2="1443"/><line style="stroke:#E7E7E7;stroke-width:0.5;" x1="262.5" x2="433.5" y1="1451" y2="1451"/></g><!--class PropertyMapperResolver--><g id="elem_PropertyMapperResolver"><rect fill="#313139" height="48" id="PropertyMapperResolver" rx="2.5" ry="2.5" style="stroke:#E7E7E7;stroke-width:0.5;" width="202" x="470" y="1411"/><ellipse cx="485" cy="1427" fill="#2E5233" rx="11" ry="11" style="stroke:#E7E7E7;stroke-width:1.0;"/><path d="M487.9688,1432.6406 Q487.3906,1432.9375 486.75,1433.0781 Q486.1094,1433.2344 485.4063,1433.2344 Q482.9063,1433.2344 481.5781,1431.5938 Q480.2656,1429.9375 480.2656,1426.8125 Q480.2656,1423.6875 481.5781,1422.0313 Q482.9063,1420.375 485.4063,1420.375 Q486.1094,1420.375 486.75,1420.5313 Q487.4063,1420.6875 487.9688,1420.9844 L487.9688,1423.7031 Q487.3438,1423.125 486.75,1422.8594 Q486.1563,1422.5781 485.5313,1422.5781 Q484.1875,1422.5781 483.5,1423.6563 Q482.8125,1424.7188 482.8125,1426.8125 Q482.8125,1428.9063 483.5,1429.9844 Q484.1875,1431.0469 485.5313,1431.0469 Q486.1563,1431.0469 486.75,1430.7813 Q487.3438,1430.5 487.9688,1429.9219 L487.9688,1432.6406 Z " fill="#FFFFFF"/><text fill="#FFFFFF" font-family="sans-serif" font-size="14" lengthAdjust="spacing" textLength="170" x="499" y="1431.8467">PropertyMapperResolver</text><line style="stroke:#E7E7E7;stroke-width:0.5;" x1="471" x2="671" y1="1443" y2="1443"/><line style="stroke:#E7E7E7;stroke-width:0.5;" x1="471" x2="671" y1="1451" y2="1451"/></g><!--class ProxyGenerator--><g id="elem_ProxyGenerator"><rect fill="#313139" height="48" id="ProxyGenerator" rx="2.5" ry="2.5" style="stroke:#E7E7E7;stroke-width:0.5;" width="139" x="616.5" y="1303"/><ellipse cx="631.5" cy="1319" fill="#2E5233" rx="11" ry="11" style="stroke:#E7E7E7;stroke-width:1.0;"/><path d="M634.4688,1324.6406 Q633.8906,1324.9375 633.25,1325.0781 Q632.6094,1325.2344 631.9063,1325.2344 Q629.4063,1325.2344 628.0781,1323.5938 Q626.7656,1321.9375 626.7656,1318.8125 Q626.7656,1315.6875 628.0781,1314.0313 Q629.4063,1312.375 631.9063,1312.375 Q632.6094,1312.375 633.25,1312.5313 Q633.9063,1312.6875 634.4688,1312.9844 L634.4688,1315.7031 Q633.8438,1315.125 633.25,1314.8594 Q632.6563,1314.5781 632.0313,1314.5781 Q630.6875,1314.5781 630,1315.6563 Q629.3125,1316.7188 629.3125,1318.8125 Q629.3125,1320.9063 630,1321.9844 Q630.6875,1323.0469 632.0313,1323.0469 Q632.6563,1323.0469 633.25,1322.7813 Q633.8438,1322.5 634.4688,1321.9219 L634.4688,1324.6406 Z " fill="#FFFFFF"/><text fill="#FFFFFF" font-family="sans-serif" font-size="14" lengthAdjust="spacing" textLength="107" x="645.5" y="1323.8467">ProxyGenerator</text><line style="stroke:#E7E7E7;stroke-width:0.5;" x1="617.5" x2="754.5" y1="1335" y2="1335"/><line style="stroke:#E7E7E7;stroke-width:0.5;" x1="617.5" x2="754.5" y1="1343" y2="1343"/></g><!--class TraversableToArrayAccessTransformer--><g id="elem_TraversableToArrayAccessTransformer"><rect codeLine="55" fill="#313139" height="48" id="TraversableToArrayAccessTransformer" rx="2.5" ry="2.5" style="stroke:#E7E7E7;stroke-width:0.5;" width="298" x="755" y="655"/><ellipse cx="770" cy="671" fill="#2E5233" rx="11" ry="11" style="stroke:#E7E7E7;stroke-width:1.0;"/><path d="M772.9688,676.6406 Q772.3906,676.9375 771.75,677.0781 Q771.1094,677.2344 770.4063,677.2344 Q767.9063,677.2344 766.5781,675.5938 Q765.2656,673.9375 765.2656,670.8125 Q765.2656,667.6875 766.5781,666.0313 Q767.9063,664.375 770.4063,664.375 Q771.1094,664.375 771.75,664.5313 Q772.4063,664.6875 772.9688,664.9844 L772.9688,667.7031 Q772.3438,667.125 771.75,666.8594 Q771.1563,666.5781 770.5313,666.5781 Q769.1875,666.5781 768.5,667.6563 Q767.8125,668.7188 767.8125,670.8125 Q767.8125,672.9063 768.5,673.9844 Q769.1875,675.0469 770.5313,675.0469 Q771.1563,675.0469 771.75,674.7813 Q772.3438,674.5 772.9688,673.9219 L772.9688,676.6406 Z " fill="#FFFFFF"/><text fill="#FFFFFF" font-family="sans-serif" font-size="14" lengthAdjust="spacing" textLength="266" x="784" y="675.8467">TraversableToArrayAccessTransformer</text><line style="stroke:#E7E7E7;stroke-width:0.5;" x1="756" x2="1052" y1="687" y2="687"/><line style="stroke:#E7E7E7;stroke-width:0.5;" x1="756" x2="1052" y1="695" y2="695"/></g><!--class ArrayLikeMetadataFactory--><g id="elem_ArrayLikeMetadataFactory"><rect fill="#313139" height="48" id="ArrayLikeMetadataFactory" rx="2.5" ry="2.5" style="stroke:#E7E7E7;stroke-width:0.5;" width="207" x="900.5" y="871"/><ellipse cx="915.5" cy="887" fill="#2E5233" rx="11" ry="11" style="stroke:#E7E7E7;stroke-width:1.0;"/><path d="M918.4688,892.6406 Q917.8906,892.9375 917.25,893.0781 Q916.6094,893.2344 915.9063,893.2344 Q913.4063,893.2344 912.0781,891.5938 Q910.7656,889.9375 910.7656,886.8125 Q910.7656,883.6875 912.0781,882.0313 Q913.4063,880.375 915.9063,880.375 Q916.6094,880.375 917.25,880.5313 Q917.9063,880.6875 918.4688,880.9844 L918.4688,883.7031 Q917.8438,883.125 917.25,882.8594 Q916.6563,882.5781 916.0313,882.5781 Q914.6875,882.5781 914,883.6563 Q913.3125,884.7188 913.3125,886.8125 Q913.3125,888.9063 914,889.9844 Q914.6875,891.0469 916.0313,891.0469 Q916.6563,891.0469 917.25,890.7813 Q917.8438,890.5 918.4688,889.9219 L918.4688,892.6406 Z " fill="#FFFFFF"/><text fill="#FFFFFF" font-family="sans-serif" font-size="14" lengthAdjust="spacing" textLength="175" x="929.5" y="891.8467">ArrayLikeMetadataFactory</text><line style="stroke:#E7E7E7;stroke-width:0.5;" x1="901.5" x2="1106.5" y1="903" y2="903"/><line style="stroke:#E7E7E7;stroke-width:0.5;" x1="901.5" x2="1106.5" y1="911" y2="911"/></g><!--class TraversableToTraversableTransformer--><g id="elem_TraversableToTraversableTransformer"><rect codeLine="59" fill="#313139" height="48" id="TraversableToTraversableTransformer" rx="2.5" ry="2.5" style="stroke:#E7E7E7;stroke-width:0.5;" width="294" x="958" y="763"/><ellipse cx="973" cy="779" fill="#2E5233" rx="11" ry="11" style="stroke:#E7E7E7;stroke-width:1.0;"/><path d="M975.9688,784.6406 Q975.3906,784.9375 974.75,785.0781 Q974.1094,785.2344 973.4063,785.2344 Q970.9063,785.2344 969.5781,783.5938 Q968.2656,781.9375 968.2656,778.8125 Q968.2656,775.6875 969.5781,774.0313 Q970.9063,772.375 973.4063,772.375 Q974.1094,772.375 974.75,772.5313 Q975.4063,772.6875 975.9688,772.9844 L975.9688,775.7031 Q975.3438,775.125 974.75,774.8594 Q974.1563,774.5781 973.5313,774.5781 Q972.1875,774.5781 971.5,775.6563 Q970.8125,776.7188 970.8125,778.8125 Q970.8125,780.9063 971.5,781.9844 Q972.1875,783.0469 973.5313,783.0469 Q974.1563,783.0469 974.75,782.7813 Q975.3438,782.5 975.9688,781.9219 L975.9688,784.6406 Z " fill="#FFFFFF"/><text fill="#FFFFFF" font-family="sans-serif" font-size="14" lengthAdjust="spacing" textLength="262" x="987" y="783.8467">TraversableToTraversableTransformer</text><line style="stroke:#E7E7E7;stroke-width:0.5;" x1="959" x2="1251" y1="795" y2="795"/><line style="stroke:#E7E7E7;stroke-width:0.5;" x1="959" x2="1251" y1="803" y2="803"/></g><!--class PropertyAccessor--><g id="elem_PropertyAccessor"><rect fill="#313139" height="48" id="PropertyAccessor" rx="2.5" ry="2.5" style="stroke:#E7E7E7;stroke-width:0.5;" width="154" x="159" y="1303"/><ellipse cx="174" cy="1319" fill="#2E5233" rx="11" ry="11" style="stroke:#E7E7E7;stroke-width:1.0;"/><path d="M176.9688,1324.6406 Q176.3906,1324.9375 175.75,1325.0781 Q175.1094,1325.2344 174.4063,1325.2344 Q171.9063,1325.2344 170.5781,1323.5938 Q169.2656,1321.9375 169.2656,1318.8125 Q169.2656,1315.6875 170.5781,1314.0313 Q171.9063,1312.375 174.4063,1312.375 Q175.1094,1312.375 175.75,1312.5313 Q176.4063,1312.6875 176.9688,1312.9844 L176.9688,1315.7031 Q176.3438,1315.125 175.75,1314.8594 Q175.1563,1314.5781 174.5313,1314.5781 Q173.1875,1314.5781 172.5,1315.6563 Q171.8125,1316.7188 171.8125,1318.8125 Q171.8125,1320.9063 172.5,1321.9844 Q173.1875,1323.0469 174.5313,1323.0469 Q175.1563,1323.0469 175.75,1322.7813 Q176.3438,1322.5 176.9688,1321.9219 L176.9688,1324.6406 Z " fill="#FFFFFF"/><text fill="#FFFFFF" font-family="sans-serif" font-size="14" lengthAdjust="spacing" textLength="122" x="188" y="1323.8467">PropertyAccessor</text><line style="stroke:#E7E7E7;stroke-width:0.5;" x1="160" x2="312" y1="1335" y2="1335"/><line style="stroke:#E7E7E7;stroke-width:0.5;" x1="160" x2="312" y1="1343" y2="1343"/></g><!--link Mapper to MainTransformer--><g id="link_Mapper_MainTransformer"><path codeLine="3" d="M508,55 C508,72.66 508,90.94 508,108.68 " fill="none" id="Mapper-to-MainTransformer" style="stroke:#E7E7E7;stroke-width:1.0;stroke-dasharray:7.0,7.0;"/><polygon fill="#E7E7E7" points="508,114.68,512,105.68,508,109.68,504,105.68,508,114.68" style="stroke:#E7E7E7;stroke-width:1.0;"/></g><!--link MainTransformer to ObjectCacheFactory--><g id="link_MainTransformer_ObjectCacheFactory"><path codeLine="6" d="M463.08,163 C428.48,180.72 386.1904,202.3751 351.5304,220.1251 " fill="none" id="MainTransformer-to-ObjectCacheFactory" style="stroke:#E7E7E7;stroke-width:1.0;stroke-dasharray:7.0,7.0;"/><polygon fill="#E7E7E7" points="346.19,222.86,356.0239,222.3179,350.6404,220.5809,352.3774,215.1973,346.19,222.86" style="stroke:#E7E7E7;stroke-width:1.0;"/></g><!--link MainTransformer to TransformerRegistry--><g id="link_MainTransformer_TransformerRegistry"><path codeLine="7" d="M508,163 C508,180.66 508,198.94 508,216.68 " fill="none" id="MainTransformer-to-TransformerRegistry" style="stroke:#E7E7E7;stroke-width:1.0;stroke-dasharray:7.0,7.0;"/><polygon fill="#E7E7E7" points="508,222.68,512,213.68,508,217.68,504,213.68,508,222.68" style="stroke:#E7E7E7;stroke-width:1.0;"/></g><!--link TransformerRegistry to Transformer--><g id="link_TransformerRegistry_Transformer"><path codeLine="11" d="M475.69,271.18 C456.89,286.24 434.18,307.42 420,331 C399.46,365.16 391.1779,405.3674 387.3579,432.7874 " fill="none" id="TransformerRegistry-to-Transformer" style="stroke:#E7E7E7;stroke-width:1.0;stroke-dasharray:7.0,7.0;"/><polygon fill="#E7E7E7" points="386.53,438.73,391.7336,430.368,387.2199,433.7778,383.8101,429.2642,386.53,438.73" style="stroke:#E7E7E7;stroke-width:1.0;"/></g><!--link TransformerRegistry to MappingFactory--><g id="link_TransformerRegistry_MappingFactory"><path codeLine="13" d="M508,271 C508,288.66 508,306.94 508,324.68 " fill="none" id="TransformerRegistry-to-MappingFactory" style="stroke:#E7E7E7;stroke-width:1.0;stroke-dasharray:7.0,7.0;"/><polygon fill="#E7E7E7" points="508,330.68,512,321.68,508,325.68,504,321.68,508,330.68" style="stroke:#E7E7E7;stroke-width:1.0;"/></g><!--reverse link Transformer to Transformer&MainTransformerAware--><g id="link_Transformer_Transformer&amp;MainTransformerAware"><path codeLine="18" d="M458.8197,489.3413 C511.7297,507.2513 573.02,528.01 628.94,546.95 " fill="none" id="Transformer-backto-Transformer&amp;MainTransformerAware" style="stroke:#E7E7E7;stroke-width:1.0;stroke-dasharray:7.0,7.0;"/><polygon fill="none" points="441.77,483.57,456.8959,495.0245,460.7435,483.6581,441.77,483.57" style="stroke:#E7E7E7;stroke-width:1.0;"/></g><!--link Transformer&MainTransformerAware to MainTransformer--><g id="link_Transformer&amp;MainTransformerAware_MainTransformer"><path codeLine="19" d="M696.38,546.93 C693.79,488.2 680.48,330.13 612,223 C596.2,198.28 575.4835,180.9713 553.5735,166.4713 " fill="none" id="Transformer&amp;MainTransformerAware-to-MainTransformer" style="stroke:#E7E7E7;stroke-width:1.0;stroke-dasharray:7.0,7.0;"/><polygon fill="#E7E7E7" points="548.57,163.16,553.8677,171.4627,552.7396,165.9194,558.2828,164.7913,548.57,163.16" style="stroke:#E7E7E7;stroke-width:1.0;"/></g><!--link ArrayToObjectTransformer to SymfonySerializer--><g id="link_ArrayToObjectTransformer_SymfonySerializer"><path codeLine="22" d="M334.88,595.15 C329.99,623.52 318.11,671.66 291,703 C267.72,729.91 239.0054,747.0715 208.5454,760.4215 " fill="none" id="ArrayToObjectTransformer-to-SymfonySerializer" style="stroke:#E7E7E7;stroke-width:1.0;stroke-dasharray:7.0,7.0;"/><polygon fill="#E7E7E7" points="203.05,762.83,212.8987,762.8808,207.6295,760.8229,209.6874,755.5537,203.05,762.83" style="stroke:#E7E7E7;stroke-width:1.0;"/></g><!--reverse link Transformer to ArrayToObjectTransformer--><g id="link_Transformer_ArrayToObjectTransformer"><path codeLine="23" d="M366.8573,503.5135 C359.1973,521.1735 355.82,528.94 348.12,546.68 " fill="none" id="Transformer-backto-ArrayToObjectTransformer" style="stroke:#E7E7E7;stroke-width:1.0;stroke-dasharray:7.0,7.0;"/><polygon fill="none" points="374.02,487,361.3528,501.1259,372.3618,505.9011,374.02,487" style="stroke:#E7E7E7;stroke-width:1.0;"/></g><!--link ObjectToArrayTransformer to SymfonySerializer--><g id="link_ObjectToArrayTransformer_SymfonySerializer"><path codeLine="26" d="M160.06,703 C154.73,720.66 149.1354,739.1964 143.7754,756.9364 " fill="none" id="ObjectToArrayTransformer-to-SymfonySerializer" style="stroke:#E7E7E7;stroke-width:1.0;stroke-dasharray:7.0,7.0;"/><polygon fill="#E7E7E7" points="142.04,762.68,148.4721,755.2216,143.4861,757.8937,140.814,752.9077,142.04,762.68" style="stroke:#E7E7E7;stroke-width:1.0;"/></g><!--reverse link Transformer to ObjectToArrayTransformer--><g id="link_Transformer_ObjectToArrayTransformer"><path codeLine="27" d="M309.1966,485.7262 C272.5766,498.4462 243.7,513.85 214,547 C186.27,577.95 174.58,626.45 169.9,654.94 " fill="none" id="Transformer-backto-ObjectToArrayTransformer" style="stroke:#E7E7E7;stroke-width:1.0;stroke-dasharray:7.0,7.0;"/><polygon fill="none" points="326.2,479.82,307.2278,480.0584,311.1653,491.394,326.2,479.82" style="stroke:#E7E7E7;stroke-width:1.0;"/></g><!--link ClassMethodTransformer to SubMapperFactory--><g id="link_ClassMethodTransformer_SubMapperFactory"><path codeLine="30" d="M279.09,1135 C297.58,1152.66 318.6604,1172.7966 337.2404,1190.5366 " fill="none" id="ClassMethodTransformer-to-SubMapperFactory" style="stroke:#E7E7E7;stroke-width:1.0;stroke-dasharray:7.0,7.0;"/><polygon fill="#E7E7E7" points="341.58,1194.68,337.8329,1185.5718,337.9637,1191.2272,332.3083,1191.358,341.58,1194.68" style="stroke:#E7E7E7;stroke-width:1.0;"/></g><!--reverse link Transformer to ClassMethodTransformer--><g id="link_Transformer_ClassMethodTransformer"><path codeLine="31" d="M308.3519,472.6017 C202.4619,487.3417 6,532.64 6,678 C6,678 6,678 6,896 C6,993.33 116.77,1056.03 190.55,1086.99 " fill="none" id="Transformer-backto-ClassMethodTransformer" style="stroke:#E7E7E7;stroke-width:1.0;stroke-dasharray:7.0,7.0;"/><polygon fill="none" points="326.18,470.12,307.5247,466.659,309.1791,478.5444,326.18,470.12" style="stroke:#E7E7E7;stroke-width:1.0;"/></g><!--reverse link Transformer to ObjectMapperTransformer--><g id="link_Transformer_ObjectMapperTransformer"><path d="M422.6396,499.8419 C438.9896,515.6019 446.9,524.99 462,547 C485.98,581.96 505.62,627.45 516.29,654.6 " fill="none" id="Transformer-backto-ObjectMapperTransformer" style="stroke:#E7E7E7;stroke-width:1.0;stroke-dasharray:7.0,7.0;"/><polygon fill="none" points="409.68,487.35,418.4756,504.1618,426.8036,495.5221,409.68,487.35" style="stroke:#E7E7E7;stroke-width:1.0;"/></g><!--reverse link Transformer&MainTransformerAware to ObjectMapperTransformer--><g id="link_Transformer&amp;MainTransformerAware_ObjectMapperTransformer"><path codeLine="34" d="M644.3567,604.4445 C615.6067,622.1645 591.35,637.11 562.55,654.86 " fill="none" id="Transformer&amp;MainTransformerAware-backto-ObjectMapperTransformer" style="stroke:#E7E7E7;stroke-width:1.0;stroke-dasharray:7.0,7.0;"/><polygon fill="none" points="659.68,595,641.2086,599.3367,647.5049,609.5522,659.68,595" style="stroke:#E7E7E7;stroke-width:1.0;"/></g><!--link ObjectMapperTransformer to SubMapperFactory--><g id="link_ObjectMapperTransformer_SubMapperFactory"><path codeLine="35" d="M545.44,703.16 C576.24,740.54 631,817.71 631,894 C631,894 631,894 631,1004 C631,1103.49 522.1289,1162.4931 443.6589,1192.7231 " fill="none" id="ObjectMapperTransformer-to-SubMapperFactory" style="stroke:#E7E7E7;stroke-width:1.0;stroke-dasharray:7.0,7.0;"/><polygon fill="#E7E7E7" points="438.06,1194.88,447.8963,1195.3772,442.7257,1193.0826,445.0204,1187.912,438.06,1194.88" style="stroke:#E7E7E7;stroke-width:1.0;"/></g><!--link ObjectMapperTransformer to ObjectMapperTableFactory--><g id="link_ObjectMapperTransformer_ObjectMapperTableFactory"><path codeLine="36" d="M527.21,703.41 C529.16,729.8 530.74,773.85 524,811 C512.56,874.07 484.7249,938.3006 468.0049,973.4906 " fill="none" id="ObjectMapperTransformer-to-ObjectMapperTableFactory" style="stroke:#E7E7E7;stroke-width:1.0;stroke-dasharray:7.0,7.0;"/><polygon fill="#E7E7E7" points="465.43,978.91,472.9053,972.4976,467.5758,974.3938,465.6795,969.0643,465.43,978.91" style="stroke:#E7E7E7;stroke-width:1.0;"/></g><!--link ObjectMapperTransformer to ObjectMapperResolver--><g id="link_ObjectMapperTransformer_ObjectMapperResolver"><path codeLine="37" d="M500.48,703 C481.66,720.66 460.1459,740.8349 441.2359,758.5749 " fill="none" id="ObjectMapperTransformer-to-ObjectMapperResolver" style="stroke:#E7E7E7;stroke-width:1.0;stroke-dasharray:7.0,7.0;"/><polygon fill="#E7E7E7" points="436.86,762.68,446.1605,759.4396,440.5065,759.2591,440.687,753.6051,436.86,762.68" style="stroke:#E7E7E7;stroke-width:1.0;"/></g><!--link ObjectMapperTransformer to ObjectMapper--><g id="link_ObjectMapperTransformer_ObjectMapper"><path codeLine="38" d="M418.37,693.46 C374.62,704.71 327.8,725.3 300,763 C276.89,794.35 280.3617,836.3848 285.9917,864.7448 " fill="none" id="ObjectMapperTransformer-to-ObjectMapper" style="stroke:#E7E7E7;stroke-width:1.0;stroke-dasharray:7.0,7.0;"/><polygon fill="#E7E7E7" points="287.16,870.63,289.331,861.0234,286.1864,865.7257,281.4841,862.5811,287.16,870.63" style="stroke:#E7E7E7;stroke-width:1.0;"/></g><!--link ObjectMapperResolver to ObjectMapper--><g id="link_ObjectMapperResolver_ObjectMapper"><path codeLine="40" d="M386.18,811 C366.36,828.66 343.5697,848.9485 323.6597,866.6885 " fill="none" id="ObjectMapperResolver-to-ObjectMapper" style="stroke:#E7E7E7;stroke-width:1.0;stroke-dasharray:7.0,7.0;"/><polygon fill="#E7E7E7" points="319.18,870.68,328.5606,867.6793,322.9131,867.3538,323.2386,861.7063,319.18,870.68" style="stroke:#E7E7E7;stroke-width:1.0;"/></g><!--reverse link Transformer&MainTransformerAware to ObjectToObjectTransformer--><g id="link_Transformer&amp;MainTransformerAware_ObjectToObjectTransformer"><path codeLine="43" d="M706.3587,612.6611 C723.5487,687.3211 773.42,903.94 790.65,978.77 " fill="none" id="Transformer&amp;MainTransformerAware-backto-ObjectToObjectTransformer" style="stroke:#E7E7E7;stroke-width:1.0;stroke-dasharray:7.0,7.0;"/><polygon fill="none" points="702.32,595.12,700.5117,614.0073,712.2057,611.3148,702.32,595.12" style="stroke:#E7E7E7;stroke-width:1.0;"/></g><!--link ObjectToObjectTransformer to ProxyRegistry--><g id="link_ObjectToObjectTransformer_ProxyRegistry"><path codeLine="44" d="M857.62,1027 C905.1,1044.72 964.8186,1067.0125 1012.3886,1084.7625 " fill="none" id="ObjectToObjectTransformer-to-ProxyRegistry" style="stroke:#E7E7E7;stroke-width:1.0;stroke-dasharray:7.0,7.0;"/><polygon fill="#E7E7E7" points="1018.01,1086.86,1010.9762,1079.9661,1013.3255,1085.112,1008.1795,1087.4613,1018.01,1086.86" style="stroke:#E7E7E7;stroke-width:1.0;"/></g><!--link ObjectToObjectTransformer to ObjectToObjectMetadataFactory--><g id="link_ObjectToObjectTransformer_ObjectToObjectMetadataFactory"><path codeLine="45" d="M787.18,1027.23 C776.79,1053.83 758.47,1098.44 739,1135 C727.83,1155.98 716.5253,1173.6726 705.4553,1190.0126 " fill="none" id="ObjectToObjectTransformer-to-ObjectToObjectMetadataFactory" style="stroke:#E7E7E7;stroke-width:1.0;stroke-dasharray:7.0,7.0;"/><polygon fill="#E7E7E7" points="702.09,1194.98,710.4495,1189.7725,704.8944,1190.8405,703.8264,1185.2854,702.09,1194.98" style="stroke:#E7E7E7;stroke-width:1.0;"/></g><!--link ObjectToObjectTransformer to PropertyMapper--><g id="link_ObjectToObjectTransformer_PropertyMapper"><path codeLine="46" d="M832.04,1027.2 C881.4,1062.12 964,1133.22 964,1218 C964,1218 964,1218 964,1328 C964,1388.38 966.04,1412.11 928,1459 C905.02,1487.33 875.3555,1504.7392 843.7155,1517.8092 " fill="none" id="ObjectToObjectTransformer-to-PropertyMapper" style="stroke:#E7E7E7;stroke-width:1.0;stroke-dasharray:7.0,7.0;"/><polygon fill="#E7E7E7" points="838.17,1520.1,848.0154,1520.3609,842.7912,1518.191,844.9611,1512.9669,838.17,1520.1" style="stroke:#E7E7E7;stroke-width:1.0;"/></g><!--link ObjectToObjectTransformer to SubMapperFactory--><g id="link_ObjectToObjectTransformer_SubMapperFactory"><path codeLine="47" d="M777.58,1027.19 C753.08,1056.51 707.02,1106.57 657,1135 C591.23,1172.38 513.2711,1192.8323 452.4811,1204.5723 " fill="none" id="ObjectToObjectTransformer-to-SubMapperFactory" style="stroke:#E7E7E7;stroke-width:1.0;stroke-dasharray:7.0,7.0;"/><polygon fill="#E7E7E7" points="446.59,1205.71,456.1852,1207.9308,451.4993,1204.7619,454.6682,1200.076,446.59,1205.71" style="stroke:#E7E7E7;stroke-width:1.0;"/></g><!--link ObjectToObjectMetadataFactory to EagerPropertiesResolver--><g id="link_ObjectToObjectMetadataFactory_EagerPropertiesResolver"><path codeLine="49" d="M717.94,1243.25 C736.52,1258.34 758.97,1279.52 773,1303 C793.44,1337.22 801.743,1377.4087 805.603,1404.8087 " fill="none" id="ObjectToObjectMetadataFactory-to-EagerPropertiesResolver" style="stroke:#E7E7E7;stroke-width:1.0;stroke-dasharray:7.0,7.0;"/><polygon fill="#E7E7E7" points="806.44,1410.75,809.1454,1401.28,805.7425,1405.7989,801.2236,1402.396,806.44,1410.75" style="stroke:#E7E7E7;stroke-width:1.0;"/></g><!--link ObjectToObjectMetadataFactory to SymfonyPropertyInfo--><g id="link_ObjectToObjectMetadataFactory_SymfonyPropertyInfo"><path codeLine="50" d="M649.51,1243.11 C584.47,1284.28 454.3393,1366.6704 389.4093,1407.7804 " fill="none" id="ObjectToObjectMetadataFactory-to-SymfonyPropertyInfo" style="stroke:#E7E7E7;stroke-width:1.0;stroke-dasharray:7.0,7.0;"/><polygon fill="#E7E7E7" points="384.34,1410.99,394.0838,1409.5551,388.5645,1408.3153,389.8043,1402.796,384.34,1410.99" style="stroke:#E7E7E7;stroke-width:1.0;"/></g><!--link ObjectToObjectMetadataFactory to PropertyMapperResolver--><g id="link_ObjectToObjectMetadataFactory_PropertyMapperResolver"><path codeLine="51" d="M653.14,1243.31 C634.47,1258.28 612.24,1279.31 599,1303 C579.82,1337.31 574.1755,1377.4244 572.2755,1404.7944 " fill="none" id="ObjectToObjectMetadataFactory-to-PropertyMapperResolver" style="stroke:#E7E7E7;stroke-width:1.0;stroke-dasharray:7.0,7.0;"/><polygon fill="#E7E7E7" points="571.86,1410.78,576.4737,1402.0786,572.2063,1405.792,568.4929,1401.5246,571.86,1410.78" style="stroke:#E7E7E7;stroke-width:1.0;"/></g><!--link ObjectToObjectMetadataFactory to ProxyGenerator--><g id="link_ObjectToObjectMetadataFactory_ProxyGenerator"><path codeLine="52" d="M686,1243 C686,1260.66 686,1278.94 686,1296.68 " fill="none" id="ObjectToObjectMetadataFactory-to-ProxyGenerator" style="stroke:#E7E7E7;stroke-width:1.0;stroke-dasharray:7.0,7.0;"/><polygon fill="#E7E7E7" points="686,1302.68,690,1293.68,686,1297.68,682,1293.68,686,1302.68" style="stroke:#E7E7E7;stroke-width:1.0;"/></g><!--reverse link Transformer&MainTransformerAware to TraversableToArrayAccessTransformer--><g id="link_Transformer&amp;MainTransformerAware_TraversableToArrayAccessTransformer"><path codeLine="56" d="M757.9411,603.205 C792.5411,620.925 824.15,637.11 858.81,654.86 " fill="none" id="Transformer&amp;MainTransformerAware-backto-TraversableToArrayAccessTransformer" style="stroke:#E7E7E7;stroke-width:1.0;stroke-dasharray:7.0,7.0;"/><polygon fill="none" points="741.92,595,755.2061,608.5454,760.6762,597.8647,741.92,595" style="stroke:#E7E7E7;stroke-width:1.0;"/></g><!--link TraversableToArrayAccessTransformer to ArrayLikeMetadataFactory--><g id="link_TraversableToArrayAccessTransformer_ArrayLikeMetadataFactory"><path codeLine="57" d="M907.83,703.2 C912.89,730.15 923.29,775.46 941,811 C951.97,833.02 965.1584,850.5203 978.7684,866.3503 " fill="none" id="TraversableToArrayAccessTransformer-to-ArrayLikeMetadataFactory" style="stroke:#E7E7E7;stroke-width:1.0;stroke-dasharray:7.0,7.0;"/><polygon fill="#E7E7E7" points="982.68,870.9,979.8457,861.4678,979.4203,867.1086,973.7795,866.6833,982.68,870.9" style="stroke:#E7E7E7;stroke-width:1.0;"/></g><!--reverse link Transformer&MainTransformerAware to TraversableToTraversableTransformer--><g id="link_Transformer&amp;MainTransformerAware_TraversableToTraversableTransformer"><path codeLine="60" d="M856.9261,590.6161 C948.1561,603.7561 1037.74,622.9 1071,655 C1100.33,683.31 1105.52,733.42 1105.82,762.77 " fill="none" id="Transformer&amp;MainTransformerAware-backto-TraversableToTraversableTransformer" style="stroke:#E7E7E7;stroke-width:1.0;stroke-dasharray:7.0,7.0;"/><polygon fill="none" points="839.11,588.05,856.0708,596.5548,857.7815,584.6774,839.11,588.05" style="stroke:#E7E7E7;stroke-width:1.0;"/></g><!--link TraversableToTraversableTransformer to ArrayLikeMetadataFactory--><g id="link_TraversableToTraversableTransformer_ArrayLikeMetadataFactory"><path codeLine="61" d="M1083.08,811 C1066.26,828.66 1047.2585,848.5958 1030.3585,866.3358 " fill="none" id="TraversableToTraversableTransformer-to-ArrayLikeMetadataFactory" style="stroke:#E7E7E7;stroke-width:1.0;stroke-dasharray:7.0,7.0;"/><polygon fill="#E7E7E7" points="1026.22,870.68,1035.324,866.9227,1029.6688,867.0598,1029.5317,861.4046,1026.22,870.68" style="stroke:#E7E7E7;stroke-width:1.0;"/></g><!--link PropertyMapperResolver to PropertyMapper--><g id="link_PropertyMapperResolver_PropertyMapper"><path codeLine="63" d="M613.53,1459 C646.29,1476.72 686.112,1498.2564 718.942,1516.0064 " fill="none" id="PropertyMapperResolver-to-PropertyMapper" style="stroke:#E7E7E7;stroke-width:1.0;stroke-dasharray:7.0,7.0;"/><polygon fill="#E7E7E7" points="724.22,1518.86,718.2055,1511.0609,719.8217,1516.482,714.4006,1518.0982,724.22,1518.86" style="stroke:#E7E7E7;stroke-width:1.0;"/></g><!--link MappingFactory to Transformer--><g id="link_MappingFactory_Transformer"><path codeLine="68" d="M481.09,379 C460.44,396.66 436.5905,417.041 415.8405,434.781 " fill="none" id="MappingFactory-to-Transformer" style="stroke:#E7E7E7;stroke-width:1.0;stroke-dasharray:7.0,7.0;"/><polygon fill="#E7E7E7" points="411.28,438.68,420.7201,435.8719,415.0804,435.4309,415.5214,429.7912,411.28,438.68" style="stroke:#E7E7E7;stroke-width:1.0;"/></g><!--link ObjectMapperResolver to ObjectMapperTableFactory--><g id="link_ObjectMapperResolver_ObjectMapperTableFactory"><path codeLine="70" d="M416.57,811.31 C424.65,852.47 440.2051,931.6922 448.2751,972.8322 " fill="none" id="ObjectMapperResolver-to-ObjectMapperTableFactory" style="stroke:#E7E7E7;stroke-width:1.0;stroke-dasharray:7.0,7.0;"/><polygon fill="#E7E7E7" points="449.43,978.72,451.6228,969.1183,448.4675,973.8135,443.7724,970.6583,449.43,978.72" style="stroke:#E7E7E7;stroke-width:1.0;"/></g><!--link SubMapperFactory to SymfonyPropertyInfo--><g id="link_SubMapperFactory_SymfonyPropertyInfo"><path codeLine="72" d="M364.04,1243.31 C360.58,1284.47 353.9228,1363.6011 350.4628,1404.7411 " fill="none" id="SubMapperFactory-to-SymfonyPropertyInfo" style="stroke:#E7E7E7;stroke-width:1.0;stroke-dasharray:7.0,7.0;"/><polygon fill="#E7E7E7" points="349.96,1410.72,354.7002,1402.0869,350.379,1405.7376,346.7283,1401.4164,349.96,1410.72" style="stroke:#E7E7E7;stroke-width:1.0;"/></g><!--link SubMapperFactory to PropertyAccessor--><g id="link_SubMapperFactory_PropertyAccessor"><path codeLine="73" d="M337.79,1243 C316.14,1260.66 291.0104,1281.1487 269.2504,1298.8887 " fill="none" id="SubMapperFactory-to-PropertyAccessor" style="stroke:#E7E7E7;stroke-width:1.0;stroke-dasharray:7.0,7.0;"/><polygon fill="#E7E7E7" points="264.6,1302.68,274.1031,1300.0934,268.4753,1299.5206,269.0481,1293.8928,264.6,1302.68" style="stroke:#E7E7E7;stroke-width:1.0;"/></g><!--SRC=[dLPBRi8m4Dtx55ONxIudg90GQgjAHQqA5nZCGDqaTcIxdrGzV9quK3lOmM83ikUzUVFpW2wvQ411NKbMufPkW9Lx9J_4TY4hgQXH8BG5e324i0gqfaje6bJ4VT6YcDaRBjOTS2TLRKr7O7WzElVKvyqxChC0zeRtm8nKRHJcdLznpxMnk1iQHRODlgAMrMSN28aGnmwjeoJATvO2TONWOdy8dt1XKEs0OI0IlxuUfJ3_igNsbUZjRr7GgtEKAt8UCjMgkLBGhgNhXczF6NfdgxRUIT6kK76e-4zO8nTvql4WF1Yamtdsb25Jk4Xx7fGNtUSIpPlS-jRujLFzsBYXFxJwHDJA9jm6wJelFflNJOMrVMGw69gCflPLJhWbARa-r4X2K_XPg0ARwl1YAPqWXhJZOyeb41AZHs3XE9tEMsOf_SavTPAqz06zAFdT7jVJD3Qqsdc1BHW8-n3dkbvOBPksQOVq9mcHHfD9VKUwWpsgGOUZ7hLkaZgypqEGZs8dSsXXKjc2G-KVKA02UsSN-dbA-3lXfiVMpPvqDzh3tfWpXbfVyYHpV6LW-bXxqnClSJmdiRZzmmNpd-Ki0tCcy7YhQMIqZztq_oH4MdWp-Y4-XSJi_ehEsZJ-uYDa_B3Iunz1_gVgscudb_m1]--></g></svg>