<svg xmlns="http://www.w3.org/2000/svg" xmlns:xlink="http://www.w3.org/1999/xlink" contentStyleType="text/css" height="1574px" preserveAspectRatio="none" style="width:1278px;height:1574px;" version="1.1" viewBox="0 0 1278 1574" width="1278px" zoomAndPan="magnify"><defs/><g><!--class Mapper--><g id="elem_Mapper"><rect codeLine="2" fill="#313139" height="48" id="Mapper" rx="2.5" ry="2.5" style="stroke:#E7E7E7;stroke-width:0.5;" width="84.8008" x="473.5" y="7"/><ellipse cx="488.5" cy="23" fill="#2E5233" rx="11" ry="11" style="stroke:#E7E7E7;stroke-width:1.0;"/><path d="M491.4688,28.6406 Q490.8906,28.9375 490.25,29.0781 Q489.6094,29.2344 488.9063,29.2344 Q486.4063,29.2344 485.0781,27.5938 Q483.7656,25.9375 483.7656,22.8125 Q483.7656,19.6875 485.0781,18.0313 Q486.4063,16.375 488.9063,16.375 Q489.6094,16.375 490.25,16.5313 Q490.9063,16.6875 491.4688,16.9844 L491.4688,19.7031 Q490.8438,19.125 490.25,18.8594 Q489.6563,18.5781 489.0313,18.5781 Q487.6875,18.5781 487,19.6563 Q486.3125,20.7188 486.3125,22.8125 Q486.3125,24.9063 487,25.9844 Q487.6875,27.0469 489.0313,27.0469 Q489.6563,27.0469 490.25,26.7813 Q490.8438,26.5 491.4688,25.9219 L491.4688,28.6406 Z " fill="#FFFFFF"/><text fill="#FFFFFF" font-family="sans-serif" font-size="14" lengthAdjust="spacing" textLength="52.8008" x="502.5" y="27.8467">Mapper</text><line style="stroke:#E7E7E7;stroke-width:0.5;" x1="474.5" x2="557.3008" y1="39" y2="39"/><line style="stroke:#E7E7E7;stroke-width:0.5;" x1="474.5" x2="557.3008" y1="47" y2="47"/></g><!--class MainTransformer--><g id="elem_MainTransformer"><rect codeLine="5" fill="#313139" height="48" id="MainTransformer" rx="2.5" ry="2.5" style="stroke:#E7E7E7;stroke-width:0.5;" width="151.7314" x="440" y="115"/><ellipse cx="455" cy="131" fill="#2E5233" rx="11" ry="11" style="stroke:#E7E7E7;stroke-width:1.0;"/><path d="M457.9688,136.6406 Q457.3906,136.9375 456.75,137.0781 Q456.1094,137.2344 455.4063,137.2344 Q452.9063,137.2344 451.5781,135.5938 Q450.2656,133.9375 450.2656,130.8125 Q450.2656,127.6875 451.5781,126.0313 Q452.9063,124.375 455.4063,124.375 Q456.1094,124.375 456.75,124.5313 Q457.4063,124.6875 457.9688,124.9844 L457.9688,127.7031 Q457.3438,127.125 456.75,126.8594 Q456.1563,126.5781 455.5313,126.5781 Q454.1875,126.5781 453.5,127.6563 Q452.8125,128.7188 452.8125,130.8125 Q452.8125,132.9063 453.5,133.9844 Q454.1875,135.0469 455.5313,135.0469 Q456.1563,135.0469 456.75,134.7813 Q457.3438,134.5 457.9688,133.9219 L457.9688,136.6406 Z " fill="#FFFFFF"/><text fill="#FFFFFF" font-family="sans-serif" font-size="14" lengthAdjust="spacing" textLength="119.7314" x="469" y="135.8467">MainTransformer</text><line style="stroke:#E7E7E7;stroke-width:0.5;" x1="441" x2="590.7314" y1="147" y2="147"/><line style="stroke:#E7E7E7;stroke-width:0.5;" x1="441" x2="590.7314" y1="155" y2="155"/></g><!--class ObjectCacheFactory--><g id="elem_ObjectCacheFactory"><rect fill="#313139" height="48" id="ObjectCacheFactory" rx="2.5" ry="2.5" style="stroke:#E7E7E7;stroke-width:0.5;" width="173.5586" x="219" y="223"/><ellipse cx="234" cy="239" fill="#2E5233" rx="11" ry="11" style="stroke:#E7E7E7;stroke-width:1.0;"/><path d="M236.9688,244.6406 Q236.3906,244.9375 235.75,245.0781 Q235.1094,245.2344 234.4063,245.2344 Q231.9063,245.2344 230.5781,243.5938 Q229.2656,241.9375 229.2656,238.8125 Q229.2656,235.6875 230.5781,234.0313 Q231.9063,232.375 234.4063,232.375 Q235.1094,232.375 235.75,232.5313 Q236.4063,232.6875 236.9688,232.9844 L236.9688,235.7031 Q236.3438,235.125 235.75,234.8594 Q235.1563,234.5781 234.5313,234.5781 Q233.1875,234.5781 232.5,235.6563 Q231.8125,236.7188 231.8125,238.8125 Q231.8125,240.9063 232.5,241.9844 Q233.1875,243.0469 234.5313,243.0469 Q235.1563,243.0469 235.75,242.7813 Q236.3438,242.5 236.9688,241.9219 L236.9688,244.6406 Z " fill="#FFFFFF"/><text fill="#FFFFFF" font-family="sans-serif" font-size="14" lengthAdjust="spacing" textLength="141.5586" x="248" y="243.8467">ObjectCacheFactory</text><line style="stroke:#E7E7E7;stroke-width:0.5;" x1="220" x2="391.5586" y1="255" y2="255"/><line style="stroke:#E7E7E7;stroke-width:0.5;" x1="220" x2="391.5586" y1="263" y2="263"/></g><!--class TransformerRegistry--><g id="elem_TransformerRegistry"><rect fill="#313139" height="48" id="TransformerRegistry" rx="2.5" ry="2.5" style="stroke:#E7E7E7;stroke-width:0.5;" width="176.252" x="428" y="223"/><ellipse cx="443" cy="239" fill="#2E5233" rx="11" ry="11" style="stroke:#E7E7E7;stroke-width:1.0;"/><path d="M445.9688,244.6406 Q445.3906,244.9375 444.75,245.0781 Q444.1094,245.2344 443.4063,245.2344 Q440.9063,245.2344 439.5781,243.5938 Q438.2656,241.9375 438.2656,238.8125 Q438.2656,235.6875 439.5781,234.0313 Q440.9063,232.375 443.4063,232.375 Q444.1094,232.375 444.75,232.5313 Q445.4063,232.6875 445.9688,232.9844 L445.9688,235.7031 Q445.3438,235.125 444.75,234.8594 Q444.1563,234.5781 443.5313,234.5781 Q442.1875,234.5781 441.5,235.6563 Q440.8125,236.7188 440.8125,238.8125 Q440.8125,240.9063 441.5,241.9844 Q442.1875,243.0469 443.5313,243.0469 Q444.1563,243.0469 444.75,242.7813 Q445.3438,242.5 445.9688,241.9219 L445.9688,244.6406 Z " fill="#FFFFFF"/><text fill="#FFFFFF" font-family="sans-serif" font-size="14" lengthAdjust="spacing" textLength="144.252" x="457" y="243.8467">TransformerRegistry</text><line style="stroke:#E7E7E7;stroke-width:0.5;" x1="429" x2="603.252" y1="255" y2="255"/><line style="stroke:#E7E7E7;stroke-width:0.5;" x1="429" x2="603.252" y1="263" y2="263"/></g><!--class Transformer--><g id="elem_Transformer"><rect codeLine="15" fill="#313139" height="48" id="Transformer" rx="2.5" ry="2.5" style="stroke:#E7E7E7;stroke-width:0.5;" width="118.3105" x="331" y="439"/><ellipse cx="346" cy="455" fill="#352866" rx="11" ry="11" style="stroke:#E7E7E7;stroke-width:1.0;"/><path d="M341.9219,450.7656 L341.9219,448.6094 L349.3125,448.6094 L349.3125,450.7656 L346.8438,450.7656 L346.8438,458.8438 L349.3125,458.8438 L349.3125,461 L341.9219,461 L341.9219,458.8438 L344.3906,458.8438 L344.3906,450.7656 L341.9219,450.7656 Z " fill="#FFFFFF"/><text fill="#FFFFFF" font-family="sans-serif" font-size="14" font-style="italic" lengthAdjust="spacing" textLength="86.3105" x="360" y="459.8467">Transformer</text><line style="stroke:#E7E7E7;stroke-width:0.5;" x1="332" x2="448.3105" y1="471" y2="471"/><line style="stroke:#E7E7E7;stroke-width:0.5;" x1="332" x2="448.3105" y1="479" y2="479"/></g><!--class MappingFactory--><g id="elem_MappingFactory"><rect fill="#313139" height="48" id="MappingFactory" rx="2.5" ry="2.5" style="stroke:#E7E7E7;stroke-width:0.5;" width="144.5059" x="443.5" y="331"/><ellipse cx="458.5" cy="347" fill="#2E5233" rx="11" ry="11" style="stroke:#E7E7E7;stroke-width:1.0;"/><path d="M461.4688,352.6406 Q460.8906,352.9375 460.25,353.0781 Q459.6094,353.2344 458.9063,353.2344 Q456.4063,353.2344 455.0781,351.5938 Q453.7656,349.9375 453.7656,346.8125 Q453.7656,343.6875 455.0781,342.0313 Q456.4063,340.375 458.9063,340.375 Q459.6094,340.375 460.25,340.5313 Q460.9063,340.6875 461.4688,340.9844 L461.4688,343.7031 Q460.8438,343.125 460.25,342.8594 Q459.6563,342.5781 459.0313,342.5781 Q457.6875,342.5781 457,343.6563 Q456.3125,344.7188 456.3125,346.8125 Q456.3125,348.9063 457,349.9844 Q457.6875,351.0469 459.0313,351.0469 Q459.6563,351.0469 460.25,350.7813 Q460.8438,350.5 461.4688,349.9219 L461.4688,352.6406 Z " fill="#FFFFFF"/><text fill="#FFFFFF" font-family="sans-serif" font-size="14" lengthAdjust="spacing" textLength="112.5059" x="472.5" y="351.8467">MappingFactory</text><line style="stroke:#E7E7E7;stroke-width:0.5;" x1="444.5" x2="587.0059" y1="363" y2="363"/><line style="stroke:#E7E7E7;stroke-width:0.5;" x1="444.5" x2="587.0059" y1="371" y2="371"/></g><!--class Transformer&MainTransformerAware--><g id="elem_Transformer&amp;MainTransformerAware"><rect codeLine="17" fill="#313139" height="48" id="Transformer&amp;MainTransformerAware" rx="2.5" ry="2.5" style="stroke:#E7E7E7;stroke-width:0.5;" width="292.9346" x="561.5" y="547"/><ellipse cx="576.5" cy="563" fill="#352866" rx="11" ry="11" style="stroke:#E7E7E7;stroke-width:1.0;"/><path d="M572.4219,558.7656 L572.4219,556.6094 L579.8125,556.6094 L579.8125,558.7656 L577.3438,558.7656 L577.3438,566.8438 L579.8125,566.8438 L579.8125,569 L572.4219,569 L572.4219,566.8438 L574.8906,566.8438 L574.8906,558.7656 L572.4219,558.7656 Z " fill="#FFFFFF"/><text fill="#FFFFFF" font-family="sans-serif" font-size="14" font-style="italic" lengthAdjust="spacing" textLength="260.9346" x="590.5" y="567.8467">Transformer&amp;MainTransformerAware</text><line style="stroke:#E7E7E7;stroke-width:0.5;" x1="562.5" x2="853.4346" y1="579" y2="579"/><line style="stroke:#E7E7E7;stroke-width:0.5;" x1="562.5" x2="853.4346" y1="587" y2="587"/></g><!--class ArrayToObjectTransformer--><g id="elem_ArrayToObjectTransformer"><rect codeLine="21" fill="#313139" height="48" id="ArrayToObjectTransformer" rx="2.5" ry="2.5" style="stroke:#E7E7E7;stroke-width:0.5;" width="218.9766" x="232.5" y="547"/><ellipse cx="247.5" cy="563" fill="#2E5233" rx="11" ry="11" style="stroke:#E7E7E7;stroke-width:1.0;"/><path d="M250.4688,568.6406 Q249.8906,568.9375 249.25,569.0781 Q248.6094,569.2344 247.9063,569.2344 Q245.4063,569.2344 244.0781,567.5938 Q242.7656,565.9375 242.7656,562.8125 Q242.7656,559.6875 244.0781,558.0313 Q245.4063,556.375 247.9063,556.375 Q248.6094,556.375 249.25,556.5313 Q249.9063,556.6875 250.4688,556.9844 L250.4688,559.7031 Q249.8438,559.125 249.25,558.8594 Q248.6563,558.5781 248.0313,558.5781 Q246.6875,558.5781 246,559.6563 Q245.3125,560.7188 245.3125,562.8125 Q245.3125,564.9063 246,565.9844 Q246.6875,567.0469 248.0313,567.0469 Q248.6563,567.0469 249.25,566.7813 Q249.8438,566.5 250.4688,565.9219 L250.4688,568.6406 Z " fill="#FFFFFF"/><text fill="#FFFFFF" font-family="sans-serif" font-size="14" lengthAdjust="spacing" textLength="186.9766" x="261.5" y="567.8467">ArrayToObjectTransformer</text><line style="stroke:#E7E7E7;stroke-width:0.5;" x1="233.5" x2="450.4766" y1="579" y2="579"/><line style="stroke:#E7E7E7;stroke-width:0.5;" x1="233.5" x2="450.4766" y1="587" y2="587"/></g><!--class SymfonySerializer--><g id="elem_SymfonySerializer"><rect fill="#313139" height="48" id="SymfonySerializer" rx="2.5" ry="2.5" style="stroke:#E7E7E7;stroke-width:0.5;" width="158.6836" x="59.5" y="763"/><ellipse cx="74.5" cy="779" fill="#2E5233" rx="11" ry="11" style="stroke:#E7E7E7;stroke-width:1.0;"/><path d="M77.4688,784.6406 Q76.8906,784.9375 76.25,785.0781 Q75.6094,785.2344 74.9063,785.2344 Q72.4063,785.2344 71.0781,783.5938 Q69.7656,781.9375 69.7656,778.8125 Q69.7656,775.6875 71.0781,774.0313 Q72.4063,772.375 74.9063,772.375 Q75.6094,772.375 76.25,772.5313 Q76.9063,772.6875 77.4688,772.9844 L77.4688,775.7031 Q76.8438,775.125 76.25,774.8594 Q75.6563,774.5781 75.0313,774.5781 Q73.6875,774.5781 73,775.6563 Q72.3125,776.7188 72.3125,778.8125 Q72.3125,780.9063 73,781.9844 Q73.6875,783.0469 75.0313,783.0469 Q75.6563,783.0469 76.25,782.7813 Q76.8438,782.5 77.4688,781.9219 L77.4688,784.6406 Z " fill="#FFFFFF"/><text fill="#FFFFFF" font-family="sans-serif" font-size="14" lengthAdjust="spacing" textLength="126.6836" x="88.5" y="783.8467">SymfonySerializer</text><line style="stroke:#E7E7E7;stroke-width:0.5;" x1="60.5" x2="217.1836" y1="795" y2="795"/><line style="stroke:#E7E7E7;stroke-width:0.5;" x1="60.5" x2="217.1836" y1="803" y2="803"/></g><!--class ObjectToArrayTransformer--><g id="elem_ObjectToArrayTransformer"><rect codeLine="25" fill="#313139" height="48" id="ObjectToArrayTransformer" rx="2.5" ry="2.5" style="stroke:#E7E7E7;stroke-width:0.5;" width="218.9766" x="60.5" y="655"/><ellipse cx="75.5" cy="671" fill="#2E5233" rx="11" ry="11" style="stroke:#E7E7E7;stroke-width:1.0;"/><path d="M78.4688,676.6406 Q77.8906,676.9375 77.25,677.0781 Q76.6094,677.2344 75.9063,677.2344 Q73.4063,677.2344 72.0781,675.5938 Q70.7656,673.9375 70.7656,670.8125 Q70.7656,667.6875 72.0781,666.0313 Q73.4063,664.375 75.9063,664.375 Q76.6094,664.375 77.25,664.5313 Q77.9063,664.6875 78.4688,664.9844 L78.4688,667.7031 Q77.8438,667.125 77.25,666.8594 Q76.6563,666.5781 76.0313,666.5781 Q74.6875,666.5781 74,667.6563 Q73.3125,668.7188 73.3125,670.8125 Q73.3125,672.9063 74,673.9844 Q74.6875,675.0469 76.0313,675.0469 Q76.6563,675.0469 77.25,674.7813 Q77.8438,674.5 78.4688,673.9219 L78.4688,676.6406 Z " fill="#FFFFFF"/><text fill="#FFFFFF" font-family="sans-serif" font-size="14" lengthAdjust="spacing" textLength="186.9766" x="89.5" y="675.8467">ObjectToArrayTransformer</text><line style="stroke:#E7E7E7;stroke-width:0.5;" x1="61.5" x2="278.4766" y1="687" y2="687"/><line style="stroke:#E7E7E7;stroke-width:0.5;" x1="61.5" x2="278.4766" y1="695" y2="695"/></g><!--class ClassMethodTransformer--><g id="elem_ClassMethodTransformer"><rect codeLine="29" fill="#313139" height="48" id="ClassMethodTransformer" rx="2.5" ry="2.5" style="stroke:#E7E7E7;stroke-width:0.5;" width="207.6494" x="155" y="1087"/><ellipse cx="170" cy="1103" fill="#2E5233" rx="11" ry="11" style="stroke:#E7E7E7;stroke-width:1.0;"/><path d="M172.9688,1108.6406 Q172.3906,1108.9375 171.75,1109.0781 Q171.1094,1109.2344 170.4063,1109.2344 Q167.9063,1109.2344 166.5781,1107.5938 Q165.2656,1105.9375 165.2656,1102.8125 Q165.2656,1099.6875 166.5781,1098.0313 Q167.9063,1096.375 170.4063,1096.375 Q171.1094,1096.375 171.75,1096.5313 Q172.4063,1096.6875 172.9688,1096.9844 L172.9688,1099.7031 Q172.3438,1099.125 171.75,1098.8594 Q171.1563,1098.5781 170.5313,1098.5781 Q169.1875,1098.5781 168.5,1099.6563 Q167.8125,1100.7188 167.8125,1102.8125 Q167.8125,1104.9063 168.5,1105.9844 Q169.1875,1107.0469 170.5313,1107.0469 Q171.1563,1107.0469 171.75,1106.7813 Q172.3438,1106.5 172.9688,1105.9219 L172.9688,1108.6406 Z " fill="#FFFFFF"/><text fill="#FFFFFF" font-family="sans-serif" font-size="14" lengthAdjust="spacing" textLength="175.6494" x="184" y="1107.8467">ClassMethodTransformer</text><line style="stroke:#E7E7E7;stroke-width:0.5;" x1="156" x2="361.6494" y1="1119" y2="1119"/><line style="stroke:#E7E7E7;stroke-width:0.5;" x1="156" x2="361.6494" y1="1127" y2="1127"/></g><!--class SubMapperFactory--><g id="elem_SubMapperFactory"><rect fill="#313139" height="48" id="SubMapperFactory" rx="2.5" ry="2.5" style="stroke:#E7E7E7;stroke-width:0.5;" width="163.8721" x="289" y="1195"/><ellipse cx="304" cy="1211" fill="#2E5233" rx="11" ry="11" style="stroke:#E7E7E7;stroke-width:1.0;"/><path d="M306.9688,1216.6406 Q306.3906,1216.9375 305.75,1217.0781 Q305.1094,1217.2344 304.4063,1217.2344 Q301.9063,1217.2344 300.5781,1215.5938 Q299.2656,1213.9375 299.2656,1210.8125 Q299.2656,1207.6875 300.5781,1206.0313 Q301.9063,1204.375 304.4063,1204.375 Q305.1094,1204.375 305.75,1204.5313 Q306.4063,1204.6875 306.9688,1204.9844 L306.9688,1207.7031 Q306.3438,1207.125 305.75,1206.8594 Q305.1563,1206.5781 304.5313,1206.5781 Q303.1875,1206.5781 302.5,1207.6563 Q301.8125,1208.7188 301.8125,1210.8125 Q301.8125,1212.9063 302.5,1213.9844 Q303.1875,1215.0469 304.5313,1215.0469 Q305.1563,1215.0469 305.75,1214.7813 Q306.3438,1214.5 306.9688,1213.9219 L306.9688,1216.6406 Z " fill="#FFFFFF"/><text fill="#FFFFFF" font-family="sans-serif" font-size="14" lengthAdjust="spacing" textLength="131.8721" x="318" y="1215.8467">SubMapperFactory</text><line style="stroke:#E7E7E7;stroke-width:0.5;" x1="290" x2="451.8721" y1="1227" y2="1227"/><line style="stroke:#E7E7E7;stroke-width:0.5;" x1="290" x2="451.8721" y1="1235" y2="1235"/></g><!--class ObjectMapperTransformer--><g id="elem_ObjectMapperTransformer"><rect codeLine="33" fill="#313139" height="48" id="ObjectMapperTransformer" rx="2.5" ry="2.5" style="stroke:#E7E7E7;stroke-width:0.5;" width="216.707" x="422.5" y="655"/><ellipse cx="437.5" cy="671" fill="#2E5233" rx="11" ry="11" style="stroke:#E7E7E7;stroke-width:1.0;"/><path d="M440.4688,676.6406 Q439.8906,676.9375 439.25,677.0781 Q438.6094,677.2344 437.9063,677.2344 Q435.4063,677.2344 434.0781,675.5938 Q432.7656,673.9375 432.7656,670.8125 Q432.7656,667.6875 434.0781,666.0313 Q435.4063,664.375 437.9063,664.375 Q438.6094,664.375 439.25,664.5313 Q439.9063,664.6875 440.4688,664.9844 L440.4688,667.7031 Q439.8438,667.125 439.25,666.8594 Q438.6563,666.5781 438.0313,666.5781 Q436.6875,666.5781 436,667.6563 Q435.3125,668.7188 435.3125,670.8125 Q435.3125,672.9063 436,673.9844 Q436.6875,675.0469 438.0313,675.0469 Q438.6563,675.0469 439.25,674.7813 Q439.8438,674.5 440.4688,673.9219 L440.4688,676.6406 Z " fill="#FFFFFF"/><text fill="#FFFFFF" font-family="sans-serif" font-size="14" lengthAdjust="spacing" textLength="184.707" x="451.5" y="675.8467">ObjectMapperTransformer</text><line style="stroke:#E7E7E7;stroke-width:0.5;" x1="423.5" x2="638.207" y1="687" y2="687"/><line style="stroke:#E7E7E7;stroke-width:0.5;" x1="423.5" x2="638.207" y1="695" y2="695"/></g><!--class ObjectMapperTableFactory--><g id="elem_ObjectMapperTableFactory"><rect fill="#313139" height="48" id="ObjectMapperTableFactory" rx="2.5" ry="2.5" style="stroke:#E7E7E7;stroke-width:0.5;" width="221.3418" x="352.5" y="979"/><ellipse cx="367.5" cy="995" fill="#2E5233" rx="11" ry="11" style="stroke:#E7E7E7;stroke-width:1.0;"/><path d="M370.4688,1000.6406 Q369.8906,1000.9375 369.25,1001.0781 Q368.6094,1001.2344 367.9063,1001.2344 Q365.4063,1001.2344 364.0781,999.5938 Q362.7656,997.9375 362.7656,994.8125 Q362.7656,991.6875 364.0781,990.0313 Q365.4063,988.375 367.9063,988.375 Q368.6094,988.375 369.25,988.5313 Q369.9063,988.6875 370.4688,988.9844 L370.4688,991.7031 Q369.8438,991.125 369.25,990.8594 Q368.6563,990.5781 368.0313,990.5781 Q366.6875,990.5781 366,991.6563 Q365.3125,992.7188 365.3125,994.8125 Q365.3125,996.9063 366,997.9844 Q366.6875,999.0469 368.0313,999.0469 Q368.6563,999.0469 369.25,998.7813 Q369.8438,998.5 370.4688,997.9219 L370.4688,1000.6406 Z " fill="#FFFFFF"/><text fill="#FFFFFF" font-family="sans-serif" font-size="14" lengthAdjust="spacing" textLength="189.3418" x="381.5" y="999.8467">ObjectMapperTableFactory</text><line style="stroke:#E7E7E7;stroke-width:0.5;" x1="353.5" x2="572.8418" y1="1011" y2="1011"/><line style="stroke:#E7E7E7;stroke-width:0.5;" x1="353.5" x2="572.8418" y1="1019" y2="1019"/></g><!--class ObjectMapperResolver--><g id="elem_ObjectMapperResolver"><rect fill="#313139" height="48" id="ObjectMapperResolver" rx="2.5" ry="2.5" style="stroke:#E7E7E7;stroke-width:0.5;" width="191.1406" x="325.5" y="763"/><ellipse cx="340.5" cy="779" fill="#2E5233" rx="11" ry="11" style="stroke:#E7E7E7;stroke-width:1.0;"/><path d="M343.4688,784.6406 Q342.8906,784.9375 342.25,785.0781 Q341.6094,785.2344 340.9063,785.2344 Q338.4063,785.2344 337.0781,783.5938 Q335.7656,781.9375 335.7656,778.8125 Q335.7656,775.6875 337.0781,774.0313 Q338.4063,772.375 340.9063,772.375 Q341.6094,772.375 342.25,772.5313 Q342.9063,772.6875 343.4688,772.9844 L343.4688,775.7031 Q342.8438,775.125 342.25,774.8594 Q341.6563,774.5781 341.0313,774.5781 Q339.6875,774.5781 339,775.6563 Q338.3125,776.7188 338.3125,778.8125 Q338.3125,780.9063 339,781.9844 Q339.6875,783.0469 341.0313,783.0469 Q341.6563,783.0469 342.25,782.7813 Q342.8438,782.5 343.4688,781.9219 L343.4688,784.6406 Z " fill="#FFFFFF"/><text fill="#FFFFFF" font-family="sans-serif" font-size="14" lengthAdjust="spacing" textLength="159.1406" x="354.5" y="783.8467">ObjectMapperResolver</text><line style="stroke:#E7E7E7;stroke-width:0.5;" x1="326.5" x2="515.6406" y1="795" y2="795"/><line style="stroke:#E7E7E7;stroke-width:0.5;" x1="326.5" x2="515.6406" y1="803" y2="803"/></g><!--class ObjectMapper--><g id="elem_ObjectMapper"><rect fill="#313139" height="48" id="ObjectMapper" rx="2.5" ry="2.5" style="stroke:#E7E7E7;stroke-width:0.5;" width="130.3965" x="237" y="871"/><ellipse cx="252" cy="887" fill="#2E5233" rx="11" ry="11" style="stroke:#E7E7E7;stroke-width:1.0;"/><path d="M254.9688,892.6406 Q254.3906,892.9375 253.75,893.0781 Q253.1094,893.2344 252.4063,893.2344 Q249.9063,893.2344 248.5781,891.5938 Q247.2656,889.9375 247.2656,886.8125 Q247.2656,883.6875 248.5781,882.0313 Q249.9063,880.375 252.4063,880.375 Q253.1094,880.375 253.75,880.5313 Q254.4063,880.6875 254.9688,880.9844 L254.9688,883.7031 Q254.3438,883.125 253.75,882.8594 Q253.1563,882.5781 252.5313,882.5781 Q251.1875,882.5781 250.5,883.6563 Q249.8125,884.7188 249.8125,886.8125 Q249.8125,888.9063 250.5,889.9844 Q251.1875,891.0469 252.5313,891.0469 Q253.1563,891.0469 253.75,890.7813 Q254.3438,890.5 254.9688,889.9219 L254.9688,892.6406 Z " fill="#FFFFFF"/><text fill="#FFFFFF" font-family="sans-serif" font-size="14" lengthAdjust="spacing" textLength="98.3965" x="266" y="891.8467">ObjectMapper</text><line style="stroke:#E7E7E7;stroke-width:0.5;" x1="238" x2="366.3965" y1="903" y2="903"/><line style="stroke:#E7E7E7;stroke-width:0.5;" x1="238" x2="366.3965" y1="911" y2="911"/></g><!--class ObjectToObjectTransformer--><g id="elem_ObjectToObjectTransformer"><rect codeLine="42" fill="#313139" height="48" id="ObjectToObjectTransformer" rx="2.5" ry="2.5" style="stroke:#E7E7E7;stroke-width:0.5;" width="226.6191" x="694.5" y="979"/><ellipse cx="709.5" cy="995" fill="#2E5233" rx="11" ry="11" style="stroke:#E7E7E7;stroke-width:1.0;"/><path d="M712.4688,1000.6406 Q711.8906,1000.9375 711.25,1001.0781 Q710.6094,1001.2344 709.9063,1001.2344 Q707.4063,1001.2344 706.0781,999.5938 Q704.7656,997.9375 704.7656,994.8125 Q704.7656,991.6875 706.0781,990.0313 Q707.4063,988.375 709.9063,988.375 Q710.6094,988.375 711.25,988.5313 Q711.9063,988.6875 712.4688,988.9844 L712.4688,991.7031 Q711.8438,991.125 711.25,990.8594 Q710.6563,990.5781 710.0313,990.5781 Q708.6875,990.5781 708,991.6563 Q707.3125,992.7188 707.3125,994.8125 Q707.3125,996.9063 708,997.9844 Q708.6875,999.0469 710.0313,999.0469 Q710.6563,999.0469 711.25,998.7813 Q711.8438,998.5 712.4688,997.9219 L712.4688,1000.6406 Z " fill="#FFFFFF"/><text fill="#FFFFFF" font-family="sans-serif" font-size="14" lengthAdjust="spacing" textLength="194.6191" x="723.5" y="999.8467">ObjectToObjectTransformer</text><line style="stroke:#E7E7E7;stroke-width:0.5;" x1="695.5" x2="920.1191" y1="1011" y2="1011"/><line style="stroke:#E7E7E7;stroke-width:0.5;" x1="695.5" x2="920.1191" y1="1019" y2="1019"/></g><!--class ProxyRegistry--><g id="elem_ProxyRegistry"><rect fill="#313139" height="48" id="ProxyRegistry" rx="2.5" ry="2.5" style="stroke:#E7E7E7;stroke-width:0.5;" width="129.2754" x="1029.5" y="1087"/><ellipse cx="1044.5" cy="1103" fill="#2E5233" rx="11" ry="11" style="stroke:#E7E7E7;stroke-width:1.0;"/><path d="M1047.4688,1108.6406 Q1046.8906,1108.9375 1046.25,1109.0781 Q1045.6094,1109.2344 1044.9063,1109.2344 Q1042.4063,1109.2344 1041.0781,1107.5938 Q1039.7656,1105.9375 1039.7656,1102.8125 Q1039.7656,1099.6875 1041.0781,1098.0313 Q1042.4063,1096.375 1044.9063,1096.375 Q1045.6094,1096.375 1046.25,1096.5313 Q1046.9063,1096.6875 1047.4688,1096.9844 L1047.4688,1099.7031 Q1046.8438,1099.125 1046.25,1098.8594 Q1045.6563,1098.5781 1045.0313,1098.5781 Q1043.6875,1098.5781 1043,1099.6563 Q1042.3125,1100.7188 1042.3125,1102.8125 Q1042.3125,1104.9063 1043,1105.9844 Q1043.6875,1107.0469 1045.0313,1107.0469 Q1045.6563,1107.0469 1046.25,1106.7813 Q1046.8438,1106.5 1047.4688,1105.9219 L1047.4688,1108.6406 Z " fill="#FFFFFF"/><text fill="#FFFFFF" font-family="sans-serif" font-size="14" lengthAdjust="spacing" textLength="97.2754" x="1058.5" y="1107.8467">ProxyRegistry</text><line style="stroke:#E7E7E7;stroke-width:0.5;" x1="1030.5" x2="1157.7754" y1="1119" y2="1119"/><line style="stroke:#E7E7E7;stroke-width:0.5;" x1="1030.5" x2="1157.7754" y1="1127" y2="1127"/></g><!--class ObjectToObjectMetadataFactory--><g id="elem_ObjectToObjectMetadataFactory"><rect fill="#313139" height="48" id="ObjectToObjectMetadataFactory" rx="2.5" ry="2.5" style="stroke:#E7E7E7;stroke-width:0.5;" width="259.0283" x="566.5" y="1195"/><ellipse cx="581.5" cy="1211" fill="#2E5233" rx="11" ry="11" style="stroke:#E7E7E7;stroke-width:1.0;"/><path d="M584.4688,1216.6406 Q583.8906,1216.9375 583.25,1217.0781 Q582.6094,1217.2344 581.9063,1217.2344 Q579.4063,1217.2344 578.0781,1215.5938 Q576.7656,1213.9375 576.7656,1210.8125 Q576.7656,1207.6875 578.0781,1206.0313 Q579.4063,1204.375 581.9063,1204.375 Q582.6094,1204.375 583.25,1204.5313 Q583.9063,1204.6875 584.4688,1204.9844 L584.4688,1207.7031 Q583.8438,1207.125 583.25,1206.8594 Q582.6563,1206.5781 582.0313,1206.5781 Q580.6875,1206.5781 580,1207.6563 Q579.3125,1208.7188 579.3125,1210.8125 Q579.3125,1212.9063 580,1213.9844 Q580.6875,1215.0469 582.0313,1215.0469 Q582.6563,1215.0469 583.25,1214.7813 Q583.8438,1214.5 584.4688,1213.9219 L584.4688,1216.6406 Z " fill="#FFFFFF"/><text fill="#FFFFFF" font-family="sans-serif" font-size="14" lengthAdjust="spacing" textLength="227.0283" x="595.5" y="1215.8467">ObjectToObjectMetadataFactory</text><line style="stroke:#E7E7E7;stroke-width:0.5;" x1="567.5" x2="824.5283" y1="1227" y2="1227"/><line style="stroke:#E7E7E7;stroke-width:0.5;" x1="567.5" x2="824.5283" y1="1235" y2="1235"/></g><!--class PropertyMapper--><g id="elem_PropertyMapper"><rect fill="#313139" height="48" id="PropertyMapper" rx="2.5" ry="2.5" style="stroke:#E7E7E7;stroke-width:0.5;" width="144.5947" x="705.5" y="1519"/><ellipse cx="720.5" cy="1535" fill="#2E5233" rx="11" ry="11" style="stroke:#E7E7E7;stroke-width:1.0;"/><path d="M723.4688,1540.6406 Q722.8906,1540.9375 722.25,1541.0781 Q721.6094,1541.2344 720.9063,1541.2344 Q718.4063,1541.2344 717.0781,1539.5938 Q715.7656,1537.9375 715.7656,1534.8125 Q715.7656,1531.6875 717.0781,1530.0313 Q718.4063,1528.375 720.9063,1528.375 Q721.6094,1528.375 722.25,1528.5313 Q722.9063,1528.6875 723.4688,1528.9844 L723.4688,1531.7031 Q722.8438,1531.125 722.25,1530.8594 Q721.6563,1530.5781 721.0313,1530.5781 Q719.6875,1530.5781 719,1531.6563 Q718.3125,1532.7188 718.3125,1534.8125 Q718.3125,1536.9063 719,1537.9844 Q719.6875,1539.0469 721.0313,1539.0469 Q721.6563,1539.0469 722.25,1538.7813 Q722.8438,1538.5 723.4688,1537.9219 L723.4688,1540.6406 Z " fill="#FFFFFF"/><text fill="#FFFFFF" font-family="sans-serif" font-size="14" lengthAdjust="spacing" textLength="112.5947" x="734.5" y="1539.8467">PropertyMapper</text><line style="stroke:#E7E7E7;stroke-width:0.5;" x1="706.5" x2="849.0947" y1="1551" y2="1551"/><line style="stroke:#E7E7E7;stroke-width:0.5;" x1="706.5" x2="849.0947" y1="1559" y2="1559"/></g><!--class EagerPropertiesResolver--><g id="elem_EagerPropertiesResolver"><rect fill="#313139" height="48" id="EagerPropertiesResolver" rx="2.5" ry="2.5" style="stroke:#E7E7E7;stroke-width:0.5;" width="204.7305" x="717.5" y="1411"/><ellipse cx="732.5" cy="1427" fill="#2E5233" rx="11" ry="11" style="stroke:#E7E7E7;stroke-width:1.0;"/><path d="M735.4688,1432.6406 Q734.8906,1432.9375 734.25,1433.0781 Q733.6094,1433.2344 732.9063,1433.2344 Q730.4063,1433.2344 729.0781,1431.5938 Q727.7656,1429.9375 727.7656,1426.8125 Q727.7656,1423.6875 729.0781,1422.0313 Q730.4063,1420.375 732.9063,1420.375 Q733.6094,1420.375 734.25,1420.5313 Q734.9063,1420.6875 735.4688,1420.9844 L735.4688,1423.7031 Q734.8438,1423.125 734.25,1422.8594 Q733.6563,1422.5781 733.0313,1422.5781 Q731.6875,1422.5781 731,1423.6563 Q730.3125,1424.7188 730.3125,1426.8125 Q730.3125,1428.9063 731,1429.9844 Q731.6875,1431.0469 733.0313,1431.0469 Q733.6563,1431.0469 734.25,1430.7813 Q734.8438,1430.5 735.4688,1429.9219 L735.4688,1432.6406 Z " fill="#FFFFFF"/><text fill="#FFFFFF" font-family="sans-serif" font-size="14" lengthAdjust="spacing" textLength="172.7305" x="746.5" y="1431.8467">EagerPropertiesResolver</text><line style="stroke:#E7E7E7;stroke-width:0.5;" x1="718.5" x2="921.2305" y1="1443" y2="1443"/><line style="stroke:#E7E7E7;stroke-width:0.5;" x1="718.5" x2="921.2305" y1="1451" y2="1451"/></g><!--class SymfonyPropertyInfo--><g id="elem_SymfonyPropertyInfo"><rect fill="#313139" height="48" id="SymfonyPropertyInfo" rx="2.5" ry="2.5" style="stroke:#E7E7E7;stroke-width:0.5;" width="179.752" x="262" y="1411"/><ellipse cx="277" cy="1427" fill="#2E5233" rx="11" ry="11" style="stroke:#E7E7E7;stroke-width:1.0;"/><path d="M279.9688,1432.6406 Q279.3906,1432.9375 278.75,1433.0781 Q278.1094,1433.2344 277.4063,1433.2344 Q274.9063,1433.2344 273.5781,1431.5938 Q272.2656,1429.9375 272.2656,1426.8125 Q272.2656,1423.6875 273.5781,1422.0313 Q274.9063,1420.375 277.4063,1420.375 Q278.1094,1420.375 278.75,1420.5313 Q279.4063,1420.6875 279.9688,1420.9844 L279.9688,1423.7031 Q279.3438,1423.125 278.75,1422.8594 Q278.1563,1422.5781 277.5313,1422.5781 Q276.1875,1422.5781 275.5,1423.6563 Q274.8125,1424.7188 274.8125,1426.8125 Q274.8125,1428.9063 275.5,1429.9844 Q276.1875,1431.0469 277.5313,1431.0469 Q278.1563,1431.0469 278.75,1430.7813 Q279.3438,1430.5 279.9688,1429.9219 L279.9688,1432.6406 Z " fill="#FFFFFF"/><text fill="#FFFFFF" font-family="sans-serif" font-size="14" lengthAdjust="spacing" textLength="147.752" x="291" y="1431.8467">SymfonyPropertyInfo</text><line style="stroke:#E7E7E7;stroke-width:0.5;" x1="263" x2="440.752" y1="1443" y2="1443"/><line style="stroke:#E7E7E7;stroke-width:0.5;" x1="263" x2="440.752" y1="1451" y2="1451"/></g><!--class PropertyMapperResolver--><g id="elem_PropertyMapperResolver"><rect fill="#313139" height="48" id="PropertyMapperResolver" rx="2.5" ry="2.5" style="stroke:#E7E7E7;stroke-width:0.5;" width="205.3389" x="477.5" y="1411"/><ellipse cx="492.5" cy="1427" fill="#2E5233" rx="11" ry="11" style="stroke:#E7E7E7;stroke-width:1.0;"/><path d="M495.4688,1432.6406 Q494.8906,1432.9375 494.25,1433.0781 Q493.6094,1433.2344 492.9063,1433.2344 Q490.4063,1433.2344 489.0781,1431.5938 Q487.7656,1429.9375 487.7656,1426.8125 Q487.7656,1423.6875 489.0781,1422.0313 Q490.4063,1420.375 492.9063,1420.375 Q493.6094,1420.375 494.25,1420.5313 Q494.9063,1420.6875 495.4688,1420.9844 L495.4688,1423.7031 Q494.8438,1423.125 494.25,1422.8594 Q493.6563,1422.5781 493.0313,1422.5781 Q491.6875,1422.5781 491,1423.6563 Q490.3125,1424.7188 490.3125,1426.8125 Q490.3125,1428.9063 491,1429.9844 Q491.6875,1431.0469 493.0313,1431.0469 Q493.6563,1431.0469 494.25,1430.7813 Q494.8438,1430.5 495.4688,1429.9219 L495.4688,1432.6406 Z " fill="#FFFFFF"/><text fill="#FFFFFF" font-family="sans-serif" font-size="14" lengthAdjust="spacing" textLength="173.3389" x="506.5" y="1431.8467">PropertyMapperResolver</text><line style="stroke:#E7E7E7;stroke-width:0.5;" x1="478.5" x2="681.8389" y1="1443" y2="1443"/><line style="stroke:#E7E7E7;stroke-width:0.5;" x1="478.5" x2="681.8389" y1="1451" y2="1451"/></g><!--class ProxyGenerator--><g id="elem_ProxyGenerator"><rect fill="#313139" height="48" id="ProxyGenerator" rx="2.5" ry="2.5" style="stroke:#E7E7E7;stroke-width:0.5;" width="142.4277" x="625" y="1303"/><ellipse cx="640" cy="1319" fill="#2E5233" rx="11" ry="11" style="stroke:#E7E7E7;stroke-width:1.0;"/><path d="M642.9688,1324.6406 Q642.3906,1324.9375 641.75,1325.0781 Q641.1094,1325.2344 640.4063,1325.2344 Q637.9063,1325.2344 636.5781,1323.5938 Q635.2656,1321.9375 635.2656,1318.8125 Q635.2656,1315.6875 636.5781,1314.0313 Q637.9063,1312.375 640.4063,1312.375 Q641.1094,1312.375 641.75,1312.5313 Q642.4063,1312.6875 642.9688,1312.9844 L642.9688,1315.7031 Q642.3438,1315.125 641.75,1314.8594 Q641.1563,1314.5781 640.5313,1314.5781 Q639.1875,1314.5781 638.5,1315.6563 Q637.8125,1316.7188 637.8125,1318.8125 Q637.8125,1320.9063 638.5,1321.9844 Q639.1875,1323.0469 640.5313,1323.0469 Q641.1563,1323.0469 641.75,1322.7813 Q642.3438,1322.5 642.9688,1321.9219 L642.9688,1324.6406 Z " fill="#FFFFFF"/><text fill="#FFFFFF" font-family="sans-serif" font-size="14" lengthAdjust="spacing" textLength="110.4277" x="654" y="1323.8467">ProxyGenerator</text><line style="stroke:#E7E7E7;stroke-width:0.5;" x1="626" x2="766.4277" y1="1335" y2="1335"/><line style="stroke:#E7E7E7;stroke-width:0.5;" x1="626" x2="766.4277" y1="1343" y2="1343"/></g><!--class TraversableToArrayAccessTransformer--><g id="elem_TraversableToArrayAccessTransformer"><rect codeLine="55" fill="#313139" height="48" id="TraversableToArrayAccessTransformer" rx="2.5" ry="2.5" style="stroke:#E7E7E7;stroke-width:0.5;" width="304.3574" x="765" y="655"/><ellipse cx="780" cy="671" fill="#2E5233" rx="11" ry="11" style="stroke:#E7E7E7;stroke-width:1.0;"/><path d="M782.9688,676.6406 Q782.3906,676.9375 781.75,677.0781 Q781.1094,677.2344 780.4063,677.2344 Q777.9063,677.2344 776.5781,675.5938 Q775.2656,673.9375 775.2656,670.8125 Q775.2656,667.6875 776.5781,666.0313 Q777.9063,664.375 780.4063,664.375 Q781.1094,664.375 781.75,664.5313 Q782.4063,664.6875 782.9688,664.9844 L782.9688,667.7031 Q782.3438,667.125 781.75,666.8594 Q781.1563,666.5781 780.5313,666.5781 Q779.1875,666.5781 778.5,667.6563 Q777.8125,668.7188 777.8125,670.8125 Q777.8125,672.9063 778.5,673.9844 Q779.1875,675.0469 780.5313,675.0469 Q781.1563,675.0469 781.75,674.7813 Q782.3438,674.5 782.9688,673.9219 L782.9688,676.6406 Z " fill="#FFFFFF"/><text fill="#FFFFFF" font-family="sans-serif" font-size="14" lengthAdjust="spacing" textLength="272.3574" x="794" y="675.8467">TraversableToArrayAccessTransformer</text><line style="stroke:#E7E7E7;stroke-width:0.5;" x1="766" x2="1068.3574" y1="687" y2="687"/><line style="stroke:#E7E7E7;stroke-width:0.5;" x1="766" x2="1068.3574" y1="695" y2="695"/></g><!--class ArrayLikeMetadataFactory--><g id="elem_ArrayLikeMetadataFactory"><rect fill="#313139" height="48" id="ArrayLikeMetadataFactory" rx="2.5" ry="2.5" style="stroke:#E7E7E7;stroke-width:0.5;" width="217.083" x="910.5" y="871"/><ellipse cx="925.5" cy="887" fill="#2E5233" rx="11" ry="11" style="stroke:#E7E7E7;stroke-width:1.0;"/><path d="M928.4688,892.6406 Q927.8906,892.9375 927.25,893.0781 Q926.6094,893.2344 925.9063,893.2344 Q923.4063,893.2344 922.0781,891.5938 Q920.7656,889.9375 920.7656,886.8125 Q920.7656,883.6875 922.0781,882.0313 Q923.4063,880.375 925.9063,880.375 Q926.6094,880.375 927.25,880.5313 Q927.9063,880.6875 928.4688,880.9844 L928.4688,883.7031 Q927.8438,883.125 927.25,882.8594 Q926.6563,882.5781 926.0313,882.5781 Q924.6875,882.5781 924,883.6563 Q923.3125,884.7188 923.3125,886.8125 Q923.3125,888.9063 924,889.9844 Q924.6875,891.0469 926.0313,891.0469 Q926.6563,891.0469 927.25,890.7813 Q927.8438,890.5 928.4688,889.9219 L928.4688,892.6406 Z " fill="#FFFFFF"/><text fill="#FFFFFF" font-family="sans-serif" font-size="14" lengthAdjust="spacing" textLength="185.083" x="939.5" y="891.8467">ArrayLikeMetadataFactory</text><line style="stroke:#E7E7E7;stroke-width:0.5;" x1="911.5" x2="1126.583" y1="903" y2="903"/><line style="stroke:#E7E7E7;stroke-width:0.5;" x1="911.5" x2="1126.583" y1="911" y2="911"/></g><!--class TraversableToTraversableTransformer--><g id="elem_TraversableToTraversableTransformer"><rect codeLine="59" fill="#313139" height="48" id="TraversableToTraversableTransformer" rx="2.5" ry="2.5" style="stroke:#E7E7E7;stroke-width:0.5;" width="301.0352" x="970.5" y="763"/><ellipse cx="985.5" cy="779" fill="#2E5233" rx="11" ry="11" style="stroke:#E7E7E7;stroke-width:1.0;"/><path d="M988.4688,784.6406 Q987.8906,784.9375 987.25,785.0781 Q986.6094,785.2344 985.9063,785.2344 Q983.4063,785.2344 982.0781,783.5938 Q980.7656,781.9375 980.7656,778.8125 Q980.7656,775.6875 982.0781,774.0313 Q983.4063,772.375 985.9063,772.375 Q986.6094,772.375 987.25,772.5313 Q987.9063,772.6875 988.4688,772.9844 L988.4688,775.7031 Q987.8438,775.125 987.25,774.8594 Q986.6563,774.5781 986.0313,774.5781 Q984.6875,774.5781 984,775.6563 Q983.3125,776.7188 983.3125,778.8125 Q983.3125,780.9063 984,781.9844 Q984.6875,783.0469 986.0313,783.0469 Q986.6563,783.0469 987.25,782.7813 Q987.8438,782.5 988.4688,781.9219 L988.4688,784.6406 Z " fill="#FFFFFF"/><text fill="#FFFFFF" font-family="sans-serif" font-size="14" lengthAdjust="spacing" textLength="269.0352" x="999.5" y="783.8467">TraversableToTraversableTransformer</text><line style="stroke:#E7E7E7;stroke-width:0.5;" x1="971.5" x2="1270.5352" y1="795" y2="795"/><line style="stroke:#E7E7E7;stroke-width:0.5;" x1="971.5" x2="1270.5352" y1="803" y2="803"/></g><!--class PropertyAccessor--><g id="elem_PropertyAccessor"><rect fill="#313139" height="48" id="PropertyAccessor" rx="2.5" ry="2.5" style="stroke:#E7E7E7;stroke-width:0.5;" width="154.2881" x="164" y="1303"/><ellipse cx="179" cy="1319" fill="#2E5233" rx="11" ry="11" style="stroke:#E7E7E7;stroke-width:1.0;"/><path d="M181.9688,1324.6406 Q181.3906,1324.9375 180.75,1325.0781 Q180.1094,1325.2344 179.4063,1325.2344 Q176.9063,1325.2344 175.5781,1323.5938 Q174.2656,1321.9375 174.2656,1318.8125 Q174.2656,1315.6875 175.5781,1314.0313 Q176.9063,1312.375 179.4063,1312.375 Q180.1094,1312.375 180.75,1312.5313 Q181.4063,1312.6875 181.9688,1312.9844 L181.9688,1315.7031 Q181.3438,1315.125 180.75,1314.8594 Q180.1563,1314.5781 179.5313,1314.5781 Q178.1875,1314.5781 177.5,1315.6563 Q176.8125,1316.7188 176.8125,1318.8125 Q176.8125,1320.9063 177.5,1321.9844 Q178.1875,1323.0469 179.5313,1323.0469 Q180.1563,1323.0469 180.75,1322.7813 Q181.3438,1322.5 181.9688,1321.9219 L181.9688,1324.6406 Z " fill="#FFFFFF"/><text fill="#FFFFFF" font-family="sans-serif" font-size="14" lengthAdjust="spacing" textLength="122.2881" x="193" y="1323.8467">PropertyAccessor</text><line style="stroke:#E7E7E7;stroke-width:0.5;" x1="165" x2="317.2881" y1="1335" y2="1335"/><line style="stroke:#E7E7E7;stroke-width:0.5;" x1="165" x2="317.2881" y1="1343" y2="1343"/></g><!--link Mapper to MainTransformer--><g id="link_Mapper_MainTransformer"><path codeLine="3" d="M516,55 C516,72.66 516,90.94 516,108.68 " fill="none" id="Mapper-to-MainTransformer" style="stroke:#E7E7E7;stroke-width:1.0;stroke-dasharray:7.0,7.0;"/><polygon fill="#E7E7E7" points="516,114.68,520,105.68,516,109.68,512,105.68,516,114.68" style="stroke:#E7E7E7;stroke-width:1.0;"/></g><!--link MainTransformer to ObjectCacheFactory--><g id="link_MainTransformer_ObjectCacheFactory"><path codeLine="6" d="M470.43,163 C435.33,180.72 392.3665,202.4066 357.1965,220.1566 " fill="none" id="MainTransformer-to-ObjectCacheFactory" style="stroke:#E7E7E7;stroke-width:1.0;stroke-dasharray:7.0,7.0;"/><polygon fill="#E7E7E7" points="351.84,222.86,361.677,222.3759,356.3037,220.6072,358.0725,215.234,351.84,222.86" style="stroke:#E7E7E7;stroke-width:1.0;"/></g><!--link MainTransformer to TransformerRegistry--><g id="link_MainTransformer_TransformerRegistry"><path codeLine="7" d="M516,163 C516,180.66 516,198.94 516,216.68 " fill="none" id="MainTransformer-to-TransformerRegistry" style="stroke:#E7E7E7;stroke-width:1.0;stroke-dasharray:7.0,7.0;"/><polygon fill="#E7E7E7" points="516,222.68,520,213.68,516,217.68,512,213.68,516,222.68" style="stroke:#E7E7E7;stroke-width:1.0;"/></g><!--link TransformerRegistry to Transformer--><g id="link_TransformerRegistry_Transformer"><path codeLine="11" d="M482.94,271.03 C463.71,286.04 440.48,307.22 426,331 C405.27,365.04 397.034,405.2855 393.274,432.7455 " fill="none" id="TransformerRegistry-to-Transformer" style="stroke:#E7E7E7;stroke-width:1.0;stroke-dasharray:7.0,7.0;"/><polygon fill="#E7E7E7" points="392.46,438.69,397.644,430.3158,393.1383,433.7362,389.7179,429.2306,392.46,438.69" style="stroke:#E7E7E7;stroke-width:1.0;"/></g><!--link TransformerRegistry to MappingFactory--><g id="link_TransformerRegistry_MappingFactory"><path codeLine="13" d="M516,271 C516,288.66 516,306.94 516,324.68 " fill="none" id="TransformerRegistry-to-MappingFactory" style="stroke:#E7E7E7;stroke-width:1.0;stroke-dasharray:7.0,7.0;"/><polygon fill="#E7E7E7" points="516,330.68,520,321.68,516,325.68,512,321.68,516,330.68" style="stroke:#E7E7E7;stroke-width:1.0;"/></g><!--reverse link Transformer to Transformer&MainTransformerAware--><g id="link_Transformer_Transformer&amp;MainTransformerAware"><path codeLine="18" d="M466.1463,489.3821 C519.8463,507.2821 582.06,528.02 638.73,546.91 " fill="none" id="Transformer-backto-Transformer&amp;MainTransformerAware" style="stroke:#E7E7E7;stroke-width:1.0;stroke-dasharray:7.0,7.0;"/><polygon fill="none" points="449.07,483.69,464.2489,495.0742,468.0437,483.69,449.07,483.69" style="stroke:#E7E7E7;stroke-width:1.0;"/></g><!--link Transformer&MainTransformerAware to MainTransformer--><g id="link_Transformer&amp;MainTransformerAware_MainTransformer"><path codeLine="19" d="M707.36,546.89 C704.71,488.06 691.16,329.79 622,223 C605.86,198.09 584.6866,180.7207 562.3666,166.2707 " fill="none" id="Transformer&amp;MainTransformerAware-to-MainTransformer" style="stroke:#E7E7E7;stroke-width:1.0;stroke-dasharray:7.0,7.0;"/><polygon fill="#E7E7E7" points="557.33,163.01,562.7111,171.2588,561.5272,165.7273,567.0588,164.5433,557.33,163.01" style="stroke:#E7E7E7;stroke-width:1.0;"/></g><!--link ArrayToObjectTransformer to SymfonySerializer--><g id="link_ArrayToObjectTransformer_SymfonySerializer"><path codeLine="22" d="M339.3,595.16 C334.92,623.54 323.85,671.7 297,703 C273.7,730.16 244.7691,747.3331 213.9891,760.6131 " fill="none" id="ArrayToObjectTransformer-to-SymfonySerializer" style="stroke:#E7E7E7;stroke-width:1.0;stroke-dasharray:7.0,7.0;"/><polygon fill="#E7E7E7" points="208.48,762.99,218.3283,763.0974,213.0709,761.0092,215.1591,755.7519,208.48,762.99" style="stroke:#E7E7E7;stroke-width:1.0;"/></g><!--reverse link Transformer to ArrayToObjectTransformer--><g id="link_Transformer_ArrayToObjectTransformer"><path codeLine="23" d="M372.1602,503.3996 C364.1702,521.0596 360.59,528.94 352.56,546.68 " fill="none" id="Transformer-backto-ArrayToObjectTransformer" style="stroke:#E7E7E7;stroke-width:1.0;stroke-dasharray:7.0,7.0;"/><polygon fill="none" points="379.58,487,366.6937,500.9264,377.6268,505.8729,379.58,487" style="stroke:#E7E7E7;stroke-width:1.0;"/></g><!--link ObjectToArrayTransformer to SymfonySerializer--><g id="link_ObjectToArrayTransformer_SymfonySerializer"><path codeLine="26" d="M163.27,703 C158.11,720.66 152.6947,739.1814 147.5047,756.9214 " fill="none" id="ObjectToArrayTransformer-to-SymfonySerializer" style="stroke:#E7E7E7;stroke-width:1.0;stroke-dasharray:7.0,7.0;"/><polygon fill="#E7E7E7" points="145.82,762.68,152.1862,755.1652,147.2239,757.8812,144.508,752.9189,145.82,762.68" style="stroke:#E7E7E7;stroke-width:1.0;"/></g><!--reverse link Transformer to ObjectToArrayTransformer--><g id="link_Transformer_ObjectToArrayTransformer"><path codeLine="27" d="M313.6853,484.7765 C275.8653,497.2465 245.48,512.9 215,547 C187.44,577.84 176.6,626.37 172.45,654.9 " fill="none" id="Transformer-backto-ObjectToArrayTransformer" style="stroke:#E7E7E7;stroke-width:1.0;stroke-dasharray:7.0,7.0;"/><polygon fill="none" points="330.78,479.14,311.8064,479.0782,315.5641,490.4747,330.78,479.14" style="stroke:#E7E7E7;stroke-width:1.0;"/></g><!--link ClassMethodTransformer to SubMapperFactory--><g id="link_ClassMethodTransformer_SubMapperFactory"><path codeLine="30" d="M283.3,1135 C301.96,1152.66 323.2627,1172.8152 342.0027,1190.5552 " fill="none" id="ClassMethodTransformer-to-SubMapperFactory" style="stroke:#E7E7E7;stroke-width:1.0;stroke-dasharray:7.0,7.0;"/><polygon fill="#E7E7E7" points="346.36,1194.68,342.5739,1185.5879,342.7289,1191.2427,337.0742,1191.3977,346.36,1194.68" style="stroke:#E7E7E7;stroke-width:1.0;"/></g><!--reverse link Transformer to ClassMethodTransformer--><g id="link_Transformer_ClassMethodTransformer"><path codeLine="31" d="M312.9957,472.2125 C205.2857,486.4725 6,531.08 6,678 C6,678 6,678 6,896 C6,993.8 117.57,1056.08 192.53,1086.89 " fill="none" id="Transformer-backto-ClassMethodTransformer" style="stroke:#E7E7E7;stroke-width:1.0;stroke-dasharray:7.0,7.0;"/><polygon fill="none" points="330.84,469.85,312.2082,466.2644,313.7832,478.1605,330.84,469.85" style="stroke:#E7E7E7;stroke-width:1.0;"/></g><!--reverse link Transformer to ObjectMapperTransformer--><g id="link_Transformer_ObjectMapperTransformer"><path d="M429.142,499.6449 C445.732,515.3749 453.81,524.86 469,547 C492.92,581.86 512.14,627.38 522.54,654.56 " fill="none" id="Transformer-backto-ObjectMapperTransformer" style="stroke:#E7E7E7;stroke-width:1.0;stroke-dasharray:7.0,7.0;"/><polygon fill="none" points="416.08,487.26,425.0137,503.9989,433.2703,495.2909,416.08,487.26" style="stroke:#E7E7E7;stroke-width:1.0;"/></g><!--reverse link Transformer&MainTransformerAware to ObjectMapperTransformer--><g id="link_Transformer&amp;MainTransformerAware_ObjectMapperTransformer"><path codeLine="34" d="M654.1487,604.2502 C624.5687,621.9702 599.28,637.11 569.64,654.86 " fill="none" id="Transformer&amp;MainTransformerAware-backto-ObjectMapperTransformer" style="stroke:#E7E7E7;stroke-width:1.0;stroke-dasharray:7.0,7.0;"/><polygon fill="none" points="669.59,595,651.0653,599.1031,657.2321,609.3973,669.59,595" style="stroke:#E7E7E7;stroke-width:1.0;"/></g><!--link ObjectMapperTransformer to SubMapperFactory--><g id="link_ObjectMapperTransformer_SubMapperFactory"><path codeLine="35" d="M552.21,703.02 C584.17,740.21 641,817.14 641,894 C641,894 641,894 641,1004 C641,1104.19 531.0273,1162.7714 451.1073,1192.7714 " fill="none" id="ObjectMapperTransformer-to-SubMapperFactory" style="stroke:#E7E7E7;stroke-width:1.0;stroke-dasharray:7.0,7.0;"/><polygon fill="#E7E7E7" points="445.49,1194.88,455.3216,1195.462,450.1711,1193.1228,452.5102,1187.9723,445.49,1194.88" style="stroke:#E7E7E7;stroke-width:1.0;"/></g><!--link ObjectMapperTransformer to ObjectMapperTableFactory--><g id="link_ObjectMapperTransformer_ObjectMapperTableFactory"><path codeLine="36" d="M532.07,703.25 C532.77,719.89 533.64,742.82 534,763 C534.39,784.33 537.78,790 534,811 C522.63,874.19 494.3186,938.3916 477.2686,973.5416 " fill="none" id="ObjectMapperTransformer-to-ObjectMapperTableFactory" style="stroke:#E7E7E7;stroke-width:1.0;stroke-dasharray:7.0,7.0;"/><polygon fill="#E7E7E7" points="474.65,978.94,482.1768,972.5881,476.8322,974.4413,474.9789,969.0966,474.65,978.94" style="stroke:#E7E7E7;stroke-width:1.0;"/></g><!--link ObjectMapperTransformer to ObjectMapperResolver--><g id="link_ObjectMapperTransformer_ObjectMapperResolver"><path codeLine="37" d="M507.13,703 C488.81,720.66 467.9305,740.7767 449.5205,758.5167 " fill="none" id="ObjectMapperTransformer-to-ObjectMapperResolver" style="stroke:#E7E7E7;stroke-width:1.0;stroke-dasharray:7.0,7.0;"/><polygon fill="#E7E7E7" points="445.2,762.68,454.4563,759.3154,448.8004,759.2106,448.9053,753.5547,445.2,762.68" style="stroke:#E7E7E7;stroke-width:1.0;"/></g><!--link ObjectMapperTransformer to ObjectMapper--><g id="link_ObjectMapperTransformer_ObjectMapper"><path codeLine="38" d="M422.26,694.37 C379.71,705.8 334.78,726.29 308,763 C285.06,794.45 288.8727,836.4648 294.7427,864.7948 " fill="none" id="ObjectMapperTransformer-to-ObjectMapper" style="stroke:#E7E7E7;stroke-width:1.0;stroke-dasharray:7.0,7.0;"/><polygon fill="#E7E7E7" points="295.96,870.67,298.0508,861.0456,294.9455,865.774,290.2172,862.6688,295.96,870.67" style="stroke:#E7E7E7;stroke-width:1.0;"/></g><!--link ObjectMapperResolver to ObjectMapper--><g id="link_ObjectMapperResolver_ObjectMapper"><path codeLine="40" d="M395.18,811 C375.36,828.66 352.5697,848.9485 332.6597,866.6885 " fill="none" id="ObjectMapperResolver-to-ObjectMapper" style="stroke:#E7E7E7;stroke-width:1.0;stroke-dasharray:7.0,7.0;"/><polygon fill="#E7E7E7" points="328.18,870.68,337.5606,867.6793,331.9131,867.3538,332.2386,861.7063,328.18,870.68" style="stroke:#E7E7E7;stroke-width:1.0;"/></g><!--reverse link Transformer&MainTransformerAware to ObjectToObjectTransformer--><g id="link_Transformer&amp;MainTransformerAware_ObjectToObjectTransformer"><path codeLine="43" d="M717.4566,612.6523 C734.8166,687.3123 785.2,903.94 802.6,978.77 " fill="none" id="Transformer&amp;MainTransformerAware-backto-ObjectToObjectTransformer" style="stroke:#E7E7E7;stroke-width:1.0;stroke-dasharray:7.0,7.0;"/><polygon fill="none" points="713.38,595.12,711.6125,614.0112,723.3007,611.2934,713.38,595.12" style="stroke:#E7E7E7;stroke-width:1.0;"/></g><!--link ObjectToObjectTransformer to ProxyRegistry--><g id="link_ObjectToObjectTransformer_ProxyRegistry"><path codeLine="44" d="M870.06,1027 C917.87,1044.72 978.0439,1067.0252 1025.9439,1084.7752 " fill="none" id="ObjectToObjectTransformer-to-ProxyRegistry" style="stroke:#E7E7E7;stroke-width:1.0;stroke-dasharray:7.0,7.0;"/><polygon fill="#E7E7E7" points="1031.57,1086.86,1024.5207,1079.982,1026.8816,1085.1226,1021.7409,1087.4835,1031.57,1086.86" style="stroke:#E7E7E7;stroke-width:1.0;"/></g><!--link ObjectToObjectTransformer to ObjectToObjectMetadataFactory--><g id="link_ObjectToObjectTransformer_ObjectToObjectMetadataFactory"><path codeLine="45" d="M799.02,1027.25 C788.45,1053.86 769.8,1098.48 750,1135 C738.61,1156.01 727.0801,1173.7333 715.8001,1190.0633 " fill="none" id="ObjectToObjectTransformer-to-ObjectToObjectMetadataFactory" style="stroke:#E7E7E7;stroke-width:1.0;stroke-dasharray:7.0,7.0;"/><polygon fill="#E7E7E7" points="712.39,1195,720.7963,1189.8683,715.2317,1190.886,714.2139,1185.3215,712.39,1195" style="stroke:#E7E7E7;stroke-width:1.0;"/></g><!--link ObjectToObjectTransformer to PropertyMapper--><g id="link_ObjectToObjectTransformer_PropertyMapper"><path codeLine="46" d="M844.04,1027.2 C893.4,1062.12 976,1133.22 976,1218 C976,1218 976,1218 976,1328 C976,1388.38 978.1,1412.15 940,1459 C917.17,1487.07 887.9037,1504.3448 856.3837,1517.3948 " fill="none" id="ObjectToObjectTransformer-to-PropertyMapper" style="stroke:#E7E7E7;stroke-width:1.0;stroke-dasharray:7.0,7.0;"/><polygon fill="#E7E7E7" points="850.84,1519.69,860.6856,1519.943,855.4597,1517.7773,857.6253,1512.5514,850.84,1519.69" style="stroke:#E7E7E7;stroke-width:1.0;"/></g><!--link ObjectToObjectTransformer to SubMapperFactory--><g id="link_ObjectToObjectTransformer_SubMapperFactory"><path codeLine="47" d="M789.26,1027.21 C764.36,1056.55 717.57,1106.65 667,1135 C600.08,1172.52 520.8755,1192.965 459.1155,1204.645 " fill="none" id="ObjectToObjectTransformer-to-SubMapperFactory" style="stroke:#E7E7E7;stroke-width:1.0;stroke-dasharray:7.0,7.0;"/><polygon fill="#E7E7E7" points="453.22,1205.76,462.8065,1208.0179,458.1329,1204.8309,461.3199,1200.1572,453.22,1205.76" style="stroke:#E7E7E7;stroke-width:1.0;"/></g><!--link ObjectToObjectMetadataFactory to EagerPropertiesResolver--><g id="link_ObjectToObjectMetadataFactory_EagerPropertiesResolver"><path codeLine="49" d="M728.75,1243.07 C747.78,1258.09 770.75,1279.27 785,1303 C805.48,1337.11 813.4002,1377.3196 816.9502,1404.7596 " fill="none" id="ObjectToObjectMetadataFactory-to-EagerPropertiesResolver" style="stroke:#E7E7E7;stroke-width:1.0;stroke-dasharray:7.0,7.0;"/><polygon fill="#E7E7E7" points="817.72,1410.71,820.5322,1401.2712,817.0785,1405.7513,812.5983,1402.2976,817.72,1410.71" style="stroke:#E7E7E7;stroke-width:1.0;"/></g><!--link ObjectToObjectMetadataFactory to SymfonyPropertyInfo--><g id="link_ObjectToObjectMetadataFactory_SymfonyPropertyInfo"><path codeLine="50" d="M658.86,1243.11 C592.67,1284.28 460.1646,1366.7105 394.0846,1407.8205 " fill="none" id="ObjectToObjectMetadataFactory-to-SymfonyPropertyInfo" style="stroke:#E7E7E7;stroke-width:1.0;stroke-dasharray:7.0,7.0;"/><polygon fill="#E7E7E7" points="388.99,1410.99,398.7448,1409.6322,393.2355,1408.3488,394.5189,1402.8394,388.99,1410.99" style="stroke:#E7E7E7;stroke-width:1.0;"/></g><!--link ObjectToObjectMetadataFactory to PropertyMapperResolver--><g id="link_ObjectToObjectMetadataFactory_PropertyMapperResolver"><path codeLine="51" d="M662.76,1243.24 C643.87,1258.18 621.39,1279.21 608,1303 C588.72,1337.25 583.1109,1377.3841 581.2309,1404.7741 " fill="none" id="ObjectToObjectMetadataFactory-to-PropertyMapperResolver" style="stroke:#E7E7E7;stroke-width:1.0;stroke-dasharray:7.0,7.0;"/><polygon fill="#E7E7E7" points="580.82,1410.76,585.4269,1402.055,581.1624,1405.7717,577.4457,1401.5072,580.82,1410.76" style="stroke:#E7E7E7;stroke-width:1.0;"/></g><!--link ObjectToObjectMetadataFactory to ProxyGenerator--><g id="link_ObjectToObjectMetadataFactory_ProxyGenerator"><path codeLine="52" d="M696,1243 C696,1260.66 696,1278.94 696,1296.68 " fill="none" id="ObjectToObjectMetadataFactory-to-ProxyGenerator" style="stroke:#E7E7E7;stroke-width:1.0;stroke-dasharray:7.0,7.0;"/><polygon fill="#E7E7E7" points="696,1302.68,700,1293.68,696,1297.68,692,1293.68,696,1302.68" style="stroke:#E7E7E7;stroke-width:1.0;"/></g><!--reverse link Transformer&MainTransformerAware to TraversableToArrayAccessTransformer--><g id="link_Transformer&amp;MainTransformerAware_TraversableToArrayAccessTransformer"><path codeLine="56" d="M769.4035,603.1416 C804.3435,620.8616 836.37,637.11 871.38,654.86 " fill="none" id="Transformer&amp;MainTransformerAware-backto-TraversableToArrayAccessTransformer" style="stroke:#E7E7E7;stroke-width:1.0;stroke-dasharray:7.0,7.0;"/><polygon fill="none" points="753.35,595,766.6896,608.4928,772.1173,597.7904,753.35,595" style="stroke:#E7E7E7;stroke-width:1.0;"/></g><!--link TraversableToArrayAccessTransformer to ArrayLikeMetadataFactory--><g id="link_TraversableToArrayAccessTransformer_ArrayLikeMetadataFactory"><path codeLine="57" d="M920.48,703.27 C925.16,730.29 935.05,775.67 953,811 C964.26,833.16 977.9587,850.586 992.2187,866.306 " fill="none" id="TraversableToArrayAccessTransformer-to-ArrayLikeMetadataFactory" style="stroke:#E7E7E7;stroke-width:1.0;stroke-dasharray:7.0,7.0;"/><polygon fill="#E7E7E7" points="996.25,870.75,993.1658,861.3965,992.8906,867.0467,987.2405,866.7715,996.25,870.75" style="stroke:#E7E7E7;stroke-width:1.0;"/></g><!--reverse link Transformer&MainTransformerAware to TraversableToTraversableTransformer--><g id="link_Transformer&amp;MainTransformerAware_TraversableToTraversableTransformer"><path codeLine="60" d="M872.5602,590.748 C964.4002,603.828 1053.6,622.86 1087,655 C1116.37,683.27 1121.55,733.39 1121.83,762.76 " fill="none" id="Transformer&amp;MainTransformerAware-backto-TraversableToTraversableTransformer" style="stroke:#E7E7E7;stroke-width:1.0;stroke-dasharray:7.0,7.0;"/><polygon fill="none" points="854.74,588.21,871.7142,596.688,873.4062,584.8079,854.74,588.21" style="stroke:#E7E7E7;stroke-width:1.0;"/></g><!--link TraversableToTraversableTransformer to ArrayLikeMetadataFactory--><g id="link_TraversableToTraversableTransformer_ArrayLikeMetadataFactory"><path codeLine="61" d="M1098.87,811 C1081.88,828.66 1062.6702,848.6165 1045.6002,866.3565 " fill="none" id="TraversableToTraversableTransformer-to-ArrayLikeMetadataFactory" style="stroke:#E7E7E7;stroke-width:1.0;stroke-dasharray:7.0,7.0;"/><polygon fill="#E7E7E7" points="1041.44,870.68,1050.5626,866.9682,1044.9068,867.0771,1044.798,861.4213,1041.44,870.68" style="stroke:#E7E7E7;stroke-width:1.0;"/></g><!--link PropertyMapperResolver to PropertyMapper--><g id="link_PropertyMapperResolver_PropertyMapper"><path codeLine="63" d="M622.96,1459 C656.06,1476.72 696.3302,1498.2784 729.4902,1516.0284 " fill="none" id="PropertyMapperResolver-to-PropertyMapper" style="stroke:#E7E7E7;stroke-width:1.0;stroke-dasharray:7.0,7.0;"/><polygon fill="#E7E7E7" points="734.78,1518.86,728.733,1511.0861,730.3718,1516.5004,724.9576,1518.1392,734.78,1518.86" style="stroke:#E7E7E7;stroke-width:1.0;"/></g><!--link MappingFactory to Transformer--><g id="link_MappingFactory_Transformer"><path codeLine="68" d="M488.66,379 C467.67,396.66 443.4016,417.0777 422.3116,434.8177 " fill="none" id="MappingFactory-to-Transformer" style="stroke:#E7E7E7;stroke-width:1.0;stroke-dasharray:7.0,7.0;"/><polygon fill="#E7E7E7" points="417.72,438.68,427.1823,435.9477,421.5463,435.4614,422.0326,429.8255,417.72,438.68" style="stroke:#E7E7E7;stroke-width:1.0;"/></g><!--link ObjectMapperResolver to ObjectMapperTableFactory--><g id="link_ObjectMapperResolver_ObjectMapperTableFactory"><path codeLine="70" d="M425.57,811.31 C433.65,852.47 449.2051,931.6922 457.2751,972.8322 " fill="none" id="ObjectMapperResolver-to-ObjectMapperTableFactory" style="stroke:#E7E7E7;stroke-width:1.0;stroke-dasharray:7.0,7.0;"/><polygon fill="#E7E7E7" points="458.43,978.72,460.6228,969.1183,457.4675,973.8135,452.7724,970.6583,458.43,978.72" style="stroke:#E7E7E7;stroke-width:1.0;"/></g><!--link SubMapperFactory to SymfonyPropertyInfo--><g id="link_SubMapperFactory_SymfonyPropertyInfo"><path codeLine="72" d="M368.93,1243.31 C365.28,1284.47 358.2502,1363.6035 354.6002,1404.7435 " fill="none" id="SubMapperFactory-to-SymfonyPropertyInfo" style="stroke:#E7E7E7;stroke-width:1.0;stroke-dasharray:7.0,7.0;"/><polygon fill="#E7E7E7" points="354.07,1410.72,358.8497,1402.1087,354.5119,1405.7396,350.881,1401.4017,354.07,1410.72" style="stroke:#E7E7E7;stroke-width:1.0;"/></g><!--link SubMapperFactory to PropertyAccessor--><g id="link_SubMapperFactory_PropertyAccessor"><path codeLine="73" d="M342.79,1243 C321.14,1260.66 296.0104,1281.1487 274.2504,1298.8887 " fill="none" id="SubMapperFactory-to-PropertyAccessor" style="stroke:#E7E7E7;stroke-width:1.0;stroke-dasharray:7.0,7.0;"/><polygon fill="#E7E7E7" points="269.6,1302.68,279.1031,1300.0934,273.4753,1299.5206,274.0481,1293.8928,269.6,1302.68" style="stroke:#E7E7E7;stroke-width:1.0;"/></g><!--SRC=[dLPBRi8m4Dtx55ONxIudg90GQgjAHQqA5nZCGDqaTcIxdrGzV9quK3lOmM83ikUzUVFpW2wvQ411NKbMufPkW9Lx9J_4TY4hgQXH8BG5e324i0gqfaje6bJ4VT6YcDaRBjOTS2TLRKr7O7WzElVKvyqxChC0zeRtm8nKRHJcdLznpxMnk1iQHRODlgAMrMSN28aGnmwjeoJATvO2TONWOdy8dt1XKEs0OI0IlxuUfJ3_igNsbUZjRr7GgtEKAt8UCjMgkLBGhgNhXczF6NfdgxRUIT6kK76e-4zO8nTvql4WF1Yamtdsb25Jk4Xx7fGNtUSIpPlS-jRujLFzsBYXFxJwHDJA9jm6wJelFflNJOMrVMGw69gCflPLJhWbARa-r4X2K_XPg0ARwl1YAPqWXhJZOyeb41AZHs3XE9tEMsOf_SavTPAqz06zAFdT7jVJD3Qqsdc1BHW8-n3dkbvOBPksQOVq9mcHHfD9VKUwWpsgGOUZ7hLkaZgypqEGZs8dSsXXKjc2G-KVKA02UsSN-dbA-3lXfiVMpPvqDzh3tfWpXbfVyYHpV6LW-bXxqnClSJmdiRZzmmNpd-Ki0tCcy7YhQMIqZztq_oH4MdWp-Y4-XSJi_ehEsZJ-uYDa_B3Iunz1_gVgscudb_m1]--></g></svg>