<svg xmlns="http://www.w3.org/2000/svg" xmlns:xlink="http://www.w3.org/1999/xlink" contentStyleType="text/css" height="446px" preserveAspectRatio="none" style="width:623px;height:446px;" version="1.1" viewBox="0 0 623 446" width="623px" zoomAndPan="magnify"><defs/><g><!--class PageableInterface--><g id="elem_PageableInterface"><rect codeLine="2" fill="#313139" height="162.0781" id="PageableInterface" rx="2.5" ry="2.5" style="stroke:#E7E7E7;stroke-width:0.5;" width="156" x="89.5" y="15"/><ellipse cx="104.5" cy="31" fill="#352866" rx="11" ry="11" style="stroke:#E7E7E7;stroke-width:1.0;"/><path d="M100.4219,26.7656 L100.4219,24.6094 L107.8125,24.6094 L107.8125,26.7656 L105.3438,26.7656 L105.3438,34.8438 L107.8125,34.8438 L107.8125,37 L100.4219,37 L100.4219,34.8438 L102.8906,34.8438 L102.8906,26.7656 L100.4219,26.7656 Z " fill="#FFFFFF"/><text fill="#FFFFFF" font-family="sans-serif" font-size="14" font-style="italic" lengthAdjust="spacing" textLength="124" x="118.5" y="35.8467">PageableInterface</text><line style="stroke:#E7E7E7;stroke-width:0.5;" x1="90.5" x2="244.5" y1="47" y2="47"/><line style="stroke:#E7E7E7;stroke-width:0.5;" x1="90.5" x2="244.5" y1="55" y2="55"/><text fill="#FFFFFF" font-family="sans-serif" font-size="14" lengthAdjust="spacing" textLength="144" x="95.5" y="71.9951">getPageByIdentifier()</text><text fill="#FFFFFF" font-family="sans-serif" font-size="14" lengthAdjust="spacing" textLength="97" x="95.5" y="88.292">getFirstPage()</text><text fill="#FFFFFF" font-family="sans-serif" font-size="14" lengthAdjust="spacing" textLength="96" x="95.5" y="104.5889">getLastPage()</text><text fill="#FFFFFF" font-family="sans-serif" font-size="14" lengthAdjust="spacing" textLength="129" x="95.5" y="120.8857">getItemsPerPage()</text><text fill="#FFFFFF" font-family="sans-serif" font-size="14" lengthAdjust="spacing" textLength="134" x="95.5" y="137.1826">withItemsPerPage()</text><text fill="#FFFFFF" font-family="sans-serif" font-size="14" lengthAdjust="spacing" textLength="110" x="95.5" y="153.4795">getTotalPages()</text><text fill="#FFFFFF" font-family="sans-serif" font-size="14" lengthAdjust="spacing" textLength="105" x="95.5" y="169.7764">getTotalItems()</text></g><!--class PageInterface--><g id="elem_PageInterface"><rect codeLine="12" fill="#313139" height="178.375" id="PageInterface" rx="2.5" ry="2.5" style="stroke:#E7E7E7;stroke-width:0.5;" width="147" x="281" y="7"/><ellipse cx="305" cy="23" fill="#352866" rx="11" ry="11" style="stroke:#E7E7E7;stroke-width:1.0;"/><path d="M300.9219,18.7656 L300.9219,16.6094 L308.3125,16.6094 L308.3125,18.7656 L305.8438,18.7656 L305.8438,26.8438 L308.3125,26.8438 L308.3125,29 L300.9219,29 L300.9219,26.8438 L303.3906,26.8438 L303.3906,18.7656 L300.9219,18.7656 Z " fill="#FFFFFF"/><text fill="#FFFFFF" font-family="sans-serif" font-size="14" font-style="italic" lengthAdjust="spacing" textLength="95" x="321" y="27.8467">PageInterface</text><line style="stroke:#E7E7E7;stroke-width:0.5;" x1="282" x2="427" y1="39" y2="39"/><line style="stroke:#E7E7E7;stroke-width:0.5;" x1="282" x2="427" y1="47" y2="47"/><text fill="#FFFFFF" font-family="sans-serif" font-size="14" lengthAdjust="spacing" textLength="127" x="287" y="63.9951">getPageIdentifier()</text><text fill="#FFFFFF" font-family="sans-serif" font-size="14" lengthAdjust="spacing" textLength="123" x="287" y="80.292">getPageNumber()</text><text fill="#FFFFFF" font-family="sans-serif" font-size="14" lengthAdjust="spacing" textLength="97" x="287" y="96.5889">getPageable()</text><text fill="#FFFFFF" font-family="sans-serif" font-size="14" lengthAdjust="spacing" textLength="129" x="287" y="112.8857">getItemsPerPage()</text><text fill="#FFFFFF" font-family="sans-serif" font-size="14" lengthAdjust="spacing" textLength="99" x="287" y="129.1826">getNextPage()</text><text fill="#FFFFFF" font-family="sans-serif" font-size="14" lengthAdjust="spacing" textLength="127" x="287" y="145.4795">getPreviousPage()</text><text fill="#FFFFFF" font-family="sans-serif" font-size="14" lengthAdjust="spacing" textLength="107" x="287" y="161.7764">getNextPages()</text><text fill="#FFFFFF" font-family="sans-serif" font-size="14" lengthAdjust="spacing" textLength="135" x="287" y="178.0732">getPreviousPages()</text></g><!--class NullPageInterface--><g id="elem_NullPageInterface"><rect codeLine="23" fill="#313139" height="48" id="NullPageInterface" rx="2.5" ry="2.5" style="stroke:#E7E7E7;stroke-width:0.5;" width="153" x="463" y="72"/><ellipse cx="478" cy="88" fill="#352866" rx="11" ry="11" style="stroke:#E7E7E7;stroke-width:1.0;"/><path d="M473.9219,83.7656 L473.9219,81.6094 L481.3125,81.6094 L481.3125,83.7656 L478.8438,83.7656 L478.8438,91.8438 L481.3125,91.8438 L481.3125,94 L473.9219,94 L473.9219,91.8438 L476.3906,91.8438 L476.3906,83.7656 L473.9219,83.7656 Z " fill="#FFFFFF"/><text fill="#FFFFFF" font-family="sans-serif" font-size="14" font-style="italic" lengthAdjust="spacing" textLength="121" x="492" y="92.8467">NullPageInterface</text><line style="stroke:#E7E7E7;stroke-width:0.5;" x1="464" x2="615" y1="104" y2="104"/><line style="stroke:#E7E7E7;stroke-width:0.5;" x1="464" x2="615" y1="112" y2="112"/></g><!--class PagerInterface--><g id="elem_PagerInterface"><rect codeLine="28" fill="#313139" height="194.6719" id="PagerInterface" rx="2.5" ry="2.5" style="stroke:#E7E7E7;stroke-width:0.5;" width="231" x="7" y="245"/><ellipse cx="68.25" cy="261" fill="#352866" rx="11" ry="11" style="stroke:#E7E7E7;stroke-width:1.0;"/><path d="M64.1719,256.7656 L64.1719,254.6094 L71.5625,254.6094 L71.5625,256.7656 L69.0938,256.7656 L69.0938,264.8438 L71.5625,264.8438 L71.5625,267 L64.1719,267 L64.1719,264.8438 L66.6406,264.8438 L66.6406,256.7656 L64.1719,256.7656 Z " fill="#FFFFFF"/><text fill="#FFFFFF" font-family="sans-serif" font-size="14" font-style="italic" lengthAdjust="spacing" textLength="100" x="88.75" y="265.8467">PagerInterface</text><line style="stroke:#E7E7E7;stroke-width:0.5;" x1="8" x2="237" y1="277" y2="277"/><line style="stroke:#E7E7E7;stroke-width:0.5;" x1="8" x2="237" y1="285" y2="285"/><text fill="#FFFFFF" font-family="sans-serif" font-size="14" lengthAdjust="spacing" textLength="94" x="13" y="301.9951">getProximity()</text><text fill="#FFFFFF" font-family="sans-serif" font-size="14" lengthAdjust="spacing" textLength="99" x="13" y="318.292">withProximity()</text><text fill="#FFFFFF" font-family="sans-serif" font-size="14" lengthAdjust="spacing" textLength="120" x="13" y="334.5889">getCurrentPage()</text><text fill="#FFFFFF" font-family="sans-serif" font-size="14" lengthAdjust="spacing" textLength="127" x="13" y="350.8857">getPreviousPage()</text><text fill="#FFFFFF" font-family="sans-serif" font-size="14" lengthAdjust="spacing" textLength="99" x="13" y="367.1826">getNextPage()</text><text fill="#FFFFFF" font-family="sans-serif" font-size="14" lengthAdjust="spacing" textLength="145" x="13" y="383.4795">hasGapToFirstPage()</text><text fill="#FFFFFF" font-family="sans-serif" font-size="14" lengthAdjust="spacing" textLength="144" x="13" y="399.7764">hasGapToLastPage()</text><text fill="#FFFFFF" font-family="sans-serif" font-size="14" lengthAdjust="spacing" textLength="219" x="13" y="416.0732">getPreviousNeighboringPages()</text><text fill="#FFFFFF" font-family="sans-serif" font-size="14" lengthAdjust="spacing" textLength="191" x="13" y="432.3701">getNextNeighboringPages()</text></g><!--class PagerItemInterface--><g id="elem_PagerItemInterface"><rect codeLine="40" fill="#313139" height="80.5938" id="PagerItemInterface" rx="2.5" ry="2.5" style="stroke:#E7E7E7;stroke-width:0.5;" width="163" x="273" y="302"/><ellipse cx="288" cy="318" fill="#352866" rx="11" ry="11" style="stroke:#E7E7E7;stroke-width:1.0;"/><path d="M283.9219,313.7656 L283.9219,311.6094 L291.3125,311.6094 L291.3125,313.7656 L288.8438,313.7656 L288.8438,321.8438 L291.3125,321.8438 L291.3125,324 L283.9219,324 L283.9219,321.8438 L286.3906,321.8438 L286.3906,313.7656 L283.9219,313.7656 Z " fill="#FFFFFF"/><text fill="#FFFFFF" font-family="sans-serif" font-size="14" font-style="italic" lengthAdjust="spacing" textLength="131" x="302" y="322.8467">PagerItemInterface</text><line style="stroke:#E7E7E7;stroke-width:0.5;" x1="274" x2="435" y1="334" y2="334"/><line style="stroke:#E7E7E7;stroke-width:0.5;" x1="274" x2="435" y1="342" y2="342"/><text fill="#FFFFFF" font-family="sans-serif" font-size="14" lengthAdjust="spacing" textLength="51" x="279" y="358.9951">getUrl()</text><text fill="#FFFFFF" font-family="sans-serif" font-size="14" lengthAdjust="spacing" textLength="81" x="279" y="375.292">isDisabled()</text></g><!--reverse link PageableInterface to PageInterface--><g id="link_PageableInterface_PageInterface"><path codeLine="25" d="M257.66,96 C269.42,96 269.19,96 280.95,96 " fill="none" id="PageableInterface-backto-PageInterface" style="stroke:#E7E7E7;stroke-width:1.0;"/><polygon fill="#E7E7E7" points="245.66,96,251.66,100,257.66,96,251.66,92,245.66,96" style="stroke:#E7E7E7;stroke-width:1.0;"/></g><!--reverse link PageInterface to NullPageInterface--><g id="link_PageInterface_NullPageInterface"><path codeLine="26" d="M446.21,96 C457.8,96 451.4,96 462.99,96 " fill="none" id="PageInterface-backto-NullPageInterface" style="stroke:#E7E7E7;stroke-width:1.0;"/><polygon fill="none" points="428.21,96,446.21,102,446.21,90,428.21,96" style="stroke:#E7E7E7;stroke-width:1.0;"/></g><!--reverse link PageInterface to PagerItemInterface--><g id="link_PageInterface_PagerItemInterface"><path codeLine="45" d="M354.5,203.27 C354.5,243.21 354.5,270.41 354.5,301.88 " fill="none" id="PageInterface-backto-PagerItemInterface" style="stroke:#E7E7E7;stroke-width:1.0;"/><polygon fill="none" points="354.5,185.27,348.5,203.27,360.5,203.27,354.5,185.27" style="stroke:#E7E7E7;stroke-width:1.0;"/></g><!--reverse link PagerInterface to PagerItemInterface--><g id="link_PagerInterface_PagerItemInterface"><path codeLine="46" d="M250.05,342.5 C261.57,342.5 261.09,342.5 272.62,342.5 " fill="none" id="PagerInterface-backto-PagerItemInterface" style="stroke:#E7E7E7;stroke-width:1.0;"/><polygon fill="#E7E7E7" points="238.05,342.5,244.05,346.5,250.05,342.5,244.05,338.5,238.05,342.5" style="stroke:#E7E7E7;stroke-width:1.0;"/></g><!--SRC=[bPB1JiCm38RlUOeUOLBVW1ERG9LGrSDu0BVrMgjfCZafR69xTvAnmfe497hy_CVr_zjc8BK7Xb7gPi0sgw4PEjQJQjTQQiuiWp9EWCeAGSeYxw31h88EePPOV9CFaRclG-jBZyUYTIzeHyXtztFbYTXSoZ_e1K9IM1nDXNn3tyds2Up4Msr1UcG2Tf4xTWw7_cNWrBYUbzDOXypx_dDUHqiy1BugnZVIaqdhJ5eOMIWdAHSsX8XNiSgNLiNI-CCfJ_LPviIfe5WVQ2HxlDbBo9niFR4_b__Olv8Up3Fijpeyb9d7rpAtBP6wljPCgWlYzBz8LC-nORV8XEbNbjTcP3PaVDBjr_ierJpHI0HXhfAYJm00]--></g></svg>