<?xml version="1.0" encoding="UTF-8" standalone="no"?>
<!-- Created with Inkscape (http://www.inkscape.org/) -->

<svg
   width="1600"
   height="800"
   viewBox="0 0 1600 800"
   version="1.1"
   id="svg1"
   inkscape:version="1.3 (0e150ed6c4, 2023-07-21)"
   sodipodi:docname="social.svg"
   xml:space="preserve"
   xmlns:inkscape="http://www.inkscape.org/namespaces/inkscape"
   xmlns:sodipodi="http://sodipodi.sourceforge.net/DTD/sodipodi-0.dtd"
   xmlns="http://www.w3.org/2000/svg"
   xmlns:svg="http://www.w3.org/2000/svg"><sodipodi:namedview
     id="namedview1"
     pagecolor="#ff6c52"
     bordercolor="#ffffff"
     borderopacity="1"
     inkscape:showpageshadow="false"
     inkscape:pageopacity="0"
     inkscape:pagecheckerboard="false"
     inkscape:deskcolor="#d1d1d1"
     inkscape:document-units="mm"
     inkscape:zoom="0.4880414"
     inkscape:cx="306.32647"
     inkscape:cy="235.63575"
     inkscape:window-width="2560"
     inkscape:window-height="1366"
     inkscape:window-x="1920"
     inkscape:window-y="0"
     inkscape:window-maximized="1"
     inkscape:current-layer="layer1" /><defs
     id="defs1"><inkscape:perspective
       sodipodi:type="inkscape:persp3d"
       inkscape:vp_x="0 : 526.18107 : 1"
       inkscape:vp_y="0 : 999.99995 : 0"
       inkscape:vp_z="744.09445 : 526.18107 : 1"
       inkscape:persp3d-origin="372.04723 : 350.78738 : 1"
       id="perspective4918" /><clipPath
       id="clipPath5332"
       clipPathUnits="userSpaceOnUse"><path
         inkscape:connector-curvature="0"
         id="path5334"
         d="m 0,485.035 648.988,0 L 648.988,0 0,0 0,485.035 Z" /></clipPath><clipPath
       id="clipPath5630"
       clipPathUnits="userSpaceOnUse"><path
         inkscape:connector-curvature="0"
         id="path5632"
         d="m 0,485.035 648.988,0 L 648.988,0 0,0 0,485.035 Z" /></clipPath><inkscape:perspective
       inkscape:persp3d-origin="299.99999 : 399.99998 : 1"
       inkscape:vp_z="699.99997 : 599.99997 : 1"
       inkscape:vp_y="0 : 999.99995 : 0"
       inkscape:vp_x="-49.999997 : 599.99997 : 1"
       id="perspective9"
       sodipodi:type="inkscape:persp3d" /></defs><g
     inkscape:label="Layer 1"
     inkscape:groupmode="layer"
     id="layer1"><rect
       style="opacity:1;fill:#e95940;fill-opacity:1;stroke-width:6;paint-order:markers stroke fill"
       id="rect1"
       width="1600"
       height="800"
       x="0"
       y="0" /><g
       id="g5"
       transform="translate(18.917019,7.2197394)"><text
         xml:space="preserve"
         style="font-style:normal;font-variant:normal;font-weight:normal;font-stretch:normal;font-size:130.458px;line-height:1.25;font-family:Jaldi;-inkscape-font-specification:'Jaldi, Normal';font-variant-ligatures:normal;font-variant-caps:normal;font-variant-numeric:normal;font-variant-east-asian:normal;fill:#ffffff;fill-opacity:1;stroke:none;stroke-width:3.26146"
         x="78.784866"
         y="513.1864"
         id="text1"><tspan
           sodipodi:role="line"
           id="tspan1"
           x="78.784866"
           y="513.1864"
           style="font-style:normal;font-variant:normal;font-weight:normal;font-stretch:normal;font-size:130.458px;font-family:Jaldi;-inkscape-font-specification:'Jaldi, Normal';font-variant-ligatures:normal;font-variant-caps:normal;font-variant-numeric:normal;font-variant-east-asian:normal;fill:#ffffff;stroke-width:3.26146;fill-opacity:1">Rekalogika.DEV</tspan></text><text
         xml:space="preserve"
         style="font-style:normal;font-variant:normal;font-weight:normal;font-stretch:normal;font-size:58.1535px;line-height:1.25;font-family:'Open Sans';-inkscape-font-specification:'Open Sans, Normal';font-variant-ligatures:normal;font-variant-caps:normal;font-variant-numeric:normal;font-variant-east-asian:normal;fill:#fdfdfd;fill-opacity:1;stroke:none;stroke-width:1.45383"
         x="83.070602"
         y="618.24335"
         id="text2"><tspan
           sodipodi:role="line"
           x="83.070602"
           y="618.24335"
           id="tspan4"
           style="stroke-width:1.45383;fill:#fdfdfd;fill-opacity:1">Open Source Libraries for PHP, Symfony, and more.</tspan></text><g
         inkscape:label="Layer 1"
         id="layer1-1"
         transform="matrix(8.3900615,0,0,8.3900615,2281.3775,-1700.5428)"><path
           id="path8522"
           d="m -261.00193,237.11825 c 0.41178,0.46376 1.35294,0.66986 2.94116,0.66986 1.58821,0 2.52938,-0.2061 2.94115,-0.66986 0.41176,-0.46374 0.58822,-1.44276 0.58822,-2.88551 0,-1.44276 -0.17646,-2.37023 -0.58822,-2.83398 -0.41177,-0.46375 -1.35294,-0.66985 -2.94115,-0.66985 -1.58822,0 -2.52938,0.2061 -2.94116,0.66985 -0.41175,0.46375 -0.58822,1.39124 -0.58822,2.83398 0,1.44277 0.17647,2.42177 0.58822,2.88551 z"
           style="font-style:normal;font-variant:normal;font-weight:500;font-stretch:normal;font-size:medium;line-height:125%;font-family:'Sentico Sans DT';-inkscape-font-specification:'Sentico Sans DT, Medium';text-align:start;letter-spacing:0px;word-spacing:0px;writing-mode:lr-tb;text-anchor:start;fill:#f9f9f9;fill-opacity:1;stroke:none;stroke-width:1px;stroke-linecap:butt;stroke-linejoin:miter;stroke-opacity:1"
           inkscape:connector-curvature="0" /><path
           inkscape:connector-curvature="0"
           style="font-style:normal;font-variant:normal;font-weight:500;font-stretch:normal;font-size:medium;line-height:125%;font-family:'Sentico Sans DT';-inkscape-font-specification:'Sentico Sans DT, Medium';text-align:start;letter-spacing:0px;word-spacing:0px;writing-mode:lr-tb;text-anchor:start;fill:#ffa08f;fill-opacity:1;stroke:none;stroke-width:1px;stroke-linecap:butt;stroke-linejoin:miter;stroke-opacity:1"
           d="m -251.23211,237.11825 c 0.41176,0.46376 1.35293,0.66986 2.94114,0.66986 1.58822,0 2.5294,-0.2061 2.94115,-0.66986 0.41176,-0.46374 0.58823,-1.44276 0.58823,-2.88551 0,-1.44276 -0.17647,-2.37023 -0.58823,-2.83398 -0.41175,-0.46375 -1.35293,-0.66985 -2.94115,-0.66985 -1.58821,0 -2.52938,0.2061 -2.94114,0.66985 -0.41177,0.46375 -0.58823,1.39124 -0.58823,2.83398 0,1.44277 0.17646,2.42177 0.58823,2.88551 z"
           id="path8524" /><path
           id="path8526"
           d="m -241.46232,237.11825 c 0.41177,0.46376 1.35294,0.66986 2.94116,0.66986 1.58821,0 2.52938,-0.2061 2.94115,-0.66986 0.41176,-0.46374 0.58822,-1.44276 0.58822,-2.88551 0,-1.44276 -0.17646,-2.37023 -0.58822,-2.83398 -0.41177,-0.46375 -1.35294,-0.66985 -2.94115,-0.66985 -1.58822,0 -2.52939,0.2061 -2.94116,0.66985 -0.41175,0.46375 -0.58822,1.39124 -0.58822,2.83398 0,1.44277 0.17647,2.42177 0.58822,2.88551 z"
           style="font-style:normal;font-variant:normal;font-weight:500;font-stretch:normal;font-size:medium;line-height:125%;font-family:'Sentico Sans DT';-inkscape-font-specification:'Sentico Sans DT, Medium';text-align:start;letter-spacing:0px;word-spacing:0px;writing-mode:lr-tb;text-anchor:start;fill:#ffa08f;fill-opacity:1;stroke:none;stroke-width:1px;stroke-linecap:butt;stroke-linejoin:miter;stroke-opacity:1"
           inkscape:connector-curvature="0" /><path
           inkscape:connector-curvature="0"
           style="font-style:normal;font-variant:normal;font-weight:500;font-stretch:normal;font-size:medium;line-height:125%;font-family:'Sentico Sans DT';-inkscape-font-specification:'Sentico Sans DT, Medium';text-align:start;letter-spacing:0px;word-spacing:0px;writing-mode:lr-tb;text-anchor:start;fill:#ffa08f;fill-opacity:1;stroke:none;stroke-width:1px;stroke-linecap:butt;stroke-linejoin:miter;stroke-opacity:1"
           d="m -261.00193,246.88793 c 0.41178,0.46375 1.35294,0.66986 2.94116,0.66986 1.58821,0 2.52938,-0.20611 2.94115,-0.66986 0.41176,-0.46376 0.58822,-1.44276 0.58822,-2.88551 0,-1.44276 -0.17646,-2.37026 -0.58822,-2.83399 -0.41177,-0.46376 -1.35294,-0.66986 -2.94115,-0.66986 -1.58822,0 -2.52938,0.2061 -2.94116,0.66986 -0.41175,0.46374 -0.58822,1.39123 -0.58822,2.83399 0,1.44275 0.17647,2.42177 0.58822,2.88551 z"
           id="path8528" /><path
           id="path8530"
           d="m -251.23211,246.88793 c 0.41176,0.46375 1.35293,0.66986 2.94114,0.66986 1.58822,0 2.5294,-0.20611 2.94115,-0.66986 0.41176,-0.46376 0.58823,-1.44276 0.58823,-2.88551 0,-1.44276 -0.17647,-2.37026 -0.58823,-2.83399 -0.41175,-0.46376 -1.35293,-0.66986 -2.94115,-0.66986 -1.58821,0 -2.52938,0.2061 -2.94114,0.66986 -0.41177,0.46374 -0.58823,1.39123 -0.58823,2.83399 0,1.44275 0.17646,2.42177 0.58823,2.88551 z"
           style="font-style:normal;font-variant:normal;font-weight:500;font-stretch:normal;font-size:medium;line-height:125%;font-family:'Sentico Sans DT';-inkscape-font-specification:'Sentico Sans DT, Medium';text-align:start;letter-spacing:0px;word-spacing:0px;writing-mode:lr-tb;text-anchor:start;fill:#ffa08f;fill-opacity:1;stroke:none;stroke-width:1px;stroke-linecap:butt;stroke-linejoin:miter;stroke-opacity:1"
           inkscape:connector-curvature="0" /><path
           inkscape:connector-curvature="0"
           style="font-style:normal;font-variant:normal;font-weight:500;font-stretch:normal;font-size:medium;line-height:125%;font-family:'Sentico Sans DT';-inkscape-font-specification:'Sentico Sans DT, Medium';text-align:start;letter-spacing:0px;word-spacing:0px;writing-mode:lr-tb;text-anchor:start;fill:#ffa08f;fill-opacity:1;stroke:none;stroke-width:1px;stroke-linecap:butt;stroke-linejoin:miter;stroke-opacity:1"
           d="m -241.46232,246.88793 c 0.41177,0.46375 1.35294,0.66986 2.94116,0.66986 1.58821,0 2.52938,-0.20611 2.94115,-0.66986 0.41176,-0.46376 0.58822,-1.44276 0.58822,-2.88551 0,-1.44276 -0.17646,-2.37026 -0.58822,-2.83399 -0.41177,-0.46376 -1.35294,-0.66986 -2.94115,-0.66986 -1.58822,0 -2.52939,0.2061 -2.94116,0.66986 -0.41175,0.46374 -0.58822,1.39123 -0.58822,2.83399 0,1.44275 0.17647,2.42177 0.58822,2.88551 z"
           id="path8532" /><path
           inkscape:connector-curvature="0"
           style="font-style:normal;font-variant:normal;font-weight:500;font-stretch:normal;font-size:medium;line-height:125%;font-family:'Sentico Sans DT';-inkscape-font-specification:'Sentico Sans DT, Medium';text-align:start;letter-spacing:0px;word-spacing:0px;writing-mode:lr-tb;text-anchor:start;fill:#f9f9f9;fill-opacity:1;stroke:none;stroke-width:1px;stroke-linecap:butt;stroke-linejoin:miter;stroke-opacity:1"
           d="m -261.00193,227.34853 c 0.41178,0.46377 1.35294,0.66986 2.94116,0.66986 1.58821,0 2.52938,-0.20609 2.94115,-0.66986 0.41176,-0.46373 0.58822,-1.44276 0.58822,-2.88551 0,-1.44277 -0.17646,-2.37024 -0.58822,-2.83398 -0.41177,-0.46376 -1.35294,-0.66986 -2.94115,-0.66986 -1.58822,0 -2.52938,0.2061 -2.94116,0.66986 -0.41175,0.46374 -0.58822,1.39123 -0.58822,2.83398 0,1.44276 0.17647,2.42178 0.58822,2.88551 z"
           id="path8534" /><path
           id="path8536"
           d="m -251.23211,227.34853 c 0.41176,0.46377 1.35293,0.66986 2.94114,0.66986 1.58822,0 2.5294,-0.20609 2.94115,-0.66986 0.41176,-0.46373 0.58823,-1.44276 0.58823,-2.88551 0,-1.44277 -0.17647,-2.37024 -0.58823,-2.83398 -0.41175,-0.46376 -1.35293,-0.66986 -2.94115,-0.66986 -1.58821,0 -2.52938,0.2061 -2.94114,0.66986 -0.41177,0.46374 -0.58823,1.39123 -0.58823,2.83398 0,1.44276 0.17646,2.42178 0.58823,2.88551 z"
           style="font-style:normal;font-variant:normal;font-weight:500;font-stretch:normal;font-size:medium;line-height:125%;font-family:'Sentico Sans DT';-inkscape-font-specification:'Sentico Sans DT, Medium';text-align:start;letter-spacing:0px;word-spacing:0px;writing-mode:lr-tb;text-anchor:start;fill:#ffa08f;fill-opacity:1;stroke:none;stroke-width:1px;stroke-linecap:butt;stroke-linejoin:miter;stroke-opacity:1"
           inkscape:connector-curvature="0" /><path
           inkscape:connector-curvature="0"
           style="font-style:normal;font-variant:normal;font-weight:500;font-stretch:normal;font-size:medium;line-height:125%;font-family:'Sentico Sans DT';-inkscape-font-specification:'Sentico Sans DT, Medium';text-align:start;letter-spacing:0px;word-spacing:0px;writing-mode:lr-tb;text-anchor:start;fill:#f9f9f9;fill-opacity:1;stroke:none;stroke-width:1px;stroke-linecap:butt;stroke-linejoin:miter;stroke-opacity:1"
           d="m -241.46232,227.34853 c 0.41177,0.46377 1.35294,0.66986 2.94116,0.66986 1.58821,0 2.52938,-0.20609 2.94115,-0.66986 0.41176,-0.46373 0.58822,-1.44276 0.58822,-2.88551 0,-1.44277 -0.17646,-2.37024 -0.58822,-2.83398 -0.41177,-0.46376 -1.35294,-0.66986 -2.94115,-0.66986 -1.58822,0 -2.52939,0.2061 -2.94116,0.66986 -0.41175,0.46374 -0.58822,1.39123 -0.58822,2.83398 0,1.44276 0.17647,2.42178 0.58822,2.88551 z"
           id="path8538" /></g></g></g></svg>
