<svg xmlns="http://www.w3.org/2000/svg" xmlns:xlink="http://www.w3.org/1999/xlink" contentStyleType="text/css" height="801px" preserveAspectRatio="none" style="width:695px;height:801px;" version="1.1" viewBox="0 0 695 801" width="695px" zoomAndPan="magnify"><defs/><g><text fill="#000000" font-family="sans-serif" font-size="18" font-weight="bold" lengthAdjust="spacing" textLength="38.8477" x="96.1816" y="26.708">#EL</text><text fill="#000000" font-family="sans-serif" font-size="18" lengthAdjust="spacing" textLength="258.1699" x="135.0293" y="26.708">: safe if fetch is EXTRA_LAZY</text><text fill="#000000" font-family="sans-serif" font-size="18" font-weight="bold" lengthAdjust="spacing" textLength="59.2646" x="96.1816" y="47.6611">#ELIB</text><text fill="#000000" font-family="sans-serif" font-size="18" lengthAdjust="spacing" textLength="429.3721" x="155.4463" y="47.6611">: safe if fetch is EXTRA_LAZY and indexBy is set</text><text fill="#000000" font-family="sans-serif" font-size="18" font-weight="bold" lengthAdjust="spacing" textLength="84.6211" x="96.1816" y="68.6143">#always</text><text fill="#000000" font-family="sans-serif" font-size="18" lengthAdjust="spacing" textLength="117.1406" x="180.8027" y="68.6143">: always safe</text><text fill="#000000" font-family="sans-serif" font-size="18" font-weight="bold" lengthAdjust="spacing" textLength="53.0508" x="96.1816" y="89.5674">#null</text><text fill="#000000" font-family="sans-serif" font-size="18" lengthAdjust="spacing" textLength="193.6758" x="149.2324" y="89.5674">: safe if $offset is null</text><text fill="#000000" font-family="sans-serif" font-size="18" font-weight="bold" lengthAdjust="spacing" textLength="73.5996" x="96.1816" y="110.5205">#query</text><text fill="#000000" font-family="sans-serif" font-size="18" lengthAdjust="spacing" textLength="361.292" x="169.7813" y="110.5205">: require extra query under Recollection</text><!--cluster php--><g id="cluster_php"><rect fill="none" height="160" rx="2.5" ry="2.5" style="stroke:#000000;stroke-width:1.5;" width="682" x="7" y="132.7656"/><text fill="#000000" font-family="sans-serif" font-size="18" lengthAdjust="spacing" textLength="34.2598" x="330.8701" y="151.4736">php</text></g><!--cluster doctrine/collections--><g id="cluster_doctrine/collections"><rect fill="none" height="437" rx="2.5" ry="2.5" style="stroke:#000000;stroke-width:1.5;" width="586" x="24" y="358.7656"/><text fill="#000000" font-family="sans-serif" font-size="18" lengthAdjust="spacing" textLength="176.0801" x="228.96" y="377.4736">doctrine/collections</text></g><!--class ArrayAccess--><g id="elem_ArrayAccess"><rect codeLine="23" fill="#F1F1F1" height="105.1875" id="ArrayAccess" rx="2.5" ry="2.5" style="stroke:#181818;stroke-width:0.5;" width="311.9131" x="23" y="171.7656"/><ellipse cx="131.6436" cy="187.7656" fill="#B4A7E5" rx="11" ry="11" style="stroke:#181818;stroke-width:1.0;"/><path d="M127.5654,183.5313 L127.5654,181.375 L134.9561,181.375 L134.9561,183.5313 L132.4873,183.5313 L132.4873,191.6094 L134.9561,191.6094 L134.9561,193.7656 L127.5654,193.7656 L127.5654,191.6094 L130.0342,191.6094 L130.0342,183.5313 L127.5654,183.5313 Z " fill="#000000"/><text fill="#000000" font-family="sans-serif" font-size="14" font-style="italic" lengthAdjust="spacing" textLength="86.126" x="152.1436" y="192.6123">ArrayAccess</text><line style="stroke:#181818;stroke-width:0.5;" x1="24" x2="333.9131" y1="203.7656" y2="203.7656"/><ellipse cx="34" cy="217.4141" fill="#84BE84" rx="3" ry="3" style="stroke:#038048;stroke-width:1.0;"/><text fill="#000000" font-family="sans-serif" font-size="14" lengthAdjust="spacing" textLength="140.5674" x="43" y="220.7607">offsetExists($offset)</text><text fill="#000000" font-family="sans-serif" font-size="14" font-weight="bold" lengthAdjust="spacing" textLength="46.0947" x="188.0176" y="220.7607">#ELIB</text><ellipse cx="34" cy="233.7109" fill="#84BE84" rx="3" ry="3" style="stroke:#038048;stroke-width:1.0;"/><text fill="#000000" font-family="sans-serif" font-size="14" lengthAdjust="spacing" textLength="124.4209" x="43" y="237.0576">offsetGet($offset)</text><text fill="#000000" font-family="sans-serif" font-size="14" font-weight="bold" lengthAdjust="spacing" textLength="46.0947" x="171.8711" y="237.0576">#ELIB</text><ellipse cx="34" cy="250.0078" fill="#84BE84" rx="3" ry="3" style="stroke:#038048;stroke-width:1.0;"/><text fill="#000000" font-family="sans-serif" font-size="14" lengthAdjust="spacing" textLength="178.5068" x="43" y="253.3545">offsetSet($offset, $value)</text><text fill="#000000" font-family="sans-serif" font-size="14" font-weight="bold" lengthAdjust="spacing" textLength="41.2617" x="225.957" y="253.3545">#null</text><text fill="#000000" font-family="sans-serif" font-size="14" lengthAdjust="spacing" textLength="4.4502" x="267.2188" y="253.3545">&#160;</text><text fill="#000000" font-family="sans-serif" font-size="14" font-weight="bold" lengthAdjust="spacing" textLength="57.2441" x="271.6689" y="253.3545">#query</text><ellipse cx="34" cy="266.3047" fill="#84BE84" rx="3" ry="3" style="stroke:#038048;stroke-width:1.0;"/><text fill="#000000" font-family="sans-serif" font-size="14" lengthAdjust="spacing" textLength="139.9863" x="43" y="269.6514">offsetUnset($offset)</text><text fill="#000000" font-family="sans-serif" font-size="14" font-weight="bold" lengthAdjust="spacing" textLength="57.2441" x="187.4365" y="269.6514">#query</text></g><!--class IteratorAggregate--><g id="elem_IteratorAggregate"><rect codeLine="30" fill="#F1F1F1" height="56.2969" id="IteratorAggregate" rx="2.5" ry="2.5" style="stroke:#181818;stroke-width:0.5;" width="157.665" x="370" y="196.2656"/><ellipse cx="385" cy="212.2656" fill="#B4A7E5" rx="11" ry="11" style="stroke:#181818;stroke-width:1.0;"/><path d="M380.9219,208.0313 L380.9219,205.875 L388.3125,205.875 L388.3125,208.0313 L385.8438,208.0313 L385.8438,216.1094 L388.3125,216.1094 L388.3125,218.2656 L380.9219,218.2656 L380.9219,216.1094 L383.3906,216.1094 L383.3906,208.0313 L380.9219,208.0313 Z " fill="#000000"/><text fill="#000000" font-family="sans-serif" font-size="14" font-style="italic" lengthAdjust="spacing" textLength="125.665" x="399" y="217.1123">IteratorAggregate</text><line style="stroke:#181818;stroke-width:0.5;" x1="371" x2="526.665" y1="228.2656" y2="228.2656"/><ellipse cx="381" cy="241.9141" fill="#84BE84" rx="3" ry="3" style="stroke:#038048;stroke-width:1.0;"/><text fill="#000000" font-family="sans-serif" font-size="14" lengthAdjust="spacing" textLength="86.29" x="390" y="245.2607">getIterator()</text></g><!--class Countable--><g id="elem_Countable"><rect codeLine="34" fill="#F1F1F1" height="56.2969" id="Countable" rx="2.5" ry="2.5" style="stroke:#181818;stroke-width:0.5;" width="111.0869" x="562.5" y="196.2656"/><ellipse cx="580.8939" cy="212.2656" fill="#B4A7E5" rx="11" ry="11" style="stroke:#181818;stroke-width:1.0;"/><path d="M576.8158,208.0313 L576.8158,205.875 L584.2064,205.875 L584.2064,208.0313 L581.7376,208.0313 L581.7376,216.1094 L584.2064,216.1094 L584.2064,218.2656 L576.8158,218.2656 L576.8158,216.1094 L579.2845,216.1094 L579.2845,208.0313 L576.8158,208.0313 Z " fill="#000000"/><text fill="#000000" font-family="sans-serif" font-size="14" font-style="italic" lengthAdjust="spacing" textLength="71.5449" x="595.6481" y="217.1123">Countable</text><line style="stroke:#181818;stroke-width:0.5;" x1="563.5" x2="672.5869" y1="228.2656" y2="228.2656"/><ellipse cx="573.5" cy="241.9141" fill="#84BE84" rx="3" ry="3" style="stroke:#038048;stroke-width:1.0;"/><text fill="#000000" font-family="sans-serif" font-size="14" lengthAdjust="spacing" textLength="50.4219" x="582.5" y="245.2607">count()</text><text fill="#000000" font-family="sans-serif" font-size="14" font-weight="bold" lengthAdjust="spacing" textLength="30.2148" x="637.3721" y="245.2607">#EL</text></g><!--class ReadableCollection--><g id="elem_ReadableCollection"><rect codeLine="40" fill="#F1F1F1" height="382.2344" id="ReadableCollection" rx="2.5" ry="2.5" style="stroke:#181818;stroke-width:0.5;" width="240.5938" x="352.5" y="397.7656"/><ellipse cx="401.0352" cy="413.7656" fill="#B4A7E5" rx="11" ry="11" style="stroke:#181818;stroke-width:1.0;"/><path d="M396.957,409.5313 L396.957,407.375 L404.3477,407.375 L404.3477,409.5313 L401.8789,409.5313 L401.8789,417.6094 L404.3477,417.6094 L404.3477,419.7656 L396.957,419.7656 L396.957,417.6094 L399.4258,417.6094 L399.4258,409.5313 L396.957,409.5313 Z " fill="#000000"/><text fill="#000000" font-family="sans-serif" font-size="14" font-style="italic" lengthAdjust="spacing" textLength="135.0234" x="421.5352" y="418.6123">ReadableCollection</text><line style="stroke:#181818;stroke-width:0.5;" x1="353.5" x2="592.0938" y1="429.7656" y2="429.7656"/><ellipse cx="363.5" cy="443.4141" fill="#84BE84" rx="3" ry="3" style="stroke:#038048;stroke-width:1.0;"/><text fill="#000000" font-family="sans-serif" font-size="14" lengthAdjust="spacing" textLength="136.8213" x="372.5" y="446.7607">contains($element)</text><text fill="#000000" font-family="sans-serif" font-size="14" font-weight="bold" lengthAdjust="spacing" textLength="30.2148" x="513.7715" y="446.7607">#EL</text><ellipse cx="363.5" cy="459.7109" fill="#84BE84" rx="3" ry="3" style="stroke:#038048;stroke-width:1.0;"/><text fill="#000000" font-family="sans-serif" font-size="14" lengthAdjust="spacing" textLength="67.252" x="372.5" y="463.0576">isEmpty()</text><ellipse cx="363.5" cy="476.0078" fill="#84BE84" rx="3" ry="3" style="stroke:#038048;stroke-width:1.0;"/><text fill="#000000" font-family="sans-serif" font-size="14" lengthAdjust="spacing" textLength="130.1768" x="372.5" y="479.3545">containsKey($key)</text><text fill="#000000" font-family="sans-serif" font-size="14" font-weight="bold" lengthAdjust="spacing" textLength="46.0947" x="507.127" y="479.3545">#ELIB</text><ellipse cx="363.5" cy="492.3047" fill="#84BE84" rx="3" ry="3" style="stroke:#038048;stroke-width:1.0;"/><text fill="#000000" font-family="sans-serif" font-size="14" lengthAdjust="spacing" textLength="67.8262" x="372.5" y="495.6514">get($key)</text><text fill="#000000" font-family="sans-serif" font-size="14" font-weight="bold" lengthAdjust="spacing" textLength="46.0947" x="444.7764" y="495.6514">#ELIB</text><ellipse cx="363.5" cy="508.6016" fill="#84BE84" rx="3" ry="3" style="stroke:#038048;stroke-width:1.0;"/><text fill="#000000" font-family="sans-serif" font-size="14" lengthAdjust="spacing" textLength="67.2861" x="372.5" y="511.9482">getKeys()</text><ellipse cx="363.5" cy="524.8984" fill="#84BE84" rx="3" ry="3" style="stroke:#038048;stroke-width:1.0;"/><text fill="#000000" font-family="sans-serif" font-size="14" lengthAdjust="spacing" textLength="80.7393" x="372.5" y="528.2451">getValues()</text><ellipse cx="363.5" cy="541.1953" fill="#84BE84" rx="3" ry="3" style="stroke:#038048;stroke-width:1.0;"/><text fill="#000000" font-family="sans-serif" font-size="14" lengthAdjust="spacing" textLength="62.9316" x="372.5" y="544.542">toArray()</text><ellipse cx="363.5" cy="557.4922" fill="#84BE84" rx="3" ry="3" style="stroke:#038048;stroke-width:1.0;"/><text fill="#000000" font-family="sans-serif" font-size="14" lengthAdjust="spacing" textLength="38.2813" x="372.5" y="560.8389">first()</text><ellipse cx="363.5" cy="573.7891" fill="#84BE84" rx="3" ry="3" style="stroke:#038048;stroke-width:1.0;"/><text fill="#000000" font-family="sans-serif" font-size="14" lengthAdjust="spacing" textLength="36.1758" x="372.5" y="577.1357">last()</text><ellipse cx="363.5" cy="590.0859" fill="#84BE84" rx="3" ry="3" style="stroke:#038048;stroke-width:1.0;"/><text fill="#000000" font-family="sans-serif" font-size="14" lengthAdjust="spacing" textLength="35.9297" x="372.5" y="593.4326">key()</text><ellipse cx="363.5" cy="606.3828" fill="#84BE84" rx="3" ry="3" style="stroke:#038048;stroke-width:1.0;"/><text fill="#000000" font-family="sans-serif" font-size="14" lengthAdjust="spacing" textLength="61.9814" x="372.5" y="609.7295">current()</text><ellipse cx="363.5" cy="622.6797" fill="#84BE84" rx="3" ry="3" style="stroke:#038048;stroke-width:1.0;"/><text fill="#000000" font-family="sans-serif" font-size="14" lengthAdjust="spacing" textLength="42.1846" x="372.5" y="626.0264">next()</text><ellipse cx="363.5" cy="638.9766" fill="#84BE84" rx="3" ry="3" style="stroke:#038048;stroke-width:1.0;"/><text fill="#000000" font-family="sans-serif" font-size="14" lengthAdjust="spacing" textLength="153.4668" x="372.5" y="642.3232">slice($offset, $length)</text><text fill="#000000" font-family="sans-serif" font-size="14" font-weight="bold" lengthAdjust="spacing" textLength="30.2148" x="530.417" y="642.3232">#EL</text><ellipse cx="363.5" cy="655.2734" fill="#84BE84" rx="3" ry="3" style="stroke:#038048;stroke-width:1.0;"/><text fill="#000000" font-family="sans-serif" font-size="14" lengthAdjust="spacing" textLength="104.5557" x="372.5" y="658.6201">exists(Closure)</text><ellipse cx="363.5" cy="671.5703" fill="#84BE84" rx="3" ry="3" style="stroke:#038048;stroke-width:1.0;"/><text fill="#000000" font-family="sans-serif" font-size="14" lengthAdjust="spacing" textLength="96.2568" x="372.5" y="674.917">filter(Closure)</text><ellipse cx="363.5" cy="687.8672" fill="#84BE84" rx="3" ry="3" style="stroke:#038048;stroke-width:1.0;"/><text fill="#000000" font-family="sans-serif" font-size="14" lengthAdjust="spacing" textLength="94.7939" x="372.5" y="691.2139">map(Closure)</text><ellipse cx="363.5" cy="704.1641" fill="#84BE84" rx="3" ry="3" style="stroke:#038048;stroke-width:1.0;"/><text fill="#000000" font-family="sans-serif" font-size="14" lengthAdjust="spacing" textLength="123.1084" x="372.5" y="707.5107">partition(Closure)</text><ellipse cx="363.5" cy="720.4609" fill="#84BE84" rx="3" ry="3" style="stroke:#038048;stroke-width:1.0;"/><text fill="#000000" font-family="sans-serif" font-size="14" lengthAdjust="spacing" textLength="100.2969" x="372.5" y="723.8076">forAll(Closure)</text><ellipse cx="363.5" cy="736.7578" fill="#84BE84" rx="3" ry="3" style="stroke:#038048;stroke-width:1.0;"/><text fill="#000000" font-family="sans-serif" font-size="14" lengthAdjust="spacing" textLength="132.0566" x="372.5" y="740.1045">indexOf($element)</text><ellipse cx="363.5" cy="753.0547" fill="#84BE84" rx="3" ry="3" style="stroke:#038048;stroke-width:1.0;"/><text fill="#000000" font-family="sans-serif" font-size="14" lengthAdjust="spacing" textLength="120.75" x="372.5" y="756.4014">findFirst(Closure)</text><ellipse cx="363.5" cy="769.3516" fill="#84BE84" rx="3" ry="3" style="stroke:#038048;stroke-width:1.0;"/><text fill="#000000" font-family="sans-serif" font-size="14" lengthAdjust="spacing" textLength="214.5938" x="372.5" y="772.6982">reduce(Closure, $initial = null)</text></g><!--class Collection--><g id="elem_Collection"><rect codeLine="67" fill="#F1F1F1" height="170.375" id="Collection" rx="2.5" ry="2.5" style="stroke:#181818;stroke-width:0.5;" width="276.6875" x="40.5" y="503.7656"/><ellipse cx="139.9697" cy="519.7656" fill="#B4A7E5" rx="11" ry="11" style="stroke:#181818;stroke-width:1.0;"/><path d="M135.8916,515.5313 L135.8916,513.375 L143.2822,513.375 L143.2822,515.5313 L140.8135,515.5313 L140.8135,523.6094 L143.2822,523.6094 L143.2822,525.7656 L135.8916,525.7656 L135.8916,523.6094 L138.3604,523.6094 L138.3604,515.5313 L135.8916,515.5313 Z " fill="#000000"/><text fill="#000000" font-family="sans-serif" font-size="14" font-style="italic" lengthAdjust="spacing" textLength="69.248" x="160.4697" y="524.6123">Collection</text><line style="stroke:#181818;stroke-width:0.5;" x1="41.5" x2="316.1875" y1="535.7656" y2="535.7656"/><ellipse cx="51.5" cy="549.4141" fill="#84BE84" rx="3" ry="3" style="stroke:#038048;stroke-width:1.0;"/><text fill="#000000" font-family="sans-serif" font-size="14" lengthAdjust="spacing" textLength="103.9131" x="60.5" y="552.7607">add($element)</text><text fill="#000000" font-family="sans-serif" font-size="14" font-weight="bold" lengthAdjust="spacing" textLength="65.8164" x="168.8633" y="552.7607">#always</text><ellipse cx="51.5" cy="565.7109" fill="#84BE84" rx="3" ry="3" style="stroke:#038048;stroke-width:1.0;"/><text fill="#000000" font-family="sans-serif" font-size="14" lengthAdjust="spacing" textLength="45.459" x="60.5" y="569.0576">clear()</text><text fill="#000000" font-family="sans-serif" font-size="14" font-weight="bold" lengthAdjust="spacing" textLength="57.2441" x="110.4092" y="569.0576">#query</text><ellipse cx="51.5" cy="582.0078" fill="#84BE84" rx="3" ry="3" style="stroke:#038048;stroke-width:1.0;"/><text fill="#000000" font-family="sans-serif" font-size="14" lengthAdjust="spacing" textLength="98.3076" x="60.5" y="585.3545">remove($key)</text><text fill="#000000" font-family="sans-serif" font-size="14" font-weight="bold" lengthAdjust="spacing" textLength="57.2441" x="163.2578" y="585.3545">#query</text><ellipse cx="51.5" cy="598.3047" fill="#84BE84" rx="3" ry="3" style="stroke:#038048;stroke-width:1.0;"/><text fill="#000000" font-family="sans-serif" font-size="14" lengthAdjust="spacing" textLength="188.9932" x="60.5" y="601.6514">removeElement($element)</text><text fill="#000000" font-family="sans-serif" font-size="14" font-weight="bold" lengthAdjust="spacing" textLength="57.2441" x="253.9434" y="601.6514">#query</text><ellipse cx="51.5" cy="614.6016" fill="#84BE84" rx="3" ry="3" style="stroke:#038048;stroke-width:1.0;"/><text fill="#000000" font-family="sans-serif" font-size="14" lengthAdjust="spacing" textLength="122.2813" x="60.5" y="617.9482">set($key, $value)</text><text fill="#000000" font-family="sans-serif" font-size="14" font-weight="bold" lengthAdjust="spacing" textLength="57.2441" x="187.2314" y="617.9482">#query</text><ellipse cx="51.5" cy="630.8984" fill="#84BE84" rx="3" ry="3" style="stroke:#038048;stroke-width:1.0;"/><text fill="#000000" font-family="sans-serif" font-size="14" lengthAdjust="spacing" textLength="94.7939" x="60.5" y="634.2451">map(Closure)</text><ellipse cx="51.5" cy="647.1953" fill="#84BE84" rx="3" ry="3" style="stroke:#038048;stroke-width:1.0;"/><text fill="#000000" font-family="sans-serif" font-size="14" lengthAdjust="spacing" textLength="96.2568" x="60.5" y="650.542">filter(Closure)</text><ellipse cx="51.5" cy="663.4922" fill="#84BE84" rx="3" ry="3" style="stroke:#038048;stroke-width:1.0;"/><text fill="#000000" font-family="sans-serif" font-size="14" lengthAdjust="spacing" textLength="123.1084" x="60.5" y="666.8389">partition(Closure)</text></g><!--reverse link Countable to ReadableCollection--><g id="link_Countable_ReadableCollection"><path codeLine="64" d="M600.4132,269.2275 C587.6332,301.1675 571.98,340.3256 549.15,397.4056 " fill="none" id="Countable-backto-ReadableCollection" style="stroke:#181818;stroke-width:1.0;"/><polygon fill="none" points="607.1,252.5156,594.8425,266.9985,605.9838,271.4564,607.1,252.5156" style="stroke:#181818;stroke-width:1.0;"/></g><!--reverse link IteratorAggregate to ReadableCollection--><g id="link_IteratorAggregate_ReadableCollection"><path codeLine="65" d="M451.9921,270.4761 C454.1121,302.4161 456.62,340.3256 460.4,397.4056 " fill="none" id="IteratorAggregate-backto-ReadableCollection" style="stroke:#181818;stroke-width:1.0;"/><polygon fill="none" points="450.8,252.5156,446.0053,270.8735,457.9789,270.0787,450.8,252.5156" style="stroke:#181818;stroke-width:1.0;"/></g><!--reverse link ArrayAccess to Collection--><g id="link_ArrayAccess_Collection"><path codeLine="78" d="M179,294.8156 C179,353.8456 179,433.4256 179,503.5356 " fill="none" id="ArrayAccess-backto-Collection" style="stroke:#181818;stroke-width:1.0;"/><polygon fill="none" points="179,276.8156,173,294.8156,185,294.8156,179,276.8156" style="stroke:#181818;stroke-width:1.0;"/></g><!--reverse link ReadableCollection to Collection--><g id="link_ReadableCollection_Collection"><path codeLine="80" d="M334.26,588.7656 C322.73,588.7656 329.2,588.7656 317.67,588.7656 " fill="none" id="ReadableCollection-backto-Collection" style="stroke:#181818;stroke-width:1.0;"/><polygon fill="none" points="352.26,588.7656,334.26,582.7656,334.26,594.7656,352.26,588.7656" style="stroke:#181818;stroke-width:1.0;"/></g><!--SRC=[ZLJVRzCm47xtNt4QU-W4qyGRGcLILtKmCGbf0mIy83Uvf5OTkxETiG3xtpaxwMAd2P2d-Ewxdz_TsQrGEsvu9NMsnHpMFDkMHjSgNsgf3JZ3bIK0AiUOtODXHp1Uugrh98B1p75LIcGRaIDWjNCDLEWsEhUnY3jdnBfsQ1cRMszwpfnmvE4N0_hUQID-QkMuN4XHgefYWiJ21UKbAMx5JuINh_ft2A-qgRXaZsn-rZbjlRBv-lpPwdf-jZv_3PON2AA00bss0M5XzUNZpUBxzUBRrmvtTV5F972LWr0vFbmqNcFH1MCkV_36jkRjV_0ITAgMCdLyh8k2BBq3hmoeknfDqy8CtjN2KCyUgFSG541qe84RpBIKr6oX5KDAfIsJTMJ0RhFhEYcKGrFm365X36yMMORM0hTm5BsFEh3_dhSvhHw4TNRMPNW2SMU6sBVe_WzusmDVmF4zbpMs1llMGDA1eVadPOUHKkmZ6zHyHJ_SQRCeIuCbTnWgFv0czPVeze3PoRZR9Ms5uslPkdjw9MuoBvtj-n6b-DZJT9JhZ1P1uLbFvnCPVRWRvBdtltm2XRY7ua42b9LGn25Az1jqa4k02RloAzcLcbY-nsPslCLcYjJIi_5tFRcmiMiIVVQq9qAdmop6ea8OwsA1vEcRmYOfryOVfbYaQ6tYjvKYmsZy9AhIRSQRWktqBwMsjS4aBqciZ2WglXkHqecapIHcnbpH04eveWXdvKFHynQ7L_bbQCsXcS6yfW8x1HKe58Nc4jw4uvACSZ_0yz-dfoC35b27spE5FjYFP50d1fJd-M0s- -iPCIkHczd9r6KmMEbxZCPm4hDg8mr2Zi1jDzRfYHe1ZdC-EI8Jmz1H4fzdt-PJ6FPtv0mGC8QHgpy0]--></g></svg>