<svg xmlns="http://www.w3.org/2000/svg" xmlns:xlink="http://www.w3.org/1999/xlink" contentStyleType="text/css" height="240px" preserveAspectRatio="none" style="width:407px;height:240px;" version="1.1" viewBox="0 0 407 240" width="407px" zoomAndPan="magnify"><defs/><g><!--cluster rekalogika/collections-contracts--><g id="cluster_rekalogika/collections-contracts"><rect fill="none" height="227" rx="2.5" ry="2.5" style="stroke:#000000;stroke-width:1.5;" width="394" x="7" y="7"/><text fill="#000000" font-family="sans-serif" font-size="18" lengthAdjust="spacing" textLength="286.2598" x="60.8701" y="25.708">rekalogika/collections-contracts</text></g><!--class ReadableRecollection--><g id="elem_ReadableRecollection"><rect codeLine="15" fill="#F1F1F1" height="56.2969" id="ReadableRecollection" rx="2.5" ry="2.5" style="stroke:#181818;stroke-width:0.5;" width="183.2861" x="23.5" y="46"/><ellipse cx="38.5" cy="62" fill="#B4A7E5" rx="11" ry="11" style="stroke:#181818;stroke-width:1.0;"/><path d="M34.4219,57.7656 L34.4219,55.6094 L41.8125,55.6094 L41.8125,57.7656 L39.3438,57.7656 L39.3438,65.8438 L41.8125,65.8438 L41.8125,68 L34.4219,68 L34.4219,65.8438 L36.8906,65.8438 L36.8906,57.7656 L34.4219,57.7656 Z " fill="#000000"/><text fill="#000000" font-family="sans-serif" font-size="14" font-style="italic" lengthAdjust="spacing" textLength="151.2861" x="52.5" y="66.8467">ReadableRecollection</text><line style="stroke:#181818;stroke-width:0.5;" x1="24.5" x2="205.7861" y1="78" y2="78"/><text fill="#000000" font-family="sans-serif" font-size="14" lengthAdjust="spacing" textLength="131.3047" x="29.5" y="94.9951">(methods omitted)</text></g><!--class Recollection--><g id="elem_Recollection"><rect codeLine="19" fill="#F1F1F1" height="56.2969" id="Recollection" rx="2.5" ry="2.5" style="stroke:#181818;stroke-width:0.5;" width="143.3047" x="241.5" y="46"/><ellipse cx="268.1073" cy="62" fill="#B4A7E5" rx="11" ry="11" style="stroke:#181818;stroke-width:1.0;"/><path d="M264.0292,57.7656 L264.0292,55.6094 L271.4198,55.6094 L271.4198,57.7656 L268.951,57.7656 L268.951,65.8438 L271.4198,65.8438 L271.4198,68 L264.0292,68 L264.0292,65.8438 L266.4979,65.8438 L266.4979,57.7656 L264.0292,57.7656 Z " fill="#000000"/><text fill="#000000" font-family="sans-serif" font-size="14" font-style="italic" lengthAdjust="spacing" textLength="85.5107" x="284.6867" y="66.8467">Recollection</text><line style="stroke:#181818;stroke-width:0.5;" x1="242.5" x2="383.8047" y1="78" y2="78"/><text fill="#000000" font-family="sans-serif" font-size="14" lengthAdjust="spacing" textLength="131.3047" x="247.5" y="94.9951">(methods omitted)</text></g><!--class ReadableRepository--><g id="elem_ReadableRepository"><rect codeLine="25" fill="#F1F1F1" height="56.2969" id="ReadableRepository" rx="2.5" ry="2.5" style="stroke:#181818;stroke-width:0.5;" width="172.8477" x="34.5" y="162"/><ellipse cx="49.5" cy="178" fill="#B4A7E5" rx="11" ry="11" style="stroke:#181818;stroke-width:1.0;"/><path d="M45.4219,173.7656 L45.4219,171.6094 L52.8125,171.6094 L52.8125,173.7656 L50.3438,173.7656 L50.3438,181.8438 L52.8125,181.8438 L52.8125,184 L45.4219,184 L45.4219,181.8438 L47.8906,181.8438 L47.8906,173.7656 L45.4219,173.7656 Z " fill="#000000"/><text fill="#000000" font-family="sans-serif" font-size="14" font-style="italic" lengthAdjust="spacing" textLength="140.8477" x="63.5" y="182.8467">ReadableRepository</text><line style="stroke:#181818;stroke-width:0.5;" x1="35.5" x2="206.3477" y1="194" y2="194"/><ellipse cx="45.5" cy="207.6484" fill="#84BE84" rx="3" ry="3" style="stroke:#038048;stroke-width:1.0;"/><text fill="#000000" font-family="sans-serif" font-size="14" lengthAdjust="spacing" textLength="112.3008" x="54.5" y="210.9951">reference($key)</text></g><!--class Repository--><g id="elem_Repository"><rect codeLine="31" fill="#F1F1F1" height="32" id="Repository" rx="2.5" ry="2.5" style="stroke:#181818;stroke-width:0.5;" width="107.0723" x="253.5" y="174"/><ellipse cx="268.5" cy="190" fill="#B4A7E5" rx="11" ry="11" style="stroke:#181818;stroke-width:1.0;"/><path d="M264.4219,185.7656 L264.4219,183.6094 L271.8125,183.6094 L271.8125,185.7656 L269.3438,185.7656 L269.3438,193.8438 L271.8125,193.8438 L271.8125,196 L264.4219,196 L264.4219,193.8438 L266.8906,193.8438 L266.8906,185.7656 L264.4219,185.7656 Z " fill="#000000"/><text fill="#000000" font-family="sans-serif" font-size="14" font-style="italic" lengthAdjust="spacing" textLength="75.0723" x="282.5" y="194.8467">Repository</text></g><!--reverse link ReadableRecollection to Recollection--><g id="link_ReadableRecollection_Recollection"><path codeLine="23" d="M224.65,74 C236.15,74 229.64,74 241.13,74 " fill="none" id="ReadableRecollection-backto-Recollection" style="stroke:#181818;stroke-width:1.0;"/><polygon fill="none" points="206.65,74,224.65,80,224.65,68,206.65,74" style="stroke:#181818;stroke-width:1.0;"/></g><!--reverse link ReadableRecollection to ReadableRepository--><g id="link_ReadableRecollection_ReadableRepository"><path codeLine="29" d="M117.3666,119.9951 C118.3166,138.0351 118.62,143.7 119.57,161.78 " fill="none" id="ReadableRecollection-backto-ReadableRepository" style="stroke:#181818;stroke-width:1.0;"/><polygon fill="none" points="116.42,102.02,111.3749,120.3106,123.3583,119.6796,116.42,102.02" style="stroke:#181818;stroke-width:1.0;"/></g><!--reverse link ReadableRepository to Repository--><g id="link_ReadableRepository_Repository"><path codeLine="34" d="M225.82,190 C240.93,190 238.04,190 253.15,190 " fill="none" id="ReadableRepository-backto-Repository" style="stroke:#181818;stroke-width:1.0;"/><polygon fill="none" points="207.82,190,225.82,196,225.82,184,207.82,190" style="stroke:#181818;stroke-width:1.0;"/></g><!--reverse link Recollection to Repository--><g id="link_Recollection_Repository"><path codeLine="35" d="M310.6323,119.995 C309.4523,142.375 308.77,155.42 307.8,173.73 " fill="none" id="Recollection-backto-Repository" style="stroke:#181818;stroke-width:1.0;"/><polygon fill="none" points="311.58,102.02,304.6406,119.6791,316.6239,120.3109,311.58,102.02" style="stroke:#181818;stroke-width:1.0;"/></g><!--SRC=[bP7DJiCm3CVlVefeuZ24geaRXme98KsSjoTmKxUBciQLunqwwBkJTMKRT4ZWM_B_-3bAR5peKB3rR1igJO6sgONteNnbps9KCCHaeA00ySjikcJ3chRQUp92LZ7Kdc3dIZBKTjgRbdJ7PRo-GbLnnLuf0kJn67q6TPeQti6aUMDn1mwA_iMxEhI9QJnLEehh96pTWSpZq-KyuWDBYnu6o5TJAKphcOLGWvvhr-3AilTfKSSXPZQ51Qt6nOHsGKagj6GsX2KMdZPq2KocuoodTnbkdIgLzwComApb_-cRvFmZ-rO6lwxRSNJAqb_X7eGgIbzdQNdNKFydMdQZSWxz0PjrdlNJ_kUYasjEF1i6-0G0]--></g></svg>