<svg xmlns="http://www.w3.org/2000/svg" xmlns:xlink="http://www.w3.org/1999/xlink" contentStyleType="text/css" height="1308px" preserveAspectRatio="none" style="width:1261px;height:1308px;" version="1.1" viewBox="0 0 1261 1308" width="1261px" zoomAndPan="magnify"><defs/><g><!--cluster php--><g id="cluster_php"><rect fill="none" height="160" rx="2.5" ry="2.5" style="stroke:#000000;stroke-width:1.5;" width="568" x="673" y="7"/><text fill="#000000" font-family="sans-serif" font-size="18" lengthAdjust="spacing" textLength="34.2598" x="939.8701" y="25.708">php</text></g><!--cluster rekalogika/rekapager-contracts--><g id="cluster_rekalogika/rekapager-contracts"><rect fill="none" height="242" rx="2.5" ry="2.5" style="stroke:#000000;stroke-width:1.5;" width="298" x="401" y="330.5"/><text fill="#000000" font-family="sans-serif" font-size="18" lengthAdjust="spacing" textLength="282.8057" x="408.5972" y="349.208">rekalogika/rekapager-contracts</text></g><!--cluster doctrine/collections--><g id="cluster_doctrine/collections"><rect fill="none" height="437" rx="2.5" ry="2.5" style="stroke:#000000;stroke-width:1.5;" width="524" x="723" y="233"/><text fill="#000000" font-family="sans-serif" font-size="18" lengthAdjust="spacing" textLength="176.0801" x="896.96" y="251.708">doctrine/collections</text></g><!--cluster rekalogika/collections-contracts--><g id="cluster_rekalogika/collections-contracts"><rect fill="none" height="571" rx="2.5" ry="2.5" style="stroke:#000000;stroke-width:1.5;" width="1248" x="7" y="731"/><text fill="#000000" font-family="sans-serif" font-size="18" lengthAdjust="spacing" textLength="286.2598" x="487.8701" y="749.708">rekalogika/collections-contracts</text></g><!--cluster recollection--><g id="cluster_recollection"><rect fill="none" height="264" rx="2.5" ry="2.5" style="stroke:#000000;stroke-width:1.5;" width="1200" x="31" y="778"/><text fill="#000000" font-family="sans-serif" font-size="18" lengthAdjust="spacing" textLength="104.8359" x="578.582" y="796.708">recollection</text></g><!--cluster minimal--><g id="cluster_minimal"><rect fill="none" height="176" rx="2.5" ry="2.5" style="stroke:#000000;stroke-width:1.5;" width="477" x="55" y="833.5"/><text fill="#000000" font-family="sans-serif" font-size="18" lengthAdjust="spacing" textLength="72.5098" x="257.2451" y="852.208">minimal</text></g><!--cluster full--><g id="cluster_full"><rect fill="none" height="193" rx="2.5" ry="2.5" style="stroke:#000000;stroke-width:1.5;" width="455" x="752" y="825"/><text fill="#000000" font-family="sans-serif" font-size="18" lengthAdjust="spacing" textLength="27.7471" x="965.6265" y="843.708">full</text></g><!--cluster repository--><g id="cluster_repository"><rect fill="none" height="199" rx="2.5" ry="2.5" style="stroke:#000000;stroke-width:1.5;" width="930" x="157" y="1079"/><text fill="#000000" font-family="sans-serif" font-size="18" lengthAdjust="spacing" textLength="91.415" x="576.2925" y="1097.708">repository</text></g><!--cluster full--><g id="cluster_full"><rect fill="none" height="111" rx="2.5" ry="2.5" style="stroke:#000000;stroke-width:1.5;" width="347" x="716" y="1134.5"/><text fill="#000000" font-family="sans-serif" font-size="18" lengthAdjust="spacing" textLength="27.7471" x="875.6265" y="1153.208">full</text></g><!--cluster minimal--><g id="cluster_minimal"><rect fill="none" height="128" rx="2.5" ry="2.5" style="stroke:#000000;stroke-width:1.5;" width="511" x="181" y="1126"/><text fill="#000000" font-family="sans-serif" font-size="18" lengthAdjust="spacing" textLength="72.5098" x="400.2451" y="1144.708">minimal</text></g><!--class ArrayAccess--><g id="elem_ArrayAccess"><rect codeLine="15" fill="#F1F1F1" height="105.1875" id="ArrayAccess" rx="2.5" ry="2.5" style="stroke:#181818;stroke-width:0.5;" width="204.5068" x="1020.5" y="46"/><ellipse cx="1075.4404" cy="62" fill="#B4A7E5" rx="11" ry="11" style="stroke:#181818;stroke-width:1.0;"/><path d="M1071.3623,57.7656 L1071.3623,55.6094 L1078.7529,55.6094 L1078.7529,57.7656 L1076.2842,57.7656 L1076.2842,65.8438 L1078.7529,65.8438 L1078.7529,68 L1071.3623,68 L1071.3623,65.8438 L1073.8311,65.8438 L1073.8311,57.7656 L1071.3623,57.7656 Z " fill="#000000"/><text fill="#000000" font-family="sans-serif" font-size="14" font-style="italic" lengthAdjust="spacing" textLength="86.126" x="1095.9404" y="66.8467">ArrayAccess</text><line style="stroke:#181818;stroke-width:0.5;" x1="1021.5" x2="1224.0068" y1="78" y2="78"/><ellipse cx="1031.5" cy="91.6484" fill="#84BE84" rx="3" ry="3" style="stroke:#038048;stroke-width:1.0;"/><text fill="#000000" font-family="sans-serif" font-size="14" lengthAdjust="spacing" textLength="140.5674" x="1040.5" y="94.9951">offsetExists($offset)</text><ellipse cx="1031.5" cy="107.9453" fill="#84BE84" rx="3" ry="3" style="stroke:#038048;stroke-width:1.0;"/><text fill="#000000" font-family="sans-serif" font-size="14" lengthAdjust="spacing" textLength="124.4209" x="1040.5" y="111.292">offsetGet($offset)</text><ellipse cx="1031.5" cy="124.2422" fill="#84BE84" rx="3" ry="3" style="stroke:#038048;stroke-width:1.0;"/><text fill="#000000" font-family="sans-serif" font-size="14" lengthAdjust="spacing" textLength="178.5068" x="1040.5" y="127.5889">offsetSet($offset, $value)</text><ellipse cx="1031.5" cy="140.5391" fill="#84BE84" rx="3" ry="3" style="stroke:#038048;stroke-width:1.0;"/><text fill="#000000" font-family="sans-serif" font-size="14" lengthAdjust="spacing" textLength="139.9863" x="1040.5" y="143.8857">offsetUnset($offset)</text></g><!--class Countable--><g id="elem_Countable"><rect codeLine="22" fill="#F1F1F1" height="56.2969" id="Countable" rx="2.5" ry="2.5" style="stroke:#181818;stroke-width:0.5;" width="103.5449" x="689" y="70.5"/><ellipse cx="704" cy="86.5" fill="#B4A7E5" rx="11" ry="11" style="stroke:#181818;stroke-width:1.0;"/><path d="M699.9219,82.2656 L699.9219,80.1094 L707.3125,80.1094 L707.3125,82.2656 L704.8438,82.2656 L704.8438,90.3438 L707.3125,90.3438 L707.3125,92.5 L699.9219,92.5 L699.9219,90.3438 L702.3906,90.3438 L702.3906,82.2656 L699.9219,82.2656 Z " fill="#000000"/><text fill="#000000" font-family="sans-serif" font-size="14" font-style="italic" lengthAdjust="spacing" textLength="71.5449" x="718" y="91.3467">Countable</text><line style="stroke:#181818;stroke-width:0.5;" x1="690" x2="791.5449" y1="102.5" y2="102.5"/><ellipse cx="700" cy="116.1484" fill="#84BE84" rx="3" ry="3" style="stroke:#038048;stroke-width:1.0;"/><text fill="#000000" font-family="sans-serif" font-size="14" lengthAdjust="spacing" textLength="50.4219" x="709" y="119.4951">count()</text></g><!--class IteratorAggregate--><g id="elem_IteratorAggregate"><rect codeLine="26" fill="#F1F1F1" height="56.2969" id="IteratorAggregate" rx="2.5" ry="2.5" style="stroke:#181818;stroke-width:0.5;" width="157.665" x="828" y="70.5"/><ellipse cx="843" cy="86.5" fill="#B4A7E5" rx="11" ry="11" style="stroke:#181818;stroke-width:1.0;"/><path d="M838.9219,82.2656 L838.9219,80.1094 L846.3125,80.1094 L846.3125,82.2656 L843.8438,82.2656 L843.8438,90.3438 L846.3125,90.3438 L846.3125,92.5 L838.9219,92.5 L838.9219,90.3438 L841.3906,90.3438 L841.3906,82.2656 L838.9219,82.2656 Z " fill="#000000"/><text fill="#000000" font-family="sans-serif" font-size="14" font-style="italic" lengthAdjust="spacing" textLength="125.665" x="857" y="91.3467">IteratorAggregate</text><line style="stroke:#181818;stroke-width:0.5;" x1="829" x2="984.665" y1="102.5" y2="102.5"/><ellipse cx="839" cy="116.1484" fill="#84BE84" rx="3" ry="3" style="stroke:#038048;stroke-width:1.0;"/><text fill="#000000" font-family="sans-serif" font-size="14" lengthAdjust="spacing" textLength="86.29" x="848" y="119.4951">getIterator()</text></g><!--class PageableInterface--><g id="elem_PageableInterface"><rect codeLine="32" fill="#F1F1F1" height="186.6719" id="PageableInterface" rx="2.5" ry="2.5" style="stroke:#181818;stroke-width:0.5;" width="190.4453" x="493" y="369.5"/><ellipse cx="522.0744" cy="385.5" fill="#B4A7E5" rx="11" ry="11" style="stroke:#181818;stroke-width:1.0;"/><path d="M517.9962,381.2656 L517.9962,379.1094 L525.3869,379.1094 L525.3869,381.2656 L522.9181,381.2656 L522.9181,389.3438 L525.3869,389.3438 L525.3869,391.5 L517.9962,391.5 L517.9962,389.3438 L520.465,389.3438 L520.465,381.2656 L517.9962,381.2656 Z " fill="#000000"/><text fill="#000000" font-family="sans-serif" font-size="14" font-style="italic" lengthAdjust="spacing" textLength="127.1689" x="539.202" y="390.3467">PageableInterface</text><line style="stroke:#181818;stroke-width:0.5;" x1="494" x2="682.4453" y1="401.5" y2="401.5"/><ellipse cx="504" cy="415.1484" fill="#84BE84" rx="3" ry="3" style="stroke:#038048;stroke-width:1.0;"/><text fill="#000000" font-family="sans-serif" font-size="14" lengthAdjust="spacing" textLength="149.3926" x="513" y="418.4951">getPageByIdentifier()</text><ellipse cx="504" cy="431.4453" fill="#84BE84" rx="3" ry="3" style="stroke:#038048;stroke-width:1.0;"/><text fill="#000000" font-family="sans-serif" font-size="14" lengthAdjust="spacing" textLength="164.4453" x="513" y="434.792">getPageIdentiferClass()</text><ellipse cx="504" cy="447.7422" fill="#84BE84" rx="3" ry="3" style="stroke:#038048;stroke-width:1.0;"/><text fill="#000000" font-family="sans-serif" font-size="14" lengthAdjust="spacing" textLength="98.916" x="513" y="451.0889">getFirstPage()</text><ellipse cx="504" cy="464.0391" fill="#84BE84" rx="3" ry="3" style="stroke:#038048;stroke-width:1.0;"/><text fill="#000000" font-family="sans-serif" font-size="14" lengthAdjust="spacing" textLength="97.5967" x="513" y="467.3857">getLastPage()</text><ellipse cx="504" cy="480.3359" fill="#84BE84" rx="3" ry="3" style="stroke:#038048;stroke-width:1.0;"/><text fill="#000000" font-family="sans-serif" font-size="14" lengthAdjust="spacing" textLength="117.2432" x="513" y="483.6826">getPages($start)</text><ellipse cx="504" cy="496.6328" fill="#84BE84" rx="3" ry="3" style="stroke:#038048;stroke-width:1.0;"/><text fill="#000000" font-family="sans-serif" font-size="14" lengthAdjust="spacing" textLength="130.4092" x="513" y="499.9795">getItemsPerPage()</text><ellipse cx="504" cy="512.9297" fill="#84BE84" rx="3" ry="3" style="stroke:#038048;stroke-width:1.0;"/><text fill="#000000" font-family="sans-serif" font-size="14" lengthAdjust="spacing" textLength="137.1221" x="513" y="516.2764">withItemsPerPage()</text><ellipse cx="504" cy="529.2266" fill="#84BE84" rx="3" ry="3" style="stroke:#038048;stroke-width:1.0;"/><text fill="#000000" font-family="sans-serif" font-size="14" lengthAdjust="spacing" textLength="110.8037" x="513" y="532.5732">getTotalPages()</text><ellipse cx="504" cy="545.5234" fill="#84BE84" rx="3" ry="3" style="stroke:#038048;stroke-width:1.0;"/><text fill="#000000" font-family="sans-serif" font-size="14" lengthAdjust="spacing" textLength="108.1514" x="513" y="548.8701">getTotalItems()</text></g><!--class ReadableCollection--><g id="elem_ReadableCollection"><rect codeLine="46" fill="#F1F1F1" height="382.2344" id="ReadableCollection" rx="2.5" ry="2.5" style="stroke:#181818;stroke-width:0.5;" width="240.5938" x="739.5" y="272"/><ellipse cx="788.0352" cy="288" fill="#B4A7E5" rx="11" ry="11" style="stroke:#181818;stroke-width:1.0;"/><path d="M783.957,283.7656 L783.957,281.6094 L791.3477,281.6094 L791.3477,283.7656 L788.8789,283.7656 L788.8789,291.8438 L791.3477,291.8438 L791.3477,294 L783.957,294 L783.957,291.8438 L786.4258,291.8438 L786.4258,283.7656 L783.957,283.7656 Z " fill="#000000"/><text fill="#000000" font-family="sans-serif" font-size="14" font-style="italic" lengthAdjust="spacing" textLength="135.0234" x="808.5352" y="292.8467">ReadableCollection</text><line style="stroke:#181818;stroke-width:0.5;" x1="740.5" x2="979.0938" y1="304" y2="304"/><ellipse cx="750.5" cy="317.6484" fill="#84BE84" rx="3" ry="3" style="stroke:#038048;stroke-width:1.0;"/><text fill="#000000" font-family="sans-serif" font-size="14" lengthAdjust="spacing" textLength="136.8213" x="759.5" y="320.9951">contains($element)</text><ellipse cx="750.5" cy="333.9453" fill="#84BE84" rx="3" ry="3" style="stroke:#038048;stroke-width:1.0;"/><text fill="#000000" font-family="sans-serif" font-size="14" lengthAdjust="spacing" textLength="67.252" x="759.5" y="337.292">isEmpty()</text><ellipse cx="750.5" cy="350.2422" fill="#84BE84" rx="3" ry="3" style="stroke:#038048;stroke-width:1.0;"/><text fill="#000000" font-family="sans-serif" font-size="14" lengthAdjust="spacing" textLength="130.1768" x="759.5" y="353.5889">containsKey($key)</text><ellipse cx="750.5" cy="366.5391" fill="#84BE84" rx="3" ry="3" style="stroke:#038048;stroke-width:1.0;"/><text fill="#000000" font-family="sans-serif" font-size="14" lengthAdjust="spacing" textLength="67.8262" x="759.5" y="369.8857">get($key)</text><ellipse cx="750.5" cy="382.8359" fill="#84BE84" rx="3" ry="3" style="stroke:#038048;stroke-width:1.0;"/><text fill="#000000" font-family="sans-serif" font-size="14" lengthAdjust="spacing" textLength="67.2861" x="759.5" y="386.1826">getKeys()</text><ellipse cx="750.5" cy="399.1328" fill="#84BE84" rx="3" ry="3" style="stroke:#038048;stroke-width:1.0;"/><text fill="#000000" font-family="sans-serif" font-size="14" lengthAdjust="spacing" textLength="80.7393" x="759.5" y="402.4795">getValues()</text><ellipse cx="750.5" cy="415.4297" fill="#84BE84" rx="3" ry="3" style="stroke:#038048;stroke-width:1.0;"/><text fill="#000000" font-family="sans-serif" font-size="14" lengthAdjust="spacing" textLength="62.9316" x="759.5" y="418.7764">toArray()</text><ellipse cx="750.5" cy="431.7266" fill="#84BE84" rx="3" ry="3" style="stroke:#038048;stroke-width:1.0;"/><text fill="#000000" font-family="sans-serif" font-size="14" lengthAdjust="spacing" textLength="38.2813" x="759.5" y="435.0732">first()</text><ellipse cx="750.5" cy="448.0234" fill="#84BE84" rx="3" ry="3" style="stroke:#038048;stroke-width:1.0;"/><text fill="#000000" font-family="sans-serif" font-size="14" lengthAdjust="spacing" textLength="36.1758" x="759.5" y="451.3701">last()</text><ellipse cx="750.5" cy="464.3203" fill="#84BE84" rx="3" ry="3" style="stroke:#038048;stroke-width:1.0;"/><text fill="#000000" font-family="sans-serif" font-size="14" lengthAdjust="spacing" textLength="35.9297" x="759.5" y="467.667">key()</text><ellipse cx="750.5" cy="480.6172" fill="#84BE84" rx="3" ry="3" style="stroke:#038048;stroke-width:1.0;"/><text fill="#000000" font-family="sans-serif" font-size="14" lengthAdjust="spacing" textLength="61.9814" x="759.5" y="483.9639">current()</text><ellipse cx="750.5" cy="496.9141" fill="#84BE84" rx="3" ry="3" style="stroke:#038048;stroke-width:1.0;"/><text fill="#000000" font-family="sans-serif" font-size="14" lengthAdjust="spacing" textLength="42.1846" x="759.5" y="500.2607">next()</text><ellipse cx="750.5" cy="513.2109" fill="#84BE84" rx="3" ry="3" style="stroke:#038048;stroke-width:1.0;"/><text fill="#000000" font-family="sans-serif" font-size="14" lengthAdjust="spacing" textLength="153.4668" x="759.5" y="516.5576">slice($offset, $length)</text><ellipse cx="750.5" cy="529.5078" fill="#84BE84" rx="3" ry="3" style="stroke:#038048;stroke-width:1.0;"/><text fill="#000000" font-family="sans-serif" font-size="14" lengthAdjust="spacing" textLength="104.5557" x="759.5" y="532.8545">exists(Closure)</text><ellipse cx="750.5" cy="545.8047" fill="#84BE84" rx="3" ry="3" style="stroke:#038048;stroke-width:1.0;"/><text fill="#000000" font-family="sans-serif" font-size="14" lengthAdjust="spacing" textLength="96.2568" x="759.5" y="549.1514">filter(Closure)</text><ellipse cx="750.5" cy="562.1016" fill="#84BE84" rx="3" ry="3" style="stroke:#038048;stroke-width:1.0;"/><text fill="#000000" font-family="sans-serif" font-size="14" lengthAdjust="spacing" textLength="94.7939" x="759.5" y="565.4482">map(Closure)</text><ellipse cx="750.5" cy="578.3984" fill="#84BE84" rx="3" ry="3" style="stroke:#038048;stroke-width:1.0;"/><text fill="#000000" font-family="sans-serif" font-size="14" lengthAdjust="spacing" textLength="123.1084" x="759.5" y="581.7451">partition(Closure)</text><ellipse cx="750.5" cy="594.6953" fill="#84BE84" rx="3" ry="3" style="stroke:#038048;stroke-width:1.0;"/><text fill="#000000" font-family="sans-serif" font-size="14" lengthAdjust="spacing" textLength="100.2969" x="759.5" y="598.042">forAll(Closure)</text><ellipse cx="750.5" cy="610.9922" fill="#84BE84" rx="3" ry="3" style="stroke:#038048;stroke-width:1.0;"/><text fill="#000000" font-family="sans-serif" font-size="14" lengthAdjust="spacing" textLength="132.0566" x="759.5" y="614.3389">indexOf($element)</text><ellipse cx="750.5" cy="627.2891" fill="#84BE84" rx="3" ry="3" style="stroke:#038048;stroke-width:1.0;"/><text fill="#000000" font-family="sans-serif" font-size="14" lengthAdjust="spacing" textLength="120.75" x="759.5" y="630.6357">findFirst(Closure)</text><ellipse cx="750.5" cy="643.5859" fill="#84BE84" rx="3" ry="3" style="stroke:#038048;stroke-width:1.0;"/><text fill="#000000" font-family="sans-serif" font-size="14" lengthAdjust="spacing" textLength="214.5938" x="759.5" y="646.9326">reduce(Closure, $initial = null)</text></g><!--class Collection--><g id="elem_Collection"><rect codeLine="73" fill="#F1F1F1" height="170.375" id="Collection" rx="2.5" ry="2.5" style="stroke:#181818;stroke-width:0.5;" width="214.9932" x="1015.5" y="378"/><ellipse cx="1084.1226" cy="394" fill="#B4A7E5" rx="11" ry="11" style="stroke:#181818;stroke-width:1.0;"/><path d="M1080.0444,389.7656 L1080.0444,387.6094 L1087.4351,387.6094 L1087.4351,389.7656 L1084.9663,389.7656 L1084.9663,397.8438 L1087.4351,397.8438 L1087.4351,400 L1080.0444,400 L1080.0444,397.8438 L1082.5132,397.8438 L1082.5132,389.7656 L1080.0444,389.7656 Z " fill="#000000"/><text fill="#000000" font-family="sans-serif" font-size="14" font-style="italic" lengthAdjust="spacing" textLength="69.248" x="1104.6226" y="398.8467">Collection</text><line style="stroke:#181818;stroke-width:0.5;" x1="1016.5" x2="1229.4932" y1="410" y2="410"/><ellipse cx="1026.5" cy="423.6484" fill="#84BE84" rx="3" ry="3" style="stroke:#038048;stroke-width:1.0;"/><text fill="#000000" font-family="sans-serif" font-size="14" lengthAdjust="spacing" textLength="103.9131" x="1035.5" y="426.9951">add($element)</text><ellipse cx="1026.5" cy="439.9453" fill="#84BE84" rx="3" ry="3" style="stroke:#038048;stroke-width:1.0;"/><text fill="#000000" font-family="sans-serif" font-size="14" lengthAdjust="spacing" textLength="45.459" x="1035.5" y="443.292">clear()</text><ellipse cx="1026.5" cy="456.2422" fill="#84BE84" rx="3" ry="3" style="stroke:#038048;stroke-width:1.0;"/><text fill="#000000" font-family="sans-serif" font-size="14" lengthAdjust="spacing" textLength="98.3076" x="1035.5" y="459.5889">remove($key)</text><ellipse cx="1026.5" cy="472.5391" fill="#84BE84" rx="3" ry="3" style="stroke:#038048;stroke-width:1.0;"/><text fill="#000000" font-family="sans-serif" font-size="14" lengthAdjust="spacing" textLength="188.9932" x="1035.5" y="475.8857">removeElement($element)</text><ellipse cx="1026.5" cy="488.8359" fill="#84BE84" rx="3" ry="3" style="stroke:#038048;stroke-width:1.0;"/><text fill="#000000" font-family="sans-serif" font-size="14" lengthAdjust="spacing" textLength="122.2813" x="1035.5" y="492.1826">set($key, $value)</text><ellipse cx="1026.5" cy="505.1328" fill="#84BE84" rx="3" ry="3" style="stroke:#038048;stroke-width:1.0;"/><text fill="#000000" font-family="sans-serif" font-size="14" lengthAdjust="spacing" textLength="94.7939" x="1035.5" y="508.4795">map(Closure)</text><ellipse cx="1026.5" cy="521.4297" fill="#84BE84" rx="3" ry="3" style="stroke:#038048;stroke-width:1.0;"/><text fill="#000000" font-family="sans-serif" font-size="14" lengthAdjust="spacing" textLength="96.2568" x="1035.5" y="524.7764">filter(Closure)</text><ellipse cx="1026.5" cy="537.7266" fill="#84BE84" rx="3" ry="3" style="stroke:#038048;stroke-width:1.0;"/><text fill="#000000" font-family="sans-serif" font-size="14" lengthAdjust="spacing" textLength="123.1084" x="1035.5" y="541.0732">partition(Closure)</text></g><!--class PageableRecollection--><g id="elem_PageableRecollection"><rect codeLine="92" fill="#F1F1F1" height="56.2969" id="PageableRecollection" rx="2.5" ry="2.5" style="stroke:#181818;stroke-width:0.5;" width="182.001" x="551" y="905"/><ellipse cx="566" cy="921" fill="#B4A7E5" rx="11" ry="11" style="stroke:#181818;stroke-width:1.0;"/><path d="M561.9219,916.7656 L561.9219,914.6094 L569.3125,914.6094 L569.3125,916.7656 L566.8438,916.7656 L566.8438,924.8438 L569.3125,924.8438 L569.3125,927 L561.9219,927 L561.9219,924.8438 L564.3906,924.8438 L564.3906,916.7656 L561.9219,916.7656 Z " fill="#000000"/><text fill="#000000" font-family="sans-serif" font-size="14" font-style="italic" lengthAdjust="spacing" textLength="150.001" x="580" y="925.8467">PageableRecollection</text><line style="stroke:#181818;stroke-width:0.5;" x1="552" x2="732.001" y1="937" y2="937"/><ellipse cx="562" cy="950.6484" fill="#84BE84" rx="3" ry="3" style="stroke:#038048;stroke-width:1.0;"/><text fill="#000000" font-family="sans-serif" font-size="14" lengthAdjust="spacing" textLength="102.334" x="571" y="953.9951">refreshCount()</text></g><!--class MinimalReadableRecollection--><g id="elem_MinimalReadableRecollection"><rect codeLine="97" fill="#F1F1F1" height="121.4844" id="MinimalReadableRecollection" rx="2.5" ry="2.5" style="stroke:#181818;stroke-width:0.5;" width="238.124" x="71" y="872.5"/><ellipse cx="86" cy="888.5" fill="#B4A7E5" rx="11" ry="11" style="stroke:#181818;stroke-width:1.0;"/><path d="M81.9219,884.2656 L81.9219,882.1094 L89.3125,882.1094 L89.3125,884.2656 L86.8438,884.2656 L86.8438,892.3438 L89.3125,892.3438 L89.3125,894.5 L81.9219,894.5 L81.9219,892.3438 L84.3906,892.3438 L84.3906,884.2656 L81.9219,884.2656 Z " fill="#000000"/><text fill="#000000" font-family="sans-serif" font-size="14" font-style="italic" lengthAdjust="spacing" textLength="206.124" x="100" y="893.3467">MinimalReadableRecollection</text><line style="stroke:#181818;stroke-width:0.5;" x1="72" x2="308.124" y1="904.5" y2="904.5"/><ellipse cx="82" cy="918.1484" fill="#84BE84" rx="3" ry="3" style="stroke:#038048;stroke-width:1.0;"/><text fill="#000000" font-family="sans-serif" font-size="14" lengthAdjust="spacing" textLength="136.8213" x="91" y="921.4951">contains($element)</text><ellipse cx="82" cy="934.4453" fill="#84BE84" rx="3" ry="3" style="stroke:#038048;stroke-width:1.0;"/><text fill="#000000" font-family="sans-serif" font-size="14" lengthAdjust="spacing" textLength="130.1768" x="91" y="937.792">containsKey($key)</text><ellipse cx="82" cy="950.7422" fill="#84BE84" rx="3" ry="3" style="stroke:#038048;stroke-width:1.0;"/><text fill="#000000" font-family="sans-serif" font-size="14" lengthAdjust="spacing" textLength="67.8262" x="91" y="954.0889">get($key)</text><ellipse cx="82" cy="967.0391" fill="#84BE84" rx="3" ry="3" style="stroke:#038048;stroke-width:1.0;"/><text fill="#000000" font-family="sans-serif" font-size="14" lengthAdjust="spacing" textLength="80.4385" x="91" y="970.3857">fetch($key)</text><ellipse cx="82" cy="983.3359" fill="#84BE84" rx="3" ry="3" style="stroke:#038048;stroke-width:1.0;"/><text fill="#000000" font-family="sans-serif" font-size="14" lengthAdjust="spacing" textLength="102.334" x="91" y="986.6826">refreshCount()</text></g><!--class MinimalRecollection--><g id="elem_MinimalRecollection"><rect codeLine="107" fill="#F1F1F1" height="56.2969" id="MinimalRecollection" rx="2.5" ry="2.5" style="stroke:#181818;stroke-width:0.5;" width="172.3486" x="344" y="905"/><ellipse cx="359" cy="921" fill="#B4A7E5" rx="11" ry="11" style="stroke:#181818;stroke-width:1.0;"/><path d="M354.9219,916.7656 L354.9219,914.6094 L362.3125,914.6094 L362.3125,916.7656 L359.8438,916.7656 L359.8438,924.8438 L362.3125,924.8438 L362.3125,927 L354.9219,927 L354.9219,924.8438 L357.3906,924.8438 L357.3906,916.7656 L354.9219,916.7656 Z " fill="#000000"/><text fill="#000000" font-family="sans-serif" font-size="14" font-style="italic" lengthAdjust="spacing" textLength="140.3486" x="373" y="925.8467">MinimalRecollection</text><line style="stroke:#181818;stroke-width:0.5;" x1="345" x2="515.3486" y1="937" y2="937"/><ellipse cx="355" cy="950.6484" fill="#84BE84" rx="3" ry="3" style="stroke:#038048;stroke-width:1.0;"/><text fill="#000000" font-family="sans-serif" font-size="14" lengthAdjust="spacing" textLength="103.9131" x="364" y="953.9951">add($element)</text></g><!--class ReadableRecollection--><g id="elem_ReadableRecollection"><rect codeLine="115" fill="#F1F1F1" height="105.1875" id="ReadableRecollection" rx="2.5" ry="2.5" style="stroke:#181818;stroke-width:0.5;" width="183.2861" x="768.5" y="880.5"/><ellipse cx="783.5" cy="896.5" fill="#B4A7E5" rx="11" ry="11" style="stroke:#181818;stroke-width:1.0;"/><path d="M779.4219,892.2656 L779.4219,890.1094 L786.8125,890.1094 L786.8125,892.2656 L784.3438,892.2656 L784.3438,900.3438 L786.8125,900.3438 L786.8125,902.5 L779.4219,902.5 L779.4219,900.3438 L781.8906,900.3438 L781.8906,892.2656 L779.4219,892.2656 Z " fill="#000000"/><text fill="#000000" font-family="sans-serif" font-size="14" font-style="italic" lengthAdjust="spacing" textLength="151.2861" x="797.5" y="901.3467">ReadableRecollection</text><line style="stroke:#181818;stroke-width:0.5;" x1="769.5" x2="950.7861" y1="912.5" y2="912.5"/><ellipse cx="779.5" cy="926.1484" fill="#84BE84" rx="3" ry="3" style="stroke:#038048;stroke-width:1.0;"/><text fill="#000000" font-family="sans-serif" font-size="14" lengthAdjust="spacing" textLength="130.1768" x="788.5" y="929.4951">containsKey($key)</text><ellipse cx="779.5" cy="942.4453" fill="#84BE84" rx="3" ry="3" style="stroke:#038048;stroke-width:1.0;"/><text fill="#000000" font-family="sans-serif" font-size="14" lengthAdjust="spacing" textLength="67.8262" x="788.5" y="945.792">get($key)</text><ellipse cx="779.5" cy="958.7422" fill="#84BE84" rx="3" ry="3" style="stroke:#038048;stroke-width:1.0;"/><text fill="#000000" font-family="sans-serif" font-size="14" lengthAdjust="spacing" textLength="80.4385" x="788.5" y="962.0889">fetch($key)</text><ellipse cx="779.5" cy="975.0391" fill="#84BE84" rx="3" ry="3" style="stroke:#038048;stroke-width:1.0;"/><text fill="#000000" font-family="sans-serif" font-size="14" lengthAdjust="spacing" textLength="102.334" x="788.5" y="978.3857">refreshCount()</text></g><!--class Recollection--><g id="elem_Recollection"><rect codeLine="125" fill="#F1F1F1" height="137.7813" id="Recollection" rx="2.5" ry="2.5" style="stroke:#181818;stroke-width:0.5;" width="204.5068" x="986.5" y="864"/><ellipse cx="1041.748" cy="880" fill="#B4A7E5" rx="11" ry="11" style="stroke:#181818;stroke-width:1.0;"/><path d="M1037.6699,875.7656 L1037.6699,873.6094 L1045.0605,873.6094 L1045.0605,875.7656 L1042.5918,875.7656 L1042.5918,883.8438 L1045.0605,883.8438 L1045.0605,886 L1037.6699,886 L1037.6699,883.8438 L1040.1387,883.8438 L1040.1387,875.7656 L1037.6699,875.7656 Z " fill="#000000"/><text fill="#000000" font-family="sans-serif" font-size="14" font-style="italic" lengthAdjust="spacing" textLength="85.5107" x="1062.248" y="884.8467">Recollection</text><line style="stroke:#181818;stroke-width:0.5;" x1="987.5" x2="1190.0068" y1="896" y2="896"/><ellipse cx="997.5" cy="909.6484" fill="#84BE84" rx="3" ry="3" style="stroke:#038048;stroke-width:1.0;"/><text fill="#000000" font-family="sans-serif" font-size="14" lengthAdjust="spacing" textLength="98.3076" x="1006.5" y="912.9951">remove($key)</text><ellipse cx="997.5" cy="925.9453" fill="#84BE84" rx="3" ry="3" style="stroke:#038048;stroke-width:1.0;"/><text fill="#000000" font-family="sans-serif" font-size="14" lengthAdjust="spacing" textLength="122.2813" x="1006.5" y="929.292">set($key, $value)</text><ellipse cx="997.5" cy="942.2422" fill="#84BE84" rx="3" ry="3" style="stroke:#038048;stroke-width:1.0;"/><text fill="#000000" font-family="sans-serif" font-size="14" lengthAdjust="spacing" textLength="140.5674" x="1006.5" y="945.5889">offsetExists($offset)</text><ellipse cx="997.5" cy="958.5391" fill="#84BE84" rx="3" ry="3" style="stroke:#038048;stroke-width:1.0;"/><text fill="#000000" font-family="sans-serif" font-size="14" lengthAdjust="spacing" textLength="124.4209" x="1006.5" y="961.8857">offsetGet($offset)</text><ellipse cx="997.5" cy="974.8359" fill="#84BE84" rx="3" ry="3" style="stroke:#038048;stroke-width:1.0;"/><text fill="#000000" font-family="sans-serif" font-size="14" lengthAdjust="spacing" textLength="178.5068" x="1006.5" y="978.1826">offsetSet($offset, $value)</text><ellipse cx="997.5" cy="991.1328" fill="#84BE84" rx="3" ry="3" style="stroke:#038048;stroke-width:1.0;"/><text fill="#000000" font-family="sans-serif" font-size="14" lengthAdjust="spacing" textLength="139.9863" x="1006.5" y="994.4795">offsetUnset($offset)</text></g><!--class ReadableRepository--><g id="elem_ReadableRepository"><rect codeLine="143" fill="#F1F1F1" height="56.2969" id="ReadableRepository" rx="2.5" ry="2.5" style="stroke:#181818;stroke-width:0.5;" width="172.8477" x="732.5" y="1173.5"/><ellipse cx="747.5" cy="1189.5" fill="#B4A7E5" rx="11" ry="11" style="stroke:#181818;stroke-width:1.0;"/><path d="M743.4219,1185.2656 L743.4219,1183.1094 L750.8125,1183.1094 L750.8125,1185.2656 L748.3438,1185.2656 L748.3438,1193.3438 L750.8125,1193.3438 L750.8125,1195.5 L743.4219,1195.5 L743.4219,1193.3438 L745.8906,1193.3438 L745.8906,1185.2656 L743.4219,1185.2656 Z " fill="#000000"/><text fill="#000000" font-family="sans-serif" font-size="14" font-style="italic" lengthAdjust="spacing" textLength="140.8477" x="761.5" y="1194.3467">ReadableRepository</text><line style="stroke:#181818;stroke-width:0.5;" x1="733.5" x2="904.3477" y1="1205.5" y2="1205.5"/><ellipse cx="743.5" cy="1219.1484" fill="#84BE84" rx="3" ry="3" style="stroke:#038048;stroke-width:1.0;"/><text fill="#000000" font-family="sans-serif" font-size="14" lengthAdjust="spacing" textLength="112.3008" x="752.5" y="1222.4951">reference($key)</text></g><!--class Repository--><g id="elem_Repository"><rect codeLine="149" fill="#F1F1F1" height="32" id="Repository" rx="2.5" ry="2.5" style="stroke:#181818;stroke-width:0.5;" width="107.0723" x="940.5" y="1185.5"/><ellipse cx="955.5" cy="1201.5" fill="#B4A7E5" rx="11" ry="11" style="stroke:#181818;stroke-width:1.0;"/><path d="M951.4219,1197.2656 L951.4219,1195.1094 L958.8125,1195.1094 L958.8125,1197.2656 L956.3438,1197.2656 L956.3438,1205.3438 L958.8125,1205.3438 L958.8125,1207.5 L951.4219,1207.5 L951.4219,1205.3438 L953.8906,1205.3438 L953.8906,1197.2656 L951.4219,1197.2656 Z " fill="#000000"/><text fill="#000000" font-family="sans-serif" font-size="14" font-style="italic" lengthAdjust="spacing" textLength="75.0723" x="969.5" y="1206.3467">Repository</text></g><!--class MinimalReadableRepository--><g id="elem_MinimalReadableRepository"><rect codeLine="157" fill="#F1F1F1" height="56.2969" id="MinimalReadableRepository" rx="2.5" ry="2.5" style="stroke:#181818;stroke-width:0.5;" width="227.6855" x="197" y="1173.5"/><ellipse cx="212" cy="1189.5" fill="#B4A7E5" rx="11" ry="11" style="stroke:#181818;stroke-width:1.0;"/><path d="M207.9219,1185.2656 L207.9219,1183.1094 L215.3125,1183.1094 L215.3125,1185.2656 L212.8438,1185.2656 L212.8438,1193.3438 L215.3125,1193.3438 L215.3125,1195.5 L207.9219,1195.5 L207.9219,1193.3438 L210.3906,1193.3438 L210.3906,1185.2656 L207.9219,1185.2656 Z " fill="#000000"/><text fill="#000000" font-family="sans-serif" font-size="14" font-style="italic" lengthAdjust="spacing" textLength="195.6855" x="226" y="1194.3467">MinimalReadableRepository</text><line style="stroke:#181818;stroke-width:0.5;" x1="198" x2="423.6855" y1="1205.5" y2="1205.5"/><ellipse cx="208" cy="1219.1484" fill="#84BE84" rx="3" ry="3" style="stroke:#038048;stroke-width:1.0;"/><text fill="#000000" font-family="sans-serif" font-size="14" lengthAdjust="spacing" textLength="112.3008" x="217" y="1222.4951">reference($key)</text></g><!--class MinimalRepository--><g id="elem_MinimalRepository"><rect codeLine="163" fill="#F1F1F1" height="72.5938" id="MinimalRepository" rx="2.5" ry="2.5" style="stroke:#181818;stroke-width:0.5;" width="214.9932" x="460.5" y="1165"/><ellipse cx="499.3874" cy="1181" fill="#B4A7E5" rx="11" ry="11" style="stroke:#181818;stroke-width:1.0;"/><path d="M495.3092,1176.7656 L495.3092,1174.6094 L502.6999,1174.6094 L502.6999,1176.7656 L500.2311,1176.7656 L500.2311,1184.8438 L502.6999,1184.8438 L502.6999,1187 L495.3092,1187 L495.3092,1184.8438 L497.778,1184.8438 L497.778,1176.7656 L495.3092,1176.7656 Z " fill="#000000"/><text fill="#000000" font-family="sans-serif" font-size="14" font-style="italic" lengthAdjust="spacing" textLength="129.9102" x="518.6957" y="1185.8467">MinimalRepository</text><line style="stroke:#181818;stroke-width:0.5;" x1="461.5" x2="674.4932" y1="1197" y2="1197"/><ellipse cx="471.5" cy="1210.6484" fill="#84BE84" rx="3" ry="3" style="stroke:#038048;stroke-width:1.0;"/><text fill="#000000" font-family="sans-serif" font-size="14" lengthAdjust="spacing" textLength="98.3076" x="480.5" y="1213.9951">remove($key)</text><ellipse cx="471.5" cy="1226.9453" fill="#84BE84" rx="3" ry="3" style="stroke:#038048;stroke-width:1.0;"/><text fill="#000000" font-family="sans-serif" font-size="14" lengthAdjust="spacing" textLength="188.9932" x="480.5" y="1230.292">removeElement($element)</text></g><!--reverse link Countable to ReadableCollection--><g id="link_Countable_ReadableCollection"><path codeLine="70" d="M755.5566,143.8513 C766.0466,175.7913 778.77,214.56 797.51,271.64 " fill="none" id="Countable-backto-ReadableCollection" style="stroke:#181818;stroke-width:1.0;"/><polygon fill="none" points="749.94,126.75,749.8561,145.7235,761.257,141.9791,749.94,126.75" style="stroke:#181818;stroke-width:1.0;"/></g><!--reverse link IteratorAggregate to ReadableCollection--><g id="link_IteratorAggregate_ReadableCollection"><path codeLine="71" d="M901.1562,144.6007 C897.0162,176.5407 892.08,214.56 884.68,271.64 " fill="none" id="IteratorAggregate-backto-ReadableCollection" style="stroke:#181818;stroke-width:1.0;"/><polygon fill="none" points="903.47,126.75,895.206,143.8294,907.1065,145.3719,903.47,126.75" style="stroke:#181818;stroke-width:1.0;"/></g><!--reverse link ArrayAccess to Collection--><g id="link_ArrayAccess_Collection"><path codeLine="84" d="M1123,169.05 C1123,228.08 1123,307.66 1123,377.77 " fill="none" id="ArrayAccess-backto-Collection" style="stroke:#181818;stroke-width:1.0;"/><polygon fill="none" points="1123,151.05,1117,169.05,1129,169.05,1123,151.05" style="stroke:#181818;stroke-width:1.0;"/></g><!--reverse link ReadableCollection to Collection--><g id="link_ReadableCollection_Collection"><path codeLine="86" d="M998.71,463 C1010.29,463 1003.87,463 1015.45,463 " fill="none" id="ReadableCollection-backto-Collection" style="stroke:#181818;stroke-width:1.0;"/><polygon fill="none" points="980.71,463,998.71,469,998.71,457,980.71,463" style="stroke:#181818;stroke-width:1.0;"/></g><!--reverse link PageableInterface to MinimalReadableRecollection--><g id="link_PageableInterface_MinimalReadableRecollection"><path codeLine="105" d="M479.7413,561.5241 C428.0013,610.0541 377.57,661.07 327,723 C288.31,770.38 250.68,828.97 224.68,872.05 " fill="none" id="PageableInterface-backto-MinimalReadableRecollection" style="stroke:#181818;stroke-width:1.0;"/><polygon fill="none" points="492.87,549.21,475.6366,557.1479,483.8461,565.9004,492.87,549.21" style="stroke:#181818;stroke-width:1.0;"/></g><!--reverse link MinimalReadableRecollection to MinimalRecollection--><g id="link_MinimalReadableRecollection_MinimalRecollection"><path codeLine="111" d="M327.06,933 C338.56,933 332.05,933 343.55,933 " fill="none" id="MinimalReadableRecollection-backto-MinimalRecollection" style="stroke:#181818;stroke-width:1.0;"/><polygon fill="none" points="309.06,933,327.06,939,327.06,927,309.06,933" style="stroke:#181818;stroke-width:1.0;"/></g><!--reverse link PageableInterface to ReadableRecollection--><g id="link_PageableInterface_ReadableRecollection"><path codeLine="122" d="M650.5332,571.9891 C674.0332,610.6291 693.63,639.91 723,678 C739.71,699.66 749.81,700.25 765,723 C798.31,772.88 825.29,836.35 841.87,880.19 " fill="none" id="PageableInterface-backto-ReadableRecollection" style="stroke:#181818;stroke-width:1.0;"/><polygon fill="none" points="641.18,556.61,645.4069,575.1069,655.6596,568.8714,641.18,556.61" style="stroke:#181818;stroke-width:1.0;"/></g><!--reverse link ReadableCollection to ReadableRecollection--><g id="link_ReadableCollection_ReadableRecollection"><path codeLine="123" d="M860,672.02 C860,754.06 860,825.59 860,880.27 " fill="none" id="ReadableCollection-backto-ReadableRecollection" style="stroke:#181818;stroke-width:1.0;"/><polygon fill="none" points="860,654.02,854,672.02,866,672.02,860,654.02" style="stroke:#181818;stroke-width:1.0;"/></g><!--reverse link ReadableRecollection to Recollection--><g id="link_ReadableRecollection_Recollection"><path codeLine="134" d="M969.69,933 C981.22,933 974.75,933 986.29,933 " fill="none" id="ReadableRecollection-backto-Recollection" style="stroke:#181818;stroke-width:1.0;"/><polygon fill="none" points="951.69,933,969.69,939,969.69,927,951.69,933" style="stroke:#181818;stroke-width:1.0;"/></g><!--reverse link Collection to Recollection--><g id="link_Collection_Recollection"><path codeLine="135" d="M1115.5752,566.1626 C1109.0152,656.4226 1100.04,780.04 1093.96,863.66 " fill="none" id="Collection-backto-Recollection" style="stroke:#181818;stroke-width:1.0;"/><polygon fill="none" points="1116.88,548.21,1109.591,565.7277,1121.5594,566.5976,1116.88,548.21" style="stroke:#181818;stroke-width:1.0;"/></g><!--reverse link PageableInterface to PageableRecollection--><g id="link_PageableInterface_PageableRecollection"><path codeLine="138" d="M600.7641,574.6213 C613.2841,683.0813 631.19,838.35 638.86,904.81 " fill="none" id="PageableInterface-backto-PageableRecollection" style="stroke:#181818;stroke-width:1.0;"/><polygon fill="none" points="598.7,556.74,594.8037,575.3093,606.7245,573.9332,598.7,556.74" style="stroke:#181818;stroke-width:1.0;"/></g><!--reverse link ReadableRecollection to ReadableRepository--><g id="link_ReadableRecollection_ReadableRepository"><path codeLine="147" d="M849.313,1003.4907 C840.673,1059.6507 829.94,1129.41 823.17,1173.38 " fill="none" id="ReadableRecollection-backto-ReadableRepository" style="stroke:#181818;stroke-width:1.0;"/><polygon fill="none" points="852.05,985.7,843.3827,1002.5783,855.2432,1004.403,852.05,985.7" style="stroke:#181818;stroke-width:1.0;"/></g><!--reverse link ReadableRepository to Repository--><g id="link_ReadableRepository_Repository"><path codeLine="152" d="M923.82,1201.5 C935.3,1201.5 928.78,1201.5 940.26,1201.5 " fill="none" id="ReadableRepository-backto-Repository" style="stroke:#181818;stroke-width:1.0;"/><polygon fill="none" points="905.82,1201.5,923.82,1207.5,923.82,1195.5,905.82,1201.5" style="stroke:#181818;stroke-width:1.0;"/></g><!--reverse link Recollection to Repository--><g id="link_Recollection_Repository"><path codeLine="153" d="M1058.6155,1019.2348 C1036.5655,1081.0848 1011.76,1150.69 999.41,1185.31 " fill="none" id="Recollection-backto-Repository" style="stroke:#181818;stroke-width:1.0;"/><polygon fill="none" points="1064.66,1002.28,1052.9639,1017.2199,1064.2671,1021.2496,1064.66,1002.28" style="stroke:#181818;stroke-width:1.0;"/></g><!--reverse link MinimalReadableRecollection to MinimalReadableRepository--><g id="link_MinimalReadableRecollection_MinimalReadableRepository"><path codeLine="161" d="M224.5932,1010.199 C250.1032,1066.369 279.65,1131.46 298.68,1173.37 " fill="none" id="MinimalReadableRecollection-backto-MinimalReadableRepository" style="stroke:#181818;stroke-width:1.0;"/><polygon fill="none" points="217.15,993.81,219.1302,1012.6801,230.0562,1007.7179,217.15,993.81" style="stroke:#181818;stroke-width:1.0;"/></g><!--reverse link MinimalReadableRepository to MinimalRepository--><g id="link_MinimalReadableRepository_MinimalRepository"><path codeLine="168" d="M443.19,1201.5 C454.91,1201.5 448.62,1201.5 460.34,1201.5 " fill="none" id="MinimalReadableRepository-backto-MinimalRepository" style="stroke:#181818;stroke-width:1.0;"/><polygon fill="none" points="425.19,1201.5,443.19,1207.5,443.19,1195.5,425.19,1201.5" style="stroke:#181818;stroke-width:1.0;"/></g><!--reverse link MinimalRecollection to MinimalRepository--><g id="link_MinimalRecollection_MinimalRepository"><path codeLine="169" d="M452.2667,977.0042 C477.2767,1025.3042 521.38,1110.46 549.39,1164.56 " fill="none" id="MinimalRecollection-backto-MinimalRepository" style="stroke:#181818;stroke-width:1.0;"/><polygon fill="none" points="443.99,961.02,446.9386,979.7631,457.5948,974.2453,443.99,961.02" style="stroke:#181818;stroke-width:1.0;"/></g><!--SRC=[pLVDRzCm5B_dhx2c7JP1DN7ZC91AjS44Y6a3xfxpabfrxCXsnphe_yvpagPsOgUTn86SwlT-x_l3hbbnMLDDAw7O2dBoGDcgr6ejyuKIIXEhgJG806cppEp0f4OOBU7URWGG3SnIMGh8bZm70bLjDwG2krIvyKdKMiqVrXPCbbqQ9_e-izoYXjyPmU-JqlnPIKl5NF1ILcYJ22Ximxn6nZr_1lBcxVxSc9TALrHas-poebEQTUwHUbbtkhcqe0lAWCorffivOs0CeOQSUEUJ3ko-Lwee3DYh9swiEJjjJ-T3zaUmITxzdlUQd3vIiOOHveSqGmtRRE3m0gjXwGD6wjpjJu6pp57F4Wfky0UrIi_BKaD9RQjeH0qKbc1tW5xjTf_O4mqhAbJ9L_J2_QoHg6SCQw8fitqYzpxS8i1vVTDJGcEE_s5pasFDUS5XPzHdTqpG2q6D6G2kkJODQa3_GgDaHyAg6akrFHz6NPbRq4EXNzmkKpmK-wwmRLkj4KOZ6CrZhXWEXOGBfeJ0EU9AHh9t1pHtsLlqeAQ4O_AWAR1JkCGuGO2R9iypRgxSJFhExk2VONDske9D64U4XC1Xj3zTbmT4gve1yqc5gvLFm7e6PxGKEBRMRl_u90bFmTa8pi2RDW6oj4iF0EqSBuGoQms1CmAp765Kj8vGSVtXoi9CnrJXC0aHON2PmzEt8bQ70dbDxqR4DEHhZAfZO5HSecago3iYrq84qxvV4fT_PhD8mpIeyIP8eKSxA6YyHCFHF8_5o0JGOA0rLEeHXXtLKgzQyPWUqtLXP9l6YvMiRQAANIxz6yBbPqQ6YOdC8m9zM69NUbCURij6hIV1eXaUxzCx3-a1kuGM6inouTqDNfI1mGfR2o_Hau6AlRslBM0N-8JPGwldY7qpiNVsjGNBbYbc8l91zEuRtqlDH4o4cntAq7HcuZCIyMmguwxP8lOcIrpWoaZNzwM5_G-BDei64GZ6vpObcKpLT8gYs-s89NRao_EO5-XBNgA7NwI9AYGxCvd-IDgdcpSndR7bvozmRu_Mod2yy3P-vxzu97PAujN65ob85YluaGcRHKobco_XJD9MZszBqni8qMEFHi1_Ss_yermUs8wn5NuejRt0j8jJmtte2NDC846zHZx5POVLIujj-_yWVm40]--></g></svg>