<svg xmlns="http://www.w3.org/2000/svg" xmlns:xlink="http://www.w3.org/1999/xlink" contentStyleType="text/css" height="1347px" preserveAspectRatio="none" style="width:814px;height:1347px;" version="1.1" viewBox="0 0 814 1347" width="814px" zoomAndPan="magnify"><defs/><g><!--cluster php--><g id="cluster_php"><rect fill="none" height="164" rx="2.5" ry="2.5" style="stroke:#000000;stroke-width:1.5;" width="560" x="242" y="7"/><text fill="#000000" font-family="sans-serif" font-size="14" font-weight="bold" lengthAdjust="spacing" textLength="30" x="507" y="21.9951">php</text></g><!--cluster doctrine/collections--><g id="cluster_doctrine/collections"><rect fill="none" height="441" rx="2.5" ry="2.5" style="stroke:#000000;stroke-width:1.5;" width="511" x="297" y="241"/><text fill="#000000" font-family="sans-serif" font-size="14" font-weight="bold" lengthAdjust="spacing" textLength="156" x="474.5" y="255.9951">doctrine/collections</text></g><!--cluster rekalogika/rekapager-contracts--><g id="cluster_rekalogika/rekapager-contracts"><rect fill="none" height="246" rx="2.5" ry="2.5" style="stroke:#000000;stroke-width:1.5;" width="264" x="9" y="338.5"/><text fill="#000000" font-family="sans-serif" font-size="14" font-weight="bold" lengthAdjust="spacing" textLength="248" x="17" y="353.4951">rekalogika/rekapager-contracts</text></g><!--cluster rekalogika/collections-contracts--><g id="cluster_rekalogika/collections-contracts"><rect fill="none" height="635" rx="2.5" ry="2.5" style="stroke:#000000;stroke-width:1.5;" width="544" x="7" y="706"/><text fill="#000000" font-family="sans-serif" font-size="14" font-weight="bold" lengthAdjust="spacing" textLength="252" x="153" y="720.9951">rekalogika/collections-contracts</text></g><!--cluster recollection--><g id="cluster_recollection"><rect fill="none" height="288" rx="2.5" ry="2.5" style="stroke:#000000;stroke-width:1.5;" width="467" x="60" y="749"/><text fill="#000000" font-family="sans-serif" font-size="14" font-weight="bold" lengthAdjust="spacing" textLength="93" x="247" y="763.9951">recollection</text></g><!--cluster repository--><g id="cluster_repository"><rect fill="none" height="256" rx="2.5" ry="2.5" style="stroke:#000000;stroke-width:1.5;" width="446" x="31" y="1061"/><text fill="#000000" font-family="sans-serif" font-size="14" font-weight="bold" lengthAdjust="spacing" textLength="82" x="213" y="1075.9951">repository</text></g><!--class ArrayAccess--><g id="elem_ArrayAccess"><rect codeLine="5" fill="#F1F1F1" height="113.1875" id="ArrayAccess" rx="2.5" ry="2.5" style="stroke:#181818;stroke-width:0.5;" width="199" x="586.5" y="42"/><ellipse cx="639.25" cy="58" fill="#B4A7E5" rx="11" ry="11" style="stroke:#181818;stroke-width:1.0;"/><path d="M635.1719,53.7656 L635.1719,51.6094 L642.5625,51.6094 L642.5625,53.7656 L640.0938,53.7656 L640.0938,61.8438 L642.5625,61.8438 L642.5625,64 L635.1719,64 L635.1719,61.8438 L637.6406,61.8438 L637.6406,53.7656 L635.1719,53.7656 Z " fill="#000000"/><text fill="#000000" font-family="sans-serif" font-size="14" font-style="italic" lengthAdjust="spacing" textLength="85" x="659.75" y="62.8467">ArrayAccess</text><line style="stroke:#181818;stroke-width:0.5;" x1="587.5" x2="784.5" y1="74" y2="74"/><line style="stroke:#181818;stroke-width:0.5;" x1="587.5" x2="784.5" y1="82" y2="82"/><ellipse cx="597.5" cy="95.6484" fill="#84BE84" rx="3" ry="3" style="stroke:#038048;stroke-width:1.0;"/><text fill="#000000" font-family="sans-serif" font-size="14" lengthAdjust="spacing" textLength="137" x="606.5" y="98.9951">offsetExists($offset)</text><ellipse cx="597.5" cy="111.9453" fill="#84BE84" rx="3" ry="3" style="stroke:#038048;stroke-width:1.0;"/><text fill="#000000" font-family="sans-serif" font-size="14" lengthAdjust="spacing" textLength="122" x="606.5" y="115.292">offsetGet($offset)</text><ellipse cx="597.5" cy="128.2422" fill="#84BE84" rx="3" ry="3" style="stroke:#038048;stroke-width:1.0;"/><text fill="#000000" font-family="sans-serif" font-size="14" lengthAdjust="spacing" textLength="173" x="606.5" y="131.5889">offsetSet($offset, $value)</text><ellipse cx="597.5" cy="144.5391" fill="#84BE84" rx="3" ry="3" style="stroke:#038048;stroke-width:1.0;"/><text fill="#000000" font-family="sans-serif" font-size="14" lengthAdjust="spacing" textLength="138" x="606.5" y="147.8857">offsetUnset($offset)</text></g><!--class Countable--><g id="elem_Countable"><rect codeLine="12" fill="#F1F1F1" height="64.2969" id="Countable" rx="2.5" ry="2.5" style="stroke:#181818;stroke-width:0.5;" width="103" x="258.5" y="66.5"/><ellipse cx="273.5" cy="82.5" fill="#B4A7E5" rx="11" ry="11" style="stroke:#181818;stroke-width:1.0;"/><path d="M269.4219,78.2656 L269.4219,76.1094 L276.8125,76.1094 L276.8125,78.2656 L274.3438,78.2656 L274.3438,86.3438 L276.8125,86.3438 L276.8125,88.5 L269.4219,88.5 L269.4219,86.3438 L271.8906,86.3438 L271.8906,78.2656 L269.4219,78.2656 Z " fill="#000000"/><text fill="#000000" font-family="sans-serif" font-size="14" font-style="italic" lengthAdjust="spacing" textLength="71" x="287.5" y="87.3467">Countable</text><line style="stroke:#181818;stroke-width:0.5;" x1="259.5" x2="360.5" y1="98.5" y2="98.5"/><line style="stroke:#181818;stroke-width:0.5;" x1="259.5" x2="360.5" y1="106.5" y2="106.5"/><ellipse cx="269.5" cy="120.1484" fill="#84BE84" rx="3" ry="3" style="stroke:#038048;stroke-width:1.0;"/><text fill="#000000" font-family="sans-serif" font-size="14" lengthAdjust="spacing" textLength="50" x="278.5" y="123.4951">count()</text></g><!--class IteratorAggregate--><g id="elem_IteratorAggregate"><rect codeLine="16" fill="#F1F1F1" height="64.2969" id="IteratorAggregate" rx="2.5" ry="2.5" style="stroke:#181818;stroke-width:0.5;" width="155" x="396.5" y="66.5"/><ellipse cx="411.5" cy="82.5" fill="#B4A7E5" rx="11" ry="11" style="stroke:#181818;stroke-width:1.0;"/><path d="M407.4219,78.2656 L407.4219,76.1094 L414.8125,76.1094 L414.8125,78.2656 L412.3438,78.2656 L412.3438,86.3438 L414.8125,86.3438 L414.8125,88.5 L407.4219,88.5 L407.4219,86.3438 L409.8906,86.3438 L409.8906,78.2656 L407.4219,78.2656 Z " fill="#000000"/><text fill="#000000" font-family="sans-serif" font-size="14" font-style="italic" lengthAdjust="spacing" textLength="123" x="425.5" y="87.3467">IteratorAggregate</text><line style="stroke:#181818;stroke-width:0.5;" x1="397.5" x2="550.5" y1="98.5" y2="98.5"/><line style="stroke:#181818;stroke-width:0.5;" x1="397.5" x2="550.5" y1="106.5" y2="106.5"/><ellipse cx="407.5" cy="120.1484" fill="#84BE84" rx="3" ry="3" style="stroke:#038048;stroke-width:1.0;"/><text fill="#000000" font-family="sans-serif" font-size="14" lengthAdjust="spacing" textLength="82" x="416.5" y="123.4951">getIterator()</text></g><!--class ReadableCollection--><g id="elem_ReadableCollection"><rect codeLine="22" fill="#F1F1F1" height="390.2344" id="ReadableCollection" rx="2.5" ry="2.5" style="stroke:#181818;stroke-width:0.5;" width="233" x="312.5" y="276"/><ellipse cx="358.25" cy="292" fill="#B4A7E5" rx="11" ry="11" style="stroke:#181818;stroke-width:1.0;"/><path d="M354.1719,287.7656 L354.1719,285.6094 L361.5625,285.6094 L361.5625,287.7656 L359.0938,287.7656 L359.0938,295.8438 L361.5625,295.8438 L361.5625,298 L354.1719,298 L354.1719,295.8438 L356.6406,295.8438 L356.6406,287.7656 L354.1719,287.7656 Z " fill="#000000"/><text fill="#000000" font-family="sans-serif" font-size="14" font-style="italic" lengthAdjust="spacing" textLength="133" x="378.75" y="296.8467">ReadableCollection</text><line style="stroke:#181818;stroke-width:0.5;" x1="313.5" x2="544.5" y1="308" y2="308"/><line style="stroke:#181818;stroke-width:0.5;" x1="313.5" x2="544.5" y1="316" y2="316"/><ellipse cx="323.5" cy="329.6484" fill="#84BE84" rx="3" ry="3" style="stroke:#038048;stroke-width:1.0;"/><text fill="#000000" font-family="sans-serif" font-size="14" lengthAdjust="spacing" textLength="135" x="332.5" y="332.9951">contains($element)</text><ellipse cx="323.5" cy="345.9453" fill="#84BE84" rx="3" ry="3" style="stroke:#038048;stroke-width:1.0;"/><text fill="#000000" font-family="sans-serif" font-size="14" lengthAdjust="spacing" textLength="64" x="332.5" y="349.292">isEmpty()</text><ellipse cx="323.5" cy="362.2422" fill="#84BE84" rx="3" ry="3" style="stroke:#038048;stroke-width:1.0;"/><text fill="#000000" font-family="sans-serif" font-size="14" lengthAdjust="spacing" textLength="127" x="332.5" y="365.5889">containsKey($key)</text><ellipse cx="323.5" cy="378.5391" fill="#84BE84" rx="3" ry="3" style="stroke:#038048;stroke-width:1.0;"/><text fill="#000000" font-family="sans-serif" font-size="14" lengthAdjust="spacing" textLength="66" x="332.5" y="381.8857">get($key)</text><ellipse cx="323.5" cy="394.8359" fill="#84BE84" rx="3" ry="3" style="stroke:#038048;stroke-width:1.0;"/><text fill="#000000" font-family="sans-serif" font-size="14" lengthAdjust="spacing" textLength="66" x="332.5" y="398.1826">getKeys()</text><ellipse cx="323.5" cy="411.1328" fill="#84BE84" rx="3" ry="3" style="stroke:#038048;stroke-width:1.0;"/><text fill="#000000" font-family="sans-serif" font-size="14" lengthAdjust="spacing" textLength="79" x="332.5" y="414.4795">getValues()</text><ellipse cx="323.5" cy="427.4297" fill="#84BE84" rx="3" ry="3" style="stroke:#038048;stroke-width:1.0;"/><text fill="#000000" font-family="sans-serif" font-size="14" lengthAdjust="spacing" textLength="58" x="332.5" y="430.7764">toArray()</text><ellipse cx="323.5" cy="443.7266" fill="#84BE84" rx="3" ry="3" style="stroke:#038048;stroke-width:1.0;"/><text fill="#000000" font-family="sans-serif" font-size="14" lengthAdjust="spacing" textLength="35" x="332.5" y="447.0732">first()</text><ellipse cx="323.5" cy="460.0234" fill="#84BE84" rx="3" ry="3" style="stroke:#038048;stroke-width:1.0;"/><text fill="#000000" font-family="sans-serif" font-size="14" lengthAdjust="spacing" textLength="34" x="332.5" y="463.3701">last()</text><ellipse cx="323.5" cy="476.3203" fill="#84BE84" rx="3" ry="3" style="stroke:#038048;stroke-width:1.0;"/><text fill="#000000" font-family="sans-serif" font-size="14" lengthAdjust="spacing" textLength="34" x="332.5" y="479.667">key()</text><ellipse cx="323.5" cy="492.6172" fill="#84BE84" rx="3" ry="3" style="stroke:#038048;stroke-width:1.0;"/><text fill="#000000" font-family="sans-serif" font-size="14" lengthAdjust="spacing" textLength="60" x="332.5" y="495.9639">current()</text><ellipse cx="323.5" cy="508.9141" fill="#84BE84" rx="3" ry="3" style="stroke:#038048;stroke-width:1.0;"/><text fill="#000000" font-family="sans-serif" font-size="14" lengthAdjust="spacing" textLength="40" x="332.5" y="512.2607">next()</text><ellipse cx="323.5" cy="525.2109" fill="#84BE84" rx="3" ry="3" style="stroke:#038048;stroke-width:1.0;"/><text fill="#000000" font-family="sans-serif" font-size="14" lengthAdjust="spacing" textLength="150" x="332.5" y="528.5576">slice($offset, $length)</text><ellipse cx="323.5" cy="541.5078" fill="#84BE84" rx="3" ry="3" style="stroke:#038048;stroke-width:1.0;"/><text fill="#000000" font-family="sans-serif" font-size="14" lengthAdjust="spacing" textLength="103" x="332.5" y="544.8545">exists(Closure)</text><ellipse cx="323.5" cy="557.8047" fill="#84BE84" rx="3" ry="3" style="stroke:#038048;stroke-width:1.0;"/><text fill="#000000" font-family="sans-serif" font-size="14" lengthAdjust="spacing" textLength="92" x="332.5" y="561.1514">filter(Closure)</text><ellipse cx="323.5" cy="574.1016" fill="#84BE84" rx="3" ry="3" style="stroke:#038048;stroke-width:1.0;"/><text fill="#000000" font-family="sans-serif" font-size="14" lengthAdjust="spacing" textLength="93" x="332.5" y="577.4482">map(Closure)</text><ellipse cx="323.5" cy="590.3984" fill="#84BE84" rx="3" ry="3" style="stroke:#038048;stroke-width:1.0;"/><text fill="#000000" font-family="sans-serif" font-size="14" lengthAdjust="spacing" textLength="119" x="332.5" y="593.7451">partition(Closure)</text><ellipse cx="323.5" cy="606.6953" fill="#84BE84" rx="3" ry="3" style="stroke:#038048;stroke-width:1.0;"/><text fill="#000000" font-family="sans-serif" font-size="14" lengthAdjust="spacing" textLength="96" x="332.5" y="610.042">forAll(Closure)</text><ellipse cx="323.5" cy="622.9922" fill="#84BE84" rx="3" ry="3" style="stroke:#038048;stroke-width:1.0;"/><text fill="#000000" font-family="sans-serif" font-size="14" lengthAdjust="spacing" textLength="128" x="332.5" y="626.3389">indexOf($element)</text><ellipse cx="323.5" cy="639.2891" fill="#84BE84" rx="3" ry="3" style="stroke:#038048;stroke-width:1.0;"/><text fill="#000000" font-family="sans-serif" font-size="14" lengthAdjust="spacing" textLength="117" x="332.5" y="642.6357">findFirst(Closure)</text><ellipse cx="323.5" cy="655.5859" fill="#84BE84" rx="3" ry="3" style="stroke:#038048;stroke-width:1.0;"/><text fill="#000000" font-family="sans-serif" font-size="14" lengthAdjust="spacing" textLength="207" x="332.5" y="658.9326">reduce(Closure, $initial = null)</text></g><!--class Collection--><g id="elem_Collection"><rect codeLine="49" fill="#F1F1F1" height="178.375" id="Collection" rx="2.5" ry="2.5" style="stroke:#181818;stroke-width:0.5;" width="211" x="580.5" y="382"/><ellipse cx="647.75" cy="398" fill="#B4A7E5" rx="11" ry="11" style="stroke:#181818;stroke-width:1.0;"/><path d="M643.6719,393.7656 L643.6719,391.6094 L651.0625,391.6094 L651.0625,393.7656 L648.5938,393.7656 L648.5938,401.8438 L651.0625,401.8438 L651.0625,404 L643.6719,404 L643.6719,401.8438 L646.1406,401.8438 L646.1406,393.7656 L643.6719,393.7656 Z " fill="#000000"/><text fill="#000000" font-family="sans-serif" font-size="14" font-style="italic" lengthAdjust="spacing" textLength="68" x="668.25" y="402.8467">Collection</text><line style="stroke:#181818;stroke-width:0.5;" x1="581.5" x2="790.5" y1="414" y2="414"/><line style="stroke:#181818;stroke-width:0.5;" x1="581.5" x2="790.5" y1="422" y2="422"/><ellipse cx="591.5" cy="435.6484" fill="#84BE84" rx="3" ry="3" style="stroke:#038048;stroke-width:1.0;"/><text fill="#000000" font-family="sans-serif" font-size="14" lengthAdjust="spacing" textLength="102" x="600.5" y="438.9951">add($element)</text><ellipse cx="591.5" cy="451.9453" fill="#84BE84" rx="3" ry="3" style="stroke:#038048;stroke-width:1.0;"/><text fill="#000000" font-family="sans-serif" font-size="14" lengthAdjust="spacing" textLength="43" x="600.5" y="455.292">clear()</text><ellipse cx="591.5" cy="468.2422" fill="#84BE84" rx="3" ry="3" style="stroke:#038048;stroke-width:1.0;"/><text fill="#000000" font-family="sans-serif" font-size="14" lengthAdjust="spacing" textLength="95" x="600.5" y="471.5889">remove($key)</text><ellipse cx="591.5" cy="484.5391" fill="#84BE84" rx="3" ry="3" style="stroke:#038048;stroke-width:1.0;"/><text fill="#000000" font-family="sans-serif" font-size="14" lengthAdjust="spacing" textLength="185" x="600.5" y="487.8857">removeElement($element)</text><ellipse cx="591.5" cy="500.8359" fill="#84BE84" rx="3" ry="3" style="stroke:#038048;stroke-width:1.0;"/><text fill="#000000" font-family="sans-serif" font-size="14" lengthAdjust="spacing" textLength="118" x="600.5" y="504.1826">set($key, $value)</text><ellipse cx="591.5" cy="517.1328" fill="#84BE84" rx="3" ry="3" style="stroke:#038048;stroke-width:1.0;"/><text fill="#000000" font-family="sans-serif" font-size="14" lengthAdjust="spacing" textLength="93" x="600.5" y="520.4795">map(Closure)</text><ellipse cx="591.5" cy="533.4297" fill="#84BE84" rx="3" ry="3" style="stroke:#038048;stroke-width:1.0;"/><text fill="#000000" font-family="sans-serif" font-size="14" lengthAdjust="spacing" textLength="92" x="600.5" y="536.7764">filter(Closure)</text><ellipse cx="591.5" cy="549.7266" fill="#84BE84" rx="3" ry="3" style="stroke:#038048;stroke-width:1.0;"/><text fill="#000000" font-family="sans-serif" font-size="14" lengthAdjust="spacing" textLength="119" x="600.5" y="553.0732">partition(Closure)</text></g><!--class PageableInterface--><g id="elem_PageableInterface"><rect codeLine="66" fill="#F1F1F1" height="194.6719" id="PageableInterface" rx="2.5" ry="2.5" style="stroke:#181818;stroke-width:0.5;" width="187" x="70.5" y="373.5"/><ellipse cx="99.45" cy="389.5" fill="#B4A7E5" rx="11" ry="11" style="stroke:#181818;stroke-width:1.0;"/><path d="M95.3719,385.2656 L95.3719,383.1094 L102.7625,383.1094 L102.7625,385.2656 L100.2938,385.2656 L100.2938,393.3438 L102.7625,393.3438 L102.7625,395.5 L95.3719,395.5 L95.3719,393.3438 L97.8406,393.3438 L97.8406,385.2656 L95.3719,385.2656 Z " fill="#000000"/><text fill="#000000" font-family="sans-serif" font-size="14" font-style="italic" lengthAdjust="spacing" textLength="124" x="116.55" y="394.3467">PageableInterface</text><line style="stroke:#181818;stroke-width:0.5;" x1="71.5" x2="256.5" y1="405.5" y2="405.5"/><line style="stroke:#181818;stroke-width:0.5;" x1="71.5" x2="256.5" y1="413.5" y2="413.5"/><ellipse cx="81.5" cy="427.1484" fill="#84BE84" rx="3" ry="3" style="stroke:#038048;stroke-width:1.0;"/><text fill="#000000" font-family="sans-serif" font-size="14" lengthAdjust="spacing" textLength="144" x="90.5" y="430.4951">getPageByIdentifier()</text><ellipse cx="81.5" cy="443.4453" fill="#84BE84" rx="3" ry="3" style="stroke:#038048;stroke-width:1.0;"/><text fill="#000000" font-family="sans-serif" font-size="14" lengthAdjust="spacing" textLength="161" x="90.5" y="446.792">getPageIdentiferClass()</text><ellipse cx="81.5" cy="459.7422" fill="#84BE84" rx="3" ry="3" style="stroke:#038048;stroke-width:1.0;"/><text fill="#000000" font-family="sans-serif" font-size="14" lengthAdjust="spacing" textLength="97" x="90.5" y="463.0889">getFirstPage()</text><ellipse cx="81.5" cy="476.0391" fill="#84BE84" rx="3" ry="3" style="stroke:#038048;stroke-width:1.0;"/><text fill="#000000" font-family="sans-serif" font-size="14" lengthAdjust="spacing" textLength="96" x="90.5" y="479.3857">getLastPage()</text><ellipse cx="81.5" cy="492.3359" fill="#84BE84" rx="3" ry="3" style="stroke:#038048;stroke-width:1.0;"/><text fill="#000000" font-family="sans-serif" font-size="14" lengthAdjust="spacing" textLength="116" x="90.5" y="495.6826">getPages($start)</text><ellipse cx="81.5" cy="508.6328" fill="#84BE84" rx="3" ry="3" style="stroke:#038048;stroke-width:1.0;"/><text fill="#000000" font-family="sans-serif" font-size="14" lengthAdjust="spacing" textLength="129" x="90.5" y="511.9795">getItemsPerPage()</text><ellipse cx="81.5" cy="524.9297" fill="#84BE84" rx="3" ry="3" style="stroke:#038048;stroke-width:1.0;"/><text fill="#000000" font-family="sans-serif" font-size="14" lengthAdjust="spacing" textLength="134" x="90.5" y="528.2764">withItemsPerPage()</text><ellipse cx="81.5" cy="541.2266" fill="#84BE84" rx="3" ry="3" style="stroke:#038048;stroke-width:1.0;"/><text fill="#000000" font-family="sans-serif" font-size="14" lengthAdjust="spacing" textLength="110" x="90.5" y="544.5732">getTotalPages()</text><ellipse cx="81.5" cy="557.5234" fill="#84BE84" rx="3" ry="3" style="stroke:#038048;stroke-width:1.0;"/><text fill="#000000" font-family="sans-serif" font-size="14" lengthAdjust="spacing" textLength="105" x="90.5" y="560.8701">getTotalItems()</text></g><!--class ReadableRecollection--><g id="elem_ReadableRecollection"><rect codeLine="81" fill="#F1F1F1" height="80.5938" id="ReadableRecollection" rx="2.5" ry="2.5" style="stroke:#181818;stroke-width:0.5;" width="182" x="329" y="800"/><ellipse cx="344" cy="816" fill="#B4A7E5" rx="11" ry="11" style="stroke:#181818;stroke-width:1.0;"/><path d="M339.9219,811.7656 L339.9219,809.6094 L347.3125,809.6094 L347.3125,811.7656 L344.8438,811.7656 L344.8438,819.8438 L347.3125,819.8438 L347.3125,822 L339.9219,822 L339.9219,819.8438 L342.3906,819.8438 L342.3906,811.7656 L339.9219,811.7656 Z " fill="#000000"/><text fill="#000000" font-family="sans-serif" font-size="14" font-style="italic" lengthAdjust="spacing" textLength="150" x="358" y="820.8467">ReadableRecollection</text><line style="stroke:#181818;stroke-width:0.5;" x1="330" x2="510" y1="832" y2="832"/><line style="stroke:#181818;stroke-width:0.5;" x1="330" x2="510" y1="840" y2="840"/><ellipse cx="340" cy="853.6484" fill="#84BE84" rx="3" ry="3" style="stroke:#038048;stroke-width:1.0;"/><text fill="#000000" font-family="sans-serif" font-size="14" lengthAdjust="spacing" textLength="104" x="349" y="856.9951">getOrFail($key)</text><ellipse cx="340" cy="869.9453" fill="#84BE84" rx="3" ry="3" style="stroke:#038048;stroke-width:1.0;"/><text fill="#000000" font-family="sans-serif" font-size="14" lengthAdjust="spacing" textLength="101" x="349" y="873.292">refreshCount()</text></g><!--class Recollection--><g id="elem_Recollection"><rect codeLine="89" fill="#F1F1F1" height="64.2969" id="Recollection" rx="2.5" ry="2.5" style="stroke:#181818;stroke-width:0.5;" width="127" x="383.5" y="957"/><ellipse cx="403" cy="973" fill="#B4A7E5" rx="11" ry="11" style="stroke:#181818;stroke-width:1.0;"/><path d="M398.9219,968.7656 L398.9219,966.6094 L406.3125,966.6094 L406.3125,968.7656 L403.8438,968.7656 L403.8438,976.8438 L406.3125,976.8438 L406.3125,979 L398.9219,979 L398.9219,976.8438 L401.3906,976.8438 L401.3906,968.7656 L398.9219,968.7656 Z " fill="#000000"/><text fill="#000000" font-family="sans-serif" font-size="14" font-style="italic" lengthAdjust="spacing" textLength="85" x="418" y="977.8467">Recollection</text><line style="stroke:#181818;stroke-width:0.5;" x1="384.5" x2="509.5" y1="989" y2="989"/><line style="stroke:#181818;stroke-width:0.5;" x1="384.5" x2="509.5" y1="997" y2="997"/><ellipse cx="394.5" cy="1010.6484" fill="#84BE84" rx="3" ry="3" style="stroke:#038048;stroke-width:1.0;"/><text fill="#000000" font-family="sans-serif" font-size="14" lengthAdjust="spacing" textLength="101" x="403.5" y="1013.9951">refreshCount()</text></g><!--class BasicReadableRecollection--><g id="elem_BasicReadableRecollection"><rect codeLine="96" fill="#F1F1F1" height="113.1875" id="BasicReadableRecollection" rx="2.5" ry="2.5" style="stroke:#181818;stroke-width:0.5;" width="218" x="76" y="784"/><ellipse cx="91" cy="800" fill="#B4A7E5" rx="11" ry="11" style="stroke:#181818;stroke-width:1.0;"/><path d="M86.9219,795.7656 L86.9219,793.6094 L94.3125,793.6094 L94.3125,795.7656 L91.8438,795.7656 L91.8438,803.8438 L94.3125,803.8438 L94.3125,806 L86.9219,806 L86.9219,803.8438 L89.3906,803.8438 L89.3906,795.7656 L86.9219,795.7656 Z " fill="#000000"/><text fill="#000000" font-family="sans-serif" font-size="14" font-style="italic" lengthAdjust="spacing" textLength="186" x="105" y="804.8467">BasicReadableRecollection</text><line style="stroke:#181818;stroke-width:0.5;" x1="77" x2="293" y1="816" y2="816"/><line style="stroke:#181818;stroke-width:0.5;" x1="77" x2="293" y1="824" y2="824"/><ellipse cx="87" cy="837.6484" fill="#84BE84" rx="3" ry="3" style="stroke:#038048;stroke-width:1.0;"/><text fill="#000000" font-family="sans-serif" font-size="14" lengthAdjust="spacing" textLength="135" x="96" y="840.9951">contains($element)</text><ellipse cx="87" cy="853.9453" fill="#84BE84" rx="3" ry="3" style="stroke:#038048;stroke-width:1.0;"/><text fill="#000000" font-family="sans-serif" font-size="14" lengthAdjust="spacing" textLength="127" x="96" y="857.292">containsKey($key)</text><ellipse cx="87" cy="870.2422" fill="#84BE84" rx="3" ry="3" style="stroke:#038048;stroke-width:1.0;"/><text fill="#000000" font-family="sans-serif" font-size="14" lengthAdjust="spacing" textLength="66" x="96" y="873.5889">get($key)</text><ellipse cx="87" cy="886.5391" fill="#84BE84" rx="3" ry="3" style="stroke:#038048;stroke-width:1.0;"/><text fill="#000000" font-family="sans-serif" font-size="14" lengthAdjust="spacing" textLength="104" x="96" y="889.8857">getOrFail($key)</text></g><!--class BasicRecollection--><g id="elem_BasicRecollection"><rect codeLine="105" fill="#F1F1F1" height="64.2969" id="BasicRecollection" rx="2.5" ry="2.5" style="stroke:#181818;stroke-width:0.5;" width="153" x="195.5" y="957"/><ellipse cx="210.5" cy="973" fill="#B4A7E5" rx="11" ry="11" style="stroke:#181818;stroke-width:1.0;"/><path d="M206.4219,968.7656 L206.4219,966.6094 L213.8125,966.6094 L213.8125,968.7656 L211.3438,968.7656 L211.3438,976.8438 L213.8125,976.8438 L213.8125,979 L206.4219,979 L206.4219,976.8438 L208.8906,976.8438 L208.8906,968.7656 L206.4219,968.7656 Z " fill="#000000"/><text fill="#000000" font-family="sans-serif" font-size="14" font-style="italic" lengthAdjust="spacing" textLength="121" x="224.5" y="977.8467">BasicRecollection</text><line style="stroke:#181818;stroke-width:0.5;" x1="196.5" x2="347.5" y1="989" y2="989"/><line style="stroke:#181818;stroke-width:0.5;" x1="196.5" x2="347.5" y1="997" y2="997"/><ellipse cx="206.5" cy="1010.6484" fill="#84BE84" rx="3" ry="3" style="stroke:#038048;stroke-width:1.0;"/><text fill="#000000" font-family="sans-serif" font-size="14" lengthAdjust="spacing" textLength="102" x="215.5" y="1013.9951">add($element)</text></g><!--class BasicReadableRepository--><g id="elem_BasicReadableRepository"><rect codeLine="113" fill="#F1F1F1" height="64.2969" id="BasicReadableRepository" rx="2.5" ry="2.5" style="stroke:#181818;stroke-width:0.5;" width="207" x="47.5" y="1096"/><ellipse cx="62.5" cy="1112" fill="#B4A7E5" rx="11" ry="11" style="stroke:#181818;stroke-width:1.0;"/><path d="M58.4219,1107.7656 L58.4219,1105.6094 L65.8125,1105.6094 L65.8125,1107.7656 L63.3438,1107.7656 L63.3438,1115.8438 L65.8125,1115.8438 L65.8125,1118 L58.4219,1118 L58.4219,1115.8438 L60.8906,1115.8438 L60.8906,1107.7656 L58.4219,1107.7656 Z " fill="#000000"/><text fill="#000000" font-family="sans-serif" font-size="14" font-style="italic" lengthAdjust="spacing" textLength="175" x="76.5" y="1116.8467">BasicReadableRepository</text><line style="stroke:#181818;stroke-width:0.5;" x1="48.5" x2="253.5" y1="1128" y2="1128"/><line style="stroke:#181818;stroke-width:0.5;" x1="48.5" x2="253.5" y1="1136" y2="1136"/><ellipse cx="58.5" cy="1149.6484" fill="#84BE84" rx="3" ry="3" style="stroke:#038048;stroke-width:1.0;"/><text fill="#000000" font-family="sans-serif" font-size="14" lengthAdjust="spacing" textLength="138" x="67.5" y="1152.9951">getReference($key)</text></g><!--class BasicRepository--><g id="elem_BasicRepository"><rect codeLine="119" fill="#F1F1F1" height="80.5938" id="BasicRepository" rx="2.5" ry="2.5" style="stroke:#181818;stroke-width:0.5;" width="211" x="77.5" y="1220"/><ellipse cx="123.75" cy="1236" fill="#B4A7E5" rx="11" ry="11" style="stroke:#181818;stroke-width:1.0;"/><path d="M119.6719,1231.7656 L119.6719,1229.6094 L127.0625,1229.6094 L127.0625,1231.7656 L124.5938,1231.7656 L124.5938,1239.8438 L127.0625,1239.8438 L127.0625,1242 L119.6719,1242 L119.6719,1239.8438 L122.1406,1239.8438 L122.1406,1231.7656 L119.6719,1231.7656 Z " fill="#000000"/><text fill="#000000" font-family="sans-serif" font-size="14" font-style="italic" lengthAdjust="spacing" textLength="110" x="144.25" y="1240.8467">BasicRepository</text><line style="stroke:#181818;stroke-width:0.5;" x1="78.5" x2="287.5" y1="1252" y2="1252"/><line style="stroke:#181818;stroke-width:0.5;" x1="78.5" x2="287.5" y1="1260" y2="1260"/><ellipse cx="88.5" cy="1273.6484" fill="#84BE84" rx="3" ry="3" style="stroke:#038048;stroke-width:1.0;"/><text fill="#000000" font-family="sans-serif" font-size="14" lengthAdjust="spacing" textLength="95" x="97.5" y="1276.9951">remove($key)</text><ellipse cx="88.5" cy="1289.9453" fill="#84BE84" rx="3" ry="3" style="stroke:#038048;stroke-width:1.0;"/><text fill="#000000" font-family="sans-serif" font-size="14" lengthAdjust="spacing" textLength="185" x="97.5" y="1293.292">removeElement($element)</text></g><!--class ReadableRepository--><g id="elem_ReadableRepository"><rect codeLine="127" fill="#F1F1F1" height="64.2969" id="ReadableRepository" rx="2.5" ry="2.5" style="stroke:#181818;stroke-width:0.5;" width="171" x="289.5" y="1096"/><ellipse cx="304.5" cy="1112" fill="#B4A7E5" rx="11" ry="11" style="stroke:#181818;stroke-width:1.0;"/><path d="M300.4219,1107.7656 L300.4219,1105.6094 L307.8125,1105.6094 L307.8125,1107.7656 L305.3438,1107.7656 L305.3438,1115.8438 L307.8125,1115.8438 L307.8125,1118 L300.4219,1118 L300.4219,1115.8438 L302.8906,1115.8438 L302.8906,1107.7656 L300.4219,1107.7656 Z " fill="#000000"/><text fill="#000000" font-family="sans-serif" font-size="14" font-style="italic" lengthAdjust="spacing" textLength="139" x="318.5" y="1116.8467">ReadableRepository</text><line style="stroke:#181818;stroke-width:0.5;" x1="290.5" x2="459.5" y1="1128" y2="1128"/><line style="stroke:#181818;stroke-width:0.5;" x1="290.5" x2="459.5" y1="1136" y2="1136"/><ellipse cx="300.5" cy="1149.6484" fill="#84BE84" rx="3" ry="3" style="stroke:#038048;stroke-width:1.0;"/><text fill="#000000" font-family="sans-serif" font-size="14" lengthAdjust="spacing" textLength="138" x="309.5" y="1152.9951">getReference($key)</text></g><!--class Repository--><g id="elem_Repository"><rect codeLine="133" fill="#F1F1F1" height="48" id="Repository" rx="2.5" ry="2.5" style="stroke:#181818;stroke-width:0.5;" width="106" x="338" y="1236.5"/><ellipse cx="353" cy="1252.5" fill="#B4A7E5" rx="11" ry="11" style="stroke:#181818;stroke-width:1.0;"/><path d="M348.9219,1248.2656 L348.9219,1246.1094 L356.3125,1246.1094 L356.3125,1248.2656 L353.8438,1248.2656 L353.8438,1256.3438 L356.3125,1256.3438 L356.3125,1258.5 L348.9219,1258.5 L348.9219,1256.3438 L351.3906,1256.3438 L351.3906,1248.2656 L348.9219,1248.2656 Z " fill="#000000"/><text fill="#000000" font-family="sans-serif" font-size="14" font-style="italic" lengthAdjust="spacing" textLength="74" x="367" y="1257.3467">Repository</text><line style="stroke:#181818;stroke-width:0.5;" x1="339" x2="443" y1="1268.5" y2="1268.5"/><line style="stroke:#181818;stroke-width:0.5;" x1="339" x2="443" y1="1276.5" y2="1276.5"/></g><!--reverse link Countable to ReadableCollection--><g id="link_Countable_ReadableCollection"><path codeLine="46" d="M325.5457,147.9073 C336.1957,181.0573 348.44,219.18 366.55,275.58 " fill="none" id="Countable-backto-ReadableCollection" style="stroke:#181818;stroke-width:1.0;"/><polygon fill="none" points="320.04,130.77,319.8332,149.7425,331.2581,146.0721,320.04,130.77" style="stroke:#181818;stroke-width:1.0;"/></g><!--reverse link IteratorAggregate to ReadableCollection--><g id="link_IteratorAggregate_ReadableCollection"><path codeLine="47" d="M468.0331,148.6391 C464.0131,181.7891 459.46,219.18 452.61,275.58 " fill="none" id="IteratorAggregate-backto-ReadableCollection" style="stroke:#181818;stroke-width:1.0;"/><polygon fill="none" points="470.2,130.77,462.0767,147.9168,473.9894,149.3614,470.2,130.77" style="stroke:#181818;stroke-width:1.0;"/></g><!--reverse link ArrayAccess to Collection--><g id="link_ArrayAccess_Collection"><path codeLine="60" d="M686,173.37 C686,233.41 686,311.66 686,381.91 " fill="none" id="ArrayAccess-backto-Collection" style="stroke:#181818;stroke-width:1.0;"/><polygon fill="none" points="686,155.37,680,173.37,692,173.37,686,155.37" style="stroke:#181818;stroke-width:1.0;"/></g><!--reverse link ReadableCollection to Collection--><g id="link_ReadableCollection_Collection"><path codeLine="62" d="M563.7,471 C575.21,471 568.72,471 580.23,471 " fill="none" id="ReadableCollection-backto-Collection" style="stroke:#181818;stroke-width:1.0;"/><polygon fill="none" points="545.7,471,563.7,477,563.7,465,545.7,471" style="stroke:#181818;stroke-width:1.0;"/></g><!--reverse link PageableInterface to ReadableRecollection--><g id="link_PageableInterface_ReadableRecollection"><path codeLine="86" d="M217.0772,584.5242 C239.3772,625.5442 260.81,655.84 297,690 C302.49,695.19 306.24,693.11 312,698 C346.38,727.22 376.67,769.13 396.36,799.76 " fill="none" id="PageableInterface-backto-ReadableRecollection" style="stroke:#181818;stroke-width:1.0;"/><polygon fill="none" points="208.48,568.71,211.8058,587.3899,222.3486,581.6585,208.48,568.71" style="stroke:#181818;stroke-width:1.0;"/></g><!--reverse link ReadableCollection to ReadableRecollection--><g id="link_ReadableCollection_ReadableRecollection"><path codeLine="87" d="M423.8012,684.2347 C422.5612,735.0847 421.78,766.86 420.97,799.91 " fill="none" id="ReadableCollection-backto-ReadableRecollection" style="stroke:#181818;stroke-width:1.0;"/><polygon fill="none" points="424.24,666.24,417.803,684.0884,429.7994,684.3809,424.24,666.24" style="stroke:#181818;stroke-width:1.0;"/></g><!--reverse link ReadableRecollection to Recollection--><g id="link_ReadableRecollection_Recollection"><path codeLine="93" d="M430.5713,898.8521 C434.9413,922.5721 437.16,934.61 441.23,956.68 " fill="none" id="ReadableRecollection-backto-Recollection" style="stroke:#181818;stroke-width:1.0;"/><polygon fill="none" points="427.31,881.15,424.6706,899.9392,436.472,897.765,427.31,881.15" style="stroke:#181818;stroke-width:1.0;"/></g><!--reverse link Collection to Recollection--><g id="link_Collection_Recollection"><path codeLine="94" d="M659.2328,577.5517 C634.6428,666.6817 594.3,788.95 529,897 C515.8,918.84 496.96,940.2 480.66,956.73 " fill="none" id="Collection-backto-Recollection" style="stroke:#181818;stroke-width:1.0;"/><polygon fill="none" points="664.02,560.2,653.4489,575.956,665.0168,579.1475,664.02,560.2" style="stroke:#181818;stroke-width:1.0;"/></g><!--reverse link PageableInterface to BasicReadableRecollection--><g id="link_PageableInterface_BasicReadableRecollection"><path codeLine="103" d="M170.5472,586.5307 C174.4672,655.1107 178.56,726.82 181.82,783.81 " fill="none" id="PageableInterface-backto-BasicReadableRecollection" style="stroke:#181818;stroke-width:1.0;"/><polygon fill="none" points="169.52,568.56,164.557,586.8731,176.5374,586.1883,169.52,568.56" style="stroke:#181818;stroke-width:1.0;"/></g><!--reverse link BasicReadableRecollection to BasicRecollection--><g id="link_BasicReadableRecollection_BasicRecollection"><path codeLine="109" d="M227.3265,912.7793 C239.3265,932.9993 243.27,939.62 253.55,956.94 " fill="none" id="BasicReadableRecollection-backto-BasicRecollection" style="stroke:#181818;stroke-width:1.0;"/><polygon fill="none" points="218.14,897.3,222.1668,915.8414,232.4863,909.7171,218.14,897.3" style="stroke:#181818;stroke-width:1.0;"/></g><!--reverse link BasicReadableRecollection to BasicReadableRepository--><g id="link_BasicReadableRecollection_BasicReadableRepository"><path codeLine="117" d="M159.1105,914.3048 C153.1905,933.0548 152.95,937.1 150,957 C144.27,995.69 149.76,1005.89 150,1045 C150.1,1061.8 150.32,1080.53 150.53,1095.85 " fill="none" id="BasicReadableRecollection-backto-BasicReadableRepository" style="stroke:#181818;stroke-width:1.0;"/><polygon fill="none" points="164.53,897.14,153.3889,912.4983,164.8321,916.1113,164.53,897.14" style="stroke:#181818;stroke-width:1.0;"/></g><!--reverse link BasicReadableRepository to BasicRepository--><g id="link_BasicReadableRepository_BasicRepository"><path codeLine="124" d="M162.9539,1177.7403 C167.3239,1195.5303 168.54,1200.53 173.21,1219.59 " fill="none" id="BasicReadableRepository-backto-BasicRepository" style="stroke:#181818;stroke-width:1.0;"/><polygon fill="none" points="158.66,1160.26,157.1272,1179.1716,168.7807,1176.309,158.66,1160.26" style="stroke:#181818;stroke-width:1.0;"/></g><!--reverse link BasicRecollection to BasicRepository--><g id="link_BasicRecollection_BasicRepository"><path codeLine="125" d="M330.8253,1030.4122 C346.0953,1039.7522 348.48,1039.57 366,1045 C377.92,1048.69 469.5,1043.87 478,1053 C510.41,1087.8 505.74,1121.37 478,1160 C472.06,1168.27 370.82,1201.31 288.58,1227.07 " fill="none" id="BasicRecollection-backto-BasicRepository" style="stroke:#181818;stroke-width:1.0;"/><polygon fill="none" points="315.47,1021.02,327.6946,1035.5306,333.9561,1025.2938,315.47,1021.02" style="stroke:#181818;stroke-width:1.0;"/></g><!--reverse link ReadableRecollection to ReadableRepository--><g id="link_ReadableRecollection_ReadableRepository"><path codeLine="131" d="M328.0703,889.2396 C317.3303,894.6596 322.45,891.98 312,897 C253.18,925.26 213.48,902.24 178,957 C156.73,989.82 151.54,1016.2 178,1045 C192.18,1060.44 252.34,1045.73 272,1053 C297.61,1062.46 322.58,1080.12 341.51,1095.81 " fill="none" id="ReadableRecollection-backto-ReadableRepository" style="stroke:#181818;stroke-width:1.0;"/><polygon fill="none" points="344.14,881.13,325.3671,883.8831,330.7736,894.5962,344.14,881.13" style="stroke:#181818;stroke-width:1.0;"/></g><!--reverse link ReadableRepository to Repository--><g id="link_ReadableRepository_Repository"><path codeLine="136" d="M381.024,1178.1258 C383.894,1201.4958 385.55,1215.08 388.15,1236.26 " fill="none" id="ReadableRepository-backto-Repository" style="stroke:#181818;stroke-width:1.0;"/><polygon fill="none" points="378.83,1160.26,375.0688,1178.8571,386.9793,1177.3944,378.83,1160.26" style="stroke:#181818;stroke-width:1.0;"/></g><!--reverse link Recollection to Repository--><g id="link_Recollection_Repository"><path codeLine="137" d="M497.0981,1034.4403 C505.6781,1043.6803 501.37,1041.29 506,1053 C523.48,1097.23 525.77,1116.75 506,1160 C490.96,1192.9 459.08,1219.08 432.7,1236.31 " fill="none" id="Recollection-backto-Repository" style="stroke:#181818;stroke-width:1.0;"/><polygon fill="none" points="484.85,1021.25,492.7014,1038.523,501.4949,1030.3576,484.85,1021.25" style="stroke:#181818;stroke-width:1.0;"/></g><!--SRC=[hLNDJXin4BxdAIp48L69U87s02keK2k1eEtTU6StLXnxPJkKgENTEqus6zixNZXqJ-kPp_FppO_TMkgEMxvHHgoXPizSh5jhjhgkZ3AMUSkrGm1eFvkv8vXr2ECjFFcT0cP1UAvR1RDPBsVTgcD_PWm_gJtOXWjWLzRotPKGu1pZZfr5vxCU7BvFfcaS-9jNwRoRdnzEYrpz5NnHztJINR3p5wwsCCByr2wty3RB0gwG1i-VCSCGxd1AWXL1EYyOkCCVxeszQbiBBVS7GoDfOh05VmGCPjzEn9xLHdWhDLmAenGIBuqUw3jvVWHUXrYh0RHtFHPdoM26KYFhe6239Ozea-vcq_dTV366VuFT_7mDkqMI1I52e9kdeb-XEedGctrZnA96MkTZWUBf6JqbWMrjQDXOfE4rEJib1KHTea2tVXK1uD1_bJ9kQo49HY7BX6B3EqAAy-9bO9eoXKsW5A6GkeRN-uQgGuEwspqVusiMwYrcrIimAwdHDLVi2zDRfP8kFJNtvx_B9T4mUzIuWqleqUmaZLTeE5xNL8v20RVp9B6DUO6yemxIcyDroexhkv3O0dInYhKjLB7dCjviWPybouaXvX61CIoUSGjhhamhr_mo_7OejCimRPOBJqpx0mA2zRj1aYwKeB_UtTN8Zcmas6m6WxfNWgrmjl8XtVTRG6NoxvmK1n7k4EUHj4M-sJRk0Mn-wRVqgv8Eh_qmdgk3LKAnlqZkoeZ7Q5kEcOmk2B9HnulrCK96m6DWz_QMIvKrRD-qZGMtgg9t8-gay8shcSnSx7cuG_TNuHAPLZcTzoCcIUdz4y5MKo0Yk6lkfFW8yHFlrpiFLk7HcYpd-oKh1ZwHPJaxUbb6KPHvYgF92jBVZqQWCqxYoj_H0v0vEOA96NW4N2UW1PHvcuvuMN8sGLyf7l85-T0hKWvty1NJEyIONIfKOogb_yNor7X-X5hIFsa_POGWWmeX0OK5_Wy0]--></g></svg>