<svg xmlns="http://www.w3.org/2000/svg" xmlns:xlink="http://www.w3.org/1999/xlink" contentStyleType="text/css" height="658px" preserveAspectRatio="none" style="width:714px;height:658px;" version="1.1" viewBox="0 0 714 658" width="714px" zoomAndPan="magnify"><defs/><g><!--cluster php--><g id="cluster_php"><rect fill="none" height="111" rx="2.5" ry="2.5" style="stroke:#000000;stroke-width:1.5;" width="548" x="158" y="7"/><text fill="#000000" font-family="sans-serif" font-size="18" lengthAdjust="spacing" textLength="34.2598" x="414.8701" y="25.708">php</text></g><!--cluster doctrine/collections--><g id="cluster_doctrine/collections"><rect fill="none" height="111" rx="2.5" ry="2.5" style="stroke:#000000;stroke-width:1.5;" width="377" x="329" y="249.5"/><text fill="#000000" font-family="sans-serif" font-size="18" lengthAdjust="spacing" textLength="176.0801" x="429.46" y="268.208">doctrine/collections</text></g><!--cluster rekalogika/rekapager-contracts--><g id="cluster_rekalogika/rekapager-contracts"><rect fill="none" height="242" rx="2.5" ry="2.5" style="stroke:#000000;stroke-width:1.5;" width="298" x="7" y="184"/><text fill="#000000" font-family="sans-serif" font-size="18" lengthAdjust="spacing" textLength="282.8057" x="14.5972" y="202.708">rekalogika/rekapager-contracts</text></g><!--cluster rekalogika/collections-contracts--><g id="cluster_rekalogika/collections-contracts"><rect fill="none" height="160" rx="2.5" ry="2.5" style="stroke:#000000;stroke-width:1.5;" width="399" x="309" y="492"/><text fill="#000000" font-family="sans-serif" font-size="18" lengthAdjust="spacing" textLength="286.2598" x="365.3701" y="510.708">rekalogika/collections-contracts</text></g><!--class ArrayAccess--><g id="elem_ArrayAccess"><rect codeLine="15" fill="#F1F1F1" height="56.2969" id="ArrayAccess" rx="2.5" ry="2.5" style="stroke:#181818;stroke-width:0.5;" width="143.3047" x="546.5" y="46"/><ellipse cx="572.8304" cy="62" fill="#B4A7E5" rx="11" ry="11" style="stroke:#181818;stroke-width:1.0;"/><path d="M568.7523,57.7656 L568.7523,55.6094 L576.1429,55.6094 L576.1429,57.7656 L573.6742,57.7656 L573.6742,65.8438 L576.1429,65.8438 L576.1429,68 L568.7523,68 L568.7523,65.8438 L571.221,65.8438 L571.221,57.7656 L568.7523,57.7656 Z " fill="#000000"/><text fill="#000000" font-family="sans-serif" font-size="14" font-style="italic" lengthAdjust="spacing" textLength="86.126" x="589.3483" y="66.8467">ArrayAccess</text><line style="stroke:#181818;stroke-width:0.5;" x1="547.5" x2="688.8047" y1="78" y2="78"/><text fill="#000000" font-family="sans-serif" font-size="14" lengthAdjust="spacing" textLength="131.3047" x="552.5" y="94.9951">(methods omitted)</text></g><!--class Countable--><g id="elem_Countable"><rect codeLine="19" fill="#F1F1F1" height="56.2969" id="Countable" rx="2.5" ry="2.5" style="stroke:#181818;stroke-width:0.5;" width="143.3047" x="174.5" y="46"/><ellipse cx="207.3919" cy="62" fill="#B4A7E5" rx="11" ry="11" style="stroke:#181818;stroke-width:1.0;"/><path d="M203.3138,57.7656 L203.3138,55.6094 L210.7044,55.6094 L210.7044,57.7656 L208.2356,57.7656 L208.2356,65.8438 L210.7044,65.8438 L210.7044,68 L203.3138,68 L203.3138,65.8438 L205.7825,65.8438 L205.7825,57.7656 L203.3138,57.7656 Z " fill="#000000"/><text fill="#000000" font-family="sans-serif" font-size="14" font-style="italic" lengthAdjust="spacing" textLength="71.5449" x="225.3679" y="66.8467">Countable</text><line style="stroke:#181818;stroke-width:0.5;" x1="175.5" x2="316.8047" y1="78" y2="78"/><text fill="#000000" font-family="sans-serif" font-size="14" lengthAdjust="spacing" textLength="131.3047" x="180.5" y="94.9951">(methods omitted)</text></g><!--class IteratorAggregate--><g id="elem_IteratorAggregate"><rect codeLine="23" fill="#F1F1F1" height="56.2969" id="IteratorAggregate" rx="2.5" ry="2.5" style="stroke:#181818;stroke-width:0.5;" width="157.665" x="353" y="46"/><ellipse cx="368" cy="62" fill="#B4A7E5" rx="11" ry="11" style="stroke:#181818;stroke-width:1.0;"/><path d="M363.9219,57.7656 L363.9219,55.6094 L371.3125,55.6094 L371.3125,57.7656 L368.8438,57.7656 L368.8438,65.8438 L371.3125,65.8438 L371.3125,68 L363.9219,68 L363.9219,65.8438 L366.3906,65.8438 L366.3906,57.7656 L363.9219,57.7656 Z " fill="#000000"/><text fill="#000000" font-family="sans-serif" font-size="14" font-style="italic" lengthAdjust="spacing" textLength="125.665" x="382" y="66.8467">IteratorAggregate</text><line style="stroke:#181818;stroke-width:0.5;" x1="354" x2="509.665" y1="78" y2="78"/><text fill="#000000" font-family="sans-serif" font-size="14" lengthAdjust="spacing" textLength="131.3047" x="359" y="94.9951">(methods omitted)</text></g><!--class ReadableCollection--><g id="elem_ReadableCollection"><rect codeLine="29" fill="#F1F1F1" height="56.2969" id="ReadableCollection" rx="2.5" ry="2.5" style="stroke:#181818;stroke-width:0.5;" width="167.0234" x="344.5" y="288.5"/><ellipse cx="359.5" cy="304.5" fill="#B4A7E5" rx="11" ry="11" style="stroke:#181818;stroke-width:1.0;"/><path d="M355.4219,300.2656 L355.4219,298.1094 L362.8125,298.1094 L362.8125,300.2656 L360.3438,300.2656 L360.3438,308.3438 L362.8125,308.3438 L362.8125,310.5 L355.4219,310.5 L355.4219,308.3438 L357.8906,308.3438 L357.8906,300.2656 L355.4219,300.2656 Z " fill="#000000"/><text fill="#000000" font-family="sans-serif" font-size="14" font-style="italic" lengthAdjust="spacing" textLength="135.0234" x="373.5" y="309.3467">ReadableCollection</text><line style="stroke:#181818;stroke-width:0.5;" x1="345.5" x2="510.5234" y1="320.5" y2="320.5"/><text fill="#000000" font-family="sans-serif" font-size="14" lengthAdjust="spacing" textLength="131.3047" x="350.5" y="337.4951">(methods omitted)</text></g><!--class Collection--><g id="elem_Collection"><rect codeLine="36" fill="#F1F1F1" height="56.2969" id="Collection" rx="2.5" ry="2.5" style="stroke:#181818;stroke-width:0.5;" width="143.3047" x="546.5" y="288.5"/><ellipse cx="580.4255" cy="304.5" fill="#B4A7E5" rx="11" ry="11" style="stroke:#181818;stroke-width:1.0;"/><path d="M576.3474,300.2656 L576.3474,298.1094 L583.738,298.1094 L583.738,300.2656 L581.2692,300.2656 L581.2692,308.3438 L583.738,308.3438 L583.738,310.5 L576.3474,310.5 L576.3474,308.3438 L578.8161,308.3438 L578.8161,300.2656 L576.3474,300.2656 Z " fill="#000000"/><text fill="#000000" font-family="sans-serif" font-size="14" font-style="italic" lengthAdjust="spacing" textLength="69.248" x="598.6312" y="309.3467">Collection</text><line style="stroke:#181818;stroke-width:0.5;" x1="547.5" x2="688.8047" y1="320.5" y2="320.5"/><text fill="#000000" font-family="sans-serif" font-size="14" lengthAdjust="spacing" textLength="131.3047" x="552.5" y="337.4951">(methods omitted)</text></g><!--class PageableInterface--><g id="elem_PageableInterface"><rect codeLine="46" fill="#F1F1F1" height="186.6719" id="PageableInterface" rx="2.5" ry="2.5" style="stroke:#181818;stroke-width:0.5;" width="190.4453" x="99" y="223"/><ellipse cx="128.0744" cy="239" fill="#B4A7E5" rx="11" ry="11" style="stroke:#181818;stroke-width:1.0;"/><path d="M123.9962,234.7656 L123.9962,232.6094 L131.3869,232.6094 L131.3869,234.7656 L128.9181,234.7656 L128.9181,242.8438 L131.3869,242.8438 L131.3869,245 L123.9962,245 L123.9962,242.8438 L126.465,242.8438 L126.465,234.7656 L123.9962,234.7656 Z " fill="#000000"/><text fill="#000000" font-family="sans-serif" font-size="14" font-style="italic" lengthAdjust="spacing" textLength="127.1689" x="145.202" y="243.8467">PageableInterface</text><line style="stroke:#181818;stroke-width:0.5;" x1="100" x2="288.4453" y1="255" y2="255"/><ellipse cx="110" cy="268.6484" fill="#84BE84" rx="3" ry="3" style="stroke:#038048;stroke-width:1.0;"/><text fill="#000000" font-family="sans-serif" font-size="14" lengthAdjust="spacing" textLength="149.3926" x="119" y="271.9951">getPageByIdentifier()</text><ellipse cx="110" cy="284.9453" fill="#84BE84" rx="3" ry="3" style="stroke:#038048;stroke-width:1.0;"/><text fill="#000000" font-family="sans-serif" font-size="14" lengthAdjust="spacing" textLength="164.4453" x="119" y="288.292">getPageIdentiferClass()</text><ellipse cx="110" cy="301.2422" fill="#84BE84" rx="3" ry="3" style="stroke:#038048;stroke-width:1.0;"/><text fill="#000000" font-family="sans-serif" font-size="14" lengthAdjust="spacing" textLength="98.916" x="119" y="304.5889">getFirstPage()</text><ellipse cx="110" cy="317.5391" fill="#84BE84" rx="3" ry="3" style="stroke:#038048;stroke-width:1.0;"/><text fill="#000000" font-family="sans-serif" font-size="14" lengthAdjust="spacing" textLength="97.5967" x="119" y="320.8857">getLastPage()</text><ellipse cx="110" cy="333.8359" fill="#84BE84" rx="3" ry="3" style="stroke:#038048;stroke-width:1.0;"/><text fill="#000000" font-family="sans-serif" font-size="14" lengthAdjust="spacing" textLength="117.2432" x="119" y="337.1826">getPages($start)</text><ellipse cx="110" cy="350.1328" fill="#84BE84" rx="3" ry="3" style="stroke:#038048;stroke-width:1.0;"/><text fill="#000000" font-family="sans-serif" font-size="14" lengthAdjust="spacing" textLength="130.4092" x="119" y="353.4795">getItemsPerPage()</text><ellipse cx="110" cy="366.4297" fill="#84BE84" rx="3" ry="3" style="stroke:#038048;stroke-width:1.0;"/><text fill="#000000" font-family="sans-serif" font-size="14" lengthAdjust="spacing" textLength="137.1221" x="119" y="369.7764">withItemsPerPage()</text><ellipse cx="110" cy="382.7266" fill="#84BE84" rx="3" ry="3" style="stroke:#038048;stroke-width:1.0;"/><text fill="#000000" font-family="sans-serif" font-size="14" lengthAdjust="spacing" textLength="110.8037" x="119" y="386.0732">getTotalPages()</text><ellipse cx="110" cy="399.0234" fill="#84BE84" rx="3" ry="3" style="stroke:#038048;stroke-width:1.0;"/><text fill="#000000" font-family="sans-serif" font-size="14" lengthAdjust="spacing" textLength="108.1514" x="119" y="402.3701">getTotalItems()</text></g><!--class ReadableRecollection--><g id="elem_ReadableRecollection"><rect codeLine="60" fill="#F1F1F1" height="105.1875" id="ReadableRecollection" rx="2.5" ry="2.5" style="stroke:#181818;stroke-width:0.5;" width="183.2861" x="325.5" y="531"/><ellipse cx="340.5" cy="547" fill="#B4A7E5" rx="11" ry="11" style="stroke:#181818;stroke-width:1.0;"/><path d="M336.4219,542.7656 L336.4219,540.6094 L343.8125,540.6094 L343.8125,542.7656 L341.3438,542.7656 L341.3438,550.8438 L343.8125,550.8438 L343.8125,553 L336.4219,553 L336.4219,550.8438 L338.8906,550.8438 L338.8906,542.7656 L336.4219,542.7656 Z " fill="#000000"/><text fill="#000000" font-family="sans-serif" font-size="14" font-style="italic" lengthAdjust="spacing" textLength="151.2861" x="354.5" y="551.8467">ReadableRecollection</text><line style="stroke:#181818;stroke-width:0.5;" x1="326.5" x2="507.7861" y1="563" y2="563"/><ellipse cx="336.5" cy="576.6484" fill="#84BE84" rx="3" ry="3" style="stroke:#038048;stroke-width:1.0;"/><text fill="#000000" font-family="sans-serif" font-size="14" lengthAdjust="spacing" textLength="130.1768" x="345.5" y="579.9951">containsKey($key)</text><ellipse cx="336.5" cy="592.9453" fill="#84BE84" rx="3" ry="3" style="stroke:#038048;stroke-width:1.0;"/><text fill="#000000" font-family="sans-serif" font-size="14" lengthAdjust="spacing" textLength="67.8262" x="345.5" y="596.292">get($key)</text><ellipse cx="336.5" cy="609.2422" fill="#84BE84" rx="3" ry="3" style="stroke:#038048;stroke-width:1.0;"/><text fill="#000000" font-family="sans-serif" font-size="14" lengthAdjust="spacing" textLength="80.4385" x="345.5" y="612.5889">fetch($key)</text><ellipse cx="336.5" cy="625.5391" fill="#84BE84" rx="3" ry="3" style="stroke:#038048;stroke-width:1.0;"/><text fill="#000000" font-family="sans-serif" font-size="14" lengthAdjust="spacing" textLength="102.334" x="345.5" y="628.8857">refreshCount()</text></g><!--class Recollection--><g id="elem_Recollection"><rect codeLine="70" fill="#F1F1F1" height="72.5938" id="Recollection" rx="2.5" ry="2.5" style="stroke:#181818;stroke-width:0.5;" width="148.2813" x="544" y="547"/><ellipse cx="572.8467" cy="563" fill="#B4A7E5" rx="11" ry="11" style="stroke:#181818;stroke-width:1.0;"/><path d="M568.7686,558.7656 L568.7686,556.6094 L576.1592,556.6094 L576.1592,558.7656 L573.6905,558.7656 L573.6905,566.8438 L576.1592,566.8438 L576.1592,569 L568.7686,569 L568.7686,566.8438 L571.2374,566.8438 L571.2374,558.7656 L568.7686,558.7656 Z " fill="#000000"/><text fill="#000000" font-family="sans-serif" font-size="14" font-style="italic" lengthAdjust="spacing" textLength="85.5107" x="589.9238" y="567.8467">Recollection</text><line style="stroke:#181818;stroke-width:0.5;" x1="545" x2="691.2813" y1="579" y2="579"/><ellipse cx="555" cy="592.6484" fill="#84BE84" rx="3" ry="3" style="stroke:#038048;stroke-width:1.0;"/><text fill="#000000" font-family="sans-serif" font-size="14" lengthAdjust="spacing" textLength="98.3076" x="564" y="595.9951">remove($key)</text><ellipse cx="555" cy="608.9453" fill="#84BE84" rx="3" ry="3" style="stroke:#038048;stroke-width:1.0;"/><text fill="#000000" font-family="sans-serif" font-size="14" lengthAdjust="spacing" textLength="122.2813" x="564" y="612.292">set($key, $value)</text></g><!--reverse link Countable to ReadableCollection--><g id="link_Countable_ReadableCollection"><path codeLine="33" d="M277.3829,116.4726 C312.4329,162.7826 372.55,242.23 407.55,288.48 " fill="none" id="Countable-backto-ReadableCollection" style="stroke:#181818;stroke-width:1.0;"/><polygon fill="none" points="266.52,102.12,272.5987,120.0936,282.1671,112.8517,266.52,102.12" style="stroke:#181818;stroke-width:1.0;"/></g><!--reverse link IteratorAggregate to ReadableCollection--><g id="link_IteratorAggregate_ReadableCollection"><path codeLine="34" d="M431.2508,120.1175 C430.4808,166.4275 429.22,242.23 428.45,288.48 " fill="none" id="IteratorAggregate-backto-ReadableCollection" style="stroke:#181818;stroke-width:1.0;"/><polygon fill="none" points="431.55,102.12,425.2516,120.0178,437.2499,120.2173,431.55,102.12" style="stroke:#181818;stroke-width:1.0;"/></g><!--reverse link ArrayAccess to Collection--><g id="link_ArrayAccess_Collection"><path codeLine="40" d="M618,120.12 C618,166.43 618,242.23 618,288.48 " fill="none" id="ArrayAccess-backto-Collection" style="stroke:#181818;stroke-width:1.0;"/><polygon fill="none" points="618,102.12,612,120.12,624,120.12,618,102.12" style="stroke:#181818;stroke-width:1.0;"/></g><!--reverse link ReadableCollection to Collection--><g id="link_ReadableCollection_Collection"><path codeLine="42" d="M529.87,316.5 C541.34,316.5 534.81,316.5 546.28,316.5 " fill="none" id="ReadableCollection-backto-Collection" style="stroke:#181818;stroke-width:1.0;"/><polygon fill="none" points="511.87,316.5,529.87,322.5,529.87,310.5,511.87,316.5" style="stroke:#181818;stroke-width:1.0;"/></g><!--reverse link PageableInterface to ReadableRecollection--><g id="link_PageableInterface_ReadableRecollection"><path codeLine="67" d="M283.5798,423.9523 C317.6198,464.4023 344.66,496.54 373.49,530.79 " fill="none" id="PageableInterface-backto-ReadableRecollection" style="stroke:#181818;stroke-width:1.0;"/><polygon fill="none" points="271.99,410.18,278.9891,427.8156,288.1706,420.089,271.99,410.18" style="stroke:#181818;stroke-width:1.0;"/></g><!--reverse link ReadableCollection to ReadableRecollection--><g id="link_ReadableCollection_ReadableRecollection"><path codeLine="68" d="M426.1163,362.8446 C424.3063,406.6146 421.46,475.13 419.15,530.81 " fill="none" id="ReadableCollection-backto-ReadableRecollection" style="stroke:#181818;stroke-width:1.0;"/><polygon fill="none" points="426.86,344.86,420.1214,362.5967,432.1112,363.0925,426.86,344.86" style="stroke:#181818;stroke-width:1.0;"/></g><!--reverse link ReadableRecollection to Recollection--><g id="link_ReadableRecollection_Recollection"><path codeLine="75" d="M526.86,583.5 C538.52,583.5 532.17,583.5 543.82,583.5 " fill="none" id="ReadableRecollection-backto-Recollection" style="stroke:#181818;stroke-width:1.0;"/><polygon fill="none" points="508.86,583.5,526.86,589.5,526.86,577.5,508.86,583.5" style="stroke:#181818;stroke-width:1.0;"/></g><!--reverse link Collection to Recollection--><g id="link_Collection_Recollection"><path codeLine="76" d="M618,362.86 C618,411.13 618,493.35 618,546.92 " fill="none" id="Collection-backto-Recollection" style="stroke:#181818;stroke-width:1.0;"/><polygon fill="none" points="618,344.86,612,362.86,624,362.86,618,344.86" style="stroke:#181818;stroke-width:1.0;"/></g><!--SRC=[dLF1Rjim3BthAuGW1nTR4EosGp0W2r0is0v5knzWPDeMB4i6nNHmj_px9CUD7TifYlfaaO-FZq-KBxMjWQ0oJfMOoWEeCYTtjEdE6KUI2QmF0BGiX7y5oph08CSdRWnAGiLWSuEYq2bAh6fkP8LSkDGFGy1C-d1az49iV2pz9bXpOFWhPFX-ED8lpZAOhT6vhK9FQJ3ZDdaV4a_w1UMNh_svRMyTLM34IMpM7QdevCcwg3jkRHaf0uLoImJDLYdqNeANYy5vqO7ZbtG3I5TfPaplsin9ZDXsmIg6Gv0HkIwd3p3jmm-messU4-R0PyP9z3tCfzw1HUfKSDtYMZbZmaLfPozpziqV4TAeUtS1jTsduNSFrXkp-RTQpJHeKTEXRw4dlby9_O30uHx4fYivxZPZIW0EOKEZ2KimBjSbhEDl7OAqKc5B2HJFMFuG095zVudqmZ_bo37_lTcduHNeJ2CbTvDqbqJQ6V1-1BZNv5lKAFuBPiCnv9EbPo2-peGxglm3qhZeZ-RYLYwK_NRX8PzPPn9jOJAti0CV1olxbfElz_I8VS7Gp5WAslgVs2JB4fjhEUDGXgoASP0m8_H5kzJ9rHfDh_6yJ7EYtjYgMnMJKUT79ApSCuvL-swwptBv3EQ8Ly9dNOlxFL4yerGDty1_]--></g></svg>