<svg xmlns="http://www.w3.org/2000/svg" xmlns:xlink="http://www.w3.org/1999/xlink" contentStyleType="text/css" height="257px" preserveAspectRatio="none" style="width:524px;height:257px;" version="1.1" viewBox="0 0 524 257" width="524px" zoomAndPan="magnify"><defs/><g><!--cluster rekalogika/collections-contracts--><g id="cluster_rekalogika/collections-contracts"><rect fill="none" height="244" rx="2.5" ry="2.5" style="stroke:#000000;stroke-width:1.5;" width="511" x="7" y="7"/><text fill="#000000" font-family="sans-serif" font-size="18" lengthAdjust="spacing" textLength="286.2598" x="119.3701" y="25.708">rekalogika/collections-contracts</text></g><!--class MinimalReadableRecollection--><g id="elem_MinimalReadableRecollection"><rect codeLine="15" fill="#F1F1F1" height="56.2969" id="MinimalReadableRecollection" rx="2.5" ry="2.5" style="stroke:#181818;stroke-width:0.5;" width="238.124" x="29" y="46"/><ellipse cx="44" cy="62" fill="#B4A7E5" rx="11" ry="11" style="stroke:#181818;stroke-width:1.0;"/><path d="M39.9219,57.7656 L39.9219,55.6094 L47.3125,55.6094 L47.3125,57.7656 L44.8438,57.7656 L44.8438,65.8438 L47.3125,65.8438 L47.3125,68 L39.9219,68 L39.9219,65.8438 L42.3906,65.8438 L42.3906,57.7656 L39.9219,57.7656 Z " fill="#000000"/><text fill="#000000" font-family="sans-serif" font-size="14" font-style="italic" lengthAdjust="spacing" textLength="206.124" x="58" y="66.8467">MinimalReadableRecollection</text><line style="stroke:#181818;stroke-width:0.5;" x1="30" x2="266.124" y1="78" y2="78"/><text fill="#000000" font-family="sans-serif" font-size="14" lengthAdjust="spacing" textLength="131.3047" x="35" y="94.9951">(methods omitted)</text></g><!--class MinimalRecollection--><g id="elem_MinimalRecollection"><rect codeLine="19" fill="#F1F1F1" height="56.2969" id="MinimalRecollection" rx="2.5" ry="2.5" style="stroke:#181818;stroke-width:0.5;" width="172.3486" x="305" y="46"/><ellipse cx="320" cy="62" fill="#B4A7E5" rx="11" ry="11" style="stroke:#181818;stroke-width:1.0;"/><path d="M315.9219,57.7656 L315.9219,55.6094 L323.3125,55.6094 L323.3125,57.7656 L320.8438,57.7656 L320.8438,65.8438 L323.3125,65.8438 L323.3125,68 L315.9219,68 L315.9219,65.8438 L318.3906,65.8438 L318.3906,57.7656 L315.9219,57.7656 Z " fill="#000000"/><text fill="#000000" font-family="sans-serif" font-size="14" font-style="italic" lengthAdjust="spacing" textLength="140.3486" x="334" y="66.8467">MinimalRecollection</text><line style="stroke:#181818;stroke-width:0.5;" x1="306" x2="476.3486" y1="78" y2="78"/><text fill="#000000" font-family="sans-serif" font-size="14" lengthAdjust="spacing" textLength="131.3047" x="311" y="94.9951">(methods omitted)</text></g><!--class MinimalReadableRepository--><g id="elem_MinimalReadableRepository"><rect codeLine="25" fill="#F1F1F1" height="56.2969" id="MinimalReadableRepository" rx="2.5" ry="2.5" style="stroke:#181818;stroke-width:0.5;" width="227.6855" x="23" y="170.5"/><ellipse cx="38" cy="186.5" fill="#B4A7E5" rx="11" ry="11" style="stroke:#181818;stroke-width:1.0;"/><path d="M33.9219,182.2656 L33.9219,180.1094 L41.3125,180.1094 L41.3125,182.2656 L38.8438,182.2656 L38.8438,190.3438 L41.3125,190.3438 L41.3125,192.5 L33.9219,192.5 L33.9219,190.3438 L36.3906,190.3438 L36.3906,182.2656 L33.9219,182.2656 Z " fill="#000000"/><text fill="#000000" font-family="sans-serif" font-size="14" font-style="italic" lengthAdjust="spacing" textLength="195.6855" x="52" y="191.3467">MinimalReadableRepository</text><line style="stroke:#181818;stroke-width:0.5;" x1="24" x2="249.6855" y1="202.5" y2="202.5"/><ellipse cx="34" cy="216.1484" fill="#84BE84" rx="3" ry="3" style="stroke:#038048;stroke-width:1.0;"/><text fill="#000000" font-family="sans-serif" font-size="14" lengthAdjust="spacing" textLength="112.3008" x="43" y="219.4951">reference($key)</text></g><!--class MinimalRepository--><g id="elem_MinimalRepository"><rect codeLine="31" fill="#F1F1F1" height="72.5938" id="MinimalRepository" rx="2.5" ry="2.5" style="stroke:#181818;stroke-width:0.5;" width="214.9932" x="286.5" y="162"/><ellipse cx="325.3874" cy="178" fill="#B4A7E5" rx="11" ry="11" style="stroke:#181818;stroke-width:1.0;"/><path d="M321.3092,173.7656 L321.3092,171.6094 L328.6999,171.6094 L328.6999,173.7656 L326.2311,173.7656 L326.2311,181.8438 L328.6999,181.8438 L328.6999,184 L321.3092,184 L321.3092,181.8438 L323.778,181.8438 L323.778,173.7656 L321.3092,173.7656 Z " fill="#000000"/><text fill="#000000" font-family="sans-serif" font-size="14" font-style="italic" lengthAdjust="spacing" textLength="129.9102" x="344.6957" y="182.8467">MinimalRepository</text><line style="stroke:#181818;stroke-width:0.5;" x1="287.5" x2="500.4932" y1="194" y2="194"/><ellipse cx="297.5" cy="207.6484" fill="#84BE84" rx="3" ry="3" style="stroke:#038048;stroke-width:1.0;"/><text fill="#000000" font-family="sans-serif" font-size="14" lengthAdjust="spacing" textLength="98.3076" x="306.5" y="210.9951">remove($key)</text><ellipse cx="297.5" cy="223.9453" fill="#84BE84" rx="3" ry="3" style="stroke:#038048;stroke-width:1.0;"/><text fill="#000000" font-family="sans-serif" font-size="14" lengthAdjust="spacing" textLength="188.9932" x="306.5" y="227.292">removeElement($element)</text></g><!--reverse link MinimalReadableRecollection to MinimalRecollection--><g id="link_MinimalReadableRecollection_MinimalRecollection"><path codeLine="23" d="M285.13,74 C297.71,74 292.29,74 304.87,74 " fill="none" id="MinimalReadableRecollection-backto-MinimalRecollection" style="stroke:#181818;stroke-width:1.0;"/><polygon fill="none" points="267.13,74,285.13,80,285.13,68,267.13,74" style="stroke:#181818;stroke-width:1.0;"/></g><!--reverse link MinimalReadableRecollection to MinimalReadableRepository--><g id="link_MinimalReadableRecollection_MinimalReadableRepository"><path codeLine="29" d="M143.9527,120.1181 C142.1327,140.4181 141.26,150.11 139.43,170.39 " fill="none" id="MinimalReadableRecollection-backto-MinimalReadableRepository" style="stroke:#181818;stroke-width:1.0;"/><polygon fill="none" points="145.56,102.19,137.9766,119.5823,149.9287,120.6539,145.56,102.19" style="stroke:#181818;stroke-width:1.0;"/></g><!--reverse link MinimalReadableRepository to MinimalRepository--><g id="link_MinimalReadableRepository_MinimalRepository"><path codeLine="36" d="M269.19,198.5 C280.91,198.5 274.62,198.5 286.34,198.5 " fill="none" id="MinimalReadableRepository-backto-MinimalRepository" style="stroke:#181818;stroke-width:1.0;"/><polygon fill="none" points="251.19,198.5,269.19,204.5,269.19,192.5,251.19,198.5" style="stroke:#181818;stroke-width:1.0;"/></g><!--reverse link MinimalRecollection to MinimalRepository--><g id="link_MinimalRecollection_MinimalRepository"><path codeLine="37" d="M392.1024,120.1848 C392.5224,137.6648 392.65,142.58 393.12,161.55 " fill="none" id="MinimalRecollection-backto-MinimalRepository" style="stroke:#181818;stroke-width:1.0;"/><polygon fill="none" points="391.67,102.19,386.1041,120.3289,398.1006,120.0407,391.67,102.19" style="stroke:#181818;stroke-width:1.0;"/></g><!--SRC=[bPB1Ri8m38RlUOe8SM2Q4Dfj1pHfcZRjiWiyWKdTOZM9AyTCAXllli0wA19b8gSq_lt_dvEccc830i6pgx6mAt1r9Ro9nGjx5gi2CMK1HZKc_ObjasLGuL9RZrRGASJAerbJWHP3ewqDg6ikKly8L8LM6yLap3pjMv-CacQ7BsFpUcUXBKS5_-ofYY5dMe-b7eflkR2aBTg7nzFt8Jwo1F1cP-QppjHqU7OaM8FdYcgOEVO-WnB7D7MvMS1f6dNH51Mb18VsWo9bkmL20IkF2pprTThzcdJZMGwaYiNTeR8pGsQtcrpZc7zFBrcR_qPfE96oj3s6Uy4Iy-iwd8nhR6z1c0u7399S9WZysO_ldRvwtFy6ap7-Rgxp7TtFBkW8TTOpECjHlZC_]--></g></svg>