<svg xmlns="http://www.w3.org/2000/svg" xmlns:xlink="http://www.w3.org/1999/xlink" contentStyleType="text/css" height="525px" preserveAspectRatio="none" style="width:839px;height:525px;" version="1.1" viewBox="0 0 839 525" width="839px" zoomAndPan="magnify"><defs/><g><!--cluster doctrine/collections--><g id="cluster_doctrine/collections"><rect fill="none" height="99" rx="2.5" ry="2.5" style="stroke:#000000;stroke-width:1.5;" width="171" x="298" y="7"/><text fill="#000000" font-family="sans-serif" font-size="14" font-weight="bold" lengthAdjust="spacing" textLength="155.627" x="305.6865" y="21.9951">doctrine/collections</text></g><!--cluster rekalogika/doctrine-collections-decorator--><g id="cluster_rekalogika/doctrine-collections-decorator"><rect fill="none" height="99" rx="2.5" ry="2.5" style="stroke:#000000;stroke-width:1.5;" width="343" x="490" y="139"/><text fill="#000000" font-family="sans-serif" font-size="14" font-weight="bold" lengthAdjust="spacing" textLength="327.4004" x="497.7998" y="153.9951">rekalogika/doctrine-collections-decorator</text></g><!--cluster app--><g id="cluster_app"><rect fill="none" height="248" rx="2.5" ry="2.5" style="stroke:#000000;stroke-width:1.5;" width="729" x="7" y="271"/><text fill="#000000" font-family="sans-serif" font-size="14" font-weight="bold" lengthAdjust="spacing" textLength="29.4902" x="356.7549" y="285.9951">app</text></g><!--class Collection--><g id="elem_Collection"><rect codeLine="5" fill="#F1F1F1" height="48" id="Collection" rx="2.5" ry="2.5" style="stroke:#181818;stroke-width:0.5;" width="112.5781" x="326.5" y="42"/><ellipse cx="341.5" cy="58" fill="#B4A7E5" rx="11" ry="11" style="stroke:#181818;stroke-width:1.0;"/><path d="M337.4219,53.7656 L337.4219,51.6094 L344.8125,51.6094 L344.8125,53.7656 L342.3438,53.7656 L342.3438,61.8438 L344.8125,61.8438 L344.8125,64 L337.4219,64 L337.4219,61.8438 L339.8906,61.8438 L339.8906,53.7656 L337.4219,53.7656 Z " fill="#000000"/><text fill="#000000" font-family="sans-serif" font-size="14" font-style="italic" lengthAdjust="spacing" textLength="69.248" x="355.5" y="62.8467">Collection</text><rect fill="none" height="15.9688" style="stroke:#181818;stroke-width:1.0;stroke-dasharray:2.0,2.0;" width="9.3301" x="432.748" y="39"/><text fill="#000000" font-family="sans-serif" font-size="12" font-style="italic" lengthAdjust="spacing" textLength="7.3301" x="433.748" y="51.1387">T</text><line style="stroke:#181818;stroke-width:0.5;" x1="327.5" x2="438.0781" y1="74" y2="74"/><line style="stroke:#181818;stroke-width:0.5;" x1="327.5" x2="438.0781" y1="82" y2="82"/></g><!--class CollectionDecorator--><g id="elem_CollectionDecorator"><rect codeLine="10" fill="#F1F1F1" height="48" id="CollectionDecorator" rx="2.5" ry="2.5" style="stroke:#181818;stroke-width:0.5;" width="171.0498" x="507.5" y="174"/><ellipse cx="522.5" cy="190" fill="#ADD1B2" rx="11" ry="11" style="stroke:#181818;stroke-width:1.0;"/><path d="M525.4688,195.6406 Q524.8906,195.9375 524.25,196.0781 Q523.6094,196.2344 522.9063,196.2344 Q520.4063,196.2344 519.0781,194.5938 Q517.7656,192.9375 517.7656,189.8125 Q517.7656,186.6875 519.0781,185.0313 Q520.4063,183.375 522.9063,183.375 Q523.6094,183.375 524.25,183.5313 Q524.9063,183.6875 525.4688,183.9844 L525.4688,186.7031 Q524.8438,186.125 524.25,185.8594 Q523.6563,185.5781 523.0313,185.5781 Q521.6875,185.5781 521,186.6563 Q520.3125,187.7188 520.3125,189.8125 Q520.3125,191.9063 521,192.9844 Q521.6875,194.0469 523.0313,194.0469 Q523.6563,194.0469 524.25,193.7813 Q524.8438,193.5 525.4688,192.9219 L525.4688,195.6406 Z " fill="#000000"/><text fill="#000000" font-family="sans-serif" font-size="14" lengthAdjust="spacing" textLength="139.0498" x="536.5" y="194.8467">CollectionDecorator</text><line style="stroke:#181818;stroke-width:0.5;" x1="508.5" x2="677.5498" y1="206" y2="206"/><line style="stroke:#181818;stroke-width:0.5;" x1="508.5" x2="677.5498" y1="214" y2="214"/></g><!--class BusinessContractInterface--><g id="elem_BusinessContractInterface"><rect codeLine="17" fill="#F1F1F1" height="48" id="BusinessContractInterface" rx="2.5" ry="2.5" style="stroke:#181818;stroke-width:0.5;" width="216.6387" x="23.5" y="318"/><ellipse cx="38.5" cy="334" fill="#B4A7E5" rx="11" ry="11" style="stroke:#181818;stroke-width:1.0;"/><path d="M34.4219,329.7656 L34.4219,327.6094 L41.8125,327.6094 L41.8125,329.7656 L39.3438,329.7656 L39.3438,337.8438 L41.8125,337.8438 L41.8125,340 L34.4219,340 L34.4219,337.8438 L36.8906,337.8438 L36.8906,329.7656 L34.4219,329.7656 Z " fill="#000000"/><text fill="#000000" font-family="sans-serif" font-size="14" font-style="italic" lengthAdjust="spacing" textLength="184.6387" x="52.5" y="338.8467">BusinessContractInterface</text><line style="stroke:#181818;stroke-width:0.5;" x1="24.5" x2="239.1387" y1="350" y2="350"/><line style="stroke:#181818;stroke-width:0.5;" x1="24.5" x2="239.1387" y1="358" y2="358"/></g><!--class BusinessContract--><g id="elem_BusinessContract"><rect codeLine="20" fill="#F1F1F1" height="56.2656" id="BusinessContract" rx="2.5" ry="2.5" style="stroke:#181818;stroke-width:0.5;" width="153.96" x="23" y="443"/><ellipse cx="38" cy="463.1328" fill="#ADD1B2" rx="11" ry="11" style="stroke:#181818;stroke-width:1.0;"/><path d="M40.9688,468.7734 Q40.3906,469.0703 39.75,469.2109 Q39.1094,469.3672 38.4063,469.3672 Q35.9063,469.3672 34.5781,467.7266 Q33.2656,466.0703 33.2656,462.9453 Q33.2656,459.8203 34.5781,458.1641 Q35.9063,456.5078 38.4063,456.5078 Q39.1094,456.5078 39.75,456.6641 Q40.4063,456.8203 40.9688,457.1172 L40.9688,459.8359 Q40.3438,459.2578 39.75,458.9922 Q39.1563,458.7109 38.5313,458.7109 Q37.1875,458.7109 36.5,459.7891 Q35.8125,460.8516 35.8125,462.9453 Q35.8125,465.0391 36.5,466.1172 Q37.1875,467.1797 38.5313,467.1797 Q39.1563,467.1797 39.75,466.9141 Q40.3438,466.6328 40.9688,466.0547 L40.9688,468.7734 Z " fill="#000000"/><text fill="#000000" font-family="sans-serif" font-size="12" font-style="italic" lengthAdjust="spacing" textLength="49.8457" x="88.0571" y="459.1387">&#171;Entity&#187;</text><text fill="#000000" font-family="sans-serif" font-size="14" lengthAdjust="spacing" textLength="121.96" x="52" y="474.9639">BusinessContract</text><line style="stroke:#181818;stroke-width:0.5;" x1="24" x2="175.96" y1="483.2656" y2="483.2656"/><line style="stroke:#181818;stroke-width:0.5;" x1="24" x2="175.96" y1="491.2656" y2="491.2656"/></g><!--class BusinessContractDecorator--><g id="elem_BusinessContractDecorator"><rect codeLine="23" fill="#F1F1F1" height="64.2969" id="BusinessContractDecorator" rx="2.5" ry="2.5" style="stroke:#181818;stroke-width:0.5;" width="280.8643" x="212.5" y="439"/><ellipse cx="253.1961" cy="455" fill="#ADD1B2" rx="11" ry="11" style="stroke:#181818;stroke-width:1.0;"/><path d="M256.1649,460.6406 Q255.5868,460.9375 254.9461,461.0781 Q254.3055,461.2344 253.6024,461.2344 Q251.1024,461.2344 249.7743,459.5938 Q248.4618,457.9375 248.4618,454.8125 Q248.4618,451.6875 249.7743,450.0313 Q251.1024,448.375 253.6024,448.375 Q254.3055,448.375 254.9461,448.5313 Q255.6024,448.6875 256.1649,448.9844 L256.1649,451.7031 Q255.5399,451.125 254.9461,450.8594 Q254.3524,450.5781 253.7274,450.5781 Q252.3836,450.5781 251.6961,451.6563 Q251.0086,452.7188 251.0086,454.8125 Q251.0086,456.9063 251.6961,457.9844 Q252.3836,459.0469 253.7274,459.0469 Q254.3524,459.0469 254.9461,458.7813 Q255.5399,458.5 256.1649,457.9219 L256.1649,460.6406 Z " fill="#000000"/><text fill="#000000" font-family="sans-serif" font-size="14" lengthAdjust="spacing" textLength="191.7617" x="272.9064" y="459.8467">BusinessContractDecorator</text><line style="stroke:#181818;stroke-width:0.5;" x1="213.5" x2="492.3643" y1="471" y2="471"/><rect fill="none" height="6" style="stroke:#C82930;stroke-width:1.0;" width="6" x="220.5" y="481.6484"/><text fill="#000000" font-family="sans-serif" font-size="14" lengthAdjust="spacing" textLength="254.8643" x="232.5" y="487.9951">wrapped: BusinessContractInterface</text><line style="stroke:#181818;stroke-width:0.5;" x1="213.5" x2="492.3643" y1="495.2969" y2="495.2969"/></g><!--class CollectionOfBusinessContracts--><g id="elem_CollectionOfBusinessContracts"><rect codeLine="29" fill="#F1F1F1" height="48" id="CollectionOfBusinessContracts" rx="2.5" ry="2.5" style="stroke:#181818;stroke-width:0.5;" width="101.248" x="275.5" y="318"/><ellipse cx="290.5" cy="334" fill="#B4A7E5" rx="11" ry="11" style="stroke:#181818;stroke-width:1.0;"/><path d="M286.4219,329.7656 L286.4219,327.6094 L293.8125,327.6094 L293.8125,329.7656 L291.3438,329.7656 L291.3438,337.8438 L293.8125,337.8438 L293.8125,340 L286.4219,340 L286.4219,337.8438 L288.8906,337.8438 L288.8906,329.7656 L286.4219,329.7656 Z " fill="#000000"/><text fill="#000000" font-family="sans-serif" font-size="14" font-style="italic" lengthAdjust="spacing" textLength="69.248" x="304.5" y="338.8467">Collection</text><line style="stroke:#181818;stroke-width:0.5;" x1="276.5" x2="375.748" y1="350" y2="350"/><line style="stroke:#181818;stroke-width:0.5;" x1="276.5" x2="375.748" y1="358" y2="358"/></g><!--class BusinessContractCollectionDecorator--><g id="elem_BusinessContractCollectionDecorator"><rect codeLine="32" fill="#F1F1F1" height="64.2969" id="BusinessContractCollectionDecorator" rx="2.5" ry="2.5" style="stroke:#181818;stroke-width:0.5;" width="293.0098" x="419.5" y="310"/><ellipse cx="434.5" cy="326" fill="#ADD1B2" rx="11" ry="11" style="stroke:#181818;stroke-width:1.0;"/><path d="M437.4688,331.6406 Q436.8906,331.9375 436.25,332.0781 Q435.6094,332.2344 434.9063,332.2344 Q432.4063,332.2344 431.0781,330.5938 Q429.7656,328.9375 429.7656,325.8125 Q429.7656,322.6875 431.0781,321.0313 Q432.4063,319.375 434.9063,319.375 Q435.6094,319.375 436.25,319.5313 Q436.9063,319.6875 437.4688,319.9844 L437.4688,322.7031 Q436.8438,322.125 436.25,321.8594 Q435.6563,321.5781 435.0313,321.5781 Q433.6875,321.5781 433,322.6563 Q432.3125,323.7188 432.3125,325.8125 Q432.3125,327.9063 433,328.9844 Q433.6875,330.0469 435.0313,330.0469 Q435.6563,330.0469 436.25,329.7813 Q436.8438,329.5 437.4688,328.9219 L437.4688,331.6406 Z " fill="#000000"/><text fill="#000000" font-family="sans-serif" font-size="14" lengthAdjust="spacing" textLength="261.0098" x="448.5" y="330.8467">BusinessContractCollectionDecorator</text><line style="stroke:#181818;stroke-width:0.5;" x1="420.5" x2="711.5098" y1="342" y2="342"/><rect fill="none" height="6" style="stroke:#C82930;stroke-width:1.0;" width="6" x="427.5" y="352.6484"/><text fill="#000000" font-family="sans-serif" font-size="14" lengthAdjust="spacing" textLength="139.4736" x="439.5" y="358.9951">wrapped: Collection</text><line style="stroke:#181818;stroke-width:0.5;" x1="420.5" x2="711.5098" y1="366.2969" y2="366.2969"/></g><!--reverse link Collection to CollectionDecorator--><g id="link_Collection_CollectionDecorator"><path codeLine="14" d="M435.8459,99.7126 C474.0759,123.3726 517.67,150.37 555.78,173.96 " fill="none" id="Collection-backto-CollectionDecorator" style="stroke:#181818;stroke-width:1.0;stroke-dasharray:7.0,7.0;"/><polygon fill="none" points="420.54,90.24,432.6884,104.8146,439.0034,94.6106,420.54,90.24" style="stroke:#181818;stroke-width:1.0;"/></g><!--reverse link BusinessContractInterface to BusinessContract--><g id="link_BusinessContractInterface_BusinessContract"><path d="M121.7321,383.7445 C116.2821,405.3745 112.57,420.11 106.83,442.89 " fill="none" id="BusinessContractInterface-backto-BusinessContract" style="stroke:#181818;stroke-width:1.0;stroke-dasharray:7.0,7.0;"/><polygon fill="none" points="126.13,366.29,115.9139,382.2785,127.5502,385.2104,126.13,366.29" style="stroke:#181818;stroke-width:1.0;"/></g><!--reverse link BusinessContractInterface to BusinessContractDecorator--><g id="link_BusinessContractInterface_BusinessContractDecorator"><path d="M177.6301,375.884 C210.0301,396.294 246.36,416.52 287.84,438.96 " fill="none" id="BusinessContractInterface-backto-BusinessContractDecorator" style="stroke:#181818;stroke-width:1.0;stroke-dasharray:7.0,7.0;"/><polygon fill="none" points="162.4,366.29,174.4321,380.9607,180.8281,370.8073,162.4,366.29" style="stroke:#181818;stroke-width:1.0;"/></g><!--reverse link BusinessContractDecorator to BusinessContractInterface--><g id="link_BusinessContractDecorator_BusinessContractInterface"><path codeLine="27" d="M300.4289,432.5929 C263.8989,410.1229 221.78,386.54 182.98,366.15 " fill="none" id="BusinessContractDecorator-backto-BusinessContractInterface" style="stroke:#181818;stroke-width:1.0;"/><polygon fill="none" points="310.65,438.88,307.6351,432.3294,300.4289,432.5929,303.4437,439.1435,310.65,438.88" style="stroke:#181818;stroke-width:1.0;"/></g><!--link CollectionOfBusinessContracts to BusinessContractCollectionDecorator--><g id="link_CollectionOfBusinessContracts_BusinessContractCollectionDecorator"><path codeLine="36" d="M376.5,350.85 C390.22,352.65 393.15,354 407,354 " fill="none" id="CollectionOfBusinessContracts-to-BusinessContractCollectionDecorator" style="stroke:#181818;stroke-width:1.0;"/><polygon fill="none" points="419,354,413,350,407,354,413,358,419,354" style="stroke:#181818;stroke-width:1.0;"/></g><!--link BusinessContractInterface to CollectionOfBusinessContracts--><g id="link_BusinessContractInterface_CollectionOfBusinessContracts"><path codeLine="37" d="M240.75,342 C252.29,342 251.84,342 263.38,342 " fill="none" id="BusinessContractInterface-to-CollectionOfBusinessContracts" style="stroke:#181818;stroke-width:1.0;"/><polygon fill="none" points="275.38,342,269.38,338,263.38,342,269.38,346,275.38,342" style="stroke:#181818;stroke-width:1.0;"/><text fill="#000000" font-family="sans-serif" font-size="13" lengthAdjust="spacing" textLength="11.2163" x="248.0876" y="338.5907">M</text></g><!--reverse link CollectionDecorator to BusinessContractCollectionDecorator--><g id="link_CollectionDecorator_BusinessContractCollectionDecorator"><path codeLine="40" d="M585.2363,239.8129 C580.9163,262.5229 577.64,279.79 572.67,305.92 " fill="none" id="CollectionDecorator-backto-BusinessContractCollectionDecorator" style="stroke:#181818;stroke-width:1.0;"/><polygon fill="none" points="588.6,222.13,579.342,238.6917,591.1306,240.9342,588.6,222.13" style="stroke:#181818;stroke-width:1.0;"/></g><!--reverse link Collection to CollectionOfBusinessContracts--><g id="link_Collection_CollectionOfBusinessContracts"><path codeLine="41" d="M336.6187,101.7737 C324.0387,112.6037 324.73,114.93 318,131 C291.51,194.27 308.24,277.87 319,317.81 " fill="none" id="Collection-backto-CollectionOfBusinessContracts" style="stroke:#181818;stroke-width:1.0;"/><polygon fill="none" points="350.26,90.03,332.7041,97.2266,340.5332,106.3208,350.26,90.03" style="stroke:#181818;stroke-width:1.0;"/><text fill="#000000" font-family="sans-serif" font-size="13" lengthAdjust="spacing" textLength="44.2622" x="319" y="195.0669">&#171;bind&#187;</text><text fill="#000000" font-family="sans-serif" font-size="13" lengthAdjust="spacing" textLength="171.4502" x="319" y="210.1997">BusinessContractInterface</text></g><!--SRC=[fP8nRuCm48LtViM9dMH7YA6qGuSgGpjskPWBiZ0-P3kgeYR_lOu4iKC1fQf7t_FtxfxFjbBtQB1JB5ggOO-YRGmVTLsnOWFEeBPUGDebYHt5q7iPDlJkJeh0a72e6qL9Cjn3MhDmHchQ2bRAroLhcy9t0lv8xSWSK11KjsBnKGxLItA9E8PQLDp85hSZCekGMKs23Jes8rmej3O2Fu-261_AK9mtcpbvr0Fs_U_MduxMzs9jnTfd9DphhJBwHErCnL0KBzf9TofBa5slgFFvslynmw1_85vF1b_6ZqXrlYoFxPUDESjM48j_lpjC7rb02sbGf8y4iFpdaoc3C8QkzvFn8tvvFfZC1XN2Jz_IAt7LydvFmqZ5UIRbkGM-MtB_Pdt0tE_aNkgwB3_LyX_-0000]--></g></svg>