<svg xmlns="http://www.w3.org/2000/svg" xmlns:xlink="http://www.w3.org/1999/xlink" contentStyleType="text/css" height="525px" preserveAspectRatio="none" style="width:833px;height:525px;" version="1.1" viewBox="0 0 833 525" width="833px" zoomAndPan="magnify"><defs/><g><!--cluster doctrine/collections--><g id="cluster_doctrine/collections"><rect fill="none" height="99" rx="2.5" ry="2.5" style="stroke:#000000;stroke-width:1.5;" width="172" x="293" y="7"/><text fill="#000000" font-family="sans-serif" font-size="14" font-weight="bold" lengthAdjust="spacing" textLength="156" x="301" y="21.9951">doctrine/collections</text></g><!--cluster rekalogika/doctrine-collections-decorator--><g id="cluster_rekalogika/doctrine-collections-decorator"><rect fill="none" height="99" rx="2.5" ry="2.5" style="stroke:#000000;stroke-width:1.5;" width="343" x="484" y="139"/><text fill="#000000" font-family="sans-serif" font-size="14" font-weight="bold" lengthAdjust="spacing" textLength="327" x="492" y="153.9951">rekalogika/doctrine-collections-decorator</text></g><!--cluster app--><g id="cluster_app"><rect fill="none" height="248" rx="2.5" ry="2.5" style="stroke:#000000;stroke-width:1.5;" width="723" x="7" y="271"/><text fill="#000000" font-family="sans-serif" font-size="14" font-weight="bold" lengthAdjust="spacing" textLength="29" x="354" y="285.9951">app</text></g><!--class Collection--><g id="elem_Collection"><rect codeLine="5" fill="#F1F1F1" height="48" id="Collection" rx="2.5" ry="2.5" style="stroke:#181818;stroke-width:0.5;" width="111" x="323.5" y="42"/><ellipse cx="338.5" cy="58" fill="#B4A7E5" rx="11" ry="11" style="stroke:#181818;stroke-width:1.0;"/><path d="M334.4219,53.7656 L334.4219,51.6094 L341.8125,51.6094 L341.8125,53.7656 L339.3438,53.7656 L339.3438,61.8438 L341.8125,61.8438 L341.8125,64 L334.4219,64 L334.4219,61.8438 L336.8906,61.8438 L336.8906,53.7656 L334.4219,53.7656 Z " fill="#000000"/><text fill="#000000" font-family="sans-serif" font-size="14" font-style="italic" lengthAdjust="spacing" textLength="68" x="352.5" y="62.8467">Collection</text><rect fill="none" height="15.9688" style="stroke:#181818;stroke-width:1.0;stroke-dasharray:2.0,2.0;" width="9" x="428.5" y="39"/><text fill="#000000" font-family="sans-serif" font-size="12" font-style="italic" lengthAdjust="spacing" textLength="7" x="429.5" y="51.1387">T</text><line style="stroke:#181818;stroke-width:0.5;" x1="324.5" x2="433.5" y1="74" y2="74"/><line style="stroke:#181818;stroke-width:0.5;" x1="324.5" x2="433.5" y1="82" y2="82"/></g><!--class CollectionDecorator--><g id="elem_CollectionDecorator"><rect codeLine="10" fill="#F1F1F1" height="48" id="CollectionDecorator" rx="2.5" ry="2.5" style="stroke:#181818;stroke-width:0.5;" width="169" x="501.5" y="174"/><ellipse cx="516.5" cy="190" fill="#ADD1B2" rx="11" ry="11" style="stroke:#181818;stroke-width:1.0;"/><path d="M519.4688,195.6406 Q518.8906,195.9375 518.25,196.0781 Q517.6094,196.2344 516.9063,196.2344 Q514.4063,196.2344 513.0781,194.5938 Q511.7656,192.9375 511.7656,189.8125 Q511.7656,186.6875 513.0781,185.0313 Q514.4063,183.375 516.9063,183.375 Q517.6094,183.375 518.25,183.5313 Q518.9063,183.6875 519.4688,183.9844 L519.4688,186.7031 Q518.8438,186.125 518.25,185.8594 Q517.6563,185.5781 517.0313,185.5781 Q515.6875,185.5781 515,186.6563 Q514.3125,187.7188 514.3125,189.8125 Q514.3125,191.9063 515,192.9844 Q515.6875,194.0469 517.0313,194.0469 Q517.6563,194.0469 518.25,193.7813 Q518.8438,193.5 519.4688,192.9219 L519.4688,195.6406 Z " fill="#000000"/><text fill="#000000" font-family="sans-serif" font-size="14" lengthAdjust="spacing" textLength="137" x="530.5" y="194.8467">CollectionDecorator</text><line style="stroke:#181818;stroke-width:0.5;" x1="502.5" x2="669.5" y1="206" y2="206"/><line style="stroke:#181818;stroke-width:0.5;" x1="502.5" x2="669.5" y1="214" y2="214"/></g><!--class BusinessContractInterface--><g id="elem_BusinessContractInterface"><rect codeLine="17" fill="#F1F1F1" height="48" id="BusinessContractInterface" rx="2.5" ry="2.5" style="stroke:#181818;stroke-width:0.5;" width="213" x="22.5" y="318"/><ellipse cx="37.5" cy="334" fill="#B4A7E5" rx="11" ry="11" style="stroke:#181818;stroke-width:1.0;"/><path d="M33.4219,329.7656 L33.4219,327.6094 L40.8125,327.6094 L40.8125,329.7656 L38.3438,329.7656 L38.3438,337.8438 L40.8125,337.8438 L40.8125,340 L33.4219,340 L33.4219,337.8438 L35.8906,337.8438 L35.8906,329.7656 L33.4219,329.7656 Z " fill="#000000"/><text fill="#000000" font-family="sans-serif" font-size="14" font-style="italic" lengthAdjust="spacing" textLength="181" x="51.5" y="338.8467">BusinessContractInterface</text><line style="stroke:#181818;stroke-width:0.5;" x1="23.5" x2="234.5" y1="350" y2="350"/><line style="stroke:#181818;stroke-width:0.5;" x1="23.5" x2="234.5" y1="358" y2="358"/></g><!--class BusinessContract--><g id="elem_BusinessContract"><rect codeLine="20" fill="#F1F1F1" height="56.2656" id="BusinessContract" rx="2.5" ry="2.5" style="stroke:#181818;stroke-width:0.5;" width="155" x="23.5" y="443"/><ellipse cx="38.5" cy="463.1328" fill="#ADD1B2" rx="11" ry="11" style="stroke:#181818;stroke-width:1.0;"/><path d="M41.4688,468.7734 Q40.8906,469.0703 40.25,469.2109 Q39.6094,469.3672 38.9063,469.3672 Q36.4063,469.3672 35.0781,467.7266 Q33.7656,466.0703 33.7656,462.9453 Q33.7656,459.8203 35.0781,458.1641 Q36.4063,456.5078 38.9063,456.5078 Q39.6094,456.5078 40.25,456.6641 Q40.9063,456.8203 41.4688,457.1172 L41.4688,459.8359 Q40.8438,459.2578 40.25,458.9922 Q39.6563,458.7109 39.0313,458.7109 Q37.6875,458.7109 37,459.7891 Q36.3125,460.8516 36.3125,462.9453 Q36.3125,465.0391 37,466.1172 Q37.6875,467.1797 39.0313,467.1797 Q39.6563,467.1797 40.25,466.9141 Q40.8438,466.6328 41.4688,466.0547 L41.4688,468.7734 Z " fill="#000000"/><text fill="#000000" font-family="sans-serif" font-size="12" font-style="italic" lengthAdjust="spacing" textLength="50" x="89" y="459.1387">&#171;Entity&#187;</text><text fill="#000000" font-family="sans-serif" font-size="14" lengthAdjust="spacing" textLength="123" x="52.5" y="474.9639">BusinessContract</text><line style="stroke:#181818;stroke-width:0.5;" x1="24.5" x2="177.5" y1="483.2656" y2="483.2656"/><line style="stroke:#181818;stroke-width:0.5;" x1="24.5" x2="177.5" y1="491.2656" y2="491.2656"/></g><!--class BusinessContractDecorator--><g id="elem_BusinessContractDecorator"><rect codeLine="23" fill="#F1F1F1" height="64.2969" id="BusinessContractDecorator" rx="2.5" ry="2.5" style="stroke:#181818;stroke-width:0.5;" width="278" x="214" y="439"/><ellipse cx="253.3" cy="455" fill="#ADD1B2" rx="11" ry="11" style="stroke:#181818;stroke-width:1.0;"/><path d="M256.2688,460.6406 Q255.6906,460.9375 255.05,461.0781 Q254.4094,461.2344 253.7063,461.2344 Q251.2063,461.2344 249.8781,459.5938 Q248.5656,457.9375 248.5656,454.8125 Q248.5656,451.6875 249.8781,450.0313 Q251.2063,448.375 253.7063,448.375 Q254.4094,448.375 255.05,448.5313 Q255.7063,448.6875 256.2688,448.9844 L256.2688,451.7031 Q255.6438,451.125 255.05,450.8594 Q254.4563,450.5781 253.8313,450.5781 Q252.4875,450.5781 251.8,451.6563 Q251.1125,452.7188 251.1125,454.8125 Q251.1125,456.9063 251.8,457.9844 Q252.4875,459.0469 253.8313,459.0469 Q254.4563,459.0469 255.05,458.7813 Q255.6438,458.5 256.2688,457.9219 L256.2688,460.6406 Z " fill="#000000"/><text fill="#000000" font-family="sans-serif" font-size="14" lengthAdjust="spacing" textLength="192" x="272.7" y="459.8467">BusinessContractDecorator</text><line style="stroke:#181818;stroke-width:0.5;" x1="215" x2="491" y1="471" y2="471"/><rect fill="none" height="6" style="stroke:#C82930;stroke-width:1.0;" width="6" x="222" y="481.6484"/><text fill="#000000" font-family="sans-serif" font-size="14" lengthAdjust="spacing" textLength="252" x="234" y="487.9951">wrapped: BusinessContractInterface</text><line style="stroke:#181818;stroke-width:0.5;" x1="215" x2="491" y1="495.2969" y2="495.2969"/></g><!--class CollectionOfBusinessContracts--><g id="elem_CollectionOfBusinessContracts"><rect codeLine="29" fill="#F1F1F1" height="48" id="CollectionOfBusinessContracts" rx="2.5" ry="2.5" style="stroke:#181818;stroke-width:0.5;" width="100" x="271" y="318"/><ellipse cx="286" cy="334" fill="#B4A7E5" rx="11" ry="11" style="stroke:#181818;stroke-width:1.0;"/><path d="M281.9219,329.7656 L281.9219,327.6094 L289.3125,327.6094 L289.3125,329.7656 L286.8438,329.7656 L286.8438,337.8438 L289.3125,337.8438 L289.3125,340 L281.9219,340 L281.9219,337.8438 L284.3906,337.8438 L284.3906,329.7656 L281.9219,329.7656 Z " fill="#000000"/><text fill="#000000" font-family="sans-serif" font-size="14" font-style="italic" lengthAdjust="spacing" textLength="68" x="300" y="338.8467">Collection</text><line style="stroke:#181818;stroke-width:0.5;" x1="272" x2="370" y1="350" y2="350"/><line style="stroke:#181818;stroke-width:0.5;" x1="272" x2="370" y1="358" y2="358"/></g><!--class BusinessContractCollectionDecorator--><g id="elem_BusinessContractCollectionDecorator"><rect codeLine="32" fill="#F1F1F1" height="64.2969" id="BusinessContractCollectionDecorator" rx="2.5" ry="2.5" style="stroke:#181818;stroke-width:0.5;" width="292" x="414" y="310"/><ellipse cx="429" cy="326" fill="#ADD1B2" rx="11" ry="11" style="stroke:#181818;stroke-width:1.0;"/><path d="M431.9688,331.6406 Q431.3906,331.9375 430.75,332.0781 Q430.1094,332.2344 429.4063,332.2344 Q426.9063,332.2344 425.5781,330.5938 Q424.2656,328.9375 424.2656,325.8125 Q424.2656,322.6875 425.5781,321.0313 Q426.9063,319.375 429.4063,319.375 Q430.1094,319.375 430.75,319.5313 Q431.4063,319.6875 431.9688,319.9844 L431.9688,322.7031 Q431.3438,322.125 430.75,321.8594 Q430.1563,321.5781 429.5313,321.5781 Q428.1875,321.5781 427.5,322.6563 Q426.8125,323.7188 426.8125,325.8125 Q426.8125,327.9063 427.5,328.9844 Q428.1875,330.0469 429.5313,330.0469 Q430.1563,330.0469 430.75,329.7813 Q431.3438,329.5 431.9688,328.9219 L431.9688,331.6406 Z " fill="#000000"/><text fill="#000000" font-family="sans-serif" font-size="14" lengthAdjust="spacing" textLength="260" x="443" y="330.8467">BusinessContractCollectionDecorator</text><line style="stroke:#181818;stroke-width:0.5;" x1="415" x2="705" y1="342" y2="342"/><rect fill="none" height="6" style="stroke:#C82930;stroke-width:1.0;" width="6" x="422" y="352.6484"/><text fill="#000000" font-family="sans-serif" font-size="14" lengthAdjust="spacing" textLength="137" x="434" y="358.9951">wrapped: Collection</text><line style="stroke:#181818;stroke-width:0.5;" x1="415" x2="705" y1="366.2969" y2="366.2969"/></g><!--reverse link Collection to CollectionDecorator--><g id="link_Collection_CollectionDecorator"><path codeLine="14" d="M431.2539,99.812 C468.9339,123.472 511.75,150.37 549.31,173.96 " fill="none" id="Collection-backto-CollectionDecorator" style="stroke:#181818;stroke-width:1.0;stroke-dasharray:7.0,7.0;"/><polygon fill="none" points="416.01,90.24,428.0633,104.8933,434.4446,94.7306,416.01,90.24" style="stroke:#181818;stroke-width:1.0;"/></g><!--reverse link BusinessContractInterface to BusinessContract--><g id="link_BusinessContractInterface_BusinessContract"><path d="M119.9914,383.8694 C115.2314,405.4994 112,420.11 106.98,442.89 " fill="none" id="BusinessContractInterface-backto-BusinessContract" style="stroke:#181818;stroke-width:1.0;stroke-dasharray:7.0,7.0;"/><polygon fill="none" points="123.86,366.29,114.1316,382.5798,125.8512,385.1589,123.86,366.29" style="stroke:#181818;stroke-width:1.0;"/></g><!--reverse link BusinessContractInterface to BusinessContractDecorator--><g id="link_BusinessContractInterface_BusinessContractDecorator"><path d="M175.2432,375.7831 C208.1232,396.1931 245.1,416.52 287.11,438.96 " fill="none" id="BusinessContractInterface-backto-BusinessContractDecorator" style="stroke:#181818;stroke-width:1.0;stroke-dasharray:7.0,7.0;"/><polygon fill="none" points="159.95,366.29,172.0788,380.8808,178.4075,370.6854,159.95,366.29" style="stroke:#181818;stroke-width:1.0;"/></g><!--reverse link BusinessContractDecorator to BusinessContractInterface--><g id="link_BusinessContractDecorator_BusinessContractInterface"><path codeLine="27" d="M299.6588,432.6585 C262.5988,410.1885 219.81,386.54 180.53,366.15 " fill="none" id="BusinessContractDecorator-backto-BusinessContractInterface" style="stroke:#181818;stroke-width:1.0;"/><polygon fill="none" points="309.92,438.88,306.8632,432.3488,299.6588,432.6585,302.7155,439.1896,309.92,438.88" style="stroke:#181818;stroke-width:1.0;"/></g><!--link CollectionOfBusinessContracts to BusinessContractCollectionDecorator--><g id="link_CollectionOfBusinessContracts_BusinessContractCollectionDecorator"><path codeLine="36" d="M371.43,350.91 C384.87,352.68 387.45,354 401,354 " fill="none" id="CollectionOfBusinessContracts-to-BusinessContractCollectionDecorator" style="stroke:#181818;stroke-width:1.0;"/><polygon fill="none" points="413,354,407,350,401,354,407,358,413,354" style="stroke:#181818;stroke-width:1.0;"/></g><!--link BusinessContractInterface to CollectionOfBusinessContracts--><g id="link_BusinessContractInterface_CollectionOfBusinessContracts"><path codeLine="37" d="M235.5,342 C247.3,342 247.1,342 258.9,342 " fill="none" id="BusinessContractInterface-to-CollectionOfBusinessContracts" style="stroke:#181818;stroke-width:1.0;"/><polygon fill="none" points="270.9,342,264.9,338,258.9,342,264.9,346,270.9,342" style="stroke:#181818;stroke-width:1.0;"/><text fill="#000000" font-family="sans-serif" font-size="13" lengthAdjust="spacing" textLength="11" x="243.375" y="338.5442">M</text></g><!--reverse link CollectionDecorator to BusinessContractCollectionDecorator--><g id="link_CollectionDecorator_BusinessContractCollectionDecorator"><path codeLine="40" d="M578.5243,239.8368 C574.3743,262.5468 571.21,279.79 566.42,305.92 " fill="none" id="CollectionDecorator-backto-BusinessContractCollectionDecorator" style="stroke:#181818;stroke-width:1.0;"/><polygon fill="none" points="581.76,222.13,572.622,238.7582,584.4265,240.9154,581.76,222.13" style="stroke:#181818;stroke-width:1.0;"/></g><!--reverse link Collection to CollectionOfBusinessContracts--><g id="link_Collection_CollectionOfBusinessContracts"><path codeLine="41" d="M333.8,102.1936 C321.61,113.0536 322.5,115.13 316,131 C290.01,194.44 304.89,277.96 314.63,317.85 " fill="none" id="Collection-backto-CollectionOfBusinessContracts" style="stroke:#181818;stroke-width:1.0;"/><polygon fill="none" points="347.24,90.22,329.8088,97.7136,337.7912,106.6736,347.24,90.22" style="stroke:#181818;stroke-width:1.0;"/><text fill="#000000" font-family="sans-serif" font-size="13" lengthAdjust="spacing" textLength="43" x="317" y="195.0669">&#171;bind&#187;</text><text fill="#000000" font-family="sans-serif" font-size="13" lengthAdjust="spacing" textLength="168" x="317" y="210.1997">BusinessContractInterface</text></g><!--SRC=[fP8nRuCm48LtViM9dMH7YA6qGuSgGpjskPWBiZ0-P3kgeYR_lOu4iKC1fQf7t_FtxfxFjbBtQB1JB5ggOO-YRGmVTLsnOWFEeBPUGDebYHt5q7iPDlJkJeh0a72e6qL9Cjn3MhDmHchQ2bRAroLhcy9t0lv8xSWSK11KjsBnKGxLItA9E8PQLDp85hSZCekGMKs23Jes8rmej3O2Fu-261_AK9mtcpbvr0Fs_U_MduxMzs9jnTfd9DphhJBwHErCnL0KBzf9TofBa5slgFFvslynmw1_85vF1b_6ZqXrlYoFxPUDESjM48j_lpjC7rb02sbGf8y4iFpdaoc3C8QkzvFn8tvvFfZC1XN2Jz_IAt7LydvFmqZ5UIRbkGM-MtB_Pdt0tE_aNkgwB3_LyX_-0000]--></g></svg>