<?xml version="1.0" encoding="us-ascii" standalone="no"?><svg xmlns="http://www.w3.org/2000/svg" xmlns:xlink="http://www.w3.org/1999/xlink" contentStyleType="text/css" height="375px" preserveAspectRatio="none" style="width:421px;height:375px;" version="1.1" viewBox="0 0 421 375" width="421px" zoomAndPan="magnify"><defs/><g><!--class Component--><g id="elem_Component"><rect codeLine="4" fill="#F1F1F1" height="88.8594" id="Component" rx="2.5" ry="2.5" style="stroke:#181818;stroke-width:0.5;" width="114" x="264" y="7"/><ellipse cx="279" cy="27.1328" fill="#A9DCDF" rx="11" ry="11" style="stroke:#181818;stroke-width:1.0;"/><path d="M279.1094,22.4766 L277.9531,27.5547 L280.2813,27.5547 L279.1094,22.4766 Z M277.625,20.2422 L280.6094,20.2422 L283.9688,32.6328 L281.5156,32.6328 L280.75,29.5703 L277.4688,29.5703 L276.7188,32.6328 L274.2813,32.6328 L277.625,20.2422 Z " fill="#000000"/><text fill="#000000" font-family="sans-serif" font-size="12" font-style="italic" lengthAdjust="spacing" textLength="50" x="309" y="23.1387">&#171;Entity&#187;</text><text fill="#000000" font-family="sans-serif" font-size="14" font-style="italic" lengthAdjust="spacing" textLength="82" x="293" y="38.9639">Component</text><line style="stroke:#181818;stroke-width:0.5;" x1="265" x2="377" y1="47.2656" y2="47.2656"/><ellipse cx="275" cy="60.9141" fill="none" rx="3" ry="3" style="stroke:#038048;stroke-width:1.0;"/><text fill="#000000" font-family="sans-serif" font-size="14" lengthAdjust="spacing" textLength="38" x="284" y="64.2607">id: int</text><ellipse cx="275" cy="77.2109" fill="none" rx="3" ry="3" style="stroke:#038048;stroke-width:1.0;"/><text fill="#000000" font-family="sans-serif" font-size="14" lengthAdjust="spacing" textLength="87" x="284" y="80.5576">name: string</text><line style="stroke:#181818;stroke-width:0.5;" x1="265" x2="377" y1="87.8594" y2="87.8594"/></g><!--class ConcreteComponent--><g id="elem_ConcreteComponent"><rect codeLine="9" fill="#F1F1F1" height="56.2656" id="ConcreteComponent" rx="2.5" ry="2.5" style="stroke:#181818;stroke-width:0.5;" width="178" x="7" y="168"/><ellipse cx="22" cy="188.1328" fill="#ADD1B2" rx="11" ry="11" style="stroke:#181818;stroke-width:1.0;"/><path d="M24.9688,193.7734 Q24.3906,194.0703 23.75,194.2109 Q23.1094,194.3672 22.4063,194.3672 Q19.9063,194.3672 18.5781,192.7266 Q17.2656,191.0703 17.2656,187.9453 Q17.2656,184.8203 18.5781,183.1641 Q19.9063,181.5078 22.4063,181.5078 Q23.1094,181.5078 23.75,181.6641 Q24.4063,181.8203 24.9688,182.1172 L24.9688,184.8359 Q24.3438,184.2578 23.75,183.9922 Q23.1563,183.7109 22.5313,183.7109 Q21.1875,183.7109 20.5,184.7891 Q19.8125,185.8516 19.8125,187.9453 Q19.8125,190.0391 20.5,191.1172 Q21.1875,192.1797 22.5313,192.1797 Q23.1563,192.1797 23.75,191.9141 Q24.3438,191.6328 24.9688,191.0547 L24.9688,193.7734 Z " fill="#000000"/><text fill="#000000" font-family="sans-serif" font-size="12" font-style="italic" lengthAdjust="spacing" textLength="50" x="84" y="184.1387">&#171;Entity&#187;</text><text fill="#000000" font-family="sans-serif" font-size="14" lengthAdjust="spacing" textLength="146" x="36" y="199.9639">ConcreteComponent</text><line style="stroke:#181818;stroke-width:0.5;" x1="8" x2="184" y1="208.2656" y2="208.2656"/><line style="stroke:#181818;stroke-width:0.5;" x1="8" x2="184" y1="216.2656" y2="216.2656"/></g><!--class Decorator--><g id="elem_Decorator"><rect codeLine="12" fill="#F1F1F1" height="72.5625" id="Decorator" rx="2.5" ry="2.5" style="stroke:#181818;stroke-width:0.5;" width="187" x="227.5" y="160"/><ellipse cx="255.1" cy="180.1328" fill="#A9DCDF" rx="11" ry="11" style="stroke:#181818;stroke-width:1.0;"/><path d="M255.2094,175.4766 L254.0531,180.5547 L256.3813,180.5547 L255.2094,175.4766 Z M253.725,173.2422 L256.7094,173.2422 L260.0688,185.6328 L257.6156,185.6328 L256.85,182.5703 L253.5688,182.5703 L252.8188,185.6328 L250.3813,185.6328 L253.725,173.2422 Z " fill="#000000"/><text fill="#000000" font-family="sans-serif" font-size="12" font-style="italic" lengthAdjust="spacing" textLength="131" x="269.9" y="176.1387">&#171;MappedSuperclass&#187;</text><text fill="#000000" font-family="sans-serif" font-size="14" font-style="italic" lengthAdjust="spacing" textLength="69" x="300.9" y="191.9639">Decorator</text><line style="stroke:#181818;stroke-width:0.5;" x1="228.5" x2="413.5" y1="200.2656" y2="200.2656"/><polygon fill="none" points="238.5,208.9141,242.5,212.9141,238.5,216.9141,234.5,212.9141" style="stroke:#B38D22;stroke-width:1.0;"/><text fill="#000000" font-family="sans-serif" font-size="14" lengthAdjust="spacing" textLength="161" x="247.5" y="217.2607">decorates: Component</text><line style="stroke:#181818;stroke-width:0.5;" x1="228.5" x2="413.5" y1="224.5625" y2="224.5625"/></g><!--class ConcreteDecorator--><g id="elem_ConcreteDecorator"><rect codeLine="16" fill="#F1F1F1" height="72.5625" id="ConcreteDecorator" rx="2.5" ry="2.5" style="stroke:#181818;stroke-width:0.5;" width="165" x="238.5" y="296"/><ellipse cx="253.5" cy="316.1328" fill="#ADD1B2" rx="11" ry="11" style="stroke:#181818;stroke-width:1.0;"/><path d="M256.4688,321.7734 Q255.8906,322.0703 255.25,322.2109 Q254.6094,322.3672 253.9063,322.3672 Q251.4063,322.3672 250.0781,320.7266 Q248.7656,319.0703 248.7656,315.9453 Q248.7656,312.8203 250.0781,311.1641 Q251.4063,309.5078 253.9063,309.5078 Q254.6094,309.5078 255.25,309.6641 Q255.9063,309.8203 256.4688,310.1172 L256.4688,312.8359 Q255.8438,312.2578 255.25,311.9922 Q254.6563,311.7109 254.0313,311.7109 Q252.6875,311.7109 252,312.7891 Q251.3125,313.8516 251.3125,315.9453 Q251.3125,318.0391 252,319.1172 Q252.6875,320.1797 254.0313,320.1797 Q254.6563,320.1797 255.25,319.9141 Q255.8438,319.6328 256.4688,319.0547 L256.4688,321.7734 Z " fill="#000000"/><text fill="#000000" font-family="sans-serif" font-size="12" font-style="italic" lengthAdjust="spacing" textLength="50" x="309" y="312.1387">&#171;Entity&#187;</text><text fill="#000000" font-family="sans-serif" font-size="14" lengthAdjust="spacing" textLength="133" x="267.5" y="327.9639">ConcreteDecorator</text><line style="stroke:#181818;stroke-width:0.5;" x1="239.5" x2="402.5" y1="336.2656" y2="336.2656"/><ellipse cx="249.5" cy="349.9141" fill="none" rx="3" ry="3" style="stroke:#038048;stroke-width:1.0;"/><text fill="#000000" font-family="sans-serif" font-size="14" lengthAdjust="spacing" textLength="96" x="258.5" y="353.2607">special: string</text><line style="stroke:#181818;stroke-width:0.5;" x1="239.5" x2="402.5" y1="360.5625" y2="360.5625"/></g><!--reverse link Component to ConcreteComponent--><g id="link_Component_ConcreteComponent"><path d="M248.724,98.2721 C209.794,122.9321 174.27,145.43 138.8,167.89 " fill="none" id="Component-backto-ConcreteComponent" style="stroke:#181818;stroke-width:1.0;"/><polygon fill="none" points="263.93,88.64,245.5133,93.2035,251.9347,103.3408,263.93,88.64" style="stroke:#181818;stroke-width:1.0;"/></g><!--reverse link Component to Decorator--><g id="link_Component_Decorator"><path d="M321,114.03 C321,133.02 321,137.12 321,155.61 " fill="none" id="Component-backto-Decorator" style="stroke:#181818;stroke-width:1.0;"/><polygon fill="none" points="321,96.03,315,114.03,327,114.03,321,96.03" style="stroke:#181818;stroke-width:1.0;"/></g><!--reverse link Decorator to Component--><g id="link_Decorator_Component"><path codeLine="20" d="M215,212 C161,212 230.36,143.31 276.17,96.08 " fill="none" id="Decorator-backto-Component" style="stroke:#181818;stroke-width:1.0;"/><polygon fill="none" points="227,212,221,208,215,212,221,216,227,212" style="stroke:#181818;stroke-width:1.0;"/></g><!--reverse link Decorator to ConcreteDecorator--><g id="link_Decorator_ConcreteDecorator"><path d="M321,254.26 C321,273.03 321,277.33 321,295.63 " fill="none" id="Decorator-backto-ConcreteDecorator" style="stroke:#181818;stroke-width:1.0;"/><polygon fill="none" points="321,236.26,315,254.26,327,254.26,321,236.26" style="stroke:#181818;stroke-width:1.0;"/></g><!--SRC=[TO_1QiCm44Jl-Wf13pqKMtSHSabxx2bV84kBerhU5QirRWdzzyh1TGnf1GA9sPatMuQ8sR4R4_a1WkwS7tgc2SE94h4MTbZg0A0ezQml8hbOO-PvRWDvuOZGPAOFyD8IzsPz5xEfnAC1D7xY9SHueg6hrmJmn4w8c-n4WB6zo9YKSbsfK2_wH6Cch1vzEBoXHFaw7lLLwNfUOh0wragt3xeHh2uBhbVVIldaIgbsz0m2VyR0fm26icDS5-V6VlqjLqtlBcS8voa3tvB_iIzLdjQbeDYxzbXfd_vGwIwkkvOCFhgqtt2RiNOZQcgQ7VG7]--></g></svg>