<svg xmlns="http://www.w3.org/2000/svg" xmlns:xlink="http://www.w3.org/1999/xlink" contentStyleType="text/css" height="375px" preserveAspectRatio="none" style="width:419px;height:375px;" version="1.1" viewBox="0 0 419 375" width="419px" zoomAndPan="magnify"><defs/><g><!--class Component--><g id="elem_Component"><rect codeLine="4" fill="#F1F1F1" height="88.8594" id="Component" rx="2.5" ry="2.5" style="stroke:#181818;stroke-width:0.5;" width="115.0586" x="262" y="7"/><ellipse cx="277.8007" cy="27.1328" fill="#A9DCDF" rx="11" ry="11" style="stroke:#181818;stroke-width:1.0;"/><path d="M277.9101,22.4766 L276.7538,27.5547 L279.0819,27.5547 L277.9101,22.4766 Z M276.4257,20.2422 L279.4101,20.2422 L282.7694,32.6328 L280.3163,32.6328 L279.5507,29.5703 L276.2694,29.5703 L275.5194,32.6328 L273.0819,32.6328 L276.4257,20.2422 Z " fill="#000000"/><text fill="#000000" font-family="sans-serif" font-size="12" font-style="italic" lengthAdjust="spacing" textLength="49.8457" x="307.6954" y="23.1387">&#171;Entity&#187;</text><text fill="#000000" font-family="sans-serif" font-size="14" font-style="italic" lengthAdjust="spacing" textLength="81.2793" x="291.9786" y="38.9639">Component</text><line style="stroke:#181818;stroke-width:0.5;" x1="263" x2="376.0586" y1="47.2656" y2="47.2656"/><ellipse cx="273" cy="60.9141" fill="none" rx="3" ry="3" style="stroke:#038048;stroke-width:1.0;"/><text fill="#000000" font-family="sans-serif" font-size="14" lengthAdjust="spacing" textLength="40.1953" x="282" y="64.2607">id: int</text><ellipse cx="273" cy="77.2109" fill="none" rx="3" ry="3" style="stroke:#038048;stroke-width:1.0;"/><text fill="#000000" font-family="sans-serif" font-size="14" lengthAdjust="spacing" textLength="89.0586" x="282" y="80.5576">name: string</text><line style="stroke:#181818;stroke-width:0.5;" x1="263" x2="376.0586" y1="87.8594" y2="87.8594"/></g><!--class ConcreteComponent--><g id="elem_ConcreteComponent"><rect codeLine="9" fill="#F1F1F1" height="56.2656" id="ConcreteComponent" rx="2.5" ry="2.5" style="stroke:#181818;stroke-width:0.5;" width="176.6621" x="7" y="168"/><ellipse cx="22" cy="188.1328" fill="#ADD1B2" rx="11" ry="11" style="stroke:#181818;stroke-width:1.0;"/><path d="M24.9688,193.7734 Q24.3906,194.0703 23.75,194.2109 Q23.1094,194.3672 22.4063,194.3672 Q19.9063,194.3672 18.5781,192.7266 Q17.2656,191.0703 17.2656,187.9453 Q17.2656,184.8203 18.5781,183.1641 Q19.9063,181.5078 22.4063,181.5078 Q23.1094,181.5078 23.75,181.6641 Q24.4063,181.8203 24.9688,182.1172 L24.9688,184.8359 Q24.3438,184.2578 23.75,183.9922 Q23.1563,183.7109 22.5313,183.7109 Q21.1875,183.7109 20.5,184.7891 Q19.8125,185.8516 19.8125,187.9453 Q19.8125,190.0391 20.5,191.1172 Q21.1875,192.1797 22.5313,192.1797 Q23.1563,192.1797 23.75,191.9141 Q24.3438,191.6328 24.9688,191.0547 L24.9688,193.7734 Z " fill="#000000"/><text fill="#000000" font-family="sans-serif" font-size="12" font-style="italic" lengthAdjust="spacing" textLength="49.8457" x="83.4082" y="184.1387">&#171;Entity&#187;</text><text fill="#000000" font-family="sans-serif" font-size="14" lengthAdjust="spacing" textLength="144.6621" x="36" y="199.9639">ConcreteComponent</text><line style="stroke:#181818;stroke-width:0.5;" x1="8" x2="182.6621" y1="208.2656" y2="208.2656"/><line style="stroke:#181818;stroke-width:0.5;" x1="8" x2="182.6621" y1="216.2656" y2="216.2656"/></g><!--class Decorator--><g id="elem_Decorator"><rect codeLine="12" fill="#F1F1F1" height="72.5625" id="Decorator" rx="2.5" ry="2.5" style="stroke:#181818;stroke-width:0.5;" width="185.9404" x="227" y="160"/><ellipse cx="255.6085" cy="180.1328" fill="#A9DCDF" rx="11" ry="11" style="stroke:#181818;stroke-width:1.0;"/><path d="M255.7179,175.4766 L254.5617,180.5547 L256.8898,180.5547 L255.7179,175.4766 Z M254.2335,173.2422 L257.2179,173.2422 L260.5773,185.6328 L258.1242,185.6328 L257.3585,182.5703 L254.0773,182.5703 L253.3273,185.6328 L250.8898,185.6328 L254.2335,173.2422 Z " fill="#000000"/><text fill="#000000" font-family="sans-serif" font-size="12" font-style="italic" lengthAdjust="spacing" textLength="127.6992" x="270.6327" y="176.1387">&#171;MappedSuperclass&#187;</text><text fill="#000000" font-family="sans-serif" font-size="14" font-style="italic" lengthAdjust="spacing" textLength="69.8018" x="299.5814" y="191.9639">Decorator</text><line style="stroke:#181818;stroke-width:0.5;" x1="228" x2="411.9404" y1="200.2656" y2="200.2656"/><polygon fill="none" points="238,208.9141,242,212.9141,238,216.9141,234,212.9141" style="stroke:#B38D22;stroke-width:1.0;"/><text fill="#000000" font-family="sans-serif" font-size="14" lengthAdjust="spacing" textLength="159.9404" x="247" y="217.2607">decorates: Component</text><line style="stroke:#181818;stroke-width:0.5;" x1="228" x2="411.9404" y1="224.5625" y2="224.5625"/></g><!--class ConcreteDecorator--><g id="elem_ConcreteDecorator"><rect codeLine="16" fill="#F1F1F1" height="72.5625" id="ConcreteDecorator" rx="2.5" ry="2.5" style="stroke:#181818;stroke-width:0.5;" width="165.1846" x="237" y="296"/><ellipse cx="252" cy="316.1328" fill="#ADD1B2" rx="11" ry="11" style="stroke:#181818;stroke-width:1.0;"/><path d="M254.9688,321.7734 Q254.3906,322.0703 253.75,322.2109 Q253.1094,322.3672 252.4063,322.3672 Q249.9063,322.3672 248.5781,320.7266 Q247.2656,319.0703 247.2656,315.9453 Q247.2656,312.8203 248.5781,311.1641 Q249.9063,309.5078 252.4063,309.5078 Q253.1094,309.5078 253.75,309.6641 Q254.4063,309.8203 254.9688,310.1172 L254.9688,312.8359 Q254.3438,312.2578 253.75,311.9922 Q253.1563,311.7109 252.5313,311.7109 Q251.1875,311.7109 250.5,312.7891 Q249.8125,313.8516 249.8125,315.9453 Q249.8125,318.0391 250.5,319.1172 Q251.1875,320.1797 252.5313,320.1797 Q253.1563,320.1797 253.75,319.9141 Q254.3438,319.6328 254.9688,319.0547 L254.9688,321.7734 Z " fill="#000000"/><text fill="#000000" font-family="sans-serif" font-size="12" font-style="italic" lengthAdjust="spacing" textLength="49.8457" x="307.6694" y="312.1387">&#171;Entity&#187;</text><text fill="#000000" font-family="sans-serif" font-size="14" lengthAdjust="spacing" textLength="133.1846" x="266" y="327.9639">ConcreteDecorator</text><line style="stroke:#181818;stroke-width:0.5;" x1="238" x2="401.1846" y1="336.2656" y2="336.2656"/><ellipse cx="248" cy="349.9141" fill="none" rx="3" ry="3" style="stroke:#038048;stroke-width:1.0;"/><text fill="#000000" font-family="sans-serif" font-size="14" lengthAdjust="spacing" textLength="98.2051" x="257" y="353.2607">special: string</text><line style="stroke:#181818;stroke-width:0.5;" x1="238" x2="401.1846" y1="360.5625" y2="360.5625"/></g><!--reverse link Component to ConcreteComponent--><g id="link_Component_ConcreteComponent"><path d="M246.623,98.862 C208.003,123.432 173.18,145.58 138.13,167.88 " fill="none" id="Component-backto-ConcreteComponent" style="stroke:#181818;stroke-width:1.0;"/><polygon fill="none" points="261.81,89.2,243.4023,93.7996,249.8436,103.9243,261.81,89.2" style="stroke:#181818;stroke-width:1.0;"/></g><!--reverse link Component to Decorator--><g id="link_Component_Decorator"><path d="M319.5,114.03 C319.5,133.02 319.5,137.12 319.5,155.61 " fill="none" id="Component-backto-Decorator" style="stroke:#181818;stroke-width:1.0;"/><polygon fill="none" points="319.5,96.03,313.5,114.03,325.5,114.03,319.5,96.03" style="stroke:#181818;stroke-width:1.0;"/></g><!--reverse link Decorator to Component--><g id="link_Decorator_Component"><path codeLine="20" d="M214.5,212 C160.65,212 229.53,143.31 275,96.08 " fill="none" id="Decorator-backto-Component" style="stroke:#181818;stroke-width:1.0;"/><polygon fill="none" points="226.5,212,220.5,208,214.5,212,220.5,216,226.5,212" style="stroke:#181818;stroke-width:1.0;"/></g><!--reverse link Decorator to ConcreteDecorator--><g id="link_Decorator_ConcreteDecorator"><path d="M319.5,254.26 C319.5,273.03 319.5,277.33 319.5,295.63 " fill="none" id="Decorator-backto-ConcreteDecorator" style="stroke:#181818;stroke-width:1.0;"/><polygon fill="none" points="319.5,236.26,313.5,254.26,325.5,254.26,319.5,236.26" style="stroke:#181818;stroke-width:1.0;"/></g><!--SRC=[TO_1QiCm44Jl-Wf13pqKMtSHSabxx2bV84kBerhU5QirRWdzzyh1TGnf1GA9sPatMuQ8sR4R4_a1WkwS7tgc2SE94h4MTbZg0A0ezQml8hbOO-PvRWDvuOZGPAOFyD8IzsPz5xEfnAC1D7xY9SHueg6hrmJmn4w8c-n4WB6zo9YKSbsfK2_wH6Cch1vzEBoXHFaw7lLLwNfUOh0wragt3xeHh2uBhbVVIldaIgbsz0m2VyR0fm26icDS5-V6VlqjLqtlBcS8voa3tvB_iIzLdjQbeDYxzbXfd_vGwIwkkvOCFhgqtt2RiNOZQcgQ7VG7]--></g></svg>