<svg xmlns="http://www.w3.org/2000/svg" xmlns:xlink="http://www.w3.org/1999/xlink" contentStyleType="text/css" height="625px" preserveAspectRatio="none" style="width:1404px;height:625px;" version="1.1" viewBox="0 0 1404 625" width="1404px" zoomAndPan="magnify"><defs/><g><!--entity file--><g id="elem_file"><rect fill="#F1F1F1" height="36.2969" rx="2.5" ry="2.5" style="stroke:#181818;stroke-width:0.5;" width="41.3213" x="138.07" y="391"/><text fill="#000000" font-family="sans-serif" font-size="14" lengthAdjust="spacing" textLength="21.3213" x="148.07" y="413.9951">file</text></g><!--entity file-contracts--><g id="elem_file-contracts"><rect fill="#F1F1F1" height="36.2969" rx="2.5" ry="2.5" style="stroke:#181818;stroke-width:0.5;" width="111.8135" x="630.57" y="487"/><text fill="#000000" font-family="sans-serif" font-size="14" lengthAdjust="spacing" textLength="91.8135" x="640.57" y="509.9951">file-contracts</text></g><!--entity file-metadata-contracts--><g id="elem_file-metadata-contracts"><rect fill="#F1F1F1" height="36.2969" rx="2.5" ry="2.5" style="stroke:#181818;stroke-width:0.5;" width="184.7188" x="63.07" y="583"/><text fill="#000000" font-family="sans-serif" font-size="14" lengthAdjust="spacing" textLength="164.7188" x="73.07" y="605.9951">file-metadata-contracts</text></g><!--entity file-metadata--><g id="elem_file-metadata"><rect fill="#F1F1F1" height="36.2969" rx="2.5" ry="2.5" style="stroke:#181818;stroke-width:0.5;" width="114.2266" x="208.57" y="487"/><text fill="#000000" font-family="sans-serif" font-size="14" lengthAdjust="spacing" textLength="94.2266" x="218.57" y="509.9951">file-metadata</text></g><!--entity file-association--><g id="elem_file-association"><rect fill="#F1F1F1" height="36.2969" rx="2.5" ry="2.5" style="stroke:#181818;stroke-width:0.5;" width="125.0889" x="820.07" y="199"/><text fill="#000000" font-family="sans-serif" font-size="14" lengthAdjust="spacing" textLength="105.0889" x="830.07" y="221.9951">file-association</text></g><!--entity file-association-contracts--><g id="elem_file-association-contracts"><rect fill="#F1F1F1" height="36.2969" rx="2.5" ry="2.5" style="stroke:#181818;stroke-width:0.5;" width="195.5811" x="784.57" y="295"/><text fill="#000000" font-family="sans-serif" font-size="14" lengthAdjust="spacing" textLength="175.5811" x="794.57" y="317.9951">file-association-contracts</text></g><!--entity file-bundle--><g id="elem_file-bundle"><rect fill="#F1F1F1" height="36.2969" rx="2.5" ry="2.5" style="stroke:#181818;stroke-width:0.5;" width="94.3955" x="784.57" y="103"/><text fill="#000000" font-family="sans-serif" font-size="14" lengthAdjust="spacing" textLength="74.3955" x="794.57" y="125.9951">file-bundle</text></g><!--entity file-image--><g id="elem_file-image"><rect fill="#F1F1F1" height="36.2969" rx="2.5" ry="2.5" style="stroke:#181818;stroke-width:0.5;" width="89.9795" x="1160.57" y="199"/><text fill="#000000" font-family="sans-serif" font-size="14" lengthAdjust="spacing" textLength="69.9795" x="1170.57" y="221.9951">file-image</text></g><!--entity file-server--><g id="elem_file-server"><rect fill="#F1F1F1" height="36.2969" rx="2.5" ry="2.5" style="stroke:#181818;stroke-width:0.5;" width="90.6904" x="686.07" y="199"/><text fill="#000000" font-family="sans-serif" font-size="14" lengthAdjust="spacing" textLength="70.6904" x="696.07" y="221.9951">file-server</text></g><!--entity file-symfony-bridge--><g id="elem_file-symfony-bridge"><rect fill="#F1F1F1" height="36.2969" rx="2.5" ry="2.5" style="stroke:#181818;stroke-width:0.5;" width="156.2129" x="73.57" y="295"/><text fill="#000000" font-family="sans-serif" font-size="14" lengthAdjust="spacing" textLength="136.2129" x="83.57" y="317.9951">file-symfony-bridge</text></g><!--entity file-derivation--><g id="elem_file-derivation"><rect fill="#F1F1F1" height="36.2969" rx="2.5" ry="2.5" style="stroke:#181818;stroke-width:0.5;" width="117.2002" x="1156.07" y="391"/><text fill="#000000" font-family="sans-serif" font-size="14" lengthAdjust="spacing" textLength="97.2002" x="1166.07" y="413.9951">file-derivation</text></g><!--entity file-oneup-uploader-bridge--><g id="elem_file-oneup-uploader-bridge"><rect fill="#F1F1F1" height="36.2969" rx="2.5" ry="2.5" style="stroke:#181818;stroke-width:0.5;" width="207.2568" x="265.07" y="295"/><text fill="#000000" font-family="sans-serif" font-size="14" lengthAdjust="spacing" textLength="187.2568" x="275.07" y="317.9951">file-oneup-uploader-bridge</text></g><!--entity file-association-entity--><g id="elem_file-association-entity"><rect fill="#F1F1F1" height="36.2969" rx="2.5" ry="2.5" style="stroke:#181818;stroke-width:0.5;" width="170.7803" x="507.07" y="295"/><text fill="#000000" font-family="sans-serif" font-size="14" lengthAdjust="spacing" textLength="150.7803" x="517.07" y="317.9951">file-association-entity</text></g><!--entity file-null--><g id="elem_file-null"><rect fill="#F1F1F1" height="36.2969" rx="2.5" ry="2.5" style="stroke:#181818;stroke-width:0.5;" width="71.8984" x="606.57" y="391"/><text fill="#000000" font-family="sans-serif" font-size="14" lengthAdjust="spacing" textLength="51.8984" x="616.57" y="413.9951">file-null</text></g><!--entity file-zip--><g id="elem_file-zip"><rect fill="#F1F1F1" height="36.2969" rx="2.5" ry="2.5" style="stroke:#181818;stroke-width:0.5;" width="66.498" x="292.57" y="391"/><text fill="#000000" font-family="sans-serif" font-size="14" lengthAdjust="spacing" textLength="46.498" x="302.57" y="413.9951">file-zip</text></g><!--entity file-filepond--><g id="elem_file-filepond"><rect fill="#F1F1F1" height="36.2969" rx="2.5" ry="2.5" style="stroke:#181818;stroke-width:0.5;" width="102.9063" x="730.07" y="7"/><text fill="#000000" font-family="sans-serif" font-size="14" lengthAdjust="spacing" textLength="82.9063" x="740.07" y="29.9951">file-filepond</text></g><!--link file to file-contracts--><g id="link_file_file-contracts"><path d="M179.27,413.68 C254.49,427.08 509.0629,472.3983 624.6529,492.9783 " fill="none" id="file-to-file-contracts" style="stroke:#181818;stroke-width:1.0;"/><polygon fill="#181818" points="630.56,494.03,622.4005,488.5144,625.6374,493.1536,620.9982,496.3905,630.56,494.03" style="stroke:#181818;stroke-width:1.0;"/></g><!--link file to file-metadata-contracts--><g id="link_file_file-metadata-contracts"><path d="M158.3,427.2 C157.73,463.37 156.5049,540.9608 155.9349,576.9808 " fill="none" id="file-to-file-metadata-contracts" style="stroke:#181818;stroke-width:1.0;"/><polygon fill="#181818" points="155.84,582.98,159.9819,574.0444,155.9191,577.9806,151.9829,573.9178,155.84,582.98" style="stroke:#181818;stroke-width:1.0;"/></g><!--link file to file-metadata--><g id="link_file_file-metadata"><path d="M178.2,427.24 C197.5,444.2 222.3024,465.99 241.5624,482.91 " fill="none" id="file-to-file-metadata" style="stroke:#181818;stroke-width:1.0;"/><polygon fill="#181818" points="246.07,486.87,241.9485,477.925,242.3136,483.57,236.6686,483.9351,246.07,486.87" style="stroke:#181818;stroke-width:1.0;"/></g><!--link file-association to file-association-contracts--><g id="link_file-association_file-association-contracts"><path d="M882.57,235.24 C882.57,252.2 882.57,271.95 882.57,288.87 " fill="none" id="file-association-to-file-association-contracts" style="stroke:#181818;stroke-width:1.0;"/><polygon fill="#181818" points="882.57,294.87,886.57,285.87,882.57,289.87,878.57,285.87,882.57,294.87" style="stroke:#181818;stroke-width:1.0;"/></g><!--link file-association to file-contracts--><g id="link_file-association_file-contracts"><path d="M924.28,235.17 C966.45,255.21 1022.26,290.79 998.57,331 C943.25,424.93 822.3227,469.9064 748.5227,489.8264 " fill="none" id="file-association-to-file-contracts" style="stroke:#181818;stroke-width:1.0;"/><polygon fill="#181818" points="742.73,491.39,752.4614,492.9065,747.5572,490.087,750.3767,485.1829,742.73,491.39" style="stroke:#181818;stroke-width:1.0;"/></g><!--link file-bundle to file--><g id="link_file-bundle_file"><path d="M784.46,124.92 C630.51,135.54 146.94,177.87 56.57,295 C25.25,335.59 94.6075,376.8886 132.6375,395.7986 " fill="none" id="file-bundle-to-file" style="stroke:#181818;stroke-width:1.0;"/><polygon fill="#181818" points="138.01,398.47,131.7322,390.8812,133.5329,396.2438,128.1703,398.0445,138.01,398.47" style="stroke:#181818;stroke-width:1.0;"/></g><!--link file-bundle to file-contracts--><g id="link_file-bundle_file-contracts"><path d="M870.52,139.02 C935.92,170.39 1057.76,242.28 1026.57,331 C1008.43,382.6 995.03,396.58 949.57,427 C886.21,469.41 805.0504,487.9787 748.7604,496.6287 " fill="none" id="file-bundle-to-file-contracts" style="stroke:#181818;stroke-width:1.0;"/><polygon fill="#181818" points="742.83,497.54,752.3331,500.1266,747.772,496.7806,751.118,492.2194,742.83,497.54" style="stroke:#181818;stroke-width:1.0;"/></g><!--link file-bundle to file-image--><g id="link_file-bundle_file-image"><path d="M878.94,133.91 C951.47,152.13 1083.2909,185.2677 1154.5209,203.1677 " fill="none" id="file-bundle-to-file-image" style="stroke:#181818;stroke-width:1.0;stroke-dasharray:7.0,7.0;"/><polygon fill="#181818" points="1160.34,204.63,1152.5863,198.5571,1155.4908,203.4114,1150.6365,206.3159,1160.34,204.63" style="stroke:#181818;stroke-width:1.0;"/></g><!--link file-bundle to file-association--><g id="link_file-bundle_file-association"><path d="M840.93,139.24 C850.13,156.2 861.2263,176.6775 870.4163,193.5975 " fill="none" id="file-bundle-to-file-association" style="stroke:#181818;stroke-width:1.0;stroke-dasharray:7.0,7.0;"/><polygon fill="#181818" points="873.28,198.87,872.4994,189.0521,870.8936,194.4763,865.4694,192.8704,873.28,198.87" style="stroke:#181818;stroke-width:1.0;"/></g><!--link file-bundle to file-server--><g id="link_file-bundle_file-server"><path d="M813.23,139.24 C795.19,156.2 772.1718,177.8405 754.1718,194.7605 " fill="none" id="file-bundle-to-file-server" style="stroke:#181818;stroke-width:1.0;stroke-dasharray:7.0,7.0;"/><polygon fill="#181818" points="749.8,198.87,759.0973,195.6203,753.4431,195.4454,753.618,189.7913,749.8,198.87" style="stroke:#181818;stroke-width:1.0;"/></g><!--link file-bundle to file-symfony-bridge--><g id="link_file-bundle_file-symfony-bridge"><path d="M784.56,135.13 C664.46,168.69 352.1786,255.9451 218.2086,293.3851 " fill="none" id="file-bundle-to-file-symfony-bridge" style="stroke:#181818;stroke-width:1.0;stroke-dasharray:7.0,7.0;"/><polygon fill="#181818" points="212.43,295,222.1745,296.43,217.2455,293.6542,220.0213,288.7252,212.43,295" style="stroke:#181818;stroke-width:1.0;"/></g><!--link file-derivation to file-contracts--><g id="link_file-derivation_file-contracts"><path d="M1155.85,421.79 C1146.73,423.57 1137.4,425.36 1128.57,427 C990.15,452.73 832.7672,479.5165 748.7272,493.6265 " fill="none" id="file-derivation-to-file-contracts" style="stroke:#181818;stroke-width:1.0;"/><polygon fill="#181818" points="742.81,494.62,752.3481,497.0746,747.741,493.7921,751.0235,489.185,742.81,494.62" style="stroke:#181818;stroke-width:1.0;"/></g><!--link file-image to file-contracts--><g id="link_file-image_file-contracts"><path d="M1223.43,235.19 C1261.34,273.71 1342.35,368.21 1290.57,427 C1254.59,467.86 891.4002,492.4765 748.5702,500.6665 " fill="none" id="file-image-to-file-contracts" style="stroke:#181818;stroke-width:1.0;"/><polygon fill="#181818" points="742.58,501.01,751.7942,504.4882,747.5718,500.7238,751.3363,496.5013,742.58,501.01" style="stroke:#181818;stroke-width:1.0;"/></g><!--link file-image to file-derivation--><g id="link_file-image_file-derivation"><path d="M1206.39,235.2 C1208.1,271.37 1211.7755,348.9667 1213.4855,384.9867 " fill="none" id="file-image-to-file-derivation" style="stroke:#181818;stroke-width:1.0;"/><polygon fill="#181818" points="1213.77,390.98,1217.3387,381.8004,1213.5329,385.9856,1209.3477,382.1798,1213.77,390.98" style="stroke:#181818;stroke-width:1.0;"/></g><!--link file-oneup-uploader-bridge to file-contracts--><g id="link_file-oneup-uploader-bridge_file-contracts"><path d="M397.07,331.03 C457.44,367.1 592.4592,447.7728 652.8692,483.8628 " fill="none" id="file-oneup-uploader-bridge-to-file-contracts" style="stroke:#181818;stroke-width:1.0;"/><polygon fill="#181818" points="658.02,486.94,652.3452,478.8903,653.7277,484.3757,648.2423,485.7581,658.02,486.94" style="stroke:#181818;stroke-width:1.0;"/></g><!--link file-oneup-uploader-bridge to file--><g id="link_file-oneup-uploader-bridge_file"><path d="M330.54,331.02 C286.1,350.92 219.6669,380.6597 184.5969,396.3497 " fill="none" id="file-oneup-uploader-bridge-to-file" style="stroke:#181818;stroke-width:1.0;"/><polygon fill="#181818" points="179.12,398.8,188.9688,398.7758,183.6841,396.7581,185.7018,391.4733,179.12,398.8" style="stroke:#181818;stroke-width:1.0;"/></g><!--link file-server to file-contracts--><g id="link_file-server_file-contracts"><path d="M728.89,235.03 C720.91,285.78 698.2626,429.6629 690.2226,480.7629 " fill="none" id="file-server-to-file-contracts" style="stroke:#181818;stroke-width:1.0;"/><polygon fill="#181818" points="689.29,486.69,694.6402,478.4211,690.0671,481.7508,686.7374,477.1777,689.29,486.69" style="stroke:#181818;stroke-width:1.0;"/></g><!--link file-server to file-symfony-bridge--><g id="link_file-server_file-symfony-bridge"><path d="M685.82,225.01 C599.87,238.23 408.46,267.96 247.57,295 C241.73,295.98 241.6022,295.9873 235.5322,297.0373 " fill="none" id="file-server-to-file-symfony-bridge" style="stroke:#181818;stroke-width:1.0;"/><polygon fill="#181818" points="229.62,298.06,239.1701,300.4674,234.5468,297.2077,237.8065,292.5845,229.62,298.06" style="stroke:#181818;stroke-width:1.0;"/></g><!--link file-symfony-bridge to file--><g id="link_file-symfony-bridge_file"><path d="M152.86,331.24 C154.12,348.2 155.5944,367.9666 156.8544,384.8866 " fill="none" id="file-symfony-bridge-to-file" style="stroke:#181818;stroke-width:1.0;"/><polygon fill="#181818" points="157.3,390.87,160.6206,381.5978,156.9287,385.8838,152.6427,382.1919,157.3,390.87" style="stroke:#181818;stroke-width:1.0;"/></g><!--link file-symfony-bridge to file-contracts--><g id="link_file-symfony-bridge_file-contracts"><path d="M202.61,331.14 C248.28,346.56 317.01,369.96 376.57,391 C470.69,424.25 574.6733,462.5068 635.0933,484.8768 " fill="none" id="file-symfony-bridge-to-file-contracts" style="stroke:#181818;stroke-width:1.0;"/><polygon fill="#181818" points="640.72,486.96,633.6687,480.084,636.0311,485.224,630.8911,487.5863,640.72,486.96" style="stroke:#181818;stroke-width:1.0;"/></g><!--link file-symfony-bridge to file-metadata-contracts--><g id="link_file-symfony-bridge_file-metadata-contracts"><path d="M142.44,331.15 C134.89,346.38 124.74,369.5 120.57,391 C106.82,461.97 132.6461,541.5299 146.3961,577.2799 " fill="none" id="file-symfony-bridge-to-file-metadata-contracts" style="stroke:#181818;stroke-width:1.0;"/><polygon fill="#181818" points="148.55,582.88,149.0526,573.044,146.7551,578.2133,141.5858,575.9158,148.55,582.88" style="stroke:#181818;stroke-width:1.0;"/></g><!--link file-association-entity to file-contracts--><g id="link_file-association-entity_file-contracts"><path d="M587.47,331.1 C581.6,354.15 574.55,395.9 589.57,427 C602.38,453.53 624.0853,470.6732 646.3053,483.7132 " fill="none" id="file-association-entity-to-file-contracts" style="stroke:#181818;stroke-width:1.0;"/><polygon fill="#181818" points="651.48,486.75,645.7425,478.7449,647.1677,484.2193,641.6934,485.6446,651.48,486.75" style="stroke:#181818;stroke-width:1.0;"/></g><!--link file-association-entity to file-metadata--><g id="link_file-association-entity_file-metadata"><path d="M507.06,329.48 C418.48,346.34 290.83,373.26 275.57,391 C252.58,417.73 255.7272,456.426 260.3772,480.836 " fill="none" id="file-association-entity-to-file-metadata" style="stroke:#181818;stroke-width:1.0;"/><polygon fill="#181818" points="261.5,486.73,263.7452,477.1405,260.5643,481.8183,255.8865,478.6375,261.5,486.73" style="stroke:#181818;stroke-width:1.0;"/></g><!--link file-association-entity to file-null--><g id="link_file-association-entity_file-null"><path d="M601.74,331.24 C610.76,348.2 621.6423,368.6528 630.6423,385.5728 " fill="none" id="file-association-entity-to-file-null" style="stroke:#181818;stroke-width:1.0;"/><polygon fill="#181818" points="633.46,390.87,632.765,381.0457,631.1119,386.4556,625.702,384.8026,633.46,390.87" style="stroke:#181818;stroke-width:1.0;"/></g><!--link file-metadata to file-metadata-contracts--><g id="link_file-metadata_file-metadata-contracts"><path d="M245.65,523.02 C225.84,539.95 200.1601,561.8905 180.2801,578.8905 " fill="none" id="file-metadata-to-file-metadata-contracts" style="stroke:#181818;stroke-width:1.0;"/><polygon fill="#181818" points="175.72,582.79,185.1597,579.9809,179.5201,579.5405,179.9605,573.9008,175.72,582.79" style="stroke:#181818;stroke-width:1.0;"/></g><!--link file-null to file-contracts--><g id="link_file-null_file-contracts"><path d="M650.64,427.24 C658.58,444.2 668.0864,464.5159 676.0064,481.4359 " fill="none" id="file-null-to-file-contracts" style="stroke:#181818;stroke-width:1.0;"/><polygon fill="#181818" points="678.55,486.87,678.3573,477.023,676.4303,482.3415,671.1118,480.4145,678.55,486.87" style="stroke:#181818;stroke-width:1.0;"/></g><!--link file-zip to file-contracts--><g id="link_file-zip_file-contracts"><path d="M358.85,419.59 C367.54,422.05 376.89,424.66 385.57,427 C470.72,449.95 564.0686,473.537 624.6086,488.647 " fill="none" id="file-zip-to-file-contracts" style="stroke:#181818;stroke-width:1.0;"/><polygon fill="#181818" points="630.43,490.1,622.6665,484.0396,625.5788,488.8892,620.7292,491.8015,630.43,490.1" style="stroke:#181818;stroke-width:1.0;"/></g><!--link file-zip to file-metadata--><g id="link_file-zip_file-metadata"><path d="M314.57,427.24 C303.74,444.2 290.5382,464.8925 279.7382,481.8125 " fill="none" id="file-zip-to-file-metadata" style="stroke:#181818;stroke-width:1.0;"/><polygon fill="#181818" points="276.51,486.87,284.724,481.4358,279.2002,482.6554,277.9806,477.1316,276.51,486.87" style="stroke:#181818;stroke-width:1.0;"/></g><!--link file-filepond to file--><g id="link_file-filepond_file"><path d="M729.93,31.71 C617.6,45.84 345.25,89.6 146.57,199 C80.9,235.16 6,265.01 41.57,331 C61.99,368.89 104.4758,389.1272 132.2258,399.2872 " fill="none" id="file-filepond-to-file" style="stroke:#181818;stroke-width:1.0;"/><polygon fill="#181818" points="137.86,401.35,130.7839,394.4996,133.1648,399.631,128.0334,402.0119,137.86,401.35" style="stroke:#181818;stroke-width:1.0;"/></g><!--link file-filepond to file-bundle--><g id="link_file-filepond_file-bundle"><path d="M790.74,43.24 C799.76,60.2 810.6423,80.6528 819.6423,97.5728 " fill="none" id="file-filepond-to-file-bundle" style="stroke:#181818;stroke-width:1.0;"/><polygon fill="#181818" points="822.46,102.87,821.765,93.0457,820.1119,98.4556,814.702,96.8026,822.46,102.87" style="stroke:#181818;stroke-width:1.0;"/></g><!--link file-filepond to file-contracts--><g id="link_file-filepond_file-contracts"><path d="M833.3,30.74 C981.58,45.73 1397.57,98.28 1397.57,216 C1397.57,216 1397.57,216 1397.57,314 C1397.57,373.79 1375.27,395.31 1324.57,427 C1228.01,487.36 885.8087,500.2971 748.6487,503.1071 " fill="none" id="file-filepond-to-file-contracts" style="stroke:#181818;stroke-width:1.0;"/><polygon fill="#181818" points="742.65,503.23,751.73,507.0448,747.649,503.1276,751.5662,499.0465,742.65,503.23" style="stroke:#181818;stroke-width:1.0;"/></g><!--link file-filepond to file-image--><g id="link_file-filepond_file-image"><path d="M819.57,43.03 C900.06,79.1 1081.4745,160.3967 1162.0245,196.4867 " fill="none" id="file-filepond-to-file-image" style="stroke:#181818;stroke-width:1.0;"/><polygon fill="#181818" points="1167.5,198.94,1160.9222,191.6097,1162.9371,196.8956,1157.6512,198.9104,1167.5,198.94" style="stroke:#181818;stroke-width:1.0;"/></g><!--link file-filepond to file-server--><g id="link_file-filepond_file-server"><path d="M777.05,43.2 C767.53,79.37 747.0571,157.1576 737.5771,193.1776 " fill="none" id="file-filepond-to-file-server" style="stroke:#181818;stroke-width:1.0;"/><polygon fill="#181818" points="736.05,198.98,742.2089,191.2945,737.3226,194.1447,734.4724,189.2583,736.05,198.98" style="stroke:#181818;stroke-width:1.0;"/></g><!--link file-filepond to file-symfony-bridge--><g id="link_file-filepond_file-symfony-bridge"><path d="M744.05,43.03 C632.13,93.84 306.9335,241.47 194.7535,292.39 " fill="none" id="file-filepond-to-file-symfony-bridge" style="stroke:#181818;stroke-width:1.0;"/><polygon fill="#181818" points="189.29,294.87,199.1386,294.7924,193.8429,292.8034,195.8319,287.5077,189.29,294.87" style="stroke:#181818;stroke-width:1.0;"/></g><!--SRC=[bPHDSiCW38NtFWKN84V8faVeifE538g7CI0FuCoufozDJMERdoGRZuVtINh2alsex0GEZ2OnecGzY75mD5lvGPeS2mwiZm3Qq7K-mKoGcSZ6my-mQ6GEHG0xQEowhwlIU66SdzdzbGkoCOa8_f9h1WD82F0Ij4eSl2UX82YoMsnpdAMhnMHS7nlVLQyAzTZJAI7Am81rUMkg2dbqDtGDVJ5NiWlldPAFOXATkZrlzy_WMyGcyuh4EPWdFa-Q88h9I2lfiuZ4hRstKkL8-K8EfuLQDQ1GiufMvtatdN5jL5YQ9TfuOoCAj9srJkH_v4kcxv4jczzgUaS_-lvznD-8B7oEWfI6lq5a1ahGRYjBm7xbYiHXndu0]--></g></svg>