<?xml version="1.0" encoding="us-ascii" standalone="no"?><svg xmlns="http://www.w3.org/2000/svg" xmlns:xlink="http://www.w3.org/1999/xlink" contentStyleType="text/css" height="1045px" preserveAspectRatio="none" style="width:698px;height:1045px;" version="1.1" viewBox="0 0 698 1045" width="698px" zoomAndPan="magnify"><defs/><g><!--class FileRepository--><g id="elem_FileRepository"><rect codeLine="1" fill="#F1F1F1" height="210.9688" id="FileRepository" rx="2.5" ry="2.5" style="stroke:#181818;stroke-width:0.5;" width="360" x="7" y="7"/><ellipse cx="134.25" cy="23" fill="#B4A7E5" rx="11" ry="11" style="stroke:#181818;stroke-width:1.0;"/><path d="M130.1719,18.7656 L130.1719,16.6094 L137.5625,16.6094 L137.5625,18.7656 L135.0938,18.7656 L135.0938,26.8438 L137.5625,26.8438 L137.5625,29 L130.1719,29 L130.1719,26.8438 L132.6406,26.8438 L132.6406,18.7656 L130.1719,18.7656 Z " fill="#000000"/><text fill="#000000" font-family="sans-serif" font-size="14" font-style="italic" lengthAdjust="spacing" textLength="97" x="154.75" y="27.8467">FileRepository</text><line style="stroke:#181818;stroke-width:0.5;" x1="8" x2="366" y1="39" y2="39"/><line style="stroke:#181818;stroke-width:0.5;" x1="8" x2="366" y1="47" y2="47"/><ellipse cx="18" cy="60.6484" fill="#84BE84" rx="3" ry="3" style="stroke:#038048;stroke-width:1.0;"/><text fill="#000000" font-family="sans-serif" font-size="14" lengthAdjust="spacing" textLength="137" x="27" y="63.9951">get(FilePointer): File</text><ellipse cx="18" cy="76.9453" fill="#84BE84" rx="3" ry="3" style="stroke:#038048;stroke-width:1.0;"/><text fill="#000000" font-family="sans-serif" font-size="14" lengthAdjust="spacing" textLength="163" x="27" y="80.292">tryGet(FilePointer): ?File</text><ellipse cx="18" cy="93.2422" fill="#84BE84" rx="3" ry="3" style="stroke:#038048;stroke-width:1.0;"/><text fill="#000000" font-family="sans-serif" font-size="14" lengthAdjust="spacing" textLength="80" x="27" y="96.5889">clear(): void</text><ellipse cx="18" cy="109.5391" fill="#84BE84" rx="3" ry="3" style="stroke:#038048;stroke-width:1.0;"/><text fill="#000000" font-family="sans-serif" font-size="14" lengthAdjust="spacing" textLength="248" x="27" y="112.8857">createFromString(FilePointer, string)</text><ellipse cx="18" cy="125.8359" fill="#84BE84" rx="3" ry="3" style="stroke:#038048;stroke-width:1.0;"/><text fill="#000000" font-family="sans-serif" font-size="14" lengthAdjust="spacing" textLength="334" x="27" y="129.1826">createFromStream(FilePointer, resource|Stream)</text><ellipse cx="18" cy="142.1328" fill="#84BE84" rx="3" ry="3" style="stroke:#038048;stroke-width:1.0;"/><text fill="#000000" font-family="sans-serif" font-size="14" lengthAdjust="spacing" textLength="266" x="27" y="145.4795">createFromLocalFile(FilePointer, string)</text><ellipse cx="18" cy="158.4297" fill="#84BE84" rx="3" ry="3" style="stroke:#038048;stroke-width:1.0;"/><text fill="#000000" font-family="sans-serif" font-size="14" lengthAdjust="spacing" textLength="163" x="27" y="161.7764">delete(FilePointer): void</text><ellipse cx="18" cy="174.7266" fill="#84BE84" rx="3" ry="3" style="stroke:#038048;stroke-width:1.0;"/><text fill="#000000" font-family="sans-serif" font-size="14" lengthAdjust="spacing" textLength="283" x="27" y="178.0732">copy(File|FilePointer, File|FilePointer): File</text><ellipse cx="18" cy="191.0234" fill="#84BE84" rx="3" ry="3" style="stroke:#038048;stroke-width:1.0;"/><text fill="#000000" font-family="sans-serif" font-size="14" lengthAdjust="spacing" textLength="288" x="27" y="194.3701">move(File|FilePointer, File|FilePointer): File</text><ellipse cx="18" cy="207.3203" fill="#84BE84" rx="3" ry="3" style="stroke:#038048;stroke-width:1.0;"/><text fill="#000000" font-family="sans-serif" font-size="14" lengthAdjust="spacing" textLength="151" x="27" y="210.667">createTemporaryFile()</text></g><!--class FilePointer--><g id="elem_FilePointer"><rect codeLine="14" fill="#F1F1F1" height="113.1875" id="FilePointer" rx="2.5" ry="2.5" style="stroke:#181818;stroke-width:0.5;" width="298" x="240" y="278"/><ellipse cx="349.25" cy="294" fill="#B4A7E5" rx="11" ry="11" style="stroke:#181818;stroke-width:1.0;"/><path d="M345.1719,289.7656 L345.1719,287.6094 L352.5625,287.6094 L352.5625,289.7656 L350.0938,289.7656 L350.0938,297.8438 L352.5625,297.8438 L352.5625,300 L345.1719,300 L345.1719,297.8438 L347.6406,297.8438 L347.6406,289.7656 L345.1719,289.7656 Z " fill="#000000"/><text fill="#000000" font-family="sans-serif" font-size="14" font-style="italic" lengthAdjust="spacing" textLength="71" x="369.75" y="298.8467">FilePointer</text><line style="stroke:#181818;stroke-width:0.5;" x1="241" x2="537" y1="310" y2="310"/><text fill="#000000" font-family="sans-serif" font-size="14" lengthAdjust="spacing" textLength="176" x="246" y="326.9951">filesystemIdentifier: string</text><text fill="#000000" font-family="sans-serif" font-size="14" lengthAdjust="spacing" textLength="72" x="246" y="343.292">key: string</text><line style="stroke:#181818;stroke-width:0.5;" x1="241" x2="537" y1="350.5938" y2="350.5938"/><ellipse cx="251" cy="364.2422" fill="#84BE84" rx="3" ry="3" style="stroke:#038048;stroke-width:1.0;"/><text fill="#000000" font-family="sans-serif" font-size="14" lengthAdjust="spacing" textLength="216" x="260" y="367.5889">isEqualTo(File|FilePointer): bool</text><ellipse cx="251" cy="380.5391" fill="#84BE84" rx="3" ry="3" style="stroke:#038048;stroke-width:1.0;"/><text fill="#000000" font-family="sans-serif" font-size="14" lengthAdjust="spacing" textLength="272" x="260" y="383.8857">isSameFilesystem(File|FilePointer): bool</text></g><!--class File--><g id="elem_File"><rect codeLine="25" fill="#F1F1F1" height="357.6406" id="File" rx="2.5" ry="2.5" style="stroke:#181818;stroke-width:0.5;" width="351" x="212.5" y="455"/><ellipse cx="372.25" cy="471" fill="#B4A7E5" rx="11" ry="11" style="stroke:#181818;stroke-width:1.0;"/><path d="M368.1719,466.7656 L368.1719,464.6094 L375.5625,464.6094 L375.5625,466.7656 L373.0938,466.7656 L373.0938,474.8438 L375.5625,474.8438 L375.5625,477 L368.1719,477 L368.1719,474.8438 L370.6406,474.8438 L370.6406,466.7656 L368.1719,466.7656 Z " fill="#000000"/><text fill="#000000" font-family="sans-serif" font-size="14" font-style="italic" lengthAdjust="spacing" textLength="23" x="392.75" y="475.8467">File</text><line style="stroke:#181818;stroke-width:0.5;" x1="213.5" x2="562.5" y1="487" y2="487"/><ellipse cx="223.5" cy="500.6484" fill="none" rx="3" ry="3" style="stroke:#038048;stroke-width:1.0;"/><text fill="#000000" font-family="sans-serif" font-size="14" lengthAdjust="spacing" textLength="183" x="232.5" y="503.9951">filesystemIdentifier: ?string</text><ellipse cx="223.5" cy="516.9453" fill="none" rx="3" ry="3" style="stroke:#038048;stroke-width:1.0;"/><text fill="#000000" font-family="sans-serif" font-size="14" lengthAdjust="spacing" textLength="72" x="232.5" y="520.292">key: string</text><ellipse cx="223.5" cy="533.2422" fill="none" rx="3" ry="3" style="stroke:#038048;stroke-width:1.0;"/><text fill="#000000" font-family="sans-serif" font-size="14" lengthAdjust="spacing" textLength="130" x="232.5" y="536.5889">pointer: FilePointer</text><ellipse cx="223.5" cy="549.5391" fill="none" rx="3" ry="3" style="stroke:#038048;stroke-width:1.0;"/><text fill="#000000" font-family="sans-serif" font-size="14" lengthAdjust="spacing" textLength="111" x="232.5" y="552.8857">name: FileName</text><ellipse cx="223.5" cy="565.8359" fill="none" rx="3" ry="3" style="stroke:#038048;stroke-width:1.0;"/><text fill="#000000" font-family="sans-serif" font-size="14" lengthAdjust="spacing" textLength="102" x="232.5" y="569.1826">content: string</text><ellipse cx="223.5" cy="582.1328" fill="none" rx="3" ry="3" style="stroke:#038048;stroke-width:1.0;"/><text fill="#000000" font-family="sans-serif" font-size="14" lengthAdjust="spacing" textLength="178" x="232.5" y="585.4795">contentAsStream: Stream</text><ellipse cx="223.5" cy="598.4297" fill="none" rx="3" ry="3" style="stroke:#038048;stroke-width:1.0;"/><text fill="#000000" font-family="sans-serif" font-size="14" lengthAdjust="spacing" textLength="160" x="232.5" y="601.7764">mediaType: MediaType</text><ellipse cx="223.5" cy="614.7266" fill="none" rx="3" ry="3" style="stroke:#038048;stroke-width:1.0;"/><text fill="#000000" font-family="sans-serif" font-size="14" lengthAdjust="spacing" textLength="54" x="232.5" y="618.0732">size: int</text><ellipse cx="223.5" cy="631.0234" fill="none" rx="3" ry="3" style="stroke:#038048;stroke-width:1.0;"/><text fill="#000000" font-family="sans-serif" font-size="14" lengthAdjust="spacing" textLength="158" x="232.5" y="634.3701">lastModified: DateTime</text><line style="stroke:#181818;stroke-width:0.5;" x1="213.5" x2="562.5" y1="641.6719" y2="641.6719"/><ellipse cx="223.5" cy="655.3203" fill="#84BE84" rx="3" ry="3" style="stroke:#038048;stroke-width:1.0;"/><text fill="#000000" font-family="sans-serif" font-size="14" lengthAdjust="spacing" textLength="216" x="232.5" y="658.667">isEqualTo(File|FilePointer): bool</text><ellipse cx="223.5" cy="671.6172" fill="#84BE84" rx="3" ry="3" style="stroke:#038048;stroke-width:1.0;"/><text fill="#000000" font-family="sans-serif" font-size="14" lengthAdjust="spacing" textLength="272" x="232.5" y="674.9639">isSameFilesystem(File|FilePointer): bool</text><ellipse cx="223.5" cy="687.9141" fill="#84BE84" rx="3" ry="3" style="stroke:#038048;stroke-width:1.0;"/><text fill="#000000" font-family="sans-serif" font-size="14" lengthAdjust="spacing" textLength="148" x="232.5" y="691.2607">setName(string): void</text><ellipse cx="223.5" cy="704.2109" fill="#84BE84" rx="3" ry="3" style="stroke:#038048;stroke-width:1.0;"/><text fill="#000000" font-family="sans-serif" font-size="14" lengthAdjust="spacing" textLength="164" x="232.5" y="707.5576">setContent(string): void</text><ellipse cx="223.5" cy="720.5078" fill="#84BE84" rx="3" ry="3" style="stroke:#038048;stroke-width:1.0;"/><text fill="#000000" font-family="sans-serif" font-size="14" lengthAdjust="spacing" textLength="325" x="232.5" y="723.8545">setContentFromStream(resource|Stream): void</text><ellipse cx="223.5" cy="736.8047" fill="#84BE84" rx="3" ry="3" style="stroke:#038048;stroke-width:1.0;"/><text fill="#000000" font-family="sans-serif" font-size="14" lengthAdjust="spacing" textLength="235" x="232.5" y="740.1514">saveToLocalFile(string): SplFileInfo</text><ellipse cx="223.5" cy="753.1016" fill="#84BE84" rx="3" ry="3" style="stroke:#038048;stroke-width:1.0;"/><text fill="#000000" font-family="sans-serif" font-size="14" lengthAdjust="spacing" textLength="264" x="232.5" y="756.4482">createLocalTemporaryFile(): SplFileInfo</text><ellipse cx="223.5" cy="769.3984" fill="#84BE84" rx="3" ry="3" style="stroke:#038048;stroke-width:1.0;"/><text fill="#000000" font-family="sans-serif" font-size="14" lengthAdjust="spacing" textLength="183" x="232.5" y="772.7451">setMediaType(string): void</text><ellipse cx="223.5" cy="785.6953" fill="#84BE84" rx="3" ry="3" style="stroke:#038048;stroke-width:1.0;"/><text fill="#000000" font-family="sans-serif" font-size="14" lengthAdjust="spacing" textLength="222" x="232.5" y="789.042">getDerivation(string): FilePointer</text><ellipse cx="223.5" cy="801.9922" fill="#84BE84" rx="3" ry="3" style="stroke:#038048;stroke-width:1.0;"/><text fill="#000000" font-family="sans-serif" font-size="14" lengthAdjust="spacing" textLength="122" x="232.5" y="805.3389">get(string): mixed</text></g><!--class FileName--><g id="elem_FileName"><rect codeLine="50" fill="#F1F1F1" height="162.0781" id="FileName" rx="2.5" ry="2.5" style="stroke:#181818;stroke-width:0.5;" width="202" x="160" y="876"/><ellipse cx="224.75" cy="892" fill="#B4A7E5" rx="11" ry="11" style="stroke:#181818;stroke-width:1.0;"/><path d="M220.6719,887.7656 L220.6719,885.6094 L228.0625,885.6094 L228.0625,887.7656 L225.5938,887.7656 L225.5938,895.8438 L228.0625,895.8438 L228.0625,898 L220.6719,898 L220.6719,895.8438 L223.1406,895.8438 L223.1406,887.7656 L220.6719,887.7656 Z " fill="#000000"/><text fill="#000000" font-family="sans-serif" font-size="14" font-style="italic" lengthAdjust="spacing" textLength="64" x="245.25" y="896.8467">FileName</text><line style="stroke:#181818;stroke-width:0.5;" x1="161" x2="361" y1="908" y2="908"/><ellipse cx="171" cy="921.6484" fill="none" rx="3" ry="3" style="stroke:#038048;stroke-width:1.0;"/><text fill="#000000" font-family="sans-serif" font-size="14" lengthAdjust="spacing" textLength="156" x="180" y="924.9951">full: string|Translatable</text><ellipse cx="171" cy="937.9453" fill="none" rx="3" ry="3" style="stroke:#038048;stroke-width:1.0;"/><text fill="#000000" font-family="sans-serif" font-size="14" lengthAdjust="spacing" textLength="171" x="180" y="941.292">base: string|Translatable</text><ellipse cx="171" cy="954.2422" fill="none" rx="3" ry="3" style="stroke:#038048;stroke-width:1.0;"/><text fill="#000000" font-family="sans-serif" font-size="14" lengthAdjust="spacing" textLength="116" x="180" y="957.5889">extension: string</text><line style="stroke:#181818;stroke-width:0.5;" x1="161" x2="361" y1="964.8906" y2="964.8906"/><ellipse cx="171" cy="978.5391" fill="#84BE84" rx="3" ry="3" style="stroke:#038048;stroke-width:1.0;"/><text fill="#000000" font-family="sans-serif" font-size="14" lengthAdjust="spacing" textLength="131" x="180" y="981.8857">setFull(string): void</text><ellipse cx="171" cy="994.8359" fill="#84BE84" rx="3" ry="3" style="stroke:#038048;stroke-width:1.0;"/><text fill="#000000" font-family="sans-serif" font-size="14" lengthAdjust="spacing" textLength="143" x="180" y="998.1826">setBase(string): void</text><ellipse cx="171" cy="1011.1328" fill="#84BE84" rx="3" ry="3" style="stroke:#038048;stroke-width:1.0;"/><text fill="#000000" font-family="sans-serif" font-size="14" lengthAdjust="spacing" textLength="176" x="180" y="1014.4795">setExtension(string): void</text><ellipse cx="171" cy="1027.4297" fill="#84BE84" rx="3" ry="3" style="stroke:#038048;stroke-width:1.0;"/><text fill="#000000" font-family="sans-serif" font-size="14" lengthAdjust="spacing" textLength="142" x="180" y="1030.7764">hasExtension(): bool</text></g><!--class FileType--><g id="elem_FileType"><rect codeLine="60" fill="#F1F1F1" height="145.7813" id="FileType" rx="2.5" ry="2.5" style="stroke:#181818;stroke-width:0.5;" width="240" x="397" y="884"/><ellipse cx="483.75" cy="900" fill="#B4A7E5" rx="11" ry="11" style="stroke:#181818;stroke-width:1.0;"/><path d="M479.6719,895.7656 L479.6719,893.6094 L487.0625,893.6094 L487.0625,895.7656 L484.5938,895.7656 L484.5938,903.8438 L487.0625,903.8438 L487.0625,906 L479.6719,906 L479.6719,903.8438 L482.1406,903.8438 L482.1406,895.7656 L479.6719,895.7656 Z " fill="#000000"/><text fill="#000000" font-family="sans-serif" font-size="14" font-style="italic" lengthAdjust="spacing" textLength="58" x="504.25" y="904.8467">FileType</text><line style="stroke:#181818;stroke-width:0.5;" x1="398" x2="636" y1="916" y2="916"/><ellipse cx="408" cy="929.6484" fill="none" rx="3" ry="3" style="stroke:#038048;stroke-width:1.0;"/><text fill="#000000" font-family="sans-serif" font-size="14" lengthAdjust="spacing" textLength="87" x="417" y="932.9951">name: string</text><ellipse cx="408" cy="945.9453" fill="none" rx="3" ry="3" style="stroke:#038048;stroke-width:1.0;"/><text fill="#000000" font-family="sans-serif" font-size="14" lengthAdjust="spacing" textLength="78" x="417" y="949.292">type: string</text><ellipse cx="408" cy="962.2422" fill="none" rx="3" ry="3" style="stroke:#038048;stroke-width:1.0;"/><text fill="#000000" font-family="sans-serif" font-size="14" lengthAdjust="spacing" textLength="108" x="417" y="965.5889">subType: string</text><ellipse cx="408" cy="978.5391" fill="none" rx="3" ry="3" style="stroke:#038048;stroke-width:1.0;"/><text fill="#000000" font-family="sans-serif" font-size="14" lengthAdjust="spacing" textLength="179" x="417" y="981.8857">commonExtensions: array</text><ellipse cx="408" cy="994.8359" fill="none" rx="3" ry="3" style="stroke:#038048;stroke-width:1.0;"/><text fill="#000000" font-family="sans-serif" font-size="14" lengthAdjust="spacing" textLength="123" x="417" y="998.1826">extension: ?string</text><ellipse cx="408" cy="1011.1328" fill="none" rx="3" ry="3" style="stroke:#038048;stroke-width:1.0;"/><text fill="#000000" font-family="sans-serif" font-size="14" lengthAdjust="spacing" textLength="214" x="417" y="1014.4795">description: string|Translatable</text><line style="stroke:#181818;stroke-width:0.5;" x1="398" x2="636" y1="1021.7813" y2="1021.7813"/></g><!--reverse link FileRepository to File--><g id="link_FileRepository_File"><path codeLine="21" d="M189.9027,230.0982 C193.7827,283.3082 202.1,336.19 223,391 C230.69,411.17 240.37,431.29 251.17,450.84 " fill="none" id="FileRepository-backto-File" style="stroke:#181818;stroke-width:1.0;"/><polygon fill="none" points="189.03,218.13,185.4769,224.405,189.9027,230.0982,193.4558,223.8232,189.03,218.13" style="stroke:#181818;stroke-width:1.0;"/></g><!--link FilePointer to File--><g id="link_FilePointer_File"><path codeLine="22" d="M508.11,391.13 C530.47,407.2 550.91,427.04 564,451 C581.15,482.4 612.78,531.5 577,531.5 " fill="none" id="FilePointer-to-File" style="stroke:#181818;stroke-width:1.0;"/><polygon fill="#181818" points="565,531.5,571,535.5,577,531.5,571,527.5,565,531.5" style="stroke:#181818;stroke-width:1.0;"/></g><!--link FilePointer to File--><g id="link_FilePointer_File"><path codeLine="23" d="M388.81,391.02 C388.75,408.64 388.68,429.2 388.61,450.74 " fill="none" id="FilePointer-File" style="stroke:#181818;stroke-width:1.0;"/></g><!--reverse link File to FileName--><g id="link_File_FileName"><path codeLine="47" d="M200,547.5 C69.11,547.5 162.71,756.81 219.67,875.78 " fill="none" id="File-backto-FileName" style="stroke:#181818;stroke-width:1.0;"/><polygon fill="#181818" points="212,547.5,206,543.5,200,547.5,206,551.5,212,547.5" style="stroke:#181818;stroke-width:1.0;"/></g><!--reverse link File to FileType--><g id="link_File_FileType"><path codeLine="48" d="M577,596.5 C691.76,596.5 606.79,778.7 555.23,883.68 " fill="none" id="File-backto-FileType" style="stroke:#181818;stroke-width:1.0;"/><polygon fill="#181818" points="565,596.5,571,600.5,577,596.5,571,592.5,565,596.5" style="stroke:#181818;stroke-width:1.0;"/></g><!--SRC=[jLJ1Sfim4BtxApZQIVa1BfasYJkPIJgTcXzOOErgB6c993oXSVwzGW8i0V5C3_N5iE-jTj_k4_h8P0qA1AVoY5LIG7ayA6faTK-SL68KI6q9ACsAIODg3oKcMyRn5zQacI7L9k-hnFvk3sZM7VAJ77EJEPx7Z6g_p-2x2rvo1BMsiHEngWyf18DRHM9d59E7CFbBebriiq15435LeQP6bNZsu2pdcKhWNSQL2XLoD3ZfF-YLwjQ1v-Y8QIGQYQ0J_ckERpf7KPC2rRgcDwkFrMGtVMg_cBsDw5OR54-LtIFRCrHPByyHZjX6xxTCFxusm7DQBtHJ4F61jWE1s_7uJzcsmObbA4rJholiDqrlN33BQX-Pe3vZ8dQmtxBCkr3NJ6XV9Wkdzdz6uDZISdsj7_R9npIQxcNTsorqbONkoHuYpNKqCFxKwx597JkUG1_ygdr2blZ_lWISCAVB_HYxsDKky2Jt51hJCIVkN20Bh1ZaRMrdyJ8yZfh6oA9cziScsS7wLmxQl53LhRhAaeVkQh1XhlPhz82AdS0mafUpPelklbeZAjWRLeDTiwpRLtBJ-ywjpCT70IFe94oCsIMCvcmu7mP_phkFAWS31R_etbh6akG2D5xF_6OPIvduPZUhhVfuupRZSK2Mqdw3lk313Ox5EVNleQt36iOjDwhQ5FaiM98G9CTgEaj0AMXdxKUNk49TAbQRG5Wybu-_]--></g></svg>