<?xml version="1.0" encoding="us-ascii" standalone="no"?><svg xmlns="http://www.w3.org/2000/svg" xmlns:xlink="http://www.w3.org/1999/xlink" contentStyleType="text/css" height="529px" preserveAspectRatio="none" style="width:1227px;height:529px;" version="1.1" viewBox="0 0 1227 529" width="1227px" zoomAndPan="magnify"><defs/><g><!--entity file--><g id="elem_file"><rect fill="#F1F1F1" height="36.2969" rx="2.5" ry="2.5" style="stroke:#181818;stroke-width:0.5;" width="39" x="219.61" y="295"/><text fill="#000000" font-family="sans-serif" font-size="14" lengthAdjust="spacing" textLength="19" x="229.61" y="317.9951">file</text></g><!--entity file-contracts--><g id="elem_file-contracts"><rect fill="#F1F1F1" height="36.2969" rx="2.5" ry="2.5" style="stroke:#181818;stroke-width:0.5;" width="109" x="624.61" y="391"/><text fill="#000000" font-family="sans-serif" font-size="14" lengthAdjust="spacing" textLength="89" x="634.61" y="413.9951">file-contracts</text></g><!--entity file-metadata-contracts--><g id="elem_file-metadata-contracts"><rect fill="#F1F1F1" height="36.2969" rx="2.5" ry="2.5" style="stroke:#181818;stroke-width:0.5;" width="179" x="139.61" y="487"/><text fill="#000000" font-family="sans-serif" font-size="14" lengthAdjust="spacing" textLength="159" x="149.61" y="509.9951">file-metadata-contracts</text></g><!--entity file-metadata--><g id="elem_file-metadata"><rect fill="#F1F1F1" height="36.2969" rx="2.5" ry="2.5" style="stroke:#181818;stroke-width:0.5;" width="109" x="282.61" y="391"/><text fill="#000000" font-family="sans-serif" font-size="14" lengthAdjust="spacing" textLength="89" x="292.61" y="413.9951">file-metadata</text></g><!--entity file-association--><g id="elem_file-association"><rect fill="#F1F1F1" height="36.2969" rx="2.5" ry="2.5" style="stroke:#181818;stroke-width:0.5;" width="122" x="803.11" y="103"/><text fill="#000000" font-family="sans-serif" font-size="14" lengthAdjust="spacing" textLength="102" x="813.11" y="125.9951">file-association</text></g><!--entity file-association-contracts--><g id="elem_file-association-contracts"><rect fill="#F1F1F1" height="36.2969" rx="2.5" ry="2.5" style="stroke:#181818;stroke-width:0.5;" width="192" x="768.11" y="199"/><text fill="#000000" font-family="sans-serif" font-size="14" lengthAdjust="spacing" textLength="172" x="778.11" y="221.9951">file-association-contracts</text></g><!--entity file-bundle--><g id="elem_file-bundle"><rect fill="#F1F1F1" height="36.2969" rx="2.5" ry="2.5" style="stroke:#181818;stroke-width:0.5;" width="92" x="743.11" y="7"/><text fill="#000000" font-family="sans-serif" font-size="14" lengthAdjust="spacing" textLength="72" x="753.11" y="29.9951">file-bundle</text></g><!--entity file-image--><g id="elem_file-image"><rect fill="#F1F1F1" height="36.2969" rx="2.5" ry="2.5" style="stroke:#181818;stroke-width:0.5;" width="86" x="1066.11" y="199"/><text fill="#000000" font-family="sans-serif" font-size="14" lengthAdjust="spacing" textLength="66" x="1076.11" y="221.9951">file-image</text></g><!--entity file-server--><g id="elem_file-server"><rect fill="#F1F1F1" height="36.2969" rx="2.5" ry="2.5" style="stroke:#181818;stroke-width:0.5;" width="87" x="671.61" y="103"/><text fill="#000000" font-family="sans-serif" font-size="14" lengthAdjust="spacing" textLength="67" x="681.61" y="125.9951">file-server</text></g><!--entity file-symfony-bridge--><g id="elem_file-symfony-bridge"><rect fill="#F1F1F1" height="36.2969" rx="2.5" ry="2.5" style="stroke:#181818;stroke-width:0.5;" width="150" x="72.11" y="199"/><text fill="#000000" font-family="sans-serif" font-size="14" lengthAdjust="spacing" textLength="130" x="82.11" y="221.9951">file-symfony-bridge</text></g><!--entity file-derivation--><g id="elem_file-derivation"><rect fill="#F1F1F1" height="36.2969" rx="2.5" ry="2.5" style="stroke:#181818;stroke-width:0.5;" width="111" x="1053.61" y="295"/><text fill="#000000" font-family="sans-serif" font-size="14" lengthAdjust="spacing" textLength="91" x="1063.61" y="317.9951">file-derivation</text></g><!--entity file-oneup-uploader-bridge--><g id="elem_file-oneup-uploader-bridge"><rect fill="#F1F1F1" height="36.2969" rx="2.5" ry="2.5" style="stroke:#181818;stroke-width:0.5;" width="204" x="257.11" y="199"/><text fill="#000000" font-family="sans-serif" font-size="14" lengthAdjust="spacing" textLength="184" x="267.11" y="221.9951">file-oneup-uploader-bridge</text></g><!--entity file-association-entity--><g id="elem_file-association-entity"><rect fill="#F1F1F1" height="36.2969" rx="2.5" ry="2.5" style="stroke:#181818;stroke-width:0.5;" width="165" x="496.61" y="199"/><text fill="#000000" font-family="sans-serif" font-size="14" lengthAdjust="spacing" textLength="145" x="506.61" y="221.9951">file-association-entity</text></g><!--entity file-null--><g id="elem_file-null"><rect fill="#F1F1F1" height="36.2969" rx="2.5" ry="2.5" style="stroke:#181818;stroke-width:0.5;" width="68" x="523.11" y="295"/><text fill="#000000" font-family="sans-serif" font-size="14" lengthAdjust="spacing" textLength="48" x="533.11" y="317.9951">file-null</text></g><!--link file to file-contracts--><g id="link_file_file-contracts"><path d="M258.68,320.45 C269.37,323.84 282.89,327.93 295.11,331 C411.33,360.22 543.6292,384.6692 618.4592,397.7192 " fill="none" id="file-to-file-contracts" style="stroke:#181818;stroke-width:1.0;"/><polygon fill="#181818" points="624.37,398.75,616.191,393.2633,619.4443,397.891,614.8166,401.1443,624.37,398.75" style="stroke:#181818;stroke-width:1.0;"/></g><!--link file to file-metadata-contracts--><g id="link_file_file-metadata-contracts"><path d="M238.21,331.2 C236.3,367.37 232.2144,444.9682 230.3244,480.9882 " fill="none" id="file-to-file-metadata-contracts" style="stroke:#181818;stroke-width:1.0;"/><polygon fill="#181818" points="230.01,486.98,234.4761,478.202,230.272,481.9869,226.4871,477.7828,230.01,486.98" style="stroke:#181818;stroke-width:1.0;"/></g><!--link file to file-metadata--><g id="link_file_file-metadata"><path d="M257.09,331.24 C274.77,348.2 297.2799,369.7966 314.9199,386.7166 " fill="none" id="file-to-file-metadata" style="stroke:#181818;stroke-width:1.0;"/><polygon fill="#181818" points="319.25,390.87,315.5238,381.7532,315.6416,387.4089,309.986,387.5267,319.25,390.87" style="stroke:#181818;stroke-width:1.0;"/></g><!--link file-association to file-association-contracts--><g id="link_file-association_file-association-contracts"><path d="M864.11,139.24 C864.11,156.2 864.11,175.95 864.11,192.87 " fill="none" id="file-association-to-file-association-contracts" style="stroke:#181818;stroke-width:1.0;"/><polygon fill="#181818" points="864.11,198.87,868.11,189.87,864.11,193.87,860.11,189.87,864.11,198.87" style="stroke:#181818;stroke-width:1.0;"/></g><!--link file-association to file-contracts--><g id="link_file-association_file-contracts"><path d="M904.67,139.04 C946.1,159.1 1001.29,194.81 978.11,235 C925.53,326.18 810.2765,371.9582 739.3665,392.7982 " fill="none" id="file-association-to-file-contracts" style="stroke:#181818;stroke-width:1.0;"/><polygon fill="#181818" points="733.61,394.49,743.3727,395.79,738.4071,393.0802,741.1169,388.1146,733.61,394.49" style="stroke:#181818;stroke-width:1.0;"/></g><!--link file-bundle to file--><g id="link_file-bundle_file"><path d="M742.85,29.45 C595.07,41.55 139.04,87.47 54.11,199 C6,262.18 156.973,296.8733 213.613,307.5033 " fill="none" id="file-bundle-to-file" style="stroke:#181818;stroke-width:1.0;"/><polygon fill="#181818" points="219.51,308.61,211.4023,303.0185,214.5958,307.6877,209.9266,310.8813,219.51,308.61" style="stroke:#181818;stroke-width:1.0;"/></g><!--link file-bundle to file-contracts--><g id="link_file-bundle_file-contracts"><path d="M835.3,31.56 C918.57,44.32 1092.42,84.04 1170.11,199 C1203.09,247.81 1220.48,286.3 1182.11,331 C1124.78,397.78 857.9798,407.2033 739.8498,408.1233 " fill="none" id="file-bundle-to-file-contracts" style="stroke:#181818;stroke-width:1.0;"/><polygon fill="#181818" points="733.85,408.17,742.8809,412.0998,738.8498,408.1311,742.8186,404.1,733.85,408.17" style="stroke:#181818;stroke-width:1.0;"/></g><!--link file-bundle to file-image--><g id="link_file-bundle_file-image"><path d="M826.56,43 C858.21,57.77 904.44,80.31 943.11,103 C996.03,134.05 1049.8115,172.2719 1081.2715,195.3419 " fill="none" id="file-bundle-to-file-image" style="stroke:#181818;stroke-width:1.0;stroke-dasharray:7.0,7.0;"/><polygon fill="#181818" points="1086.11,198.89,1081.2177,190.3422,1082.0779,195.9332,1076.4869,196.7935,1086.11,198.89" style="stroke:#181818;stroke-width:1.0;"/></g><!--link file-bundle to file-association--><g id="link_file-bundle_file-association"><path d="M802.87,43.24 C816.4,60.2 833.1979,81.2599 846.6979,98.1799 " fill="none" id="file-bundle-to-file-association" style="stroke:#181818;stroke-width:1.0;stroke-dasharray:7.0,7.0;"/><polygon fill="#181818" points="850.44,102.87,847.9536,93.3402,847.3216,98.9616,841.7002,98.3296,850.44,102.87" style="stroke:#181818;stroke-width:1.0;"/></g><!--link file-bundle to file-server--><g id="link_file-bundle_file-server"><path d="M775.54,43.24 C762.19,60.2 745.6314,81.2356 732.3114,98.1556 " fill="none" id="file-bundle-to-file-server" style="stroke:#181818;stroke-width:1.0;stroke-dasharray:7.0,7.0;"/><polygon fill="#181818" points="728.6,102.87,737.31,98.2726,731.6928,98.9413,731.0241,93.3241,728.6,102.87" style="stroke:#181818;stroke-width:1.0;"/></g><!--link file-bundle to file-symfony-bridge--><g id="link_file-bundle_file-symfony-bridge"><path d="M742.94,39.66 C628.22,73.61 336.2034,160.0375 210.3534,197.2775 " fill="none" id="file-bundle-to-file-symfony-bridge" style="stroke:#181818;stroke-width:1.0;stroke-dasharray:7.0,7.0;"/><polygon fill="#181818" points="204.6,198.98,214.3651,200.2619,209.3945,197.5613,212.0951,192.5907,204.6,198.98" style="stroke:#181818;stroke-width:1.0;"/></g><!--link file-derivation to file-contracts--><g id="link_file-derivation_file-contracts"><path d="M1053.34,326.19 C970.51,344.3 821.8117,376.809 739.6317,394.769 " fill="none" id="file-derivation-to-file-contracts" style="stroke:#181818;stroke-width:1.0;"/><polygon fill="#181818" points="733.77,396.05,743.4165,398.0362,738.6547,394.9825,741.7085,390.2207,733.77,396.05" style="stroke:#181818;stroke-width:1.0;"/></g><!--link file-image to file-contracts--><g id="link_file-image_file-contracts"><path d="M1090.65,235.06 C1063.12,259.64 1008.79,304.9 955.11,331 C882.52,366.29 796.9722,386.6477 739.7322,397.6477 " fill="none" id="file-image-to-file-contracts" style="stroke:#181818;stroke-width:1.0;"/><polygon fill="#181818" points="733.84,398.78,743.4332,401.0096,738.7502,397.8364,741.9234,393.1534,733.84,398.78" style="stroke:#181818;stroke-width:1.0;"/></g><!--link file-image to file-derivation--><g id="link_file-image_file-derivation"><path d="M1109.11,235.24 C1109.11,252.2 1109.11,271.95 1109.11,288.87 " fill="none" id="file-image-to-file-derivation" style="stroke:#181818;stroke-width:1.0;"/><polygon fill="#181818" points="1109.11,294.87,1113.11,285.87,1109.11,289.87,1105.11,285.87,1109.11,294.87" style="stroke:#181818;stroke-width:1.0;"/></g><!--link file-oneup-uploader-bridge to file-contracts--><g id="link_file-oneup-uploader-bridge_file-contracts"><path d="M378.48,235.31 C405.62,258.99 457.16,301.85 506.11,331 C547.07,355.39 591.5455,374.6559 627.2555,388.6859 " fill="none" id="file-oneup-uploader-bridge-to-file-contracts" style="stroke:#181818;stroke-width:1.0;"/><polygon fill="#181818" points="632.84,390.88,625.926,383.8659,628.1863,389.0516,623.0006,391.3119,632.84,390.88" style="stroke:#181818;stroke-width:1.0;"/></g><!--link file-oneup-uploader-bridge to file--><g id="link_file-oneup-uploader-bridge_file"><path d="M337.38,235.02 C314.96,252.59 285.0134,276.04 263.4134,292.96 " fill="none" id="file-oneup-uploader-bridge-to-file" style="stroke:#181818;stroke-width:1.0;"/><polygon fill="#181818" points="258.69,296.66,268.2417,294.259,262.6261,293.5767,263.3084,287.9611,258.69,296.66" style="stroke:#181818;stroke-width:1.0;"/></g><!--link file-server to file-contracts--><g id="link_file-server_file-contracts"><path d="M712.97,139.03 C706.58,189.78 688.4691,333.6369 682.0391,384.7369 " fill="none" id="file-server-to-file-contracts" style="stroke:#181818;stroke-width:1.0;"/><polygon fill="#181818" points="681.29,390.69,686.3823,382.2598,681.9142,385.7291,678.4449,381.261,681.29,390.69" style="stroke:#181818;stroke-width:1.0;"/></g><!--link file-server to file-symfony-bridge--><g id="link_file-server_file-symfony-bridge"><path d="M671.51,128.77 C587.8,141.83 398.8,171.64 240.11,199 C234.29,200 234.1666,200.0056 228.1166,201.0856 " fill="none" id="file-server-to-file-symfony-bridge" style="stroke:#181818;stroke-width:1.0;"/><polygon fill="#181818" points="222.21,202.14,231.7729,204.4961,227.1322,201.2613,230.367,196.6206,222.21,202.14" style="stroke:#181818;stroke-width:1.0;"/></g><!--link file-symfony-bridge to file--><g id="link_file-symfony-bridge_file"><path d="M163.99,235.24 C180.58,252.2 201.5832,273.662 218.1432,290.582 " fill="none" id="file-symfony-bridge-to-file" style="stroke:#181818;stroke-width:1.0;"/><polygon fill="#181818" points="222.34,294.87,218.9035,285.6401,218.8427,291.2967,213.1862,291.2358,222.34,294.87" style="stroke:#181818;stroke-width:1.0;"/></g><!--link file-symfony-bridge to file-contracts--><g id="link_file-symfony-bridge_file-contracts"><path d="M190.63,235.01 C248.82,257.62 355.3,298.49 447.11,331 C507.92,352.53 572.59,373.7972 619.75,389.0172 " fill="none" id="file-symfony-bridge-to-file-contracts" style="stroke:#181818;stroke-width:1.0;"/><polygon fill="#181818" points="625.46,390.86,618.1235,384.2891,620.7017,389.3243,615.6665,391.9025,625.46,390.86" style="stroke:#181818;stroke-width:1.0;"/></g><!--link file-symfony-bridge to file-metadata-contracts--><g id="link_file-symfony-bridge_file-metadata-contracts"><path d="M151.99,235.03 C166.54,285.78 207.8465,429.8223 222.4965,480.9223 " fill="none" id="file-symfony-bridge-to-file-metadata-contracts" style="stroke:#181818;stroke-width:1.0;"/><polygon fill="#181818" points="224.15,486.69,225.5148,476.9362,222.772,481.8836,217.8246,479.1409,224.15,486.69" style="stroke:#181818;stroke-width:1.0;"/></g><!--link file-association-entity to file-contracts--><g id="link_file-association-entity_file-contracts"><path d="M588.16,235.2 C607.2,271.37 648.3953,349.6506 667.3553,385.6706 " fill="none" id="file-association-entity-to-file-contracts" style="stroke:#181818;stroke-width:1.0;"/><polygon fill="#181818" points="670.15,390.98,669.4975,381.1528,667.8211,386.5555,662.4183,384.8791,670.15,390.98" style="stroke:#181818;stroke-width:1.0;"/></g><!--link file-association-entity to file-metadata--><g id="link_file-association-entity_file-metadata"><path d="M557.21,235.2 C511.13,271.37 409.3893,351.2549 363.5093,387.2749 " fill="none" id="file-association-entity-to-file-metadata" style="stroke:#181818;stroke-width:1.0;"/><polygon fill="#181818" points="358.79,390.98,368.3391,388.5686,362.7228,387.8924,363.3989,382.2761,358.79,390.98" style="stroke:#181818;stroke-width:1.0;"/></g><!--link file-association-entity to file-null--><g id="link_file-association-entity_file-null"><path d="M575.08,235.24 C571.11,252.2 566.4473,272.1079 562.4873,289.0279 " fill="none" id="file-association-entity-to-file-null" style="stroke:#181818;stroke-width:1.0;"/><polygon fill="#181818" points="561.12,294.87,567.0657,287.0183,562.2594,290.0016,559.2762,285.1953,561.12,294.87" style="stroke:#181818;stroke-width:1.0;"/></g><!--link file-metadata to file-metadata-contracts--><g id="link_file-metadata_file-metadata-contracts"><path d="M317.55,427.02 C298.1,443.95 272.9456,465.8506 253.4156,482.8506 " fill="none" id="file-metadata-to-file-metadata-contracts" style="stroke:#181818;stroke-width:1.0;"/><polygon fill="#181818" points="248.89,486.79,258.3047,483.898,252.6614,483.5072,253.0522,477.8639,248.89,486.79" style="stroke:#181818;stroke-width:1.0;"/></g><!--link file-null to file-contracts--><g id="link_file-null_file-contracts"><path d="M579.2,331.02 C601.18,347.95 629.9575,370.1276 652.0175,387.1276 " fill="none" id="file-null-to-file-contracts" style="stroke:#181818;stroke-width:1.0;"/><polygon fill="#181818" points="656.77,390.79,652.0828,382.128,652.8096,387.738,647.1996,388.4647,656.77,390.79" style="stroke:#181818;stroke-width:1.0;"/></g><!--SRC=[bPD1ZiCW34NtEGKNe4UOpHoXoweB1zm81Um8IANSlgWDCsa3jDr5_i__sv49ew49F3ZBQaGjUb3Zu7ac_SkMlOWUA2G0ANPToB1Gx2QcL3p6nQBmg2BGOB7hJXTZyIoa_17tJwcOaecAuRpN74RG4E4ZQ9KaXC3AG3HCMsnJtjdLUdPSdnP_IgyAzTx38IF6mO1rUJjK5Gheh-WR-k8kJ8lilT7_OHgzkRvVzp7WLyJ6UKNI7SoJd2VBaCGyIClqNKVcrjrRLdka_4DUgeMi6b38hABLUtwwplHiJ5oQ4MsyyI8ADCtMPlAlywEXxvtbCMy0]--></g></svg>