<?xml version="1.0" encoding="us-ascii" standalone="no"?><svg xmlns="http://www.w3.org/2000/svg" xmlns:xlink="http://www.w3.org/1999/xlink" contentStyleType="text/css" height="529px" preserveAspectRatio="none" style="width:1352px;height:529px;" version="1.1" viewBox="0 0 1352 529" width="1352px" zoomAndPan="magnify"><defs/><g><!--entity file--><g id="elem_file"><rect fill="#F1F1F1" height="36.2969" rx="2.5" ry="2.5" style="stroke:#181818;stroke-width:0.5;" width="39" x="1235.48" y="295"/><text fill="#000000" font-family="sans-serif" font-size="14" lengthAdjust="spacing" textLength="19" x="1245.48" y="317.9951">file</text></g><!--entity file-contracts--><g id="elem_file-contracts"><rect fill="#F1F1F1" height="36.2969" rx="2.5" ry="2.5" style="stroke:#181818;stroke-width:0.5;" width="109" x="706.48" y="391"/><text fill="#000000" font-family="sans-serif" font-size="14" lengthAdjust="spacing" textLength="89" x="716.48" y="413.9951">file-contracts</text></g><!--entity file-metadata-contracts--><g id="elem_file-metadata-contracts"><rect fill="#F1F1F1" height="36.2969" rx="2.5" ry="2.5" style="stroke:#181818;stroke-width:0.5;" width="179" x="1167.48" y="487"/><text fill="#000000" font-family="sans-serif" font-size="14" lengthAdjust="spacing" textLength="159" x="1177.48" y="509.9951">file-metadata-contracts</text></g><!--entity file-metadata--><g id="elem_file-metadata"><rect fill="#F1F1F1" height="36.2969" rx="2.5" ry="2.5" style="stroke:#181818;stroke-width:0.5;" width="109" x="1094.48" y="391"/><text fill="#000000" font-family="sans-serif" font-size="14" lengthAdjust="spacing" textLength="89" x="1104.48" y="413.9951">file-metadata</text></g><!--entity file-association--><g id="elem_file-association"><rect fill="#F1F1F1" height="36.2969" rx="2.5" ry="2.5" style="stroke:#181818;stroke-width:0.5;" width="122" x="345.98" y="103"/><text fill="#000000" font-family="sans-serif" font-size="14" lengthAdjust="spacing" textLength="102" x="355.98" y="125.9951">file-association</text></g><!--entity file-association-contracts--><g id="elem_file-association-contracts"><rect fill="#F1F1F1" height="36.2969" rx="2.5" ry="2.5" style="stroke:#181818;stroke-width:0.5;" width="192" x="161.98" y="199"/><text fill="#000000" font-family="sans-serif" font-size="14" lengthAdjust="spacing" textLength="172" x="171.98" y="221.9951">file-association-contracts</text></g><!--entity file-bundle--><g id="elem_file-bundle"><rect fill="#F1F1F1" height="36.2969" rx="2.5" ry="2.5" style="stroke:#181818;stroke-width:0.5;" width="92" x="679.98" y="7"/><text fill="#000000" font-family="sans-serif" font-size="14" lengthAdjust="spacing" textLength="72" x="689.98" y="29.9951">file-bundle</text></g><!--entity file-image--><g id="elem_file-image"><rect fill="#F1F1F1" height="36.2969" rx="2.5" ry="2.5" style="stroke:#181818;stroke-width:0.5;" width="86" x="731.98" y="199"/><text fill="#000000" font-family="sans-serif" font-size="14" lengthAdjust="spacing" textLength="66" x="741.98" y="221.9951">file-image</text></g><!--entity file-server--><g id="elem_file-server"><rect fill="#F1F1F1" height="36.2969" rx="2.5" ry="2.5" style="stroke:#181818;stroke-width:0.5;" width="87" x="634.48" y="103"/><text fill="#000000" font-family="sans-serif" font-size="14" lengthAdjust="spacing" textLength="67" x="644.48" y="125.9951">file-server</text></g><!--entity file-symfony-bridge--><g id="elem_file-symfony-bridge"><rect fill="#F1F1F1" height="36.2969" rx="2.5" ry="2.5" style="stroke:#181818;stroke-width:0.5;" width="150" x="1091.98" y="199"/><text fill="#000000" font-family="sans-serif" font-size="14" lengthAdjust="spacing" textLength="130" x="1101.98" y="221.9951">file-symfony-bridge</text></g><!--entity file-derivation--><g id="elem_file-derivation"><rect fill="#F1F1F1" height="36.2969" rx="2.5" ry="2.5" style="stroke:#181818;stroke-width:0.5;" width="111" x="705.48" y="295"/><text fill="#000000" font-family="sans-serif" font-size="14" lengthAdjust="spacing" textLength="91" x="715.48" y="317.9951">file-derivation</text></g><!--entity file-oneup-uploader-bridge--><g id="elem_file-oneup-uploader-bridge"><rect fill="#F1F1F1" height="36.2969" rx="2.5" ry="2.5" style="stroke:#181818;stroke-width:0.5;" width="204" x="852.98" y="199"/><text fill="#000000" font-family="sans-serif" font-size="14" lengthAdjust="spacing" textLength="184" x="862.98" y="221.9951">file-oneup-uploader-bridge</text></g><!--entity file-association-entity--><g id="elem_file-association-entity"><rect fill="#F1F1F1" height="36.2969" rx="2.5" ry="2.5" style="stroke:#181818;stroke-width:0.5;" width="165" x="531.48" y="199"/><text fill="#000000" font-family="sans-serif" font-size="14" lengthAdjust="spacing" textLength="145" x="541.48" y="221.9951">file-association-entity</text></g><!--entity file-null--><g id="elem_file-null"><rect fill="#F1F1F1" height="36.2969" rx="2.5" ry="2.5" style="stroke:#181818;stroke-width:0.5;" width="68" x="530.98" y="295"/><text fill="#000000" font-family="sans-serif" font-size="14" lengthAdjust="spacing" textLength="48" x="540.98" y="317.9951">file-null</text></g><!--entity file-zip--><g id="elem_file-zip"><rect fill="#F1F1F1" height="36.2969" rx="2.5" ry="2.5" style="stroke:#181818;stroke-width:0.5;" width="64" x="1064.98" y="295"/><text fill="#000000" font-family="sans-serif" font-size="14" lengthAdjust="spacing" textLength="44" x="1074.98" y="317.9951">file-zip</text></g><!--link file to file-contracts--><g id="link_file_file-contracts"><path d="M1235.31,317.74 C1165.06,331.11 930.8042,375.6884 821.6542,396.4584 " fill="none" id="file-to-file-contracts" style="stroke:#181818;stroke-width:1.0;"/><polygon fill="#181818" points="815.76,397.58,825.3491,399.8271,820.6719,396.6453,823.8536,391.9681,815.76,397.58" style="stroke:#181818;stroke-width:1.0;"/></g><!--link file to file-metadata-contracts--><g id="link_file_file-metadata-contracts"><path d="M1255.16,331.2 C1255.54,367.37 1256.3567,444.9603 1256.7367,480.9803 " fill="none" id="file-to-file-metadata-contracts" style="stroke:#181818;stroke-width:1.0;"/><polygon fill="#181818" points="1256.8,486.98,1260.7048,477.9383,1256.7473,481.9803,1252.7053,478.0227,1256.8,486.98" style="stroke:#181818;stroke-width:1.0;"/></g><!--link file to file-metadata--><g id="link_file_file-metadata"><path d="M1235.54,331.24 C1216.41,348.2 1191.8691,369.9691 1172.7891,386.8891 " fill="none" id="file-to-file-metadata" style="stroke:#181818;stroke-width:1.0;"/><polygon fill="#181818" points="1168.3,390.87,1177.6876,387.8914,1172.0409,387.5526,1172.3797,381.9059,1168.3,390.87" style="stroke:#181818;stroke-width:1.0;"/></g><!--link file-association to file-association-contracts--><g id="link_file-association_file-association-contracts"><path d="M380,139.02 C353.08,156.01 317.0236,178.7472 290.0936,195.7472 " fill="none" id="file-association-to-file-association-contracts" style="stroke:#181818;stroke-width:1.0;"/><polygon fill="#181818" points="285.02,198.95,294.7657,197.5282,289.248,196.281,290.4953,190.7633,285.02,198.95" style="stroke:#181818;stroke-width:1.0;"/></g><!--link file-association to file-contracts--><g id="link_file-association_file-contracts"><path d="M408.36,139.21 C412.49,179.05 428.33,278.23 485.98,331 C546.97,386.82 639.1942,402.1774 700.2642,406.3874 " fill="none" id="file-association-to-file-contracts" style="stroke:#181818;stroke-width:1.0;"/><polygon fill="#181818" points="706.25,406.8,697.5464,402.1905,701.2618,406.4561,696.9962,410.1716,706.25,406.8" style="stroke:#181818;stroke-width:1.0;"/></g><!--link file-bundle to file--><g id="link_file-bundle_file"><path d="M772.34,33.91 C891,55.2 1200.48,117.65 1258.98,199 C1279.38,227.37 1271.3695,265.2253 1263.4395,289.1253 " fill="none" id="file-bundle-to-file" style="stroke:#181818;stroke-width:1.0;"/><polygon fill="#181818" points="1261.55,294.82,1268.1807,287.5376,1263.1246,290.0744,1260.5878,285.0183,1261.55,294.82" style="stroke:#181818;stroke-width:1.0;"/></g><!--link file-bundle to file-contracts--><g id="link_file-bundle_file-contracts"><path d="M679.97,26 C520.12,27.63 6,47.29 143.98,235 C211.68,327.1 562.3325,382.0277 700.3825,400.4177 " fill="none" id="file-bundle-to-file-contracts" style="stroke:#181818;stroke-width:1.0;"/><polygon fill="#181818" points="706.33,401.21,697.937,396.0566,701.3738,400.5498,696.8806,403.9866,706.33,401.21" style="stroke:#181818;stroke-width:1.0;"/></g><!--link file-bundle to file-image--><g id="link_file-bundle_file-image"><path d="M730.42,43.2 C739.75,79.37 759.8016,157.1501 769.0916,193.1701 " fill="none" id="file-bundle-to-file-image" style="stroke:#181818;stroke-width:1.0;stroke-dasharray:7.0,7.0;"/><polygon fill="#181818" points="770.59,198.98,772.2156,189.2662,769.3413,194.1384,764.4691,191.2641,770.59,198.98" style="stroke:#181818;stroke-width:1.0;"/></g><!--link file-bundle to file-association--><g id="link_file-bundle_file-association"><path d="M679.94,39.57 C623.17,56.3 532.4054,83.0443 470.6654,101.2343 " fill="none" id="file-bundle-to-file-association" style="stroke:#181818;stroke-width:1.0;stroke-dasharray:7.0,7.0;"/><polygon fill="#181818" points="464.91,102.93,474.6736,104.2234,469.7062,101.5169,472.4127,96.5496,464.91,102.93" style="stroke:#181818;stroke-width:1.0;"/></g><!--link file-bundle to file-server--><g id="link_file-bundle_file-server"><path d="M717.18,43.24 C708.52,60.2 698.0987,80.6064 689.4587,97.5264 " fill="none" id="file-bundle-to-file-server" style="stroke:#181818;stroke-width:1.0;stroke-dasharray:7.0,7.0;"/><polygon fill="#181818" points="686.73,102.87,694.3854,96.6737,689.0039,98.417,687.2606,93.0354,686.73,102.87" style="stroke:#181818;stroke-width:1.0;"/></g><!--link file-bundle to file-symfony-bridge--><g id="link_file-bundle_file-symfony-bridge"><path d="M765.51,43.03 C849.23,79.1 1038.0995,160.4762 1121.8795,196.5662 " fill="none" id="file-bundle-to-file-symfony-bridge" style="stroke:#181818;stroke-width:1.0;stroke-dasharray:7.0,7.0;"/><polygon fill="#181818" points="1127.39,198.94,1120.7068,191.7057,1122.7979,196.9619,1117.5418,199.053,1127.39,198.94" style="stroke:#181818;stroke-width:1.0;"/></g><!--link file-derivation to file-contracts--><g id="link_file-derivation_file-contracts"><path d="M760.98,331.24 C760.98,348.2 760.98,367.95 760.98,384.87 " fill="none" id="file-derivation-to-file-contracts" style="stroke:#181818;stroke-width:1.0;"/><polygon fill="#181818" points="760.98,390.87,764.98,381.87,760.98,385.87,756.98,381.87,760.98,390.87" style="stroke:#181818;stroke-width:1.0;"/></g><!--link file-image to file-contracts--><g id="link_file-image_file-contracts"><path d="M794.42,235.09 C816.6,256.79 848.08,295.64 833.98,331 C824.16,355.64 806.9617,373.155 789.7017,387.065 " fill="none" id="file-image-to-file-contracts" style="stroke:#181818;stroke-width:1.0;"/><polygon fill="#181818" points="785.03,390.83,794.5476,388.297,788.9231,387.6925,789.5276,382.0681,785.03,390.83" style="stroke:#181818;stroke-width:1.0;"/></g><!--link file-image to file-derivation--><g id="link_file-image_file-derivation"><path d="M772.41,235.24 C769.89,252.2 766.9339,272.0155 764.4139,288.9355 " fill="none" id="file-image-to-file-derivation" style="stroke:#181818;stroke-width:1.0;"/><polygon fill="#181818" points="763.53,294.87,768.8122,286.5574,764.2666,289.9245,760.8994,285.3789,763.53,294.87" style="stroke:#181818;stroke-width:1.0;"/></g><!--link file-oneup-uploader-bridge to file-contracts--><g id="link_file-oneup-uploader-bridge_file-contracts"><path d="M942.85,235.12 C926.07,258.2 894.19,299.97 861.98,331 C838.32,353.79 812.9221,372.7233 791.7021,387.4233 " fill="none" id="file-oneup-uploader-bridge-to-file-contracts" style="stroke:#181818;stroke-width:1.0;"/><polygon fill="#181818" points="786.77,390.84,796.446,389.003,790.8801,387.9927,791.8904,382.4268,786.77,390.84" style="stroke:#181818;stroke-width:1.0;"/></g><!--link file-oneup-uploader-bridge to file--><g id="link_file-oneup-uploader-bridge_file"><path d="M1014.04,235.04 C1065.49,250.1 1141.98,273.04 1207.98,295 C1217.04,298.01 1221.3567,299.5145 1229.7567,302.5945 " fill="none" id="file-oneup-uploader-bridge-to-file" style="stroke:#181818;stroke-width:1.0;"/><polygon fill="#181818" points="1235.39,304.66,1228.3171,297.8062,1230.6956,302.9387,1225.5631,305.3172,1235.39,304.66" style="stroke:#181818;stroke-width:1.0;"/></g><!--link file-server to file-contracts--><g id="link_file-server_file-contracts"><path d="M634.23,129.26 C595.25,138.28 540.42,157.85 513.98,199 C482.27,248.36 478.19,283.76 512.98,331 C536.04,362.31 634.7335,385.2701 700.5035,397.6501 " fill="none" id="file-server-to-file-contracts" style="stroke:#181818;stroke-width:1.0;"/><polygon fill="#181818" points="706.4,398.76,698.2953,393.1642,701.4863,397.8351,696.8154,401.0261,706.4,398.76" style="stroke:#181818;stroke-width:1.0;"/></g><!--link file-server to file-symfony-bridge--><g id="link_file-server_file-symfony-bridge"><path d="M721.81,130.42 C805.38,146.49 982.5079,180.5373 1085.9679,200.4273 " fill="none" id="file-server-to-file-symfony-bridge" style="stroke:#181818;stroke-width:1.0;"/><polygon fill="#181818" points="1091.86,201.56,1083.777,195.9328,1086.9499,200.616,1082.2667,203.7889,1091.86,201.56" style="stroke:#181818;stroke-width:1.0;"/></g><!--link file-symfony-bridge to file--><g id="link_file-symfony-bridge_file"><path d="M1183.12,235.24 C1199,252.2 1218.9995,273.5699 1234.8395,290.4899 " fill="none" id="file-symfony-bridge-to-file" style="stroke:#181818;stroke-width:1.0;"/><polygon fill="#181818" points="1238.94,294.87,1235.7093,285.5661,1235.5229,291.2199,1229.8691,291.0335,1238.94,294.87" style="stroke:#181818;stroke-width:1.0;"/></g><!--link file-symfony-bridge to file-contracts--><g id="link_file-symfony-bridge_file-contracts"><path d="M1130.59,235.03 C1053.52,271.1 880.0046,352.3074 802.8646,388.3974 " fill="none" id="file-symfony-bridge-to-file-contracts" style="stroke:#181818;stroke-width:1.0;"/><polygon fill="#181818" points="797.43,390.94,807.277,390.7492,801.9589,388.8212,803.8869,383.503,797.43,390.94" style="stroke:#181818;stroke-width:1.0;"/></g><!--link file-symfony-bridge to file-metadata-contracts--><g id="link_file-symfony-bridge_file-metadata-contracts"><path d="M1217.55,235.14 C1244.82,247.27 1276.07,266.52 1291.98,295 C1327.59,358.76 1289.7731,444.011 1269.7131,481.461 " fill="none" id="file-symfony-bridge-to-file-metadata-contracts" style="stroke:#181818;stroke-width:1.0;"/><polygon fill="#181818" points="1266.88,486.75,1274.6556,480.7052,1269.2409,482.3425,1267.6036,476.9278,1266.88,486.75" style="stroke:#181818;stroke-width:1.0;"/></g><!--link file-association-entity to file-contracts--><g id="link_file-association-entity_file-contracts"><path d="M623.87,235.11 C637.29,257.83 662.52,298.81 687.98,331 C705.24,352.82 723.2572,371.4779 738.6372,386.5679 " fill="none" id="file-association-entity-to-file-contracts" style="stroke:#181818;stroke-width:1.0;"/><polygon fill="#181818" points="742.92,390.77,739.2971,381.6117,739.351,387.2683,733.6944,387.3221,742.92,390.77" style="stroke:#181818;stroke-width:1.0;"/></g><!--link file-association-entity to file-metadata--><g id="link_file-association-entity_file-metadata"><path d="M696.62,232.25 C702.49,233.2 708.33,234.13 713.98,235 C809.77,249.79 1081.37,222.76 1145.98,295 C1169.53,321.33 1163.0722,360.7234 1156.1922,385.2234 " fill="none" id="file-association-entity-to-file-metadata" style="stroke:#181818;stroke-width:1.0;"/><polygon fill="#181818" points="1154.57,391,1160.8543,383.4166,1155.9218,386.1862,1153.1522,381.2537,1154.57,391" style="stroke:#181818;stroke-width:1.0;"/></g><!--link file-association-entity to file-null--><g id="link_file-association-entity_file-null"><path d="M604.99,235.24 C596.15,252.2 585.5035,272.6295 576.6835,289.5495 " fill="none" id="file-association-entity-to-file-null" style="stroke:#181818;stroke-width:1.0;"/><polygon fill="#181818" points="573.91,294.87,581.6172,288.7382,576.2212,290.4362,574.5232,285.0402,573.91,294.87" style="stroke:#181818;stroke-width:1.0;"/></g><!--link file-metadata to file-metadata-contracts--><g id="link_file-metadata_file-metadata-contracts"><path d="M1168.54,427.02 C1187.99,443.95 1213.1554,465.8495 1232.6754,482.8495 " fill="none" id="file-metadata-to-file-metadata-contracts" style="stroke:#181818;stroke-width:1.0;"/><polygon fill="#181818" points="1237.2,486.79,1233.0401,477.8628,1233.4295,483.5062,1227.786,483.8957,1237.2,486.79" style="stroke:#181818;stroke-width:1.0;"/></g><!--link file-null to file-contracts--><g id="link_file-null_file-contracts"><path d="M599.12,330.37 C634.44,347.31 683.9396,371.0563 719.8396,388.2663 " fill="none" id="file-null-to-file-contracts" style="stroke:#181818;stroke-width:1.0;"/><polygon fill="#181818" points="725.25,390.86,718.8635,383.3625,720.7413,388.6986,715.4052,390.5764,725.25,390.86" style="stroke:#181818;stroke-width:1.0;"/></g><!--link file-zip to file-contracts--><g id="link_file-zip_file-contracts"><path d="M1064.85,323.32 C1056.13,325.83 1046.7,328.53 1037.98,331 C960.9,352.82 877.374,375.9448 821.464,391.3648 " fill="none" id="file-zip-to-file-contracts" style="stroke:#181818;stroke-width:1.0;"/><polygon fill="#181818" points="815.68,392.96,825.4196,394.4232,820.5,391.6306,823.2926,386.7111,815.68,392.96" style="stroke:#181818;stroke-width:1.0;"/></g><!--link file-zip to file-metadata--><g id="link_file-zip_file-metadata"><path d="M1106.52,331.24 C1115.9,348.2 1127.2356,368.6998 1136.5956,385.6198 " fill="none" id="file-zip-to-file-metadata" style="stroke:#181818;stroke-width:1.0;"/><polygon fill="#181818" points="1139.5,390.87,1138.6436,381.0584,1137.0797,386.4948,1131.6433,384.9309,1139.5,390.87" style="stroke:#181818;stroke-width:1.0;"/></g><!--SRC=[bPD1ZiCW34NtEGKNe4VePeumor4N3hWH2jW8IANCwGUrOPesWRQxoFzz-pioSJJa8O2ph4RKeWSr3e4dqbziEOWKW686a5BNnG8BnSupvU9tcYsAW2e13HQxxkTiB9w4b4Tn_PIAAJTHAPwsciC46XAy1IsIX1XP6KY6QOsjofjsDS-6w_FY3zEhGjrxE1J4E1YmBgz3LQ68uOAXeS_kp3JBFXXz7wOncClhTMy1Fo9MdHSaty7avUGjGnPBa5RJLux2BRktMcsH_H_oLDsPLGDsPbRHwZq_N6T-DYRDpH5jlF4YTcYQh2tal_Ejq5TdA-QlyP_ezzn_]--></g></svg>