<svg xmlns="http://www.w3.org/2000/svg" xmlns:xlink="http://www.w3.org/1999/xlink" contentStyleType="text/css" height="1061px" preserveAspectRatio="none" style="width:890px;height:1061px;" version="1.1" viewBox="0 0 890 1061" width="890px" zoomAndPan="magnify"><defs/><g><!--class FileRepository--><g id="elem_FileRepository"><rect codeLine="1" fill="#F1F1F1" height="227.2656" id="FileRepository" rx="2.5" ry="2.5" style="stroke:#181818;stroke-width:0.5;" width="360" x="7" y="7"/><ellipse cx="134.25" cy="23" fill="#B4A7E5" rx="11" ry="11" style="stroke:#181818;stroke-width:1.0;"/><path d="M130.1719,18.7656 L130.1719,16.6094 L137.5625,16.6094 L137.5625,18.7656 L135.0938,18.7656 L135.0938,26.8438 L137.5625,26.8438 L137.5625,29 L130.1719,29 L130.1719,26.8438 L132.6406,26.8438 L132.6406,18.7656 L130.1719,18.7656 Z " fill="#000000"/><text fill="#000000" font-family="sans-serif" font-size="14" font-style="italic" lengthAdjust="spacing" textLength="97" x="154.75" y="27.8467">FileRepository</text><line style="stroke:#181818;stroke-width:0.5;" x1="8" x2="366" y1="39" y2="39"/><line style="stroke:#181818;stroke-width:0.5;" x1="8" x2="366" y1="47" y2="47"/><ellipse cx="18" cy="60.6484" fill="#84BE84" rx="3" ry="3" style="stroke:#038048;stroke-width:1.0;"/><text fill="#000000" font-family="sans-serif" font-size="14" lengthAdjust="spacing" textLength="137" x="27" y="63.9951">get(FilePointer): File</text><ellipse cx="18" cy="76.9453" fill="#84BE84" rx="3" ry="3" style="stroke:#038048;stroke-width:1.0;"/><text fill="#000000" font-family="sans-serif" font-size="14" lengthAdjust="spacing" textLength="163" x="27" y="80.292">tryGet(FilePointer): ?File</text><ellipse cx="18" cy="93.2422" fill="#84BE84" rx="3" ry="3" style="stroke:#038048;stroke-width:1.0;"/><text fill="#000000" font-family="sans-serif" font-size="14" lengthAdjust="spacing" textLength="209" x="27" y="96.5889">getReference(FilePointer): File</text><ellipse cx="18" cy="109.5391" fill="#84BE84" rx="3" ry="3" style="stroke:#038048;stroke-width:1.0;"/><text fill="#000000" font-family="sans-serif" font-size="14" lengthAdjust="spacing" textLength="80" x="27" y="112.8857">clear(): void</text><ellipse cx="18" cy="125.8359" fill="#84BE84" rx="3" ry="3" style="stroke:#038048;stroke-width:1.0;"/><text fill="#000000" font-family="sans-serif" font-size="14" lengthAdjust="spacing" textLength="248" x="27" y="129.1826">createFromString(FilePointer, string)</text><ellipse cx="18" cy="142.1328" fill="#84BE84" rx="3" ry="3" style="stroke:#038048;stroke-width:1.0;"/><text fill="#000000" font-family="sans-serif" font-size="14" lengthAdjust="spacing" textLength="334" x="27" y="145.4795">createFromStream(FilePointer, resource|Stream)</text><ellipse cx="18" cy="158.4297" fill="#84BE84" rx="3" ry="3" style="stroke:#038048;stroke-width:1.0;"/><text fill="#000000" font-family="sans-serif" font-size="14" lengthAdjust="spacing" textLength="266" x="27" y="161.7764">createFromLocalFile(FilePointer, string)</text><ellipse cx="18" cy="174.7266" fill="#84BE84" rx="3" ry="3" style="stroke:#038048;stroke-width:1.0;"/><text fill="#000000" font-family="sans-serif" font-size="14" lengthAdjust="spacing" textLength="163" x="27" y="178.0732">delete(FilePointer): void</text><ellipse cx="18" cy="191.0234" fill="#84BE84" rx="3" ry="3" style="stroke:#038048;stroke-width:1.0;"/><text fill="#000000" font-family="sans-serif" font-size="14" lengthAdjust="spacing" textLength="283" x="27" y="194.3701">copy(File|FilePointer, File|FilePointer): File</text><ellipse cx="18" cy="207.3203" fill="#84BE84" rx="3" ry="3" style="stroke:#038048;stroke-width:1.0;"/><text fill="#000000" font-family="sans-serif" font-size="14" lengthAdjust="spacing" textLength="288" x="27" y="210.667">move(File|FilePointer, File|FilePointer): File</text><ellipse cx="18" cy="223.6172" fill="#84BE84" rx="3" ry="3" style="stroke:#038048;stroke-width:1.0;"/><text fill="#000000" font-family="sans-serif" font-size="14" lengthAdjust="spacing" textLength="151" x="27" y="226.9639">createTemporaryFile()</text></g><!--class DirectoryInterface--><g id="elem_DirectoryInterface"><rect codeLine="15" fill="#F1F1F1" height="64.2969" id="DirectoryInterface" rx="2.5" ry="2.5" style="stroke:#181818;stroke-width:0.5;" width="156" x="410" y="88.5"/><ellipse cx="425" cy="104.5" fill="#B4A7E5" rx="11" ry="11" style="stroke:#181818;stroke-width:1.0;"/><path d="M420.9219,100.2656 L420.9219,98.1094 L428.3125,98.1094 L428.3125,100.2656 L425.8438,100.2656 L425.8438,108.3438 L428.3125,108.3438 L428.3125,110.5 L420.9219,110.5 L420.9219,108.3438 L423.3906,108.3438 L423.3906,100.2656 L420.9219,100.2656 Z " fill="#000000"/><text fill="#000000" font-family="sans-serif" font-size="14" font-style="italic" lengthAdjust="spacing" textLength="124" x="439" y="109.3467">DirectoryInterface</text><line style="stroke:#181818;stroke-width:0.5;" x1="411" x2="565" y1="120.5" y2="120.5"/><ellipse cx="421" cy="134.1484" fill="none" rx="3" ry="3" style="stroke:#038048;stroke-width:1.0;"/><text fill="#000000" font-family="sans-serif" font-size="14" lengthAdjust="spacing" textLength="111" x="430" y="137.4951">name: FileName</text><line style="stroke:#181818;stroke-width:0.5;" x1="411" x2="565" y1="144.7969" y2="144.7969"/></g><!--class FilePointer--><g id="elem_FilePointer"><rect codeLine="19" fill="#F1F1F1" height="113.1875" id="FilePointer" rx="2.5" ry="2.5" style="stroke:#181818;stroke-width:0.5;" width="298" x="325" y="294"/><ellipse cx="434.25" cy="310" fill="#B4A7E5" rx="11" ry="11" style="stroke:#181818;stroke-width:1.0;"/><path d="M430.1719,305.7656 L430.1719,303.6094 L437.5625,303.6094 L437.5625,305.7656 L435.0938,305.7656 L435.0938,313.8438 L437.5625,313.8438 L437.5625,316 L430.1719,316 L430.1719,313.8438 L432.6406,313.8438 L432.6406,305.7656 L430.1719,305.7656 Z " fill="#000000"/><text fill="#000000" font-family="sans-serif" font-size="14" font-style="italic" lengthAdjust="spacing" textLength="71" x="454.75" y="314.8467">FilePointer</text><line style="stroke:#181818;stroke-width:0.5;" x1="326" x2="622" y1="326" y2="326"/><text fill="#000000" font-family="sans-serif" font-size="14" lengthAdjust="spacing" textLength="176" x="331" y="342.9951">filesystemIdentifier: string</text><text fill="#000000" font-family="sans-serif" font-size="14" lengthAdjust="spacing" textLength="72" x="331" y="359.292">key: string</text><line style="stroke:#181818;stroke-width:0.5;" x1="326" x2="622" y1="366.5938" y2="366.5938"/><ellipse cx="336" cy="380.2422" fill="#84BE84" rx="3" ry="3" style="stroke:#038048;stroke-width:1.0;"/><text fill="#000000" font-family="sans-serif" font-size="14" lengthAdjust="spacing" textLength="216" x="345" y="383.5889">isEqualTo(File|FilePointer): bool</text><ellipse cx="336" cy="396.5391" fill="#84BE84" rx="3" ry="3" style="stroke:#038048;stroke-width:1.0;"/><text fill="#000000" font-family="sans-serif" font-size="14" lengthAdjust="spacing" textLength="272" x="345" y="399.8857">isSameFilesystem(File|FilePointer): bool</text></g><!--class File--><g id="elem_File"><rect codeLine="35" fill="#F1F1F1" height="357.6406" id="File" rx="2.5" ry="2.5" style="stroke:#181818;stroke-width:0.5;" width="351" x="253.5" y="471"/><ellipse cx="413.25" cy="487" fill="#B4A7E5" rx="11" ry="11" style="stroke:#181818;stroke-width:1.0;"/><path d="M409.1719,482.7656 L409.1719,480.6094 L416.5625,480.6094 L416.5625,482.7656 L414.0938,482.7656 L414.0938,490.8438 L416.5625,490.8438 L416.5625,493 L409.1719,493 L409.1719,490.8438 L411.6406,490.8438 L411.6406,482.7656 L409.1719,482.7656 Z " fill="#000000"/><text fill="#000000" font-family="sans-serif" font-size="14" font-style="italic" lengthAdjust="spacing" textLength="23" x="433.75" y="491.8467">File</text><line style="stroke:#181818;stroke-width:0.5;" x1="254.5" x2="603.5" y1="503" y2="503"/><ellipse cx="264.5" cy="516.6484" fill="none" rx="3" ry="3" style="stroke:#038048;stroke-width:1.0;"/><text fill="#000000" font-family="sans-serif" font-size="14" lengthAdjust="spacing" textLength="183" x="273.5" y="519.9951">filesystemIdentifier: ?string</text><ellipse cx="264.5" cy="532.9453" fill="none" rx="3" ry="3" style="stroke:#038048;stroke-width:1.0;"/><text fill="#000000" font-family="sans-serif" font-size="14" lengthAdjust="spacing" textLength="72" x="273.5" y="536.292">key: string</text><ellipse cx="264.5" cy="549.2422" fill="none" rx="3" ry="3" style="stroke:#038048;stroke-width:1.0;"/><text fill="#000000" font-family="sans-serif" font-size="14" lengthAdjust="spacing" textLength="130" x="273.5" y="552.5889">pointer: FilePointer</text><ellipse cx="264.5" cy="565.5391" fill="none" rx="3" ry="3" style="stroke:#038048;stroke-width:1.0;"/><text fill="#000000" font-family="sans-serif" font-size="14" lengthAdjust="spacing" textLength="111" x="273.5" y="568.8857">name: FileName</text><ellipse cx="264.5" cy="581.8359" fill="none" rx="3" ry="3" style="stroke:#038048;stroke-width:1.0;"/><text fill="#000000" font-family="sans-serif" font-size="14" lengthAdjust="spacing" textLength="102" x="273.5" y="585.1826">content: string</text><ellipse cx="264.5" cy="598.1328" fill="none" rx="3" ry="3" style="stroke:#038048;stroke-width:1.0;"/><text fill="#000000" font-family="sans-serif" font-size="14" lengthAdjust="spacing" textLength="178" x="273.5" y="601.4795">contentAsStream: Stream</text><ellipse cx="264.5" cy="614.4297" fill="none" rx="3" ry="3" style="stroke:#038048;stroke-width:1.0;"/><text fill="#000000" font-family="sans-serif" font-size="14" lengthAdjust="spacing" textLength="96" x="273.5" y="617.7764">type: FileType</text><ellipse cx="264.5" cy="630.7266" fill="none" rx="3" ry="3" style="stroke:#038048;stroke-width:1.0;"/><text fill="#000000" font-family="sans-serif" font-size="14" lengthAdjust="spacing" textLength="54" x="273.5" y="634.0732">size: int</text><ellipse cx="264.5" cy="647.0234" fill="none" rx="3" ry="3" style="stroke:#038048;stroke-width:1.0;"/><text fill="#000000" font-family="sans-serif" font-size="14" lengthAdjust="spacing" textLength="158" x="273.5" y="650.3701">lastModified: DateTime</text><line style="stroke:#181818;stroke-width:0.5;" x1="254.5" x2="603.5" y1="657.6719" y2="657.6719"/><ellipse cx="264.5" cy="671.3203" fill="#84BE84" rx="3" ry="3" style="stroke:#038048;stroke-width:1.0;"/><text fill="#000000" font-family="sans-serif" font-size="14" lengthAdjust="spacing" textLength="216" x="273.5" y="674.667">isEqualTo(File|FilePointer): bool</text><ellipse cx="264.5" cy="687.6172" fill="#84BE84" rx="3" ry="3" style="stroke:#038048;stroke-width:1.0;"/><text fill="#000000" font-family="sans-serif" font-size="14" lengthAdjust="spacing" textLength="272" x="273.5" y="690.9639">isSameFilesystem(File|FilePointer): bool</text><ellipse cx="264.5" cy="703.9141" fill="#84BE84" rx="3" ry="3" style="stroke:#038048;stroke-width:1.0;"/><text fill="#000000" font-family="sans-serif" font-size="14" lengthAdjust="spacing" textLength="148" x="273.5" y="707.2607">setName(string): void</text><ellipse cx="264.5" cy="720.2109" fill="#84BE84" rx="3" ry="3" style="stroke:#038048;stroke-width:1.0;"/><text fill="#000000" font-family="sans-serif" font-size="14" lengthAdjust="spacing" textLength="164" x="273.5" y="723.5576">setContent(string): void</text><ellipse cx="264.5" cy="736.5078" fill="#84BE84" rx="3" ry="3" style="stroke:#038048;stroke-width:1.0;"/><text fill="#000000" font-family="sans-serif" font-size="14" lengthAdjust="spacing" textLength="325" x="273.5" y="739.8545">setContentFromStream(resource|Stream): void</text><ellipse cx="264.5" cy="752.8047" fill="#84BE84" rx="3" ry="3" style="stroke:#038048;stroke-width:1.0;"/><text fill="#000000" font-family="sans-serif" font-size="14" lengthAdjust="spacing" textLength="235" x="273.5" y="756.1514">saveToLocalFile(string): SplFileInfo</text><ellipse cx="264.5" cy="769.1016" fill="#84BE84" rx="3" ry="3" style="stroke:#038048;stroke-width:1.0;"/><text fill="#000000" font-family="sans-serif" font-size="14" lengthAdjust="spacing" textLength="264" x="273.5" y="772.4482">createLocalTemporaryFile(): SplFileInfo</text><ellipse cx="264.5" cy="785.3984" fill="#84BE84" rx="3" ry="3" style="stroke:#038048;stroke-width:1.0;"/><text fill="#000000" font-family="sans-serif" font-size="14" lengthAdjust="spacing" textLength="142" x="273.5" y="788.7451">setType(string): void</text><ellipse cx="264.5" cy="801.6953" fill="#84BE84" rx="3" ry="3" style="stroke:#038048;stroke-width:1.0;"/><text fill="#000000" font-family="sans-serif" font-size="14" lengthAdjust="spacing" textLength="222" x="273.5" y="805.042">getDerivation(string): FilePointer</text><ellipse cx="264.5" cy="817.9922" fill="#84BE84" rx="3" ry="3" style="stroke:#038048;stroke-width:1.0;"/><text fill="#000000" font-family="sans-serif" font-size="14" lengthAdjust="spacing" textLength="122" x="273.5" y="821.3389">get(string): mixed</text></g><!--class FileName--><g id="elem_FileName"><rect codeLine="60" fill="#F1F1F1" height="162.0781" id="FileName" rx="2.5" ry="2.5" style="stroke:#181818;stroke-width:0.5;" width="202" x="575" y="892"/><ellipse cx="639.75" cy="908" fill="#B4A7E5" rx="11" ry="11" style="stroke:#181818;stroke-width:1.0;"/><path d="M635.6719,903.7656 L635.6719,901.6094 L643.0625,901.6094 L643.0625,903.7656 L640.5938,903.7656 L640.5938,911.8438 L643.0625,911.8438 L643.0625,914 L635.6719,914 L635.6719,911.8438 L638.1406,911.8438 L638.1406,903.7656 L635.6719,903.7656 Z " fill="#000000"/><text fill="#000000" font-family="sans-serif" font-size="14" font-style="italic" lengthAdjust="spacing" textLength="64" x="660.25" y="912.8467">FileName</text><line style="stroke:#181818;stroke-width:0.5;" x1="576" x2="776" y1="924" y2="924"/><ellipse cx="586" cy="937.6484" fill="none" rx="3" ry="3" style="stroke:#038048;stroke-width:1.0;"/><text fill="#000000" font-family="sans-serif" font-size="14" lengthAdjust="spacing" textLength="156" x="595" y="940.9951">full: string|Translatable</text><ellipse cx="586" cy="953.9453" fill="none" rx="3" ry="3" style="stroke:#038048;stroke-width:1.0;"/><text fill="#000000" font-family="sans-serif" font-size="14" lengthAdjust="spacing" textLength="171" x="595" y="957.292">base: string|Translatable</text><ellipse cx="586" cy="970.2422" fill="none" rx="3" ry="3" style="stroke:#038048;stroke-width:1.0;"/><text fill="#000000" font-family="sans-serif" font-size="14" lengthAdjust="spacing" textLength="116" x="595" y="973.5889">extension: string</text><line style="stroke:#181818;stroke-width:0.5;" x1="576" x2="776" y1="980.8906" y2="980.8906"/><ellipse cx="586" cy="994.5391" fill="#84BE84" rx="3" ry="3" style="stroke:#038048;stroke-width:1.0;"/><text fill="#000000" font-family="sans-serif" font-size="14" lengthAdjust="spacing" textLength="131" x="595" y="997.8857">setFull(string): void</text><ellipse cx="586" cy="1010.8359" fill="#84BE84" rx="3" ry="3" style="stroke:#038048;stroke-width:1.0;"/><text fill="#000000" font-family="sans-serif" font-size="14" lengthAdjust="spacing" textLength="143" x="595" y="1014.1826">setBase(string): void</text><ellipse cx="586" cy="1027.1328" fill="#84BE84" rx="3" ry="3" style="stroke:#038048;stroke-width:1.0;"/><text fill="#000000" font-family="sans-serif" font-size="14" lengthAdjust="spacing" textLength="176" x="595" y="1030.4795">setExtension(string): void</text><ellipse cx="586" cy="1043.4297" fill="#84BE84" rx="3" ry="3" style="stroke:#038048;stroke-width:1.0;"/><text fill="#000000" font-family="sans-serif" font-size="14" lengthAdjust="spacing" textLength="142" x="595" y="1046.7764">hasExtension(): bool</text></g><!--class FileType--><g id="elem_FileType"><rect codeLine="70" fill="#F1F1F1" height="145.7813" id="FileType" rx="2.5" ry="2.5" style="stroke:#181818;stroke-width:0.5;" width="240" x="300" y="900"/><ellipse cx="386.75" cy="916" fill="#B4A7E5" rx="11" ry="11" style="stroke:#181818;stroke-width:1.0;"/><path d="M382.6719,911.7656 L382.6719,909.6094 L390.0625,909.6094 L390.0625,911.7656 L387.5938,911.7656 L387.5938,919.8438 L390.0625,919.8438 L390.0625,922 L382.6719,922 L382.6719,919.8438 L385.1406,919.8438 L385.1406,911.7656 L382.6719,911.7656 Z " fill="#000000"/><text fill="#000000" font-family="sans-serif" font-size="14" font-style="italic" lengthAdjust="spacing" textLength="58" x="407.25" y="920.8467">FileType</text><line style="stroke:#181818;stroke-width:0.5;" x1="301" x2="539" y1="932" y2="932"/><ellipse cx="311" cy="945.6484" fill="none" rx="3" ry="3" style="stroke:#038048;stroke-width:1.0;"/><text fill="#000000" font-family="sans-serif" font-size="14" lengthAdjust="spacing" textLength="87" x="320" y="948.9951">name: string</text><ellipse cx="311" cy="961.9453" fill="none" rx="3" ry="3" style="stroke:#038048;stroke-width:1.0;"/><text fill="#000000" font-family="sans-serif" font-size="14" lengthAdjust="spacing" textLength="78" x="320" y="965.292">type: string</text><ellipse cx="311" cy="978.2422" fill="none" rx="3" ry="3" style="stroke:#038048;stroke-width:1.0;"/><text fill="#000000" font-family="sans-serif" font-size="14" lengthAdjust="spacing" textLength="108" x="320" y="981.5889">subType: string</text><ellipse cx="311" cy="994.5391" fill="none" rx="3" ry="3" style="stroke:#038048;stroke-width:1.0;"/><text fill="#000000" font-family="sans-serif" font-size="14" lengthAdjust="spacing" textLength="179" x="320" y="997.8857">commonExtensions: array</text><ellipse cx="311" cy="1010.8359" fill="none" rx="3" ry="3" style="stroke:#038048;stroke-width:1.0;"/><text fill="#000000" font-family="sans-serif" font-size="14" lengthAdjust="spacing" textLength="123" x="320" y="1014.1826">extension: ?string</text><ellipse cx="311" cy="1027.1328" fill="none" rx="3" ry="3" style="stroke:#038048;stroke-width:1.0;"/><text fill="#000000" font-family="sans-serif" font-size="14" lengthAdjust="spacing" textLength="214" x="320" y="1030.4795">description: string|Translatable</text><line style="stroke:#181818;stroke-width:0.5;" x1="301" x2="539" y1="1037.7813" y2="1037.7813"/></g><!--reverse link DirectoryInterface to FilePointer--><g id="link_DirectoryInterface_FilePointer"><path codeLine="26" d="M485.1069,168.6076 C482.8669,205.2076 480.04,251.1 477.41,293.91 " fill="none" id="DirectoryInterface-backto-FilePointer" style="stroke:#181818;stroke-width:1.0;"/><polygon fill="none" points="485.84,156.63,481.4809,162.3744,485.1069,168.6076,489.466,162.8631,485.84,156.63" style="stroke:#181818;stroke-width:1.0;"/></g><!--reverse link DirectoryInterface to File--><g id="link_DirectoryInterface_File"><path codeLine="27" d="M450.2924,165.626 C430.2124,188.546 410.53,209.61 384,234 C352.06,263.36 326.04,255.02 307,294 C280.36,348.53 289.31,410.38 311.47,466.97 " fill="none" id="DirectoryInterface-backto-File" style="stroke:#181818;stroke-width:1.0;"/><polygon fill="none" points="458.2,156.6,451.2375,158.4771,450.2924,165.626,457.2549,163.7489,458.2,156.6" style="stroke:#181818;stroke-width:1.0;"/></g><!--reverse link DirectoryInterface to DirectoryInterface--><g id="link_DirectoryInterface_DirectoryInterface"><path codeLine="28" d="M542.4218,79.6982 C580.1218,63.2782 609,80.07 609,120.5 C609,160.93 569.12,172.93 531.42,156.51 " fill="none" id="DirectoryInterface-backto-DirectoryInterface" style="stroke:#181818;stroke-width:1.0;"/><polygon fill="none" points="531.42,84.49,538.5181,85.7614,542.4218,79.6982,535.3236,78.4269,531.42,84.49" style="stroke:#181818;stroke-width:1.0;"/></g><!--reverse link DirectoryInterface to FileName--><g id="link_DirectoryInterface_FileName"><path codeLine="29" d="M579,132.5 C883.41,132.5 754.59,682.05 698.89,891.89 " fill="none" id="DirectoryInterface-backto-FileName" style="stroke:#181818;stroke-width:1.0;"/><polygon fill="#181818" points="567,132.5,573,136.5,579,132.5,573,128.5,567,132.5" style="stroke:#181818;stroke-width:1.0;"/></g><!--reverse link FileRepository to File--><g id="link_FileRepository_File"><path codeLine="31" d="M222.1839,245.6617 C238.7539,299.1017 257.38,351.73 283,407 C292.17,426.78 302.56,446.98 313.48,466.86 " fill="none" id="FileRepository-backto-File" style="stroke:#181818;stroke-width:1.0;"/><polygon fill="none" points="218.63,234.2,216.5864,241.1155,222.1839,245.6617,224.2275,238.7462,218.63,234.2" style="stroke:#181818;stroke-width:1.0;"/></g><!--link FilePointer to File--><g id="link_FilePointer_File"><path codeLine="32" d="M558.24,407.11 C577.04,423.95 594.5,444.13 605,467 C619.93,499.52 653.78,547.5 618,547.5 " fill="none" id="FilePointer-to-File" style="stroke:#181818;stroke-width:1.0;"/><polygon fill="#181818" points="606,547.5,612,551.5,618,547.5,612,543.5,606,547.5" style="stroke:#181818;stroke-width:1.0;"/></g><!--link FilePointer to File--><g id="link_FilePointer_File"><path codeLine="33" d="M465.59,407.02 C462.92,424.64 459.8,445.2 456.54,466.74 " fill="none" id="FilePointer-File" style="stroke:#181818;stroke-width:1.0;"/></g><!--reverse link File to FileName--><g id="link_File_FileName"><path codeLine="57" d="M618,563.5 C678.46,563.5 639.59,772.44 650,832 C653.38,851.36 657.17,872.2 660.79,891.73 " fill="none" id="File-backto-FileName" style="stroke:#181818;stroke-width:1.0;"/><polygon fill="#181818" points="606,563.5,612,567.5,618,563.5,612,559.5,606,563.5" style="stroke:#181818;stroke-width:1.0;"/></g><!--reverse link File to FileType--><g id="link_File_FileType"><path codeLine="58" d="M241,612.5 C143.44,612.5 212.68,743.63 254,832 C266.06,857.78 285.44,880.54 306.78,899.8 " fill="none" id="File-backto-FileType" style="stroke:#181818;stroke-width:1.0;"/><polygon fill="#181818" points="253,612.5,247,608.5,241,612.5,247,616.5,253,612.5" style="stroke:#181818;stroke-width:1.0;"/></g><!--SRC=[jLNRZjem47tdA_88k-K7yh9gbwL2QgjgoG-OP60jR4zg6xHfsN-lRoHsOf3wK5x0PyxSpdYCEbBH4aaum_e8JR4ZzV4WyIIQPsGe2os9K8O0Gi-eq23tf8PYJHcyGekAQfHTyMTMcC_Z0VJSMdwYOovAn_CsBRkl4_FJO3U-hx07awU6cq5g1aJE3NH6sWH80j6mbiYtMb9nY7q_5SfXYmmL24-f4XIUP0qNRvpuVCEQCEjn9qC33FIu_AXMR3jdl2GXnaZICiSp_AkFBxe2tg8aidD5BsOVisY0AogXjhFRz50OeY0SVB0VvbVg5IKCzBr1LASqy4rZhWZTKv1b4CKHZj0bvqUgNdwT2AjmdkbXXyYkjAr9l-x3tsIR0ZFDu78PLtkFSiisXJFCihHw5GyXbfDiDjeE4onaYlLRBXySM9Pjg36rUe-H-DSXvML_YdMU21_Ib8ak_sKakNlaC0NQ7kPXQUBTCAPdD464lc-DrdUyiUcgENQgG00_A-zG5luxf21dg73OyhwARUk0ZTXZl5wEETgn35btRP2XCh_wRkmXsoZzRUX6JNzaHEdlsDZvDcMnibjD-V1Yha3ICz4KnH1hCbtxAlTMJj-XiJlZhzxqydhSLjtZhl3HHRJS_ZAU6BiAVQdi_mKZckpOqEtQC7BTxeY2-vvV32Fd2UzcaieqdaxOUBnSBJctDw86U_I2fCtPXjFdCCxX9vfaFUsg2LWZvoZwRAeiY9IacvIVB6q3gfQqrL5ZgIuVVm40]--></g></svg>