<?xml version="1.0" encoding="us-ascii" standalone="no"?><svg xmlns="http://www.w3.org/2000/svg" xmlns:xlink="http://www.w3.org/1999/xlink" contentStyleType="text/css" height="529px" preserveAspectRatio="none" style="width:1026px;height:529px;" version="1.1" viewBox="0 0 1026 529" width="1026px" zoomAndPan="magnify"><defs/><g><!--entity file--><g id="elem_file"><rect fill="#F1F1F1" height="36.2969" rx="2.5" ry="2.5" style="stroke:#181818;stroke-width:0.5;" width="39" x="78" y="295"/><text fill="#000000" font-family="sans-serif" font-size="14" lengthAdjust="spacing" textLength="19" x="88" y="317.9951">file</text></g><!--entity file-contracts--><g id="elem_file-contracts"><rect fill="#F1F1F1" height="36.2969" rx="2.5" ry="2.5" style="stroke:#181818;stroke-width:0.5;" width="109" x="458" y="391"/><text fill="#000000" font-family="sans-serif" font-size="14" lengthAdjust="spacing" textLength="89" x="468" y="413.9951">file-contracts</text></g><!--entity file-metadata-contracts--><g id="elem_file-metadata-contracts"><rect fill="#F1F1F1" height="36.2969" rx="2.5" ry="2.5" style="stroke:#181818;stroke-width:0.5;" width="179" x="7" y="487"/><text fill="#000000" font-family="sans-serif" font-size="14" lengthAdjust="spacing" textLength="159" x="17" y="509.9951">file-metadata-contracts</text></g><!--entity file-metadata--><g id="elem_file-metadata"><rect fill="#F1F1F1" height="36.2969" rx="2.5" ry="2.5" style="stroke:#181818;stroke-width:0.5;" width="109" x="150" y="391"/><text fill="#000000" font-family="sans-serif" font-size="14" lengthAdjust="spacing" textLength="89" x="160" y="413.9951">file-metadata</text></g><!--entity file-association--><g id="elem_file-association"><rect fill="#F1F1F1" height="36.2969" rx="2.5" ry="2.5" style="stroke:#181818;stroke-width:0.5;" width="122" x="636.5" y="103"/><text fill="#000000" font-family="sans-serif" font-size="14" lengthAdjust="spacing" textLength="102" x="646.5" y="125.9951">file-association</text></g><!--entity file-association-contracts--><g id="elem_file-association-contracts"><rect fill="#F1F1F1" height="36.2969" rx="2.5" ry="2.5" style="stroke:#181818;stroke-width:0.5;" width="192" x="707.5" y="199"/><text fill="#000000" font-family="sans-serif" font-size="14" lengthAdjust="spacing" textLength="172" x="717.5" y="221.9951">file-association-contracts</text></g><!--entity file-bundle--><g id="elem_file-bundle"><rect fill="#F1F1F1" height="36.2969" rx="2.5" ry="2.5" style="stroke:#181818;stroke-width:0.5;" width="92" x="488.5" y="7"/><text fill="#000000" font-family="sans-serif" font-size="14" lengthAdjust="spacing" textLength="72" x="498.5" y="29.9951">file-bundle</text></g><!--entity file-image--><g id="elem_file-image"><rect fill="#F1F1F1" height="36.2969" rx="2.5" ry="2.5" style="stroke:#181818;stroke-width:0.5;" width="86" x="934.5" y="199"/><text fill="#000000" font-family="sans-serif" font-size="14" lengthAdjust="spacing" textLength="66" x="944.5" y="221.9951">file-image</text></g><!--entity file-server--><g id="elem_file-server"><rect fill="#F1F1F1" height="36.2969" rx="2.5" ry="2.5" style="stroke:#181818;stroke-width:0.5;" width="87" x="443" y="103"/><text fill="#000000" font-family="sans-serif" font-size="14" lengthAdjust="spacing" textLength="67" x="453" y="125.9951">file-server</text></g><!--entity file-symfony-bridge--><g id="elem_file-symfony-bridge"><rect fill="#F1F1F1" height="36.2969" rx="2.5" ry="2.5" style="stroke:#181818;stroke-width:0.5;" width="150" x="70.5" y="199"/><text fill="#000000" font-family="sans-serif" font-size="14" lengthAdjust="spacing" textLength="130" x="80.5" y="221.9951">file-symfony-bridge</text></g><!--entity file-derivation--><g id="elem_file-derivation"><rect fill="#F1F1F1" height="36.2969" rx="2.5" ry="2.5" style="stroke:#181818;stroke-width:0.5;" width="111" x="886" y="295"/><text fill="#000000" font-family="sans-serif" font-size="14" lengthAdjust="spacing" textLength="91" x="896" y="317.9951">file-derivation</text></g><!--entity file-oneup-uploader-bridge--><g id="elem_file-oneup-uploader-bridge"><rect fill="#F1F1F1" height="36.2969" rx="2.5" ry="2.5" style="stroke:#181818;stroke-width:0.5;" width="204" x="255.5" y="199"/><text fill="#000000" font-family="sans-serif" font-size="14" lengthAdjust="spacing" textLength="184" x="265.5" y="221.9951">file-oneup-uploader-bridge</text></g><!--entity file-association-entity--><g id="elem_file-association-entity"><rect fill="#F1F1F1" height="36.2969" rx="2.5" ry="2.5" style="stroke:#181818;stroke-width:0.5;" width="165" x="152" y="295"/><text fill="#000000" font-family="sans-serif" font-size="14" lengthAdjust="spacing" textLength="145" x="162" y="317.9951">file-association-entity</text></g><!--link file to file-contracts--><g id="link_file_file-contracts"><path d="M117.13,324.04 C122.65,326.57 128.72,329.11 134.5,331 C246.7,367.66 377.6397,389.4959 452.0297,400.0659 " fill="none" id="file-to-file-contracts" style="stroke:#181818;stroke-width:1.0;"/><polygon fill="#181818" points="457.97,400.91,449.6222,395.6837,453.0197,400.2066,448.4968,403.6041,457.97,400.91" style="stroke:#181818;stroke-width:1.0;"/></g><!--link file to file-metadata-contracts--><g id="link_file_file-metadata-contracts"><path d="M97.41,331.2 C97.22,367.37 96.8116,444.9601 96.6216,480.9801 " fill="none" id="file-to-file-metadata-contracts" style="stroke:#181818;stroke-width:1.0;"/><polygon fill="#181818" points="96.59,486.98,100.6374,478.0012,96.6164,481.9801,92.6375,477.959,96.59,486.98" style="stroke:#181818;stroke-width:1.0;"/></g><!--link file to file-metadata--><g id="link_file_file-metadata"><path d="M117.13,331.24 C136.43,348.2 161.2324,369.99 180.4924,386.91 " fill="none" id="file-to-file-metadata" style="stroke:#181818;stroke-width:1.0;"/><polygon fill="#181818" points="185,390.87,180.8785,381.925,181.2436,387.57,175.5986,387.9351,185,390.87" style="stroke:#181818;stroke-width:1.0;"/></g><!--link file-association to file-association-contracts--><g id="link_file-association_file-association-contracts"><path d="M716.94,139.24 C736.07,156.2 760.6109,177.9691 779.6909,194.8891 " fill="none" id="file-association-to-file-association-contracts" style="stroke:#181818;stroke-width:1.0;"/><polygon fill="#181818" points="784.18,198.87,780.1003,189.9059,780.4391,195.5526,774.7924,195.8914,784.18,198.87" style="stroke:#181818;stroke-width:1.0;"/></g><!--link file-association to file-contracts--><g id="link_file-association_file-contracts"><path d="M693.4,139.19 C683.77,176.92 656.86,268.59 609.5,331 C590.78,355.66 567.4491,373.6523 546.2291,387.5523 " fill="none" id="file-association-to-file-contracts" style="stroke:#181818;stroke-width:1.0;"/><polygon fill="#181818" points="541.21,390.84,550.9304,389.2545,545.3926,388.1002,546.5468,382.5624,541.21,390.84" style="stroke:#181818;stroke-width:1.0;"/></g><!--link file-bundle to file--><g id="link_file-bundle_file"><path d="M488.35,26.19 C388.38,29.44 152.82,52.97 53.5,199 C32.66,229.64 57.3623,267.007 77.2823,290.217 " fill="none" id="file-bundle-to-file" style="stroke:#181818;stroke-width:1.0;"/><polygon fill="#181818" points="81.19,294.77,78.3639,285.3353,77.9336,290.9758,72.2932,290.5455,81.19,294.77" style="stroke:#181818;stroke-width:1.0;"/></g><!--link file-bundle to file-contracts--><g id="link_file-bundle_file-contracts"><path d="M538.22,43.02 C541.41,58.56 545.76,82.19 547.5,103 C556.72,212.94 529.5579,338.6699 518.2879,385.0099 " fill="none" id="file-bundle-to-file-contracts" style="stroke:#181818;stroke-width:1.0;"/><polygon fill="#181818" points="516.87,390.84,522.8835,383.0402,518.0516,385.9816,515.1101,381.1497,516.87,390.84" style="stroke:#181818;stroke-width:1.0;"/></g><!--link file-bundle to file-image--><g id="link_file-bundle_file-image"><path d="M580.56,37.64 C630.01,50.82 710.39,74.26 776.5,103 C841.85,131.41 908.4361,171.7217 946.0261,195.6117 " fill="none" id="file-bundle-to-file-image" style="stroke:#181818;stroke-width:1.0;stroke-dasharray:7.0,7.0;"/><polygon fill="#181818" points="951.09,198.83,945.6397,190.6267,946.8701,196.1481,941.3487,197.3785,951.09,198.83" style="stroke:#181818;stroke-width:1.0;"/></g><!--link file-bundle to file-association--><g id="link_file-bundle_file-association"><path d="M564.02,43.02 C593.47,60.01 633.2627,82.9519 662.7327,99.9519 " fill="none" id="file-bundle-to-file-association" style="stroke:#181818;stroke-width:1.0;stroke-dasharray:7.0,7.0;"/><polygon fill="#181818" points="667.93,102.95,662.1328,94.988,663.5989,100.4516,658.1354,101.9177,667.93,102.95" style="stroke:#181818;stroke-width:1.0;"/></g><!--link file-bundle to file-server--><g id="link_file-bundle_file-server"><path d="M525.7,43.24 C517.04,60.2 506.6187,80.6064 497.9787,97.5264 " fill="none" id="file-bundle-to-file-server" style="stroke:#181818;stroke-width:1.0;stroke-dasharray:7.0,7.0;"/><polygon fill="#181818" points="495.25,102.87,502.9054,96.6737,497.5239,98.417,495.7806,93.0354,495.25,102.87" style="stroke:#181818;stroke-width:1.0;"/></g><!--link file-bundle to file-symfony-bridge--><g id="link_file-bundle_file-symfony-bridge"><path d="M499.64,43.03 C425.79,79.1 259.7214,160.217 185.8214,196.307 " fill="none" id="file-bundle-to-file-symfony-bridge" style="stroke:#181818;stroke-width:1.0;stroke-dasharray:7.0,7.0;"/><polygon fill="#181818" points="180.43,198.94,190.2725,198.5848,184.9229,196.7459,186.7618,191.3963,180.43,198.94" style="stroke:#181818;stroke-width:1.0;"/></g><!--link file-derivation to file-contracts--><g id="link_file-derivation_file-contracts"><path d="M885.86,326.19 C803.22,344.3 654.881,376.8061 572.891,394.7661 " fill="none" id="file-derivation-to-file-contracts" style="stroke:#181818;stroke-width:1.0;"/><polygon fill="#181818" points="567.03,396.05,576.6775,398.0316,571.9142,394.9801,574.9656,390.2168,567.03,396.05" style="stroke:#181818;stroke-width:1.0;"/></g><!--link file-image to file-contracts--><g id="link_file-image_file-contracts"><path d="M935.83,235.03 C847.55,271.1 648.1444,352.5808 559.8044,388.6708 " fill="none" id="file-image-to-file-contracts" style="stroke:#181818;stroke-width:1.0;"/><polygon fill="#181818" points="554.25,390.94,564.0943,391.2392,558.8786,389.049,561.0688,383.8334,554.25,390.94" style="stroke:#181818;stroke-width:1.0;"/></g><!--link file-image to file-derivation--><g id="link_file-image_file-derivation"><path d="M970.9,235.24 C964.4,252.2 956.6859,272.3469 950.2059,289.2669 " fill="none" id="file-image-to-file-derivation" style="stroke:#181818;stroke-width:1.0;"/><polygon fill="#181818" points="948.06,294.87,955.0143,287.8959,949.8482,290.2007,947.5434,285.0347,948.06,294.87" style="stroke:#181818;stroke-width:1.0;"/></g><!--link file-oneup-uploader-bridge to file-contracts--><g id="link_file-oneup-uploader-bridge_file-contracts"><path d="M371.53,235.2 C401.04,271.37 465.4376,350.3105 494.8176,386.3305 " fill="none" id="file-oneup-uploader-bridge-to-file-contracts" style="stroke:#181818;stroke-width:1.0;"/><polygon fill="#181818" points="498.61,390.98,496.0211,381.4775,495.4497,387.1054,489.8218,386.534,498.61,390.98" style="stroke:#181818;stroke-width:1.0;"/></g><!--link file-oneup-uploader-bridge to file--><g id="link_file-oneup-uploader-bridge_file"><path d="M303.33,235.05 C257.83,249.77 191.33,272.2 134.5,295 C128.86,297.26 128.2844,297.4301 122.7644,299.9601 " fill="none" id="file-oneup-uploader-bridge-to-file" style="stroke:#181818;stroke-width:1.0;"/><polygon fill="#181818" points="117.31,302.46,127.1582,302.3464,121.8553,300.3767,123.825,295.0738,117.31,302.46" style="stroke:#181818;stroke-width:1.0;"/></g><!--link file-server to file-contracts--><g id="link_file-server_file-contracts"><path d="M488.05,139.03 C492.66,189.78 505.7363,333.6147 510.3863,384.7147 " fill="none" id="file-server-to-file-contracts" style="stroke:#181818;stroke-width:1.0;"/><polygon fill="#181818" points="510.93,390.69,514.0979,381.3645,510.4769,385.7106,506.1308,382.0895,510.93,390.69" style="stroke:#181818;stroke-width:1.0;"/></g><!--link file-server to file-symfony-bridge--><g id="link_file-server_file-symfony-bridge"><path d="M442.97,134 C383.18,150.48 281.1143,178.6157 213.0143,197.3857 " fill="none" id="file-server-to-file-symfony-bridge" style="stroke:#181818;stroke-width:1.0;"/><polygon fill="#181818" points="207.23,198.98,216.9693,200.4448,212.0503,197.6514,214.8436,192.7324,207.23,198.98" style="stroke:#181818;stroke-width:1.0;"/></g><!--link file-symfony-bridge to file--><g id="link_file-symfony-bridge_file"><path d="M136.7,235.24 C128.04,252.2 117.6187,272.6064 108.9787,289.5264 " fill="none" id="file-symfony-bridge-to-file" style="stroke:#181818;stroke-width:1.0;"/><polygon fill="#181818" points="106.25,294.87,113.9054,288.6737,108.5239,290.417,106.7806,285.0354,106.25,294.87" style="stroke:#181818;stroke-width:1.0;"/></g><!--link file-symfony-bridge to file-contracts--><g id="link_file-symfony-bridge_file-contracts"><path d="M193.94,235 C232.76,249.28 288.21,271.12 334.5,295 C392.08,324.7 450.2208,363.9005 483.6508,387.3905 " fill="none" id="file-symfony-bridge-to-file-contracts" style="stroke:#181818;stroke-width:1.0;"/><polygon fill="#181818" points="488.56,390.84,483.4958,382.3929,484.469,387.9654,478.8964,388.9385,488.56,390.84" style="stroke:#181818;stroke-width:1.0;"/></g><!--link file-symfony-bridge to file-metadata-contracts--><g id="link_file-symfony-bridge_file-metadata-contracts"><path d="M116.34,235.12 C96.51,248.58 71.88,269.33 60.5,295 C30.95,361.64 65.9288,444.8675 84.5288,481.5875 " fill="none" id="file-symfony-bridge-to-file-metadata-contracts" style="stroke:#181818;stroke-width:1.0;"/><polygon fill="#181818" points="87.24,486.94,86.7415,477.1038,84.9806,482.4796,79.6048,480.7187,87.24,486.94" style="stroke:#181818;stroke-width:1.0;"/></g><!--link file-association-entity to file-contracts--><g id="link_file-association-entity_file-contracts"><path d="M284.84,331.02 C335.07,348.01 406.1163,372.0275 456.3763,389.0275 " fill="none" id="file-association-entity-to-file-contracts" style="stroke:#181818;stroke-width:1.0;"/><polygon fill="#181818" points="462.06,390.95,454.8161,384.2772,457.3236,389.348,452.2529,391.8554,462.06,390.95" style="stroke:#181818;stroke-width:1.0;"/></g><!--link file-association-entity to file-metadata--><g id="link_file-association-entity_file-metadata"><path d="M229,331.24 C223.58,348.2 217.1942,368.234 211.7942,385.154 " fill="none" id="file-association-entity-to-file-metadata" style="stroke:#181818;stroke-width:1.0;"/><polygon fill="#181818" points="209.97,390.87,216.517,383.5122,211.4902,386.1067,208.8957,381.0799,209.97,390.87" style="stroke:#181818;stroke-width:1.0;"/></g><!--link file-metadata to file-metadata-contracts--><g id="link_file-metadata_file-metadata-contracts"><path d="M184.94,427.02 C165.49,443.95 140.3356,465.8506 120.8056,482.8506 " fill="none" id="file-metadata-to-file-metadata-contracts" style="stroke:#181818;stroke-width:1.0;"/><polygon fill="#181818" points="116.28,486.79,125.6947,483.898,120.0514,483.5072,120.4422,477.8639,116.28,486.79" style="stroke:#181818;stroke-width:1.0;"/></g><!--SRC=[bPD1ZiCW34NtEGKNe4VefaUOPTM50sw40ZWoJgNSVb2RpAHD83Cxy7_sjv59lOi3C0HFfaUhMZ1znpH6Uo5Fh8GXfWnWbAP92wmCXO5Y3dx9v54n6e7OUMoQwzrvl2cjp-fvr8PYBc8atRPQG04B0d-2Pab3IcGSYAEunbRXJRbIpePhy-1lxaMXd7iwBOWBq65PNZTLX1Bo0xcYJ-5EST8jE_jhPf7TutZSLuF_8bQLPoJlmJZeSV04MLmQgHKzobYuUVPQgIso_o0VqHsl4h3ZMKIB-_osdVdRE9cg5dNyyqVyt0zQ-GO0]--></g></svg>