<?xml version="1.0" encoding="us-ascii" standalone="no"?><svg xmlns="http://www.w3.org/2000/svg" xmlns:xlink="http://www.w3.org/1999/xlink" contentStyleType="text/css" height="433px" preserveAspectRatio="none" style="width:1107px;height:433px;" version="1.1" viewBox="0 0 1107 433" width="1107px" zoomAndPan="magnify"><defs/><g><!--entity file--><g id="elem_file"><rect fill="#F1F1F1" height="36.2969" rx="2.5" ry="2.5" style="stroke:#181818;stroke-width:0.5;" width="39" x="129.85" y="295"/><text fill="#000000" font-family="sans-serif" font-size="14" lengthAdjust="spacing" textLength="19" x="139.85" y="317.9951">file</text></g><!--entity file-contracts--><g id="elem_file-contracts"><rect fill="#F1F1F1" height="36.2969" rx="2.5" ry="2.5" style="stroke:#181818;stroke-width:0.5;" width="109" x="591.85" y="391"/><text fill="#000000" font-family="sans-serif" font-size="14" lengthAdjust="spacing" textLength="89" x="601.85" y="413.9951">file-contracts</text></g><!--entity file-metadata-contracts--><g id="elem_file-metadata-contracts"><rect fill="#F1F1F1" height="36.2969" rx="2.5" ry="2.5" style="stroke:#181818;stroke-width:0.5;" width="179" x="59.85" y="391"/><text fill="#000000" font-family="sans-serif" font-size="14" lengthAdjust="spacing" textLength="159" x="69.85" y="413.9951">file-metadata-contracts</text></g><!--entity file-association--><g id="elem_file-association"><rect fill="#F1F1F1" height="36.2969" rx="2.5" ry="2.5" style="stroke:#181818;stroke-width:0.5;" width="122" x="585.35" y="103"/><text fill="#000000" font-family="sans-serif" font-size="14" lengthAdjust="spacing" textLength="102" x="595.35" y="125.9951">file-association</text></g><!--entity file-association-contracts--><g id="elem_file-association-contracts"><rect fill="#F1F1F1" height="36.2969" rx="2.5" ry="2.5" style="stroke:#181818;stroke-width:0.5;" width="192" x="550.35" y="199"/><text fill="#000000" font-family="sans-serif" font-size="14" lengthAdjust="spacing" textLength="172" x="560.35" y="221.9951">file-association-contracts</text></g><!--entity file-bundle--><g id="elem_file-bundle"><rect fill="#F1F1F1" height="36.2969" rx="2.5" ry="2.5" style="stroke:#181818;stroke-width:0.5;" width="92" x="525.35" y="7"/><text fill="#000000" font-family="sans-serif" font-size="14" lengthAdjust="spacing" textLength="72" x="535.35" y="29.9951">file-bundle</text></g><!--entity file-image--><g id="elem_file-image"><rect fill="#F1F1F1" height="36.2969" rx="2.5" ry="2.5" style="stroke:#181818;stroke-width:0.5;" width="86" x="919.35" y="199"/><text fill="#000000" font-family="sans-serif" font-size="14" lengthAdjust="spacing" textLength="66" x="929.35" y="221.9951">file-image</text></g><!--entity file-server--><g id="elem_file-server"><rect fill="#F1F1F1" height="36.2969" rx="2.5" ry="2.5" style="stroke:#181818;stroke-width:0.5;" width="87" x="453.85" y="103"/><text fill="#000000" font-family="sans-serif" font-size="14" lengthAdjust="spacing" textLength="67" x="463.85" y="125.9951">file-server</text></g><!--entity file-symfony-bridge--><g id="elem_file-symfony-bridge"><rect fill="#F1F1F1" height="36.2969" rx="2.5" ry="2.5" style="stroke:#181818;stroke-width:0.5;" width="150" x="55.35" y="199"/><text fill="#000000" font-family="sans-serif" font-size="14" lengthAdjust="spacing" textLength="130" x="65.35" y="221.9951">file-symfony-bridge</text></g><!--entity file-derivation--><g id="elem_file-derivation"><rect fill="#F1F1F1" height="36.2969" rx="2.5" ry="2.5" style="stroke:#181818;stroke-width:0.5;" width="111" x="990.85" y="295"/><text fill="#000000" font-family="sans-serif" font-size="14" lengthAdjust="spacing" textLength="91" x="1000.85" y="317.9951">file-derivation</text></g><!--entity file-oneup-uploader-bridge--><g id="elem_file-oneup-uploader-bridge"><rect fill="#F1F1F1" height="36.2969" rx="2.5" ry="2.5" style="stroke:#181818;stroke-width:0.5;" width="204" x="240.35" y="199"/><text fill="#000000" font-family="sans-serif" font-size="14" lengthAdjust="spacing" textLength="184" x="250.35" y="221.9951">file-oneup-uploader-bridge</text></g><!--link file to file-contracts--><g id="link_file_file-contracts"><path d="M169.14,317.74 C239.91,331.13 476.1446,375.8046 585.7646,396.5446 " fill="none" id="file-to-file-contracts" style="stroke:#181818;stroke-width:1.0;"/><polygon fill="#181818" points="591.66,397.66,583.5605,392.0566,586.7472,396.7305,582.0733,399.9172,591.66,397.66" style="stroke:#181818;stroke-width:1.0;"/></g><!--link file to file-metadata-contracts--><g id="link_file_file-metadata-contracts"><path d="M149.35,331.24 C149.35,348.2 149.35,367.95 149.35,384.87 " fill="none" id="file-to-file-metadata-contracts" style="stroke:#181818;stroke-width:1.0;"/><polygon fill="#181818" points="149.35,390.87,153.35,381.87,149.35,385.87,145.35,381.87,149.35,390.87" style="stroke:#181818;stroke-width:1.0;"/></g><!--link file-association to file-association-contracts--><g id="link_file-association_file-association-contracts"><path d="M646.35,139.24 C646.35,156.2 646.35,175.95 646.35,192.87 " fill="none" id="file-association-to-file-association-contracts" style="stroke:#181818;stroke-width:1.0;"/><polygon fill="#181818" points="646.35,198.87,650.35,189.87,646.35,193.87,642.35,189.87,646.35,198.87" style="stroke:#181818;stroke-width:1.0;"/></g><!--link file-association to file-contracts--><g id="link_file-association_file-contracts"><path d="M690.27,139.1 C715.71,151.56 745.56,171.16 760.35,199 C767.86,213.13 764.94,219.67 760.35,235 C741.13,299.08 693.7044,356.938 666.9944,386.208 " fill="none" id="file-association-to-file-contracts" style="stroke:#181818;stroke-width:1.0;"/><polygon fill="#181818" points="662.95,390.64,671.9713,386.6882,666.3203,386.9466,666.0619,381.2957,662.95,390.64" style="stroke:#181818;stroke-width:1.0;"/></g><!--link file-bundle to file--><g id="link_file-bundle_file"><path d="M525.23,33.74 C406.41,54.74 95.1,116.76 37.35,199 C6,243.64 84.1771,284.2687 124.0571,301.5987 " fill="none" id="file-bundle-to-file" style="stroke:#181818;stroke-width:1.0;"/><polygon fill="#181818" points="129.56,303.99,122.8999,296.7345,124.9743,301.9973,119.7115,304.0716,129.56,303.99" style="stroke:#181818;stroke-width:1.0;"/></g><!--link file-bundle to file-contracts--><g id="link_file-bundle_file-contracts"><path d="M617.59,41.7 C650.33,54.48 693.85,74.99 725.35,103 C763.49,136.91 773.74,150.1 788.35,199 C805.94,257.86 785.09,282.53 747.35,331 C727.98,355.88 703.8164,373.8075 681.7764,387.5975 " fill="none" id="file-bundle-to-file-contracts" style="stroke:#181818;stroke-width:1.0;"/><polygon fill="#181818" points="676.69,390.78,686.4413,389.3972,680.9287,388.1279,682.198,382.6153,676.69,390.78" style="stroke:#181818;stroke-width:1.0;"/></g><!--link file-bundle to file-image--><g id="link_file-bundle_file-image"><path d="M617.6,26.36 C684.35,29.09 808.86,42.66 892.35,103 C926.2,127.47 945.0774,168.2005 954.4574,193.2705 " fill="none" id="file-bundle-to-file-image" style="stroke:#181818;stroke-width:1.0;stroke-dasharray:7.0,7.0;"/><polygon fill="#181818" points="956.56,198.89,957.1525,189.059,954.8079,194.2071,949.6598,191.8624,956.56,198.89" style="stroke:#181818;stroke-width:1.0;"/></g><!--link file-bundle to file-association--><g id="link_file-bundle_file-association"><path d="M585.1,43.24 C598.64,60.2 615.4379,81.2599 628.9379,98.1799 " fill="none" id="file-bundle-to-file-association" style="stroke:#181818;stroke-width:1.0;stroke-dasharray:7.0,7.0;"/><polygon fill="#181818" points="632.68,102.87,630.1936,93.3402,629.5616,98.9616,623.9402,98.3296,632.68,102.87" style="stroke:#181818;stroke-width:1.0;"/></g><!--link file-bundle to file-server--><g id="link_file-bundle_file-server"><path d="M557.78,43.24 C544.42,60.2 527.8714,81.2356 514.5514,98.1556 " fill="none" id="file-bundle-to-file-server" style="stroke:#181818;stroke-width:1.0;stroke-dasharray:7.0,7.0;"/><polygon fill="#181818" points="510.84,102.87,519.55,98.2726,513.9328,98.9413,513.2641,93.3241,510.84,102.87" style="stroke:#181818;stroke-width:1.0;"/></g><!--link file-bundle to file-symfony-bridge--><g id="link_file-bundle_file-symfony-bridge"><path d="M531.82,43.03 C448.1,79.1 259.2305,160.4762 175.4505,196.5662 " fill="none" id="file-bundle-to-file-symfony-bridge" style="stroke:#181818;stroke-width:1.0;stroke-dasharray:7.0,7.0;"/><polygon fill="#181818" points="169.94,198.94,179.7882,199.053,174.5321,196.9619,176.6232,191.7057,169.94,198.94" style="stroke:#181818;stroke-width:1.0;"/></g><!--link file-derivation to file-contracts--><g id="link_file-derivation_file-contracts"><path d="M990.73,327.07 C914.09,345.08 782.7409,375.9475 706.6909,393.8175 " fill="none" id="file-derivation-to-file-contracts" style="stroke:#181818;stroke-width:1.0;"/><polygon fill="#181818" points="700.85,395.19,710.5264,397.0252,705.7174,394.0463,708.6964,389.2373,700.85,395.19" style="stroke:#181818;stroke-width:1.0;"/></g><!--link file-image to file-contracts--><g id="link_file-image_file-contracts"><path d="M956.18,235.23 C946.44,260.02 925.17,305.54 892.35,331 C836.04,374.68 760.5203,392.8981 707.0003,401.1281 " fill="none" id="file-image-to-file-contracts" style="stroke:#181818;stroke-width:1.0;"/><polygon fill="#181818" points="701.07,402.04,710.5734,404.6256,706.0119,401.2801,709.3575,396.7186,701.07,402.04" style="stroke:#181818;stroke-width:1.0;"/></g><!--link file-image to file-derivation--><g id="link_file-image_file-derivation"><path d="M977.76,235.24 C992.91,252.2 1011.922,273.4761 1027.042,290.3961 " fill="none" id="file-image-to-file-derivation" style="stroke:#181818;stroke-width:1.0;"/><polygon fill="#181818" points="1031.04,294.87,1028.0256,285.4938,1027.7083,291.1417,1022.0604,290.8244,1031.04,294.87" style="stroke:#181818;stroke-width:1.0;"/></g><!--link file-oneup-uploader-bridge to file-contracts--><g id="link_file-oneup-uploader-bridge_file-contracts"><path d="M358.53,235.15 C381.74,259.03 426.64,302.54 471.35,331 C511.25,356.4 555.3332,375.27 591.5632,388.88 " fill="none" id="file-oneup-uploader-bridge-to-file-contracts" style="stroke:#181818;stroke-width:1.0;"/><polygon fill="#181818" points="597.18,390.99,590.1615,384.0805,592.4994,389.2317,587.3482,391.5696,597.18,390.99" style="stroke:#181818;stroke-width:1.0;"/></g><!--link file-oneup-uploader-bridge to file--><g id="link_file-oneup-uploader-bridge_file"><path d="M307.4,235.02 C266.88,254.76 206.9145,283.9633 174.4045,299.7933 " fill="none" id="file-oneup-uploader-bridge-to-file" style="stroke:#181818;stroke-width:1.0;"/><polygon fill="#181818" points="169.01,302.42,178.8529,302.0762,173.5054,300.2311,175.3506,294.8836,169.01,302.42" style="stroke:#181818;stroke-width:1.0;"/></g><!--link file-server to file-contracts--><g id="link_file-server_file-contracts"><path d="M501.24,139 C506.74,161.6 517.89,202.45 533.35,235 C562.29,295.92 606.0151,355.9017 629.1351,386.0017 " fill="none" id="file-server-to-file-contracts" style="stroke:#181818;stroke-width:1.0;"/><polygon fill="#181818" points="632.79,390.76,630.4799,381.1859,629.7442,386.7947,624.1354,386.0591,632.79,390.76" style="stroke:#181818;stroke-width:1.0;"/></g><!--link file-server to file-symfony-bridge--><g id="link_file-server_file-symfony-bridge"><path d="M453.81,133.15 C390.2,149.44 277.1724,178.3912 202.6024,197.4912 " fill="none" id="file-server-to-file-symfony-bridge" style="stroke:#181818;stroke-width:1.0;"/><polygon fill="#181818" points="196.79,198.98,206.5011,200.6218,201.6336,197.7394,204.5161,192.872,196.79,198.98" style="stroke:#181818;stroke-width:1.0;"/></g><!--link file-symfony-bridge to file--><g id="link_file-symfony-bridge_file"><path d="M133.83,235.24 C137.26,252.2 141.2813,272.0689 144.7013,288.9889 " fill="none" id="file-symfony-bridge-to-file" style="stroke:#181818;stroke-width:1.0;"/><polygon fill="#181818" points="145.89,294.87,148.0276,285.2559,144.8994,289.9691,140.1862,286.8409,145.89,294.87" style="stroke:#181818;stroke-width:1.0;"/></g><!--link file-symfony-bridge to file-contracts--><g id="link_file-symfony-bridge_file-contracts"><path d="M171.92,235.14 C227.52,257.88 329.31,298.89 417.35,331 C477.05,352.77 540.5835,373.8864 587.1635,389.0164 " fill="none" id="file-symfony-bridge-to-file-contracts" style="stroke:#181818;stroke-width:1.0;"/><polygon fill="#181818" points="592.87,390.87,585.546,384.2853,588.1146,389.3254,583.0745,391.894,592.87,390.87" style="stroke:#181818;stroke-width:1.0;"/></g><!--SRC=[bP513i8m30JlVKK-49x0XITmH1pSn5HH4xjoKgJ-dWXQ4IWfSAkyi-jr6dj70mW4pwP7gremVISyaZsmPr59W686a5BJn0LMXiF0b8V7D7bKWYO1THwRvdHn7izAwxswVsh3b4DCYkUr5Z21XGGhI4ECR1manrGQYl7FdXNNvkjUUbI5kdUtMn0NeCEwN9QgGX7bYhAXJ-72DEbMd7qkioZk-ltSHy6_Y29vHlBF7WSz3fuXYqkHhT1lZeMRRz-AMYEV7-Hj-c5N3IXttW00]--></g></svg>