<?xml version="1.0" encoding="us-ascii" standalone="no"?><svg xmlns="http://www.w3.org/2000/svg" xmlns:xlink="http://www.w3.org/1999/xlink" contentStyleType="text/css" height="1358px" preserveAspectRatio="none" style="width:1468px;height:1358px;" version="1.1" viewBox="0 0 1468 1358" width="1468px" zoomAndPan="magnify"><defs/><g><!--class Mapper--><g id="elem_Mapper"><rect codeLine="2" fill="#F1F1F1" height="48" id="Mapper" rx="2.5" ry="2.5" style="stroke:#181818;stroke-width:0.5;" width="84" x="636.5" y="7"/><ellipse cx="651.5" cy="23" fill="#ADD1B2" rx="11" ry="11" style="stroke:#181818;stroke-width:1.0;"/><path d="M654.4688,28.6406 Q653.8906,28.9375 653.25,29.0781 Q652.6094,29.2344 651.9063,29.2344 Q649.4063,29.2344 648.0781,27.5938 Q646.7656,25.9375 646.7656,22.8125 Q646.7656,19.6875 648.0781,18.0313 Q649.4063,16.375 651.9063,16.375 Q652.6094,16.375 653.25,16.5313 Q653.9063,16.6875 654.4688,16.9844 L654.4688,19.7031 Q653.8438,19.125 653.25,18.8594 Q652.6563,18.5781 652.0313,18.5781 Q650.6875,18.5781 650,19.6563 Q649.3125,20.7188 649.3125,22.8125 Q649.3125,24.9063 650,25.9844 Q650.6875,27.0469 652.0313,27.0469 Q652.6563,27.0469 653.25,26.7813 Q653.8438,26.5 654.4688,25.9219 L654.4688,28.6406 Z " fill="#000000"/><text fill="#000000" font-family="sans-serif" font-size="14" lengthAdjust="spacing" textLength="52" x="665.5" y="27.8467">Mapper</text><line style="stroke:#181818;stroke-width:0.5;" x1="637.5" x2="719.5" y1="39" y2="39"/><line style="stroke:#181818;stroke-width:0.5;" x1="637.5" x2="719.5" y1="47" y2="47"/></g><!--class MainTransformer--><g id="elem_MainTransformer"><rect codeLine="5" fill="#F1F1F1" height="48" id="MainTransformer" rx="2.5" ry="2.5" style="stroke:#181818;stroke-width:0.5;" width="148" x="604.5" y="115"/><ellipse cx="619.5" cy="131" fill="#ADD1B2" rx="11" ry="11" style="stroke:#181818;stroke-width:1.0;"/><path d="M622.4688,136.6406 Q621.8906,136.9375 621.25,137.0781 Q620.6094,137.2344 619.9063,137.2344 Q617.4063,137.2344 616.0781,135.5938 Q614.7656,133.9375 614.7656,130.8125 Q614.7656,127.6875 616.0781,126.0313 Q617.4063,124.375 619.9063,124.375 Q620.6094,124.375 621.25,124.5313 Q621.9063,124.6875 622.4688,124.9844 L622.4688,127.7031 Q621.8438,127.125 621.25,126.8594 Q620.6563,126.5781 620.0313,126.5781 Q618.6875,126.5781 618,127.6563 Q617.3125,128.7188 617.3125,130.8125 Q617.3125,132.9063 618,133.9844 Q618.6875,135.0469 620.0313,135.0469 Q620.6563,135.0469 621.25,134.7813 Q621.8438,134.5 622.4688,133.9219 L622.4688,136.6406 Z " fill="#000000"/><text fill="#000000" font-family="sans-serif" font-size="14" lengthAdjust="spacing" textLength="116" x="633.5" y="135.8467">MainTransformer</text><line style="stroke:#181818;stroke-width:0.5;" x1="605.5" x2="751.5" y1="147" y2="147"/><line style="stroke:#181818;stroke-width:0.5;" x1="605.5" x2="751.5" y1="155" y2="155"/></g><!--class ObjectCacheFactory--><g id="elem_ObjectCacheFactory"><rect fill="#F1F1F1" height="48" id="ObjectCacheFactory" rx="2.5" ry="2.5" style="stroke:#181818;stroke-width:0.5;" width="171" x="490" y="223"/><ellipse cx="505" cy="239" fill="#ADD1B2" rx="11" ry="11" style="stroke:#181818;stroke-width:1.0;"/><path d="M507.9688,244.6406 Q507.3906,244.9375 506.75,245.0781 Q506.1094,245.2344 505.4063,245.2344 Q502.9063,245.2344 501.5781,243.5938 Q500.2656,241.9375 500.2656,238.8125 Q500.2656,235.6875 501.5781,234.0313 Q502.9063,232.375 505.4063,232.375 Q506.1094,232.375 506.75,232.5313 Q507.4063,232.6875 507.9688,232.9844 L507.9688,235.7031 Q507.3438,235.125 506.75,234.8594 Q506.1563,234.5781 505.5313,234.5781 Q504.1875,234.5781 503.5,235.6563 Q502.8125,236.7188 502.8125,238.8125 Q502.8125,240.9063 503.5,241.9844 Q504.1875,243.0469 505.5313,243.0469 Q506.1563,243.0469 506.75,242.7813 Q507.3438,242.5 507.9688,241.9219 L507.9688,244.6406 Z " fill="#000000"/><text fill="#000000" font-family="sans-serif" font-size="14" lengthAdjust="spacing" textLength="139" x="519" y="243.8467">ObjectCacheFactory</text><line style="stroke:#181818;stroke-width:0.5;" x1="491" x2="660" y1="255" y2="255"/><line style="stroke:#181818;stroke-width:0.5;" x1="491" x2="660" y1="263" y2="263"/></g><!--class TransformerRegistry--><g id="elem_TransformerRegistry"><rect fill="#F1F1F1" height="48" id="TransformerRegistry" rx="2.5" ry="2.5" style="stroke:#181818;stroke-width:0.5;" width="172" x="696.5" y="223"/><ellipse cx="711.5" cy="239" fill="#ADD1B2" rx="11" ry="11" style="stroke:#181818;stroke-width:1.0;"/><path d="M714.4688,244.6406 Q713.8906,244.9375 713.25,245.0781 Q712.6094,245.2344 711.9063,245.2344 Q709.4063,245.2344 708.0781,243.5938 Q706.7656,241.9375 706.7656,238.8125 Q706.7656,235.6875 708.0781,234.0313 Q709.4063,232.375 711.9063,232.375 Q712.6094,232.375 713.25,232.5313 Q713.9063,232.6875 714.4688,232.9844 L714.4688,235.7031 Q713.8438,235.125 713.25,234.8594 Q712.6563,234.5781 712.0313,234.5781 Q710.6875,234.5781 710,235.6563 Q709.3125,236.7188 709.3125,238.8125 Q709.3125,240.9063 710,241.9844 Q710.6875,243.0469 712.0313,243.0469 Q712.6563,243.0469 713.25,242.7813 Q713.8438,242.5 714.4688,241.9219 L714.4688,244.6406 Z " fill="#000000"/><text fill="#000000" font-family="sans-serif" font-size="14" lengthAdjust="spacing" textLength="140" x="725.5" y="243.8467">TransformerRegistry</text><line style="stroke:#181818;stroke-width:0.5;" x1="697.5" x2="867.5" y1="255" y2="255"/><line style="stroke:#181818;stroke-width:0.5;" x1="697.5" x2="867.5" y1="263" y2="263"/></g><!--class Transformer--><g id="elem_Transformer"><rect codeLine="14" fill="#F1F1F1" height="48" id="Transformer" rx="2.5" ry="2.5" style="stroke:#181818;stroke-width:0.5;" width="115" x="725" y="439"/><ellipse cx="740" cy="455" fill="#B4A7E5" rx="11" ry="11" style="stroke:#181818;stroke-width:1.0;"/><path d="M735.9219,450.7656 L735.9219,448.6094 L743.3125,448.6094 L743.3125,450.7656 L740.8438,450.7656 L740.8438,458.8438 L743.3125,458.8438 L743.3125,461 L735.9219,461 L735.9219,458.8438 L738.3906,458.8438 L738.3906,450.7656 L735.9219,450.7656 Z " fill="#000000"/><text fill="#000000" font-family="sans-serif" font-size="14" font-style="italic" lengthAdjust="spacing" textLength="83" x="754" y="459.8467">Transformer</text><line style="stroke:#181818;stroke-width:0.5;" x1="726" x2="839" y1="471" y2="471"/><line style="stroke:#181818;stroke-width:0.5;" x1="726" x2="839" y1="479" y2="479"/></g><!--class MappingFactory--><g id="elem_MappingFactory"><rect fill="#F1F1F1" height="48" id="MappingFactory" rx="2.5" ry="2.5" style="stroke:#181818;stroke-width:0.5;" width="141" x="774" y="331"/><ellipse cx="789" cy="347" fill="#ADD1B2" rx="11" ry="11" style="stroke:#181818;stroke-width:1.0;"/><path d="M791.9688,352.6406 Q791.3906,352.9375 790.75,353.0781 Q790.1094,353.2344 789.4063,353.2344 Q786.9063,353.2344 785.5781,351.5938 Q784.2656,349.9375 784.2656,346.8125 Q784.2656,343.6875 785.5781,342.0313 Q786.9063,340.375 789.4063,340.375 Q790.1094,340.375 790.75,340.5313 Q791.4063,340.6875 791.9688,340.9844 L791.9688,343.7031 Q791.3438,343.125 790.75,342.8594 Q790.1563,342.5781 789.5313,342.5781 Q788.1875,342.5781 787.5,343.6563 Q786.8125,344.7188 786.8125,346.8125 Q786.8125,348.9063 787.5,349.9844 Q788.1875,351.0469 789.5313,351.0469 Q790.1563,351.0469 790.75,350.7813 Q791.3438,350.5 791.9688,349.9219 L791.9688,352.6406 Z " fill="#000000"/><text fill="#000000" font-family="sans-serif" font-size="14" lengthAdjust="spacing" textLength="109" x="803" y="351.8467">MappingFactory</text><line style="stroke:#181818;stroke-width:0.5;" x1="775" x2="914" y1="363" y2="363"/><line style="stroke:#181818;stroke-width:0.5;" x1="775" x2="914" y1="371" y2="371"/></g><!--class ArrayToObjectTransformer--><g id="elem_ArrayToObjectTransformer"><rect codeLine="16" fill="#F1F1F1" height="48" id="ArrayToObjectTransformer" rx="2.5" ry="2.5" style="stroke:#181818;stroke-width:0.5;" width="213" x="7" y="871"/><ellipse cx="22" cy="887" fill="#ADD1B2" rx="11" ry="11" style="stroke:#181818;stroke-width:1.0;"/><path d="M24.9688,892.6406 Q24.3906,892.9375 23.75,893.0781 Q23.1094,893.2344 22.4063,893.2344 Q19.9063,893.2344 18.5781,891.5938 Q17.2656,889.9375 17.2656,886.8125 Q17.2656,883.6875 18.5781,882.0313 Q19.9063,880.375 22.4063,880.375 Q23.1094,880.375 23.75,880.5313 Q24.4063,880.6875 24.9688,880.9844 L24.9688,883.7031 Q24.3438,883.125 23.75,882.8594 Q23.1563,882.5781 22.5313,882.5781 Q21.1875,882.5781 20.5,883.6563 Q19.8125,884.7188 19.8125,886.8125 Q19.8125,888.9063 20.5,889.9844 Q21.1875,891.0469 22.5313,891.0469 Q23.1563,891.0469 23.75,890.7813 Q24.3438,890.5 24.9688,889.9219 L24.9688,892.6406 Z " fill="#000000"/><text fill="#000000" font-family="sans-serif" font-size="14" lengthAdjust="spacing" textLength="181" x="36" y="891.8467">ArrayToObjectTransformer</text><line style="stroke:#181818;stroke-width:0.5;" x1="8" x2="219" y1="903" y2="903"/><line style="stroke:#181818;stroke-width:0.5;" x1="8" x2="219" y1="911" y2="911"/></g><!--class Denormalizer--><g id="elem_Denormalizer"><rect fill="#F1F1F1" height="48" id="Denormalizer" rx="2.5" ry="2.5" style="stroke:#181818;stroke-width:0.5;" width="124" x="51.5" y="979"/><ellipse cx="66.5" cy="995" fill="#ADD1B2" rx="11" ry="11" style="stroke:#181818;stroke-width:1.0;"/><path d="M69.4688,1000.6406 Q68.8906,1000.9375 68.25,1001.0781 Q67.6094,1001.2344 66.9063,1001.2344 Q64.4063,1001.2344 63.0781,999.5938 Q61.7656,997.9375 61.7656,994.8125 Q61.7656,991.6875 63.0781,990.0313 Q64.4063,988.375 66.9063,988.375 Q67.6094,988.375 68.25,988.5313 Q68.9063,988.6875 69.4688,988.9844 L69.4688,991.7031 Q68.8438,991.125 68.25,990.8594 Q67.6563,990.5781 67.0313,990.5781 Q65.6875,990.5781 65,991.6563 Q64.3125,992.7188 64.3125,994.8125 Q64.3125,996.9063 65,997.9844 Q65.6875,999.0469 67.0313,999.0469 Q67.6563,999.0469 68.25,998.7813 Q68.8438,998.5 69.4688,997.9219 L69.4688,1000.6406 Z " fill="#000000"/><text fill="#000000" font-family="sans-serif" font-size="14" lengthAdjust="spacing" textLength="92" x="80.5" y="999.8467">Denormalizer</text><line style="stroke:#181818;stroke-width:0.5;" x1="52.5" x2="174.5" y1="1011" y2="1011"/><line style="stroke:#181818;stroke-width:0.5;" x1="52.5" x2="174.5" y1="1019" y2="1019"/></g><!--class ObjectToArrayTransformer--><g id="elem_ObjectToArrayTransformer"><rect codeLine="20" fill="#F1F1F1" height="48" id="ObjectToArrayTransformer" rx="2.5" ry="2.5" style="stroke:#181818;stroke-width:0.5;" width="213" x="167" y="1087"/><ellipse cx="182" cy="1103" fill="#ADD1B2" rx="11" ry="11" style="stroke:#181818;stroke-width:1.0;"/><path d="M184.9688,1108.6406 Q184.3906,1108.9375 183.75,1109.0781 Q183.1094,1109.2344 182.4063,1109.2344 Q179.9063,1109.2344 178.5781,1107.5938 Q177.2656,1105.9375 177.2656,1102.8125 Q177.2656,1099.6875 178.5781,1098.0313 Q179.9063,1096.375 182.4063,1096.375 Q183.1094,1096.375 183.75,1096.5313 Q184.4063,1096.6875 184.9688,1096.9844 L184.9688,1099.7031 Q184.3438,1099.125 183.75,1098.8594 Q183.1563,1098.5781 182.5313,1098.5781 Q181.1875,1098.5781 180.5,1099.6563 Q179.8125,1100.7188 179.8125,1102.8125 Q179.8125,1104.9063 180.5,1105.9844 Q181.1875,1107.0469 182.5313,1107.0469 Q183.1563,1107.0469 183.75,1106.7813 Q184.3438,1106.5 184.9688,1105.9219 L184.9688,1108.6406 Z " fill="#000000"/><text fill="#000000" font-family="sans-serif" font-size="14" lengthAdjust="spacing" textLength="181" x="196" y="1107.8467">ObjectToArrayTransformer</text><line style="stroke:#181818;stroke-width:0.5;" x1="168" x2="379" y1="1119" y2="1119"/><line style="stroke:#181818;stroke-width:0.5;" x1="168" x2="379" y1="1127" y2="1127"/></g><!--class Normalizer--><g id="elem_Normalizer"><rect fill="#F1F1F1" height="48" id="Normalizer" rx="2.5" ry="2.5" style="stroke:#181818;stroke-width:0.5;" width="105" x="221" y="1195"/><ellipse cx="236" cy="1211" fill="#ADD1B2" rx="11" ry="11" style="stroke:#181818;stroke-width:1.0;"/><path d="M238.9688,1216.6406 Q238.3906,1216.9375 237.75,1217.0781 Q237.1094,1217.2344 236.4063,1217.2344 Q233.9063,1217.2344 232.5781,1215.5938 Q231.2656,1213.9375 231.2656,1210.8125 Q231.2656,1207.6875 232.5781,1206.0313 Q233.9063,1204.375 236.4063,1204.375 Q237.1094,1204.375 237.75,1204.5313 Q238.4063,1204.6875 238.9688,1204.9844 L238.9688,1207.7031 Q238.3438,1207.125 237.75,1206.8594 Q237.1563,1206.5781 236.5313,1206.5781 Q235.1875,1206.5781 234.5,1207.6563 Q233.8125,1208.7188 233.8125,1210.8125 Q233.8125,1212.9063 234.5,1213.9844 Q235.1875,1215.0469 236.5313,1215.0469 Q237.1563,1215.0469 237.75,1214.7813 Q238.3438,1214.5 238.9688,1213.9219 L238.9688,1216.6406 Z " fill="#000000"/><text fill="#000000" font-family="sans-serif" font-size="14" lengthAdjust="spacing" textLength="73" x="250" y="1215.8467">Normalizer</text><line style="stroke:#181818;stroke-width:0.5;" x1="222" x2="325" y1="1227" y2="1227"/><line style="stroke:#181818;stroke-width:0.5;" x1="222" x2="325" y1="1235" y2="1235"/></g><!--class ClassMethodTransformer--><g id="elem_ClassMethodTransformer"><rect codeLine="24" fill="#F1F1F1" height="48" id="ClassMethodTransformer" rx="2.5" ry="2.5" style="stroke:#181818;stroke-width:0.5;" width="206" x="538.5" y="979"/><ellipse cx="553.5" cy="995" fill="#ADD1B2" rx="11" ry="11" style="stroke:#181818;stroke-width:1.0;"/><path d="M556.4688,1000.6406 Q555.8906,1000.9375 555.25,1001.0781 Q554.6094,1001.2344 553.9063,1001.2344 Q551.4063,1001.2344 550.0781,999.5938 Q548.7656,997.9375 548.7656,994.8125 Q548.7656,991.6875 550.0781,990.0313 Q551.4063,988.375 553.9063,988.375 Q554.6094,988.375 555.25,988.5313 Q555.9063,988.6875 556.4688,988.9844 L556.4688,991.7031 Q555.8438,991.125 555.25,990.8594 Q554.6563,990.5781 554.0313,990.5781 Q552.6875,990.5781 552,991.6563 Q551.3125,992.7188 551.3125,994.8125 Q551.3125,996.9063 552,997.9844 Q552.6875,999.0469 554.0313,999.0469 Q554.6563,999.0469 555.25,998.7813 Q555.8438,998.5 556.4688,997.9219 L556.4688,1000.6406 Z " fill="#000000"/><text fill="#000000" font-family="sans-serif" font-size="14" lengthAdjust="spacing" textLength="174" x="567.5" y="999.8467">ClassMethodTransformer</text><line style="stroke:#181818;stroke-width:0.5;" x1="539.5" x2="743.5" y1="1011" y2="1011"/><line style="stroke:#181818;stroke-width:0.5;" x1="539.5" x2="743.5" y1="1019" y2="1019"/></g><!--class SubMapperFactory--><g id="elem_SubMapperFactory"><rect fill="#F1F1F1" height="48" id="SubMapperFactory" rx="2.5" ry="2.5" style="stroke:#181818;stroke-width:0.5;" width="161" x="561" y="1087"/><ellipse cx="576" cy="1103" fill="#ADD1B2" rx="11" ry="11" style="stroke:#181818;stroke-width:1.0;"/><path d="M578.9688,1108.6406 Q578.3906,1108.9375 577.75,1109.0781 Q577.1094,1109.2344 576.4063,1109.2344 Q573.9063,1109.2344 572.5781,1107.5938 Q571.2656,1105.9375 571.2656,1102.8125 Q571.2656,1099.6875 572.5781,1098.0313 Q573.9063,1096.375 576.4063,1096.375 Q577.1094,1096.375 577.75,1096.5313 Q578.4063,1096.6875 578.9688,1096.9844 L578.9688,1099.7031 Q578.3438,1099.125 577.75,1098.8594 Q577.1563,1098.5781 576.5313,1098.5781 Q575.1875,1098.5781 574.5,1099.6563 Q573.8125,1100.7188 573.8125,1102.8125 Q573.8125,1104.9063 574.5,1105.9844 Q575.1875,1107.0469 576.5313,1107.0469 Q577.1563,1107.0469 577.75,1106.7813 Q578.3438,1106.5 578.9688,1105.9219 L578.9688,1108.6406 Z " fill="#000000"/><text fill="#000000" font-family="sans-serif" font-size="14" lengthAdjust="spacing" textLength="129" x="590" y="1107.8467">SubMapperFactory</text><line style="stroke:#181818;stroke-width:0.5;" x1="562" x2="721" y1="1119" y2="1119"/><line style="stroke:#181818;stroke-width:0.5;" x1="562" x2="721" y1="1127" y2="1127"/></g><!--class ObjectMapperTransformer--><g id="elem_ObjectMapperTransformer"><rect codeLine="28" fill="#F1F1F1" height="48" id="ObjectMapperTransformer" rx="2.5" ry="2.5" style="stroke:#181818;stroke-width:0.5;" width="213" x="457" y="547"/><ellipse cx="472" cy="563" fill="#ADD1B2" rx="11" ry="11" style="stroke:#181818;stroke-width:1.0;"/><path d="M474.9688,568.6406 Q474.3906,568.9375 473.75,569.0781 Q473.1094,569.2344 472.4063,569.2344 Q469.9063,569.2344 468.5781,567.5938 Q467.2656,565.9375 467.2656,562.8125 Q467.2656,559.6875 468.5781,558.0313 Q469.9063,556.375 472.4063,556.375 Q473.1094,556.375 473.75,556.5313 Q474.4063,556.6875 474.9688,556.9844 L474.9688,559.7031 Q474.3438,559.125 473.75,558.8594 Q473.1563,558.5781 472.5313,558.5781 Q471.1875,558.5781 470.5,559.6563 Q469.8125,560.7188 469.8125,562.8125 Q469.8125,564.9063 470.5,565.9844 Q471.1875,567.0469 472.5313,567.0469 Q473.1563,567.0469 473.75,566.7813 Q474.3438,566.5 474.9688,565.9219 L474.9688,568.6406 Z " fill="#000000"/><text fill="#000000" font-family="sans-serif" font-size="14" lengthAdjust="spacing" textLength="181" x="486" y="567.8467">ObjectMapperTransformer</text><line style="stroke:#181818;stroke-width:0.5;" x1="458" x2="669" y1="579" y2="579"/><line style="stroke:#181818;stroke-width:0.5;" x1="458" x2="669" y1="587" y2="587"/></g><!--class ObjectMapperTableFactory--><g id="elem_ObjectMapperTableFactory"><rect fill="#F1F1F1" height="48" id="ObjectMapperTableFactory" rx="2.5" ry="2.5" style="stroke:#181818;stroke-width:0.5;" width="217" x="403" y="871"/><ellipse cx="418" cy="887" fill="#ADD1B2" rx="11" ry="11" style="stroke:#181818;stroke-width:1.0;"/><path d="M420.9688,892.6406 Q420.3906,892.9375 419.75,893.0781 Q419.1094,893.2344 418.4063,893.2344 Q415.9063,893.2344 414.5781,891.5938 Q413.2656,889.9375 413.2656,886.8125 Q413.2656,883.6875 414.5781,882.0313 Q415.9063,880.375 418.4063,880.375 Q419.1094,880.375 419.75,880.5313 Q420.4063,880.6875 420.9688,880.9844 L420.9688,883.7031 Q420.3438,883.125 419.75,882.8594 Q419.1563,882.5781 418.5313,882.5781 Q417.1875,882.5781 416.5,883.6563 Q415.8125,884.7188 415.8125,886.8125 Q415.8125,888.9063 416.5,889.9844 Q417.1875,891.0469 418.5313,891.0469 Q419.1563,891.0469 419.75,890.7813 Q420.3438,890.5 420.9688,889.9219 L420.9688,892.6406 Z " fill="#000000"/><text fill="#000000" font-family="sans-serif" font-size="14" lengthAdjust="spacing" textLength="185" x="432" y="891.8467">ObjectMapperTableFactory</text><line style="stroke:#181818;stroke-width:0.5;" x1="404" x2="619" y1="903" y2="903"/><line style="stroke:#181818;stroke-width:0.5;" x1="404" x2="619" y1="911" y2="911"/></g><!--class ObjectMapperResolver--><g id="elem_ObjectMapperResolver"><rect fill="#F1F1F1" height="48" id="ObjectMapperResolver" rx="2.5" ry="2.5" style="stroke:#181818;stroke-width:0.5;" width="189" x="469" y="655"/><ellipse cx="484" cy="671" fill="#ADD1B2" rx="11" ry="11" style="stroke:#181818;stroke-width:1.0;"/><path d="M486.9688,676.6406 Q486.3906,676.9375 485.75,677.0781 Q485.1094,677.2344 484.4063,677.2344 Q481.9063,677.2344 480.5781,675.5938 Q479.2656,673.9375 479.2656,670.8125 Q479.2656,667.6875 480.5781,666.0313 Q481.9063,664.375 484.4063,664.375 Q485.1094,664.375 485.75,664.5313 Q486.4063,664.6875 486.9688,664.9844 L486.9688,667.7031 Q486.3438,667.125 485.75,666.8594 Q485.1563,666.5781 484.5313,666.5781 Q483.1875,666.5781 482.5,667.6563 Q481.8125,668.7188 481.8125,670.8125 Q481.8125,672.9063 482.5,673.9844 Q483.1875,675.0469 484.5313,675.0469 Q485.1563,675.0469 485.75,674.7813 Q486.3438,674.5 486.9688,673.9219 L486.9688,676.6406 Z " fill="#000000"/><text fill="#000000" font-family="sans-serif" font-size="14" lengthAdjust="spacing" textLength="157" x="498" y="675.8467">ObjectMapperResolver</text><line style="stroke:#181818;stroke-width:0.5;" x1="470" x2="657" y1="687" y2="687"/><line style="stroke:#181818;stroke-width:0.5;" x1="470" x2="657" y1="695" y2="695"/></g><!--class ObjectMapper--><g id="elem_ObjectMapper"><rect fill="#F1F1F1" height="48" id="ObjectMapper" rx="2.5" ry="2.5" style="stroke:#181818;stroke-width:0.5;" width="129" x="590" y="763"/><ellipse cx="605" cy="779" fill="#ADD1B2" rx="11" ry="11" style="stroke:#181818;stroke-width:1.0;"/><path d="M607.9688,784.6406 Q607.3906,784.9375 606.75,785.0781 Q606.1094,785.2344 605.4063,785.2344 Q602.9063,785.2344 601.5781,783.5938 Q600.2656,781.9375 600.2656,778.8125 Q600.2656,775.6875 601.5781,774.0313 Q602.9063,772.375 605.4063,772.375 Q606.1094,772.375 606.75,772.5313 Q607.4063,772.6875 607.9688,772.9844 L607.9688,775.7031 Q607.3438,775.125 606.75,774.8594 Q606.1563,774.5781 605.5313,774.5781 Q604.1875,774.5781 603.5,775.6563 Q602.8125,776.7188 602.8125,778.8125 Q602.8125,780.9063 603.5,781.9844 Q604.1875,783.0469 605.5313,783.0469 Q606.1563,783.0469 606.75,782.7813 Q607.3438,782.5 607.9688,781.9219 L607.9688,784.6406 Z " fill="#000000"/><text fill="#000000" font-family="sans-serif" font-size="14" lengthAdjust="spacing" textLength="97" x="619" y="783.8467">ObjectMapper</text><line style="stroke:#181818;stroke-width:0.5;" x1="591" x2="718" y1="795" y2="795"/><line style="stroke:#181818;stroke-width:0.5;" x1="591" x2="718" y1="803" y2="803"/></g><!--class ObjectToObjectTransformer--><g id="elem_ObjectToObjectTransformer"><rect codeLine="36" fill="#F1F1F1" height="48" id="ObjectToObjectTransformer" rx="2.5" ry="2.5" style="stroke:#181818;stroke-width:0.5;" width="224" x="846.5" y="763"/><ellipse cx="861.5" cy="779" fill="#ADD1B2" rx="11" ry="11" style="stroke:#181818;stroke-width:1.0;"/><path d="M864.4688,784.6406 Q863.8906,784.9375 863.25,785.0781 Q862.6094,785.2344 861.9063,785.2344 Q859.4063,785.2344 858.0781,783.5938 Q856.7656,781.9375 856.7656,778.8125 Q856.7656,775.6875 858.0781,774.0313 Q859.4063,772.375 861.9063,772.375 Q862.6094,772.375 863.25,772.5313 Q863.9063,772.6875 864.4688,772.9844 L864.4688,775.7031 Q863.8438,775.125 863.25,774.8594 Q862.6563,774.5781 862.0313,774.5781 Q860.6875,774.5781 860,775.6563 Q859.3125,776.7188 859.3125,778.8125 Q859.3125,780.9063 860,781.9844 Q860.6875,783.0469 862.0313,783.0469 Q862.6563,783.0469 863.25,782.7813 Q863.8438,782.5 864.4688,781.9219 L864.4688,784.6406 Z " fill="#000000"/><text fill="#000000" font-family="sans-serif" font-size="14" lengthAdjust="spacing" textLength="192" x="875.5" y="783.8467">ObjectToObjectTransformer</text><line style="stroke:#181818;stroke-width:0.5;" x1="847.5" x2="1069.5" y1="795" y2="795"/><line style="stroke:#181818;stroke-width:0.5;" x1="847.5" x2="1069.5" y1="803" y2="803"/></g><!--class ProxyRegistry--><g id="elem_ProxyRegistry"><rect fill="#F1F1F1" height="48" id="ProxyRegistry" rx="2.5" ry="2.5" style="stroke:#181818;stroke-width:0.5;" width="125" x="780" y="979"/><ellipse cx="795" cy="995" fill="#ADD1B2" rx="11" ry="11" style="stroke:#181818;stroke-width:1.0;"/><path d="M797.9688,1000.6406 Q797.3906,1000.9375 796.75,1001.0781 Q796.1094,1001.2344 795.4063,1001.2344 Q792.9063,1001.2344 791.5781,999.5938 Q790.2656,997.9375 790.2656,994.8125 Q790.2656,991.6875 791.5781,990.0313 Q792.9063,988.375 795.4063,988.375 Q796.1094,988.375 796.75,988.5313 Q797.4063,988.6875 797.9688,988.9844 L797.9688,991.7031 Q797.3438,991.125 796.75,990.8594 Q796.1563,990.5781 795.5313,990.5781 Q794.1875,990.5781 793.5,991.6563 Q792.8125,992.7188 792.8125,994.8125 Q792.8125,996.9063 793.5,997.9844 Q794.1875,999.0469 795.5313,999.0469 Q796.1563,999.0469 796.75,998.7813 Q797.3438,998.5 797.9688,997.9219 L797.9688,1000.6406 Z " fill="#000000"/><text fill="#000000" font-family="sans-serif" font-size="14" lengthAdjust="spacing" textLength="93" x="809" y="999.8467">ProxyRegistry</text><line style="stroke:#181818;stroke-width:0.5;" x1="781" x2="904" y1="1011" y2="1011"/><line style="stroke:#181818;stroke-width:0.5;" x1="781" x2="904" y1="1019" y2="1019"/></g><!--class ObjectToObjectMetadataFactory--><g id="elem_ObjectToObjectMetadataFactory"><rect fill="#F1F1F1" height="48" id="ObjectToObjectMetadataFactory" rx="2.5" ry="2.5" style="stroke:#181818;stroke-width:0.5;" width="254" x="1011.5" y="871"/><ellipse cx="1026.5" cy="887" fill="#ADD1B2" rx="11" ry="11" style="stroke:#181818;stroke-width:1.0;"/><path d="M1029.4688,892.6406 Q1028.8906,892.9375 1028.25,893.0781 Q1027.6094,893.2344 1026.9063,893.2344 Q1024.4063,893.2344 1023.0781,891.5938 Q1021.7656,889.9375 1021.7656,886.8125 Q1021.7656,883.6875 1023.0781,882.0313 Q1024.4063,880.375 1026.9063,880.375 Q1027.6094,880.375 1028.25,880.5313 Q1028.9063,880.6875 1029.4688,880.9844 L1029.4688,883.7031 Q1028.8438,883.125 1028.25,882.8594 Q1027.6563,882.5781 1027.0313,882.5781 Q1025.6875,882.5781 1025,883.6563 Q1024.3125,884.7188 1024.3125,886.8125 Q1024.3125,888.9063 1025,889.9844 Q1025.6875,891.0469 1027.0313,891.0469 Q1027.6563,891.0469 1028.25,890.7813 Q1028.8438,890.5 1029.4688,889.9219 L1029.4688,892.6406 Z " fill="#000000"/><text fill="#000000" font-family="sans-serif" font-size="14" lengthAdjust="spacing" textLength="222" x="1040.5" y="891.8467">ObjectToObjectMetadataFactory</text><line style="stroke:#181818;stroke-width:0.5;" x1="1012.5" x2="1264.5" y1="903" y2="903"/><line style="stroke:#181818;stroke-width:0.5;" x1="1012.5" x2="1264.5" y1="911" y2="911"/></g><!--class PropertyMapper--><g id="elem_PropertyMapper"><rect fill="#F1F1F1" height="48" id="PropertyMapper" rx="2.5" ry="2.5" style="stroke:#181818;stroke-width:0.5;" width="142" x="1306.5" y="1303"/><ellipse cx="1321.5" cy="1319" fill="#ADD1B2" rx="11" ry="11" style="stroke:#181818;stroke-width:1.0;"/><path d="M1324.4688,1324.6406 Q1323.8906,1324.9375 1323.25,1325.0781 Q1322.6094,1325.2344 1321.9063,1325.2344 Q1319.4063,1325.2344 1318.0781,1323.5938 Q1316.7656,1321.9375 1316.7656,1318.8125 Q1316.7656,1315.6875 1318.0781,1314.0313 Q1319.4063,1312.375 1321.9063,1312.375 Q1322.6094,1312.375 1323.25,1312.5313 Q1323.9063,1312.6875 1324.4688,1312.9844 L1324.4688,1315.7031 Q1323.8438,1315.125 1323.25,1314.8594 Q1322.6563,1314.5781 1322.0313,1314.5781 Q1320.6875,1314.5781 1320,1315.6563 Q1319.3125,1316.7188 1319.3125,1318.8125 Q1319.3125,1320.9063 1320,1321.9844 Q1320.6875,1323.0469 1322.0313,1323.0469 Q1322.6563,1323.0469 1323.25,1322.7813 Q1323.8438,1322.5 1324.4688,1321.9219 L1324.4688,1324.6406 Z " fill="#000000"/><text fill="#000000" font-family="sans-serif" font-size="14" lengthAdjust="spacing" textLength="110" x="1335.5" y="1323.8467">PropertyMapper</text><line style="stroke:#181818;stroke-width:0.5;" x1="1307.5" x2="1447.5" y1="1335" y2="1335"/><line style="stroke:#181818;stroke-width:0.5;" x1="1307.5" x2="1447.5" y1="1343" y2="1343"/></g><!--class PropertyInfo--><g id="elem_PropertyInfo"><rect fill="#F1F1F1" height="48" id="PropertyInfo" rx="2.5" ry="2.5" style="stroke:#181818;stroke-width:0.5;" width="115" x="1173" y="1087"/><ellipse cx="1188" cy="1103" fill="#ADD1B2" rx="11" ry="11" style="stroke:#181818;stroke-width:1.0;"/><path d="M1190.9688,1108.6406 Q1190.3906,1108.9375 1189.75,1109.0781 Q1189.1094,1109.2344 1188.4063,1109.2344 Q1185.9063,1109.2344 1184.5781,1107.5938 Q1183.2656,1105.9375 1183.2656,1102.8125 Q1183.2656,1099.6875 1184.5781,1098.0313 Q1185.9063,1096.375 1188.4063,1096.375 Q1189.1094,1096.375 1189.75,1096.5313 Q1190.4063,1096.6875 1190.9688,1096.9844 L1190.9688,1099.7031 Q1190.3438,1099.125 1189.75,1098.8594 Q1189.1563,1098.5781 1188.5313,1098.5781 Q1187.1875,1098.5781 1186.5,1099.6563 Q1185.8125,1100.7188 1185.8125,1102.8125 Q1185.8125,1104.9063 1186.5,1105.9844 Q1187.1875,1107.0469 1188.5313,1107.0469 Q1189.1563,1107.0469 1189.75,1106.7813 Q1190.3438,1106.5 1190.9688,1105.9219 L1190.9688,1108.6406 Z " fill="#000000"/><text fill="#000000" font-family="sans-serif" font-size="14" lengthAdjust="spacing" textLength="83" x="1202" y="1107.8467">PropertyInfo</text><line style="stroke:#181818;stroke-width:0.5;" x1="1174" x2="1287" y1="1119" y2="1119"/><line style="stroke:#181818;stroke-width:0.5;" x1="1174" x2="1287" y1="1127" y2="1127"/></g><!--class PropertyMapperResolver--><g id="elem_PropertyMapperResolver"><rect fill="#F1F1F1" height="48" id="PropertyMapperResolver" rx="2.5" ry="2.5" style="stroke:#181818;stroke-width:0.5;" width="202" x="1206.5" y="1195"/><ellipse cx="1221.5" cy="1211" fill="#ADD1B2" rx="11" ry="11" style="stroke:#181818;stroke-width:1.0;"/><path d="M1224.4688,1216.6406 Q1223.8906,1216.9375 1223.25,1217.0781 Q1222.6094,1217.2344 1221.9063,1217.2344 Q1219.4063,1217.2344 1218.0781,1215.5938 Q1216.7656,1213.9375 1216.7656,1210.8125 Q1216.7656,1207.6875 1218.0781,1206.0313 Q1219.4063,1204.375 1221.9063,1204.375 Q1222.6094,1204.375 1223.25,1204.5313 Q1223.9063,1204.6875 1224.4688,1204.9844 L1224.4688,1207.7031 Q1223.8438,1207.125 1223.25,1206.8594 Q1222.6563,1206.5781 1222.0313,1206.5781 Q1220.6875,1206.5781 1220,1207.6563 Q1219.3125,1208.7188 1219.3125,1210.8125 Q1219.3125,1212.9063 1220,1213.9844 Q1220.6875,1215.0469 1222.0313,1215.0469 Q1222.6563,1215.0469 1223.25,1214.7813 Q1223.8438,1214.5 1224.4688,1213.9219 L1224.4688,1216.6406 Z " fill="#000000"/><text fill="#000000" font-family="sans-serif" font-size="14" lengthAdjust="spacing" textLength="170" x="1235.5" y="1215.8467">PropertyMapperResolver</text><line style="stroke:#181818;stroke-width:0.5;" x1="1207.5" x2="1407.5" y1="1227" y2="1227"/><line style="stroke:#181818;stroke-width:0.5;" x1="1207.5" x2="1407.5" y1="1235" y2="1235"/></g><!--class ProxyGenerator--><g id="elem_ProxyGenerator"><rect fill="#F1F1F1" height="48" id="ProxyGenerator" rx="2.5" ry="2.5" style="stroke:#181818;stroke-width:0.5;" width="139" x="927" y="1087"/><ellipse cx="942" cy="1103" fill="#ADD1B2" rx="11" ry="11" style="stroke:#181818;stroke-width:1.0;"/><path d="M944.9688,1108.6406 Q944.3906,1108.9375 943.75,1109.0781 Q943.1094,1109.2344 942.4063,1109.2344 Q939.9063,1109.2344 938.5781,1107.5938 Q937.2656,1105.9375 937.2656,1102.8125 Q937.2656,1099.6875 938.5781,1098.0313 Q939.9063,1096.375 942.4063,1096.375 Q943.1094,1096.375 943.75,1096.5313 Q944.4063,1096.6875 944.9688,1096.9844 L944.9688,1099.7031 Q944.3438,1099.125 943.75,1098.8594 Q943.1563,1098.5781 942.5313,1098.5781 Q941.1875,1098.5781 940.5,1099.6563 Q939.8125,1100.7188 939.8125,1102.8125 Q939.8125,1104.9063 940.5,1105.9844 Q941.1875,1107.0469 942.5313,1107.0469 Q943.1563,1107.0469 943.75,1106.7813 Q944.3438,1106.5 944.9688,1105.9219 L944.9688,1108.6406 Z " fill="#000000"/><text fill="#000000" font-family="sans-serif" font-size="14" lengthAdjust="spacing" textLength="107" x="956" y="1107.8467">ProxyGenerator</text><line style="stroke:#181818;stroke-width:0.5;" x1="928" x2="1065" y1="1119" y2="1119"/><line style="stroke:#181818;stroke-width:0.5;" x1="928" x2="1065" y1="1127" y2="1127"/></g><!--class EagerPropertiesResolver--><g id="elem_EagerPropertiesResolver"><rect fill="#F1F1F1" height="48" id="EagerPropertiesResolver" rx="2.5" ry="2.5" style="stroke:#181818;stroke-width:0.5;" width="203" x="1018" y="1303"/><ellipse cx="1033" cy="1319" fill="#ADD1B2" rx="11" ry="11" style="stroke:#181818;stroke-width:1.0;"/><path d="M1035.9688,1324.6406 Q1035.3906,1324.9375 1034.75,1325.0781 Q1034.1094,1325.2344 1033.4063,1325.2344 Q1030.9063,1325.2344 1029.5781,1323.5938 Q1028.2656,1321.9375 1028.2656,1318.8125 Q1028.2656,1315.6875 1029.5781,1314.0313 Q1030.9063,1312.375 1033.4063,1312.375 Q1034.1094,1312.375 1034.75,1312.5313 Q1035.4063,1312.6875 1035.9688,1312.9844 L1035.9688,1315.7031 Q1035.3438,1315.125 1034.75,1314.8594 Q1034.1563,1314.5781 1033.5313,1314.5781 Q1032.1875,1314.5781 1031.5,1315.6563 Q1030.8125,1316.7188 1030.8125,1318.8125 Q1030.8125,1320.9063 1031.5,1321.9844 Q1032.1875,1323.0469 1033.5313,1323.0469 Q1034.1563,1323.0469 1034.75,1322.7813 Q1035.3438,1322.5 1035.9688,1321.9219 L1035.9688,1324.6406 Z " fill="#000000"/><text fill="#000000" font-family="sans-serif" font-size="14" lengthAdjust="spacing" textLength="171" x="1047" y="1323.8467">EagerPropertiesResolver</text><line style="stroke:#181818;stroke-width:0.5;" x1="1019" x2="1220" y1="1335" y2="1335"/><line style="stroke:#181818;stroke-width:0.5;" x1="1019" x2="1220" y1="1343" y2="1343"/></g><!--class TraversableToArrayAccessTransformer--><g id="elem_TraversableToArrayAccessTransformer"><rect codeLine="49" fill="#F1F1F1" height="48" id="TraversableToArrayAccessTransformer" rx="2.5" ry="2.5" style="stroke:#181818;stroke-width:0.5;" width="298" x="989.5" y="439"/><ellipse cx="1004.5" cy="455" fill="#ADD1B2" rx="11" ry="11" style="stroke:#181818;stroke-width:1.0;"/><path d="M1007.4688,460.6406 Q1006.8906,460.9375 1006.25,461.0781 Q1005.6094,461.2344 1004.9063,461.2344 Q1002.4063,461.2344 1001.0781,459.5938 Q999.7656,457.9375 999.7656,454.8125 Q999.7656,451.6875 1001.0781,450.0313 Q1002.4063,448.375 1004.9063,448.375 Q1005.6094,448.375 1006.25,448.5313 Q1006.9063,448.6875 1007.4688,448.9844 L1007.4688,451.7031 Q1006.8438,451.125 1006.25,450.8594 Q1005.6563,450.5781 1005.0313,450.5781 Q1003.6875,450.5781 1003,451.6563 Q1002.3125,452.7188 1002.3125,454.8125 Q1002.3125,456.9063 1003,457.9844 Q1003.6875,459.0469 1005.0313,459.0469 Q1005.6563,459.0469 1006.25,458.7813 Q1006.8438,458.5 1007.4688,457.9219 L1007.4688,460.6406 Z " fill="#000000"/><text fill="#000000" font-family="sans-serif" font-size="14" lengthAdjust="spacing" textLength="266" x="1018.5" y="459.8467">TraversableToArrayAccessTransformer</text><line style="stroke:#181818;stroke-width:0.5;" x1="990.5" x2="1286.5" y1="471" y2="471"/><line style="stroke:#181818;stroke-width:0.5;" x1="990.5" x2="1286.5" y1="479" y2="479"/></g><!--class ArrayLikeMetadataFactory--><g id="elem_ArrayLikeMetadataFactory"><rect fill="#F1F1F1" height="48" id="ArrayLikeMetadataFactory" rx="2.5" ry="2.5" style="stroke:#181818;stroke-width:0.5;" width="207" x="1050" y="655"/><ellipse cx="1065" cy="671" fill="#ADD1B2" rx="11" ry="11" style="stroke:#181818;stroke-width:1.0;"/><path d="M1067.9688,676.6406 Q1067.3906,676.9375 1066.75,677.0781 Q1066.1094,677.2344 1065.4063,677.2344 Q1062.9063,677.2344 1061.5781,675.5938 Q1060.2656,673.9375 1060.2656,670.8125 Q1060.2656,667.6875 1061.5781,666.0313 Q1062.9063,664.375 1065.4063,664.375 Q1066.1094,664.375 1066.75,664.5313 Q1067.4063,664.6875 1067.9688,664.9844 L1067.9688,667.7031 Q1067.3438,667.125 1066.75,666.8594 Q1066.1563,666.5781 1065.5313,666.5781 Q1064.1875,666.5781 1063.5,667.6563 Q1062.8125,668.7188 1062.8125,670.8125 Q1062.8125,672.9063 1063.5,673.9844 Q1064.1875,675.0469 1065.5313,675.0469 Q1066.1563,675.0469 1066.75,674.7813 Q1067.3438,674.5 1067.9688,673.9219 L1067.9688,676.6406 Z " fill="#000000"/><text fill="#000000" font-family="sans-serif" font-size="14" lengthAdjust="spacing" textLength="175" x="1079" y="675.8467">ArrayLikeMetadataFactory</text><line style="stroke:#181818;stroke-width:0.5;" x1="1051" x2="1256" y1="687" y2="687"/><line style="stroke:#181818;stroke-width:0.5;" x1="1051" x2="1256" y1="695" y2="695"/></g><!--class TraversableToTraversableTransformer--><g id="elem_TraversableToTraversableTransformer"><rect codeLine="53" fill="#F1F1F1" height="48" id="TraversableToTraversableTransformer" rx="2.5" ry="2.5" style="stroke:#181818;stroke-width:0.5;" width="294" x="906.5" y="547"/><ellipse cx="921.5" cy="563" fill="#ADD1B2" rx="11" ry="11" style="stroke:#181818;stroke-width:1.0;"/><path d="M924.4688,568.6406 Q923.8906,568.9375 923.25,569.0781 Q922.6094,569.2344 921.9063,569.2344 Q919.4063,569.2344 918.0781,567.5938 Q916.7656,565.9375 916.7656,562.8125 Q916.7656,559.6875 918.0781,558.0313 Q919.4063,556.375 921.9063,556.375 Q922.6094,556.375 923.25,556.5313 Q923.9063,556.6875 924.4688,556.9844 L924.4688,559.7031 Q923.8438,559.125 923.25,558.8594 Q922.6563,558.5781 922.0313,558.5781 Q920.6875,558.5781 920,559.6563 Q919.3125,560.7188 919.3125,562.8125 Q919.3125,564.9063 920,565.9844 Q920.6875,567.0469 922.0313,567.0469 Q922.6563,567.0469 923.25,566.7813 Q923.8438,566.5 924.4688,565.9219 L924.4688,568.6406 Z " fill="#000000"/><text fill="#000000" font-family="sans-serif" font-size="14" lengthAdjust="spacing" textLength="262" x="935.5" y="567.8467">TraversableToTraversableTransformer</text><line style="stroke:#181818;stroke-width:0.5;" x1="907.5" x2="1199.5" y1="579" y2="579"/><line style="stroke:#181818;stroke-width:0.5;" x1="907.5" x2="1199.5" y1="587" y2="587"/></g><!--class PropertyTypeExtractor--><g id="elem_PropertyTypeExtractor"><rect fill="#F1F1F1" height="48" id="PropertyTypeExtractor" rx="2.5" ry="2.5" style="stroke:#181818;stroke-width:0.5;" width="185" x="484" y="1303"/><ellipse cx="499" cy="1319" fill="#ADD1B2" rx="11" ry="11" style="stroke:#181818;stroke-width:1.0;"/><path d="M501.9688,1324.6406 Q501.3906,1324.9375 500.75,1325.0781 Q500.1094,1325.2344 499.4063,1325.2344 Q496.9063,1325.2344 495.5781,1323.5938 Q494.2656,1321.9375 494.2656,1318.8125 Q494.2656,1315.6875 495.5781,1314.0313 Q496.9063,1312.375 499.4063,1312.375 Q500.1094,1312.375 500.75,1312.5313 Q501.4063,1312.6875 501.9688,1312.9844 L501.9688,1315.7031 Q501.3438,1315.125 500.75,1314.8594 Q500.1563,1314.5781 499.5313,1314.5781 Q498.1875,1314.5781 497.5,1315.6563 Q496.8125,1316.7188 496.8125,1318.8125 Q496.8125,1320.9063 497.5,1321.9844 Q498.1875,1323.0469 499.5313,1323.0469 Q500.1563,1323.0469 500.75,1322.7813 Q501.3438,1322.5 501.9688,1321.9219 L501.9688,1324.6406 Z " fill="#000000"/><text fill="#000000" font-family="sans-serif" font-size="14" lengthAdjust="spacing" textLength="153" x="513" y="1323.8467">PropertyTypeExtractor</text><line style="stroke:#181818;stroke-width:0.5;" x1="485" x2="668" y1="1335" y2="1335"/><line style="stroke:#181818;stroke-width:0.5;" x1="485" x2="668" y1="1343" y2="1343"/></g><!--class PropertyAccessor--><g id="elem_PropertyAccessor"><rect fill="#F1F1F1" height="48" id="PropertyAccessor" rx="2.5" ry="2.5" style="stroke:#181818;stroke-width:0.5;" width="154" x="629.5" y="1195"/><ellipse cx="644.5" cy="1211" fill="#ADD1B2" rx="11" ry="11" style="stroke:#181818;stroke-width:1.0;"/><path d="M647.4688,1216.6406 Q646.8906,1216.9375 646.25,1217.0781 Q645.6094,1217.2344 644.9063,1217.2344 Q642.4063,1217.2344 641.0781,1215.5938 Q639.7656,1213.9375 639.7656,1210.8125 Q639.7656,1207.6875 641.0781,1206.0313 Q642.4063,1204.375 644.9063,1204.375 Q645.6094,1204.375 646.25,1204.5313 Q646.9063,1204.6875 647.4688,1204.9844 L647.4688,1207.7031 Q646.8438,1207.125 646.25,1206.8594 Q645.6563,1206.5781 645.0313,1206.5781 Q643.6875,1206.5781 643,1207.6563 Q642.3125,1208.7188 642.3125,1210.8125 Q642.3125,1212.9063 643,1213.9844 Q643.6875,1215.0469 645.0313,1215.0469 Q645.6563,1215.0469 646.25,1214.7813 Q646.8438,1214.5 647.4688,1213.9219 L647.4688,1216.6406 Z " fill="#000000"/><text fill="#000000" font-family="sans-serif" font-size="14" lengthAdjust="spacing" textLength="122" x="658.5" y="1215.8467">PropertyAccessor</text><line style="stroke:#181818;stroke-width:0.5;" x1="630.5" x2="782.5" y1="1227" y2="1227"/><line style="stroke:#181818;stroke-width:0.5;" x1="630.5" x2="782.5" y1="1235" y2="1235"/></g><!--link Mapper to MainTransformer--><g id="link_Mapper_MainTransformer"><path codeLine="3" d="M678.5,55 C678.5,72.66 678.5,90.94 678.5,108.68 " fill="none" id="Mapper-to-MainTransformer" style="stroke:#181818;stroke-width:1.0;stroke-dasharray:7.0,7.0;"/><polygon fill="#181818" points="678.5,114.68,682.5,105.68,678.5,109.68,674.5,105.68,678.5,114.68" style="stroke:#181818;stroke-width:1.0;"/></g><!--link MainTransformer to ObjectCacheFactory--><g id="link_MainTransformer_ObjectCacheFactory"><path codeLine="6" d="M656.15,163 C638.99,180.66 619.5816,200.6372 602.3416,218.3772 " fill="none" id="MainTransformer-to-ObjectCacheFactory" style="stroke:#181818;stroke-width:1.0;stroke-dasharray:7.0,7.0;"/><polygon fill="#181818" points="598.16,222.68,607.3009,219.0134,601.6446,219.0943,601.5638,213.438,598.16,222.68" style="stroke:#181818;stroke-width:1.0;"/></g><!--link MainTransformer to TransformerRegistry--><g id="link_MainTransformer_TransformerRegistry"><path codeLine="7" d="M701.07,163 C718.39,180.66 738.0186,200.6565 755.4186,218.3965 " fill="none" id="MainTransformer-to-TransformerRegistry" style="stroke:#181818;stroke-width:1.0;stroke-dasharray:7.0,7.0;"/><polygon fill="#181818" points="759.62,222.68,756.1736,213.4538,756.1188,219.1104,750.4622,219.0557,759.62,222.68" style="stroke:#181818;stroke-width:1.0;"/></g><!--link TransformerRegistry to Transformer--><g id="link_TransformerRegistry_Transformer"><path codeLine="10" d="M773.16,271.16 C767.07,287.57 759.67,310.25 756.5,331 C753.27,352.09 753.27,357.91 756.5,379 C759.67,399.75 764.9824,416.8049 771.0724,433.2149 " fill="none" id="TransformerRegistry-to-Transformer" style="stroke:#181818;stroke-width:1.0;stroke-dasharray:7.0,7.0;"/><polygon fill="#181818" points="773.16,438.84,773.7787,429.0106,771.4204,434.1524,766.2786,431.794,773.16,438.84" style="stroke:#181818;stroke-width:1.0;"/></g><!--link TransformerRegistry to MappingFactory--><g id="link_TransformerRegistry_MappingFactory"><path codeLine="12" d="M795.95,271 C806.28,288.66 817.4499,307.7614 827.8299,325.5014 " fill="none" id="TransformerRegistry-to-MappingFactory" style="stroke:#181818;stroke-width:1.0;stroke-dasharray:7.0,7.0;"/><polygon fill="#181818" points="830.86,330.68,829.7672,320.892,828.3349,326.3645,822.8624,324.9321,830.86,330.68" style="stroke:#181818;stroke-width:1.0;"/></g><!--link ArrayToObjectTransformer to Denormalizer--><g id="link_ArrayToObjectTransformer_Denormalizer"><path codeLine="17" d="M113.5,919 C113.5,936.66 113.5,954.94 113.5,972.68 " fill="none" id="ArrayToObjectTransformer-to-Denormalizer" style="stroke:#181818;stroke-width:1.0;stroke-dasharray:7.0,7.0;"/><polygon fill="#181818" points="113.5,978.68,117.5,969.68,113.5,973.68,109.5,969.68,113.5,978.68" style="stroke:#181818;stroke-width:1.0;"/></g><!--reverse link Transformer to ArrayToObjectTransformer--><g id="link_Transformer_ArrayToObjectTransformer"><path codeLine="18" d="M706.6648,466.5505 C583.8048,471.5405 320.15,488.48 247.5,547 C142.89,631.26 119.81,807.67 114.83,870.86 " fill="none" id="Transformer-backto-ArrayToObjectTransformer" style="stroke:#181818;stroke-width:1.0;stroke-dasharray:7.0,7.0;"/><polygon fill="none" points="724.65,465.82,706.4213,460.5554,706.9083,472.5455,724.65,465.82" style="stroke:#181818;stroke-width:1.0;"/></g><!--link ObjectToArrayTransformer to Normalizer--><g id="link_ObjectToArrayTransformer_Normalizer"><path codeLine="21" d="M273.5,1135 C273.5,1152.66 273.5,1170.94 273.5,1188.68 " fill="none" id="ObjectToArrayTransformer-to-Normalizer" style="stroke:#181818;stroke-width:1.0;stroke-dasharray:7.0,7.0;"/><polygon fill="#181818" points="273.5,1194.68,277.5,1185.68,273.5,1189.68,269.5,1185.68,273.5,1194.68" style="stroke:#181818;stroke-width:1.0;"/></g><!--reverse link Transformer to ObjectToArrayTransformer--><g id="link_Transformer_ObjectToArrayTransformer"><path codeLine="22" d="M706.8674,472.675 C636.5474,482.035 533.44,501.3 439.5,547 C354.99,588.11 273.5,584.02 273.5,678 C273.5,678 273.5,678 273.5,896 C273.5,965.48 273.5,1047.64 273.5,1086.88 " fill="none" id="Transformer-backto-ObjectToArrayTransformer" style="stroke:#181818;stroke-width:1.0;stroke-dasharray:7.0,7.0;"/><polygon fill="none" points="724.71,470.3,706.0757,466.7274,707.659,478.6225,724.71,470.3" style="stroke:#181818;stroke-width:1.0;"/></g><!--link ClassMethodTransformer to SubMapperFactory--><g id="link_ClassMethodTransformer_SubMapperFactory"><path codeLine="25" d="M641.5,1027 C641.5,1044.66 641.5,1062.94 641.5,1080.68 " fill="none" id="ClassMethodTransformer-to-SubMapperFactory" style="stroke:#181818;stroke-width:1.0;stroke-dasharray:7.0,7.0;"/><polygon fill="#181818" points="641.5,1086.68,645.5,1077.68,641.5,1081.68,637.5,1077.68,641.5,1086.68" style="stroke:#181818;stroke-width:1.0;"/></g><!--reverse link Transformer to ClassMethodTransformer--><g id="link_Transformer_ClassMethodTransformer"><path codeLine="26" d="M782.5,505.12 C782.5,544.36 782.5,608.52 782.5,678 C782.5,678 782.5,678 782.5,788 C782.5,868.98 711.23,942.98 670.03,978.99 " fill="none" id="Transformer-backto-ClassMethodTransformer" style="stroke:#181818;stroke-width:1.0;stroke-dasharray:7.0,7.0;"/><polygon fill="none" points="782.5,487.12,776.5,505.12,788.5,505.12,782.5,487.12" style="stroke:#181818;stroke-width:1.0;"/></g><!--reverse link Transformer to ObjectMapperTransformer--><g id="link_Transformer_ObjectMapperTransformer"><path d="M718.7781,494.8421 C682.1681,512.5621 647.98,529.11 611.3,546.86 " fill="none" id="Transformer-backto-ObjectMapperTransformer" style="stroke:#181818;stroke-width:1.0;stroke-dasharray:7.0,7.0;"/><polygon fill="none" points="734.98,487,716.1641,489.4414,721.3921,500.2427,734.98,487" style="stroke:#181818;stroke-width:1.0;"/></g><!--link ObjectMapperTransformer to SubMapperFactory--><g id="link_ObjectMapperTransformer_SubMapperFactory"><path codeLine="29" d="M511.04,595.05 C446.25,627.5 344.5,693.24 344.5,786 C344.5,786 344.5,786 344.5,896 C344.5,1002.93 467.0682,1059.934 555.0182,1087.694 " fill="none" id="ObjectMapperTransformer-to-SubMapperFactory" style="stroke:#181818;stroke-width:1.0;stroke-dasharray:7.0,7.0;"/><polygon fill="#181818" points="560.74,1089.5,553.3614,1082.9765,555.9719,1087.995,550.9534,1090.6055,560.74,1089.5" style="stroke:#181818;stroke-width:1.0;"/></g><!--link ObjectMapperTransformer to ObjectMapperTableFactory--><g id="link_ObjectMapperTransformer_ObjectMapperTableFactory"><path codeLine="30" d="M513.9,595.08 C490.41,608.87 464.67,628.85 451.5,655 C414.46,728.55 463.8054,821.583 492.1754,865.713 " fill="none" id="ObjectMapperTransformer-to-ObjectMapperTableFactory" style="stroke:#181818;stroke-width:1.0;stroke-dasharray:7.0,7.0;"/><polygon fill="#181818" points="495.42,870.76,493.9178,861.0264,492.7162,866.5541,487.1884,865.3525,495.42,870.76" style="stroke:#181818;stroke-width:1.0;"/></g><!--link ObjectMapperTransformer to ObjectMapperResolver--><g id="link_ObjectMapperTransformer_ObjectMapperResolver"><path codeLine="31" d="M563.5,595 C563.5,612.66 563.5,630.94 563.5,648.68 " fill="none" id="ObjectMapperTransformer-to-ObjectMapperResolver" style="stroke:#181818;stroke-width:1.0;stroke-dasharray:7.0,7.0;"/><polygon fill="#181818" points="563.5,654.68,567.5,645.68,563.5,649.68,559.5,645.68,563.5,654.68" style="stroke:#181818;stroke-width:1.0;"/></g><!--link ObjectMapperTransformer to ObjectMapper--><g id="link_ObjectMapperTransformer_ObjectMapper"><path codeLine="32" d="M613.1,595.08 C636.59,608.87 662.33,628.85 675.5,655 C693.01,689.77 680.6805,730.2343 668.6205,757.4543 " fill="none" id="ObjectMapperTransformer-to-ObjectMapper" style="stroke:#181818;stroke-width:1.0;stroke-dasharray:7.0,7.0;"/><polygon fill="#181818" points="666.19,762.94,673.4928,756.3318,668.2154,758.3686,666.1786,753.0911,666.19,762.94" style="stroke:#181818;stroke-width:1.0;"/></g><!--link ObjectMapperResolver to ObjectMapper--><g id="link_ObjectMapperResolver_ObjectMapper"><path codeLine="34" d="M583.25,703 C598.4,720.66 615.3417,740.3875 630.5717,758.1275 " fill="none" id="ObjectMapperResolver-to-ObjectMapper" style="stroke:#181818;stroke-width:1.0;stroke-dasharray:7.0,7.0;"/><polygon fill="#181818" points="634.48,762.68,631.6525,753.2458,631.2231,758.8863,625.5825,758.4569,634.48,762.68" style="stroke:#181818;stroke-width:1.0;"/></g><!--link ObjectToObjectTransformer to ProxyRegistry--><g id="link_ObjectToObjectTransformer_ProxyRegistry"><path codeLine="37" d="M945.87,811.31 C923.55,852.47 880.2793,932.3051 857.9793,973.4451 " fill="none" id="ObjectToObjectTransformer-to-ProxyRegistry" style="stroke:#181818;stroke-width:1.0;stroke-dasharray:7.0,7.0;"/><polygon fill="#181818" points="855.12,978.72,862.9255,972.7138,857.5027,974.3242,855.8923,968.9015,855.12,978.72" style="stroke:#181818;stroke-width:1.0;"/></g><!--link ObjectToObjectTransformer to ObjectToObjectMetadataFactory--><g id="link_ObjectToObjectTransformer_ObjectToObjectMetadataFactory"><path codeLine="38" d="M997.56,811 C1027.65,828.72 1063.8895,850.066 1094.0395,867.816 " fill="none" id="ObjectToObjectTransformer-to-ObjectToObjectMetadataFactory" style="stroke:#181818;stroke-width:1.0;stroke-dasharray:7.0,7.0;"/><polygon fill="#181818" points="1099.21,870.86,1093.4836,862.847,1094.9012,868.3233,1089.4249,869.741,1099.21,870.86" style="stroke:#181818;stroke-width:1.0;"/></g><!--link ObjectToObjectTransformer to PropertyMapper--><g id="link_ObjectToObjectTransformer_PropertyMapper"><path codeLine="39" d="M1070.85,805.65 C1135.2,818.43 1216.26,839.16 1283.5,871 C1372.28,913.04 1461.5,903.77 1461.5,1002 C1461.5,1002 1461.5,1002 1461.5,1112 C1461.5,1185.84 1420.8604,1259.6539 1396.5304,1297.7339 " fill="none" id="ObjectToObjectTransformer-to-PropertyMapper" style="stroke:#181818;stroke-width:1.0;stroke-dasharray:7.0,7.0;"/><polygon fill="#181818" points="1393.3,1302.79,1401.5164,1297.3595,1395.992,1298.5766,1394.7749,1293.0522,1393.3,1302.79" style="stroke:#181818;stroke-width:1.0;"/></g><!--link ObjectToObjectTransformer to SubMapperFactory--><g id="link_ObjectToObjectTransformer_SubMapperFactory"><path codeLine="40" d="M962.4,811.01 C968.92,857.83 976.52,964.98 922.5,1027 C872.89,1083.96 792.2559,1102.233 728.2659,1107.983 " fill="none" id="ObjectToObjectTransformer-to-SubMapperFactory" style="stroke:#181818;stroke-width:1.0;stroke-dasharray:7.0,7.0;"/><polygon fill="#181818" points="722.29,1108.52,731.6119,1111.6985,727.2699,1108.0725,730.8959,1103.7306,722.29,1108.52" style="stroke:#181818;stroke-width:1.0;"/></g><!--reverse link Transformer to ObjectToObjectTransformer--><g id="link_Transformer_ObjectToObjectTransformer"><path codeLine="41" d="M803.793,502.9547 C836.183,562.2147 913.19,703.11 945.72,762.62 " fill="none" id="Transformer-backto-ObjectToObjectTransformer" style="stroke:#181818;stroke-width:1.0;stroke-dasharray:7.0,7.0;"/><polygon fill="none" points="795.16,487.16,798.5281,505.8323,809.0579,500.077,795.16,487.16" style="stroke:#181818;stroke-width:1.0;"/></g><!--link ObjectToObjectMetadataFactory to PropertyInfo--><g id="link_ObjectToObjectMetadataFactory_PropertyInfo"><path codeLine="43" d="M1148.52,919.31 C1166.22,960.47 1200.4299,1040.068 1218.1199,1081.208 " fill="none" id="ObjectToObjectMetadataFactory-to-PropertyInfo" style="stroke:#181818;stroke-width:1.0;stroke-dasharray:7.0,7.0;"/><polygon fill="#181818" points="1220.49,1086.72,1220.6095,1076.8719,1218.5149,1082.1266,1213.2601,1080.0321,1220.49,1086.72" style="stroke:#181818;stroke-width:1.0;"/></g><!--link ObjectToObjectMetadataFactory to PropertyMapperResolver--><g id="link_ObjectToObjectMetadataFactory_PropertyMapperResolver"><path codeLine="44" d="M1169.09,919.1 C1209.19,951.49 1277.69,1014.64 1305.5,1087 C1319.21,1122.67 1316.6557,1162.0042 1312.6857,1188.9142 " fill="none" id="ObjectToObjectMetadataFactory-to-PropertyMapperResolver" style="stroke:#181818;stroke-width:1.0;stroke-dasharray:7.0,7.0;"/><polygon fill="#181818" points="1311.81,1194.85,1317.0807,1186.5302,1312.5397,1189.9035,1309.1664,1185.3626,1311.81,1194.85" style="stroke:#181818;stroke-width:1.0;"/></g><!--link ObjectToObjectMetadataFactory to ProxyGenerator--><g id="link_ObjectToObjectMetadataFactory_ProxyGenerator"><path codeLine="45" d="M1123.03,919.31 C1095.72,960.47 1042.5675,1040.5806 1015.2675,1081.7206 " fill="none" id="ObjectToObjectMetadataFactory-to-ProxyGenerator" style="stroke:#181818;stroke-width:1.0;stroke-dasharray:7.0,7.0;"/><polygon fill="#181818" points="1011.95,1086.72,1020.2592,1081.4326,1014.7146,1082.5538,1013.5934,1077.0092,1011.95,1086.72" style="stroke:#181818;stroke-width:1.0;"/></g><!--link ObjectToObjectMetadataFactory to EagerPropertiesResolver--><g id="link_ObjectToObjectMetadataFactory_EagerPropertiesResolver"><path codeLine="46" d="M1137.48,919.12 C1134.18,993.78 1124.0943,1221.9458 1120.7943,1296.7758 " fill="none" id="ObjectToObjectMetadataFactory-to-EagerPropertiesResolver" style="stroke:#181818;stroke-width:1.0;stroke-dasharray:7.0,7.0;"/><polygon fill="#181818" points="1120.53,1302.77,1124.9226,1293.955,1120.7503,1297.7749,1116.9304,1293.6025,1120.53,1302.77" style="stroke:#181818;stroke-width:1.0;"/></g><!--link TraversableToArrayAccessTransformer to ArrayLikeMetadataFactory--><g id="link_TraversableToArrayAccessTransformer_ArrayLikeMetadataFactory"><path codeLine="50" d="M1170.9,487.34 C1188.6,502.17 1208.84,523.06 1218.5,547 C1226.48,566.78 1225.46,574.83 1218.5,595 C1210.56,618.01 1197.4843,635.1908 1182.7543,650.5408 " fill="none" id="TraversableToArrayAccessTransformer-to-ArrayLikeMetadataFactory" style="stroke:#181818;stroke-width:1.0;stroke-dasharray:7.0,7.0;"/><polygon fill="#181818" points="1178.6,654.87,1187.7176,651.1458,1182.0619,651.2624,1181.9454,645.6067,1178.6,654.87" style="stroke:#181818;stroke-width:1.0;"/></g><!--reverse link Transformer to TraversableToArrayAccessTransformer--><g id="link_Transformer_TraversableToArrayAccessTransformer"><path codeLine="51" d="M858.21,463 C907.93,463 939.64,463 989.36,463 " fill="none" id="Transformer-backto-TraversableToArrayAccessTransformer" style="stroke:#181818;stroke-width:1.0;stroke-dasharray:7.0,7.0;"/><polygon fill="none" points="840.21,463,858.21,469,858.21,457,840.21,463" style="stroke:#181818;stroke-width:1.0;"/></g><!--link TraversableToTraversableTransformer to ArrayLikeMetadataFactory--><g id="link_TraversableToTraversableTransformer_ArrayLikeMetadataFactory"><path codeLine="54" d="M1075.2,595 C1091.86,612.66 1110.6421,632.5761 1127.3821,650.3161 " fill="none" id="TraversableToTraversableTransformer-to-ArrayLikeMetadataFactory" style="stroke:#181818;stroke-width:1.0;stroke-dasharray:7.0,7.0;"/><polygon fill="#181818" points="1131.5,654.68,1128.2324,645.389,1128.0684,651.0435,1122.414,650.8795,1131.5,654.68" style="stroke:#181818;stroke-width:1.0;"/></g><!--reverse link Transformer to TraversableToTraversableTransformer--><g id="link_Transformer_TraversableToTraversableTransformer"><path codeLine="55" d="M857.0638,493.1656 C902.4538,510.9156 948.66,528.99 994.38,546.88 " fill="none" id="Transformer-backto-TraversableToTraversableTransformer" style="stroke:#181818;stroke-width:1.0;stroke-dasharray:7.0,7.0;"/><polygon fill="none" points="840.3,486.61,854.8786,498.7535,859.249,487.5776,840.3,486.61" style="stroke:#181818;stroke-width:1.0;"/></g><!--link PropertyMapperResolver to PropertyMapper--><g id="link_PropertyMapperResolver_PropertyMapper"><path codeLine="57" d="M1322.69,1243 C1334.35,1260.66 1347.0846,1279.9326 1358.7946,1297.6726 " fill="none" id="PropertyMapperResolver-to-PropertyMapper" style="stroke:#181818;stroke-width:1.0;stroke-dasharray:7.0,7.0;"/><polygon fill="#181818" points="1362.1,1302.68,1360.4802,1292.9652,1359.3455,1298.5071,1353.8036,1297.3724,1362.1,1302.68" style="stroke:#181818;stroke-width:1.0;"/></g><!--link MappingFactory to Transformer--><g id="link_MappingFactory_Transformer"><path codeLine="62" d="M831.05,379 C820.72,396.66 809.5501,415.7614 799.1701,433.5014 " fill="none" id="MappingFactory-to-Transformer" style="stroke:#181818;stroke-width:1.0;stroke-dasharray:7.0,7.0;"/><polygon fill="#181818" points="796.14,438.68,804.1376,432.9321,798.6651,434.3645,797.2328,428.892,796.14,438.68" style="stroke:#181818;stroke-width:1.0;"/></g><!--link ObjectMapperResolver to ObjectMapperTableFactory--><g id="link_ObjectMapperResolver_ObjectMapperTableFactory"><path codeLine="64" d="M557.84,703.31 C547.83,744.47 528.5658,823.7494 518.5758,864.8894 " fill="none" id="ObjectMapperResolver-to-ObjectMapperTableFactory" style="stroke:#181818;stroke-width:1.0;stroke-dasharray:7.0,7.0;"/><polygon fill="#181818" points="517.16,870.72,523.1708,862.918,518.3399,865.8612,515.3967,861.0303,517.16,870.72" style="stroke:#181818;stroke-width:1.0;"/></g><!--link SubMapperFactory to PropertyTypeExtractor--><g id="link_SubMapperFactory_PropertyTypeExtractor"><path codeLine="66" d="M632.56,1135.07 C626.29,1151.63 617.92,1174.53 611.5,1195 C599.8,1232.29 589.9892,1270.4727 583.5292,1296.8127 " fill="none" id="SubMapperFactory-to-PropertyTypeExtractor" style="stroke:#181818;stroke-width:1.0;stroke-dasharray:7.0,7.0;"/><polygon fill="#181818" points="582.1,1302.64,588.1286,1294.8518,583.291,1297.7839,580.3589,1292.9463,582.1,1302.64" style="stroke:#181818;stroke-width:1.0;"/></g><!--link SubMapperFactory to PropertyAccessor--><g id="link_SubMapperFactory_PropertyAccessor"><path codeLine="67" d="M655.6,1135 C666.43,1152.66 678.1831,1171.8253 689.0631,1189.5653 " fill="none" id="SubMapperFactory-to-PropertyAccessor" style="stroke:#181818;stroke-width:1.0;stroke-dasharray:7.0,7.0;"/><polygon fill="#181818" points="692.2,1194.68,690.9045,1184.9167,689.586,1190.4178,684.0849,1189.0992,692.2,1194.68" style="stroke:#181818;stroke-width:1.0;"/></g><!--SRC=[bLRBRi8m4BpxAtpZnXTKbH2bLQNILfGVMCn2NO8TsQOYLJ- -cmV1SUoGSW3PCxkptXqds8DKEHWuPbeSSCit80vxeqzgEzUPDjmPK9O8g1nZ8WDh-HBo70shV_XqUayxKgrBuawR8q4jiRiThAlGjyqN2ZS7yOcF89msHPJchLUubzOHRyAZp2B75LgTVPU5HEB2V9GdoV9pfKXb7wJQNwfdKZaqEn388osP6GF5MjUdzl4KK4ayeA85PFAdMmU_-vsMdtJQHhO1TCtpy1HGoRuEYf9iCcqZEo-_b-W-zTP7uzkLvCTfK_lgqiwOS2flvx1r6ZzS7lCCZsHao_ijwDEZvQJ9LpCtA6ooYwKv7rJniTPkOmCOYuL7Q5qdzAsIH7XrjdUZpqLxzuR8zu483GgsuA3RmrGiwL2vhcZA7YQFiCl0YTbWdUsngtAUrKxVvlVg3yPvI-fSFA520xGvGenY5h17qqXAjAtSXDyA3v-KjJseFRIofNURQpqJ0gtrspQ2K-Mle1TvmD00mP16YSRgynUf-kASVzKt7QNAueEFURgTZl_QYuna4hnR-fGOtZVuZKU3_wHYBBnItMjGgY_EzAUWn6BSAxMU8R7O7m00]--></g></svg>