<svg xmlns="http://www.w3.org/2000/svg" xmlns:xlink="http://www.w3.org/1999/xlink" contentStyleType="text/css" height="317px" preserveAspectRatio="none" style="width:728px;height:317px;" version="1.1" viewBox="0 0 728 317" width="728px" zoomAndPan="magnify"><defs/><g><!--class PageableInterface--><g id="elem_PageableInterface"><rect codeLine="2" fill="#F1F1F1" height="178.375" id="PageableInterface" rx="2.5" ry="2.5" style="stroke:#181818;stroke-width:0.5;" width="161.3926" x="187" y="15.5"/><ellipse cx="203.0006" cy="31.5" fill="#B4A7E5" rx="11" ry="11" style="stroke:#181818;stroke-width:1.0;"/><path d="M198.9225,27.2656 L198.9225,25.1094 L206.3131,25.1094 L206.3131,27.2656 L203.8444,27.2656 L203.8444,35.3438 L206.3131,35.3438 L206.3131,37.5 L198.9225,37.5 L198.9225,35.3438 L201.3913,35.3438 L201.3913,27.2656 L198.9225,27.2656 Z " fill="#000000"/><text fill="#000000" font-family="sans-serif" font-size="14" font-style="italic" lengthAdjust="spacing" textLength="127.1689" x="217.223" y="36.3467">PageableInterface</text><line style="stroke:#181818;stroke-width:0.5;" x1="188" x2="347.3926" y1="47.5" y2="47.5"/><line style="stroke:#181818;stroke-width:0.5;" x1="188" x2="347.3926" y1="55.5" y2="55.5"/><text fill="#000000" font-family="sans-serif" font-size="14" lengthAdjust="spacing" textLength="149.3926" x="193" y="72.4951">getPageByIdentifier()</text><text fill="#000000" font-family="sans-serif" font-size="14" lengthAdjust="spacing" textLength="75.7285" x="193" y="88.792">getPages()</text><text fill="#000000" font-family="sans-serif" font-size="14" lengthAdjust="spacing" textLength="98.916" x="193" y="105.0889">getFirstPage()</text><text fill="#000000" font-family="sans-serif" font-size="14" lengthAdjust="spacing" textLength="97.5967" x="193" y="121.3857">getLastPage()</text><text fill="#000000" font-family="sans-serif" font-size="14" lengthAdjust="spacing" textLength="130.4092" x="193" y="137.6826">getItemsPerPage()</text><text fill="#000000" font-family="sans-serif" font-size="14" lengthAdjust="spacing" textLength="137.1221" x="193" y="153.9795">withItemsPerPage()</text><text fill="#000000" font-family="sans-serif" font-size="14" lengthAdjust="spacing" textLength="110.8037" x="193" y="170.2764">getTotalPages()</text><text fill="#000000" font-family="sans-serif" font-size="14" lengthAdjust="spacing" textLength="108.1514" x="193" y="186.5732">getTotalItems()</text></g><!--class PageInterface--><g id="elem_PageInterface"><rect codeLine="13" fill="#F1F1F1" height="194.6719" id="PageInterface" rx="2.5" ry="2.5" style="stroke:#181818;stroke-width:0.5;" width="147.4473" x="383" y="7"/><ellipse cx="406.2112" cy="23" fill="#B4A7E5" rx="11" ry="11" style="stroke:#181818;stroke-width:1.0;"/><path d="M402.1331,18.7656 L402.1331,16.6094 L409.5237,16.6094 L409.5237,18.7656 L407.0549,18.7656 L407.0549,26.8438 L409.5237,26.8438 L409.5237,29 L402.1331,29 L402.1331,26.8438 L404.6018,26.8438 L404.6018,18.7656 L402.1331,18.7656 Z " fill="#000000"/><text fill="#000000" font-family="sans-serif" font-size="14" font-style="italic" lengthAdjust="spacing" textLength="97.2002" x="422.0359" y="27.8467">PageInterface</text><line style="stroke:#181818;stroke-width:0.5;" x1="384" x2="529.4473" y1="39" y2="39"/><line style="stroke:#181818;stroke-width:0.5;" x1="384" x2="529.4473" y1="47" y2="47"/><text fill="#000000" font-family="sans-serif" font-size="14" lengthAdjust="spacing" textLength="131.5029" x="389" y="63.9951">getPageIdentifier()</text><text fill="#000000" font-family="sans-serif" font-size="14" lengthAdjust="spacing" textLength="124.6738" x="389" y="80.292">getPageNumber()</text><text fill="#000000" font-family="sans-serif" font-size="14" lengthAdjust="spacing" textLength="131.3867" x="389" y="96.5889">withPageNumber()</text><text fill="#000000" font-family="sans-serif" font-size="14" lengthAdjust="spacing" textLength="98.4033" x="389" y="112.8857">getPageable()</text><text fill="#000000" font-family="sans-serif" font-size="14" lengthAdjust="spacing" textLength="130.4092" x="389" y="129.1826">getItemsPerPage()</text><text fill="#000000" font-family="sans-serif" font-size="14" lengthAdjust="spacing" textLength="101.2949" x="389" y="145.4795">getNextPage()</text><text fill="#000000" font-family="sans-serif" font-size="14" lengthAdjust="spacing" textLength="128.1533" x="389" y="161.7764">getPreviousPage()</text><text fill="#000000" font-family="sans-serif" font-size="14" lengthAdjust="spacing" textLength="108.5889" x="389" y="178.0732">getNextPages()</text><text fill="#000000" font-family="sans-serif" font-size="14" lengthAdjust="spacing" textLength="135.4473" x="389" y="194.3701">getPreviousPages()</text></g><!--class NullPageInterface--><g id="elem_NullPageInterface"><rect codeLine="25" fill="#F1F1F1" height="48" id="NullPageInterface" rx="2.5" ry="2.5" style="stroke:#181818;stroke-width:0.5;" width="156.3252" x="565.5" y="80.5"/><ellipse cx="580.5" cy="96.5" fill="#B4A7E5" rx="11" ry="11" style="stroke:#181818;stroke-width:1.0;"/><path d="M576.4219,92.2656 L576.4219,90.1094 L583.8125,90.1094 L583.8125,92.2656 L581.3438,92.2656 L581.3438,100.3438 L583.8125,100.3438 L583.8125,102.5 L576.4219,102.5 L576.4219,100.3438 L578.8906,100.3438 L578.8906,92.2656 L576.4219,92.2656 Z " fill="#000000"/><text fill="#000000" font-family="sans-serif" font-size="14" font-style="italic" lengthAdjust="spacing" textLength="124.3252" x="594.5" y="101.3467">NullPageInterface</text><line style="stroke:#181818;stroke-width:0.5;" x1="566.5" x2="720.8252" y1="112.5" y2="112.5"/><line style="stroke:#181818;stroke-width:0.5;" x1="566.5" x2="720.8252" y1="120.5" y2="120.5"/></g><!--class KeysetPageable--><g id="elem_KeysetPageable"><rect codeLine="30" fill="#F1F1F1" height="48" id="KeysetPageable" rx="2.5" ry="2.5" style="stroke:#181818;stroke-width:0.5;" width="143.9658" x="389.5" y="262"/><ellipse cx="404.5" cy="278" fill="#ADD1B2" rx="11" ry="11" style="stroke:#181818;stroke-width:1.0;"/><path d="M407.4688,283.6406 Q406.8906,283.9375 406.25,284.0781 Q405.6094,284.2344 404.9063,284.2344 Q402.4063,284.2344 401.0781,282.5938 Q399.7656,280.9375 399.7656,277.8125 Q399.7656,274.6875 401.0781,273.0313 Q402.4063,271.375 404.9063,271.375 Q405.6094,271.375 406.25,271.5313 Q406.9063,271.6875 407.4688,271.9844 L407.4688,274.7031 Q406.8438,274.125 406.25,273.8594 Q405.6563,273.5781 405.0313,273.5781 Q403.6875,273.5781 403,274.6563 Q402.3125,275.7188 402.3125,277.8125 Q402.3125,279.9063 403,280.9844 Q403.6875,282.0469 405.0313,282.0469 Q405.6563,282.0469 406.25,281.7813 Q406.8438,281.5 407.4688,280.9219 L407.4688,283.6406 Z " fill="#000000"/><text fill="#000000" font-family="sans-serif" font-size="14" lengthAdjust="spacing" textLength="111.9658" x="418.5" y="282.8467">KeysetPageable</text><line style="stroke:#181818;stroke-width:0.5;" x1="390.5" x2="532.4658" y1="294" y2="294"/><line style="stroke:#181818;stroke-width:0.5;" x1="390.5" x2="532.4658" y1="302" y2="302"/></g><!--class OffsetPageable--><g id="elem_OffsetPageable"><rect codeLine="33" fill="#F1F1F1" height="48" id="OffsetPageable" rx="2.5" ry="2.5" style="stroke:#181818;stroke-width:0.5;" width="138.7637" x="7" y="262"/><ellipse cx="22" cy="278" fill="#ADD1B2" rx="11" ry="11" style="stroke:#181818;stroke-width:1.0;"/><path d="M24.9688,283.6406 Q24.3906,283.9375 23.75,284.0781 Q23.1094,284.2344 22.4063,284.2344 Q19.9063,284.2344 18.5781,282.5938 Q17.2656,280.9375 17.2656,277.8125 Q17.2656,274.6875 18.5781,273.0313 Q19.9063,271.375 22.4063,271.375 Q23.1094,271.375 23.75,271.5313 Q24.4063,271.6875 24.9688,271.9844 L24.9688,274.7031 Q24.3438,274.125 23.75,273.8594 Q23.1563,273.5781 22.5313,273.5781 Q21.1875,273.5781 20.5,274.6563 Q19.8125,275.7188 19.8125,277.8125 Q19.8125,279.9063 20.5,280.9844 Q21.1875,282.0469 22.5313,282.0469 Q23.1563,282.0469 23.75,281.7813 Q24.3438,281.5 24.9688,280.9219 L24.9688,283.6406 Z " fill="#000000"/><text fill="#000000" font-family="sans-serif" font-size="14" lengthAdjust="spacing" textLength="106.7637" x="36" y="282.8467">OffsetPageable</text><line style="stroke:#181818;stroke-width:0.5;" x1="8" x2="144.7637" y1="294" y2="294"/><line style="stroke:#181818;stroke-width:0.5;" x1="8" x2="144.7637" y1="302" y2="302"/></g><!--class PagerfantaPageable--><g id="elem_PagerfantaPageable"><rect codeLine="36" fill="#F1F1F1" height="48" id="PagerfantaPageable" rx="2.5" ry="2.5" style="stroke:#181818;stroke-width:0.5;" width="173.2168" x="181" y="262"/><ellipse cx="196" cy="278" fill="#ADD1B2" rx="11" ry="11" style="stroke:#181818;stroke-width:1.0;"/><path d="M198.9688,283.6406 Q198.3906,283.9375 197.75,284.0781 Q197.1094,284.2344 196.4063,284.2344 Q193.9063,284.2344 192.5781,282.5938 Q191.2656,280.9375 191.2656,277.8125 Q191.2656,274.6875 192.5781,273.0313 Q193.9063,271.375 196.4063,271.375 Q197.1094,271.375 197.75,271.5313 Q198.4063,271.6875 198.9688,271.9844 L198.9688,274.7031 Q198.3438,274.125 197.75,273.8594 Q197.1563,273.5781 196.5313,273.5781 Q195.1875,273.5781 194.5,274.6563 Q193.8125,275.7188 193.8125,277.8125 Q193.8125,279.9063 194.5,280.9844 Q195.1875,282.0469 196.5313,282.0469 Q197.1563,282.0469 197.75,281.7813 Q198.3438,281.5 198.9688,280.9219 L198.9688,283.6406 Z " fill="#000000"/><text fill="#000000" font-family="sans-serif" font-size="14" lengthAdjust="spacing" textLength="141.2168" x="210" y="282.8467">PagerfantaPageable</text><line style="stroke:#181818;stroke-width:0.5;" x1="182" x2="353.2168" y1="294" y2="294"/><line style="stroke:#181818;stroke-width:0.5;" x1="182" x2="353.2168" y1="302" y2="302"/></g><!--reverse link PageableInterface to PageInterface--><g id="link_PageableInterface_PageInterface"><path codeLine="27" d="M360.34,104.5 C371.89,104.5 371.44,104.5 382.99,104.5 " fill="none" id="PageableInterface-backto-PageInterface" style="stroke:#181818;stroke-width:1.0;"/><polygon fill="#181818" points="348.34,104.5,354.34,108.5,360.34,104.5,354.34,100.5,348.34,104.5" style="stroke:#181818;stroke-width:1.0;"/></g><!--reverse link PageInterface to NullPageInterface--><g id="link_PageInterface_NullPageInterface"><path codeLine="28" d="M548.28,104.5 C559.92,104.5 553.57,104.5 565.22,104.5 " fill="none" id="PageInterface-backto-NullPageInterface" style="stroke:#181818;stroke-width:1.0;stroke-dasharray:7.0,7.0;"/><polygon fill="none" points="530.28,104.5,548.28,110.5,548.28,98.5,530.28,104.5" style="stroke:#181818;stroke-width:1.0;"/></g><!--reverse link PageableInterface to KeysetPageable--><g id="link_PageableInterface_KeysetPageable"><path codeLine="31" d="M361.1455,198.1133 C366.9855,203.6833 359.8,196.74 365.5,202 C388.01,222.77 414.37,245.45 433.78,261.85 " fill="none" id="PageableInterface-backto-KeysetPageable" style="stroke:#181818;stroke-width:1.0;"/><polygon fill="none" points="348.12,185.69,357.0044,202.4551,365.2865,193.7714,348.12,185.69" style="stroke:#181818;stroke-width:1.0;"/></g><!--reverse link PageableInterface to OffsetPageable--><g id="link_PageableInterface_OffsetPageable"><path codeLine="34" d="M173.6621,193.6856 C142.7021,222.7756 122.75,241.53 100.99,261.99 " fill="none" id="PageableInterface-backto-OffsetPageable" style="stroke:#181818;stroke-width:1.0;"/><polygon fill="none" points="186.78,181.36,169.5536,189.313,177.7706,198.0582,186.78,181.36" style="stroke:#181818;stroke-width:1.0;"/></g><!--reverse link PageableInterface to PagerfantaPageable--><g id="link_PageableInterface_PagerfantaPageable"><path codeLine="37" d="M267.5,211.67 C267.5,236.85 267.5,244.2 267.5,261.78 " fill="none" id="PageableInterface-backto-PagerfantaPageable" style="stroke:#181818;stroke-width:1.0;"/><polygon fill="none" points="267.5,193.67,261.5,211.67,273.5,211.67,267.5,193.67" style="stroke:#181818;stroke-width:1.0;"/></g><!--link OffsetPageable to PagerfantaPageable--><g id="link_OffsetPageable_PagerfantaPageable"><path codeLine="38" d="M146.26,286 C157.78,286 157.31,286 168.83,286 " fill="none" id="OffsetPageable-to-PagerfantaPageable" style="stroke:#181818;stroke-width:1.0;"/><polygon fill="#181818" points="180.83,286,174.83,282,168.83,286,174.83,290,180.83,286" style="stroke:#181818;stroke-width:1.0;"/></g><!--SRC=[ZP51ReCm44NtFeMNJIHwWgnIAH9gHLdq0WCCrCBOqOnf6pMzUmn28HYdhNT-VZEURtEhp148EctB5YjPGDasP7jJFLbjIJe2mrv0uuHGnY7LKABCeK4eDAPNyYsaNmswuMX_IYjVeMg5zB2vFU5vUr348vlH2uGaTTXnZdH3FvLxZs0llra7EhXbPAFksK-OuSxyzwRF-gwuic6E5Pp4uMr-3U5fXbz1s9pmGzcUunx7nLMkhDTwaKs8zNTjasL-iNoDtVanrgVKm2oVySHpp4ZptJb9GckgVQthVzG6rbGxxBra7FnL7p6NBMMoZKaN]--></g></svg>