<?xml version="1.0" encoding="us-ascii" standalone="no"?><svg xmlns="http://www.w3.org/2000/svg" xmlns:xlink="http://www.w3.org/1999/xlink" contentStyleType="text/css" height="300px" preserveAspectRatio="none" style="width:720px;height:300px;" version="1.1" viewBox="0 0 720 300" width="720px" zoomAndPan="magnify"><defs/><g><!--class PageableInterface--><g id="elem_PageableInterface"><rect codeLine="2" fill="#F1F1F1" height="162.0781" id="PageableInterface" rx="2.5" ry="2.5" style="stroke:#181818;stroke-width:0.5;" width="156" x="186.5" y="15"/><ellipse cx="201.5" cy="31" fill="#B4A7E5" rx="11" ry="11" style="stroke:#181818;stroke-width:1.0;"/><path d="M197.4219,26.7656 L197.4219,24.6094 L204.8125,24.6094 L204.8125,26.7656 L202.3438,26.7656 L202.3438,34.8438 L204.8125,34.8438 L204.8125,37 L197.4219,37 L197.4219,34.8438 L199.8906,34.8438 L199.8906,26.7656 L197.4219,26.7656 Z " fill="#000000"/><text fill="#000000" font-family="sans-serif" font-size="14" font-style="italic" lengthAdjust="spacing" textLength="124" x="215.5" y="35.8467">PageableInterface</text><line style="stroke:#181818;stroke-width:0.5;" x1="187.5" x2="341.5" y1="47" y2="47"/><line style="stroke:#181818;stroke-width:0.5;" x1="187.5" x2="341.5" y1="55" y2="55"/><text fill="#000000" font-family="sans-serif" font-size="14" lengthAdjust="spacing" textLength="144" x="192.5" y="71.9951">getPageByIdentifier()</text><text fill="#000000" font-family="sans-serif" font-size="14" lengthAdjust="spacing" textLength="97" x="192.5" y="88.292">getFirstPage()</text><text fill="#000000" font-family="sans-serif" font-size="14" lengthAdjust="spacing" textLength="96" x="192.5" y="104.5889">getLastPage()</text><text fill="#000000" font-family="sans-serif" font-size="14" lengthAdjust="spacing" textLength="129" x="192.5" y="120.8857">getItemsPerPage()</text><text fill="#000000" font-family="sans-serif" font-size="14" lengthAdjust="spacing" textLength="134" x="192.5" y="137.1826">withItemsPerPage()</text><text fill="#000000" font-family="sans-serif" font-size="14" lengthAdjust="spacing" textLength="110" x="192.5" y="153.4795">getTotalPages()</text><text fill="#000000" font-family="sans-serif" font-size="14" lengthAdjust="spacing" textLength="105" x="192.5" y="169.7764">getTotalItems()</text></g><!--class PageInterface--><g id="elem_PageInterface"><rect codeLine="12" fill="#F1F1F1" height="178.375" id="PageInterface" rx="2.5" ry="2.5" style="stroke:#181818;stroke-width:0.5;" width="147" x="378" y="7"/><ellipse cx="402" cy="23" fill="#B4A7E5" rx="11" ry="11" style="stroke:#181818;stroke-width:1.0;"/><path d="M397.9219,18.7656 L397.9219,16.6094 L405.3125,16.6094 L405.3125,18.7656 L402.8438,18.7656 L402.8438,26.8438 L405.3125,26.8438 L405.3125,29 L397.9219,29 L397.9219,26.8438 L400.3906,26.8438 L400.3906,18.7656 L397.9219,18.7656 Z " fill="#000000"/><text fill="#000000" font-family="sans-serif" font-size="14" font-style="italic" lengthAdjust="spacing" textLength="95" x="418" y="27.8467">PageInterface</text><line style="stroke:#181818;stroke-width:0.5;" x1="379" x2="524" y1="39" y2="39"/><line style="stroke:#181818;stroke-width:0.5;" x1="379" x2="524" y1="47" y2="47"/><text fill="#000000" font-family="sans-serif" font-size="14" lengthAdjust="spacing" textLength="127" x="384" y="63.9951">getPageIdentifier()</text><text fill="#000000" font-family="sans-serif" font-size="14" lengthAdjust="spacing" textLength="123" x="384" y="80.292">getPageNumber()</text><text fill="#000000" font-family="sans-serif" font-size="14" lengthAdjust="spacing" textLength="97" x="384" y="96.5889">getPageable()</text><text fill="#000000" font-family="sans-serif" font-size="14" lengthAdjust="spacing" textLength="129" x="384" y="112.8857">getItemsPerPage()</text><text fill="#000000" font-family="sans-serif" font-size="14" lengthAdjust="spacing" textLength="99" x="384" y="129.1826">getNextPage()</text><text fill="#000000" font-family="sans-serif" font-size="14" lengthAdjust="spacing" textLength="127" x="384" y="145.4795">getPreviousPage()</text><text fill="#000000" font-family="sans-serif" font-size="14" lengthAdjust="spacing" textLength="107" x="384" y="161.7764">getNextPages()</text><text fill="#000000" font-family="sans-serif" font-size="14" lengthAdjust="spacing" textLength="135" x="384" y="178.0732">getPreviousPages()</text></g><!--class NullPageInterface--><g id="elem_NullPageInterface"><rect codeLine="23" fill="#F1F1F1" height="48" id="NullPageInterface" rx="2.5" ry="2.5" style="stroke:#181818;stroke-width:0.5;" width="153" x="560" y="72"/><ellipse cx="575" cy="88" fill="#B4A7E5" rx="11" ry="11" style="stroke:#181818;stroke-width:1.0;"/><path d="M570.9219,83.7656 L570.9219,81.6094 L578.3125,81.6094 L578.3125,83.7656 L575.8438,83.7656 L575.8438,91.8438 L578.3125,91.8438 L578.3125,94 L570.9219,94 L570.9219,91.8438 L573.3906,91.8438 L573.3906,83.7656 L570.9219,83.7656 Z " fill="#000000"/><text fill="#000000" font-family="sans-serif" font-size="14" font-style="italic" lengthAdjust="spacing" textLength="121" x="589" y="92.8467">NullPageInterface</text><line style="stroke:#181818;stroke-width:0.5;" x1="561" x2="712" y1="104" y2="104"/><line style="stroke:#181818;stroke-width:0.5;" x1="561" x2="712" y1="112" y2="112"/></g><!--class KeysetPageable--><g id="elem_KeysetPageable"><rect codeLine="28" fill="#F1F1F1" height="48" id="KeysetPageable" rx="2.5" ry="2.5" style="stroke:#181818;stroke-width:0.5;" width="143" x="385" y="245"/><ellipse cx="400" cy="261" fill="#ADD1B2" rx="11" ry="11" style="stroke:#181818;stroke-width:1.0;"/><path d="M402.9688,266.6406 Q402.3906,266.9375 401.75,267.0781 Q401.1094,267.2344 400.4063,267.2344 Q397.9063,267.2344 396.5781,265.5938 Q395.2656,263.9375 395.2656,260.8125 Q395.2656,257.6875 396.5781,256.0313 Q397.9063,254.375 400.4063,254.375 Q401.1094,254.375 401.75,254.5313 Q402.4063,254.6875 402.9688,254.9844 L402.9688,257.7031 Q402.3438,257.125 401.75,256.8594 Q401.1563,256.5781 400.5313,256.5781 Q399.1875,256.5781 398.5,257.6563 Q397.8125,258.7188 397.8125,260.8125 Q397.8125,262.9063 398.5,263.9844 Q399.1875,265.0469 400.5313,265.0469 Q401.1563,265.0469 401.75,264.7813 Q402.3438,264.5 402.9688,263.9219 L402.9688,266.6406 Z " fill="#000000"/><text fill="#000000" font-family="sans-serif" font-size="14" lengthAdjust="spacing" textLength="111" x="414" y="265.8467">KeysetPageable</text><line style="stroke:#181818;stroke-width:0.5;" x1="386" x2="527" y1="277" y2="277"/><line style="stroke:#181818;stroke-width:0.5;" x1="386" x2="527" y1="285" y2="285"/></g><!--class OffsetPageable--><g id="elem_OffsetPageable"><rect codeLine="31" fill="#F1F1F1" height="48" id="OffsetPageable" rx="2.5" ry="2.5" style="stroke:#181818;stroke-width:0.5;" width="137" x="7" y="245"/><ellipse cx="22" cy="261" fill="#ADD1B2" rx="11" ry="11" style="stroke:#181818;stroke-width:1.0;"/><path d="M24.9688,266.6406 Q24.3906,266.9375 23.75,267.0781 Q23.1094,267.2344 22.4063,267.2344 Q19.9063,267.2344 18.5781,265.5938 Q17.2656,263.9375 17.2656,260.8125 Q17.2656,257.6875 18.5781,256.0313 Q19.9063,254.375 22.4063,254.375 Q23.1094,254.375 23.75,254.5313 Q24.4063,254.6875 24.9688,254.9844 L24.9688,257.7031 Q24.3438,257.125 23.75,256.8594 Q23.1563,256.5781 22.5313,256.5781 Q21.1875,256.5781 20.5,257.6563 Q19.8125,258.7188 19.8125,260.8125 Q19.8125,262.9063 20.5,263.9844 Q21.1875,265.0469 22.5313,265.0469 Q23.1563,265.0469 23.75,264.7813 Q24.3438,264.5 24.9688,263.9219 L24.9688,266.6406 Z " fill="#000000"/><text fill="#000000" font-family="sans-serif" font-size="14" lengthAdjust="spacing" textLength="105" x="36" y="265.8467">OffsetPageable</text><line style="stroke:#181818;stroke-width:0.5;" x1="8" x2="143" y1="277" y2="277"/><line style="stroke:#181818;stroke-width:0.5;" x1="8" x2="143" y1="285" y2="285"/></g><!--class PagerfantaPageable--><g id="elem_PagerfantaPageable"><rect codeLine="34" fill="#F1F1F1" height="48" id="PagerfantaPageable" rx="2.5" ry="2.5" style="stroke:#181818;stroke-width:0.5;" width="170" x="179.5" y="245"/><ellipse cx="194.5" cy="261" fill="#ADD1B2" rx="11" ry="11" style="stroke:#181818;stroke-width:1.0;"/><path d="M197.4688,266.6406 Q196.8906,266.9375 196.25,267.0781 Q195.6094,267.2344 194.9063,267.2344 Q192.4063,267.2344 191.0781,265.5938 Q189.7656,263.9375 189.7656,260.8125 Q189.7656,257.6875 191.0781,256.0313 Q192.4063,254.375 194.9063,254.375 Q195.6094,254.375 196.25,254.5313 Q196.9063,254.6875 197.4688,254.9844 L197.4688,257.7031 Q196.8438,257.125 196.25,256.8594 Q195.6563,256.5781 195.0313,256.5781 Q193.6875,256.5781 193,257.6563 Q192.3125,258.7188 192.3125,260.8125 Q192.3125,262.9063 193,263.9844 Q193.6875,265.0469 195.0313,265.0469 Q195.6563,265.0469 196.25,264.7813 Q196.8438,264.5 197.4688,263.9219 L197.4688,266.6406 Z " fill="#000000"/><text fill="#000000" font-family="sans-serif" font-size="14" lengthAdjust="spacing" textLength="138" x="208.5" y="265.8467">PagerfantaPageable</text><line style="stroke:#181818;stroke-width:0.5;" x1="180.5" x2="348.5" y1="277" y2="277"/><line style="stroke:#181818;stroke-width:0.5;" x1="180.5" x2="348.5" y1="285" y2="285"/></g><!--reverse link PageableInterface to PageInterface--><g id="link_PageableInterface_PageInterface"><path codeLine="25" d="M354.66,96 C366.42,96 366.19,96 377.95,96 " fill="none" id="PageableInterface-backto-PageInterface" style="stroke:#181818;stroke-width:1.0;"/><polygon fill="#181818" points="342.66,96,348.66,100,354.66,96,348.66,92,342.66,96" style="stroke:#181818;stroke-width:1.0;"/></g><!--reverse link PageInterface to NullPageInterface--><g id="link_PageInterface_NullPageInterface"><path codeLine="26" d="M543.21,96 C554.8,96 548.4,96 559.99,96 " fill="none" id="PageInterface-backto-NullPageInterface" style="stroke:#181818;stroke-width:1.0;stroke-dasharray:7.0,7.0;"/><polygon fill="none" points="525.21,96,543.21,102,543.21,90,525.21,96" style="stroke:#181818;stroke-width:1.0;"/></g><!--reverse link PageableInterface to KeysetPageable--><g id="link_PageableInterface_KeysetPageable"><path codeLine="29" d="M356.005,181.0583 C362.025,186.4983 354.67,179.81 360.5,185 C383.54,205.51 410.09,228.41 429.42,244.95 " fill="none" id="PageableInterface-backto-KeysetPageable" style="stroke:#181818;stroke-width:1.0;"/><polygon fill="none" points="342.65,168.99,351.9822,185.51,360.0278,176.6066,342.65,168.99" style="stroke:#181818;stroke-width:1.0;"/></g><!--reverse link PageableInterface to OffsetPageable--><g id="link_PageableInterface_OffsetPageable"><path codeLine="32" d="M172.9126,179.8667 C142.4526,207.4267 123.01,225.02 101.07,244.86 " fill="none" id="PageableInterface-backto-OffsetPageable" style="stroke:#181818;stroke-width:1.0;"/><polygon fill="none" points="186.26,167.79,168.887,175.4175,176.9381,184.3158,186.26,167.79" style="stroke:#181818;stroke-width:1.0;"/></g><!--reverse link PageableInterface to PagerfantaPageable--><g id="link_PageableInterface_PagerfantaPageable"><path codeLine="35" d="M264.5,195.24 C264.5,219.89 264.5,227.12 264.5,244.7 " fill="none" id="PageableInterface-backto-PagerfantaPageable" style="stroke:#181818;stroke-width:1.0;"/><polygon fill="none" points="264.5,177.24,258.5,195.24,270.5,195.24,264.5,177.24" style="stroke:#181818;stroke-width:1.0;"/></g><!--link OffsetPageable to PagerfantaPageable--><g id="link_OffsetPageable_PagerfantaPageable"><path codeLine="36" d="M144.16,269 C155.91,269 155.66,269 167.42,269 " fill="none" id="OffsetPageable-to-PagerfantaPageable" style="stroke:#181818;stroke-width:1.0;"/><polygon fill="#181818" points="179.42,269,173.42,265,167.42,269,173.42,273,179.42,269" style="stroke:#181818;stroke-width:1.0;"/></g><!--SRC=[ZP51Ri8m44NtFeMNBL9w0bQjX1I1GXPSO99CKYkEZMOSA2gzEpQYfJ66DhkyUNyqN-PUcIqG3DhMFJQoWhhlo8wcURFQadG4Xhs0nWcXZ4DgeKPPGeTGQSn_oAUG_klGXT7h8MzyGhKAwUdvUx9GnEVn5QqW9hd3WKkaNtIlt7i2UtbZ7UY0E69dtREl-EWx1wVE3RmOXofceVV3Upqjy2FgLHBkb1qvxN5QlAbGZ5fFQWXn-nIpR5fLJ8lFZo-fFRK6Phd40rzh9fRFZraMMvVikct_aOsiIpRyUyau-2kVCAShPJPBIIS0]--></g></svg>